/* XPM */
static char *picture[] = {
"80 70 60 2 ",
"   c None",
"XX c #000000",
"++ c #FEFEFF",
".. c #F4F3FF",
"|| c #F8F7FF",
"// c #FCFBFF",
"06 c #F2EFFF",
"07 c #F2F1FF",
"08 c #FEFDFF",
"09 c #EFEFFF",
"0a c #F7F7FF",
"0b c #FCFCFF",
"0c c #F8F8FF",
"0d c #F9F9FF",
"0e c #FAFAFF",
"0f c #F9F8FF",
"0g c #F6F4FF",
"0h c #FBFAFF",
"0i c #F9F7FF",
"0j c #F5F4FF",
"0k c #FBFBFF",
"0l c #FEFCFF",
"0m c #FAF8FF",
"0n c #F7F6FF",
"0o c #F5F5FF",
"0p c #F4F2FF",
"0q c #F6F6FF",
"0r c #FDFCFF",
"0s c #F3F1FF",
"0t c #F8F6FF",
"0u c #F5F3FF",
"0v c #F7F5FF",
"0w c #F3F3FF",
"0x c #F2F0FF",
"0y c #F1EFFF",
"0z c #FAF9FF",
"10 c #FBF9FF",
"11 c #EFEDFF",
"12 c #F4F4FF",
"13 c #F6F5FF",
"14 c #F1F1FF",
"15 c #F1F0FF",
"16 c #FFFEFF",
"17 c #F1EEFF",
"18 c #F2EEFF",
"19 c #FDFDFF",
"1a c #F0EEFF",
"1b c #F0F0FF",
"1c c #ECECFF",
"1d c #FDFBFF",
"1e c #F0EDFF",
"1f c #EFECFF",
"1g c #FCFAFF",
"1h c #F3EDFF",
"1i c #FFCCFF",
"1j c #F0ECFF",
"1k c #FFEBFF",
"1l c #E8E8FF",
"1m c #F3F2FF",
"1n c #EFEBFF",
"                                                                                                                                                                ",
"                                                                                                                                                                ",
"                161d||0u............................................................................................................0w130e08                    ",
"              0k0s0p0f0e0k//////////////////////////////////////////////////////////////////////////////////////////////////////////0k0m0g0x0v                  ",
"          ++0m070k                                                                                                                        080t0708              ",
"          0c0p++                                                                                                                              0e0x19            ",
"        0k0p++                  ++080808080808080808080808080808080808080808080808080808080808080808080808080808080808080808++                  0d0s++          ",
"        07//              0b0c0c0d0d0d100f0d100d100e0m0e0h0e0h0m0h0e0e0m0e0h0e0m0e0h0e0h0m0e0e0h0z0h0h0h0m0e0h0m0e0m0e0e0h0f0f0c0h++            ++..1b          ",
"      0e0p++            0h0c++                                                                                                  0b0c++            0k11          ",
"      130c            0h0k                                                                                                        ++0t++            151c        ",
"      0p0b          0l0f                                                                                                            ++0d            0g14        ",
"      07++          0d++                                                                                                              0c            0g1nXX      ",
"      070b          0t                                                                                                                //0e          0g09XX      ",
"      07++          0f                                                                                                                ++0d          0g09XX      ",
"      070b        ++0d                                                                                                                  0c          0q09XX      ",
"      070b          0d                                                                                                                  0c          0g09XX      ",
"      070l          0d                                                                                                                  0f          0g09XX      ",
"      070b        ++0d                                                                                                                  0c          1209XX      ",
"      070b        ++0f                                                                                                                  0f          0g09XX      ",
"      070l        ++0f                                                                                                                  0c          0g09XX      ",
"      07++          0f                                                                                                                  0f          0g09XX      ",
"      070b        ++0f                                                                                                                  0c          0q09XX      ",
"      070l        ++0c                                                                                                                  0d          0g09XX      ",
"      07++        ++0c                                                                                                                  0c          0g09XX      ",
"      070b          0c                                                                                                                  0c          0g09XX      ",
"      070b          0d                                                                                                                  0f          0q09XX      ",
"      07++        ++0d                                                                                                                  0c          0g09XX      ",
"      070b        ++0d                                                                                                                  0f          0g09XX      ",
"      070b          0d                                                                                                                  0c          0q09XX      ",
"      070l          0d                                                                                                                  0d          0g09XX      ",
"      070b        ++0f                                                                                                                  0c          0g09XX      ",
"      070b        ++0f                                                                                                                  0d          0g09XX      ",
"      070b        ++0f                                                                                                                  0c          0o09XX      ",
"      07++          0f                                                                                                                  0c          0j09XX      ",
"      070b          0c                                                                                                                  0i          0j09XX      ",
"      070l        ++0c                                                                                                                  0a          1209XX      ",
"      07++        ++0c                                                                                                                  0i          0j09XX      ",
"      070b        ++0c                                                                                                                  0a          0j09XX      ",
"      070b          0d                                                                                                                  0d          0j09XX      ",
"      070l          0d                                                                                                                  0a          0o09XX      ",
"      070b        ++0d                                                                                                                  0d          0j09XX      ",
"      070b        ++0d                                                                                                                  0a          0j09XX      ",
"      070l        ++0f                                                                                                                  0a          0j09XX      ",
"      07++        ++0f                                                                                                                  0i          0o09XX      ",
"      070b        ++0f                                                                                                                  0a          0j09XX      ",
"      070b        ++0f                                                                                                                  0i          0j09XX      ",
"      070l        ++0c                                                                                                                  0a          0o09XX      ",
"      070b        ++0c                                                                                                                  0d          0j09XX      ",
"      070l          0c                                                                                                                  0i          0j09XX      ",
"      07++        ++0c                                                                                                                  0d          0j09XX      ",
"      070b        ++0c                                                                                                                  0i          0o09XX      ",
"      070b        ++0d                                                                                                                ++0a          0j09XX      ",
"      070r        ++0f                                                                                                                ++0d          0j09XX      ",
"      070b          0a16                                                                                                              0k1g          1209XX      ",
"      070b          0z0b                                                                                                              0n            0u09XX      ",
"      070r          ++0n                                                                                                            0k0e            0u09XX      ",
"    ++070b            0r0c                                                                                                        0b0i              0w09XX      ",
"      ..0b              190n0k++                    ++++                            ++                        ++              ++0t0d                1m1bXX      ",
"      ||0i                  0b0a0a0a0a0i0n0a0a0a0a0a0i0i0n0a0a0a0a0i0i0n0a0a0a0a0a0a0n0n0a0a0a0a0a0a0a0a0i0a0a0n0i0a0a0n0a0a0v0e                    0y0wXX      ",
"      0k14                                                                                                                                        0z1aXXXX      ",
"      ++..0e                                                                                                                                      0s1cXXXX      ",
"        0b0x0r                                                                                                                                  0a17  XX        ",
"          0h150b                                                                                                                              0v111lXXXX        ",
"            0e0y0c                                                                                                                        0b0w111kXXXX          ",
"              0l170y0u0v||||||||||||||||||||||||||||||||||||||||||||||||||||||||||||||||||||||||||||||||||||||||||||||||||||||||||||0a0o0s1a1j  XXXX            ",
"                  0q181e0906060606060606060606060606060606060606060606060606060606060606060606060606060606060606060606060606060606061f181h1iXXXXXX              ",
"                        XXXXXXXXXXXXXXXXXXXXXXXXXXXXXXXXXXXXXXXXXXXXXXXXXXXXXXXXXXXXXXXXXXXXXXXXXXXXXXXXXXXXXXXXXXXXXXXXXXXXXXXXXXXXXXXXXXXXXX                  ",
"                                                                                                                                                                ",
"                                                                                                                                                                ",
"                                                                                                                                                                "
};