/* XPM */
static char *picture[] = {
"60 80 152 2 ",
"   c None",
"XX c #FEFEFF",
"++ c #F8F8FF",
".. c #F8F7FF",
"|| c #FDFDFF",
"// c #F2F0FF",
"06 c #F8F6FF",
"07 c #FBFBFF",
"08 c #F4F2FF",
"09 c #3DAEFF",
"0a c #F9F9FF",
"0b c #F0EEFF",
"0c c #FBFAFF",
"0d c #F6F4FF",
"0e c #F9F8FF",
"0f c #F6F6FF",
"0g c #FAFAFF",
"0h c #3EAEFF",
"0i c #FCFCFF",
"0j c #FAF8FF",
"0k c #F4F3FF",
"0l c #F2F2FF",
"0m c #FAF9FF",
"0n c #F6F5FF",
"0o c #F7F7FF",
"0p c #F1EFFF",
"0q c #F0F0FF",
"0r c #F1F1FF",
"0s c #EFEFFF",
"0t c #3CADFF",
"0u c #F1F0FF",
"0v c #F5F3FF",
"0w c #FFFEFF",
"0x c #FEFDFF",
"0y c #F2EFFF",
"0z c #FDFBFF",
"10 c #F3F2FF",
"11 c #F7F5FF",
"12 c #F4F4FF",
"13 c #F5F5FF",
"14 c #F2F1FF",
"15 c #F1EEFF",
"16 c #F9FDFF",
"17 c #FBFDFF",
"18 c #49B3FF",
"19 c #F8FDFF",
"1a c #F3F3FF",
"1b c #EFEDFF",
"1c c #F0EFFF",
"1d c #F3F1FF",
"1e c #F7F9FF",
"1f c #F3F8FF",
"1g c #F2F8FF",
"1h c #F5F9FF",
"1i c #DEEEFF",
"1j c #5EBBFF",
"1k c #CCE9FF",
"1l c #4AB4FF",
"1m c #3DADFF",
"1n c #45B0FF",
"1o c #E2F2FF",
"1p c #CCEAFF",
"1q c #B6E0FF",
"1r c #A0D7FF",
"1s c #74C5FF",
"1t c #5FBCFF",
"1u c #E2F3FF",
"1v c #5FBBFF",
"1w c #F0EDFF",
"1x c #CBE9FF",
"1y c #89CEFF",
"1z c #B4DFFF",
"20 c #9FD7FF",
"21 c #FCFDFF",
"22 c #E1F2FF",
"23 c #FAFDFF",
"24 c #F4F0FF",
"25 c #F4F1FF",
"26 c #FCFBFF",
"27 c #F7F6FF",
"28 c #FDFCFF",
"29 c #F2EEFF",
"2a c #F9FAFF",
"2b c #C8E6FF",
"2c c #B2DDFF",
"2d c #9DD5FF",
"2e c #88CCFF",
"2f c #73C3FF",
"2g c #4FB4FF",
"2h c #4EB4FF",
"2i c #5BB8FF",
"2j c #76C3FF",
"2k c #98D2FF",
"2l c #C9E6FF",
"2m c #E3F3FF",
"2n c #B6E1FF",
"2o c #A1D8FF",
"2p c #8BCEFF",
"2q c #75C5FF",
"2r c #60BCFF",
"2s c #7AC5FF",
"2t c #E2F1FF",
"2u c #8ACDFF",
"2v c #4AB3FF",
"2w c #CCE7FF",
"2x c #F9FCFF",
"2y c #8ACEFF",
"2z c #74C4FF",
"30 c #57B6FF",
"31 c #B5DFFF",
"32 c #9FD6FF",
"33 c #43AFFF",
"34 c #E9F1FF",
"35 c #73C5FF",
"36 c #60BBFF",
"37 c #CBE8FF",
"38 c #B4E0FF",
"39 c #88CEFF",
"3a c #73C4FF",
"3b c #5EBCFF",
"3c c #50B4FF",
"3d c #DEF0FF",
"3e c #9ED7FF",
"3f c #88CDFF",
"3g c #72C4FF",
"3h c #49B2FF",
"3i c #3BADFF",
"3j c #56B6FF",
"3k c #9DD4FF",
"3l c #F3F7FF",
"3m c #C8E4FF",
"3n c #B3DCFF",
"3o c #9ED3FF",
"3p c #8CCDFF",
"3q c #7AC6FF",
"3r c #6ABFFF",
"3s c #63BCFF",
"3t c #68BEFF",
"3u c #7AC4FF",
"3v c #98D1FF",
"3w c #BBE1FF",
"3x c #E7F3FF",
"3y c #FCFEFF",
"3z c #FFF7FF",
"40 c #F5F4FF",
"41 c #EEEEFF",
"42 c #FBF9FF",
"43 c #F5F1FF",
"44 c #FEFCFF",
"45 c #EEECFF",
"46 c #FBF7FF",
"47 c #F3EFFF",
"                                                                                                                        ",
"                                                                                                                        ",
"                                                                                                                        ",
"                                      0w||0c0a..0o0n0n0v0n0v0v0n....0m07||XX                                            ",
"                              XX07..0k0b140v..++0m0c0c070k070c0g++060f08//0b0k0e||                                      ",
"                          XX..//0k0j0iXX                0f              XXXX070f100b06||                                ",
"                      XX0j//..||                        06                        0i0d0b25                              ",
"                    XX0k0v||                            06                            0i0l0s0g                          ",
"                  XX08++                            07..0o0o0z                            0d0b++                        ",
"                  0n..                            0z0m      ++0x                            0k0q                        ",
"                0c14                              ++        0w0j                            XX0u0l                      ",
"                0k0c                            ||07          0j                              0615                      ",
"              XX//                              0gXX          ||||                            0i0q++                    ",
"              0c0k                              0j            XX0g                              //0f                    ",
"              110n                              0j              ++                              080q                    ",
"              1406                            0w0j              ++                              080s                    ",
"            XX0u06                            0x0c              ++XX                            400l                    ",
"            070l..                            ||1h16162x161919193lXX                            270u0g                  ",
"            ..0f..                            0i1i2m1o1u1o1u22221iXX                            ++080r                  ",
"            0v07++                            2a2b1k1p1k1x1p371x3m||                            ++++0q                  ",
"            //0x0e                            1e2c2n1q1q311z381z3n17                            0e070b                  ",
"          ||1c  0e                            1f2d2o1r1r3220203e3o23                            060i1c++                ",
"          070k  0e                            1g2e2p2u2y1y1y393f3p23                            06  //13                ",
"          ++0f  0e                            1f2f2q1s2z1s353a3g3q21                            ++  0843                ",
"          0n0c  ..                            1e1j2r1t1v1t1v3b1j3r3y                            0e  060s                ",
"          //||  ..                            ||2g1l2v1l1818183h3s                              0e  420b                ",
"        XX0bXX  ++                            0x2h0h0h0909090t0t3t0w                            06  0i1b0o              ",
"        ||08    ++                            XX2i0h0h0909090t0t3u                              0e  XX0p0a              ",
"        0g12XX  ++                              2j0h0h0909090t0t3v                              06  XX100f              ",
"        0j06    ++                              2k0h0h090909093i3w                              06    0d0r              ",
"        0o0j    ..                              2l1m0h0h0909091m3x                              06    061a              ",
"        0k07    ..                              1h1n0h0h0909093j17                              06    0a0q              ",
"        //XX    0eXX                              2s0h0h09090t3k                              0x0a    070b              ",
"      XX0bXX    ||0g                              2t1n0h0h093c1g                              0aXX    261b              ",
"      ||0b        ++XX                              2w3033363d                              260g      0i//++            ",
"      ||//XX      XX..||                              173421                              070a        XX0p0a            ",
"      0c08            0c0gXX                            ..                            ||0e07          XX//12            ",
"      070d              XX0m..0cXX                      ..                      XX0c0e0c                //0r            ",
"      0m06                  XX280a++0a0g0z||||          0o        XXXX||070g++..0j||XX                  080o            ",
"      0m0f                        XX  XX0i070g0a..0j....0n++..++++0g0g070zXXXX                          080q            ",
"      ++++                                                                                              0d0r            ",
"      ..++                                                                                              0f0l            ",
"      0o0e                                                                                              0d0l            ",
"      110a                                                                                              0d47            ",
"      0o++                                                                                              270s            ",
"      ++++                                                                                              0d0y            ",
"      ....                                                                                              0d0l            ",
"      ++06                                                                                              0d25            ",
"      0a0n                                                                                              081a            ",
"      0g0d                                                                                              //0f            ",
"      0708                                                                                            XX//0g            ",
"      ||//                                                                                            XX0p++            ",
"      XX0uXX                                                                                          440b++            ",
"        0b||                                                                                          0c45              ",
"        0k07                                                                                          0a0q              ",
"        ..0e                                                                                          0f0q              ",
"        0m0d                                                                                          0846              ",
"        ||//                                                                                        XX0s0a              ",
"        XX0b0i                                                                                      0c0p                ",
"          0n0a                                                                                      0f0y                ",
"          0m0d                                                                                      100f                ",
"          XX1dXX                                                                                  0i0l                  ",
"            130a                                                                                  061w                  ",
"            0c08XX                                                                              XX0r0r                  ",
"              //0i                                                                              0a41                    ",
"              0j0d                                                                              0l0r                    ",
"              XX//0i                                                                          0a1b++                    ",
"                0m08                                                                        XX//24                      ",
"                XX0k06                                                                      0d0b                        ",
"                  XX08++0w                                                                0d0b                          ",
"                    XX1d0fXX                                                          XX08//                            ",
"                      XX0d//07                                                    XX0e0u0y++                            ",
"                        0w0m0u080cXX                                          XX0e100b0l                                ",
"                              110b0p120e0iXX                        XXXX070e080p0p1a                                    ",
"                                  ++29150s0p08080f0f06++++06++060d08//0p0s0b0r0a                                        ",
"                                          0a0f0q0y150s1w////0y0r0l24130a3z                                              ",
"                                                                                                                        ",
"                                                                                                                        ",
"                                                                                                                        ",
"                                                                                                                        "
};