/* XPM */
static char *picture[] = {
"60 80 319 2 ",
"   c None",
"XX c #37ABFF",
"++ c #FEFEFF",
".. c #36ABFF",
"|| c #F8F8FF",
"// c #FDFDFF",
"06 c #FBFBFF",
"07 c #38ACFF",
"08 c #39ACFF",
"09 c #F2F0FF",
"0a c #FAFAFF",
"0b c #3AACFF",
"0c c #FCFCFF",
"0d c #F1EFFF",
"0e c #FBFAFF",
"0f c #F9F9FF",
"0g c #F6F5FF",
"0h c #F0EEFF",
"0i c #F8F7FF",
"0j c #FAF8FF",
"0k c #F6F6FF",
"0l c #F7F7FF",
"0m c #FDFBFF",
"0n c #F0F0FF",
"0o c #FAF9FF",
"0p c #F1F0FF",
"0q c #F2F2FF",
"0r c #F4F2FF",
"0s c #F6F4FF",
"0t c #FCFBFF",
"0u c #FEFDFF",
"0v c #F3F3FF",
"0w c #F8F6FF",
"0x c #F4F3FF",
"0y c #F2EFFF",
"0z c #EFEDFF",
"10 c #F3F0FF",
"11 c #3BADFF",
"12 c #DDF1FF",
"13 c #33A9FF",
"14 c #60BCFF",
"15 c #38ABFF",
"16 c #F2F1FF",
"17 c #F5F3FF",
"18 c #FBF9FF",
"19 c #F3F1FF",
"1a c #F3F2FF",
"1b c #FFFEFF",
"1c c #EFEFFF",
"1d c #B0DEFF",
"1e c #DCF1FF",
"1f c #55B8FF",
"1g c #8BCFFF",
"1h c #ADDDFF",
"1i c #F7F5FF",
"1j c #FDFCFF",
"1k c #F0EFFF",
"1l c #3EADFF",
"1m c #34A9FF",
"1n c #D2ECFF",
"1o c #C6E7FF",
"1p c #E9F6FF",
"1q c #C7E8FF",
"1r c #A5D9FF",
"1s c #3BACFF",
"1t c #62BDFF",
"1u c #82CBFF",
"1v c #4CB4FF",
"1w c #56B8FF",
"1x c #76C5FF",
"1y c #C5E7FF",
"1z c #D1ECFF",
"20 c #41AFFF",
"21 c #80CAFF",
"22 c #C4E7FF",
"23 c #D0ECFF",
"24 c #32A9FF",
"25 c #54B8FF",
"26 c #95D2FF",
"27 c #34AAFF",
"28 c #F4F4FF",
"29 c #F5F5FF",
"2a c #F9F8FF",
"2b c #FBF6FF",
"2c c #F1F1FF",
"2d c #D3E7FF",
"2e c #E4F1FF",
"2f c #F0F6FF",
"2g c #DEF1FF",
"2h c #EAF7FF",
"2i c #71C1FF",
"2j c #D3E9FF",
"2k c #F3FAFF",
"2l c #E1EDFF",
"2m c #32A8FF",
"2n c #40AFFF",
"2o c #F7FAFF",
"2p c #BBE2FF",
"2q c #D3ECFF",
"2r c #99D3FF",
"2s c #BBE3FF",
"2t c #3CADFF",
"2u c #43B0FF",
"2v c #83CCFF",
"2w c #D2EDFF",
"2x c #58B9FF",
"2y c #78C7FF",
"2z c #FFFAFF",
"30 c #42AFFF",
"31 c #8DCFFF",
"32 c #A4D9FF",
"33 c #E8F6FF",
"34 c #42B0FF",
"35 c #DCF0FF",
"36 c #6BC0FF",
"37 c #97D4FF",
"38 c #A3D8FF",
"39 c #E8F5FF",
"3a c #EFF4FF",
"3b c #76C6FF",
"3c c #97D3FF",
"3d c #AEDDFF",
"3e c #81CAFF",
"3f c #B9E1FF",
"3g c #35AAFF",
"3h c #A2D8FF",
"3i c #4BB4FF",
"3j c #75C5FF",
"3k c #B8E2FF",
"3l c #40AEFF",
"3m c #5FBCFF",
"3n c #F9F3FF",
"3o c #69C0FF",
"3p c #B7E1FF",
"3q c #C3E6FF",
"3r c #74C4FF",
"3s c #A0D8FF",
"3t c #ACDCFF",
"3u c #F6F3FF",
"3v c #DBEEFF",
"3w c #FEFCFF",
"3x c #F0EDFF",
"3y c #3BABFF",
"3z c #BADEFF",
"40 c #F4F8FF",
"41 c #CBE6FF",
"42 c #D8EBFF",
"43 c #65BCFF",
"44 c #FCFDFF",
"45 c #D9EAFF",
"46 c #F5FBFF",
"47 c #DAEAFF",
"48 c #E7F3FF",
"49 c #F9FCFF",
"4a c #ACD9FF",
"4b c #DDEFFF",
"4c c #EEF5FF",
"4d c #D8ECFF",
"4e c #BFE1FF",
"4f c #B1DCFF",
"4g c #F4FAFF",
"4h c #ECF2FF",
"4i c #32A7FF",
"4j c #3DADFF",
"4k c #41AEFF",
"4l c #53B5FF",
"4m c #63BBFF",
"4n c #71C2FF",
"4o c #7FC6FF",
"4p c #86CAFF",
"4q c #8ACCFF",
"4r c #8FCDFF",
"4s c #90CEFF",
"4t c #92CEFF",
"4u c #93CFFF",
"4v c #8ECDFF",
"4w c #8ACBFF",
"4x c #89CBFF",
"4y c #85CAFF",
"4z c #8DCEFF",
"50 c #E9F7FF",
"51 c #EEEEFF",
"52 c #33A8FF",
"53 c #4EB5FF",
"54 c #58BAFF",
"55 c #63BDFF",
"56 c #6EC1FF",
"57 c #79C7FF",
"58 c #8ED0FF",
"59 c #9AD4FF",
"5a c #BCE3FF",
"5b c #F3F9FF",
"5c c #3EACFF",
"5d c #4EB4FF",
"5e c #6DC1FF",
"5f c #8ECFFF",
"5g c #99D5FF",
"5h c #E9F5FF",
"5i c #F2F8FF",
"5j c #4FB2FF",
"5k c #4DB4FF",
"5l c #6DC2FF",
"5m c #F1F7FF",
"5n c #69BCFF",
"5o c #36AAFF",
"5p c #4CB5FF",
"5q c #57B9FF",
"5r c #6CC2FF",
"5s c #77C6FF",
"5t c #98D3FF",
"5u c #AEDEFF",
"5v c #BAE2FF",
"5w c #C5E6FF",
"5x c #D1EBFF",
"5y c #92CDFF",
"5z c #8CD0FF",
"60 c #AFDDFF",
"61 c #BAE3FF",
"62 c #CEE5FF",
"63 c #31A7FF",
"64 c #6CC1FF",
"65 c #81CBFF",
"66 c #8CCFFF",
"67 c #B9E2FF",
"68 c #41B0FF",
"69 c #4CB3FF",
"6a c #61BCFF",
"6b c #6BC1FF",
"6c c #A2D9FF",
"6d c #F3F6FF",
"6e c #6ABCFF",
"6f c #8BCEFF",
"6g c #E5F3FF",
"6h c #B4DAFF",
"6i c #6AC1FF",
"6j c #96D2FF",
"6k c #B8E1FF",
"6l c #DBF1FF",
"6m c #4EB1FF",
"6n c #4BB3FF",
"6o c #6AC0FF",
"6p c #96D3FF",
"6q c #A2D7FF",
"6r c #EBF1FF",
"6s c #A6D2FF",
"6t c #69C1FF",
"6u c #7FCAFF",
"6v c #95D3FF",
"6w c #A1D7FF",
"6x c #C4E6FF",
"6y c #D0EBFF",
"6z c #D7ECFF",
"70 c #F9FAFF",
"71 c #6ABBFF",
"72 c #4AB4FF",
"73 c #74C5FF",
"74 c #8ACEFF",
"75 c #A1D8FF",
"76 c #ADDCFF",
"77 c #CEEBFF",
"78 c #E2EFFF",
"79 c #53B3FF",
"7a c #4AB3FF",
"7b c #5EBCFF",
"7c c #7FC9FF",
"7d c #89CFFF",
"7e c #CFE7FF",
"7f c #FBFDFF",
"7g c #DDEBFF",
"7h c #63B8FF",
"7i c #3FAEFF",
"7j c #49B4FF",
"7k c #5EBBFF",
"7l c #69BFFF",
"7m c #7EC9FF",
"7n c #89CEFF",
"7o c #B6E1FF",
"7p c #C5E3FF",
"7q c #9DD0FF",
"7r c #51B3FF",
"7s c #34A8FF",
"7t c #33AAFF",
"7u c #46B1FF",
"7v c #50B6FF",
"7w c #5ABAFF",
"7x c #65BEFF",
"7y c #6FC1FF",
"7z c #7AC7FF",
"80 c #84CBFF",
"81 c #90CFFF",
"82 c #9DD5FF",
"83 c #AFDBFF",
"84 c #FAFBFF",
"85 c #F4F0FF",
"86 c #ECF0FF",
"87 c #C7DDFF",
"88 c #C5DEFF",
"89 c #C9E0FF",
"8a c #CBE2FF",
"8b c #CEE3FF",
"8c c #D3E8FF",
"8d c #D8EAFF",
"8e c #DBEDFF",
"8f c #DDEEFF",
"8g c #DEEEFF",
"8h c #E0F0FF",
"8i c #E2F0FF",
"8j c #E3F0FF",
"8k c #E6F2FF",
"8l c #E7F2FF",
"8m c #E8F3FF",
"8n c #EBF4FF",
"8o c #F1F6FF",
"8p c #FBFCFF",
"8q c #FFF9FF",
"8r c #F9F4FF",
"8s c #F4F1FF",
"8t c #F1EEFF",
"8u c #FFF8FF",
"                                                                                                                        ",
"                                                                                                                        ",
"                                      1b0c0e||0i1i0g29172d2d472l4h||0a0m++                                              ",
"                              ++0a0l090h190g0i0j0a0e06||3y1m1m2m4i525c5j5n5y62||//                                      ",
"                          1j0g090g0o++                //1l110b080807XXXX5o13631s6e6h||                                  ",
"                      0u0g0q0a++                      //1l110b0b0807XXXXXX......3g246m6s0f                              ",
"                    060q0j++                          //1l110b0b080707XXXX............2m712l                            ",
"                  060906                          ++||||3z430b0b080807XXXXXX............13797g                          ",
"                //09//                            0j++    442i0b080807XXXXXXXXXX..........137h1c                        ",
"                0g0i                            ++0a        482n0b080707XXXXXXXXXX..........247q||                      ",
"              //09++                            0a++          2i0b080707XXXXXXXXXXXX..........7r86                      ",
"              0a0g                              0i            4a08080807XXXXXXXXXXXXXX........7s87                      ",
"              0g0j                            ++0o            4b4j0b0807XXXXXXXXXXXXXXXX......2488                      ",
"              0906                            //0e            2o4k0b080707XXXXXXXXXXXXXXXX....7t898r                    ",
"            //0h06                            0e0c            ++4l0b080807XXXXXXXXXXXXXXXXXX..138a8s                    ",
"            0a090t                            0a++            1b4m0b08080707XXXXXXXXXXXXXXXXXX138b0n                    ",
"            1i0s0t                            0o++              4n0b0b080707XXXXXXXXXXXXXXXXXX1m8c0d                    ",
"            16||0t                            0j                4o0b0b0808070707XXXXXXXXXXXXXX278d0d||                  ",
"          ++0p0606                            0i                4p110b080807070707XXXXXXXXXXXX273v092b                  ",
"          0m0r0606                            ||++              4q110b0b080707070707XXXXXXXXXX278e0k10                  ",
"          0j0k//0m                            0j                4r2t1s1s0b080808080815151515153g3v||19                  ",
"          0k0a//0m                            ||                4s2u2u30343034682020203l3l2n7i2t8f0t0d                  ",
"          1606//0m                            0j++              4t535d5k5p1v1v691v3i6n3i727a7j7u8g3w0d||                ",
"        ++0h++0m0m                            ||                4u542x2x5q1w1w1f1w1f1f1f2525257v8h++090k                ",
"        1j16  0m0m                            0o                4v551t1t1t14146a1414143m3m7b7k7w8i  0s0q                ",
"        0a0x  //06                            0a++              4w565e5l5r36646b366i6o6t3o3o7l7x8j  ||0y                ",
"        0i||  //06                            0e0u              4x572y2y5s1x3b1x1x3j3b3j733r3r7y8k  0f3x                ",
"        290a  //06                            0u06            0c4y2v2v1u1u1u653e213e216u217c7m7z8l  0c0d0l              ",
"        0r06  //06                              0a            4c4z585f31315z661g6f1g1g1g747d7n808m  ++0d||              ",
"      ++0h++  //0m                              ||            4d2r595g2r5t373c373c6j6p6v262626818n    092z              ",
"      //09++  0u0e                              0o++          4e1r1r1r323238386c3h3h6q6w753s3s828o    0r0v              ",
"      //0r      ||                              //0e        494f1d1d1d1d5u603d1h1h3d1h1h763t3t838p    280q              ",
"      0a0x      0j++                              0j1b    ++2j2p2s5a2p2s5v61673f3f6k3k3k3p3p7o2j      0w8t              ",
"      0a0g        ||                                0i0a40451o1q1q1q1o1o5w1y1y1y2222226x3q3q7p84      2a10              ",
"      ||2a        //||++                              0e411n1n2q2q2w2w1n5x1z1z1z2323236y777e2o        180y              ",
"      1i0a          ++||06                            //422g1212122g1212351e1e1e1e6l356z787f          060d              ",
"      0g0a              //0j0o//                      //2e2h1p2h501p5h3333391p396g2e6r70              0c0z0l            ",
"      0x06                  ++0e||0j0o0e////0u++      1j2f462k4g2k5b5i5m2f3a3a6d0f++                  ++09||            ",
"      0x06                          ++//0c0a0a0o0i0i0i0i0l0l0l0l||0f0a06//++++                        0c1k              ",
"      090c                                                                                            3w0d0f            ",
"      09//                                                                                            1b0d3n            ",
"      0h++                                                                                            ++0p0f            ",
"      0h++                                                                                            ++0p0f            ",
"      0h//                                                                                              0p0f            ",
"      09//                                                                                            ++0d0v            ",
"      0n0c                                                                                            ++0d0f            ",
"      160c                                                                                            ++0d||            ",
"      0v06                                                                                            ++0n8u            ",
"      1706                                                                                            0c0z0l            ",
"      0l0f                                                                                            0t0d              ",
"      ||0w                                                                                            180d              ",
"      0a0s                                                                                            ||3x              ",
"      060r                                                                                            0s10              ",
"      0u09                                                                                            0q0v              ",
"        090c                                                                                        ++0p28              ",
"        170e                                                                                        0c09                ",
"        0i||                                                                                        180z                ",
"        060r                                                                                        0s0n                ",
"        ++0h++                                                                                      090k                ",
"          1718                                                                                    0t0h                  ",
"          0o0s                                                                                    ||0n                  ",
"          ++090u                                                                                  1a0k                  ",
"            0g0f                                                                                060z                    ",
"            0609                                                                                0r10                    ",
"              1906                                                                            0c0h0f                    ",
"              0e0q                                                                            281c                      ",
"              ++0v||                                                                        06098q                      ",
"                //1k06                                                                    ++0p85                        ",
"                  0e1k0c                                                                0c1a3u                          ",
"                    06090e                                                            060p3u                            ",
"                      //1a0x0c                                                    ++0k0q0n                              ",
"                        ++0k0d0k06++                                        ++0t0w0d0n3n                                ",
"                            0c0y0z090k0e0c++                        ++0c0t||0q1a0y0a                                    ",
"                                //0l190h090p0r0s0g0w||||0w||0w0k0s0q0p0h0n0d06||                                        ",
"                                          0f2b2c102c0y09091c1c0n510v2z||                                                ",
"                                                                                                                        ",
"                                                                                                                        ",
"                                                                                                                        ",
"                                                                                                                        ",
"                                                                                                                        "
};