/* XPM */
static char *picture[] = {
"60 80 264 2 ",
"   c None",
"XX c #3EAEFF",
"++ c #FEFEFF",
".. c #FBFBFF",
"|| c #F2F0FF",
"// c #FCFCFF",
"06 c #3CADFF",
"07 c #3DAEFF",
"08 c #FDFDFF",
"09 c #F8F8FF",
"0a c #FAFAFF",
"0b c #F9F9FF",
"0c c #FAF8FF",
"0d c #F6F4FF",
"0e c #F1EFFF",
"0f c #F8F7FF",
"0g c #FBFAFF",
"0h c #3BADFF",
"0i c #3FAFFF",
"0j c #F0EEFF",
"0k c #EFEDFF",
"0l c #FCFBFF",
"0m c #F4F2FF",
"0n c #F9F8FF",
"0o c #C8E8FF",
"0p c #F8F6FF",
"0q c #91D1FF",
"0r c #87CDFF",
"0s c #F2F2FF",
"0t c #F7F7FF",
"0u c #D3ECFF",
"0v c #3FAEFF",
"0w c #71C4FF",
"0x c #7CC8FF",
"0y c #F1F1FF",
"0z c #F6F5FF",
"10 c #F5F5FF",
"11 c #37ABFF",
"12 c #5CBBFF",
"13 c #67BFFF",
"14 c #A8DAFF",
"15 c #B3DFFF",
"16 c #E9F6FF",
"17 c #F6F6FF",
"18 c #FFFEFF",
"19 c #52B6FF",
"1a c #9DD5FF",
"1b c #D4ECFF",
"1c c #F2EFFF",
"1d c #F4F4FF",
"1e c #F4F3FF",
"1f c #B2DFFF",
"1g c #47B1FF",
"1h c #BEE4FF",
"1i c #EFEFFF",
"1j c #F0F0FF",
"1k c #F2F1FF",
"1l c #FAF9FF",
"1m c #FEFDFF",
"1n c #FBF9FF",
"1o c #A7DAFF",
"1p c #BDE4FF",
"1q c #F1F0FF",
"1r c #DEF2FF",
"1s c #F3EFFF",
"1t c #F0EFFF",
"1u c #F7F5FF",
"1v c #39ACFF",
"1w c #36AAFF",
"1x c #5ABAFF",
"1y c #46B1FF",
"1z c #BCE3FF",
"20 c #FCFDFF",
"21 c #51B6FF",
"22 c #9CD5FF",
"23 c #48B2FF",
"24 c #DFF2FF",
"25 c #FDFBFF",
"26 c #3EADFF",
"27 c #F3F0FF",
"28 c #EFEEFF",
"29 c #F5F3FF",
"2a c #F3F3FF",
"2b c #F3F1FF",
"2c c #F9FAFF",
"2d c #DFEFFF",
"2e c #E4F1FF",
"2f c #E7F2FF",
"2g c #FBFDFF",
"2h c #38ACFF",
"2i c #D3E9FF",
"2j c #F0F5FF",
"2k c #64BEFF",
"2l c #84CCFF",
"2m c #9AD4FF",
"2n c #F7FAFF",
"2o c #6FC3FF",
"2p c #7AC8FF",
"2q c #65BEFF",
"2r c #85CCFF",
"2s c #90D0FF",
"2t c #9BD5FF",
"2u c #C7E7FF",
"2v c #71C3FF",
"2w c #DEF1FF",
"2x c #52B7FF",
"2y c #BDE3FF",
"2z c #DFF1FF",
"30 c #DEF0FF",
"31 c #EAF7FF",
"32 c #EFF5FF",
"33 c #5DBBFF",
"34 c #E9F7FF",
"35 c #35A9FF",
"36 c #F3FAFF",
"37 c #87CBFF",
"38 c #93CFFF",
"39 c #D8EDFF",
"3a c #F5FBFF",
"3b c #D3E7FF",
"3c c #F6F3FF",
"3d c #F3F2FF",
"3e c #F4F1FF",
"3f c #FEFCFF",
"3g c #F4F0FF",
"3h c #DFEEFF",
"3i c #D3E4FF",
"3j c #CDE1FF",
"3k c #CCE1FF",
"3l c #CFE3FF",
"3m c #D6E8FF",
"3n c #DBEDFF",
"3o c #DEEFFF",
"3p c #E0EFFF",
"3q c #E2F0FF",
"3r c #EAF4FF",
"3s c #EBF4FF",
"3t c #ECF4FF",
"3u c #F1F6FF",
"3v c #AFD7FF",
"3w c #52B3FF",
"3x c #36A9FF",
"3y c #37AAFF",
"3z c #41AFFF",
"40 c #4BB3FF",
"41 c #55B7FF",
"42 c #5FBBFF",
"43 c #69C0FF",
"44 c #74C4FF",
"45 c #7EC9FF",
"46 c #89CDFF",
"47 c #94D1FF",
"48 c #A1D6FF",
"49 c #B1DBFF",
"4a c #67BBFF",
"4b c #45B0FF",
"4c c #4FB5FF",
"4d c #6EC3FF",
"4e c #79C8FF",
"4f c #8FD1FF",
"4g c #A5D9FF",
"4h c #AFDEFF",
"4i c #BAE2FF",
"4j c #C7E4FF",
"4k c #F3F6FF",
"4l c #56B4FF",
"4m c #3DADFF",
"4n c #50B5FF",
"4o c #8FD0FF",
"4p c #A5DAFF",
"4q c #B1DEFF",
"4r c #C6E8FF",
"4s c #D2E9FF",
"4t c #6EBDFF",
"4u c #45B1FF",
"4v c #50B6FF",
"4w c #A6D9FF",
"4x c #B0DEFF",
"4y c #C7E8FF",
"4z c #D1ECFF",
"50 c #E3EFFF",
"51 c #BBDEFF",
"52 c #5BBAFF",
"53 c #70C2FF",
"54 c #7BC8FF",
"55 c #DAEEFF",
"56 c #FAFBFF",
"57 c #4FB2FF",
"58 c #3EAFFF",
"59 c #66BEFF",
"5a c #7BC7FF",
"5b c #86CCFF",
"5c c #9BD6FF",
"5d c #DDF1FF",
"5e c #EBF3FF",
"5f c #C2E0FF",
"5g c #5CBCFF",
"5h c #66BFFF",
"5i c #A7DBFF",
"5j c #BCE4FF",
"5k c #C8E7FF",
"5l c #E5F1FF",
"5m c #6BBBFF",
"5n c #7CC9FF",
"5o c #92D2FF",
"5p c #E6F4FF",
"5q c #F5F2FF",
"5r c #3FADFF",
"5s c #F2F6FF",
"5t c #CDE6FF",
"5u c #47B2FF",
"5v c #92CCFF",
"5w c #3BACFF",
"5x c #69BCFF",
"5y c #51B3FF",
"5z c #F0F7FF",
"60 c #41ADFF",
"61 c #F3F8FF",
"62 c #67C0FF",
"63 c #ECF2FF",
"64 c #34A9FF",
"65 c #44B0FF",
"66 c #55B6FF",
"67 c #64BCFF",
"68 c #72C1FF",
"69 c #80C7FF",
"6a c #8BCDFF",
"6b c #90CEFF",
"6c c #92CEFF",
"6d c #8FCDFF",
"6e c #8CCBFF",
"6f c #89CBFF",
"6g c #8FCFFF",
"6h c #9BD4FF",
"6i c #E1EDFF",
"6j c #35AAFF",
"6k c #42AFFF",
"6l c #71C2FF",
"6m c #ADDAFF",
"6n c #DDEFFF",
"6o c #EFF6FF",
"6p c #C1E2FF",
"6q c #B2DEFF",
"6r c #D3EDFF",
"6s c #D8EAFF",
"6t c #72C2FF",
"6u c #E7F3FF",
"6v c #C6E6FF",
"6w c #F4FAFF",
"6x c #66BCFF",
"6y c #D9EAFF",
"6z c #3BABFF",
"70 c #B9DFFF",
"71 c #F4F8FF",
"72 c #CDE7FF",
"73 c #E4F2FF",
"74 c #F0F6FF",
"75 c #FDFCFF",
"76 c #FBF6FF",
"77 c #F2EEFF",
"78 c #EEECFF",
"79 c #EEEEFF",
"7a c #EFECFF",
"7b c #F1EEFF",
"                                                                                                                        ",
"                                                                                                                        ",
"                                                                                                                        ",
"                                        ++250a09636i6s3b3b29100z1u0f090g//++                                            ",
"                                ++0b5t5v5x5y6035646j351w6z0a0g0a0a0n0p0d0s0j||0z..++                                    ",
"                            ..5f5m5r115wXXXXXXXXXX0706062608                //0b0d283d//                                ",
"                        08515711XXXX0i0i0iXXXXXXXX0706062625                      ++0n||1c                              ",
"                      4k4t1w07XXXXXX0i0i0iXXXXXXXX0706062608                          ++090e1d                          ",
"                    2j4l1v07XXXXXXXX0i0i0iXXXXXXXX070h6x700909                            0l0e1d                        ",
"                  0a4a1v0607XXXXXXXXXX0iXXXXXXXXXX076t20    080c                            ..0e                        ",
"                183v1w060607XXXXXXXXXXXXXXXXXXXXXX6k6u        0a1m                            090k                      ",
"                2c3w0h060607XXXXXXXXXXXXXXXXXXXXXX6l          ++0c                            ++2810                    ",
"                3h3x0h060607XXXXXXXXXXXXXXXXXXXX076m            09                              0d27                    ",
"                3i3y0h060607XXXXXXXXXXXXXXXXXXXX0v6n            0a++                            0n0k                    ",
"              ++3j110h060607XXXXXXXXXXXXXXXXXXXX652n            0g++                            ..0j                    ",
"              0a3k110h060607XXXXXXXXXXXXXXXXXXXX66++            08..                            ..1i10                  ",
"              0t3l110h060607XXXXXXXXXXXXXXXXXXXX67              180g                            0l1q1c                  ",
"              2a3m110h060607XXXXXXXXXXXXXXXXXXXX68              180c                            ..0d0y                  ",
"            ++||3n110h060607XXXXXXXXXXXXXXXXXXXX69              ++0f                            ..0n0j                  ",
"            08||3o2h0h060707XXXXXXXXXXXXXXXXXXXX37                0c                            ....0e0b                ",
"            0b0z2d2h0h06070707XXXXXXXXXXXXXXXXXX6a                0c                            ////0m1s                ",
"            1u0c2d1v064m07XX580v0v0i0v0v0v0v0vXX6b                0c                            ..0l0d0y                ",
"            1e//3p3z4b1y4u1y1y1g1g1g5u2323231g1g6c                09                            0l//0b0y                ",
"          18||++3q404c4n4v2121212x1919191919192x38                0f                            ..0l..1q                ",
"          080m  2e411x1x1x52125g121212333312121238                0f                            ..//  0k                ",
"          1l1e  2e422k2k2q2q595h13131313131313626d              ++0c                            0l//  3d17              ",
"          0t0f  2f434d2o2o532v0w2v0w0w0w0w0w0w0w6e++            ++0c                            ..0l  0d77              ",
"          290a  2f444e2p2p545a0x5n0x0x0x0x0x0x0x6f++            080g                            ..//  0p1c              ",
"          1k..  3r452l2l2r2r5b0r0r0r0r0r0r0r0r0r3720            ..08                            ..//  1n1i              ",
"        ++||1m  3s464f4o2s2s0q0q5o0q0q0q0q0q0q0q6g6o            0a++                            0l//  0l0j              ",
"        ++||++  3t472m2m2t2t5c2222221a1a1a1a1a1a6h39            09++                            0l..  ++0k              ",
"        ..0m    3u484g4p4w1o1o5i1o141414141414141o6p          ++0c                              ..//  ++0e0b            ",
"        0a0d    2g494h4q4x1f1f1f1f151f1515151515156q2c        ..08                              0p      ||..            ",
"        0c0p      2i4i1z1z1p1p5j2y2y1p1h1h1h1h1h1p1z2i      ++09                              ++0n      1d3e            ",
"        0f0n      2g4j4r4y2u0o5k2u0o0o0o0o0o0o0o0o0o6v6y711l09                                09++      0d3c            ",
"        0z0a        2n4s4z0u0u0u0u0u0u1b1b1b1b1b1b6r0u0u720g                                0f1m        0p1c            ",
"        1e..          2050555d2w2z2w301r241r1r24241r302z3908                          ++..09++          0b1j            ",
"        0s08              565e5l5p16311634161616311616347308                      080c0n08              ..1c            ",
"        0m08                ++080b5s322j325z6136363a6w3a7475    ++  ++08080a0c0909..18                  ..0j            ",
"      ++3g++                          ++08..0a0b0t0t0t0t100t0f0f0c0c0a0g25++                            ..0e            ",
"      ++1t++                                                                                            //||            ",
"      ++0s++                                                                                            3f78            ",
"      ++1t++                                                                                            //0j            ",
"      ++||                                                                                              3f0k            ",
"      ++||++                                                                                            ++1t            ",
"      ++||18                                                                                            //0j            ",
"      ++||++                                                                                            //||            ",
"      ++1j++                                                                                            //79            ",
"      ++1k08                                                                                            ..7a            ",
"      ++0m//                                                                                            0a||            ",
"        1e..                                                                                            0b7b            ",
"        0z0g                                                                                            091i            ",
"        0f0n                                                                                          ++0d0s            ",
"        1l0z                                                                                            0m1s            ",
"        ..0m                                                                                            280b            ",
"        ++||                                                                                          //0k              ",
"          1k//                                                                                        ..0j              ",
"          101n                                                                                        170e              ",
"          1l0d                                                                                        0m2a              ",
"          08||++                                                                                    ++0e09              ",
"            1k..                                                                                    1n1j                ",
"            1u09                                                                                    0d1s                ",
"            //||                                                                                  ++0k0b                ",
"              2b..                                                                                0b0k                  ",
"              0a1e                                                                              ++||27                  ",
"              ++||//                                                                            ..0k                    ",
"                0f0d                                                                          ++0m0s                    ",
"                ++||0g                                                                        091i                      ",
"                  0g||//                                                                    0l0e10                      ",
"                    0b0s//                                                                ..0e1d                        ",
"                      0b||..                                                            0b0e0y                          ",
"                        0a1q0z08                                                    //1d0k17                            ",
"                          1m100e0p//                                          ++..0d0e3e09                              ",
"                              ..5q||||0p0g++++                        ++++1n170s0k3c0b                                  ",
"                                  //0t0e0j0j||0m0d0p090n090n0p17171d0s1q||0j2b17                                        ",
"                                            0a1s0y1j0y1i||||1c0y270y760b                                                ",
"                                                                                                                        ",
"                                                                                                                        ",
"                                                                                                                        ",
"                                                                                                                        "
};