/* XPM */
static char *picture[] = {
"60 80 162 2 ",
"   c None",
"XX c #FEFEFF",
"++ c #F8F8FF",
".. c #FBFBFF",
"|| c #FAFAFF",
"// c #FDFDFF",
"06 c #F8F7FF",
"07 c #F2F0FF",
"08 c #FBFAFF",
"09 c #FCFCFF",
"0a c #3BADFF",
"0b c #F4F2FF",
"0c c #FAF8FF",
"0d c #3CADFF",
"0e c #F0EEFF",
"0f c #F6F5FF",
"0g c #F5F5FF",
"0h c #F9F8FF",
"0i c #F6F6FF",
"0j c #EFEDFF",
"0k c #F1EFFF",
"0l c #FAF9FF",
"0m c #F8F6FF",
"0n c #F4F3FF",
"0o c #F2F1FF",
"0p c #F2F2FF",
"0q c #F1F0FF",
"0r c #3DAEFF",
"0s c #F7F5FF",
"0t c #F3F3FF",
"0u c #FFFEFF",
"0v c #FEFDFF",
"0w c #F6F4FF",
"0x c #F9F9FF",
"0y c #F0F0FF",
"0z c #F4F4FF",
"10 c #F5F3FF",
"11 c #F4F1FF",
"12 c #F7F7FF",
"13 c #F2EFFF",
"14 c #F3F0FF",
"15 c #FCFBFF",
"16 c #F3F2FF",
"17 c #DAEFFF",
"18 c #F1F9FF",
"19 c #57B9FF",
"1a c #C5E7FF",
"1b c #F1FAFF",
"1c c #F1F1FF",
"1d c #F5F4FF",
"1e c #EFEEFF",
"1f c #FBF9FF",
"1g c #FDFCFF",
"1h c #F9F3FF",
"1i c #F6F2FF",
"1j c #E1EFFF",
"1k c #FDFBFF",
"1l c #FEFFFF",
"1m c #42AFFF",
"1n c #F6F3FF",
"1o c #AFDDFF",
"1p c #43B0FF",
"1q c #83CAFF",
"1r c #98D3FF",
"1s c #DBF0FF",
"1t c #42B0FF",
"1u c #6CC1FF",
"1v c #82CBFF",
"1w c #97D3FF",
"1x c #ADDDFF",
"1y c #C3E5FF",
"1z c #3AACFF",
"20 c #F3EFFF",
"21 c #F7F6FF",
"22 c #EFEFFF",
"23 c #F2EEFF",
"24 c #F0EFFF",
"25 c #F7FBFF",
"26 c #F0F7FF",
"27 c #EAF4FF",
"28 c #E4F1FF",
"29 c #E3F0FF",
"2a c #E9F3FF",
"2b c #EFF5FF",
"2c c #F5F8FF",
"2d c #F9FAFF",
"2e c #E7F2FF",
"2f c #B1DBFF",
"2g c #7DC6FF",
"2h c #5DB9FF",
"2i c #49B1FF",
"2j c #41AFFF",
"2k c #54B7FF",
"2l c #69C0FF",
"2m c #80C9FF",
"2n c #95D2FF",
"2o c #ABDBFF",
"2p c #C1E4FF",
"2q c #D8EDFF",
"2r c #EFF7FF",
"2s c #DEF0FF",
"2t c #6CBFFF",
"2u c #3EAEFF",
"2v c #43B1FF",
"2w c #59BAFF",
"2x c #6EC2FF",
"2y c #84CBFF",
"2z c #99D5FF",
"30 c #C6E7FF",
"31 c #D7ECFF",
"32 c #43AFFF",
"33 c #58B9FF",
"34 c #6DC1FF",
"35 c #AFDEFF",
"36 c #C4E6FF",
"37 c #6BBDFF",
"38 c #6CC2FF",
"39 c #98D4FF",
"3a c #56B6FF",
"3b c #AEDCFF",
"3c c #96D1FF",
"3d c #3BACFF",
"3e c #AEDDFF",
"3f c #DBEFFF",
"3g c #F0EDFF",
"3h c #FAFDFF",
"3i c #7CC5FF",
"3j c #56B8FF",
"3k c #6BC2FF",
"3l c #81CBFF",
"3m c #D0E9FF",
"3n c #7CC6FF",
"3o c #4CB3FF",
"3p c #3CACFF",
"3q c #41B0FF",
"3r c #56B9FF",
"3s c #6BC1FF",
"3t c #81CAFF",
"3u c #96D3FF",
"3v c #DAF0FF",
"3w c #F1F8FF",
"3x c #F3F1FF",
"3y c #E1F0FF",
"3z c #C2E3FF",
"40 c #A1D5FF",
"41 c #8CCCFF",
"42 c #7EC7FF",
"43 c #7DC5FF",
"44 c #87CAFF",
"45 c #95D0FF",
"46 c #A3D4FF",
"47 c #B6DEFF",
"48 c #C9E3FF",
"49 c #DBECFF",
"4a c #EFF4FF",
"4b c #F5F0FF",
"4c c #F1EEFF",
"4d c #F5F1FF",
"4e c #F4F0FF",
"4f c #EEEEFF",
"4g c #FBF6FF",
"4h c #F7F3FF",
"                                                                                                                        ",
"                                                                                                                        ",
"                                                                                                                        ",
"                                        09||0l060s0f0g0g0f0g0f0f0s06||080v                                              ",
"                              XX..0s0b0e0b0f120c0l||..||0g08..||++0i0w0b0q0e100c//                                      ",
"                          //0s07100l09XX                ++                XX..0i070e++XX                                ",
"                      XX0607++XX                      XX++                      XX..1d0e1n                              ",
"                    //0o06XX                          XX06                          XX..0p0y                            ",
"                  //16||                            31373a3c3h                          XX0z0e                          ",
"                XX0p||                            2s320d0a3d3i                            XX070t                        ",
"                060f                            1l2t0d0d0a0a0d3m                            090j0x                      ",
"              XX0y//                            2e2u0d0d0a0a0a3n                              0z0t                      ",
"              080pXX                            2f0d0d0d0a0a0a3o//                            ..0k                      ",
"              ++06                              2g0r0r0d0d0a0a3p3y                            XX0k++                    ",
"              0n++                            XX2h0r0r0d0d0a0a1z3z                              1e0t                    ",
"            XX16++                            252i0r0r0d0d0a0a1z40                              0q11                    ",
"            090e||                            262j0r0r0d0d0a0a0a41                            0u160y                    ",
"            0x0n0c                            271m2v1p1t1p1t1m3q42                              210k12                  ",
"            0g060c                            282k2w331919193j3r43                              0h0q0i                  ",
"          0u0o..0c                            1j2l2x34381u1u3k3s44                            XX++0z13                  ",
"          0v07XX||                            1j2m2y1q1q1v1v3l3t45                            XX0h++0e                  ",
"          080bXX||                            292n2z1r391r1w1w3u46                              0h080j                  ",
"          0c0mXX||                            2a2o1o351o3b3e1x1x47                            XX++XX0j++                ",
"          0f||XX||                            2b2p30361a1a1a1y1y48                              ++  070i                ",
"        XX0o//XX08                            2c2q171s171s3f173v49                              0h  0w1c                ",
"        XX24XXXX08                            2d2r18181b1b181b3w4a                            XX0h  ++0j                ",
"        0907  XX||                            1k..            1l06                              0h  1f07                ",
"        ||0w  XX0c                            //..              0c                            XX0h  0907                ",
"        06++  XX||                            XX||            XX++                              0m    0k                ",
"        0g||  XX||                              ++            //..                            XX++    070g              ",
"        0n15  XX0c                              0c            08//                              ++    0b4e              ",
"        0o//  0u0c                              ..//          06                                ++    0i0t              ",
"      XX0pXX    06                              0u||        XX||                              09..    ++13              ",
"      //07      08//                              08//      06XX                              ++      1f22              ",
"      ..0b        ++XX                            XX0c0l||06..                              0815      154f              ",
"      ..0w        XX060v                              //12                              XX0808        0907              ",
"      ||0m          XX0c||XX                          XX++                            //0609          XX0k              ",
"      060h              0v++++..XX                      ++                      XX||06..                0j++            ",
"      06++                  XX..0l++0l||//0v0v  XX    XX++      XXXXXX//..0c0c0608//                  XX1e0x            ",
"      0s0c                          XX//0908||0l++++06++120606060c||0l1k//XX                            0q||            ",
"      0f..                                                                                              070i            ",
"      1008                                                                                              0b0i            ",
"      0f..                                                                                            XX074g            ",
"      0n..                                                                                              0b4h            ",
"      0n..                                                                                              0p0t            ",
"      0g08                                                                                              0b1i            ",
"      10..                                                                                              070i            ",
"      0g08                                                                                              070g            ",
"      0s0x                                                                                              0e0z            ",
"      060m                                                                                              0j              ",
"      0l0i                                                                                            XX0j              ",
"      ..0n                                                                                            090q              ",
"      1g0b                                                                                            080e              ",
"      XX23XX                                                                                          ++0e              ",
"      XX0o09                                                                                          2114              ",
"        0n..                                                                                          0b0t              ",
"        06++                                                                                        0u1e0x              ",
"        ||0b                                                                                        090q                ",
"        XX07                                                                                        0h4c                ",
"        XX11..                                                                                      1d4d                ",
"          ++0i                                                                                    XX0k1h                ",
"          090b                                                                                    1f0e                  ",
"          0u0o..                                                                                XX1d0p                  ",
"            ++0f                                                                                090j++                  ",
"            //07//                                                                              0i0e                    ",
"              0f0h                                                                            XX0k0g                    ",
"              1g07//                                                                          0m22                      ",
"                0s0f                                                                        090j0g                      ",
"                XX0o0h                                                                    XX0714                        ",
"                  //0p||                                                                  0p14                          ",
"                    //070mXX                                                          09070y                            ",
"                      XX0b0b..                                                    XX0h0k20                              ",
"                        XX++070z08                                            XX++0q1c4b                                ",
"                            //0g0e0q0f0809XX                        XXXX..++0o0e0e1c                                    ",
"                                  ++0t0j0e0k0b0n0i0m0m++++0h0m0f0w0b070k0j0714++                                        ",
"                                          1h1i111n110j0y073g133x13200g                                                  ",
"                                                                                                                        ",
"                                                                                                                        ",
"                                                                                                                        ",
"                                                                                                                        "
};