/* XPM */
static char *picture[] = {
"50 50 890 2 ",
"   c None",
"XX c #030208",
"++ c #3870CD",
".. c #020307",
"|| c #2F64C0",
"// c #040207",
"06 c #2356B2",
"07 c #1B49A9",
"08 c #2355B4",
"09 c #000215",
"0a c #194AA9",
"0b c #4582DD",
"0c c #00020F",
"0d c #1B49A7",
"0e c #3671CD",
"0f c #2455B2",
"0g c #020308",
"0h c #000211",
"0i c #2156B2",
"0j c #2156B4",
"0k c #02020A",
"0l c #3970CD",
"0m c #2F64C2",
"0n c #3870CF",
"0o c #3970CB",
"0p c #3164C0",
"0q c #2E65C2",
"0r c #194AA7",
"0s c #3A6FCD",
"0t c #000218",
"0u c #3671CF",
"0v c #030305",
"0w c #020106",
"0x c #3572CD",
"0y c #4D8FE6",
"0z c #02020C",
"10 c #00030F",
"11 c #184AA9",
"12 c #00021C",
"13 c #000213",
"14 c #3A6FCB",
"15 c #000C2F",
"16 c #123994",
"17 c #00020E",
"18 c #0E3B98",
"19 c #0E3B96",
"1a c #000216",
"1b c #040308",
"1c c #4383DD",
"1d c #113A94",
"1e c #3263BF",
"1f c #113A96",
"1g c #000B35",
"1h c #000C33",
"1i c #010B2E",
"1j c #2655B1",
"1k c #3164BD",
"1l c #4681DD",
"1m c #2455B4",
"1n c #2E65C0",
"1o c #0E3A99",
"1p c #2057B4",
"1q c #1949AB",
"1r c #00021E",
"1s c #020305",
"1t c #040205",
"1u c #020B2C",
"1v c #000316",
"1w c #113583",
"1x c #3263C0",
"1y c #2455B1",
"1z c #1C49A6",
"20 c #1D48A6",
"21 c #2456B5",
"22 c #3164BF",
"23 c #1B4AA6",
"24 c #2257B5",
"25 c #1C49A4",
"26 c #1C48A9",
"27 c #020B2A",
"28 c #2654B2",
"29 c #3463BD",
"2a c #3563B9",
"2b c #3163C2",
"2c c #143992",
"2d c #18439F",
"2e c #3D6FC8",
"2f c #2354B3",
"2g c #4980DB",
"2h c #3572CF",
"2i c #0D348F",
"2j c #0D3C98",
"2k c #2254B3",
"2l c #3265C1",
"2m c #2655AD",
"2n c #00011E",
"2o c #396FCF",
"2p c #2457B3",
"2q c #3264BD",
"2r c #2255B1",
"2s c #040B28",
"2t c #3A70CA",
"2u c #4D8EE8",
"2v c #0F3A98",
"2w c #1C48A7",
"2x c #00031A",
"2y c #00021A",
"2z c #000B38",
"30 c #010109",
"31 c #113488",
"32 c #113485",
"33 c #00030C",
"34 c #123A91",
"35 c #113A92",
"36 c #123A92",
"37 c #010B2F",
"38 c #1A48A6",
"39 c #0F3A96",
"3a c #4681DB",
"3b c #4382DF",
"3c c #0A3591",
"3d c #3871CB",
"3e c #4681DF",
"3f c #3971CE",
"3g c #0F3B94",
"3h c #192F68",
"3i c #4582DF",
"3j c #3464B9",
"3k c #2055B3",
"3l c #2F65BF",
"3m c #2057B2",
"3n c #18449D",
"3o c #3C6FCA",
"3p c #2E63C1",
"3q c #1B4AA4",
"3r c #3063BF",
"3s c #4383DB",
"3t c #2D66C0",
"3u c #06174B",
"3v c #17449F",
"3w c #00021F",
"3x c #020204",
"3y c #000117",
"3z c #010207",
"40 c #040309",
"41 c #16306B",
"42 c #2B4F99",
"43 c #172F6B",
"44 c #000B33",
"45 c #2755AA",
"46 c #143481",
"47 c #1B439B",
"48 c #1A439B",
"49 c #16347A",
"4a c #2456AF",
"4b c #0F348C",
"4c c #000B31",
"4d c #3A71CE",
"4e c #123996",
"4f c #0F3C99",
"4g c #4E8DEA",
"4h c #1D48A7",
"4i c #2D64C1",
"4j c #4481DE",
"4k c #376FCC",
"4l c #3065C3",
"4m c #03030B",
"4n c #1D49A2",
"4o c #103488",
"4p c #2D65C2",
"4q c #18449B",
"4r c #0D358A",
"4s c #0D358D",
"4t c #184AAB",
"4u c #2754AF",
"4v c #03020A",
"4w c #1F57B4",
"4x c #3772CE",
"4y c #4A80DA",
"4z c #4880DD",
"50 c #0B3C99",
"51 c #194BAA",
"52 c #0C358D",
"53 c #4782DE",
"54 c #2056B6",
"55 c #000113",
"56 c #3B71CB",
"57 c #040B27",
"58 c #143071",
"59 c #172E71",
"5a c #010C2C",
"5b c #16306D",
"5c c #082060",
"5d c #1C4AAA",
"5e c #1D4394",
"5f c #0F3A99",
"5g c #16398A",
"5h c #3264BB",
"5i c #4881DB",
"5j c #06184A",
"5k c #071846",
"5l c #20489D",
"5m c #072062",
"5n c #192F69",
"5o c #000112",
"5p c #03010C",
"5q c #00011F",
"5r c #010A35",
"5s c #010310",
"5t c #000B39",
"5u c #07174A",
"5v c #0A183F",
"5w c #000313",
"5x c #01030F",
"5y c #000C37",
"5z c #0E2861",
"60 c #173279",
"61 c #091E5D",
"62 c #030409",
"63 c #052067",
"64 c #133483",
"65 c #162F71",
"66 c #12275C",
"67 c #00041E",
"68 c #050A27",
"69 c #14347D",
"6a c #2854AB",
"6b c #041F6C",
"6c c #03206C",
"6d c #13357F",
"6e c #1F448B",
"6f c #071947",
"6g c #1B336F",
"6h c #0E3995",
"6i c #10348C",
"6j c #4880DF",
"6k c #0F348D",
"6l c #031851",
"6m c #1F47A6",
"6n c #2755B3",
"6o c #2654B4",
"6p c #2E63BF",
"6q c #1A4496",
"6r c #000B3F",
"6s c #030408",
"6t c #4283DF",
"6u c #4483E0",
"6v c #4981DE",
"6w c #041751",
"6x c #071844",
"6y c #386FCC",
"6z c #4F8FE9",
"70 c #4E8EE8",
"71 c #0C3591",
"72 c #2356B1",
"73 c #122760",
"74 c #000323",
"75 c #0D163F",
"76 c #000C38",
"77 c #416EC1",
"78 c #0C348C",
"79 c #3673D0",
"7a c #2F66C1",
"7b c #1B439A",
"7c c #0F2F78",
"7d c #1E4393",
"7e c #061846",
"7f c #01010B",
"7g c #000C3E",
"7h c #2055B1",
"7i c #1C4AA0",
"7j c #103586",
"7k c #03184D",
"7l c #21438B",
"7m c #103993",
"7n c #3971D0",
"7o c #3D6ECA",
"7p c #284F9C",
"7q c #3065C1",
"7r c #2350AB",
"7s c #000C3C",
"7t c #3B70CC",
"7u c #1B49AB",
"7v c #1A49A5",
"7w c #1A439D",
"7x c #000C35",
"7y c #2156B6",
"7z c #0E3C94",
"80 c #164BA7",
"81 c #4481DC",
"82 c #03194B",
"83 c #1C4BA7",
"84 c #3F6EC8",
"85 c #050A28",
"86 c #3673CE",
"87 c #103C95",
"88 c #4283DD",
"89 c #3772D0",
"8a c #1849A5",
"8b c #000C41",
"8c c #071843",
"8d c #3671CB",
"8e c #3471CC",
"8f c #1F56B3",
"8g c #4284DB",
"8h c #154CA9",
"8i c #1743A2",
"8j c #2556B5",
"8k c #22438A",
"8l c #06174D",
"8m c #021854",
"8n c #548BE5",
"8o c #2158B3",
"8p c #1C48A1",
"8q c #091746",
"8r c #010A2B",
"8s c #000A32",
"8t c #000B43",
"8u c #052268",
"8v c #194395",
"8w c #1C4AA8",
"8x c #3770CA",
"8y c #2A54AA",
"8z c #2B66C2",
"90 c #0C348B",
"91 c #1E4296",
"92 c #3563BB",
"93 c #0F358A",
"94 c #133074",
"95 c #2F66C3",
"96 c #000C31",
"97 c #184BA7",
"98 c #000312",
"99 c #060B1F",
"9a c #000319",
"9b c #00041D",
"9c c #3F61A9",
"9d c #143991",
"9e c #194AA6",
"9f c #3C62AD",
"9g c #142F72",
"9h c #113998",
"9i c #14347F",
"9j c #10348A",
"9k c #071748",
"9l c #080B1A",
"9m c #000C3A",
"9n c #304F90",
"9o c #000B3C",
"9p c #01040D",
"9q c #00030A",
"9r c #050B25",
"9s c #030406",
"9t c #1D4398",
"9u c #020111",
"9v c #060C26",
"9w c #04092F",
"9x c #000A39",
"9y c #000B3B",
"9z c #000114",
"a0 c #040A22",
"a1 c #000C2E",
"a2 c #0B183B",
"a3 c #000A30",
"a4 c #091748",
"a5 c #1D2E62",
"a6 c #12265B",
"a7 c #1D2E66",
"a8 c #04194E",
"a9 c #07215A",
"aa c #172F6F",
"ab c #0B2061",
"ac c #021653",
"ad c #0C205D",
"ae c #183070",
"af c #294285",
"ag c #172F75",
"ah c #0B1E56",
"ai c #102053",
"aj c #081643",
"ak c #000209",
"al c #02020E",
"am c #000D30",
"an c #0C2053",
"ao c #173072",
"ap c #183A82",
"aq c #2A4F9D",
"ar c #1E448F",
"as c #1A3A85",
"at c #04206A",
"au c #051F69",
"av c #122F7B",
"aw c #123382",
"ax c #04216D",
"ay c #042069",
"az c #153075",
"b0 c #132855",
"b1 c #071941",
"b2 c #000C2D",
"b3 c #03194A",
"b4 c #14316D",
"b5 c #153A8B",
"b6 c #113B91",
"b7 c #1B4496",
"b8 c #123079",
"b9 c #133485",
"ba c #113486",
"bb c #183A84",
"bc c #11357F",
"bd c #224589",
"be c #14316B",
"bf c #000B29",
"bg c #030C2B",
"bh c #000C3D",
"bi c #2E4F94",
"bj c #29509F",
"bk c #19459C",
"bl c #0D3A97",
"bm c #1D49A0",
"bn c #122F7F",
"bo c #143385",
"bp c #214293",
"bq c #123586",
"br c #0F3387",
"bs c #1B459B",
"bt c #1A449A",
"bu c #2450A7",
"bv c #2554AE",
"bw c #3B62AF",
"bx c #000D2F",
"by c #11265B",
"bz c #294FA0",
"c0 c #2056B0",
"c1 c #103289",
"c2 c #123B95",
"c3 c #1B48A3",
"c4 c #1845A2",
"c5 c #2D54A3",
"c6 c #00031F",
"c7 c #11285C",
"c8 c #2D5094",
"c9 c #2956A7",
"ca c #113893",
"cb c #143994",
"cc c #3364C1",
"cd c #3463BB",
"ce c #103583",
"cf c #000414",
"cg c #11285E",
"ch c #2B5198",
"ci c #3D70C1",
"cj c #4981D8",
"ck c #4580DA",
"cl c #3B71C9",
"cm c #00195F",
"cn c #000B27",
"co c #01184E",
"cp c #3464B8",
"cq c #3871CA",
"cr c #3570CC",
"cs c #174CA8",
"ct c #1B47A6",
"cu c #2F65BD",
"cv c #113A8C",
"cw c #143079",
"cx c #24458A",
"cy c #3562B5",
"cz c #1A4BA7",
"d0 c #0E3A93",
"d1 c #11338A",
"d2 c #12348B",
"d3 c #376FCE",
"d4 c #123587",
"d5 c #020B32",
"d6 c #000C32",
"d7 c #010A27",
"d8 c #000B2E",
"d9 c #3962B1",
"da c #001F72",
"db c #143386",
"dc c #1D48A4",
"dd c #133890",
"de c #193A8B",
"df c #133076",
"dg c #011753",
"dh c #192F6B",
"di c #1E336A",
"dj c #050B21",
"dk c #254284",
"dl c #1F55B5",
"dm c #2D65C4",
"dn c #002073",
"do c #03206E",
"dp c #001F6F",
"dq c #002173",
"dr c #2356AF",
"ds c #2352AA",
"dt c #14357C",
"du c #3D62B0",
"dv c #314E90",
"dw c #000212",
"dx c #21438A",
"dy c #002172",
"dz c #0F3588",
"e0 c #2052A9",
"e1 c #10368B",
"e2 c #406EC4",
"e3 c #2C4E96",
"e4 c #13295B",
"e5 c #030A24",
"e6 c #3670D1",
"e7 c #2E63C3",
"e8 c #0B2055",
"e9 c #386FCA",
"ea c #3564C0",
"eb c #3F6ECA",
"ec c #193A7F",
"ed c #000110",
"ee c #14357A",
"ef c #518CE8",
"eg c #1A419E",
"eh c #2651A0",
"ei c #163069",
"ej c #020109",
"ek c #000314",
"el c #234994",
"em c #3D70CC",
"en c #2E65BF",
"eo c #0B3D96",
"ep c #08368E",
"eq c #1849A8",
"er c #143B88",
"es c #020107",
"et c #061944",
"eu c #2A53A2",
"ev c #002279",
"ew c #174AA5",
"ex c #164BA9",
"ey c #1746A2",
"ez c #113782",
"f0 c #051843",
"f1 c #204998",
"f2 c #508DE8",
"f3 c #2F66C0",
"f4 c #1E4592",
"f5 c #020A31",
"f6 c #000D35",
"f7 c #133A85",
"f8 c #2456B7",
"f9 c #4481DA",
"fa c #4D90E7",
"fb c #4C8FE8",
"fc c #3273CD",
"fd c #3972CC",
"fe c #184596",
"ff c #000D4A",
"fg c #1E2E62",
"fh c #0B173F",
"fi c #113780",
"fj c #3B6EC9",
"fk c #518CE6",
"fl c #508DE6",
"fm c #4C8FE6",
"fn c #3373CD",
"fo c #2055B5",
"fp c #386ECE",
"fq c #4780DA",
"fr c #0D3279",
"fs c #0F1F52",
"ft c #4F8CE5",
"fu c #174CAC",
"fv c #2254B5",
"fw c #0B3B9D",
"fx c #1749A8",
"fy c #3B70CE",
"fz c #143175",
"g0 c #010214",
"g1 c #000A3E",
"g2 c #1F2D5E",
"g3 c #05194E",
"g4 c #2855AA",
"g5 c #4980DA",
"g6 c #2556B3",
"g7 c #2B66C0",
"g8 c #1749AA",
"g9 c #2454B6",
"ga c #0A3D99",
"gb c #3665B7",
"gc c #000015",
"gd c #07184E",
"ge c #1D2E64",
"gf c #0F3C8F",
"gg c #194CA8",
"gh c #4E8EE6",
"gi c #4B8EE5",
"gj c #4582DB",
"gk c #4A81DE",
"gl c #2755B5",
"gm c #1744A1",
"gn c #2350AD",
"go c #1F438D",
"gp c #112760",
"gq c #1C2D63",
"gr c #04174F",
"gs c #092161",
"gt c #0F317B",
"gu c #184598",
"gv c #487FD9",
"gw c #4D91E6",
"gx c #4D8FE5",
"gy c #2C65BE",
"gz c #4980DD",
"h0 c #2955AE",
"h1 c #2354B1",
"h2 c #2756B2",
"h3 c #3F6EC6",
"h4 c #1E4391",
"h5 c #000A37",
"h6 c #0D317F",
"h7 c #2755AB",
"h8 c #1A4BAA",
"h9 c #4B8FE4",
"ha c #4E8EE5",
"hb c #0B3490",
"hc c #1C47A5",
"hd c #2855B2",
"he c #3D6FCE",
"hf c #3564BC",
"hg c #042061",
"hh c #4583DA",
"hi c #1843A1",
"hj c #1849A6",
"hk c #0D3B93",
"hl c #2652B1",
"hm c #052063",
"hn c #0B1844",
"ho c #000121",
"hp c #08205C",
"hq c #2456AD",
"hr c #0E3998",
"hs c #0D3B9B",
"ht c #0E368E",
"hu c #2049A5",
"hv c #1C4297",
"hw c #0F307F",
"hx c #2E54A5",
"hy c #2854B3",
"hz c #0C3A98",
"i0 c #1D4396",
"i1 c #09173E",
"i2 c #000321",
"i3 c #1C4BA5",
"i4 c #002175",
"i5 c #487FDA",
"i6 c #1445A1",
"i7 c #05216A",
"i8 c #000C48",
"i9 c #163474",
"ia c #3765B3",
"ib c #3C6FCB",
"ic c #3662BB",
"id c #072060",
"ie c #000115",
"if c #17357B",
"ig c #396ECA",
"ih c #133A95",
"ii c #4F8EEB",
"ij c #000B3D",
"ik c #133678",
"il c #406FC1",
"im c #558BE5",
"in c #0B3692",
"io c #093693",
"ip c #2B53AB",
"iq c #224191",
"ir c #000118",
"is c #173478",
"it c #1F499F",
"iu c #093691",
"iv c #0D358C",
"iw c #2251A9",
"ix c #3D6FC4",
"iy c #021851",
"iz c #000326",
"j0 c #001A5A",
"j1 c #2451A2",
"j2 c #497FD7",
"j3 c #16439E",
"j4 c #2B53AA",
"j5 c #24418D",
"j6 c #000012",
"j7 c #0A2059",
"j8 c #1C4AA2",
"j9 c #3463BF",
"ja c #0D3C94",
"jb c #4C80D4",
"jc c #113373",
"jd c #3564B6",
"je c #1D3983",
"jf c #4683DE",
"jg c #2C64C1",
"jh c #0C358F",
"ji c #0C338E",
"jj c #16449C",
"jk c #4D7FD4",
"jl c #133072",
"jm c #041946",
"jn c #2A5097",
"jo c #2855B0",
"jp c #143A8B",
"jq c #000B37",
"jr c #010A31",
"js c #0B1F5A",
"jt c #143584",
"ju c #0D3998",
"jv c #123A99",
"jw c #2051AD",
"jx c #3F6FC1",
"jy c #0E2865",
"jz c #00032E",
"k0 c #264281",
"k1 c #416EBF",
"k2 c #2650A6",
"k3 c #15357E",
"k4 c #030929",
"k5 c #142F74",
"k6 c #15398D",
"k7 c #2257B3",
"k8 c #0E3997",
"k9 c #0B348E",
"ka c #3564B4",
"kb c #416FC7",
"kc c #264FA7",
"kd c #163A88",
"ke c #173480",
"kf c #1B48A5",
"kg c #1848AA",
"kh c #15449C",
"ki c #173476",
"kj c #081849",
"kk c #010D27",
"kl c #0F2A5F",
"km c #23499E",
"kn c #133386",
"ko c #103687",
"kp c #051747",
"kq c #0C2A60",
"kr c #446EBA",
"ks c #2755AD",
"kt c #183986",
"ku c #132861",
"kv c #03174C",
"kw c #16347D",
"kx c #11358D",
"ky c #17459D",
"kz c #2353B5",
"l0 c #396ECC",
"l1 c #3163BC",
"l2 c #3D6FC6",
"l3 c #274FA6",
"l4 c #0B1845",
"l5 c #060C24",
"l6 c #0C2961",
"l7 c #436DB9",
"l8 c #2756AE",
"l9 c #103B99",
"la c #153A92",
"lb c #18306E",
"lc c #091744",
"ld c #040406",
"le c #091841",
"lf c #143383",
"lg c #548BE6",
"lh c #3066C0",
"li c #2157B1",
"lj c #061F62",
"lk c #0F285E",
"ll c #3C62AB",
"lm c #3462B8",
"ln c #0F3B92",
"lo c #172F6D",
"lp c #00010D",
"lq c #2D4E9D",
"lr c #22489D",
"ls c #2351A7",
"lt c #3862B8",
"lu c #1A49A1",
"lv c #040A2A",
"lw c #000A2D",
"lx c #08184B",
"ly c #162F6F",
"lz c #4783DB",
"m0 c #164499",
"m1 c #00226C",
"m2 c #13357D",
"m3 c #2A4FA0",
"m4 c #123A8F",
"m5 c #193066",
"m6 c #1A4594",
"m7 c #0F2860",
"m8 c #03030D",
"m9 c #080B1E",
"ma c #091843",
"mb c #16337F",
"mc c #2655AF",
"md c #3770C9",
"me c #4B7FD5",
"mf c #1D448F",
"mg c #091E5F",
"mh c #1B3982",
"mi c #2E54A7",
"mj c #2854AD",
"mk c #2754B1",
"ml c #152E71",
"mm c #26437F",
"mn c #091640",
"mo c #091F5B",
"mp c #17337C",
"mq c #1A4498",
"mr c #3B6EC7",
"ms c #4B81D9",
"mt c #3E6EC2",
"mu c #0F3276",
"mv c #000B32",
"mw c #042163",
"mx c #1E4AA3",
"my c #163A90",
"mz c #132F78",
"n0 c #152755",
"n1 c #0B173D",
"n2 c #173073",
"n3 c #0E3078",
"n4 c #2252A4",
"n5 c #4D81D5",
"n6 c #406DBE",
"n7 c #032262",
"n8 c #000424",
"n9 c #000B45",
"na c #01216C",
"nb c #13398E",
"nc c #15388A",
"nd c #24428A",
"ne c #00030E",
"nf c #000417",
"ng c #040C21",
"nh c #152759",
"ni c #295199",
"nj c #416FBD",
"nk c #3C63B0",
"nl c #0C2963",
"nm c #010C28",
"nn c #11265D",
"no c #123078",
"np c #1E4394",
"nq c #324D90",
"nr c #1A2F66",
"ns c #192754",
"nt c #162753",
"nu c #123070",
"nv c #4062A9",
"nw c #001951",
"nx c #00021D",
"ny c #040B25",
"nz c #13275A",
"o0 c #183475",
"o1 c #1E4290",
"o2 c #1E4497",
"o3 c #21428F",
"o4 c #1B2F64",
"o5 c #192652",
"o6 c #101734",
"o7 c #374D86",
"o8 c #040C23",
"o9 c #192650",
"oa c #1B2F62",
"ob c #324F93",
"oc c #15367D",
"od c #123174",
"oe c #042262",
"of c #1D2F61",
"og c #000318",
"oh c #020B28",
"oi c #060B21",
"oj c #19274C",
"ok c #192851",
"ol c #182750",
"om c #000E2B",
"on c #00031C",
"oo c #020D2B",
"op c #00031E",
"1s1sXXXXXX    0v....    //    ..////  4m13575rg1gd6rh58r090cie554v1b      0w//    ..                ",
"0v    XXXX    0v....  1bXXXX0g0g4vej0z0c095775g2gegq8q8s5ai2371i120998170kXX  0w                    ",
"//      ////          XX4m7f1717edek1a3y0t1r372z8lgr8l8thp58ifisj75kjr2n0h0k..ld    1b0w            ",
"////            40301713dj12e52n157xetf0f68c7sg38mgs5c8u7d8y92it1w94js8q1u0t98330k401b  0w          ",
"            0v  301012d8767g7k5zeeeleuf1f7fi6d7c69gth68vhq56141ej85ljtk5736x1i2x9l0kXX  ........    ",
"        ....  0kcfcn6x3hdkdx7l7p2aem0s0s14fj2mg4gfguh72e2g0oig14||1y8pk6ke5mkvle2n09m83z......1b    ",
"////XXXX0g..  0h15cocxd9773j7i2m1k3l0i1n6vfk2gg58ngv8n2t1e231j1e0s0s1x259dknkw5c5ulwm90k6s9s  0w    ",
"////  XX0g330hc6cg6ecy22||240i0i||||||0o0e0e++4z0e0e4w8018393ciu0f0m0s06kf16kxlf59lx2n0h9q..        ",
"  1b    0k09bxc7chcp2e||||7h0i3m3m0l3k0m1p1p||7h8o8f11075f1f2i2i3c1e0m0m0d20169jlqlyma1r0h0k0gXX    ",
"  0w0v0g0hbgbyc8cicq6y4i0m0i3m0o7t0j510j240i2r2l||061q26hr1fih2i1f230p0j0r2w1f36lr9i5n1g9r0c0k0g    ",
"    1tal68bh49c9cj0b3e0ndl3k0q0o0p500a2k||0o||0s0p061q265f2v202v2v0d08061y3v4n484791mbmo960t331b    ",
"    40134443bz1kck3b4j0udm0l4de92p50070a066p0j0806068j071o2w2w0d0d50082p9e3qky3n1f169jmp5j270hXX    ",
"  0g0z12b3bi6a0l1c6t3b0x0b0e4i7q0j110a070a082111gg3r1m072w8i071m0697242b0r383v3v209h2c465n1h990zXX  ",
"  0z09amb4bj4a6j4g6t6z0b0x0e3m||0s7y080a0a0a1m1m2r2l2f070d070a083p8o3p080a072w1z5d1o1d32595k1r0c0k  ",
"  5s1uan69bkc01l2h6u700b0e4p0i||0s0l0q0mf8082fg60p0f5d0707072f0j954k0q21kg7u075d2f0d3n7jn2nh1u1v0z  ",
"XX9z5yaob5bl0o1l++cr0x1l3f0q0i0i1p++++++1p242b0p2p0r0707hs0a080q0e530l2k1q1qkz0a2406mcmqn341nt3w100g",
"5pa0a8apb6280s4d21cs1n3d0o7a0m0m4w4x0ef21l0e0m08080a07070d060q1l4j530l||082k510j3t3t1nmrn4ninu6fog9p",
"9u3wa9aq6a1x2b11382jcz2214||0j1p4x0b0b863sfl++8f0811h80a06||++0x6z1c++950m0j0j0l5ilzmdmsn5nj9c3hoh17",
"1aa15zar451y0a071z3cd06h1j0f2l0q0x4g0x0x0b0b3e4x0q1n3p4l||1n++0x0y8g86++0m060q4z2g2tmemtn6nknvo71u09",
"2ya24142b7bm6h20391d6k4b16391j14ef0b0e0e0e0x790b3a8d3f++3d8z3e1c0y0y0x++08060llg3om0mfmun7nlnw7e2s09",
"9va3aaas46324bca2i2cd1dadn4o7mea4yen2r7q3t8d0b1cgh3s0b8e0x1cii4g0bjf++0q512k0l2tlsm18bmvn8nmnxo8130c",
"5q1gabat6bbn316k1616d2dbdody4s292qeo197v||++0b1c0y0y3s1c2u2u6u3b0e++1p3k112bl0722am29o5q5o0c5o139l10",
"9w5tac636bboc1cb6m6m2c31dp323neb29epev480f0q8e2ugigwh90y2u3b810e8zjg0ik70i144l973qm3mg1g090cny2soi1v",
"5ra4ad636cbp6i4e4h4h166idqdz250f1e7z52872r++0b8g0ygxhahh3a5i3f4p7t141x06||||08210r8ymh8t1r0t4co92712",
"2za5aeaub8642c206nct2i2c784n0r24||80ewf3f90y2u0ygjgy0i8a19i33o0pj919ju6n220p0808062mmimw5y4cnzoaojoo",
"9xa6afav6cbq364f6o0d711d180r0j4d4z++530bfafm0y3s3t0i0fhiht907z191djhjvk83q2q2l06||1ymj1wn9nno05bok74",
"9ya76064b9brc21z6o0d1o23110l7n0u0b0b1c88fb0yftg7++0j0a184bi493904sji167w524ql1||2p0f1j7bnanoo1obolop",
"1g5uagaw31342d0d1m112k4l0n0ue60u0b817088fcfn4p8h8h547yhj354r4riv36351dk9524q2qlh060r28mxnbnp9toc7x2x",
"3w5v61ax3147c31x0m4i3f0u3i2h0u0u++++0u2h2h4j2o0sgkgz0n++3l1k4aiwjajj1919kh5h22li2l28mk7m47935l491h9a",
"0927ahayba351zcc0s6v0u3i792h0n2o3k0j0q0n890nfug8110j0l++8xi5564y3l1kjw4a2q2ql22altm44omy9d345lod1509",
"5p3yaiaz3248c42f||0l6j0u0e++e74t1qeq0m++++0lfvg9gl38231j0p140o8x1l1l5i4y2e2al35g8u5mmlmznc9to2oeom17",
"//09aj651wbs1z0a6p1n0n0n++1p4t1q7u0aex4w++0q4t071o4fhb3c2ji65hixjbjkjxka6qko46lj5j2z9k6lnd1wo36gon9q",
"  5w1h43bbbt1j0p||0od30n4k1n08081m1154890u0nfw26gm25712v1o3g5e428kjljy5bki9g619k1r1a681h5nnq65of1v0g",
"  101i666dbu1y||0o3d4k++7a3l0f0f060m7n0u3i0n1q263vh0hc20hu9194iy5j2z441gkjkpl48r0c0k0c129mnro41g13  ",
"//5x12b0bcbv||++3a3a0l||dre04u230f3p6y0e3i0n210d2d8phd3ghvi7ij1i2y09993y2x2xl5090z  0g5o15nso51u0c  ",
"//3009b16e29142gclcu721eds7i3n7r7v2p||3d3e0nfx0dgn2583875g5c8s0t0c0c9a9bkk671r9b1v0h0z0c9r27o60t0z  ",
"3x3z10b2bd2a2ecd6qcv3gdc4n4q1d2d193q0f0i0n2o078i0d0r0rhkhwi8370t1a1rjz82klkql6lk9m1i0t0h10100c33XX  ",
"0v..ak67bebwc5cecmcwd4dd7b351d1f7w2dey062ofo070d0r0phe84hxi976iz96jmk09c9fkrl7ll9nm55v2xne62        ",
"    621v6f6g436l6r6w60de4o34164eeg1f190f2o540a8j060p3r225hiaikj0jcjnk1kb92ksl8lm779fmm8cnf0kXX//    ",
"      10bf1h4c371u4473df1we1784e1f2d7r8a0lfp211m0rh10r0f0i1kilj1jd3j060j07070d9elum69nn0ng0kXX      ",
"      0g0c0h0h100c0t1h3hdt7j4s1d3919833rfd++0j0a281z181o0ribimj21k1y0608264hl9ln8v7l3hn15w....3x    ",
"        //1t0v0v  1074667c4r3g254u291e562gfq0s0f2j182v5f382b0o0o0i060f0f269hla1w49m7mn12171s9s1s    ",
"XXXXXXXXXX  0v0v  0hd5dg7d297o3o7o2e841k2t0ofyga181818hlhy0d2j1e0p060d231o369ilo9o1i1a170g          ",
"XXXXXXXXXX        1375dhdue22m45eherezf4fe3j3o062jh2288whz18inj31x0f4ukckmktlb5tlv550k        0w    ",
"    ..        ..  0hd6didve342ecei827g8bfffr452t222r0p3r1x8wio4f1jjok2kd9gkulc5a094mXX  XXXX        ",
"    ....////XX..  17d71h7ee4e87s152n85f53u587pgb3jh3hf2m25icipj434jpk3415k152s1a9p..0w              ",
"    ....////    6s3z5x0hdw091v090h0c552sfg59fz8kgoh45e5ei05giqj5je5m3u150t0h5slp0g  1b0w////        ",
"    0gXX  //    1s1s3x0v1t1t    //es4v1afhfs3u7kgp5bhghm58id8m6w3ujqk4090z  XX0g0w      1t1t        ",
"                                    XX7f130t57275a151ghni1151i2s2y130c0zXX                          ",
"                                  0w      30g0gc1a2y85ho120tirj60k                                  "
};