/* XPM */
static char *picture[] = {
"50 50 910 2 ",
"   c None",
"XX c #020107",
"++ c #2051AE",
".. c #010206",
"|| c #2250AE",
"// c #3168C5",
"06 c #030106",
"07 c #1643A0",
"08 c #010109",
"09 c #01010B",
"0a c #010005",
"0b c #3267C5",
"0c c #295EBC",
"0d c #030207",
"0e c #2051B0",
"0f c #2C5DBA",
"0g c #00010D",
"0h c #1F52AE",
"0i c #3068C5",
"0j c #1642A1",
"0k c #3F77D4",
"0l c #2251AD",
"0m c #3D78D2",
"0n c #1543A1",
"0o c #000110",
"0p c #3D78D4",
"0q c #2B5EBA",
"0r c #01010D",
"0s c #2350AD",
"0t c #1544A0",
"0u c #3167C7",
"0v c #2B5DBC",
"0w c #3C79D4",
"0x c #1F51B0",
"0y c #020204",
"0z c #000112",
"10 c #295EBA",
"11 c #285FBC",
"12 c #000114",
"13 c #1742A0",
"14 c #19429E",
"15 c #4077D4",
"16 c #3466C5",
"17 c #000827",
"18 c #244FAB",
"19 c #17429E",
"1a c #010207",
"1b c #4B8BE5",
"1c c #234FAE",
"1d c #1344A1",
"1e c #285EBE",
"1f c #00010E",
"1g c #000117",
"1h c #0D348F",
"1i c #00082C",
"1j c #3068C7",
"1k c #1F50AD",
"1l c #1543A3",
"1m c #000012",
"1n c #010006",
"1o c #020307",
"1p c #02020A",
"1q c #16439E",
"1r c #10348A",
"1s c #4076D6",
"1t c #4D8AE5",
"1u c #4B8BE3",
"1v c #2E69C5",
"1w c #4376D2",
"1x c #2351AF",
"1y c #2E5DB9",
"1z c #0A3593",
"20 c #2051AD",
"21 c #1D52B0",
"22 c #4176D2",
"23 c #3169C8",
"24 c #3F77D6",
"25 c #00011B",
"26 c #12296C",
"27 c #0D2B74",
"28 c #2350AB",
"29 c #10348C",
"2a c #3267C3",
"2b c #0E2A73",
"2c c #17439C",
"2d c #2C5EB7",
"2e c #093693",
"2f c #0C3591",
"2g c #285FBA",
"2h c #112A6C",
"2i c #072B81",
"2j c #4176D4",
"2k c #3A7AD4",
"2l c #3F78D2",
"2m c #2C5DBC",
"2n c #1D52AE",
"2o c #133386",
"2p c #020820",
"2q c #1A4299",
"2r c #2251AB",
"2s c #19429A",
"2t c #1244A3",
"2u c #0E2A74",
"2v c #19429C",
"2w c #041038",
"2x c #2C5DB9",
"2y c #2E5DB7",
"2z c #0F348F",
"30 c #0E1F53",
"31 c #010824",
"32 c #1A419C",
"33 c #0C358F",
"34 c #000119",
"35 c #305DB8",
"36 c #10338D",
"37 c #0D3491",
"38 c #2E5CBA",
"39 c #0A3591",
"3a c #000929",
"3b c #305CB3",
"3c c #3168C3",
"3d c #000930",
"3e c #1F50AC",
"3f c #275FBC",
"3g c #214FAD",
"3h c #2A5DB9",
"3i c #4A8CE3",
"3j c #3066C6",
"3k c #2052B1",
"3l c #3166C4",
"3m c #1941A0",
"3n c #3566C5",
"3o c #2152AF",
"3p c #020109",
"3q c #1344A3",
"3r c #0C2055",
"3s c #1541A0",
"3t c #4077D2",
"3u c #1F50AF",
"3v c #010727",
"3w c #00072C",
"3x c #030208",
"3y c #020003",
"3z c #030104",
"40 c #02113C",
"41 c #162963",
"42 c #0A1F5E",
"43 c #03103C",
"44 c #00011E",
"45 c #0F2A71",
"46 c #001044",
"47 c #00001D",
"48 c #02020C",
"49 c #02071D",
"4a c #0F204E",
"4b c #113488",
"4c c #00092C",
"4d c #020005",
"4e c #00000D",
"4f c #112A6A",
"4g c #00072B",
"4h c #143383",
"4i c #0B2A7A",
"4j c #00000F",
"4k c #020822",
"4l c #3566C3",
"4m c #2451AC",
"4n c #0E2976",
"4o c #1A4395",
"4p c #2F5DB5",
"4q c #0A2B7C",
"4r c #193F92",
"4s c #2053AF",
"4t c #5D9DF5",
"4u c #042069",
"4v c #4077D1",
"4w c #122B6D",
"4x c #1F52AD",
"4y c #2E69C3",
"4z c #1245A1",
"50 c #001043",
"51 c #010825",
"52 c #10358E",
"53 c #3566C2",
"54 c #0C3493",
"55 c #000934",
"56 c #1445A2",
"57 c #1E50AF",
"58 c #1743A2",
"59 c #4F8AE6",
"5a c #4E89E5",
"5b c #03081E",
"5c c #3368C4",
"5d c #2F5CB9",
"5e c #00011D",
"5f c #3267C7",
"5g c #3269C6",
"5h c #3968C0",
"5i c #113583",
"5j c #17439A",
"5k c #5F9CF5",
"5l c #000015",
"5m c #1644A2",
"5n c #2152B1",
"5o c #000008",
"5p c #000115",
"5q c #0C1F57",
"5r c #00073B",
"5s c #001046",
"5t c #00104B",
"5u c #000737",
"5v c #000726",
"5w c #0D1E52",
"5x c #0E1F57",
"5y c #061034",
"5z c #000723",
"60 c #000011",
"61 c #010008",
"62 c #030720",
"63 c #00082E",
"64 c #111F4E",
"65 c #01072B",
"66 c #010103",
"67 c #00082B",
"68 c #0D358C",
"69 c #0D358D",
"6a c #0F2973",
"6b c #02113A",
"6c c #1B3C89",
"6d c #2D5BB9",
"6e c #2352AE",
"6f c #1E3E7B",
"6g c #00020E",
"6h c #1F51B2",
"6i c #1344A0",
"6j c #0F3485",
"6k c #3C6AB8",
"6l c #020724",
"6m c #000931",
"6n c #253B75",
"6o c #0D2A78",
"6p c #5088E5",
"6q c #4177D1",
"6r c #223B7E",
"6s c #062C7F",
"6t c #163F9B",
"6u c #1A429A",
"6v c #163F99",
"6w c #00114A",
"6x c #223B7D",
"6y c #20418E",
"6z c #133481",
"70 c #00104D",
"71 c #0F2A6F",
"72 c #1A4297",
"73 c #2E5DB5",
"74 c #0E2C75",
"75 c #143385",
"76 c #0B2B78",
"77 c #5D9DF7",
"78 c #264FA7",
"79 c #0A2A7D",
"7a c #1742A1",
"7b c #143F9B",
"7c c #1F408F",
"7d c #18419D",
"7e c #4E89E3",
"7f c #0B3490",
"7g c #082060",
"7h c #000927",
"7i c #2A5FBB",
"7j c #1B429D",
"7k c #1744A1",
"7l c #4477D3",
"7m c #274FA6",
"7n c #000212",
"7o c #144099",
"7p c #1D4396",
"7q c #173E99",
"7r c #3365C4",
"7s c #203B80",
"7t c #1843A1",
"7u c #15429F",
"7v c #001147",
"7w c #3E79D5",
"7x c #00114B",
"7y c #00093B",
"7z c #2550AE",
"80 c #0F348D",
"81 c #0D2A76",
"82 c #4E8BE4",
"83 c #3B78D3",
"84 c #2F67C6",
"85 c #14439F",
"86 c #3467C2",
"87 c #0B2059",
"88 c #10214D",
"89 c #2C69C4",
"8a c #13357F",
"8b c #11338A",
"8c c #03216A",
"8d c #2F5DB3",
"8e c #1442A0",
"8f c #4476CF",
"8g c #00001B",
"8h c #2650A2",
"8i c #2D5EBA",
"8j c #2C5FBB",
"8k c #4177CF",
"8l c #3268C8",
"8m c #3169C6",
"8n c #285DBB",
"8o c #254FA5",
"8p c #3166C6",
"8q c #2F5DBB",
"8r c #1B3E92",
"8s c #021041",
"8t c #01000E",
"8u c #0C3390",
"8v c #020F3B",
"8w c #295FBF",
"8x c #3F76D3",
"8y c #265EBB",
"8z c #0C358D",
"90 c #082B7C",
"91 c #032265",
"92 c #0F2A6D",
"93 c #08205E",
"94 c #062C81",
"95 c #032D83",
"96 c #121F4B",
"97 c #000626",
"98 c #3866BC",
"99 c #2250B0",
"9a c #00104A",
"9b c #00072E",
"9c c #5C9EF5",
"9d c #4E8BE6",
"9e c #3C79D2",
"9f c #2251A9",
"9g c #040823",
"9h c #2E69C7",
"9i c #4178D3",
"9j c #113485",
"9k c #000019",
"9l c #1445A4",
"9m c #1E51AD",
"9n c #1C3D82",
"9o c #5B9FF4",
"9p c #295EBE",
"9q c #234FB0",
"9r c #093594",
"9s c #5D9FF5",
"9t c #000111",
"9u c #000113",
"9v c #2E5CBC",
"9w c #1A3E92",
"9x c #0A2979",
"9y c #000105",
"9z c #142A66",
"a0 c #00000C",
"a1 c #244FAE",
"a2 c #000825",
"a3 c #000728",
"a4 c #0B2057",
"a5 c #000213",
"a6 c #0F1F50",
"a7 c #194198",
"a8 c #203E84",
"a9 c #000211",
"aa c #000730",
"ab c #000735",
"ac c #000638",
"ad c #000F45",
"ae c #080814",
"af c #152964",
"ag c #12296D",
"ah c #152966",
"ai c #0D1E54",
"aj c #0D1F51",
"ak c #0B205F",
"al c #1E3B87",
"am c #163381",
"an c #1C3B8B",
"ao c #133284",
"ap c #0F2974",
"aq c #233A7E",
"ar c #142865",
"as c #0D2156",
"at c #060F3A",
"au c #142A64",
"av c #18347D",
"aw c #123384",
"ax c #1D4398",
"ay c #1B439B",
"az c #1B4099",
"b0 c #0D2A7A",
"b1 c #071F65",
"b2 c #162A69",
"b3 c #0E1E59",
"b4 c #111E53",
"b5 c #000A25",
"b6 c #040207",
"b7 c #010204",
"b8 c #001041",
"b9 c #1B4196",
"ba c #133388",
"bb c #0C2979",
"bc c #102A74",
"bd c #061E64",
"be c #081F62",
"bf c #122A6A",
"bg c #11286B",
"bh c #102C6D",
"bi c #223D72",
"bj c #051235",
"bk c #000017",
"bl c #03020A",
"bm c #162961",
"bn c #2E509A",
"bo c #12348B",
"bp c #4168AB",
"bq c #040108",
"br c #020006",
"bs c #040821",
"bt c #070F33",
"bu c #345AAB",
"bv c #3066C8",
"bw c #3268CA",
"bx c #0B2A7C",
"by c #11338C",
"bz c #4476CD",
"c0 c #3F69B3",
"c1 c #001143",
"c2 c #000106",
"c3 c #00082F",
"c4 c #0F1F53",
"c5 c #29396D",
"c6 c #000834",
"c7 c #0A205C",
"c8 c #3C77D5",
"c9 c #3368C6",
"ca c #2B5DB6",
"cb c #2650A6",
"cc c #254EA6",
"cd c #2550AC",
"ce c #224FAC",
"cf c #09297C",
"cg c #3A69B7",
"ch c #0A2059",
"ci c #00062D",
"cj c #06091C",
"ck c #112A6D",
"cl c #4078D5",
"cm c #00105C",
"cn c #001056",
"co c #103488",
"cp c #4675D1",
"cq c #376ABB",
"cr c #032263",
"cs c #1B2958",
"ct c #0E2052",
"cu c #1C4293",
"cv c #001054",
"cw c #112971",
"cx c #1D3D92",
"cy c #14439B",
"cz c #5188E2",
"d0 c #2B5FB3",
"d1 c #113581",
"d2 c #0F2054",
"d3 c #03103A",
"d4 c #0F358A",
"d5 c #2452AA",
"d6 c #4C8CE6",
"d7 c #1E3D90",
"d8 c #0F328C",
"d9 c #1A42A1",
"da c #2E5BB8",
"db c #0B3392",
"dc c #0E3592",
"dd c #1E51AC",
"de c #1A3E94",
"df c #122B6E",
"dg c #00072D",
"dh c #253B74",
"di c #1E4290",
"dj c #10358D",
"dk c #163E95",
"dl c #2450A7",
"dm c #4D8AE7",
"dn c #1245A0",
"do c #083793",
"dp c #274FA7",
"dq c #0F3391",
"dr c #3765C3",
"ds c #0B3694",
"dt c #234EAA",
"du c #2850A7",
"dv c #133483",
"dw c #010822",
"dx c #0A2157",
"dy c #2D4F97",
"dz c #4775CB",
"e0 c #4576D3",
"e1 c #16429B",
"e2 c #2F5CB7",
"e3 c #2F67C4",
"e4 c #609DF8",
"e5 c #1144A0",
"e6 c #4475D2",
"e7 c #062983",
"e8 c #10338F",
"e9 c #0D3690",
"ea c #2B5EB9",
"eb c #233B79",
"ec c #11204B",
"ed c #00123A",
"ee c #1C3D80",
"ef c #305DB0",
"eg c #13409B",
"eh c #3766C0",
"ei c #113589",
"ej c #2450AF",
"ek c #16419F",
"el c #305DBA",
"em c #17337C",
"en c #0C2053",
"eo c #0B2254",
"ep c #325CA8",
"eq c #4278D0",
"er c #1045A1",
"es c #001258",
"et c #2A4EA2",
"eu c #254EAA",
"ev c #3766C2",
"ew c #1A3F90",
"ex c #0D2A70",
"ey c #3767B9",
"ez c #4475D1",
"f0 c #0F3685",
"f1 c #0A205A",
"f2 c #1A3D8E",
"f3 c #1C4199",
"f4 c #3269C4",
"f5 c #09358E",
"f6 c #1C3C87",
"f7 c #132B67",
"f8 c #02000B",
"f9 c #082157",
"fa c #29509B",
"fb c #3269BC",
"fc c #093490",
"fd c #11409C",
"fe c #3C79D6",
"ff c #4D88E6",
"fg c #3168C2",
"fh c #4776C8",
"fi c #012267",
"fj c #082B7F",
"fk c #315DB4",
"fl c #134197",
"fm c #184193",
"fn c #0B2D77",
"fo c #142968",
"fp c #0C2B6B",
"fq c #2F5EB0",
"fr c #4078CF",
"fs c #3C77D3",
"ft c #2152AE",
"fu c #3D7AD7",
"fv c #4B8AE7",
"fw c #3E77D0",
"fx c #3966B7",
"fy c #022366",
"fz c #000839",
"g0 c #0E2B77",
"g1 c #001158",
"g2 c #2F5BB2",
"g3 c #13429E",
"g4 c #4277D5",
"g5 c #3A68BD",
"g6 c #335CAC",
"g7 c #1D3D88",
"g8 c #1D3F87",
"g9 c #4376D1",
"ga c #2D6AC3",
"gb c #3D7AD3",
"gc c #4A8BE5",
"gd c #4D8BE2",
"ge c #2C5EB5",
"gf c #00083C",
"gg c #00073A",
"gh c #1A439F",
"gi c #00105B",
"gj c #3366C2",
"gk c #093795",
"gl c #3B69BE",
"gm c #3A68B6",
"gn c #4168B7",
"go c #213E80",
"gp c #041239",
"gq c #00092B",
"gr c #0C2052",
"gs c #1B3F8B",
"gt c #2F5EB8",
"gu c #4E89E7",
"gv c #3D78D6",
"gw c #4D8AE3",
"gx c #3369C3",
"gy c #04205F",
"gz c #001250",
"h0 c #0A2B7A",
"h1 c #153580",
"h2 c #093691",
"h3 c #0A378A",
"h4 c #163F8E",
"h5 c #2A5099",
"h6 c #203D79",
"h7 c #030825",
"h8 c #000024",
"h9 c #0E2050",
"ha c #2A4F9D",
"hb c #3368C8",
"hc c #2352A4",
"hd c #0C368A",
"he c #16449C",
"hf c #092A7B",
"hg c #0D3493",
"hh c #103492",
"hi c #0A2A77",
"hj c #03113E",
"hk c #00113C",
"hl c #1B3F89",
"hm c #306BC5",
"hn c #0A368F",
"ho c #1B3F9F",
"hp c #103391",
"hq c #18327C",
"hr c #000628",
"hs c #1F3C7E",
"ht c #4178D5",
"hu c #1642A3",
"hv c #18409F",
"hw c #2760BA",
"hx c #3067C4",
"hy c #173C97",
"hz c #1E419D",
"i0 c #1A41A0",
"i1 c #1A419E",
"i2 c #020725",
"i3 c #05225E",
"i4 c #2750A0",
"i5 c #285DB9",
"i6 c #0D3692",
"i7 c #1D54B1",
"i8 c #093493",
"i9 c #264FA9",
"ia c #0C338E",
"ib c #122B6B",
"ic c #09215D",
"id c #2A4F9F",
"ie c #072D82",
"if c #3466C7",
"ig c #2860BD",
"ih c #275EBB",
"ii c #083592",
"ij c #2351A9",
"ik c #14357C",
"il c #0B2258",
"im c #050E35",
"in c #050720",
"io c #00124B",
"ip c #2B509E",
"iq c #2B5EB7",
"ir c #194397",
"is c #062B7C",
"it c #092C7E",
"iu c #0E3489",
"iv c #15429D",
"iw c #0B378E",
"ix c #144196",
"iy c #3C69BC",
"iz c #315EAF",
"j0 c #1E3F8C",
"j1 c #072060",
"j2 c #0D1F4F",
"j3 c #010729",
"j4 c #000014",
"j5 c #000928",
"j6 c #2B4F9D",
"j7 c #072B7F",
"j8 c #194399",
"j9 c #1D53B3",
"ja c #285DBD",
"jb c #2A5FBD",
"jc c #0B2B74",
"jd c #3668BF",
"je c #3867C1",
"jf c #275DBD",
"jg c #0E2B71",
"jh c #071134",
"ji c #000F47",
"jj c #3766BE",
"jk c #3A67C2",
"jl c #2451A4",
"jm c #305DAE",
"jn c #3866BB",
"jo c #3366BF",
"jp c #326BC5",
"jq c #5188E5",
"jr c #4374D0",
"js c #0D378D",
"jt c #0B2B76",
"ju c #030F3F",
"jv c #030923",
"jw c #151F43",
"jx c #315EB3",
"jy c #3268C2",
"jz c #336AC5",
"k0 c #2053AE",
"k1 c #002270",
"k2 c #00226E",
"k3 c #042D7C",
"k4 c #15449C",
"k5 c #5B9DF4",
"k6 c #3D7AD5",
"k7 c #3B78D1",
"k8 c #061F62",
"k9 c #0F1E55",
"ka c #071039",
"kb c #010624",
"kc c #05081B",
"kd c #183E8F",
"ke c #3767BC",
"kf c #336AC4",
"kg c #1645A1",
"kh c #2B5CB9",
"ki c #001057",
"kj c #001055",
"kk c #00135E",
"kl c #3C77D1",
"km c #3466BD",
"kn c #174090",
"ko c #010626",
"kp c #18295F",
"kq c #2A509B",
"kr c #4477CA",
"ks c #5189E0",
"kt c #1D3E8D",
"ku c #325BB3",
"kv c #3467C3",
"kw c #2F6AC8",
"kx c #265FB9",
"ky c #4B8CE6",
"kz c #3F76D1",
"l0 c #356BC3",
"l1 c #3D67B9",
"l2 c #0D2A6E",
"l3 c #111F4C",
"l4 c #09225A",
"l5 c #1D448F",
"l6 c #4478CE",
"l7 c #5089E2",
"l8 c #3567BE",
"l9 c #3866BE",
"la c #326AC7",
"lb c #346AC2",
"lc c #325CB0",
"ld c #203D81",
"le c #162043",
"lf c #032161",
"lg c #5089E0",
"lh c #2960BD",
"li c #3465C4",
"lj c #2F5DB2",
"lk c #0B2C73",
"ll c #000B39",
"lm c #03081C",
"ln c #001141",
"lo c #5488DC",
"lp c #1243A2",
"lq c #2C5EBD",
"lr c #2960BB",
"ls c #2F6DC4",
"lt c #4A8CE2",
"lu c #4A8AE2",
"lv c #183E89",
"lw c #000837",
"lx c #000939",
"ly c #4377CB",
"lz c #1C51AD",
"m0 c #2760B9",
"m1 c #4C8CE3",
"m2 c #5C9EF4",
"m3 c #1E3F84",
"m4 c #233B77",
"m5 c #263B70",
"m6 c #121F49",
"m7 c #01071D",
"m8 c #0E2B67",
"m9 c #335DAF",
"ma c #1F52AB",
"mb c #1243A0",
"mc c #316AC4",
"md c #3069C3",
"me c #1045A3",
"mf c #3A69C1",
"mg c #335CAE",
"mh c #4466AE",
"mi c #213A7A",
"mj c #000316",
"mk c #020308",
"ml c #1F4087",
"mm c #15439B",
"mn c #619CF6",
"mo c #194196",
"mp c #1A3C86",
"mq c #122A66",
"mr c #16337F",
"ms c #5088E7",
"mt c #153484",
"mu c #061F5F",
"mv c #0F204C",
"mw c #000924",
"mx c #010010",
"my c #1A3278",
"mz c #294EA6",
"n0 c #1C53B0",
"n1 c #0F348C",
"n2 c #143386",
"n3 c #11296F",
"n4 c #25418A",
"n5 c #3667C6",
"n6 c #0C2B7B",
"n7 c #203A84",
"n8 c #00072F",
"n9 c #001144",
"na c #0F2B6C",
"nb c #2450A9",
"nc c #2D5EBD",
"nd c #0F2B75",
"ne c #203B82",
"nf c #0D2154",
"ng c #102B70",
"nh c #1A3D8F",
"ni c #2F5EBA",
"nj c #3465C2",
"nk c #1840A0",
"nl c #1843A2",
"nm c #253B77",
"nn c #10214F",
"no c #000209",
"np c #060815",
"nq c #001042",
"nr c #1B3F8D",
"ns c #2352AC",
"nt c #19409B",
"nu c #103590",
"nv c #1A439B",
"nw c #072A7C",
"nx c #0C205B",
"ny c #02103D",
"nz c #00000A",
"o0 c #112965",
"o1 c #1E3E87",
"o2 c #173F94",
"o3 c #173F96",
"o4 c #16419D",
"o5 c #0C2B7D",
"o6 c #0B1F5A",
"o7 c #010F3C",
"o8 c #01071F",
"o9 c #16347A",
"oa c #1C3C89",
"ob c #1A3F8D",
"oc c #1C3D84",
"od c #061F61",
"oe c #133485",
"of c #264FAB",
"og c #111E48",
"oh c #000724",
"oi c #02103F",
"oj c #0C1F59",
"ok c #15286A",
"ol c #112973",
"om c #1E3F8E",
"on c #1D4197",
"oo c #1E3D8D",
"op c #233C7E",
"oq c #10296C",
"or c #1E3E8B",
"os c #274FA4",
"ot c #17327F",
"ou c #0B1F5E",
"ov c #0E1E52",
"ow c #061033",
"ox c #010920",
"oy c #00020F",
"oz c #040F3D",
"p0 c #000E45",
"p1 c #152B67",
"p2 c #00113F",
"p3 c #00062F",
"p4 c #273B70",
"p5 c #223B7B",
"p6 c #020F3C",
"p7 c #05071C",
"p8 c #122045",
"p9 c #000120",
"......1o064dbq06  0y      XX090rf81m44gqh8311m8t0o604j12345e9g5l0r    0yXXXX    XXXX  0d    0a      ",
"  ......  06br060a0y  1n080g0z5b253a88grh9hk67441717j517jhjw4g3v1g0o09XXXX0d    XX                  ",
"06  1o..XXXX      0d  080o1g3a55f9fpg8gshahlhsi3icio7x6wji5x41kpl3lelm0rXX  0a0d1o9y  0y  0a        ",
"06    ..XXXX0a0dXX080g127hedeo6ffafq4pgt1y4p8oi4idipj66y742b4u2h3r2w5b0r08mk085o1a1o  66            ",
"0y0y    1nXX1oc2081f34dgdxeeepeyfbfrg93h3e2x201y2y2r2djdjjjxkd917y171m096g0o9umx481a    ....XXXX    ",
"        0aXX1p0g0z31d3dhdyefeq0m1u82//210h0q3l0b0b3l1s23//jykekql43d251g7h4c2w3w4k0z09XX..9yXXXX    ",
"XX0a0606b6bl4j2p1ict2hdidz6q0m1b1b2k0i113j8lht////8x5f1e0cjz8kkrl5lflnlxm8mlmrmy3r4c1208XX  ....    ",
"XXXX06063y09bsc3306x4q2ve00k0w1b1b2k1v0i231s//i54xiq3e4l53k0kfksl66k9n9nm9mm13mzn4n95enp08          ",
"XXXX    0y0g4gc46r6yd419380b0i1t0w830w0p245f0e6e5jir2q8z7o282022l7lglolyma++9v189wna635pnz    0y    ",
"XX    0db76gbtc5ck6z1r7d2e1der0k5a0w0w0p//3khu14ieisj794331qkg2n1v0w1t6p2j163n||2v8anfa3a508063y    ",
"  0d  660d0g4k2w304w7552390t565c15fsga0m0h0thv2z2iit6s951q0lkh102l0m2g3h3o0f||||287pngnq314e3p06    ",
"XX1n1p484e12471i5u706odje10s070t2j0kgb7e0h07542z29iuj83bjk353b9f4v3c0h0n8e0n||||0lnbnh4w552p0rXX    ",
"08ae1m493v4g6mc65r7076dk180s7f7b0q0k0w0p3k||133m14181yje984o769jl80clp3s3s1x0t6i1d0l2snro03d5p3pXX  ",
"081f6267b8bm6nc742716jdl4m197j330t2a0p5a3l1l1z13130n0e3ejlk1ki8c8d211l9q1c3g0t0l1d++ni8oo1a4170o08  ",
"0a1f444a4fbnbu4o4r72d52ye27o7q1hfcft0kguhb1l3m8u192e++2djmk2kj27988j1k3g1x0n0j0j1l3unjns72o9oi6l0g  ",
"  0o63au6c2s4l0b4s4x10101yeg142f390t15gv1s0e1zi6130s0f2djnk3kkktl90h++0n0n1x0j580enc2m852c6zoj3w0o  ",
"081gajavb90l0b6p0m4y1v0i7i1d0707fd3e//0k240c1k0l0j0l++20jok495ku2x0q1d++||||9v3un52m++1qo2oaokoz5lXX",
"0z5vakaw182t0u0p4t4td6dme30c4z1d0q2a110i24//3k1k2m0f0f0q3c2g0hkv102nlq0v570x0x0v3u5n||1qo39jolp09g09",
"3v4045ax0s6hbvc81t1u771be4590k0i1j843f0k0p8m0x2tif0c0c10jp0mkl0k//5g3j3j231j9p0v0e5m||0so4a7omp1170o",
"aa5w27ay6d6hbw1j0p0m0m7e0p0p5a7wfefu890w590k8p5f8w1e11//4y5k771tla//0u0u24240u160e1x0j0j0j149w4f3aa5",
"ab5x272q6e0b0u1scl2g4zdne510150kfffvgc3i0p0i8l3j0i0i8y7w4t9c1bkw8m110x1616210c160e1l0j7a0j14on4w3a9t",
"ac41al682r2a0uc92d730tdo561k213cfgfwgdgw0m3f3f0iig8y0i0p1uk50w9h//0c2m0e0e0e3k160e1l0ja1137moo9z5va9",
"5rafam2q280h0bca6scu350q570v7rezfhfxgegx2l0mhw11ih11231v839d9h238n0v++0n++1k++0f1k||0j7z2sobopp234a0",
"5s42an691q6i0v4pcm747853e6eh3bf0fify8a8h8khm11110c//0u230wk61v15210q3o20mb++++0f0f||1c144roc5q9bp709",
"5tag2o1h070l0ecbcncv79dp7jeies7x7yfzgfgyhc151s0u0u0u1e1j1t9e0mkx2g3c0q++3u1l||++++0f1cnt5i2h5065120r",
"5t26aoaz190t||cc4ucwd736e72o7sf15s50gggzhd2j1s0u0u1e1e1j1tk70m4y0m0mlrlz5n0e++560f0fa1809xod7vp3491f",
"adahap4b1h07||cdcocxd8dqe829etf24hg02uh0he0b155g1j1ej9jf0p9d1b2k3i1ulsm02n9m0q3h0e99nknuo54uoqp41712",
"5uaiaqb0291907ce6t32d954373718191432522s0l0b15//3f1eja//1v2k1bky3i9cltm1mc3t5c105n3snl8u1roeorp5p825",
"3w43ar6aba1h4m2x2e07da0j7k0s0s5d0s071y8i4s0b//0i//11jb15892k0w0w1u3i9o9o9s822l21++0n0j131878osa888p9",
"255yasb1bbbo2c2ycp0l||1x6dej1c077z071y0f++16hxi7//0c0h100i590p0p0m9elum29s1u0k0b0h1d0l0l1c18a7a840a2",
"1m5z4626bc4h1r1h190l0f++58ek7t6t8069gh7t13070b110x0f||++0e8p150i//lh5g2l5k5k0i0c0q++++||9qof8r4f1i5p",
"091g64b2bd2ubx1r2f0s||dr1c1z1452fj2o8b293633++0c0x++380n993q0c150c2t3q4zmdmn0in057++8q5d141rot5q51a9",
"3x60atb3be2b4n4q1h137a1c380l2f2i81g1gi4n4h2i07160x2m||||0n1d++0h2j0x3s9r2n0kms848w0v5dnv4b4noup64948",
"  0o65b4bf2b6ocf6u2fdb540seleuf36c278ch1hf2i1z3n0v0x0e++0f++0n++0x3n1c9r2t0b//2253356unw8126ov1i9u61",
"3y0g4764bg4iby2z6v33dc371h7d0s28fkg28d3b2chn1z||0v0c0c0h3h4x++5m9lli4l0hme160l5j1r794i272h5q96510oXX",
"3z092p6bbh6j2v072rcy7b14e9397u||++0fgj8j0q387u0j3n0b0b117i2n3o0n3q9l0v2j0c1w2c944ind6a2ho6a6ow1g0rXX",
"3z611m4c6f6kbz6q4vcz1w1wea202e1z07850f0q0c0v58i8ii3o0b0k//2g0h++5m3q0x3l8x2a2c2in64526nx3rogox1f5o  ",
"3zXX0rb5bibpc0cgcqd0dd0v7l1wev077kg33g++0b8n8q0s19iv205cjq//104s9m0h9p1e0k2235n19x457ga4a61i7n1aXX  ",
"  0aXX0zbj4ac1chcrd168ds0j0f7l220b0xgk071k8i2x2yijiw8z5jjr229ikz9i2l1j240k2a1x2v4q2u926no7ohoy      ",
"....  09bk6l47ci6w2b4b7f130n10f4//g48e072e1q4m5h5hix9090js9fkml0lb4v3t3t3t0h3g322o2u6r3r1i5b0906    ",
"....  XX090g0g25462bdedt070t++0q10220e0j2f7qhyi95hiyjcjgjt5iknl1lclj738f86++3m3675nenmnyo80r3p      ",
"..1o    0d0d1n12cs6x7cdu1807070t0h1w7r0n372zhzia2riz919326k871l2ldlklv8hmf2836n2n79znna30o3xXX      ",
"          1n1pcj5yd2dfdv7m396vf50t861w0nhghoi03m074o92879ak98s438vll9am3mgmomtn34140a20z090a        ",
"  0d  0a  3x080o2p1i507g7c7pew4rfl2d8fh2hhhpi1322qj09330jukako9k9k97lwm4mhmpmu30n8310o081n  0y0y    ",
"        ....XX1p0g125155ebemexf6fmg5glh3298b8r5iikj15w969bkb0z0g0r5l3dm5mimqmv1712a0no1a  0d  0a    ",
"  0a  0d  ..      1p0odwecen7vf7fng6gmh4hihq7sibilj26m97jvkc090a  1f17m64a6bmw0z080d....0d0a  0d    ",
"    06      060aXX1a080g7n1g5z3dfog7gnh542468s8vimj362121f09XX    080zm7mj9t0g1pXXXXXXXX0606  0a    ",
"    064d    06  XX1a0a    1a0g344387goh6hjhri28ginj48t09XX  06060y  09095o..0d    XXXXXX064d        ",
"                            1a0g0z5egp2w4k0z4e0r0r093pXX            XXXXXX                          ",
"                                  0g8gh74j08XX                                                      "
};