/* XPM */
static char *picture[] = {
"50 50 904 2 ",
"   c None",
"XX c #030208",
"++ c #030305",
".. c #204DAA",
"|| c #040207",
"// c #2859B8",
"06 c #000211",
"07 c #2759B8",
"08 c #020307",
"09 c #02020A",
"0a c #123B95",
"0b c #133A95",
"0c c #00020E",
"0d c #123B97",
"0e c #103B97",
"0f c #020308",
"0g c #020106",
"0h c #275AB6",
"0i c #1F4DAB",
"0j c #214CAA",
"0k c #3F77D4",
"0l c #255ABA",
"0m c #000215",
"0n c #4C89E4",
"0o c #4A8AE4",
"0p c #2859B6",
"0q c #356DCC",
"0r c #255AB6",
"0s c #356DCE",
"0t c #00020F",
"0u c #02020C",
"0v c #092E87",
"0w c #234CA8",
"0x c #3D78D4",
"0y c #3C79D6",
"0z c #040308",
"10 c #214CA8",
"11 c #2B58B3",
"12 c #4077D4",
"13 c #153A93",
"14 c #3D78D6",
"15 c #1D4EAD",
"16 c #000218",
"17 c #2A58B6",
"18 c #3267C3",
"19 c #4C89E2",
"1a c #1D4EAB",
"1b c #1E47A1",
"1c c #00021A",
"1d c #1B48A5",
"1e c #0E3D99",
"1f c #3C79D4",
"1g c #2759BA",
"1h c #366CCC",
"1i c #000216",
"1j c #153B90",
"1k c #2B58B5",
"1l c #072E89",
"1m c #00021C",
"1n c #204CAB",
"1o c #133B93",
"1p c #1A49A3",
"1q c #1F4DAD",
"1r c #1C47A3",
"1s c #366CCE",
"1t c #376CCA",
"1u c #1C4EAF",
"1v c #030C2B",
"1w c #030408",
"1x c #020C2F",
"1y c #1F479F",
"1z c #000316",
"20 c #396CC8",
"21 c #103C95",
"22 c #072F87",
"23 c #000C32",
"24 c #000D30",
"25 c #4A8AE2",
"26 c #2859B5",
"27 c #2A59B5",
"28 c #366DCA",
"29 c #245ABA",
"2a c #255AB8",
"2b c #376CC8",
"2c c #204DA8",
"2d c #336DCE",
"2e c #356DCA",
"2f c #336ECC",
"2g c #2A58B8",
"2h c #06184A",
"2i c #163A90",
"2j c #010109",
"2k c #123B93",
"2l c #020107",
"2m c #3168C5",
"2n c #071843",
"2o c #4D88E2",
"2p c #062F89",
"2q c #0A2D87",
"2r c #1C48A1",
"2s c #193A89",
"2t c #153A92",
"2u c #4176D4",
"2v c #1E47A3",
"2w c #103B99",
"2x c #092E89",
"2y c #1F4EAA",
"2z c #376CCC",
"30 c #3068C5",
"31 c #3467C3",
"32 c #3C77D3",
"33 c #1C4EAD",
"34 c #235BBA",
"35 c #3267C5",
"36 c #4076D6",
"37 c #040205",
"38 c #03020A",
"39 c #03030D",
"3a c #02020E",
"3b c #000110",
"3c c #00011E",
"3d c #00021E",
"3e c #102D79",
"3f c #0B2E82",
"3g c #0D2E7D",
"3h c #0A2E84",
"3i c #0A2E86",
"3j c #0E2D7D",
"3k c #0E296E",
"3l c #133C96",
"3m c #113A94",
"3n c #153A95",
"3o c #0B2E80",
"3p c #3368C4",
"3q c #163B93",
"3r c #3467C2",
"3s c #3466C5",
"3t c #275AB5",
"3u c #214897",
"3v c #1E4FAC",
"3w c #396BCA",
"3x c #082D86",
"3y c #214DAC",
"3z c #4D88E4",
"40 c #3168C3",
"41 c #1B48A3",
"42 c #0B2E7F",
"43 c #0F3C97",
"44 c #1A3A87",
"45 c #4D88E6",
"46 c #3A79D6",
"47 c #3B78D3",
"48 c #2B57B6",
"49 c #2858BA",
"4a c #3F77D6",
"4b c #366ECD",
"4c c #356BCD",
"4d c #1F4DAF",
"4e c #040309",
"4f c #00031E",
"4g c #000D2F",
"4h c #050C26",
"4i c #010206",
"4j c #0A1741",
"4k c #071844",
"4l c #132965",
"4m c #000114",
"4n c #030C2D",
"4o c #1B3979",
"4p c #0A2F88",
"4q c #030106",
"4r c #214DA6",
"4s c #0F3A96",
"4t c #0C2A72",
"4u c #00030F",
"4v c #00030C",
"4w c #4077D2",
"4x c #1C47A5",
"4y c #133A97",
"4z c #173A8E",
"50 c #4B8BE5",
"51 c #2C57B3",
"52 c #092E86",
"53 c #4475D1",
"54 c #04184D",
"55 c #071F5F",
"56 c #3A6BC8",
"57 c #214CAB",
"58 c #244DA9",
"59 c #000116",
"5a c #244CA4",
"5b c #030B2F",
"5c c #0D2E7F",
"5d c #113C98",
"5e c #1F48A4",
"5f c #163A92",
"5g c #071846",
"5h c #1A49A5",
"5i c #245BB6",
"5j c #042F8B",
"5k c #00021F",
"5l c #4989E3",
"5m c #1C4FAB",
"5n c #356CD0",
"5o c #376BCE",
"5p c #498AE4",
"5q c #366BC9",
"5r c #224DAB",
"5s c #346CC9",
"5t c #4A89E6",
"5u c #0B173F",
"5v c #153B8C",
"5w c #020D2D",
"5x c #000225",
"5y c #000213",
"5z c #01010B",
"60 c #030409",
"61 c #000112",
"62 c #050C29",
"63 c #000D36",
"64 c #000313",
"65 c #1B387E",
"66 c #1C377E",
"67 c #0B1E58",
"68 c #081643",
"69 c #000B31",
"6a c #173A8C",
"6b c #092D81",
"6c c #0D2D80",
"6d c #04174F",
"6e c #06174B",
"6f c #132A60",
"6g c #040108",
"6h c #143C93",
"6i c #0B2D84",
"6j c #041F64",
"6k c #061F61",
"6l c #10296B",
"6m c #0D2A70",
"6n c #000D39",
"6o c #0A2A75",
"6p c #2E58AE",
"6q c #3366C2",
"6r c #092F84",
"6s c #091F5B",
"6t c #03030F",
"6u c #03174A",
"6v c #4D8AE5",
"6w c #0F3D95",
"6x c #020305",
"6y c #3864BD",
"6z c #3766C2",
"70 c #3566C3",
"71 c #092D85",
"72 c #142A5C",
"73 c #2C4683",
"74 c #00185B",
"75 c #3F78D2",
"76 c #002172",
"77 c #224AA9",
"78 c #234CA6",
"79 c #1C377A",
"7a c #3F76D1",
"7b c #00195F",
"7c c #103D9A",
"7d c #123A99",
"7e c #1B387A",
"7f c #3168C2",
"7g c #2A5AAF",
"7h c #3865C2",
"7i c #173B8F",
"7j c #07174A",
"7k c #2C58AF",
"7l c #0F3C99",
"7m c #01030F",
"7n c #3966C1",
"7o c #366DC8",
"7p c #3865C0",
"7q c #143992",
"7r c #133C98",
"7s c #0E2E7B",
"7t c #204697",
"7u c #000317",
"7v c #295AB7",
"7w c #1D4EAA",
"7x c #082E83",
"7y c #3A6BCA",
"7z c #052E8A",
"80 c #21469F",
"81 c #001864",
"82 c #020B2C",
"83 c #061F5F",
"84 c #3E79D5",
"85 c #204CA5",
"86 c #000D44",
"87 c #143A8F",
"88 c #22498E",
"89 c #4176D2",
"8a c #3568C4",
"8b c #204CAD",
"8c c #214895",
"8d c #396CC7",
"8e c #5188E5",
"8f c #123A92",
"8g c #000C39",
"8h c #326FCC",
"8i c #184AA3",
"8j c #3C78D8",
"8k c #3D77D8",
"8l c #386DCB",
"8m c #113C9A",
"8n c #3069C3",
"8o c #2658B7",
"8p c #295AB9",
"8q c #3D78D2",
"8r c #3C76D7",
"8s c #1D4DAF",
"8t c #234697",
"8u c #3269C3",
"8v c #2459B9",
"8w c #274B9F",
"8x c #285AB9",
"8y c #000B35",
"8z c #1A48A6",
"90 c #0F3B9A",
"91 c #020C30",
"92 c #030C29",
"93 c #193B85",
"94 c #265BBB",
"95 c #235AB7",
"96 c #4C89E6",
"97 c #234C9C",
"98 c #0A1F56",
"99 c #356BCB",
"9a c #3267C7",
"9b c #071F5D",
"9c c #174AA6",
"9d c #3566C2",
"9e c #326FCA",
"9f c #17285C",
"9g c #2D6AC5",
"9h c #000E36",
"9i c #2D58B4",
"9j c #02010F",
"9k c #366ECB",
"9l c #1E4FAE",
"9m c #132963",
"9n c #060C24",
"9o c #2459B7",
"9p c #1B3679",
"9q c #00011B",
"9r c #040406",
"9s c #00040F",
"9t c #3965BC",
"9u c #010310",
"9v c #03030B",
"9w c #081945",
"9x c #061745",
"9y c #0A1944",
"9z c #000C2F",
"a0 c #000414",
"a1 c #090B20",
"a2 c #142962",
"a3 c #1F3777",
"a4 c #122D70",
"a5 c #142D70",
"a6 c #142968",
"a7 c #05164A",
"a8 c #091746",
"a9 c #0B1842",
"aa c #000B33",
"ab c #030B32",
"ac c #050B2F",
"ad c #000020",
"ae c #040E31",
"af c #000D34",
"ag c #0A1E53",
"ah c #112967",
"ai c #193A8B",
"aj c #102D7B",
"ak c #0E2872",
"al c #061D60",
"am c #132861",
"an c #06174F",
"ao c #06174D",
"ap c #22376E",
"aq c #3D5696",
"ar c #030E2C",
"as c #15295C",
"at c #1C3975",
"au c #1A3880",
"av c #183B8F",
"aw c #22479F",
"ax c #102E77",
"ay c #254791",
"az c #5074BE",
"b0 c #1A3979",
"b1 c #010207",
"b2 c #00011A",
"b3 c #1B2852",
"b4 c #294688",
"b5 c #3158A7",
"b6 c #244D9D",
"b7 c #1E489C",
"b8 c #1B3981",
"b9 c #4875C8",
"ba c #224891",
"bb c #08215A",
"bc c #091843",
"bd c #000119",
"be c #244690",
"bf c #4776CE",
"bg c #4177CF",
"bh c #4F88E1",
"bi c #1E46A5",
"bj c #15398D",
"bk c #0A2E82",
"bl c #3965BE",
"bm c #4775CD",
"bn c #1F499D",
"bo c #183881",
"bp c #0E2052",
"bq c #0D173A",
"br c #000323",
"bs c #163D8C",
"bt c #326DC9",
"bu c #2F58B2",
"bv c #2E57B1",
"bw c #0A2F80",
"bx c #29468C",
"by c #000D3B",
"bz c #000C40",
"c0 c #244D9F",
"c1 c #3E6AC3",
"c2 c #3B63BB",
"c3 c #2E57AF",
"c4 c #0B2E88",
"c5 c #0F3E98",
"c6 c #264BA4",
"c7 c #16398B",
"c8 c #112E74",
"c9 c #02174E",
"ca c #020D29",
"cb c #102969",
"cc c #2D57AD",
"cd c #0C3E97",
"ce c #002176",
"cf c #073080",
"cg c #113B8F",
"ch c #1D49A2",
"ci c #163993",
"cj c #173A8B",
"ck c #1C397B",
"cl c #254693",
"cm c #264691",
"cn c #193A87",
"co c #20469B",
"cp c #244DA7",
"cq c #1F4CA9",
"cr c #1A49A1",
"cs c #002171",
"ct c #001962",
"cu c #0B2B76",
"cv c #143989",
"cw c #3966C3",
"cx c #0A2F8A",
"cy c #1B47A0",
"cz c #264CA1",
"d0 c #244592",
"d1 c #0A1F54",
"d2 c #09183F",
"d3 c #2D4581",
"d4 c #0A2F87",
"d5 c #00206B",
"d6 c #102D73",
"d7 c #0F2D76",
"d8 c #092A79",
"d9 c #072F86",
"da c #204EAC",
"db c #0E296C",
"dc c #000113",
"dd c #020D2B",
"de c #112A62",
"df c #3557A1",
"dg c #264BA3",
"dh c #224BA5",
"di c #4E89E3",
"dj c #386CC2",
"dk c #103E94",
"dl c #234BA2",
"dm c #002072",
"dn c #3765C3",
"do c #2047A2",
"dp c #0C2D7C",
"dq c #081F63",
"dr c #091748",
"ds c #24468D",
"dt c #2B58AD",
"du c #4F88E2",
"dv c #4275CE",
"dw c #1749A0",
"dx c #1B4AA6",
"dy c #4277D5",
"dz c #091F59",
"e0 c #010C2C",
"e1 c #000311",
"e2 c #1F3870",
"e3 c #2F58A8",
"e4 c #204BA9",
"e5 c #143B98",
"e6 c #082D88",
"e7 c #113D96",
"e8 c #5089E3",
"e9 c #3268C2",
"ea c #4069C1",
"eb c #244BA6",
"ec c #2758B5",
"ed c #245BB8",
"ee c #020109",
"ef c #1A397C",
"eg c #2B59AF",
"eh c #072E8B",
"ei c #366FC9",
"ej c #2C58B1",
"ek c #3C64BB",
"el c #002076",
"em c #001F72",
"en c #23469A",
"eo c #2C57B5",
"ep c #3C65B5",
"eq c #4364A7",
"er c #314577",
"es c #031851",
"et c #285AB3",
"eu c #3567BE",
"ev c #3157AA",
"ew c #001F6F",
"ex c #031E6B",
"ey c #112E7C",
"ez c #274CA4",
"f0 c #0C2F83",
"f1 c #0D2973",
"f2 c #1F479E",
"f3 c #143C94",
"f4 c #172959",
"f5 c #040D2C",
"f6 c #234C9E",
"f7 c #386EC8",
"f8 c #3B78D5",
"f9 c #3B78D1",
"fa c #4076CC",
"fb c #274C9A",
"fc c #000E54",
"fd c #00175A",
"fe c #1E367C",
"ff c #254697",
"fg c #071E62",
"fh c #3B64BC",
"fi c #062D88",
"fj c #0F2B6C",
"fk c #000117",
"fl c #264888",
"fm c #3767B9",
"fn c #3E77D0",
"fo c #4E89E5",
"fp c #1E4DA9",
"fq c #022F8A",
"fr c #194FA9",
"fs c #5289DC",
"ft c #23488F",
"fu c #000D4A",
"fv c #143A8D",
"fw c #173885",
"fx c #000C4D",
"fy c #001761",
"fz c #274C9D",
"g0 c #204FAB",
"g1 c #163B96",
"g2 c #173B89",
"g3 c #0F2868",
"g4 c #061944",
"g5 c #3468BC",
"g6 c #4D89E1",
"g7 c #4F89DB",
"g8 c #1F4993",
"g9 c #001A5D",
"ga c #000F4B",
"gb c #00195B",
"gc c #062C7D",
"gd c #204CA3",
"ge c #2C59AE",
"gf c #133C8B",
"gg c #032167",
"gh c #00185D",
"gi c #234BAB",
"gj c #112965",
"gk c #000B38",
"gl c #142960",
"gm c #275AB3",
"gn c #4E87E1",
"go c #4177D1",
"gp c #3F76D3",
"gq c #4F87E4",
"gr c #4078CD",
"gs c #295CAF",
"gt c #1C499C",
"gu c #214EA3",
"gv c #4376D1",
"gw c #3366BF",
"gx c #224FA4",
"gy c #1E469B",
"gz c #133B92",
"h0 c #2A58BA",
"h1 c #1F4BAC",
"h2 c #0E2E79",
"h3 c #0A1F58",
"h4 c #060D29",
"h5 c #021851",
"h6 c #346CCB",
"h7 c #255BB5",
"h8 c #1748A4",
"h9 c #3866C4",
"ha c #3C6ACA",
"hb c #113A96",
"hc c #21469E",
"hd c #000C34",
"he c #245BBF",
"hf c #204BA7",
"hg c #316DCF",
"hh c #3B6CCB",
"hi c #163A8E",
"hj c #1C3985",
"hk c #132867",
"hl c #0A1744",
"hm c #3458A4",
"hn c #396BCE",
"ho c #2559BE",
"hp c #1849A5",
"hq c #4B8BE3",
"hr c #336FD1",
"hs c #386AC9",
"ht c #030D30",
"hu c #1A3B80",
"hv c #366BCB",
"hw c #224BA7",
"hx c #1B4AA4",
"hy c #3069C2",
"hz c #498BE2",
"i0 c #4D8AE7",
"i1 c #396BCC",
"i2 c #2D59B0",
"i3 c #234793",
"i4 c #1E3873",
"i5 c #000D32",
"i6 c #00031F",
"i7 c #234DA3",
"i8 c #1A46A5",
"i9 c #123994",
"ia c #1A47A2",
"ib c #2E6AC2",
"ic c #4C8AE1",
"id c #2759BC",
"ie c #3167C9",
"if c #0A2B70",
"ig c #03194A",
"ih c #040E29",
"ii c #06205D",
"ij c #2F68C2",
"ik c #2458BB",
"il c #326CCF",
"im c #030D28",
"in c #000C46",
"io c #3356A7",
"ip c #2B59B7",
"iq c #002078",
"ir c #346DC7",
"is c #4B88E1",
"it c #1C4DAC",
"iu c #3D7AD5",
"iv c #2559BC",
"iw c #3566C5",
"ix c #011751",
"iy c #285AB1",
"iz c #3169C6",
"j0 c #3067C4",
"j1 c #103D98",
"j2 c #05308C",
"j3 c #1C4DAA",
"j4 c #4C88E8",
"j5 c #142A63",
"j6 c #010B2E",
"j7 c #082A72",
"j8 c #3767BC",
"j9 c #3E76D3",
"ja c #376ECB",
"jb c #3D7AD7",
"jc c #4078D7",
"jd c #1E4CAA",
"je c #2C59AA",
"jf c #112A63",
"jg c #000326",
"jh c #010216",
"ji c #152964",
"jj c #092A77",
"jk c #204EA4",
"jl c #4177D7",
"jm c #4176D6",
"jn c #3C77D5",
"jo c #326ECE",
"jp c #194AA7",
"jq c #3E79D7",
"jr c #1A47A4",
"js c #3166C4",
"jt c #2D5AAD",
"ju c #010D37",
"jv c #020111",
"jw c #0E2E77",
"jx c #1F489A",
"jy c #3766BE",
"jz c #3366C1",
"k0 c #022066",
"k1 c #000D42",
"k2 c #20397C",
"k3 c #011F67",
"k4 c #3567BC",
"k5 c #356EC8",
"k6 c #235BBC",
"k7 c #3169CA",
"k8 c #3467C0",
"k9 c #143D8F",
"ka c #001F68",
"kb c #00195A",
"kc c #172957",
"kd c #04184B",
"ke c #102A63",
"kf c #3768B7",
"kg c #4077D1",
"kh c #3766C0",
"ki c #04318C",
"kj c #2E69C5",
"kk c #3B65BB",
"kl c #3257A7",
"km c #28468C",
"kn c #2F457E",
"ko c #0A183F",
"kp c #070B24",
"kq c #060B28",
"kr c #1A3A75",
"ks c #3C6CBE",
"kt c #4F87E6",
"ku c #3A6CCB",
"kv c #4A8BE5",
"kw c #3269C4",
"kx c #3166C2",
"ky c #3157AC",
"kz c #26478E",
"l0 c #23376A",
"l1 c #00031A",
"l2 c #000D3A",
"l3 c #1F4897",
"l4 c #2957B5",
"l5 c #3A6CCD",
"l6 c #134AA5",
"l7 c #22469A",
"l8 c #122F71",
"l9 c #061742",
"la c #0A2F7D",
"lb c #4375D4",
"lc c #3E76D5",
"ld c #1C47A6",
"le c #2557B6",
"lf c #295AB6",
"lg c #1B46A2",
"lh c #1C3A82",
"li c #041950",
"lj c #00020B",
"lk c #000E39",
"ll c #5088E5",
"lm c #356CC9",
"ln c #1E4CAC",
"lo c #366CD0",
"lp c #1F479C",
"lq c #000C36",
"lr c #050306",
"ls c #000223",
"lt c #081E57",
"lu c #3966B7",
"lv c #5087E4",
"lw c #366ECF",
"lx c #2758B7",
"ly c #3567C6",
"lz c #4078D5",
"m0 c #133C94",
"m1 c #143991",
"m2 c #234795",
"m3 c #1C3877",
"m4 c #2D4583",
"m5 c #2E59A8",
"m6 c #376DC7",
"m7 c #224DAC",
"m8 c #133B90",
"m9 c #0A2B7C",
"ma c #0A297B",
"mb c #15295B",
"mc c #050308",
"md c #2F4581",
"me c #3F65B0",
"mf c #2D5AAF",
"mg c #204EA6",
"mh c #396AC6",
"mi c #021E67",
"mj c #0D2972",
"mk c #1E3779",
"ml c #17285E",
"mm c #1E3871",
"mn c #0A2B6E",
"mo c #0A2E7C",
"mp c #0B2971",
"mq c #112969",
"mr c #00041D",
"ms c #000C33",
"mt c #031955",
"mu c #2B57B8",
"mv c #1F46A1",
"mw c #0E2F7E",
"mx c #041F66",
"my c #12296D",
"mz c #0A1E59",
"n0 c #0E1E4F",
"n1 c #060C26",
"n2 c #010312",
"n3 c #0A1E5B",
"n4 c #254AA2",
"n5 c #1D46A0",
"n6 c #2C59B6",
"n7 c #1B489D",
"n8 c #122A6A",
"n9 c #0A1D58",
"na c #09164A",
"nb c #00030E",
"nc c #1F46A3",
"nd c #1F499F",
"ne c #173983",
"nf c #051E5E",
"ng c #031752",
"nh c #021756",
"ni c #0A1743",
"nj c #050209",
"nk c #030007",
"nl c #000308",
"nm c #091744",
"nn c #08205C",
"no c #1A3B82",
"np c #224797",
"nq c #163B94",
"nr c #0D2F79",
"ns c #0D2968",
"nt c #000C3D",
"nu c #000C38",
"nv c #000D3F",
"nw c #244896",
"nx c #000C37",
"ny c #070C20",
"nz c #010C2A",
"o0 c #23386F",
"o1 c #112A6A",
"o2 c #122D74",
"o3 c #0E2A74",
"o4 c #183988",
"o5 c #0E2970",
"o6 c #0C1F57",
"o7 c #030B30",
"o8 c #000123",
"o9 c #0F2964",
"oa c #224998",
"ob c #254B9E",
"oc c #1D3B83",
"od c #0B1F54",
"oe c #020204",
"of c #000410",
"og c #000D38",
"oh c #102E76",
"oi c #28458B",
"oj c #142D6F",
"ok c #000B37",
"ol c #070B26",
"om c #000019",
"on c #22386A",
"oo c #36579A",
"op c #25478E",
"oq c #04205F",
"or c #060B1F",
"os c #0A1847",
"ot c #081647",
"ou c #0B1844",
"ov c #0D173B",
"ow c #050C28",
"ox c #040B25",
"oy c #0B183A",
"oz c #00030A",
"p0 c #000212",
"p1 c #00041B",
"p2 c #000226",
"p3 c #000221",
"XX    ++6gXX  08    ||||XXXX4eee3a06fk5kgk8ghd3c0m0c4v0c610mjhjv2l++  08                XXXX        ",
"XX      ||XX  080z  ||2l097m067u3c8224g4glh5545g24i64fim921v4n621i060c2j      0g    0z  XXXX0g      ",
"                4q||  09061c4g5ges83fl888c3u3uhmhu4oiiin8698ji982h69kp9jXX++lr37mc4q++9r08    ||    ",
"                XX380c0mdd2ne2ef2sf6fmg5gm0h//1785i78wio93j7jjjwk29fkq9jXX++3737||||++++0808  ||    ",
"              XX09061md2dedse3egetf7fng632h61shn//271k11iyj8jkjxk3kd1cXX  ++    ++++37++081wXXXX    ",
"              0u0mca6nd3dfdt56290qf8505l462dheho5o1g8x355s0k1tjy3uke4f3909lj0t3b067m2l++08084eXX    ",
"    ||  XXXX  064g72792sdg7n202m300n2550468h1s5ohv2z5q2mizj9jl0rk4889hl11z1zls5u5u1v0t  1w08XXXX    ",
"        XX0fXX0m2n73cld42p1d0p2a282o0n0o1f0k8l3307078x35j0ja4a0qk5kfkrl29hlkltm4md5g1i0f081wXXXX    ",
"XXXX  0g  b1091z2n73cm3h220e1n7v314w1f1fgnh7..8m2wi848ip0h2u990q14kgksl3la8clum5memmmr09086x0808    ",
"XX  4i0f0u0c4u4hbycbcn1j1o5ee42w1e3rfo1f408i4s0b0w582v5j1e0h9a342f2fkt2ulb5q28m6mfmnms7unbnl4i08    ",
"    0z094mb2bdbrbz743o5adh1be5eh7z2y0k450r1p5d0a5ei93iiq5j1a0l2934341h36lclllv20mgmomt8y1c9s0f      ",
"  XX0f064nb34k6u553eco1b1b0be62x2x432845312chf0dhw0b3x0vj10pjm1h1t2b0l9a28lm9o1a0j3q3en34j9q0cXX    ",
"4e090t3dasb4bebsc0cccp3m1l0v13133x0e3p0k8d1p0e0w0w0a2v..//2z36129dkh17l4....2wm7570w5f4455nm1z09XX  ",
"XX39a169atb5bf0h183rcq0d0b3x13134p0a3t89goh88m0w3l0d5r0i9436365m43217r0d0d0d7d77575r0dn43jnnnzof09  ",
"||3a3c4k4ob6bg0n0x750h7c0a1y130v1l3mfp8a7a0r0e0b0b4y2w8z950k1t1e2p0v8f0b0d580j4x101r0en51yno4k1c0c  ",
"||061xagaub7bh500o0n4w3t1p6we72p0a0wfq268e40410b0b0d..0p2e0k1t5h0b2q0v0b0w2w3y..4141..5r9inpo01x060f",
"||614jah3g4r4w6v0o250n2o757o0h1e2c1r5j5hgp282y0e0eia265i841436171l3x1l0wld1n901n0i0i0in6115vo1ogoroz",
"38162h65av4s3pbt2o190n19didu122b0h5h4326gq2e1a1dhx2640ir32140q075d1l0d..8bln2g2g15//17..2c87o22h1m9s",
"0t62a23e3h3l6q2m2m127a7fdjdve83z0k5ifr7f470x5mhp3t8uij8q6v47jn2m1eki1p7w//1g1g07//0i2c2r101jo36d1vp0",
"1i4ga3ai2i3m172056cdcr7gdkdwe9ei32842o190n3z183r8uib19is1fjb8h2f31269d312z1s4c0l071a1r0a5e2t444l23p1",
"4f63a46aaw0a..1kc1cecs3u7kdx1p7w40f919250o0x2a0rhyic250o960yjo2d1h2aku074c5n5n0s1h0h..0dncnq4z3kos82",
"5w9w656b6h0a4x10c276ctd5dl7p4rejeufafsg7190x2a1819253z0x5sjc2d2dk6290l945ololw4c1h07484x0b7q2ioh7jp2",
"5x9x663f4p0bbi0wc3767b7bdm5aeaekevfbftg8gr0x5i8n25198lit1a8a4a2dk7290ll5le071u1g33//mu0j1b6h7ioiot5b",
"1v9ya56c3i3n4y0w6ycf4td65c2t52elewfcfug9gs0x8n8qhz0n07900j1e350q0s1s1g8s9l//151515//2g..nd5vo4ojoup3",
"169za6aj6i0v1ybu11cgcud73f3i5femexfd86gagt8e2ohq5p0y8v0i0d0e0p5q0q4c1u4d4d2g1q2g9l//701197nro567ov1m",
"5y1v67ak3j3f3qbv6zchcvd86i2q5feneyfe6sgbgu120x5l460y0q8oj27z1e204a0q0l494d4d1q////7v27n7nenso6okow1z",
"9u4ha7al6j6o1j5170262kd90v7qeb1o4zff44gcgv142f0yi00n4730j37l1ejz3z9e302a15//lx////174r8tnfnto7ol3b0u",
"5z16a84l6k4tbj216z56cw101b1b2v78ez2i2igd128j2d8r0y1f0oiu2b5mjp0r320o9g9k3507ly070p..mv44ngnuo8om0639",
"  64a9am6kb8bk222p101k7h1k1r0a1o802tfvge7o8khghr140n0o5l0x0k994b1f5p0o474b953s1a2y0e3n3jnhnv8g24ox4m",
"++3baa6d6l3e4z520v0b4s..27..1b3qf05cfwgfgw0q5n0s34321f0n5t0y8k8r465pkv0o454b9o0h..0a2x6c3k9bo9onoy1m",
"||06aban3k3g3f3i2q2qcx0a..7h107xf1fg55gggx6q1g0l0l1h0q14j40yjq459e0o5t5t0y143018..3m3n3h42nwoaoo2n92",
"||06acao6m3o6r0vc4ci2q1l0e..1k1y8174fxghgyh9//151u8v290s0s0q120k0x9g0y960y14lz0r2c3l0b221o6p9top631c",
"||0tad6eax1j2k0a0b2222225d..1neof242fy81gz482g8s07332a0l0l1u3v0h0kkj2f148j2f30311r0a0e1r2c9toboq5k0c",
"||06aeapay6pbl11112rcy2r100j3y..11fhfz6b2p48hh331u070707//1qjr2y0r2e2e344b4a5s0r430e0j517k7toc6u1z  ",
"  0m68aqazb9bm535353203v7l0e2v0d1b856y7p0i3v8o3s1u49//8p1q0i..1d1a20kwl69c2b9k12070p1k5a2s9pod5x06  ",
"  a0af6fb0babn6wc51a3s3wdn1d0e2v0a21g00p////07hsi1id1u////jd1d..1d0p890r8i1p3r8dmh112k3o3k54239n0c  ",
"||0u1iar6nbbbobw520d7c173wdyec2y210a0j8bh04915071hieik1g491q3y1d1d0i1t2b1p21m0m85v42mw6m9mnx4h0609  ",
"||XX093b3dbc6l3g711l7dda072u2u0h2r0a4ygih1ha8p0l0s0s1siv1g150i0i8z0p352b270a3hm96ompmxn82h1x0m09XX  ",
"++0gXX093a3c6s3jc677571n1q07282u41fi3n2x0d..3w290s0sil0s0l070h9c0r18kx3plf1r71ma4t6jmyn9ni5k0t0z    ",
"        ||4mbpbxc778580j0j0ied121k0ag10v2xhb3v1t1h1s0s1s2z1t18180k2e3p3t0p512t5cmimqmzna5bny0u++    ",
"600f0z++++4ubq54c8cjcz1odo0e072z27210b4p130b0e277y3315iw3s0rjs120k2e0h0i1n0j803omj4ln091590u60      ",
"9v0f0g++++4v1623c9ckd07i2t0d//3w..2r1y1313131y2ki22k1j8w97jejt7gk8180p1n0j0am17smk9f231c3a0z  08    ",
"0f1w    0g2j6t1624727e2s1j7r1q7y0j3l1o1o8fhchi8ti3if83ixj5jf9bk0k911173ylglpm29pml5un10t38++9r++    ",
"      0gXXXX2l0c1624d1dbdp3q107nf37x876r2i6ahj79i4ig8y91j6jgjuk1kakk9i101j93m3mb239qn2380z++oe++    ",
"||0z    0g  XX2j4v1i1x7jdq7s7tep423gg22sh266hk6ei5ih0m0606641i24kbklkyl7lh9m4j3d0m0cXX  0g          ",
"||||        0g  0g0u595bdrdz4oeq7efjg3gjh32hhlht160c09  4i0f0u1m6fkmkzl8lilq1c0c2j08++37            ",
"        4q    080zXX6tdc1ce02nerf468234nh4161i06390fXX      XX0mkcknl0l91x9n0t0f0f1w0g  njXX  08    ",
"        ||  ++6x    6gXX2je11m1vf53d59065z09XX2l        ++0g  061xko5w1m0m0c09  1w08  0gnkXX  08    ",
"                        XX090c0t0t0c0u09XXXX                  09065y4u0c0u0fXX                      ",
"                                                                                                    "
};