/* XPM */
static char *picture[] = {
"50 50 846 2 ",
"   c None",
"XX c #020307",
"++ c #02020A",
".. c #2F65C5",
"|| c #010207",
"// c #000308",
"06 c #275CBA",
"07 c #275CBC",
"08 c #1E50B1",
"09 c #00030F",
"0a c #214FAF",
"0b c #295BBA",
"0c c #295BBC",
"0d c #00030A",
"0e c #1F4FB1",
"0f c #030208",
"0g c #00020E",
"0h c #3C74D1",
"0i c #1E50AF",
"0j c #00030E",
"0k c #1F50AF",
"0l c #3A75D1",
"0m c #1C51B1",
"0n c #3065C5",
"0o c #00030C",
"0p c #1A48A6",
"0q c #3C74D3",
"0r c #265CBC",
"0s c #000313",
"0t c #030409",
"0u c #214FAD",
"0v c #4A87E2",
"0w c #3065C3",
"0x c #000318",
"0y c #00031E",
"0z c #123B97",
"10 c #000315",
"11 c #133A95",
"12 c #224EAD",
"13 c #1C47A3",
"14 c #2E66C5",
"15 c #2F66C3",
"16 c #00031C",
"17 c #4B86E0",
"18 c #0A2F88",
"19 c #1F50AD",
"1a c #3D74D1",
"1b c #4B86E2",
"1c c #000215",
"1d c #000316",
"1e c #133B93",
"1f c #4A87E0",
"1g c #265DBA",
"1h c #00031A",
"1i c #041237",
"1j c #153A93",
"1k c #1E47A3",
"1l c #1B48A5",
"1m c #1B47A6",
"1n c #133A97",
"1o c #0B2F85",
"1p c #2E66C3",
"1q c #3264C3",
"1r c #1C51AF",
"1s c #3166C4",
"1t c #3264C5",
"1u c #000218",
"1v c #031239",
"1w c #000311",
"1x c #1F479F",
"1y c #1E4FAE",
"1z c #1F50AC",
"20 c #0C2F81",
"21 c #1C47A5",
"22 c #153A95",
"23 c #2A5BB8",
"24 c #4D85E2",
"25 c #275CB8",
"26 c #3976D1",
"27 c #3A75D3",
"28 c #2150AC",
"29 c #3067C4",
"2a c #3D73D3",
"2b c #00021C",
"2c c #030207",
"2d c #103B97",
"2e c #1D3B81",
"2f c #1E489E",
"2g c #010409",
"2h c #092974",
"2i c #234EAD",
"2j c #2B5CBB",
"2k c #0A3085",
"2l c #2250B0",
"2m c #2A5BBA",
"2n c #051235",
"2o c #1E51AD",
"2p c #1A49A5",
"2q c #1E47A1",
"2r c #1B48A3",
"2s c #0C2A6A",
"2t c #2F67C4",
"2u c #265BB9",
"2v c #3166C6",
"2w c #21479C",
"2x c #000207",
"2y c #010109",
"2z c #000221",
"30 c #000407",
"31 c #224FAC",
"32 c #163A92",
"33 c #3D74CE",
"34 c #1F46A1",
"35 c #3A75CF",
"36 c #4D86E0",
"37 c #123B95",
"38 c #041235",
"39 c #0F2966",
"3a c #0F3C99",
"3b c #295CB8",
"3c c #3C75CF",
"3d c #3065C1",
"3e c #0F3B9A",
"3f c #113A94",
"3g c #224FAA",
"3h c #234EAA",
"3i c #1E3B7F",
"3j c #255DBA",
"3k c #041239",
"3l c #2C67C3",
"3m c #3D75D4",
"3n c #2E64C4",
"3o c #03020A",
"3p c #000219",
"3q c #020107",
"3r c #00021E",
"3s c #051234",
"3t c #1F4897",
"3u c #0D286B",
"3v c #3563C3",
"3w c #0B2971",
"3x c #010206",
"3y c #123B93",
"3z c #3363C5",
"40 c #133A99",
"41 c #061335",
"42 c #0C307E",
"43 c #2C5AB8",
"44 c #1C51AD",
"45 c #214FB1",
"46 c #1E479F",
"47 c #4E85E0",
"48 c #224EAF",
"49 c #1C48A1",
"4a c #295CB7",
"4b c #204EAE",
"4c c #163A90",
"4d c #0A2F87",
"4e c #2C5ABA",
"4f c #123A99",
"4g c #3365C4",
"4h c #1A3B88",
"4i c #2D68C2",
"4j c #1948A4",
"4k c #1D4FAE",
"4l c #2A5BB7",
"4m c #133B92",
"4n c #285AB9",
"4o c #3D74CF",
"4p c #0C2F83",
"4q c #3166C2",
"4r c #5E9EF6",
"4s c #3B73D2",
"4t c #2250AE",
"4u c #2051AE",
"4v c #5E9EF8",
"4w c #3066C6",
"4x c #071230",
"4y c #03123B",
"4z c #4888E0",
"50 c #0E3C9A",
"51 c #000321",
"52 c #3064C7",
"53 c #255DBC",
"54 c #3364C0",
"55 c #285DBB",
"56 c #2051B0",
"57 c #1F4898",
"58 c #1E4EB0",
"59 c #2A5CBD",
"5a c #3167C1",
"5b c #1F51B0",
"5c c #2D65C4",
"5d c #1A47A4",
"5e c #2F65C7",
"5f c #102864",
"5g c #0F286A",
"5h c #285DBD",
"5i c #00021F",
"5j c #00041E",
"5k c #09122F",
"5l c #040309",
"5m c #03030B",
"5n c #08122D",
"5o c #1A3C84",
"5p c #01030F",
"5q c #000211",
"5r c #001240",
"5s c #0C2156",
"5t c #000114",
"5u c #000325",
"5v c #00123D",
"5w c #163A8E",
"5x c #03123D",
"5y c #061333",
"5z c #001342",
"60 c #0C2150",
"61 c #10214C",
"62 c #031337",
"63 c #071134",
"64 c #02184A",
"65 c #122E78",
"66 c #122F75",
"67 c #112E74",
"68 c #0D296A",
"69 c #082157",
"6a c #4B88E1",
"6b c #0B2F87",
"6c c #20459D",
"6d c #1848AA",
"6e c #204EAC",
"6f c #0C2158",
"6g c #000213",
"6h c #3976CF",
"6i c #0E2F7C",
"6j c #3364C3",
"6k c #163B8C",
"6l c #01123E",
"6m c #1D3C7F",
"6n c #072E89",
"6o c #1E46A5",
"6p c #06297B",
"6q c #163C8D",
"6r c #12295F",
"6s c #0B215A",
"6t c #103C95",
"6u c #082F8A",
"6v c #1A46A7",
"6w c #0F3A98",
"6x c #224798",
"6y c #000417",
"6z c #0C3086",
"70 c #3E75D0",
"71 c #214DAC",
"72 c #163B96",
"73 c #092E89",
"74 c #234EAC",
"75 c #051232",
"76 c #295AB9",
"77 c #2048A0",
"78 c #112F75",
"79 c #02133E",
"7a c #21469F",
"7b c #163993",
"7c c #3366C2",
"7d c #073088",
"7e c #001865",
"7f c #163C91",
"7g c #113998",
"7h c #0C296D",
"7i c #153A92",
"7j c #071232",
"7k c #000323",
"7l c #3E73CF",
"7m c #3B76D2",
"7n c #2D68C4",
"7o c #113C98",
"7p c #0B2258",
"7q c #082978",
"7r c #2A5CB5",
"7s c #2F66C0",
"7t c #609DF6",
"7u c #0D224D",
"7v c #0C3088",
"7w c #183B8D",
"7x c #4E86E3",
"7y c #609DF8",
"7z c #4787E1",
"80 c #4888E2",
"81 c #4A87E4",
"82 c #123996",
"83 c #184AA3",
"84 c #3875CE",
"85 c #4A85E3",
"86 c #3B76D4",
"87 c #3268C0",
"88 c #275DB7",
"89 c #001855",
"8a c #3666BB",
"8b c #3E73D3",
"8c c #4E85E2",
"8d c #1B51B1",
"8e c #275DBD",
"8f c #4D85E4",
"8g c #2E66C7",
"8h c #265DB8",
"8i c #1A49A1",
"8j c #4986DF",
"8k c #133C98",
"8l c #1947A5",
"8m c #0D2251",
"8n c #0F2964",
"8o c #000216",
"8p c #1B50B0",
"8q c #285ABB",
"8r c #2050B2",
"8s c #234FA6",
"8t c #255BBB",
"8u c #3974D2",
"8v c #1C48A7",
"8w c #041334",
"8x c #1849A8",
"8y c #3066C8",
"8z c #3C74D5",
"90 c #1F47A6",
"91 c #030408",
"92 c #1F51B2",
"93 c #1C47A6",
"94 c #3365C6",
"95 c #244FAD",
"96 c #12214C",
"97 c #031138",
"98 c #265BB7",
"99 c #3766B6",
"9a c #092258",
"9b c #092E86",
"9c c #0E2F7E",
"9d c #00021A",
"9e c #00041D",
"9f c #0B1121",
"9g c #192138",
"9h c #0A112B",
"9i c #0C1125",
"9j c #102246",
"9k c #051842",
"9l c #041133",
"9m c #020106",
"9n c #0E121E",
"9o c #0A112D",
"9p c #284686",
"9q c #122F73",
"9r c #092161",
"9s c #0D2058",
"9t c #031140",
"9u c #061336",
"9v c #00010E",
"9w c #000314",
"9x c #000410",
"9y c #0B122E",
"9z c #3359A4",
"a0 c #3763BC",
"a1 c #153B90",
"a2 c #193A8B",
"a3 c #132F79",
"a4 c #10276A",
"a5 c #07163F",
"a6 c #00133E",
"a7 c #001345",
"a8 c #021847",
"a9 c #07112C",
"aa c #06112D",
"ab c #08132F",
"ac c #00041B",
"ad c #00011D",
"ae c #284F9C",
"af c #4172CE",
"ag c #1A3B8A",
"ah c #0D2A66",
"ai c #02174C",
"aj c #041436",
"ak c #10295F",
"al c #254787",
"am c #3D63AA",
"an c #24498D",
"ao c #001248",
"ap c #0E2352",
"aq c #0F2151",
"ar c #10214D",
"as c #061840",
"at c #000427",
"au c #1E4797",
"av c #5285E1",
"aw c #1F479E",
"ax c #214798",
"ay c #183C88",
"az c #112F77",
"b0 c #0E2767",
"b1 c #01040B",
"b2 c #01133B",
"b3 c #1D3B77",
"b4 c #3B67B0",
"b5 c #4174C7",
"b6 c #3E75C8",
"b7 c #3366B9",
"b8 c #244892",
"b9 c #1B3B84",
"ba c #1E3A84",
"bb c #1D3983",
"bc c #1E3A83",
"bd c #132962",
"be c #03174C",
"bf c #02174E",
"bg c #4172D1",
"bh c #0E3C9C",
"bi c #1B49A7",
"bj c #214EAB",
"bk c #1B46A2",
"bl c #173992",
"bm c #0F2E81",
"bn c #122862",
"bo c #000119",
"bp c #3E64AD",
"bq c #4074C8",
"br c #4A86DE",
"bs c #3467C0",
"bt c #1B49A1",
"bu c #0A2E86",
"bv c #173B93",
"bw c #22489D",
"bx c #16398B",
"by c #0A2871",
"bz c #062166",
"c0 c #173A96",
"c1 c #15398F",
"c2 c #112F78",
"c3 c #0C2A68",
"c4 c #305BAA",
"c5 c #4074CA",
"c6 c #3D76D0",
"c7 c #092972",
"c8 c #0C3C9E",
"c9 c #2B59B9",
"ca c #102961",
"cb c #00041A",
"cc c #20499B",
"cd c #1A4A9F",
"ce c #285EB8",
"cf c #103D9A",
"cg c #103B99",
"ch c #083087",
"ci c #1D48A6",
"cj c #1D4FB0",
"ck c #1A3B80",
"cl c #173A8B",
"cm c #1748A5",
"cn c #3267C3",
"co c #0C3D99",
"cp c #05308C",
"cq c #2D59B8",
"cr c #0C2F89",
"cs c #0A2F8A",
"ct c #1F3A7D",
"cu c #061745",
"cv c #14295E",
"cw c #0A2A75",
"cx c #0B2E7F",
"cy c #2D5CB8",
"cz c #2D5AB7",
"d0 c #224DA9",
"d1 c #294DA1",
"d2 c #203B80",
"d3 c #051644",
"d4 c #0A2157",
"d5 c #244798",
"d6 c #22469C",
"d7 c #3B74CE",
"d8 c #619DF5",
"d9 c #4F84E0",
"da c #295AB7",
"db c #2A5CBB",
"dc c #00031F",
"dd c #0D224F",
"de c #26478C",
"df c #1F489A",
"dg c #254EA8",
"dh c #2146A1",
"di c #1C49A6",
"dj c #0A2E84",
"dk c #051747",
"dl c #1E3C7C",
"dm c #3764B7",
"dn c #163995",
"do c #082F8C",
"dp c #2A5DB9",
"dq c #001765",
"dr c #214EA9",
"ds c #06297D",
"dt c #05297F",
"du c #2247A0",
"dv c #1E46A6",
"dw c #254DAF",
"dx c #123A9A",
"dy c #0B2E80",
"dz c #001242",
"e0 c #000110",
"e1 c #224795",
"e2 c #3564BE",
"e3 c #3164C0",
"e4 c #0C2E85",
"e5 c #0D2F86",
"e6 c #3465C2",
"e7 c #5184E0",
"e8 c #103C93",
"e9 c #0E2E79",
"ea c #13399A",
"eb c #123899",
"ec c #143B9A",
"ed c #0B286C",
"ee c #14285A",
"ef c #3A62B9",
"eg c #2E5AB3",
"eh c #0E2F80",
"ei c #0B2876",
"ej c #2B5AB4",
"ek c #0E3C92",
"el c #073187",
"em c #0F3A96",
"en c #285DB9",
"eo c #0B308B",
"ep c #1D45A4",
"eq c #254DAC",
"er c #1D46A2",
"es c #0B2E82",
"et c #031335",
"eu c #000416",
"ev c #112145",
"ew c #1C3A82",
"ex c #1E45A0",
"ey c #133C96",
"ez c #1E51AC",
"f0 c #0F3E9A",
"f1 c #2251AD",
"f2 c #0E3B98",
"f3 c #03308B",
"f4 c #0F307F",
"f5 c #000214",
"f6 c #00011B",
"f7 c #0C296F",
"f8 c #0B2E88",
"f9 c #1B47A0",
"fa c #4274CD",
"fb c #3C73CE",
"fc c #4986E3",
"fd c #3563C1",
"fe c #132A60",
"ff c #081742",
"fg c #1F3A7F",
"fh c #09308B",
"fi c #133D93",
"fj c #113A96",
"fk c #103E96",
"fl c #2F68C2",
"fm c #4B88E5",
"fn c #3875D2",
"fo c #3976D3",
"fp c #153B8E",
"fq c #000228",
"fr c #102051",
"fs c #122D72",
"ft c #0C3182",
"fu c #285BB7",
"fv c #1C52AC",
"fw c #265CB6",
"fx c #174AA3",
"fy c #1A53AC",
"fz c #619EF7",
"g0 c #3A77D2",
"g1 c #4B88E3",
"g2 c #295AB6",
"g3 c #224899",
"g4 c #15295C",
"g5 c #042268",
"g6 c #1E489A",
"g7 c #4073CE",
"g8 c #619EF9",
"g9 c #4072D3",
"ga c #3067C1",
"gb c #5F9FF9",
"gc c #5D9DF5",
"gd c #3067C2",
"ge c #0B3C99",
"gf c #1E4FAC",
"gg c #3265C0",
"gh c #204697",
"gi c #00113D",
"gj c #0B317A",
"gk c #3D72D2",
"gl c #2E67C1",
"gm c #4989E1",
"gn c #08308F",
"go c #103B9A",
"gp c #001755",
"gq c #07102F",
"gr c #143E8A",
"gs c #3E74CC",
"gt c #5F9FF7",
"gu c #3974D0",
"gv c #4E84E4",
"gw c #3365BE",
"gx c #173B89",
"gy c #011751",
"gz c #001448",
"h0 c #264F9E",
"h1 c #2A5ABC",
"h2 c #1749A8",
"h3 c #4D86DF",
"h4 c #1D469E",
"h5 c #1C50B3",
"h6 c #3366C1",
"h7 c #3767B9",
"h8 c #042366",
"h9 c #001245",
"ha c #000326",
"hb c #011749",
"hc c #1947A7",
"hd c #3C75CE",
"he c #133C94",
"hf c #1A47A2",
"hg c #3366B7",
"hh c #062B6F",
"hi c #001953",
"hj c #001446",
"hk c #001340",
"hl c #01143E",
"hm c #001236",
"hn c #132243",
"ho c #0C2254",
"hp c #0F3D9B",
"hq c #275EBB",
"hr c #1849A5",
"hs c #3167BF",
"ht c #3568BB",
"hu c #2E5BAC",
"hv c #214694",
"hw c #335AA5",
"hx c #4164A8",
"hy c #223B73",
"hz c #001143",
"i0 c #204794",
"i1 c #3E73D1",
"i2 c #245CB9",
"i3 c #2B5BBD",
"i4 c #2B5CB9",
"i5 c #3465C1",
"i6 c #3665C1",
"i7 c #3665BF",
"i8 c #2B4F99",
"i9 c #3463BF",
"ia c #1A51AE",
"ib c #00113F",
"ic c #000424",
"id c #0B2A6D",
"ie c #3D75D2",
"if c #4A85E1",
"ig c #284EA1",
"ih c #09225A",
"ii c #214696",
"ij c #2D5AB5",
"ik c #265EBB",
"il c #265ABD",
"im c #2E64C6",
"in c #4B86E4",
"io c #18398A",
"ip c #224EA5",
"iq c #255CB9",
"ir c #2C66C7",
"is c #3A74D5",
"it c #1B4AA6",
"iu c #0F3A99",
"iv c #1E3C85",
"iw c #02164B",
"ix c #264FA1",
"iy c #2250B2",
"iz c #01123D",
"j0 c #0E307A",
"j1 c #2351A9",
"j2 c #3265C1",
"j3 c #2F67C6",
"j4 c #1D52B2",
"j5 c #1A50B0",
"j6 c #3165C8",
"j7 c #103995",
"j8 c #0F2E7E",
"j9 c #0C215A",
"ja c #0F2868",
"jb c #1B52AF",
"jc c #2D65C6",
"jd c #1E50B3",
"je c #1F48A2",
"jf c #112152",
"jg c #001144",
"jh c #0F3077",
"ji c #2451A6",
"jj c #3F72CD",
"jk c #2F64C4",
"jl c #0B3D9E",
"jm c #1A52B1",
"jn c #275BBE",
"jo c #3563C5",
"jp c #1D48A4",
"jq c #1F48A0",
"jr c #1B3A8A",
"js c #102866",
"jt c #0A163C",
"ju c #0A235C",
"jv c #183C86",
"jw c #3263C0",
"jx c #0D3B9B",
"jy c #1A48A8",
"jz c #4073CF",
"k0 c #214599",
"k1 c #123079",
"k2 c #000117",
"k3 c #02020E",
"k4 c #103178",
"k5 c #1F499F",
"k6 c #4E87E1",
"k7 c #07308C",
"k8 c #265BBB",
"k9 c #0E3D99",
"ka c #3265BE",
"kb c #1E489C",
"kc c #011750",
"kd c #00020F",
"ke c #02020C",
"kf c #03174A",
"kg c #0C225C",
"kh c #00185F",
"ki c #1F51A6",
"kj c #619CF8",
"kk c #224FA4",
"kl c #052B80",
"km c #183C8A",
"kn c #011240",
"ko c #02103D",
"kp c #2C5BAD",
"kq c #295CB5",
"kr c #2650A4",
"ks c #001869",
"kt c #052A7B",
"ku c #05308E",
"kv c #051749",
"kw c #001851",
"kx c #2251A1",
"ky c #254FA5",
"kz c #042A7B",
"l0 c #06297A",
"l1 c #0D3081",
"l2 c #083088",
"l3 c #4F85DD",
"l4 c #305CA7",
"l5 c #000222",
"l6 c #223B71",
"l7 c #3B66B5",
"l8 c #2150AA",
"l9 c #1C4AA2",
"la c #244DA5",
"lb c #0B3081",
"lc c #0D3084",
"ld c #1B46A5",
"le c #0F3C97",
"lf c #1B50AC",
"lg c #3367BD",
"lh c #082B6B",
"li c #00133B",
"lj c #253A6F",
"lk c #2A4E9A",
"ll c #153D92",
"lm c #284DA6",
"ln c #143994",
"lo c #1A46A5",
"lp c #2D5BBB",
"lq c #143C94",
"lr c #5484D8",
"ls c #1A3D7F",
"lt c #001344",
"lu c #000209",
"lv c #1D3B84",
"lw c #264FAB",
"lx c #3163C4",
"ly c #0B3C9B",
"lz c #183B8F",
"m0 c #0A2E82",
"m1 c #163B94",
"m2 c #3466BF",
"m3 c #3A65B3",
"m4 c #001247",
"m5 c #052266",
"m6 c #193A89",
"m7 c #173A8E",
"m8 c #193C8E",
"m9 c #0F2F7C",
"ma c #254EA6",
"mb c #3A64B8",
"mc c #1B3C7F",
"md c #011339",
"me c #000414",
"mf c #000319",
"mg c #264EA6",
"mh c #3766BE",
"mi c #07215E",
"mj c #0D2968",
"mk c #1B3C83",
"ml c #2D4D96",
"mm c #284788",
"mn c #01184A",
"mo c #00020D",
"mp c #12214A",
"mq c #182E67",
"mr c #193A87",
"ms c #3358A9",
"mt c #173B8F",
"mu c #0B2F83",
"mv c #163D8C",
"mw c #234899",
"mx c #1B3B86",
"my c #0E2769",
"mz c #061743",
"n0 c #0F224D",
"n1 c #162953",
"n2 c #000210",
"n3 c #0B2152",
"n4 c #213B74",
"n5 c #1E3A79",
"n6 c #0C296B",
"n7 c #0D286D",
"n8 c #1E3B7D",
"n9 c #0A2059",
"na c #051745",
"nb c #081740",
"nc c #122148",
"nd c #11234B",
"ne c #0E214C",
"nf c #00041C",
"ng c #00041F",
"nh c #000425",
"    ++  //30++    XX    ////  0d1weuf62zfq4ygi791iha1i7k8o0g++XXXX912y++0f||||//            XXXX    ",
"    ++  XX30      3x||0d0o0910167kev3kfffrg47p69gzhbho8m1v511h101w090g++      ||                    ",
"XXXX0f  XXXX    ||  0t0o0sdc796s3iewf7fgfsg5gjgrh05757i0i8idih5r1i0y1c0g2x    ++    2c2cXX  ////    ",
"XXXX    XXXX      0d0g6y75dddle1efex324pftg68ags7l290b23i98sii788n8m2n161009ke2y    0f2cXX  //0d    ",
"      //////      09161vd4dedme2egey22fh3gg73617173l1a064g23ijipixj0jajg3k5n09  ++//                ",
"      //////  ++0o1038cv3wdf4le32r2q220zfu0l814v6a8j86530m08085b23j16qjhju5x1h0j0o//                ",
"3o++    3030  0o6g0y5v39d5dg3g2r3f1j7v7dfv7y4v7z4z1f2714060606060bj254jijv5f971h0j//  XX    XXXX    ",
"3o3o    //0o1016416l6s2ed61k2q1x321o4pfifwg81b0l3l0l4s0q151g1g061r07..jj2fk4kf630x1w1w0j0d  XXXX    ",
"0f0f  ++0g0xb269c36m2ecw4cdh7a32eh7q6p2f8736..07061r0m2a0h0hikiq061sjb3d3g42kgko1il55y1609    0f    ",
"0f0t  5p1cajb3bpc4ccclcx1o187be4ei2h202ffx1a0708h10i0m8e15ie4s3m0n0w1s06jwk5kh89kwl6lj610x0o++      ",
"  ||0t5q5uakb4bqc5cd2k6z4d18dne52h2h7w1e2pg9520m080i06068p..5e0q0n07061r0688kikpkxl7lk393sme0o||    ",
"//  5l1ca6alb517c6ce6t6n1111do7i427q4p114t1t8b0m0b0i0i0b1q07il8d0m1r062u3j0l1b0h1a542f2e4y0x0j2g    ",
"||  9m1ca7amb66a6h35cm3a21211l3h4m4df8820a0ngk550i0khp192j0b08080i2u06151b0vkj0h25l8ll676lmf09||    ",
"    0f1da8anb7br1f170w3b192odpe6ej496ufj4u0w8c2uh22l120p0i0b080c0b060n2a7xk633kq4ll96clvm4380x090d  ",
"    3q9w5uao3tbs33364770d74i1p1a7l7rf9fk1z4q4o8h1y2l6v0a0i060c08060w8bjk4k4lkkkrkylalm20m56rmp0y09  ",
"    5m09a95zb8bt1z44cn3cd8350h1a0h7sfa8388ga4o8h56hc2l2m0b060c081g2a0njl0a2dklkskz2k186bm63imq1v10  ",
"++++  095j60b91x2dcfco4ad93d7ce724353c3cfy7s700608580i0b8q0e8x0b..0q080e12k72kktl0lb1j7am72h3in30x//",
"++    0gaaapba32110zcpcyda2p7de8331b260v1735gl1g0m592u0w0c080e0b140q5h0kjx951x4cl17w1j221o20mrn4160d",
"      9xab60bb6b186n6u1k313y7e7eek477x0v804z6h4i3j290h0h4w0m07..14273n5h084e74111olc1873187fmsn53r0j",
"      090yaq65bu1j11111k2i1edqe9elezfb1b4vgbgm840l0l173l538t..0r5c8u3m8t0m080akul29bln1134mg2wn6410s",
"      092barbcbv1x372171124f1o6z2qf04q36fzgc4rgt4r8j1f4i1p0r0n0r2t0l0qjm0r064n0p130z1klw3h2q2w3i979d",
"++0d0o1wac61666c1x2d1m0a4e3e3f3femf144fl1f4z7t1fh3hd173c2t1g0r0r0q0q3m142a151s1q4u28lo3a3a37mtn7nb0y",
"0g0j9n0s1has67bw34cg6v2l4e4j13131z4n1r2t1f1f474a8i8i4a1a0q5c8y....j3jc8z0q....0n0b0b920e3e37mu3uncnf",
"0s9f1d1u1h6268bx1x6o480a2m192p1z251g0h2417gd192rh4he50i13m14im0r070r8y5e..0r5e07060752lx3v6t6k2sndng",
"0x9g9o9y2b3sbdby5w1kcq4bdb061q0w1p0l7y1725ge6w1n118k3e0i2t243n07080c0c2v070n2v0m06550c1t1qmhmv2s7unh",
"1h9h5k2z3r63bebz42ch6w0a0b07....0l0v4r842550gn821n0z1m5b29243n070b0i590c0c080c080b0i0b1q1s7r572sne8w",
"1c9i5n2zadatbf3uc76p222i0k0707..7m7t7z2629gfgo6o2q131m0i1g24..078q08jdjn0nk80c560u5019ly0i282wn8965i",
"1c2b1v5r5v643u2h6i20cr400u4k0c..7n1f800v0h1s0k0u2rhf6e0b29if0q..0mj40m0n070n0c1y8v1m0u4u0p3hmw5g1i9d",
"9e9j9p9zaeau2f3y3y1ecs7237di2m073j1bfcfm0l1p152u2o2o2j0iia1b27ir..j50r0n0n94080e0a0alp0u132wmxn94x5t",
"5j9k5oa0afavbg3v43ci1n73181edr19en0h81fn260l0q8f1p150m1r3j1binis..0r070w4n0k0e0e0a4848214m4hmyna3p09",
"161v9qa12d0p3v3z6j0k1m0z4ddj7f461z4o1b0vg0260lgu0l0hhqi27m0v8527..8p083z4t0p8x0a12ld9034m8665s2n0s0d",
"1u9l9ra21e31bh6d0ccj0a74181ods2k7o7c240v0v263l0h1p0h0h0h0v0v275c3n920ejo0u0p0k0a938k1n7v9c68mz0y09  ",
"0s5k9sa35w0zbi1yc80e45124f18dt1oeof21afog12653....15292t7n8u8z2a2v0b566j0k1y0e0a1m2d1jlzm9mi3k1u0g  ",
"0g3p9ta4agawbj0u0a45450a120zdu7i7b0z0w270v0l8d07074w1g151414....0755760k0e0e3z2m43lelqm09cmj3k1d0g  ",
"++0s9u5s2eaxbk6ec92j1y2376127g1n227o0w850l0l8e0mh5522v070r15060n070m6d0e0e0e0c1t1q4t0zm19bmkn03p0j  ",
"  092ba5ahay1e2i120p233b4g0adv401nf31s861p0h..0m080e1t0c0c0i0b0b2v5h080ejy0k59071s3b5d13mamln10x0j  ",
"  ++9v0yaiazbl401k1l0p2m230udweaep3a0w4s4w..1a1r0p120ai3580e0p190cj6080k3e714k0698lf25m2mbmm380s0o  ",
"    0f5t5xb0bmc03413120u0u1mdxebeq2p0w0q....8f154j1l8l0a8r4b1l4j0i071t2j8lk95b3d5alglrm3mcmn160j0d  ",
"2x  2c095y643wc11e131lcz31217gecer1l1a0q....0q8c1z2p0p434b0p5dit2j0c941t1q44985al399ls9amd0yn20d    ",
"    ||0g0x62bnc26k4613311k3f721j113h4g140r148ggvh683hri4190u280p1y08081tjzka8a99l4lhlt411dmo0d      ",
"0f||  ++0g1u1i6f2e6q49d0772kdy20es1efd0n0r148g2a33875a2o2o0k0k0k588r0k0p2rkbkm6m9ali4x1c0g++//2g    ",
"0f0f2y++5l0gbo1icack6xd14h787hed3wf44628g2gg54gwh7hghs253b0k0a2liy0a0ujp4m4h5gkv3s1h0s0o  2c  2x    ",
"||      ||b10j0x1v6rctd26fdkdzee7p2s6ifpg3gh6xgxh8hhht4q198v2iiu2i9395jqk07hkn5i100j0d  0f0f  0t    ",
"      ||0t||2g0jcb38cud32n3r2z7jet7ufe398939gpgyh9hihu3d285d21904fj7je2wk1kc7j0s0o//XXXX    ||      ",
"++2y0t  2x//XX//0j1w6y1d0s09e05q0sf51u0y4x51gq512nhj3ti5281l130z1n221jjr5f4y1c0o//XX0t  ||    3q    ",
"++++        3xXXXXXX||||////0t  0t0t  ++0g095p6g2bhkhvi63g49774c20j865js9616092gXX91||  2g  ||3q    ",
"      ||    XX3x    ||  ++++||0t++      5m++0d0j1dhlhwi78sigioiv5gj9jfjtk2kd0d||    lu0d      ||    ",
"    ||  0f0fXXXX        ++++0t  ++  //XX||    0o10hmhx3t5o2s5fiwiz2n5i8ok30f    0t  0d0d            ",
"                                              0j1dhnhy8nib8w0y1u100s090g++                          ",
"                                              0j1d75hz5zic100g                                      "
};