/* XPM */
static char *picture[] = {
"50 50 871 2 ",
"   c None",
"XX c #02020C",
"++ c #00030A",
".. c #2153B4",
"|| c #2C64C3",
"// c #03020A",
"06 c #2D63C3",
"07 c #2D63C5",
"08 c #010109",
"09 c #3B76D4",
"0a c #1F54B4",
"0b c #000211",
"0c c #3A77D4",
"0d c #03030B",
"0e c #1641A0",
"0f c #2C64C5",
"0g c #00030C",
"0h c #020308",
"0i c #2153B2",
"0j c #2E63C3",
"0k c #2252B4",
"0l c #285DBB",
"0m c #275EBB",
"0n c #00030F",
"0o c #000215",
"0p c #051235",
"0q c #00020E",
"0r c #1541A0",
"0s c #16419F",
"0t c #2A65C3",
"0u c #2253B0",
"0v c #2D64C1",
"0w c #000218",
"0x c #1C4DAC",
"0y c #1F54B2",
"0z c #00020F",
"10 c #285DB9",
"11 c #1541A2",
"12 c #2253B2",
"13 c #000313",
"14 c #1F4BAA",
"15 c #1F53B6",
"16 c #4C8BE8",
"17 c #4C8CE6",
"18 c #2E62C5",
"19 c #3D75D6",
"1a c #000209",
"1b c #00021C",
"1c c #000316",
"1d c #3D75D2",
"1e c #00031E",
"1f c #1C4DAA",
"1g c #1442A0",
"1h c #275DBD",
"1i c #2A64C5",
"1j c #3B76D2",
"1k c #4E8BE8",
"1l c #000323",
"1m c #3062C1",
"1n c #0F3389",
"1o c #1F4CA9",
"1p c #2452B2",
"1q c #1E53B3",
"1r c #3A77D2",
"1s c #2B63C4",
"1t c #18419B",
"1u c #3B75D6",
"1v c #3D75D4",
"1w c #2153B6",
"1x c #03030D",
"1y c #030208",
"1z c #000326",
"20 c #03010C",
"21 c #00021F",
"22 c #18419D",
"23 c #19409D",
"24 c #3E75D2",
"25 c #1840A0",
"26 c #1442A2",
"27 c #1E54B4",
"28 c #2B63C2",
"29 c #3E74D4",
"2a c #3878D2",
"2b c #020109",
"2c c #00030E",
"2d c #000216",
"2e c #01040B",
"2f c #000311",
"2g c #051234",
"2h c #204BA9",
"2i c #2452B0",
"2j c #2551B2",
"2k c #1E4DA9",
"2l c #1F4BAC",
"2m c #1640A2",
"2n c #1243A2",
"2o c #01133B",
"2p c #4B8CE6",
"2q c #2A5DB9",
"2r c #1B4EAA",
"2s c #285EB8",
"2t c #2A5DB8",
"2u c #2254B5",
"2v c #1E54B6",
"2w c #000321",
"2x c #081947",
"2y c #00021A",
"2z c #030409",
"30 c #2253AF",
"31 c #194198",
"32 c #102B6E",
"33 c #102B70",
"34 c #1B4098",
"35 c #2651B0",
"36 c #1742A1",
"37 c #1E4CAA",
"38 c #16419D",
"39 c #2E63BF",
"3a c #2A5CBB",
"3b c #14419E",
"3c c #1C4DA9",
"3d c #2651AF",
"3e c #103387",
"3f c #2154B0",
"3g c #265EBB",
"3h c #0F3387",
"3i c #01123D",
"3j c #2E63C1",
"3k c #4E8BE6",
"3l c #3C77D5",
"3m c #4F8AE8",
"3n c #3462BA",
"3o c #2D62C2",
"3p c #19409B",
"3q c #3877D4",
"3r c #5FA1F8",
"3s c #3F75D5",
"3t c #2F63C6",
"3u c #2D65C4",
"3v c #00011B",
"3w c #00031A",
"3x c #000318",
"3y c #000221",
"3z c #00021E",
"40 c #010207",
"41 c #000117",
"42 c #03113E",
"43 c #04030B",
"44 c #000213",
"45 c #204BA7",
"46 c #102459",
"47 c #041239",
"48 c #01030F",
"49 c #1D3E8D",
"4a c #071232",
"4b c #1F4CA7",
"4c c #2551B0",
"4d c #18409F",
"4e c #2453AF",
"4f c #3A75D1",
"4g c #1642A1",
"4h c #3F74D2",
"4i c #2A5CBD",
"4j c #0B2C7D",
"4k c #3F76D3",
"4l c #2052B3",
"4m c #03123D",
"4n c #0C2C79",
"4o c #2151B3",
"4p c #3976D3",
"4q c #2964C0",
"4r c #13337E",
"4s c #0C348B",
"4t c #2A65C1",
"4u c #275EB9",
"4v c #123384",
"4w c #1F54B0",
"4x c #3C77D3",
"4y c #3A77D0",
"4z c #2C64C1",
"50 c #2C63C0",
"51 c #3E76D3",
"52 c #3362BC",
"53 c #285DBD",
"54 c #3062C3",
"55 c #295EBC",
"56 c #204CA5",
"57 c #0F2C70",
"58 c #1D4091",
"59 c #1E52B5",
"5a c #051137",
"5b c #000308",
"5c c #03123B",
"5d c #02020E",
"5e c #142553",
"5f c #07194B",
"5g c #051338",
"5h c #223E7F",
"5i c #1E3F86",
"5j c #203E84",
"5k c #122C67",
"5l c #122454",
"5m c #04113B",
"5n c #00010D",
"5o c #184298",
"5p c #244CA1",
"5q c #1A3F8F",
"5r c #051330",
"5s c #284C9A",
"5t c #1E3E87",
"5u c #01123E",
"5v c #000219",
"5w c #254BA0",
"5x c #193F94",
"5y c #133485",
"5z c #15337C",
"60 c #132B69",
"61 c #071947",
"62 c #011240",
"63 c #224CA2",
"64 c #3162C1",
"65 c #4076D0",
"66 c #172C61",
"67 c #112C6F",
"68 c #1D3F89",
"69 c #15409E",
"6a c #122B6D",
"6b c #254B9E",
"6c c #1B4196",
"6d c #0B3393",
"6e c #204BAA",
"6f c #00133E",
"6g c #4F8AE6",
"6h c #1A3F90",
"6i c #1B3E8F",
"6j c #2553B1",
"6k c #1941A0",
"6l c #14409F",
"6m c #203E86",
"6n c #0E338B",
"6o c #2B5CBB",
"6p c #0E3489",
"6q c #15429F",
"6r c #0B3490",
"6s c #1B4CA9",
"6t c #0F2B74",
"6u c #0E3487",
"6v c #123285",
"6w c #000319",
"6x c #1D3F96",
"6y c #103488",
"6z c #295EBE",
"70 c #2354B3",
"71 c #08338F",
"72 c #2E64C6",
"73 c #2D5CB6",
"74 c #001247",
"75 c #264B99",
"76 c #2F64C4",
"77 c #1B4DAC",
"78 c #2052B1",
"79 c #2B51A4",
"7a c #000325",
"7b c #133479",
"7c c #133282",
"7d c #2964C2",
"7e c #4D8DE7",
"7f c #1D3F87",
"7g c #031239",
"7h c #15429D",
"7i c #3C74D3",
"7j c #2B65C6",
"7k c #122550",
"7l c #102456",
"7m c #194FA9",
"7n c #0B2562",
"7o c #17347A",
"7p c #0F338B",
"7q c #1742A0",
"7r c #13419F",
"7s c #152B65",
"7t c #103384",
"7u c #1D54B1",
"7v c #0B3392",
"7w c #00124B",
"7x c #2E64BE",
"7y c #2E64C4",
"7z c #5FA0FA",
"80 c #173F9E",
"81 c #3F74D0",
"82 c #244D9C",
"83 c #274D94",
"84 c #001245",
"85 c #001350",
"86 c #265DB8",
"87 c #60A0F8",
"88 c #183F9E",
"89 c #1E55B2",
"8a c #2F62BD",
"8b c #2552AF",
"8c c #2553AB",
"8d c #255DBA",
"8e c #2052B5",
"8f c #1E4DA7",
"8g c #3A75CF",
"8h c #3A74D5",
"8i c #3B78D5",
"8j c #2452B4",
"8k c #1F4AA8",
"8l c #234BA3",
"8m c #05194C",
"8n c #2451B6",
"8o c #1442A4",
"8p c #3163BA",
"8q c #1E4BA6",
"8r c #1D4CA8",
"8s c #194EAC",
"8t c #2C62C2",
"8u c #2354B1",
"8v c #1D53B3",
"8w c #2154AF",
"8x c #132A6D",
"8y c #1E4CAC",
"8z c #3F75CF",
"90 c #2254B7",
"91 c #0E245D",
"92 c #102C6B",
"93 c #02103D",
"94 c #071949",
"95 c #1242A4",
"96 c #000114",
"97 c #00134C",
"98 c #000112",
"99 c #081A4A",
"9a c #103385",
"9b c #000115",
"9c c #07122E",
"9d c #00031F",
"9e c #07102D",
"9f c #000226",
"9g c #071037",
"9h c #000125",
"9i c #000317",
"9j c #000315",
"9k c #0A1229",
"9l c #1A2342",
"9m c #0E1939",
"9n c #091843",
"9o c #081333",
"9p c #000314",
"9q c #000008",
"9r c #0D1226",
"9s c #00011F",
"9t c #000027",
"9u c #213F7F",
"9v c #0E255B",
"9w c #061033",
"9x c #000420",
"9y c #000414",
"9z c #00010E",
"a0 c #02010F",
"a1 c #071135",
"a2 c #162B62",
"a3 c #365AA6",
"a4 c #2A4C96",
"a5 c #153379",
"a6 c #112D6E",
"a7 c #0D235D",
"a8 c #102457",
"a9 c #041133",
"aa c #000421",
"ab c #00040F",
"ac c #0E2559",
"ad c #3861B1",
"ae c #1F4BA4",
"af c #1B4192",
"ag c #1C3E88",
"ah c #213D86",
"ai c #112A6D",
"aj c #10255E",
"ak c #00041C",
"al c #011339",
"am c #0C2659",
"an c #253F70",
"ao c #031335",
"ap c #00031D",
"aq c #041235",
"ar c #00134B",
"as c #3562B5",
"at c #1643A0",
"au c #234CA4",
"av c #244CA3",
"aw c #00031C",
"ax c #0C2756",
"ay c #294F8E",
"az c #305BA9",
"b0 c #335DA9",
"b1 c #223E7D",
"b2 c #0A112E",
"b3 c #00113F",
"b4 c #001346",
"b5 c #001A5A",
"b6 c #1B4099",
"b7 c #133483",
"b8 c #173275",
"b9 c #02143A",
"ba c #2A4D8D",
"bb c #4474C6",
"bc c #4073CC",
"bd c #335CAB",
"be c #001A5C",
"bf c #001242",
"bg c #02113C",
"bh c #021341",
"bi c #122C69",
"bj c #16429B",
"bk c #3361C1",
"bl c #2450AF",
"bm c #093493",
"bn c #2650B2",
"bo c #2450B1",
"bp c #214CAA",
"bq c #132555",
"br c #00020B",
"bs c #314D7F",
"bt c #315DA8",
"bu c #3F75CD",
"bv c #3063BC",
"bw c #214E9F",
"bx c #0C2D74",
"by c #122B6B",
"bz c #0D2B73",
"c0 c #1F408F",
"c1 c #234BA0",
"c2 c #1A3F97",
"c3 c #2C5DB9",
"c4 c #083493",
"c5 c #2451AE",
"c6 c #1C4094",
"c7 c #213E84",
"c8 c #0F2356",
"c9 c #01040D",
"ca c #000312",
"cb c #08122D",
"cc c #2E4D8D",
"cd c #2F5CAF",
"ce c #3E74CE",
"cf c #17409C",
"cg c #1D4CA6",
"ch c #3162BE",
"ci c #1D4BA9",
"cj c #224AA9",
"ck c #1A3E94",
"cl c #04020D",
"cm c #112558",
"cn c #1F3D85",
"co c #234BA2",
"cp c #2B5CB9",
"cq c #224BA5",
"cr c #214CAB",
"cs c #1F4EAA",
"ct c #204CAB",
"cu c #1D4197",
"cv c #2D4B93",
"cw c #172B60",
"cx c #122A68",
"cy c #0D2D7A",
"cz c #5189E6",
"d0 c #2353B5",
"d1 c #2A5ABC",
"d2 c #2553B3",
"d3 c #2152B1",
"d4 c #0E3286",
"d5 c #05194E",
"d6 c #142551",
"d7 c #0D2261",
"d8 c #0E2B77",
"d9 c #113184",
"da c #0B2B80",
"db c #174197",
"dc c #173F9F",
"dd c #1E53AF",
"de c #10338D",
"df c #102B72",
"dg c #001149",
"dh c #000212",
"di c #112A6A",
"dj c #21418E",
"dk c #10328B",
"dl c #123287",
"dm c #083590",
"dn c #0A3591",
"do c #0C338E",
"dp c #0C2C77",
"dq c #011955",
"dr c #000417",
"ds c #23407C",
"dt c #1A3E8A",
"du c #1C4199",
"dv c #1C409E",
"dw c #092C7E",
"dx c #092C7D",
"dy c #2255B1",
"dz c #2751A5",
"e0 c #0B255E",
"e1 c #325CB2",
"e2 c #113283",
"e3 c #0A2D7F",
"e4 c #63A0FB",
"e5 c #4F8BEB",
"e6 c #629EFE",
"e7 c #245FBD",
"e8 c #3F74D4",
"e9 c #3E74D6",
"ea c #2E65C2",
"eb c #2B5DB6",
"ec c #0F2B6A",
"ed c #041334",
"ee c #2551AA",
"ef c #4273D0",
"eg c #1A3F9A",
"eh c #2254B3",
"ei c #2963C4",
"ej c #081A42",
"ek c #274B97",
"el c #3361BF",
"em c #1C419A",
"en c #001A67",
"eo c #1143A2",
"ep c #3878D0",
"eq c #4C8DE9",
"er c #609FFC",
"es c #2864C4",
"et c #2B52A1",
"eu c #0F2556",
"ev c #00021D",
"ew c #000412",
"ex c #274B99",
"ey c #2752B1",
"ez c #1A419E",
"f0 c #0E3288",
"f1 c #0C2D7E",
"f2 c #193E96",
"f3 c #1D4EAB",
"f4 c #2053AF",
"f5 c #235EBA",
"f6 c #3978D5",
"f7 c #3677D3",
"f8 c #265EBD",
"f9 c #325BAD",
"fa c #0C255D",
"fb c #0C3390",
"fc c #0C348C",
"fd c #1B4194",
"fe c #508BE7",
"ff c #1A4FAB",
"fg c #011142",
"fh c #03184F",
"fi c #0F3286",
"fj c #0A338D",
"fk c #3779D0",
"fl c #3E73D1",
"fm c #204DA2",
"fn c #092564",
"fo c #00041E",
"fp c #000119",
"fq c #00134A",
"fr c #132C6F",
"fs c #07256E",
"ft c #052D84",
"fu c #1F4DA5",
"fv c #2A5BB7",
"fw c #2B5DBC",
"fx c #14439F",
"fy c #2B66C4",
"fz c #2453AB",
"g0 c #0A2C73",
"g1 c #001A51",
"g2 c #001441",
"g3 c #01143C",
"g4 c #13244F",
"g5 c #162447",
"g6 c #011957",
"g7 c #09266C",
"g8 c #193F92",
"g9 c #14439B",
"ga c #2C65BF",
"gb c #265CBC",
"gc c #265DBA",
"gd c #285FBC",
"ge c #255EB8",
"gf c #265FB9",
"gg c #3B76D0",
"gh c #60A0FA",
"gi c #0D3493",
"gj c #062B84",
"gk c #0B348C",
"gl c #2E5CB1",
"gm c #284D94",
"gn c #345CA4",
"go c #3E61A3",
"gp c #162C5E",
"gq c #162D63",
"gr c #12347B",
"gs c #4574C6",
"gt c #3E75CF",
"gu c #649FF9",
"gv c #2C63BE",
"gw c #4E8BE4",
"gx c #0F348D",
"gy c #0B348E",
"gz c #4274CB",
"h0 c #132C65",
"h1 c #000230",
"h2 c #04133C",
"h3 c #001243",
"h4 c #042767",
"h5 c #2F5DAA",
"h6 c #528ADF",
"h7 c #629FF8",
"h8 c #61A1F9",
"h9 c #2D62C0",
"ha c #275EB8",
"hb c #3C77D1",
"hc c #4C8CE4",
"hd c #1A3F8D",
"he c #041950",
"hf c #04113D",
"hg c #000222",
"hh c #1A4184",
"hi c #4176C6",
"hj c #4F8BE1",
"hk c #4B8DE4",
"hl c #1D4EAD",
"hm c #15409F",
"hn c #1F4DAD",
"ho c #1543A5",
"hp c #1E4AA9",
"hq c #00022A",
"hr c #00133D",
"hs c #4175CB",
"ht c #4A8BE5",
"hu c #1141A5",
"hv c #0A3291",
"hw c #1C4096",
"hx c #0E2B71",
"hy c #264C93",
"hz c #3164BD",
"i0 c #3D76D0",
"i1 c #3B78D3",
"i2 c #2252B6",
"i3 c #1441A6",
"i4 c #1243A0",
"i5 c #275CBA",
"i6 c #2652B3",
"i7 c #17409A",
"i8 c #0D328A",
"i9 c #1D3D90",
"ia c #122B6E",
"ib c #0B1A45",
"ic c #000120",
"id c #284F94",
"ie c #2D64BF",
"if c #2D65C2",
"ig c #214CA8",
"ih c #1A4095",
"ii c #0B2466",
"ij c #0A1942",
"ik c #031337",
"il c #294C90",
"im c #3363B8",
"in c #275FBC",
"io c #174FAE",
"ip c #2F64C0",
"iq c #3C74D1",
"ir c #1C4CAE",
"is c #285FB9",
"it c #1F4DAB",
"iu c #204DA8",
"iv c #12327F",
"iw c #041237",
"ix c #1F3E81",
"iy c #4672C9",
"iz c #4075D3",
"j0 c #194EAE",
"j1 c #1F55B7",
"j2 c #1143A4",
"j3 c #2D65C6",
"j4 c #2553B5",
"j5 c #224BA7",
"j6 c #0D2B74",
"j7 c #0F245D",
"j8 c #00011E",
"j9 c #011A53",
"ja c #254A98",
"jb c #1A4CAB",
"jc c #275DBF",
"jd c #295DC0",
"je c #1F55B5",
"jf c #255DBC",
"jg c #3D74D8",
"jh c #285CBF",
"ji c #2151B5",
"jj c #0E3384",
"jk c #192A5E",
"jl c #04133A",
"jm c #0B2560",
"jn c #2851A1",
"jo c #2C62C4",
"jp c #2B62C6",
"jq c #2B5EBA",
"jr c #194199",
"js c #0B2C73",
"jt c #214AA2",
"ju c #3162BF",
"jv c #224BA3",
"jw c #031955",
"jx c #2E5CB2",
"jy c #285EBE",
"jz c #1C54B3",
"k0 c #3E76D5",
"k1 c #265EBF",
"k2 c #2B5DBE",
"k3 c #234DA1",
"k4 c #123380",
"k5 c #182C61",
"k6 c #08184B",
"k7 c #0E2B6F",
"k8 c #234E9D",
"k9 c #2B5DB4",
"ka c #1D55B4",
"kb c #4274CD",
"kc c #295EBA",
"kd c #2551B4",
"ke c #083392",
"kf c #4173CA",
"kg c #10347E",
"kh c #041036",
"ki c #092D79",
"kj c #2652A9",
"kk c #2E5DB9",
"kl c #1B55B6",
"km c #3163BC",
"kn c #082E79",
"ko c #0C2E78",
"kp c #0B358B",
"kq c #11429F",
"kr c #5289E4",
"ks c #2E5DAD",
"kt c #2452A7",
"ku c #001454",
"kv c #00195B",
"kw c #275CBC",
"kx c #0A3583",
"ky c #041B51",
"kz c #000124",
"l0 c #0B112B",
"l1 c #09358E",
"l2 c #4073CE",
"l3 c #0C3584",
"l4 c #00124C",
"l5 c #113485",
"l6 c #4174D0",
"l7 c #1B4291",
"l8 c #0E2358",
"l9 c #000422",
"la c #173374",
"lb c #082D7D",
"lc c #09358C",
"ld c #19408F",
"le c #1B4BAD",
"lf c #3461BC",
"lg c #192B59",
"lh c #01010B",
"li c #081331",
"lj c #02133E",
"lk c #092E7E",
"ll c #2852A6",
"lm c #001150",
"ln c #1D4092",
"lo c #19409F",
"lp c #1F4AA9",
"lq c #3062C5",
"lr c #2152B8",
"ls c #2C5DBA",
"lt c #264C9D",
"lu c #0A2461",
"lv c #0B193E",
"lw c #0E2C72",
"lx c #0E2C74",
"ly c #001A61",
"lz c #1B409B",
"m0 c #0E338C",
"m1 c #244BA6",
"m2 c #2152AF",
"m3 c #3363B7",
"m4 c #001244",
"m5 c #010310",
"m6 c #122A66",
"m7 c #3362BE",
"m8 c #264AA0",
"m9 c #1C3E95",
"ma c #0C2B7E",
"mb c #1D3E8F",
"mc c #264C9F",
"md c #1F4DA3",
"me c #1D4DAF",
"mf c #1141A3",
"mg c #0D328D",
"mh c #0B328D",
"mi c #2453AD",
"mj c #3362BA",
"mk c #345BA8",
"ml c #011A52",
"mm c #1E3E91",
"mn c #2653AE",
"mo c #052474",
"mp c #0B2B78",
"mq c #1D3E8B",
"mr c #284D9B",
"ms c #153F91",
"mt c #214AA4",
"mu c #133388",
"mv c #274D96",
"mw c #213F7D",
"mx c #213E82",
"my c #103482",
"mz c #193F90",
"n0 c #2951A8",
"n1 c #2851AB",
"n2 c #133380",
"n3 c #001A63",
"n4 c #092D7B",
"n5 c #274C9C",
"n6 c #1C4192",
"n7 c #16439E",
"n8 c #132D6A",
"n9 c #132C64",
"na c #0F2557",
"nb c #112655",
"nc c #142D66",
"nd c #102C6D",
"ne c #0F3283",
"nf c #001B64",
"ng c #0E2C75",
"nh c #1C4191",
"ni c #234C9E",
"nj c #1A3E92",
"nk c #0F2C72",
"nl c #142C6A",
"nm c #031952",
"nn c #031136",
"no c #0E245E",
"np c #203E87",
"nq c #2F5BB2",
"nr c #3461BE",
"ns c #2651AD",
"nt c #213E8A",
"nu c #051850",
"nv c #06112F",
"nw c #122456",
"nx c #163578",
"ny c #12327B",
"nz c #092467",
"o0 c #13347B",
"o1 c #1F418B",
"o2 c #0F245B",
"o3 c #132450",
"o4 c #081945",
"o5 c #00011D",
"o6 c #00021B",
"0d  0h0h++++2020    XX    0h  0g44411e1zfgfq7w84h2hg1e1b2y410o0bXX      08  5b5b////XXXX0g0g//43    ",
"  0d0h0h++++XX20    XXXX0g2c1c1e7a7g7k7lfh7s7sgqh36fhr2o2oik0pj81c0n0g      ++    2bXXXX0g0g0d      ",
"//////  1a1a  0d    //XX0n6w3ie07bekex4r7ofrg685h4hh83hyidilixj9jl3w0n08XXXXXX      //  2e++++      ",
"//////08082e  XXbrc9XX0b1b2ods75eeel353p4vfsg7grh5hihshz8pimiyjajm3i2w0w0o440b0zlh  //    ++++++    ",
"XX    400h    480bca0z2yd6didte1ef642m23fi7tg8gsh6hj8gi0ie81iz52jnjsjwk65a21l01c0q  40    XX++++    ",
"XXXX  2z0h081x0b3xcb1e47d7djdu1o121peyfb7pftg9gth7hk2ai11j4z070j8ujt58k791945c1l960q0d    1x++++    ",
"0g0g1a++  1x0z0w1z6fcmcxd86x230e0e0sezfcfjfu7xguh83rht2a1j8dj0....jujxk8ki5j928mli0o5n              ",
"XX0g++++0g2fawb9bscccncyd9dkdv23egemf04s45fvga3k4y17171r4qin1q..18897xk9kj5p5slalj1e0b      0d      ",
"2b    0g0nakaxbabtcdco6pdadl6x3e7cenf1fd380u511j3g8d1919||io0a15060v2s2tkk566b6m91lv0o2b  08////    ",
"//    5n1calaybbbu10cp383e4jdwe24n4n4j6p7q0i501dh90a153t07||j1072v1h10101m0ul1lb57741l0w980zXX//    ",
"XXXX  2faaamaz651d||064e6u4jdxe33h1nf21t14787y060a..hui21819190f2v2v0v4k07290ulclklwm6990p3v0z08    ",
"1x    9y5ranb0bc240t0939db6y6u311t7h4b2k0ufwgb0753..8ni32u0a1v1sjo07jykakl7j063f56794933460p13      ",
"//    9z1caob1bdbv6g0c4f30dm711o0i0y39104w0l063s188e8n8j1g1f0l0606||jz||8i4p1k1d39523pmmmxnb1c1y    ",
"1y0d  0gab5v62bebwce1dcz4h0idy3j060t09fe0m7ugc060j..8o113b8r0u0l0m||k03m1k0c4x4x1d8s2l3pmync1e0qXX  ",
"  08  ++0g4421bfbx632k3a4h4k6g3k7d0t0c1r4x3ggdgv2q3c140e0s1o37jb0m3u1u1u0951l28a4h6z127hmzndnn2d0q  ",
"  08++++  0q0w475h6hcq6q2n0v1re43l090c3q3k4tge2s2t8f1o8k2h6q0u0l060f0f06kmktl3ldll3nm773n05i99210b  ",
"  0d  0d0h0n3zbgby496n6r0e2n1h0t||7i1r2a2p17gf2s302k144c2k3c1m06070fk1kbknku977w85lx4smnn158no5a0o  ",
"  080d08  0bb2bh326i6n22dc260a061q1h1j172p2pgg862t3c6si42rip0jjc0707288pkokvl497lmly3h8l31ne33nw3w2c",
"0g1a    1a2f215lbz34223b0r0x0a76eheo0l4tfk3rgh4yha7m100mifiq0v53068t1vkckp3hl57tln3em89an2nfnp5k2g1c",
"0n2c++  ++131l66c0cfcr1p0x0i0j0j4o2n0i4u4y2p7z87hb8g4q4f4f511h0j8v3u0906kq3d3d6k88lzm9mon3ng58nx2oo6",
"3x9j0q    0o5mbi6b0r2l0k1q067206..0xf37m4t2a7z3r3r87171r1d0v0ajd07198h0f3t0k1125lom0mampn4nh5wny612w",
"9c9k0bXX  2d4267c16j1pd0150f0f0f0a0if4ff1d1k3kgwhc173q090m8s0a152v1s1u1u19154o11lpm1mbmqn5ni314r941l",
"1z9l9ra0XX2d42326c4c1pd10a061s1i09090v243l1d1010||8h1u||..0k..0a721i0c1k093u070j2u8bmcmrn6nj7p5z5e3y",
"0p9m9s410oapb3671n0e2l0k4i270fe5164p091v4z0y1g1g..071907..irj20a0f1i0c0c3l28191s073fmdms5x1n3e7oo31l",
"9d2w9ta11laqb4331n6k0rd20l||1ie6162a1j3g4w1f0s0s263a070f0a0a1qje0t3l0t||0f078v1h07532q30n74s5y6a620p",
"9e0p5fa2acarb568c20s141f0l3g0t16172a4q4u2r4e807v0e2n0j1s3s0606jf0t0t||272v592u1q15077y0j3a8c6hnzo47a",
"9f5e5ha3adas63bj4bcgcs3cdd0m0t1617epf5391g3d25250ehl3o0f1v||0f0f0f0f07591w1w9512..1q1807071mnqo03i1e",
"9g5f5i5o301m64bkc3ch0u6s3f0m280c7e7e1r0v7r7vgi88350x061u093u1s1sjp0715900k950k0x....2u0a181mnr7f5c3w",
"9h2x5j5paeat0rbl2i2i6o6o0i6z27e7172pf6090u6rgjgx690i1v0c0c0919jg0718154l0x0x4o..lq..me261g1onso14m3v",
"3y9n9u5q31450sbmc4111pd3124l0a061reqf71kflfxgkgy37503m160c09j3070a..k2..0i0i4i545990mf2j0s1t34575a9b",
"3z5g5ka4afau0s0e6d250e0r6j70120l0t16163q3m500u1f248i1k1k1i8t1h0y3f2r....0akw0j18lr8e1w702h34nto2o548",
"9i9o9va55sav2hbn254d0e4g0r1g4g771j160c0c3q1k240v7d0c0c09||270y4w8w1f77..760j0a1w1w1w0k2i1t4v8x939b  ",
"5d2y5la6ag5w2hbo35362l2l110r0e1f1jer091i0c0c1v1h||||||4z0v4u102s8w2r12..3o0j..le0k1p14mt9anknu0p0o  ",
"1y0o5ma75t5x2214146l2j2j350e0e1f1j1609||0c4p09||0y550ai586is2s2t2t2r8y0k..1q0i0x8y6l221n4nnl2x210b  ",
"  9p9wa8ah1n23bp1ocict142h0s0r783m0c||||28fy090m1g7r0k2u0l102q2qjq0u11kd1m554l12373bmgmu6tnm5g3w0z  ",
"  0b9x42ai5yb669c5370r3d38dn1ge81uesf80m0m||09890r368o0k0y0y0i0i0i0x2m2m3a0l0a4ils1omh6v327lnv130q  ",
"  0q2da9aj5z1n226e2j2m6e237112e9ei7j1h0y0l0m280611hm11120k....54..2625368u0l27063om2385qn83i0w0qXX  ",
"  XX0b1b5u60b73422cj4d23dedo0u291i093o0y0y7u||29260e4gi61p0x..0j..0k36ke1f55||0f||0ymi75n91z13      ",
"//XX0q0o2w61b849c6ckcud46v3h73ea||||060l0l0m||29120r0e0s3bit..18181w110r2n0j||0t1i0vmjmvna5r0b0h    ",
"//  ++0n1c2g466ac76mcv6tdfdpdzeb100v0m3j3j06283s54hn6d4dig8r..3t073t0i0x0i3j242465m3mkmw2o5v2c0h    ",
"  ++++++2c0w47bqc866cwd5dgdq5t793n2q1m0j0j3s7i||..ho0e80452k..jh291v290vkr8zl6lflt7bml5c1b0q++0h    ",
"++++2e1a++0n1b4a1l2g0p1z0p4m74ec7fetf95ofmfz814k..8j2m7q8q8f0k15270m8zkfkskxl768lum40p3v0b    0h    ",
"0h    0d08XX0z0b2f2f1313dhdr1eedejeufa7nfng0gl8a0u260e0s4b8qj4ji..4ek3kg92kyl8lg0p1b0o0n0g    //    ",
"0h    0843//      08  080d0g0z133xev2g7g5ug182522ihp0e0s56iu142j4cjvk47n93kzl91b0om5XX  2e++        ",
"////    08  08  2020    08  1x0q0new130wfog2833n2i11hvi71t1tj51tjr6i32842196980b5dXX0d++405b++++    ",
"//  2z0h    0d  20cl08      //    1a080n6wg3gm3n8b8k3pi8ih6c6yjj7c33k5kh0o1xXXXX//    ++2z0h++2e    ",
"0d9q  ++  08        431y  0dXXXXXXXXXX0b2y7kgngz8c8lhwi94vivj6578x462g0w0z0dXXXX  2z    2b          ",
"080d1a++            1y1y    XXXXXXXXXX0b1bg4go82hd4rhxiaii60j7jk2x0p0w48XX  XX    0h    //2b        ",
"                                      0nfpg5gph0he8m2xibijiw4a3z0w130zXX                            ",
"                                      0n0w4a4mh1hfhq1zic3y3v2d0bXX                                  "
};