/* XPM */
static char *picture[] = {
"50 50 843 2 ",
"   c None",
"XX c #2456B7",
"++ c #030208",
".. c #2257B7",
"|| c #2E63C3",
"// c #2D63C3",
"06 c #030305",
"07 c #1949AB",
"08 c #020307",
"09 c #2555B7",
"0a c #2456B5",
"0b c #2E63C1",
"0c c #2257B5",
"0d c #2556B5",
"0e c #336BCC",
"0f c #020106",
"0g c #040308",
"0h c #02020A",
"0i c #1B49A9",
"0j c #3B76D4",
"0k c #000211",
"0l c #2D64C1",
"0m c #346ACA",
"0n c #020308",
"0o c #184AAB",
"0p c #4A87E2",
"0q c #02020C",
"0r c #194AA9",
"0s c #2157B7",
"0t c #336BCA",
"0u c #000218",
"0v c #040207",
"0w c #000215",
"0x c #000213",
"0y c #346ACC",
"0z c #2156B6",
"10 c #00020F",
"11 c #00030C",
"12 c #00020E",
"13 c #133891",
"14 c #1C48A7",
"15 c #3063BF",
"16 c #4B86E2",
"17 c #2457B3",
"18 c #2755B3",
"19 c #3B76D2",
"1a c #2256B9",
"1b c #2C64C3",
"1c c #020B2C",
"1d c #000216",
"1e c #3062C1",
"1f c #3D75D4",
"1g c #3A77D4",
"1h c #2557B8",
"1i c #113991",
"1j c #00030F",
"1k c #173889",
"1l c #2D62C2",
"1m c #3062C3",
"1n c #2358B8",
"1o c #3D75D2",
"1p c #4B86E4",
"1q c #2C64C1",
"1r c #1D48A6",
"1s c #0C2B7D",
"1t c #1944A2",
"1u c #00021A",
"1v c #356ACA",
"1w c #1C49A6",
"1x c #2158B5",
"1y c #3E74D4",
"1z c #000C2F",
"20 c #316BCC",
"21 c #2456B9",
"22 c #020305",
"23 c #010B2E",
"24 c #08184B",
"25 c #020107",
"26 c #1C449C",
"27 c #113893",
"28 c #133893",
"29 c #1B49A7",
"2a c #1B449E",
"2b c #010C2C",
"2c c #2755B5",
"2d c #1844A3",
"2e c #3569CC",
"2f c #2D63C5",
"2g c #0E3997",
"2h c #1949AD",
"2i c #316CCA",
"2j c #2454B6",
"2k c #0A1942",
"2l c #3769C8",
"2m c #2E62C5",
"2n c #184AA9",
"2o c #040406",
"2p c #000B37",
"2q c #000B31",
"2r c #142D6F",
"2s c #020B28",
"2t c #1A48A6",
"2u c #3869C8",
"2v c #1845A2",
"2w c #133890",
"2x c #00010D",
"2y c #3E75D0",
"2z c #103995",
"30 c #1D48A4",
"31 c #3562B7",
"32 c #2855B2",
"33 c #2355B6",
"34 c #4D85E4",
"35 c #2E64C4",
"36 c #2D62C0",
"37 c #1944A0",
"38 c #4888E2",
"39 c #356AC6",
"3a c #2A65C3",
"3b c #2C62C2",
"3c c #3F74D2",
"3d c #3163BC",
"3e c #2855B0",
"3f c #194BAC",
"3g c #000B35",
"3h c #1848AA",
"3i c #3B75D6",
"3j c #336ACE",
"3k c #2F64C2",
"3l c #000316",
"3m c #010B2F",
"3n c #000A37",
"3o c #000C3E",
"3p c #010109",
"3q c #172D67",
"3r c #15295C",
"3s c #030106",
"3t c #020204",
"3u c #02020E",
"3v c #000B41",
"3w c #1C439E",
"3x c #1C449B",
"3y c #153889",
"3z c #010207",
"40 c #183787",
"41 c #2047A2",
"42 c #0F2A77",
"43 c #1B44A0",
"44 c #000C33",
"45 c #0E3995",
"46 c #103890",
"47 c #010C2A",
"48 c #15388C",
"49 c #00021C",
"4a c #1C4AAA",
"4b c #122D74",
"4c c #2455B4",
"4d c #01010B",
"4e c #2654B2",
"4f c #3162BE",
"4g c #2154B0",
"4h c #356AC8",
"4i c #3463BD",
"4j c #2258B8",
"4k c #2058B7",
"4l c #4887E4",
"4m c #3C76D7",
"4n c #164BAB",
"4o c #1A3783",
"4p c #3462BA",
"4q c #19459E",
"4r c #2453AD",
"4s c #000C3F",
"4t c #1745A3",
"4u c #3162BF",
"4v c #3362BC",
"4w c #1B4AA6",
"4x c #3063BE",
"4y c #376AC6",
"4z c #1F48A0",
"50 c #1945A4",
"51 c #00011E",
"52 c #172D69",
"53 c #2157B9",
"54 c #2556B3",
"55 c #4A87E0",
"56 c #356BCD",
"57 c #2155B8",
"58 c #2357BA",
"59 c #194AA7",
"5a c #1C48A9",
"5b c #3369C9",
"5c c #2C63C0",
"5d c #3D73D3",
"5e c #2557BA",
"5f c #000C2C",
"5g c #1B49AB",
"5h c #20489D",
"5i c #132965",
"5j c #03020A",
"5k c #00021E",
"5l c #040309",
"5m c #060B1E",
"5n c #040B25",
"5o c #172C6B",
"5p c #010A27",
"5q c #050308",
"5r c #000A34",
"5s c #173887",
"5t c #000B38",
"5u c #000118",
"5v c #020B2A",
"5w c #15388A",
"5x c #183883",
"5y c #102B72",
"5z c #0A1F62",
"60 c #08184C",
"61 c #2048A0",
"62 c #1F48A4",
"63 c #2149A1",
"64 c #14388C",
"65 c #0B1842",
"66 c #0C2055",
"67 c #2954B2",
"68 c #0C3A98",
"69 c #1B429D",
"6a c #1E439B",
"6b c #020D2B",
"6c c #000116",
"6d c #07184C",
"6e c #152C6F",
"6f c #3A68C6",
"6g c #132C6F",
"6h c #00031C",
"6i c #0E2B79",
"6j c #0B2B7E",
"6k c #103993",
"6l c #143991",
"6m c #020A2E",
"6n c #305299",
"6o c #07194B",
"6p c #123A92",
"6q c #0A2F80",
"6r c #2955AE",
"6s c #2655B1",
"6t c #3F75CF",
"6u c #2D519B",
"6v c #052063",
"6w c #1D4396",
"6x c #1F47A6",
"6y c #2654B4",
"6z c #1849A8",
"70 c #2F519B",
"71 c #000C38",
"72 c #336BC8",
"73 c #2556B2",
"74 c #2355B4",
"75 c #2E63BF",
"76 c #335092",
"77 c #081945",
"78 c #3461BC",
"79 c #3A75D3",
"7a c #2455B2",
"7b c #2056B6",
"7c c #2856AE",
"7d c #000410",
"7e c #0C2A82",
"7f c #143791",
"7g c #346BC8",
"7h c #4A87E4",
"7i c #000B33",
"7j c #1F4397",
"7k c #082B87",
"7l c #2B63C2",
"7m c #3761B7",
"7n c #4D85E2",
"7o c #00031A",
"7p c #092B85",
"7q c #2257B3",
"7r c #3A77D2",
"7s c #2558B4",
"7t c #113895",
"7u c #4C87E3",
"7v c #3D75D6",
"7w c #2C62C4",
"7x c #000320",
"7y c #1946A3",
"7z c #2756B0",
"80 c #1844A5",
"81 c #194BAA",
"82 c #386AC9",
"83 c #4E84E4",
"84 c #1A4AAE",
"85 c #2652A9",
"86 c #112E74",
"87 c #2756B2",
"88 c #2B63C4",
"89 c #17459B",
"8a c #0F3892",
"8b c #0A1845",
"8c c #07174B",
"8d c #3E74D6",
"8e c #14388E",
"8f c #081947",
"8g c #4D86E0",
"8h c #2C63BE",
"8i c #2656B8",
"8j c #1F48A2",
"8k c #204490",
"8l c #346CCD",
"8m c #1B47A6",
"8n c #152C72",
"8o c #2253B0",
"8p c #1644A2",
"8q c #1E439C",
"8r c #0C2B7E",
"8s c #356BCB",
"8t c #0A1849",
"8u c #3163C4",
"8v c #1C49A4",
"8w c #12378F",
"8x c #0C1842",
"8y c #0D3A97",
"8z c #102D79",
"90 c #2356B2",
"91 c #1746A2",
"92 c #3769CA",
"93 c #326ACB",
"94 c #1A42A1",
"95 c #2C64C5",
"96 c #1C4AAC",
"97 c #031953",
"98 c #040108",
"99 c #2852A8",
"9a c #0A205A",
"9b c #01010D",
"9c c #14295E",
"9d c #072C85",
"9e c #113A96",
"9f c #002270",
"9g c #2B54AC",
"9h c #142D6D",
"9i c #183885",
"9j c #0B2059",
"9k c #010206",
"9l c #092C80",
"9m c #0E2B77",
"9n c #00010E",
"9o c #07184E",
"9p c #000B3E",
"9q c #000229",
"9r c #000B29",
"9s c #060D20",
"9t c #1B2852",
"9u c #162A5F",
"9v c #0A205C",
"9w c #081944",
"9x c #000D30",
"9y c #000314",
"9z c #03030D",
"a0 c #040A24",
"a1 c #1F2849",
"a2 c #0F1837",
"a3 c #17285E",
"a4 c #1C377E",
"a5 c #163784",
"a6 c #0C2C75",
"a7 c #112E72",
"a8 c #142E6B",
"a9 c #152A61",
"aa c #020B36",
"ab c #040A2C",
"ac c #02010F",
"ad c #000B3C",
"ae c #081F62",
"af c #20489F",
"ag c #1F4598",
"ah c #0B1F5E",
"ai c #010930",
"aj c #070B24",
"ak c #03030B",
"al c #000B3A",
"am c #071850",
"an c #091E5F",
"ao c #142C74",
"ap c #192C66",
"aq c #040A22",
"ar c #00030A",
"as c #000318",
"at c #020C25",
"au c #010C28",
"av c #040C23",
"aw c #152C70",
"ax c #2B4FA7",
"ay c #0D3896",
"az c #051A47",
"b0 c #132A60",
"b1 c #030B2F",
"b2 c #0E2D80",
"b3 c #082B7F",
"b4 c #2148A3",
"b5 c #153987",
"b6 c #040A2A",
"b7 c #000113",
"b8 c #224386",
"b9 c #3D61AB",
"ba c #325096",
"bb c #0B2055",
"bc c #071748",
"bd c #092B84",
"be c #143890",
"bf c #052D85",
"bg c #132E75",
"bh c #04174F",
"bi c #3B6ABC",
"bj c #396BC0",
"bk c #3562B3",
"bl c #18397C",
"bm c #081A42",
"bn c #123792",
"bo c #1A4BAA",
"bp c #1A439D",
"bq c #13378F",
"br c #1A3785",
"bs c #142C6A",
"bt c #000C2E",
"bu c #1C3A7A",
"bv c #3E68BC",
"bw c #4174CF",
"bx c #4174CD",
"by c #2851A0",
"bz c #112B64",
"c0 c #000E39",
"c1 c #072B83",
"c2 c #1B397F",
"c3 c #040B27",
"c4 c #2E4F9C",
"c5 c #4474C8",
"c6 c #001A5E",
"c7 c #1F439B",
"c8 c #1C47A5",
"c9 c #2856B6",
"ca c #1C44A3",
"cb c #103991",
"cc c #1E4391",
"cd c #152E6E",
"ce c #000A2E",
"cf c #142863",
"cg c #204394",
"ch c #2554B0",
"ci c #2455B1",
"cj c #1E55B0",
"ck c #3563B8",
"cl c #1B4597",
"cm c #20449A",
"cn c #0A2059",
"co c #050B23",
"cp c #132867",
"cq c #2B54AE",
"cr c #17449F",
"cs c #2457B2",
"ct c #3C75CE",
"cu c #2E64BC",
"cv c #2857B3",
"cw c #326CCD",
"cx c #2658B9",
"cy c #2851A3",
"cz c #00031D",
"d0 c #01040D",
"d1 c #0C1F57",
"d2 c #2851A9",
"d3 c #3E75D2",
"d4 c #3163C2",
"d5 c #1E59B7",
"d6 c #182D62",
"d7 c #05194C",
"d8 c #1A367F",
"d9 c #17378A",
"da c #002077",
"db c #0B2B82",
"dc c #184AAD",
"dd c #3F76D3",
"de c #346CCB",
"df c #3861B3",
"dg c #182D6C",
"dh c #071947",
"di c #112E70",
"dj c #1F449F",
"dk c #153791",
"dl c #0C2A84",
"dm c #001F79",
"dn c #4D83E3",
"do c #3F73D6",
"dp c #4A86E6",
"dq c #122D72",
"dr c #000C3B",
"ds c #000312",
"dt c #122E6D",
"du c #2E54A5",
"dv c #1D49A0",
"dw c #1F429E",
"dx c #0B2A85",
"dy c #0B2A84",
"dz c #082B85",
"e0 c #1746A0",
"e1 c #3A76D6",
"e2 c #2053AF",
"e3 c #061953",
"e4 c #000223",
"e5 c #060B1F",
"e6 c #20458B",
"e7 c #082A84",
"e8 c #164BA7",
"e9 c #1F57B4",
"ea c #2E65C2",
"eb c #3563BB",
"ec c #2D51A5",
"ed c #032066",
"ee c #000D36",
"ef c #000D35",
"eg c #152A57",
"eh c #1F3773",
"ei c #192D60",
"ej c #00041A",
"ek c #071A42",
"el c #2D539E",
"em c #3261BD",
"en c #0C3B97",
"eo c #1B459B",
"ep c #163A88",
"eq c #0D2F79",
"er c #2A529A",
"es c #4973BF",
"et c #3A60B1",
"eu c #264387",
"ev c #142B57",
"ew c #2F55A0",
"ex c #1D49A2",
"ey c #2964C0",
"ez c #3C74D5",
"f0 c #3163C6",
"f1 c #3B68C3",
"f2 c #3264BD",
"f3 c #173983",
"f4 c #182D64",
"f5 c #2A64C5",
"f6 c #2058B9",
"f7 c #2159BA",
"f8 c #0D399A",
"f9 c #2857AF",
"fa c #2454A9",
"fb c #1A3880",
"fc c #081A4C",
"fd c #142962",
"fe c #2F62BD",
"ff c #2D64BF",
"fg c #3E76D3",
"fh c #3C77D5",
"fi c #4986E3",
"fj c #1546A5",
"fk c #4E86E5",
"fl c #326AC9",
"fm c #1D4A9F",
"fn c #1E4499",
"fo c #000C37",
"fp c #030A27",
"fq c #162961",
"fr c #042167",
"fs c #22489D",
"ft c #3263C0",
"fu c #4989E3",
"fv c #4D85E6",
"fw c #1D459D",
"fx c #18388B",
"fy c #142D70",
"fz c #000324",
"g0 c #1B2C60",
"g1 c #000B4A",
"g2 c #002273",
"g3 c #4888E0",
"g4 c #3B78D3",
"g5 c #3369CB",
"g6 c #183789",
"g7 c #061A4D",
"g8 c #172758",
"g9 c #001964",
"ga c #1C4AA0",
"gb c #4B88E5",
"gc c #4986E1",
"gd c #1A48A8",
"ge c #1F4399",
"gf c #142C72",
"gg c #0B1A45",
"gh c #041950",
"gi c #386AC1",
"gj c #4B86E0",
"gk c #4988E5",
"gl c #2B63C0",
"gm c #3C77D3",
"gn c #4B88E3",
"go c #3A75D1",
"gp c #1644A4",
"gq c #0D3894",
"gr c #1E47A3",
"gs c #13398E",
"gt c #18285C",
"gu c #305194",
"gv c #5484D6",
"gw c #4C85DF",
"gx c #2058B5",
"gy c #3269CD",
"gz c #0D3897",
"h0 c #162C75",
"h1 c #090B1A",
"h2 c #102A63",
"h3 c #4874BF",
"h4 c #4D85DC",
"h5 c #2057B4",
"h6 c #2F63C6",
"h7 c #1B47A8",
"h8 c #000930",
"h9 c #00031F",
"ha c #2F5391",
"hb c #4376C9",
"hc c #3B78D5",
"hd c #4786E3",
"he c #2254B5",
"hf c #0F2B7E",
"hg c #00020B",
"hh c #00041F",
"hi c #2C5293",
"hj c #4175CB",
"hk c #3D76D0",
"hl c #3976D3",
"hm c #18439F",
"hn c #092D83",
"ho c #0D2A78",
"hp c #142865",
"hq c #020C2F",
"hr c #090A1C",
"hs c #000B2E",
"ht c #3261BB",
"hu c #2D61C4",
"hv c #16368B",
"hw c #1B3683",
"hx c #0C1F59",
"hy c #000225",
"hz c #2A54A8",
"i0 c #4076D0",
"i1 c #093A99",
"i2 c #2253AF",
"i3 c #020C27",
"i4 c #142B61",
"i5 c #2C509A",
"i6 c #5484D9",
"i7 c #4E85E2",
"i8 c #1E49A5",
"i9 c #4174D0",
"ia c #103A90",
"ib c #182C6B",
"ic c #081849",
"id c #0B1A41",
"ie c #142E67",
"if c #2C529B",
"ig c #3B69BE",
"ih c #4274CD",
"ii c #3461BE",
"ij c #164AAD",
"ik c #1845A0",
"il c #143A8B",
"im c #072063",
"in c #000315",
"io c #05194B",
"ip c #102D6F",
"iq c #2C52A3",
"ir c #3F75D5",
"is c #356BCF",
"it c #2256BB",
"iu c #3A69C3",
"iv c #133888",
"iw c #0A1F5E",
"ix c #030409",
"iy c #030C2D",
"iz c #0D2F77",
"j0 c #2258BA",
"j1 c #2654B6",
"j2 c #346ACE",
"j3 c #0A2F7D",
"j4 c #010A31",
"j5 c #010310",
"j6 c #00011C",
"j7 c #000D38",
"j8 c #032265",
"j9 c #4273D0",
"ja c #3C74D3",
"jb c #3061BE",
"jc c #4075D3",
"jd c #143B8A",
"je c #030007",
"jf c #0B173F",
"jg c #1E3779",
"jh c #1F4495",
"ji c #19459C",
"jj c #18469E",
"jk c #1546A2",
"jl c #164BA9",
"jm c #4B87E7",
"jn c #326DCB",
"jo c #1F438D",
"jp c #00011A",
"jq c #091E5D",
"jr c #042171",
"js c #2651AD",
"jt c #3F74D0",
"ju c #2156B2",
"jv c #133889",
"jw c #2553A9",
"jx c #2755B7",
"jy c #071752",
"jz c #102A74",
"k0 c #23469A",
"k1 c #1B449C",
"k2 c #2453AB",
"k3 c #5184DF",
"k4 c #001968",
"k5 c #001A63",
"k6 c #173885",
"k7 c #3462B8",
"k8 c #051850",
"k9 c #1E377A",
"ka c #2D50A2",
"kb c #2C54AC",
"kc c #2552A7",
"kd c #3264BB",
"ke c #3D74D1",
"kf c #001A69",
"kg c #01216A",
"kh c #2C509C",
"ki c #3469C9",
"kj c #1D49A8",
"kk c #2D519F",
"kl c #040205",
"km c #05194E",
"kn c #1B387A",
"ko c #23438E",
"kp c #0C2B7B",
"kq c #214495",
"kr c #2A53A5",
"ks c #2F64C0",
"kt c #002172",
"ku c #2D50A1",
"kv c #2E53AC",
"kw c #042C8B",
"kx c #103897",
"ky c #2854B3",
"kz c #1A4AAC",
"l0 c #1B48A5",
"l1 c #0A1944",
"l2 c #030A24",
"l3 c #030408",
"l4 c #040B28",
"l5 c #17295B",
"l6 c #072D82",
"l7 c #022D89",
"l8 c #002078",
"l9 c #23479D",
"la c #1D4AA7",
"lb c #143793",
"lc c #15378E",
"ld c #0B2C7D",
"le c #1B387E",
"lf c #01030F",
"lg c #030C29",
"lh c #04184D",
"li c #152E70",
"lj c #2348A1",
"lk c #082A83",
"ll c #1F46A3",
"lm c #2047A4",
"ln c #0E2A74",
"lo c #11286B",
"lp c #15295E",
"lq c #000B39",
"lr c #152D6D",
"ls c #3A69C5",
"lt c #001F78",
"lu c #0C2B85",
"lv c #1F429C",
"lw c #153892",
"lx c #072C87",
"ly c #0E2C75",
"lz c #182957",
"m0 c #1F387A",
"m1 c #0B2C7B",
"m2 c #3C68BF",
"m3 c #1F479C",
"m4 c #0C2C7F",
"m5 c #234295",
"m6 c #17378C",
"m7 c #0A2C83",
"m8 c #3B6AC6",
"m9 c #3869C6",
"ma c #2954B0",
"mb c #102E77",
"mc c #122D70",
"md c #061944",
"me c #010B26",
"mf c #0E2E77",
"mg c #3C5FB0",
"mh c #31519E",
"mi c #193684",
"mj c #1A3787",
"mk c #2B53A8",
"ml c #3F69BF",
"mm c #3860B7",
"mn c #172C6D",
"mo c #07174A",
"mp c #000114",
"mq c #010204",
"mr c #030406",
"ms c #000A30",
"mt c #162C66",
"mu c #162C68",
"mv c #132869",
"mw c #0A1F60",
"mx c #082060",
"my c #0E2C6C",
"mz c #325192",
"n0 c #315093",
"n1 c #122E6F",
"n2 c #0B1948",
"n3 c #010A29",
"n4 c #0B1940",
"n5 c #010A33",
"n6 c #000321",
"n7 c #000D2E",
"n8 c #01040B",
"n9 c #000313",
"na c #00031E",
"nb c #050C29",
"nc c #00011B",
"nd c #000414",
"ne c #000311",
"0g                  3z0n0808  0h0x0uej7x71fc3v6dg72k51h10qhghr0w10110n0898je        l30806060n0n    ",
"  0f        0f  0f    0n0hd01j0u2b44ekevf4fdfqg0g8gg2351h9hhhshyi33l11ix++++0f      089k060g0f0n    ",
"06060808++++0g0f      ++123l2bdhdte6elew7086528c3n2p4sh2hahi6n76i4idin3p25++0g  0f  0808      0g    ",
"06060808++++0f  250h3u0xco1zd7didu4pem4i4z3yfrg13vghguh3hbhjhthzi5ie5f0xj59b2x11++0f      3s        ",
"        3s0v  250h0kc3ce71d1d87jdv4i4f6s3e4zfsg2g98kgvh48ghk72i0i6ifioiyj65ujp5m0h3t0g  ++++        ",
"  0g      5l0h0k1ubt6ocfcp4bd9dj372ven4w294t323egagigw4lhchl1g0ji7igip4sj7jf8x6m0u7d4d++++    0g    ",
"++++5q  0gar0x473obuc4cg1k6j7edk2730307y0i6z822y8ggj0p1ghd1g3i0t//ihiqizj8jgjqjy8t3m0w4d0n0808mq    ",
"++5l3s  3z1j6b3o6nbv6r30cq13dadldw3w7t450i091l1bgbgk1g1g790j1f//4j904v3199jhjrjzk9kml4100h0822mr    ",
"    5q25akasazb8bibw6schcrd2db7edx7p282a500i072m0e3i3i1b1x751517XX0a0a90j98v9dk0kakn441d0q          ",
"    0v++11atb0b9bj2y15cics787fdmdye727ex1w180i3f//0t8l8s0b17598o0aXX1v4j2m0d9e6pkbkol5lg10++        ",
"  0f3t0n1jau3rbabkbx6tcj1x15627kdz13377z4r874e541x1q3b3b3k7q2n0d2n1h||1a//2ljs2613kp522k1d0h++98    ",
"    2o0n1jav44bbblbyc56t72d3182g2a4q734x4xfeft4g8h0l....0b0bXX071e0b1aj0//3c4vk12wkq4blh470x9b++    ",
"0f0g0f  0h120x6hbmbz6uckct167g17e04r391o0lff3c0c0c1lXX0oXX8u07072n0b93950m0b4xk2kckr9ililq5v0x0h++  ",
"    0g      0f125k2pc6clcu791fdn15391o2i1qfg7n1b0s1nXX070o0oXXXX||1y340t1b0ljtk3kd89l69ilrlz2s0k0h  ",
"06        0g0v3u1uc06v6w731l2edo34167uey1b1916191b..0o073f0o1a0y8d0mir5dja1o1f0tkeks91261km08b4912  ",
"          250q0w1c6o4bcm320odc1a0t0j16193a3a0p551q..0a0r0oXXhu2e1v1n0z0c0l8hju39394y2u2t2zm13qms0x  ",
"++0f0v0v  0q6c1c242r1s132v0d072h4n//1f0jf50j0p551o1x8o7a2n0a2u598y910d0a4g3d315h5h9g6f2u1899mf660u0n",
"5j0q3u10101db1bc2r40c76xcv7a0907XX..0m7l0efh0p5516gl17170c0b0d688yii2c0r547c6qk4kfktl729lsm2mgmt6hn8",
"0q0ka05v1c2q6d2r1k63c86y74d40a||..1a0z1nf60j0p380pgmgxh5////XXi11m925g96jbji9fk5kg9fl88a4qm3mh3q2s12",
"9n5ma15ral666e6i2w14c9XX0c0c0b360m2e||..f70j7r38380p1p0j0t0t1v1v2eij84j14ujjjvk6khkul9lj9d649m9747n9",
"0k9sa22pamaw426j131r2c1m..//1x0l..||..0s2ififug3gcgn0p0p167u0j34||0o331h2ljkjw319gkv7flkltm4mi5i2b0w",
"3l5n23adan42b2bd281r0iXX0b0l0l0l7b1y0m0m1p7h0pg419go191916190j0t4nXXXX||5bjl174f2dkw7k7plum54o52231d",
"5k1c5r3vao1sb3bebn2z2d0d4g2ydd1o0j0j7vez7v202i3a1q1q0l0l//0s....0oXX..0m0t4k1l0d2dkx7t28lv5w8zmu1z49",
"3m9ta3ae40ax266k431r0i4c752y1o1b2i3a7w0y0y880e0y//0c||....XXXX0oXX||2f0e3i200e..0dky67ll8q9l4o5in4na",
"3n9ua45w61676f2u0r0909XX0l341p1b////21f0..//53562mXX21XXXX0a0707XX1ais3j20jm4m0e//0ala27lwm66i5o7inb",
"3o9v5s3w1r68XX||1v1v2e0s0t0j1p2i0l0b092j810c0s0y575857h6he0a09091n2fitj20ejn93950e||182zlxm7mjmvn5nc",
"9o5o5s1i62ay2t0d1e1l0y0ecw0j7h0p1qe829142t0a..0y0y2fgy0y||..0a0b////580z0l5c||||2m57XX2c378w1smw3m1d",
"9p3qa53x4143452vbo..2f0e0ed51g0p7n7q4t2d14fj0z53888l3j0e1a||0b5c0s//..XX0c0cXXXX5e1a2192188j48mx1c0x",
"9q3ra6af1i1i464329XXXX1n..35de1616e90r80f84a1ng50e3j3j2f1a1l8s5b//0m..1nXXXX070r2j0o09XX1mm8mkmyn60k",
"9r9wa7ag616946271w4a0d0a0z354k1p0p190c814c2l838d560y562m0z||5b//35//..0z5e2h070r07kz09XXXXm9mlmz5f0k",
"0u9xa83y411rb446bp1t4cXXcx7b190p387r0j1f83fkfv0e580z..||1l//||....||0s..212h965g071h0a0d18mammn0n7nd",
"0k5pa95x631t3wbf1i2a29XX334j1p4l4l1g1g0j1ffl0e0e..1h2n0c//0s..4n....||||0o07jx071mXX0d8p451i7jn15fne",
"3p0u245y646941136l6p146z0c1y1pdpe120200e0s..0m0sXX0oXX..0l0s0z21210oXX0c0a0a1e1mki1h0i1t2w1k9m9j7o0h",
"0g0w5t5z1k3x13132w262g0i0c1f0j4m4m200e7w3fXX||||8i07071m0b..XX5e2h09092l0c0b3k1eXX0d5alm48mbmnn20w  ",
"  9yaaah406a3x6lbq28ca0i0m1f0t7l1b0t3bXX2h3hXX0agd4a3hXXXX1mXXXX07073h8i0a0bXX0d18l06x131kmcmon310  ",
"0g10ab605y1kb53y48c12z4e1y0e////1qea..078407XX1e0igp0i092j1h1h090r0i5g2j0a36XX0r501t289lly9a1z1d0q  ",
"  9z5uaiap2r6gbgbr6qcb4f4h0s0z354k0mXX07073f//3b544t8p2c09092j3h0i8m504e0c3k330rkj94lb1s9hmd5n100h  ",
"  ++acaj652424bhbsc2cc314i170c..0l361h090733530m591w2dh70909090i147y1t4w0a36740d189elcln9c1zmp0h++  ",
"060f++10aq2sb66m653rcd70cy7c150ce27s1e82XXXX||2l1wgq1t5a09XX0d4wi84q941w0a0b1e174u2aldlo77me1j++    ",
"062o060n120kb76c492b5tcn766udf7m7meb4u0bXXXXXX0d322ggz5a09XX15i24rik2v2t1e0b3k15875hlelp230w0q      ",
"0v    08++5j0h0q2x0x0u6b77d6dgdq4oec4v3c..XXXX0r0i14806y8u||5c1x0l0b0c||0m0m0m156r8k9j2q1d0q  06    ",
"0v    08  0v      ++4d0kcz1c7idre3edeo4y150d2c0i148m0i0r||0m1y1o5d7g0b4hjc4h4yk7kk9h2k1u12    06    ",
"0v    08    06063t060n112x7d0x0ue44sepf1783e37302g2g140d0b1y5d3ci93diu7z3d4p6w5x5il11u120h    0g    ",
"0v    08      060606  0n    0811e5eeeq4p85858a2a8jgr1418177s0r1wiailivj3jdjo6vk83gl2lf        0f    ",
"    ++++++      0v        0f  110weferf2f989fw1i266k1r328vhm278e8zimiw979a9c2k5p0w120n    0f        ",
"    ++++++                    2x7oeges3dfafm6a8egegs8q1i8whnhv42ib8c3gj42q2b0u1j3z2o    062o0g      ",
"2222          06  0g    ++++  ds2qehet3e4zfnfxg61s1s8r8rhfhohw6eic1c0u0k0k1j113p  06  08            ",
"2222        06060808    ++++  0k23eieuf3fb86fy6ggf8nh08n5zhphx8f1c0w0q          kl06  9k            ",
"                              0h0k1u1z2k3gfo8b8f24gt608t8xhq2s0u0k0q++                              ",
"                                  0q0w1u51fpfz1z3g2p3nh87x1d0k11++                                  "
};