/* XPM */
static char *picture[] = {
"50 50 836 2 ",
"   c None",
"XX c #2557B8",
"++ c #2358B8",
".. c #020107",
"|| c #020204",
"// c #2358B6",
"06 c #366CCC",
"07 c #2C62C2",
"08 c #1B4CAB",
"09 c #1B4BAD",
"0a c #1A4CAD",
"0b c #356DCC",
"0c c #2C63C0",
"0d c #2D62C0",
"0e c #2557B6",
"0f c #030106",
"0g c #030207",
"0h c #010005",
"0i c #366DCA",
"0j c #2D62C2",
"0k c #1D4BA9",
"0l c #2656B8",
"0m c #2657B6",
"0n c #010109",
"0o c #1A4CAB",
"0p c #336ECC",
"0q c #4580DE",
"0r c #2258B8",
"0s c #2456B7",
"0t c #010206",
"0u c #01010B",
"0v c #000112",
"0w c #2657B4",
"0x c #000110",
"0y c #00010D",
"0z c #1D4BAB",
"10 c #376CCA",
"11 c #2B63C2",
"12 c #4481DE",
"13 c #00010E",
"14 c #1E4AA9",
"15 c #1B4CA9",
"16 c #184DAD",
"17 c #2B63C0",
"18 c #030104",
"19 c #000114",
"1a c #133C96",
"1b c #376CCC",
"1c c #2F61C0",
"1d c #2557BA",
"1e c #366DC8",
"1f c #01010D",
"1g c #000008",
"1h c #1947A5",
"1i c #1B4DAE",
"1j c #2658B9",
"1k c #010207",
"1l c #1D46A0",
"1m c #000117",
"1n c #1E4BA8",
"1o c #163B94",
"1p c #0D2F86",
"1q c #133C98",
"1r c #163B96",
"1s c #173B91",
"1t c #1B46A2",
"1u c #2257B5",
"1v c #2856B4",
"1w c #396CC7",
"1x c #2F61C2",
"1y c #356DCE",
"1z c #1A4AAC",
"20 c #326FCC",
"21 c #336ECA",
"22 c #4C8BE8",
"23 c #4281DE",
"24 c #000115",
"25 c #1F4AA8",
"26 c #0F2F82",
"27 c #000012",
"28 c #000B35",
"29 c #2658B7",
"2a c #4580DC",
"2b c #477FDE",
"2c c #194BAC",
"2d c #2C63BE",
"2e c #2D62BE",
"2f c #020005",
"2g c #000B37",
"2h c #030208",
"2i c #020B2A",
"2j c #000119",
"2k c #122F7D",
"2l c #102F7F",
"2m c #1B3A8A",
"2n c #143C94",
"2o c #0C3088",
"2p c #1F4BAA",
"2q c #020A2E",
"2r c #02020A",
"2s c #1D4CA8",
"2t c #2D539A",
"2u c #356BCB",
"2v c #2259B6",
"2w c #00001A",
"2x c #356DCA",
"2y c #2456B5",
"2z c #050B25",
"30 c #113C98",
"31 c #4481DC",
"32 c #4C8BEA",
"33 c #376ECB",
"34 c #1A4BAA",
"35 c #00011E",
"36 c #477FDC",
"37 c #2D64C1",
"38 c #2B62BF",
"39 c #081647",
"3a c #040B27",
"3b c #000B33",
"3c c #103C9B",
"3d c #1B4BAF",
"3e c #091643",
"3f c #2459B9",
"3g c #000B3C",
"3h c #000B3F",
"3i c #00020E",
"3j c #00020B",
"3k c #000219",
"3l c #010C2C",
"3m c #051747",
"3n c #1E47A1",
"3o c #0F2F84",
"3p c #00020F",
"3q c #0D2F88",
"3r c #20459E",
"3s c #143B96",
"3t c #050A27",
"3u c #091642",
"3v c #0B3089",
"3w c #000215",
"3x c #000015",
"3y c #183B8F",
"3z c #2556B5",
"40 c #011C69",
"41 c #1E4CAA",
"42 c #3A6BC8",
"43 c #4880DD",
"44 c #010006",
"45 c #2459B7",
"46 c #00000C",
"47 c #00011B",
"48 c #2964C2",
"49 c #4E8AEA",
"4a c #1F4AA6",
"4b c #376DCD",
"4c c #020B28",
"4d c #2558B4",
"4e c #152D6D",
"4f c #112D6E",
"4g c #184DAB",
"4h c #103D9A",
"4i c #2658BB",
"4j c #0F3D9B",
"4k c #2856B6",
"4l c #1E469E",
"4m c #366CCE",
"4n c #1A4CAF",
"4o c #132660",
"4p c #1C4AA8",
"4q c #183C90",
"4r c #3063BF",
"4s c #336DCE",
"4t c #366ECD",
"4u c #4282DC",
"4v c #4B8CE8",
"4w c #2357BA",
"4x c #194BAA",
"4y c #1A47A2",
"4z c #4F8AE8",
"50 c #2E63C1",
"51 c #3061BD",
"52 c #020109",
"53 c #000211",
"54 c #133C94",
"55 c #010204",
"56 c #010103",
"57 c #000210",
"58 c #000B31",
"59 c #172554",
"5a c #06164A",
"5b c #00000F",
"5c c #123079",
"5d c #000105",
"5e c #162C68",
"5f c #173990",
"5g c #27458E",
"5h c #020307",
"5i c #102F81",
"5j c #2857B3",
"5k c #132E7B",
"5l c #162B6E",
"5m c #020C30",
"5n c #112B75",
"5o c #113C9A",
"5p c #000B38",
"5q c #040A2A",
"5r c #132B71",
"5s c #011552",
"5t c #040B25",
"5u c #000C2C",
"5v c #173A94",
"5w c #1D46A2",
"5x c #1E45A0",
"5y c #112758",
"5z c #142D63",
"60 c #14255B",
"61 c #1B4CA8",
"62 c #3C6BC3",
"63 c #2E549B",
"64 c #214694",
"65 c #122F7F",
"66 c #2E52A0",
"67 c #000214",
"68 c #3261BB",
"69 c #1D469E",
"6a c #346CCB",
"6b c #457FE0",
"6c c #1E4BA6",
"6d c #000313",
"6e c #234697",
"6f c #2957AF",
"6g c #356CC9",
"6h c #2757B9",
"6i c #2E60BF",
"6j c #000C43",
"6k c #040B28",
"6l c #173B8F",
"6m c #08318D",
"6n c #4B8AE9",
"6o c #2C52A3",
"6p c #010A29",
"6q c #000C33",
"6r c #00000D",
"6s c #366BC7",
"6t c #173C8C",
"6u c #142656",
"6v c #000C35",
"6w c #214AA6",
"6x c #010B2F",
"6y c #183B8D",
"6z c #2857B1",
"70 c #2F62BE",
"71 c #4880DF",
"72 c #3362BA",
"73 c #2754A7",
"74 c #000B2E",
"75 c #1D4CA6",
"76 c #152652",
"77 c #1F4BA4",
"78 c #1B46A4",
"79 c #1A46A5",
"7a c #376BCE",
"7b c #3061BE",
"7c c #2249A6",
"7d c #2257B7",
"7e c #132F78",
"7f c #000218",
"7g c #3A6CCB",
"7h c #2556B3",
"7i c #346DC7",
"7j c #4281E0",
"7k c #040A2C",
"7l c #1B47A0",
"7m c #2C61C1",
"7n c #316ECB",
"7o c #2863C1",
"7p c #0C2F81",
"7q c #142C6C",
"7r c #2457B3",
"7s c #326DCB",
"7t c #4182DE",
"7u c #4382DF",
"7v c #2E63C3",
"7w c #162B6C",
"7x c #000027",
"7y c #3A6BC7",
"7z c #2E63BF",
"80 c #4B8CE6",
"81 c #09308B",
"82 c #172B6A",
"83 c #010A35",
"84 c #2D64BF",
"85 c #4E8BE8",
"86 c #4D8CE9",
"87 c #010A33",
"88 c #1748A5",
"89 c #3062B7",
"8a c #2C61BF",
"8b c #4580DA",
"8c c #487FDC",
"8d c #346CCD",
"8e c #020B2C",
"8f c #2259B4",
"8g c #00021E",
"8h c #173D92",
"8i c #3062BB",
"8j c #000014",
"8k c #386DC9",
"8l c #2F62BD",
"8m c #0E275D",
"8n c #376CC8",
"8o c #194EAC",
"8p c #1D4799",
"8q c #051749",
"8r c #1D3C7C",
"8s c #000A3A",
"8t c #1F4AA9",
"8u c #0F307F",
"8v c #001865",
"8w c #1E469D",
"8x c #1A3B8A",
"8y c #142B6E",
"8z c #000B3A",
"90 c #113D94",
"91 c #000122",
"92 c #4B7ED7",
"93 c #000A37",
"94 c #13307E",
"95 c #081742",
"96 c #000016",
"97 c #081549",
"98 c #030305",
"99 c #000019",
"9a c #01092D",
"9b c #000A3E",
"9c c #000A38",
"9d c #010832",
"9e c #050B2F",
"9f c #00001C",
"9g c #00030C",
"9h c #04154B",
"9i c #172B66",
"9j c #172B68",
"9k c #081C59",
"9l c #15265E",
"9m c #000A34",
"9n c #020C2F",
"9o c #020C27",
"9p c #000217",
"9q c #02000B",
"9r c #081740",
"9s c #05164A",
"9t c #152A6B",
"9u c #1F3983",
"9v c #1B3B88",
"9w c #1C3C87",
"9x c #142F76",
"9y c #132B6B",
"9z c #102660",
"a0 c #10265F",
"a1 c #030C2D",
"a2 c #0C1639",
"a3 c #1A2C5E",
"a4 c #112C73",
"a5 c #133080",
"a6 c #2146A1",
"a7 c #2148A5",
"a8 c #163B93",
"a9 c #23469A",
"aa c #294489",
"ab c #243873",
"ac c #1A2650",
"ad c #060A25",
"ae c #081645",
"af c #162B6A",
"ag c #142E79",
"ah c #14255D",
"ai c #091441",
"aj c #050A28",
"ak c #182B65",
"al c #0F2E80",
"am c #0D3189",
"an c #0E2E83",
"ao c #011C6B",
"ap c #001558",
"aq c #06174F",
"ar c #010008",
"as c #000011",
"at c #091C56",
"au c #0F2C7A",
"av c #0D2F89",
"aw c #2045A0",
"ax c #2956B3",
"ay c #001B6E",
"az c #132B75",
"b0 c #00000A",
"b1 c #192646",
"b2 c #050B21",
"b3 c #000C36",
"b4 c #021651",
"b5 c #132B73",
"b6 c #3361BF",
"b7 c #2354B3",
"b8 c #1E4CAC",
"b9 c #102D73",
"ba c #0E2662",
"bb c #041646",
"bc c #000D30",
"bd c #000C2F",
"be c #35528A",
"bf c #051C60",
"bg c #0E2E81",
"bh c #0C318A",
"bi c #143B98",
"bj c #396BCA",
"bk c #1C47A5",
"bl c #143C91",
"bm c #1D4696",
"bn c #2D539C",
"bo c #1B3D7D",
"bp c #001749",
"bq c #010C28",
"br c #2F5296",
"bs c #2A549E",
"bt c #011750",
"bu c #000C40",
"bv c #031650",
"bw c #132A6D",
"bx c #183C94",
"by c #133A95",
"bz c #355FB1",
"c0 c #325396",
"c1 c #142752",
"c2 c #000B2D",
"c3 c #10275D",
"c4 c #4E7ED0",
"c5 c #4B7FD5",
"c6 c #3262B7",
"c7 c #001D69",
"c8 c #1C45A1",
"c9 c #2955B6",
"ca c #1F4BA2",
"cb c #213977",
"cc c #335295",
"cd c #3461B4",
"ce c #2E64BE",
"cf c #0B2F87",
"cg c #193B94",
"ch c #2854B3",
"ci c #487EDE",
"cj c #2C52A5",
"ck c #1D3982",
"cl c #071D57",
"cm c #4980DD",
"cn c #2F60BD",
"co c #143D97",
"cp c #3062C1",
"cq c #5189E8",
"cr c #3370CB",
"cs c #1E4DA9",
"ct c #2953A9",
"cu c #254590",
"cv c #00001D",
"cw c #091640",
"cx c #000C2E",
"cy c #132C6E",
"cz c #2758B4",
"d0 c #153C97",
"d1 c #326ECE",
"d2 c #2A56AF",
"d3 c #021E5F",
"d4 c #000224",
"d5 c #142751",
"d6 c #37518A",
"d7 c #173069",
"d8 c #050B23",
"d9 c #061647",
"da c #041C62",
"db c #113C9B",
"dc c #1947A7",
"dd c #4F8AE6",
"de c #2956B1",
"df c #000B47",
"dg c #000C41",
"dh c #0A2761",
"di c #315392",
"dj c #3A60A7",
"dk c #315393",
"dl c #0A2D81",
"dm c #3060C2",
"dn c #183C88",
"do c #25468D",
"dp c #2D539E",
"dq c #3661AF",
"dr c #2755A3",
"ds c #172C63",
"dt c #090B1A",
"du c #12275E",
"dv c #1C3A82",
"dw c #0C3189",
"dx c #0A2F88",
"dy c #4A7FDD",
"dz c #1948A4",
"e0 c #164DAA",
"e1 c #2C64C1",
"e2 c #3460B7",
"e3 c #2B58AD",
"e4 c #214792",
"e5 c #224798",
"e6 c #224AA2",
"e7 c #214AA4",
"e8 c #09328C",
"e9 c #1A48A0",
"ea c #1847A1",
"eb c #4681DD",
"ec c #1C4AAA",
"ed c #0F3E9A",
"ee c #1A469F",
"ef c #1E489E",
"eg c #224596",
"eh c #173073",
"ei c #000120",
"ej c #2E539A",
"ek c #1648A9",
"el c #2555B9",
"em c #1C4CAE",
"en c #11265B",
"eo c #224B9B",
"ep c #1548A4",
"eq c #4582DF",
"er c #2D61C4",
"es c #346CC9",
"et c #2555B7",
"eu c #030B2F",
"ev c #204A9E",
"ew c #2055B1",
"ex c #2157B7",
"ey c #1E4AAB",
"ez c #133B93",
"f0 c #0B2C79",
"f1 c #18306E",
"f2 c #00011F",
"f3 c #000B45",
"f4 c #213A7D",
"f5 c #2D55AA",
"f6 c #4881DB",
"f7 c #3370CD",
"f8 c #2764C1",
"f9 c #0E3C9A",
"fa c #0B2C7B",
"fb c #223B7D",
"fc c #223B7E",
"fd c #183B8C",
"fe c #3261BD",
"ff c #346FCD",
"fg c #2F61C4",
"fh c #0D2D7A",
"fi c #000C46",
"fj c #386AC9",
"fk c #2358B4",
"fl c #2865C2",
"fm c #3170CD",
"fn c #4383DD",
"fo c #366ECB",
"fp c #001D70",
"fq c #122F7B",
"fr c #091545",
"fs c #03164E",
"ft c #192C67",
"fu c #011657",
"fv c #021C66",
"fw c #0C3182",
"fx c #2A65C3",
"fy c #4380DD",
"fz c #2F6ECB",
"g0 c #4081DD",
"g1 c #3070CA",
"g2 c #2256B9",
"g3 c #031D68",
"g4 c #1B2B5C",
"g5 c #091748",
"g6 c #000B41",
"g7 c #000C4F",
"g8 c #3163BC",
"g9 c #2A62BF",
"ga c #4B8AE7",
"gb c #1A3A8F",
"gc c #112466",
"gd c #19254D",
"ge c #00195C",
"gf c #3660B2",
"gg c #2359BB",
"gh c #1A48A6",
"gi c #1647A4",
"gj c #183A91",
"gk c #000024",
"gl c #010A27",
"gm c #031749",
"gn c #447FDD",
"go c #376EC9",
"gp c #103C93",
"gq c #0D3084",
"gr c #060B1E",
"gs c #000C37",
"gt c #112D6C",
"gu c #4E7FCE",
"gv c #1B4DAC",
"gw c #467EDB",
"gx c #2B62BD",
"gy c #2754A9",
"gz c #183C8A",
"h0 c #12255F",
"h1 c #00021C",
"h2 c #011749",
"h3 c #528ADF",
"h4 c #174CAA",
"h5 c #1A47A4",
"h6 c #1A4DA9",
"h7 c #376DC7",
"h8 c #1D479B",
"h9 c #0D2F79",
"ha c #041D5F",
"hb c #152558",
"hc c #0F2F6C",
"hd c #507FCF",
"he c #4E8AE2",
"hf c #184CAF",
"hg c #1747A9",
"hh c #081C5B",
"hi c #070B24",
"hj c #01000E",
"hk c #000B29",
"hl c #0F3272",
"hm c #4C7ED3",
"hn c #4181DB",
"ho c #153A93",
"hp c #06328B",
"hq c #0D3E9D",
"hr c #2257B3",
"hs c #153B90",
"ht c #011D67",
"hu c #031651",
"hv c #133272",
"hw c #3361B6",
"hx c #204BA9",
"hy c #0B308B",
"hz c #083189",
"i0 c #174CA8",
"i1 c #103E9C",
"i2 c #1946A3",
"i3 c #2655AF",
"i4 c #2C61BD",
"i5 c #1E469B",
"i6 c #0F2D76",
"i7 c #02154D",
"i8 c #020C25",
"i9 c #244B96",
"ia c #2E61BD",
"ib c #0B3088",
"ic c #2658B1",
"id c #133177",
"ie c #112E6A",
"if c #3461B2",
"ig c #4980DB",
"ih c #386DCD",
"ii c #396CC5",
"ij c #2A53A3",
"ik c #1D3B7B",
"il c #152651",
"im c #2A54A0",
"in c #1E4D9F",
"io c #3162BF",
"ip c #123B95",
"iq c #08318B",
"ir c #3B6CCB",
"is c #2E549D",
"it c #0D2760",
"iu c #09173C",
"iv c #091839",
"iw c #000D3C",
"ix c #001753",
"iy c #103079",
"iz c #214AA2",
"j0 c #2158B5",
"j1 c #113E99",
"j2 c #2D63C3",
"j3 c #1748A7",
"j4 c #2D63BD",
"j5 c #2F63B7",
"j6 c #2955A0",
"j7 c #031847",
"j8 c #000B4E",
"j9 c #0B3186",
"ja c #3A6DC9",
"jb c #366BC9",
"jc c #245AB2",
"jd c #2555A7",
"je c #000B30",
"jf c #02020E",
"jg c #001659",
"jh c #0F3D9D",
"ji c #214BA1",
"jj c #1A3B82",
"jk c #061743",
"jl c #192451",
"jm c #243978",
"jn c #1A3A8D",
"jo c #2249A4",
"jp c #1B48A3",
"jq c #194CA8",
"jr c #386DCB",
"js c #396CC8",
"jt c #204CA5",
"ju c #001E76",
"jv c #2A55B3",
"jw c #366BCB",
"jx c #2659B5",
"jy c #2B54AC",
"jz c #0F2765",
"k0 c #020A2F",
"k1 c #12255D",
"k2 c #102D79",
"k3 c #001E73",
"k4 c #2355AE",
"k5 c #153D92",
"k6 c #2954B0",
"k7 c #1C4DAC",
"k8 c #081643",
"k9 c #162E74",
"ka c #244596",
"kb c #05308C",
"kc c #2654AC",
"kd c #3A6CC3",
"ke c #001E69",
"kf c #001761",
"kg c #204699",
"kh c #2854AD",
"ki c #163B8C",
"kj c #112E7A",
"kk c #071544",
"kl c #192F6B",
"km c #274897",
"kn c #2F54AC",
"ko c #234AA5",
"kp c #173B93",
"kq c #0C3086",
"kr c #1D479D",
"ks c #2957B5",
"kt c #2657B3",
"ku c #1946A1",
"kv c #112C71",
"kw c #122661",
"kx c #060B21",
"ky c #152D6B",
"kz c #0F2C78",
"l0 c #0D317F",
"l1 c #2958B0",
"l2 c #2C56AA",
"l3 c #001E72",
"l4 c #1D4AA7",
"l5 c #133B9A",
"l6 c #2249A8",
"l7 c #2654AA",
"l8 c #3261B9",
"l9 c #2354B1",
"la c #3162C1",
"lb c #234398",
"lc c #05164C",
"ld c #060B28",
"le c #182A68",
"lf c #071B5A",
"lg c #031754",
"lh c #163D8C",
"li c #3460B9",
"lj c #3D6AC5",
"lk c #113D96",
"ll c #001D74",
"lm c #0C3283",
"ln c #2C56A8",
"lo c #2453AD",
"lp c #082E81",
"lq c #1A3B88",
"lr c #142E78",
"ls c #102B6E",
"lt c #224797",
"lu c #3D6BC3",
"lv c #3E6BC6",
"lw c #001C6C",
"lx c #10317E",
"ly c #1A3B8C",
"lz c #132E7D",
"m0 c #011B66",
"m1 c #102D71",
"m2 c #0C2E75",
"m3 c #2A53A2",
"m4 c #3E6BBE",
"m5 c #3D6BC1",
"m6 c #1A3C84",
"m7 c #132C6C",
"m8 c #02164B",
"m9 c #040207",
"ma c #000106",
"mb c #162657",
"mc c #406AC0",
"md c #011E64",
"me c #051C5F",
"mf c #102566",
"mg c #041B5F",
"mh c #152C70",
"mi c #081B5D",
"mj c #03174A",
"mk c #122C67",
"ml c #31539A",
"mm c #416BBF",
"mn c #3960AF",
"mo c #142C68",
"mp c #000216",
"mq c #000C3A",
"mr c #1E3C7A",
"ms c #315297",
"mt c #425E9D",
"mu c #0B173F",
"mv c #000B32",
"mw c #1D3B79",
"mx c #1F3C76",
"my c #060C1C",
"mz c #18264D",
"n0 c #1A274A",
"n1 c #060C26",
"n2 c #050C28",
"n3 c #000319",
"n4 c #000212",
"n5 c #00010A",
"n6 c #000013",
"n7 c #03020A",
"0h    0h0f0f....              0ndt1mei3b3hf35sfifs3m28glgr0y1f1f0y3j..      0f0f                    ",
"          0h    0g  0g  ..0n6r19357476en4ef4fc7q4og4gd3l2wh18ghk8gi86d0y1k  0f0f    0h  0h          ",
"0f    0t5h          ||  2r0x4c6vdu4fejeoevf5fd5nftg57x5mgsh2hchlhv8m6q2w0y0g    ....  ||||56        ",
"2f0g  5d0t0t||  ..0n3i6747cxd95edve5777b7g0w2n2mfug63ggmgt2thdhmhwi9ieil3w0n44..2h..  ||||    0h    ",
"          0h  2h1g19c23mclcyda5c6ye61t412y7h7l6lfvg7ge2tguh3he8b1e8iif8riv0vjf52..0f||||  0g0f0f    ",
"0t0h  0f  0g..b0195uc3cc6e6l26dldwe7254j154rfe69fw64gf898b22804u0p2bigimiw352z3x271f0n  ....m90f    ",
"        2f..ar3wbd5z63cd6f4a2n3rdxe8781v7h6i7gfj7yg81w1e21124uhn7n124zinix8s8sjlk02z0x52..0f  0g    ",
"      0g0f..1f5t5ybrc4ce0e1hdb6w1l1a25141h087m0706g90b11110p2a31120p4z62iyj8jgjmk1k891kx0u          ",
"0t0h0h0f  0n0vb1bebsc52x450odc0k6ze91a1q1n1534292d8433070i0c07062u070c1wizj91sjnk2k9kl93190h||55    ",
"0t    0f0g0nas5u5z2tc60i6g++0a0e70ea1a3s4h0k087r7z2d10++0dh416++XX0e//500e1v8tjo1skakmky353jma55    ",
"98||0g  0f..1fb258bt6468cm0b070cdy151q7c3c084dfk2v0i0i0dXX1i0a0a0e0o++++j0ja1v1ak34qkn5g951m0u      ",
"56||    2f..1f3x2qbuc769cn6g0i360b//795o4p0e0c17110b077mXX1z1i0a0e0s++++070c0wjp544lko8u607k6r      ",
"          1g273t28bv40cfcocz6s362a21//epew1e2b7sfx0q4m4w4i4n0a0aXX1j0s++07070djq5j6w1r2lle870v..    ",
"    0h  ..3p3tb360bw651p3v304d0i21eb360i7if60b0pfy0q1y4w4w16++0j1b0j0a++060b0bjr15kbkp94lf9319..    ",
"18  0g1k0n243ub4bf4026cg2od00z++//37060b0q2a4t7o20854s1107070b0b38333f++0i432b0ik490kqkzlg28240n..  ",
"182h0y0v1m5matb52k3o2o1r1r6m0z0aXX0a++060pf70qfl2022120b0i10100d8kia42io6s0i110i1wkckrl04f6u4c0x0u1k",
"  9g2ja2aeak5r2kbgbxc8ch140z0ldm1z1zek7d0b127jfmfz86850b0e0k4h4ahx301lipj188//078c8k8nl1lhlsmb2imyn5",
"  0y3la3af5nau261sby2p0m0lXXXXXX0aXX1z1iex0q237t7uga8648gvh51q81hy1r3viq6c510ejs6zkd9292lilt4fmq2w57",
"||579r5eagal3o1pbh5wc90l1zXX0d0i100d4i1d4g17207u4v4v7t20//0k1aho2oib6m1n4r2e42jt8uke6tl2ljlu6omr743w",
"0u3k9sa45i1p3q5vbi250z096h2907172v387a4m07172023g04v22gn8ch64yhphz1a1nir0i0d1vju8vkf8vl3lklvmcmsmz2j",
"99589ta53o3qav1r1t1h0z0l6i2y0r071717116b497j234u80237s0bgw7i1e8fi08n1b1b0c104j1qk5kg1s1sll7p66mtn096",
"9a599u5f2o3raw5w2s15082ycp//4b060i2x0peq6n3223fng131gg16172a4z0q0q712u0rj2jb14jvk6kh1l1o3ylwmd6j6pn6",
"2g9h2ka62514axb6bj10//45100c070c0c37070b12237n0p21174n3d0s++078d0b060r060616148t140k0k1t8wlxme8zn113",
"3g9i2la70k080zb70i2u06ci064b0c////4gXX0r0qf8ff0q2x7v093d0l0ahf0r0r0r0j0j0716jh3c0m084kl4548xmf3e2j13",
"3h9j2m3n0w0o0808//07066acq0b++XXXXXXeler1y4s7o360616090909XXXX0j0r2u1b0r11112c0o1c7b14l51rlymg973a0v",
"9b9k2m1a5j0o0l09//2v070b0q0p1b0o08ecem4n4m4s0bfo06++0a0aXX0aXX++//++1b062b0b06jw0d153cl65v5imh97n20v",
"9c9l9v1l1n0k08090e1u++114831334d1n4h4j0e060b060706++++++////++++++++0j4b060b0606068o797c3qlzmi5p2z53",
"9d5a9w2n1l5o2pb83z291x07cr31dd0cdzed151c0606++16++++++10gx841u//1x8o2v380r0706064t0cks1a1pm04omu2446",
"9e595ca81o3s1q25141v290c2022220pe045374306++16++g2++7d0d2d8f2e7r0d//0c07//0eXX0j0c1e1wl7lmm18q8e27n7",
"9f9m9xa95fam3v5xbk410o07126n3222712b2aes07++++3f4i0s0d0d0c0c0d4r2e1uih3f0a0m0m0m1u2e8ll8lnm2mj915b2f",
"249n9y2m26an1p1o1t61161y493232120p2x0c37++XXfg1dXXXX0e8a1y1y0j0d501u0j0s0a09410kk74xkt6872m3mkmv53||",
"0x2i9z5g5kaoay3y3n61066b49d10p48e10c//0dXXXX1d1d1jXX0e0j8d1y0r++++++0sXX09091h1h080808l951m4ml5y67||",
"3i9oa0aa5lapaz2l2n0w43122121110r++++XXXXXX1j1d1dXX1jXX0j07070d0jXXXXXX0oj3080808090l0llalom5mmmwn3  ",
"3j9p3mabahaq5sb9bl420i0p170c//1xXXXX0s0a2c2c1jXX1iXX0sXX330c0dXXXX0a290e4x0o09XX0l0m0m2s908pmnmx3k  ",
"..5ba1acai5p3gbabm1w1b0j++//0o081z090l6h3d090a0s++XX1iXX380cXX0s1xXX0d8a7z2e1c0d1c0wku54lpm6mo6vn4  ",
"0f9q19adaj5q2qbbbn620w3z0m08080m090l0let3d090e//XXXX084x10//0a09090a0e//0d////jx0w753n1slqm795470y  ",
"||0g0u1f130x19bcbobzca6ccs0w340l0s1xXX1j092c4g0dXX0888150eXX080809XXXX1xXX0e0e0w1t5x1olblrm82i0x0n  ",
"||||      2h1g3kbpc066cjctd21v1i++1bXX2cXX0a//0dXX08gh4p0m0908hq0z34XXXXXXXX0e1h1q1o1p94822gmp1g..  ",
"        ||  ..3ibqc1cbckcu6ode1c1u0d1j0a0o//++7v1d091h0k0m090934i14p0mXX3fXX0a0k308h2l8y395q0x..    ",
"        ||||  2r0x2w2g3h6jd36t6f70//3z080o2yXX0s0a09gi150m0a0908i22s08XX0j50XX0k77kikvlc2q3x0u0g    ",
"        0t0t||  1g13242zcv28dfdn720e4k0z4k090l0a++////0d++XXhg0k4y4y0m++0c2d1c2s8wkjkw3b960u..      ",
"            ||||0g..2r46276pdgdoe20w0k3cey0z091i++074t6a060jXX0wi3ic1c10j4jc51jy8x4e3uld13..        ",
"||||    ||181818  0h440u0vd4dhdpe3752p141nf9091d7a0b0q120q0b0chri41e061ej5jdji6e8ykk474652  0t5d    ",
"||||    ||181818  0g  0y5td5didq73ee1t78304a2p0z081c2dgo1eh77y8i8l1wii89j663jjjz8z6k130g    0t5h    ",
"                ||0h0h6dcwd6djdr73ef4l3sez4l3r1o811l7lgpgyh88hhsi58pijis8r8mjk3l1m3p1k||      0h    ",
"                ||  0g1928d7dk2te4eg6y3y4q4q7pfp26gbgjgqgzh940hti6idikitj7je2j530n  0t550h          ",
"    1k..          0f0g136k6q6uds4eeh5r7ef0fafhfqg35k652k7ehahhhui78q76iu4c8j3p1g..0h    0g0g        ",
"    1k..          0f0h2r0vd8356x2g395a4of1fb7q7w82gc5l7wh0hb3e836x2i3a1m0x0u44                      ",
"                      ..0n0y130x0v1m3aeu3b3u3efr39393e3b8e3ahi8j0v130y0u0n..                        ",
"                                  1g277ff27k2q7x8387gk3t7f0vhj0u..                                  "
};