/* XPM */
static char *picture[] = {
"50 50 838 2 ",
"   c None",
"XX c #265BBB",
"++ c #030208",
".. c #1D4DAF",
"|| c #285ABB",
"// c #255BBB",
"06 c #040207",
"07 c #3066C6",
"08 c #255BBD",
"09 c #1F4DAD",
"0a c #020307",
"0b c #02020A",
"0c c #02020C",
"0d c #2355B4",
"0e c #2F67C6",
"0f c #1C4EAF",
"0g c #285ABD",
"0h c #020308",
"0i c #265ABD",
"0j c #030305",
"0k c #2455B4",
"0l c #3A72D1",
"0m c #1D4EAD",
"0n c #1C4EAD",
"0o c #3166C6",
"0p c #000211",
"0q c #00020E",
"0r c #1F4DAF",
"0s c #3B71D1",
"0t c #040308",
"0u c #020106",
"0v c #3873D1",
"0w c #4885E2",
"0x c #3872D3",
"0y c #000215",
"0z c #2959BB",
"10 c #204CAD",
"11 c #285AB9",
"12 c #3A72D3",
"13 c #2156B4",
"14 c #265BB9",
"15 c #000213",
"16 c #2355B6",
"17 c #2156B6",
"18 c #275BBE",
"19 c #204DAA",
"1a c #295BBC",
"1b c #020B2A",
"1c c #00021C",
"1d c #4685E2",
"1e c #4984E2",
"1f c #245CBB",
"1g c #255CB9",
"1h c #3067C4",
"1i c #1F4DAB",
"1j c #3C71D1",
"1k c #3774D1",
"1l c #295AB9",
"1m c #2559BC",
"1n c #00030F",
"1o c #10358D",
"1p c #204EB0",
"1q c #214CAB",
"1r c #00030C",
"1s c #3C71CF",
"1t c #2D68C6",
"1u c #2B59B7",
"1v c #1E4EB0",
"1w c #0D3692",
"1x c #000B37",
"1y c #020B28",
"1z c #163E96",
"20 c #204CAB",
"21 c #00020F",
"22 c #1C4DAC",
"23 c #11358D",
"24 c #275CBC",
"25 c #3B73D4",
"26 c #000C37",
"27 c #204CAF",
"28 c #2454B6",
"29 c #113687",
"2a c #0D368E",
"2b c #3365C4",
"2c c #113F9F",
"2d c #255ABA",
"2e c #123F9C",
"2f c #133E9D",
"2g c #265CBC",
"2h c #1C4EB1",
"2i c #214DAE",
"2j c #4884E4",
"2k c #4685E4",
"2l c #010B2E",
"2m c #2F67C8",
"2n c #245ABC",
"2o c #3066C8",
"2p c #020305",
"2q c #020A2E",
"2r c #000218",
"2s c #071B4E",
"2t c #000116",
"2u c #17357E",
"2v c #020107",
"2w c #2654B4",
"2x c #1E4CAC",
"2y c #153D9C",
"2z c #0E368E",
"30 c #1C4CAE",
"31 c #133D9F",
"32 c #000311",
"33 c #000313",
"34 c #1D48A6",
"35 c #000C2E",
"36 c #1F48A0",
"37 c #2F65C5",
"38 c #3B71D3",
"39 c #010B2F",
"3a c #4584E1",
"3b c #00021A",
"3c c #123E9D",
"3d c #2F67C4",
"3e c #000323",
"3f c #0D3690",
"3g c #1A4FAF",
"3h c #4B83E2",
"3i c #3166C4",
"3j c #2456B5",
"3k c #3773D3",
"3l c #2759BA",
"3m c #245ABA",
"3n c #3366BF",
"3o c #3F70CC",
"3p c #03020A",
"3q c #000B38",
"3r c #000B35",
"3s c #0D1A44",
"3t c #071A52",
"3u c #091B4D",
"3v c #030408",
"3w c #0B1F5A",
"3x c #123684",
"3y c #000316",
"3z c #103488",
"40 c #143586",
"41 c #000114",
"42 c #10307B",
"43 c #010109",
"44 c #0A1B49",
"45 c #133E9C",
"46 c #08205E",
"47 c #123589",
"48 c #193E8E",
"49 c #163D9A",
"4a c #1C49A6",
"4b c #204DA8",
"4c c #3167C1",
"4d c #3366C1",
"4e c #192F68",
"4f c #050B23",
"4g c #000C2C",
"4h c #2356B2",
"4i c #000C3E",
"4j c #010207",
"4k c #2855AA",
"4l c #234896",
"4m c #0E368D",
"4n c #4586E2",
"4o c #3973D4",
"4p c #295BBE",
"4q c #1D4FB0",
"4r c #10358E",
"4s c #3A72CF",
"4t c #153E9A",
"4u c #1E4CAE",
"4v c #3167C7",
"4w c #3168C5",
"4x c #3974D2",
"4y c #2056B6",
"4z c #245CBD",
"50 c #3C72D2",
"51 c #285BB7",
"52 c #3165C8",
"53 c #2858BA",
"54 c #1D4EAB",
"55 c #1B49A7",
"56 c #000C33",
"57 c #000417",
"58 c #000115",
"59 c #000A37",
"5a c #000128",
"5b c #040108",
"5c c #000D30",
"5d c #091A4E",
"5e c #0D1B4A",
"5f c #0A1A4B",
"5g c #172E71",
"5h c #244798",
"5i c #123586",
"5j c #143582",
"5k c #000117",
"5l c #01092D",
"5m c #133E9A",
"5n c #2C59B6",
"5o c #214CA8",
"5p c #152860",
"5q c #040B28",
"5r c #030106",
"5s c #020B2C",
"5t c #182F72",
"5u c #193D95",
"5v c #133688",
"5w c #0E3590",
"5x c #000216",
"5y c #193C96",
"5z c #081A4A",
"60 c #082060",
"61 c #3865BA",
"62 c #183D98",
"63 c #153E96",
"64 c #1D49A2",
"65 c #00030E",
"66 c #050B21",
"67 c #153D95",
"68 c #3A73CD",
"69 c #2A53A5",
"6a c #173679",
"6b c #00031E",
"6c c #0C1B46",
"6d c #112A63",
"6e c #0F348C",
"6f c #2149A0",
"6g c #1F48A2",
"6h c #255DBC",
"6i c #4786E3",
"6j c #07215E",
"6k c #4362A5",
"6l c #0C1945",
"6m c #010206",
"6n c #040309",
"6o c #112965",
"6p c #143487",
"6q c #214CAA",
"6r c #2959BD",
"6s c #3068C9",
"6t c #1F4EAA",
"6u c #051C52",
"6v c #27488D",
"6w c #3466BB",
"6x c #3765BA",
"6y c #2554AE",
"6z c #204BA7",
"70 c #1B4DAE",
"71 c #214DA4",
"72 c #275CB8",
"73 c #2F66C3",
"74 c #3366C2",
"75 c #0E3695",
"76 c #040B25",
"77 c #123D9B",
"78 c #3E71CC",
"79 c #2055B3",
"7a c #000312",
"7b c #143071",
"7c c #11358B",
"7d c #3166C2",
"7e c #000C35",
"7f c #17357D",
"7g c #3068C5",
"7h c #3971D0",
"7i c #2456B7",
"7j c #2B59B9",
"7k c #2754B1",
"7l c #2254B3",
"7m c #2759B8",
"7n c #122F7B",
"7o c #142F74",
"7p c #1B4DAC",
"7q c #194FAF",
"7r c #4986E3",
"7s c #113FA1",
"7t c #3873CF",
"7u c #2353B5",
"7v c #3C71CD",
"7w c #162E74",
"7x c #113F9D",
"7y c #0B3692",
"7z c #265CBE",
"80 c #3E70CF",
"81 c #113589",
"82 c #4C83E0",
"83 c #14306F",
"84 c #3364C1",
"85 c #2257B5",
"86 c #4783E3",
"87 c #275CBA",
"88 c #042069",
"89 c #133DA1",
"8a c #2D67C8",
"8b c #3465C2",
"8c c #1F4BAE",
"8d c #123E9F",
"8e c #3465C4",
"8f c #265ABF",
"8g c #244896",
"8h c #4F83D6",
"8i c #4C82E2",
"8j c #0F378F",
"8k c #2B5AB6",
"8l c #132E71",
"8m c #000C2F",
"8n c #3E71CA",
"8o c #3E71CD",
"8p c #010C2A",
"8q c #4B83E0",
"8r c #2A5BBA",
"8s c #00031A",
"8t c #071B4D",
"8u c #224899",
"8v c #04206A",
"8w c #153D9D",
"8x c #163D98",
"8y c #14295E",
"8z c #0C1A47",
"90 c #214EAB",
"91 c #08194D",
"92 c #4D83DD",
"93 c #2B59BB",
"94 c #010C2C",
"95 c #002175",
"96 c #163683",
"97 c #000C3A",
"98 c #244990",
"99 c #000407",
"9a c #00031F",
"9b c #000125",
"9c c #010A33",
"9d c #050A28",
"9e c #000118",
"9f c #010204",
"9g c #01010B",
"9h c #09194A",
"9i c #061B54",
"9j c #142960",
"9k c #061B52",
"9l c #061A4F",
"9m c #040A2A",
"9n c #040406",
"9o c #153077",
"9p c #18367F",
"9q c #264794",
"9r c #193E8F",
"9s c #153580",
"9t c #19347B",
"9u c #192E6F",
"9v c #122051",
"9w c #18285B",
"9x c #173482",
"9y c #1C3C8F",
"9z c #23479D",
"a0 c #2855B2",
"a1 c #2048A0",
"a2 c #22489D",
"a3 c #19337D",
"a4 c #0E1F53",
"a5 c #183581",
"a6 c #0E2E81",
"a7 c #2047A2",
"a8 c #234CA6",
"a9 c #071F67",
"aa c #091954",
"ab c #050308",
"ac c #072060",
"ad c #1A3D8F",
"ae c #214DAC",
"af c #0F307F",
"ag c #132F78",
"ah c #000B3B",
"ai c #000B31",
"aj c #000B2B",
"ak c #0A1C4E",
"al c #183070",
"am c #13307C",
"an c #183C9A",
"ao c #123C9E",
"ap c #143F9E",
"aq c #163D9C",
"ar c #183D95",
"as c #0D317B",
"at c #113279",
"au c #122F71",
"av c #16306B",
"aw c #020D2B",
"ax c #021F6B",
"ay c #183D96",
"az c #103590",
"b0 c #3664BA",
"b1 c #2D5AAF",
"b2 c #3A64B6",
"b3 c #3D62B0",
"b4 c #2B4989",
"b5 c #182954",
"b6 c #0A205C",
"b7 c #123587",
"b8 c #3164BF",
"b9 c #3C72CC",
"ba c #1D4FA6",
"bb c #1D4A9F",
"bc c #244894",
"bd c #000C31",
"be c #000214",
"bf c #1B294C",
"bg c #142E78",
"bh c #11368F",
"bi c #3B73D0",
"bj c #1F4EA8",
"bk c #020C27",
"bl c #0E1A40",
"bm c #1E2E5F",
"bn c #02020E",
"bo c #050A27",
"bp c #2A4888",
"bq c #031A5D",
"br c #051F6A",
"bs c #173386",
"bt c #12348B",
"bu c #224DAB",
"bv c #113D9E",
"bw c #3772D0",
"bx c #4885E0",
"by c #1B4AA6",
"bz c #000328",
"c0 c #041B51",
"c1 c #2B4788",
"c2 c #00011C",
"c3 c #000C36",
"c4 c #244A95",
"c5 c #2B55A9",
"c6 c #274C9D",
"c7 c #0D3081",
"c8 c #13358C",
"c9 c #0F348D",
"ca c #2E66C5",
"cb c #4786E5",
"cc c #2E66C7",
"cd c #1C4CB0",
"ce c #1B49A1",
"cf c #3A64B8",
"cg c #143680",
"ch c #0F2964",
"ci c #3059A9",
"cj c #234994",
"ck c #0C215A",
"cl c #000D2D",
"cm c #102A63",
"cn c #224994",
"co c #204EA6",
"cp c #10368B",
"cq c #1D48A4",
"cr c #2654B2",
"cs c #1E4EB2",
"ct c #2355B8",
"cu c #3875D2",
"cv c #113684",
"cw c #2D54A3",
"cx c #3963B5",
"cy c #214EA3",
"cz c #234A99",
"d0 c #152E6E",
"d1 c #091A45",
"d2 c #3B72CD",
"d3 c #2055B5",
"d4 c #2B5AB4",
"d5 c #2655AD",
"d6 c #1D4BA3",
"d7 c #1E3F86",
"d8 c #1D3E8D",
"d9 c #4D84E1",
"da c #214BAD",
"db c #3464C6",
"dc c #1D4DB1",
"dd c #204EAE",
"de c #2755B5",
"df c #2C5AB8",
"dg c #1C49A4",
"dh c #2655AF",
"di c #1E4CAA",
"dj c #1C4AA2",
"dk c #4C84E5",
"dl c #2556B5",
"dm c #2554B0",
"dn c #1E4AA3",
"do c #193D91",
"dp c #133072",
"dq c #0A1B47",
"dr c #00031D",
"ds c #0B2057",
"dt c #0D3082",
"du c #193E97",
"dv c #2455B1",
"dw c #2255B0",
"dx c #3268C2",
"dy c #2C5BB7",
"dz c #235BBA",
"e0 c #234BAB",
"e1 c #123D9C",
"e2 c #224DA9",
"e3 c #122F75",
"e4 c #0A205A",
"e5 c #0D1B42",
"e6 c #000112",
"e7 c #194AA6",
"e8 c #2356B1",
"e9 c #3066C0",
"ea c #113E9B",
"eb c #3C73D0",
"ec c #1D47A9",
"ed c #2553B3",
"ee c #112F77",
"ef c #162F71",
"eg c #153C99",
"eh c #3D72D2",
"ei c #113486",
"ej c #03216A",
"ek c #193477",
"el c #17295B",
"em c #081C4E",
"en c #234795",
"eo c #2753B4",
"ep c #4C84E3",
"eq c #2C66C7",
"er c #3765C3",
"es c #000B3A",
"et c #2B54A6",
"eu c #2C67C5",
"ev c #3465C1",
"ew c #0B3790",
"ex c #002173",
"ey c #173480",
"ez c #152D73",
"f0 c #091A50",
"f1 c #153172",
"f2 c #3065C5",
"f3 c #0F3FA1",
"f4 c #0A3890",
"f5 c #10348A",
"f6 c #122F7D",
"f7 c #0C1F57",
"f8 c #000119",
"f9 c #000C48",
"fa c #17357B",
"fb c #2854AB",
"fc c #1D4FB2",
"fd c #235BBC",
"fe c #2257B7",
"ff c #2254B5",
"fg c #2354B1",
"fh c #0F3691",
"fi c #133386",
"fj c #142F76",
"fk c #1A2F68",
"fl c #021B5B",
"fm c #29478D",
"fn c #2A54A8",
"fo c #3365C6",
"fp c #3672D2",
"fq c #3673D0",
"fr c #4A85E3",
"fs c #123D99",
"ft c #123078",
"fu c #122864",
"fv c #000930",
"fw c #001C5B",
"fx c #18367C",
"fy c #3665BF",
"fz c #0C368A",
"g0 c #123682",
"g1 c #072062",
"g2 c #0C1A49",
"g3 c #021C57",
"g4 c #3574D3",
"g5 c #3473D2",
"g6 c #3771D2",
"g7 c #3068C7",
"g8 c #2354B3",
"g9 c #0B388B",
"ga c #173070",
"gb c #010A2B",
"gc c #142962",
"gd c #133F98",
"ge c #4983E4",
"gf c #3874D4",
"gg c #3C72D4",
"gh c #123EA1",
"gi c #3B72CF",
"gj c #3566C2",
"gk c #0D378D",
"gl c #00011A",
"gm c #000B36",
"gn c #192A58",
"go c #071B50",
"gp c #021B5D",
"gq c #0C3181",
"gr c #3765BD",
"gs c #1B4FB2",
"gt c #2759BC",
"gu c #214BAF",
"gv c #143E94",
"gw c #04226B",
"gx c #14275F",
"gy c #000217",
"gz c #000A2D",
"h0 c #101940",
"h1 c #000A36",
"h2 c #051B55",
"h3 c #103786",
"h4 c #255AB8",
"h5 c #215CBA",
"h6 c #194DB0",
"h7 c #031F68",
"h8 c #00021F",
"h9 c #061B50",
"ha c #244D9D",
"hb c #3267C5",
"hc c #01216A",
"hd c #050A1E",
"he c #000221",
"hf c #061C4E",
"hg c #3865B6",
"hh c #2755AB",
"hi c #173066",
"hj c #4171C3",
"hk c #3664B9",
"hl c #172F6B",
"hm c #010214",
"hn c #000D33",
"ho c #40629F",
"hp c #1E4FAE",
"hq c #2356AF",
"hr c #1F499B",
"hs c #133074",
"ht c #091C46",
"hu c #4164A4",
"hv c #3267C7",
"hw c #093693",
"hx c #0F409D",
"hy c #4984E0",
"hz c #2D68C4",
"i0 c #0C419F",
"i1 c #244997",
"i2 c #091F59",
"i3 c #4462A0",
"i4 c #4271C3",
"i5 c #0B3895",
"i6 c #224EA7",
"i7 c #103079",
"i8 c #214895",
"i9 c #4984DE",
"ia c #3064C7",
"ib c #2859BF",
"ic c #3165CA",
"id c #3764C1",
"ie c #3466C9",
"if c #264CA1",
"ig c #03030F",
"ih c #0B1A45",
"ii c #133272",
"ij c #3863B2",
"ik c #4F81E0",
"il c #3E70D1",
"im c #00227A",
"in c #2156B2",
"io c #2C5AB0",
"ip c #08215A",
"iq c #000113",
"ir c #142A5B",
"is c #294888",
"it c #2D549F",
"iu c #153E8E",
"iv c #183F8E",
"iw c #103689",
"ix c #144099",
"iy c #143D97",
"iz c #0F378E",
"j0 c #0C358D",
"j1 c #1C4DAA",
"j2 c #194AA7",
"j3 c #1B4EAA",
"j4 c #3664BC",
"j5 c #2B54A3",
"j6 c #163575",
"j7 c #000D3A",
"j8 c #000B27",
"j9 c #0D1C43",
"ja c #0B2055",
"jb c #000B3D",
"jc c #000D47",
"jd c #001B67",
"je c #1D4EAA",
"jf c #063388",
"jg c #2856AB",
"jh c #3F72CD",
"ji c #13409D",
"jj c #00227E",
"jk c #0A3591",
"jl c #000B29",
"jm c #000225",
"jn c #000B43",
"jo c #1A3E96",
"jp c #224AA9",
"jq c #265BB7",
"jr c #3365BA",
"js c #4372C4",
"jt c #0B378E",
"ju c #1E49A5",
"jv c #234CA8",
"jw c #234698",
"jx c #133076",
"jy c #000110",
"jz c #1A306C",
"k0 c #1F3D86",
"k1 c #2D53A8",
"k2 c #2F58B4",
"k3 c #2F57B7",
"k4 c #0F409F",
"k5 c #3564B6",
"k6 c #254993",
"k7 c #001B68",
"k8 c #143C9C",
"k9 c #153687",
"ka c #142F72",
"kb c #01040D",
"kc c #000319",
"kd c #0D1B40",
"ke c #173069",
"kf c #274792",
"kg c #244CA3",
"kh c #0B3694",
"ki c #244BA6",
"kj c #0B3893",
"kk c #3666BA",
"kl c #000E55",
"km c #1A3D97",
"kn c #153D9F",
"ko c #2A58BA",
"kp c #103E9E",
"kq c #0C358F",
"kr c #1A3D8E",
"ks c #002172",
"kt c #093284",
"ku c #3765BB",
"kv c #3466BD",
"kw c #002170",
"kx c #042171",
"ky c #11348E",
"kz c #3766C0",
"l0 c #03030B",
"l1 c #01030F",
"l2 c #091A46",
"l3 c #3358A8",
"l4 c #264B9B",
"l5 c #284893",
"l6 c #000D54",
"l7 c #14367E",
"l8 c #204998",
"l9 c #183E93",
"la c #2C58B7",
"lb c #0D317D",
"lc c #295AB6",
"ld c #275AB5",
"le c #1F499F",
"lf c #1A3E8A",
"lg c #0A1C4C",
"lh c #04040C",
"li c #010103",
"lj c #2A4789",
"lk c #27488F",
"ll c #274790",
"lm c #042165",
"ln c #000E4A",
"lo c #274989",
"lp c #1D4A9D",
"lq c #3865C0",
"lr c #193E96",
"ls c #113488",
"lt c #000D43",
"lu c #153679",
"lv c #3B64B3",
"lw c #3F73C9",
"lx c #3D63AC",
"ly c #102A65",
"lz c #091B49",
"m0 c #152A5F",
"m1 c #122B64",
"m2 c #18306E",
"m3 c #132963",
"m4 c #132A5C",
"m5 c #3F71CA",
"m6 c #2C5BB3",
"m7 c #002273",
"m8 c #173073",
"m9 c #172F6D",
"ma c #000B2D",
"mb c #0F2C64",
"mc c #3C64A9",
"md c #4870B5",
"me c #2B4A81",
"mf c #000D37",
"mg c #040C23",
"mh c #000A2E",
"mi c #010B26",
"mj c #031C52",
"mk c #2755AA",
"ml c #5281D9",
"mm c #254B9C",
"mn c #01216C",
"mo c #091E5F",
"mp c #0C205D",
"mq c #15295E",
"mr c #0C1B44",
"ms c #00041F",
"mt c #172A55",
"mu c #0C1C3E",
"mv c #020C25",
"mw c #040A24",
"mx c #112B5E",
"my c #23488E",
"mz c #3D64B1",
"n0 c #4062AA",
"n1 c #132F70",
"n2 c #000C41",
"n3 c #040205",
"n4 c #050A20",
"n5 c #091C47",
"n6 c #2E4780",
"n7 c #15295B",
"n8 c #00030A",
"n9 c #000209",
"0606    ++++    0h0h  0u  0h0c0q0q7a1c35es3tf9flfwg32sgmgz4f151r++0t0606        06060606    0a0a    ",
"06      ++++    ++++  6n430q0y66dr4g7eem6df1fafmfx83gcgnh0h8hd333333150pig0b++    5r06060t  0a0a    ",
"        0606    0t    0b0p3b2q3qds7b7fenet4kfbfn292u60goh139he3ehnht7e2l1ciq0b0u6n++    0u          ",
"0a0a    0606    ++3pbn58cld15p5t2u29677k11147p194m5i88gph2h9hfhihohui34eih1b150b0h6m    0t          ",
"++++0h++0606  0h0b0pboc3cm6vd86pdt7cegeo||XX7x7y1z7c29gqh3hahghj8h8hi4i8iiirj80p0b  0t  2v++  0u    ",
"++++0h        0h0q4f1x6ocn6x6z1wdu4r2f09||0o0k197y3fgdgr3ohb7h2j3a0w7t3nijisj98sjykb4j      0t      ",
"              0b324g6dc46wd24hdi776q100k1af21jfo1l84517480070x3k1d3a6ii98nit8tjm1ykc1r  0t0u        ",
"              0b33bfbpc54c0v1g0d1i1i0k7l0fXX1mXXXX13734v172n128a1k1d4n3a82iuja568zkd2rl10b          ",
"06060t        43153546c64d0l3d72dve73jXX7p0m1v280d131g4y0oXX071f4z4o2j1e8oivjb26jzke3s1c0p0b0h0h    ",
"06060u    ++0c151c1xbqc7co1sd973dwe81g070k2c0r..0n852g//h41417XXXX084z50ikiwjcjnk0kf6ol21b0y1r0a    ",
"0j0j9n  5r0c5xaw593wbr6p4m6y2b1sdxe97g0s0m090r0z||24//3m850d......0f18iailixjd8vk1kg486k8y35320a    ",
"0j0j0j2v0c0yaj44b6bgbsc8cp2a6t74787d4s3h16f3fc0i0o0s2m0e3m141p8c09282hib0g1i4rjok2kh2al3ljlz574j    ",
"2p9f  0c415sak602u40bt23231o2adjdy2b0lep4v4y082m120x1t0v0e2g2c31101p4pic0g532fjpk375kq8ulkm01y210b  ",
"0a0h0c3y5s44alaxb7235yc91o1o2z3f770m0o0l0l0l250x3k864x0v7r0e1l09100r0g8f0i0g0z091q4t6fl4llm1mh2t0c  ",
"++9g2t5la4acam4723bh6e4m1z492y751wea0k1h1h7g0vfp1k1k0x861d0w//XX0fXX0i08082n0s0n3ckikrl57fm26lmw0q  ",
"3p0p2q9w5t4247ay62676f36cq1qda1q1w5m1i134w7t0v2j1d1dge0x1d0w0e070ohvXX1j1j1j8i0o1i2aksl6lmm3564f0q  ",
"0c2r5f5ga5ad5yaz63366g6qcr1l..2c34342w0f7q0v1e0w2kg40x8a1e0v251j2b8b1uid191i1j0sk4kjktl7ln97mi0p0b  ",
"1n1y3w9xa623an496464bu100z1adb1l1u1i0k176h0v1efq2kg50x0x1t0e2nXX7xhw1w3fimiyjejq8o3okul8lom43e0y0c  ",
"585c5g9y5u5w2y1q3419bv270r..2w0k3iebXX08eu0v4z120w3kgf0xh50l4v0n2e3f4r6e1oizjfjr8n92923nlp98mj8m0p  ",
"9a3s9o9za745ao102x090z6rcs..090ddz1e12eq7r1kfd120vg60x4o250s//112e1w2z8j2zj0jgjsk5kkkv3o3o4k98mx6b1n",
"9b9h9p1z192x1p..16243838ct0f1v2d0e0w2j2k1d0w0wfr0x6sgg08082n2o070nhxi52e5451jh6xk6klkwl9lqm5mkmyn53e",
"9c5d9q5m221a30||243725251j0f703g1f1k2k2k0w1k4x1t0l081mgsh6182o388i1s2b1s0l8q7vjtk78vkx952am6mlmz4e3q",
"593t5ha0..||..16XX//0e0l0sXX0d0d1g0l3k2j4x3d1f1f0e07520g0f2h0i2o3hhy3h1e1e8q84ju62kmky5u95m7mmn0n64i",
"3q9i9r20..0z2211XX//0lca//d30n11790l1e0v071g0o7q1g07XXgt0f0g0i080ehz0l0v0v1hji2yk8kn8w8x3z5jmnn1n726",
"1x9j5i5n2w0m0k0dXX070e6s0817220k3g0s7h//XXXX3l3g//070s071m1m52XX14i00fXX14j1jj49452i93191o967wn28p57",
"1x9k3x5o19ae090k||//6h0x12//0d0nXX38eh170f0f||XX071f0e0e0818//07110n0f1614j2jkjv3c7j0zlalr7nmo8z57n9",
"1x9l5ja1a82yap10..XXbw1dcu1t////0s0s0f..0r..0i0837g7121207//08//1h4w0o070e1h54207sko5390ls88mp3s410h",
"3r2s9sa21o2zaq310m1gbx4n3a0w4odk0l2g..4u7s0r0i7z1f1f122m2g//7z08//4y////0l500o0f..0z934t40m8mq35323v",
"5a3u2u3z5v3z5w4ab8686i4n1d0w1e3h073g0r0r1p..0g2n1f0e07240i0i8f0i0i1m082o//070s0sXX||201z96m9mr1c6599",
"2q5e9t4042afar4b4c680wcb1k1t1t1f0o161v4u0z7u3l//0s0e070o0g0g181m2h180i082g3m08120s112e817o3u1b32n899",
"9d3r9ua3a9ag48b0b9bi12cc080808184p0g||14113j0o07073d//07XXXX2dXX||XX0i0807//07//2m1s4blb6u5c150h0a2p",
"9e9m9v5paa46asb14c0e080i0i0i0g0g0g2h17141413XX//4s3d0707XXXX||16||7018082o//////0711kz4lltma21n30j0j",
"0c0p5k5q5lahat614d1h0fcd2816dc||4q0d..0n11133m070e0l2m082d||........6r0g0g0i17140n8r1l61lu970y      ",
"0t++0b212taiaub2ba4h0m090909....0d0m....1113fe////0e0l////17..7u0r....2h0g0g7l5455091alclvmbms0c++  ",
"06  ++0c211bavb3bbbjby6t19202wdl0m0k..160k0nff||08374w1g3724||4qhp0d||XXXX||554a1qkp0f72lwmc26n40c  ",
"06  ++2v432r5zb4bc694kce343cdd0k0m283l7i0k0m301a0o//3i13070o||160d0d2d2dXX1120453c098eld6wmdmt3b0q  ",
"  0u      0q1yb54e6a4lcf5o1i0m0k1p..7i||0d0n4q||XX877m0dXX181a280f1a0gieXX||0k09558k7klelxmemu3y1r  ",
"0a3v  0u0u0b0p1cbd4i6jcg361ude090r0r0z0f0n3j||||||0d0m..0f||0z0r1v4p0g||XX0d..091u4b8jlflymfmv0p0b  ",
"    0u  ab++0b21bebkbz6u291u2x2c102i..300k221a||||g8gh271p4u272i2x1v3l17inj3092i90368g8356mg0q0b++  ",
"        0606  0h653y1b4icv5ndf102f2f090m0n3j0f1a0n0989gu8c2731310953||17794h108w1z3x8llg1c0q0h      ",
"5b++    0606  0b156b26chcwd4192ee02f090n131413130d0m27898d108d100z0g180i||8r1q8xk97b3u940p0h  06    ",
"5b++      0j  1r66blc06vcxd5dg4ae1ec097m7d7v1h1h130d0r0r2i092c30||180i52||1u6gjwka91940y0c          ",
"    ++        1n5qbm6kcicyd6dhdm09ed7jerev781s500e0eXX160m221v||XX071m0o51j48ujx912l0ylh++  ++++    ",
"    ++      0a0q1c6cc1cjcz6971dne26z4t1wewf4fg80824sgi3i0k0m0d2b873i1l8kioj56a8y2l5xl0li  0t0a0a    ",
"0j0j0a    0j0a0h0c5k6lckd0d75hdo295vei47exf5fhfsfy3ngj8b8e1l4d3nhq6yi6if4lj68t4g0y0c++0t060u0a0a    ",
"0j0j    0j0j      0cc239262s6jdpe3eeej7neyf6fi81fzg9gkgv6371hhhkhri1i78lipj7jl0y0c    0t06    0a    ",
"2p0j              4j0q1n153b3edqe4efek7oez7wfjftg03x42gwh7hc488ghsi2448m8p8s7a0c++  3v0a0u    0u    ",
"2p0j  06        ++  6m0j0t3p0p76e55zel2sf0f7fkfug1ga3wgx5d3t46hl5f391c151n1r++06    0a0a    2v++    ",
"                          ++0b0qe60y3b761y2l3r5eg26c391b1b1b2l1b2r0p0q0b0b0h                        ",
"                                  0h0c1n15f82qfv5agbglgy0y412thm0b                                  "
};