/* XPM */
static char *picture[] = {
"50 50 812 2 ",
"   c None",
"XX c #2759BA",
"++ c #2E65C2",
".. c #255ABA",
"|| c #1D4EAD",
"// c #040207",
"06 c #255AB8",
"07 c #376FCE",
"08 c #2759B8",
"09 c #020307",
"0a c #02020A",
"0b c #1D4DAF",
"0c c #2F64C4",
"0d c #030305",
"0e c #3570CC",
"0f c #030208",
"0g c #2F64C2",
"0h c #2D65C2",
"0i c #376FCC",
"0j c #020106",
"0k c #2858BA",
"0l c #1F4DAB",
"0m c #2859B8",
"0n c #204CAB",
"0o c #1F4DAD",
"0p c #00020E",
"0q c #040308",
"0r c #1C4EAD",
"0s c #3570CE",
"0t c #245ABA",
"0u c #204DAA",
"0v c #000211",
"0w c #2D65C4",
"0x c #2E64C4",
"0y c #020308",
"0z c #163B94",
"10 c #245BB8",
"11 c #103D9A",
"12 c #000218",
"13 c #00020F",
"14 c #214CA8",
"15 c #02020C",
"16 c #214CAA",
"17 c #2A58B6",
"18 c #2A58B8",
"19 c #143B96",
"1a c #2459B9",
"1b c #2B66C2",
"1c c #386ECE",
"1d c #2D64C1",
"1e c #3163C2",
"1f c #113C98",
"1g c #1D4EAB",
"1h c #2658B9",
"1i c #386FCC",
"1j c #133C98",
"1k c #285ABB",
"1l c #265BBB",
"1m c #040205",
"1n c #00030C",
"1o c #000215",
"1p c #396ECC",
"1q c #285AB9",
"1r c #00021A",
"1s c #4782DE",
"1t c #133C96",
"1u c #1F4EAA",
"1v c #2859B6",
"1w c #1B48A5",
"1x c #1C4EAF",
"1y c #020305",
"1z c #010A29",
"20 c #4683DE",
"21 c #2459B7",
"22 c #2758B7",
"23 c #2859B5",
"24 c #396ECA",
"25 c #4981DE",
"26 c #103D98",
"27 c #00021E",
"28 c #000A32",
"29 c #081849",
"2a c #030A26",
"2b c #040309",
"2c c #020107",
"2d c #010206",
"2e c #1E479F",
"2f c #234CA8",
"2g c #103C9B",
"2h c #3263C0",
"2i c #346FCB",
"2j c #093189",
"2k c #204DA8",
"2l c #3065C3",
"2m c #3471CC",
"2n c #00030F",
"2o c #000B2B",
"2p c #0F307D",
"2q c #010109",
"2r c #234CA6",
"2s c #09308B",
"2t c #3163C4",
"2u c #2E57AF",
"2v c #1A4FAD",
"2w c #000316",
"2x c #3870CD",
"2y c #000B2E",
"2z c #143C94",
"30 c #000313",
"31 c #000B34",
"32 c #4E8BE6",
"33 c #244CA3",
"34 c #113C9A",
"35 c #2C64C1",
"36 c #214EAB",
"37 c #1E47A1",
"38 c #204EA6",
"39 c #3164C0",
"3a c #2658B7",
"3b c #4E8BE8",
"3c c #00021F",
"3d c #26468F",
"3e c #3870CF",
"3f c #183B8C",
"3g c #4A81DB",
"3h c #000213",
"3i c #000A2D",
"3j c #000A37",
"3k c #000A39",
"3l c #000A34",
"3m c #224797",
"3n c #010207",
"3o c #2B57B6",
"3p c #254693",
"3q c #000B39",
"3r c #000B2D",
"3s c #000B29",
"3t c #2959BB",
"3u c #010312",
"3v c #000216",
"3w c #143B98",
"3x c #214DA6",
"3y c #14295E",
"3z c #163C91",
"40 c #4F8AE8",
"41 c #346FCD",
"42 c #03020A",
"43 c #4C8BE8",
"44 c #3065C5",
"45 c #081945",
"46 c #1B4DAC",
"47 c #265BB9",
"48 c #041A4C",
"49 c #0B3089",
"4a c #1F4CA9",
"4b c #113D96",
"4c c #0E2A6B",
"4d c #275AB6",
"4e c #235BBA",
"4f c #2F65BF",
"4g c #2359B9",
"4h c #2E65C0",
"4i c #093188",
"4j c #0F3081",
"4k c #010A2B",
"4l c #1C47A3",
"4m c #1F4EA8",
"4n c #02020E",
"4o c #08184C",
"4p c #1E4FAE",
"4q c #396FC9",
"4r c #2F66C3",
"4s c #1F4DAF",
"4t c #0A1847",
"4u c #2758B5",
"4v c #255BBB",
"4w c #386FCA",
"4x c #234697",
"4y c #2E66C3",
"4z c #235AB7",
"50 c #3B6DCC",
"51 c #224DA9",
"52 c #030929",
"53 c #1E4CAC",
"54 c #2858BC",
"55 c #2759BC",
"56 c #000A3A",
"57 c #1B4DAE",
"58 c #1C48A1",
"59 c #01040D",
"5a c #000118",
"5b c #03010C",
"5c c #050308",
"5d c #000315",
"5e c #00011B",
"5f c #081947",
"5g c #071748",
"5h c #07184C",
"5i c #041853",
"5j c #030409",
"5k c #000117",
"5l c #1A3B8A",
"5m c #1D3A80",
"5n c #1E3B7F",
"5o c #0C1840",
"5p c #152860",
"5q c #132B71",
"5r c #102F7F",
"5s c #163B93",
"5t c #1E47A3",
"5u c #1A3A85",
"5v c #000317",
"5w c #1A3A8F",
"5x c #0D2F86",
"5y c #204EAE",
"5z c #00216E",
"60 c #243A6C",
"61 c #224795",
"62 c #000312",
"63 c #102D71",
"64 c #1A4FAF",
"65 c #3062C1",
"66 c #1B48A3",
"67 c #000B30",
"68 c #2C4585",
"69 c #0B2059",
"6a c #00031E",
"6b c #172957",
"6c c #133074",
"6d c #0F3B9A",
"6e c #2F57AE",
"6f c #05194E",
"6g c #091843",
"6h c #040406",
"6i c #3671CD",
"6j c #031A50",
"6k c #112E74",
"6l c #2A59B3",
"6m c #000B3B",
"6n c #00021B",
"6o c #143D97",
"6p c #4F8AE6",
"6q c #1C4DAC",
"6r c #2B59B1",
"6s c #3564BC",
"6t c #2C58B1",
"6u c #040A20",
"6v c #1D3A7C",
"6w c #0D3081",
"6x c #0C3084",
"6y c #204EAC",
"6z c #4782E0",
"70 c #2B66C4",
"71 c #234795",
"72 c #00030A",
"73 c #133C94",
"74 c #103B99",
"75 c #2F64C0",
"76 c #163C8D",
"77 c #08318B",
"78 c #4A81DE",
"79 c #0D3084",
"7a c #08205C",
"7b c #173C8C",
"7c c #3263BF",
"7d c #204BA9",
"7e c #1B49A1",
"7f c #08318D",
"7g c #0A3287",
"7h c #06318F",
"7i c #1A49A3",
"7j c #1C4FAB",
"7k c #3C6ECD",
"7l c #3B6ECA",
"7m c #0F2D76",
"7n c #00011E",
"7o c #1B3B86",
"7p c #1E4CAA",
"7q c #3263C2",
"7r c #0F3D9B",
"7s c #2757B9",
"7t c #10307D",
"7u c #112C71",
"7v c #16275B",
"7w c #000B32",
"7x c #102C76",
"7y c #000B3D",
"7z c #1D4EAA",
"80 c #2B59B7",
"81 c #3463BD",
"82 c #000A43",
"83 c #123D99",
"84 c #2A57B2",
"85 c #2F65C5",
"86 c #4681DD",
"87 c #1F4BAA",
"88 c #103B97",
"89 c #3471CE",
"8a c #081F62",
"8b c #00195C",
"8c c #2B58B5",
"8d c #3264C3",
"8e c #3471CA",
"8f c #366ECB",
"8g c #2E66C5",
"8h c #072063",
"8i c #254DA2",
"8j c #4784DF",
"8k c #2C64C3",
"8l c #1F3A7F",
"8m c #4883DF",
"8n c #3463BF",
"8o c #4D8AE7",
"8p c #4683E0",
"8q c #1F4898",
"8r c #3370CD",
"8s c #2A59B1",
"8t c #132D6A",
"8u c #00010E",
"8v c #000A3E",
"8w c #0F3D9D",
"8x c #010310",
"8y c #254791",
"8z c #4884DC",
"90 c #0A1741",
"91 c #1E489C",
"92 c #0B3088",
"93 c #1948A4",
"94 c #295AB6",
"95 c #1F48A2",
"96 c #071947",
"97 c #0C3086",
"98 c #255AB6",
"99 c #1E489E",
"9a c #002075",
"9b c #132963",
"9c c #002277",
"9d c #00010D",
"9e c #000319",
"9f c #040A22",
"9g c #162C68",
"9h c #000226",
"9i c #000A3D",
"9j c #00093E",
"9k c #00093D",
"9l c #03092B",
"9m c #000A33",
"9n c #142962",
"9o c #162C66",
"9p c #0D205A",
"9q c #14285D",
"9r c #000931",
"9s c #000A2E",
"9t c #0B1F5A",
"9u c #132C6E",
"9v c #132E71",
"9w c #1E3B81",
"9x c #1D3B84",
"9y c #1A3A87",
"9z c #1C3C85",
"a0 c #203A77",
"a1 c #15295E",
"a2 c #000015",
"a3 c #000212",
"a4 c #00021C",
"a5 c #183B8F",
"a6 c #173B91",
"a7 c #1E45A0",
"a8 c #163C8F",
"a9 c #244798",
"aa c #2A4588",
"ab c #04184B",
"ac c #132867",
"ad c #132F79",
"ae c #1F479F",
"af c #1D46A0",
"ag c #3058AF",
"ah c #112A6A",
"ai c #00031A",
"aj c #000410",
"ak c #000928",
"al c #082060",
"am c #122F7B",
"an c #2957B7",
"ao c #2A57B4",
"ap c #143C91",
"aq c #0D296A",
"ar c #213A72",
"as c #081A42",
"at c #000311",
"au c #050A1D",
"av c #0B1940",
"aw c #152A63",
"ax c #031F69",
"ay c #0C3088",
"az c #1849A6",
"b0 c #2E57A9",
"b1 c #2A4687",
"b2 c #040926",
"b3 c #1C284E",
"b4 c #1A2855",
"b5 c #000A30",
"b6 c #000314",
"b7 c #0E2F80",
"b8 c #274C9C",
"b9 c #122864",
"ba c #050209",
"bb c #030007",
"bc c #040108",
"bd c #030106",
"be c #0B3081",
"bf c #204CAD",
"bg c #000326",
"bh c #02194B",
"bi c #1C3B7C",
"bj c #3256A4",
"bk c #1D3B81",
"bl c #0B1A43",
"bm c #112965",
"bn c #143C93",
"bo c #235BB8",
"bp c #113C9B",
"bq c #234898",
"br c #02194F",
"bs c #1B3C7F",
"bt c #3B62AF",
"bu c #234DA3",
"bv c #122861",
"bw c #031851",
"bx c #0D3082",
"by c #0A2F88",
"bz c #153C97",
"c0 c #133B9A",
"c1 c #214CAB",
"c2 c #244DA7",
"c3 c #2F57AC",
"c4 c #163C87",
"c5 c #214893",
"c6 c #2C59AE",
"c7 c #203B80",
"c8 c #000306",
"c9 c #030408",
"ca c #031955",
"cb c #0F2E7E",
"cc c #153A93",
"cd c #264691",
"ce c #021852",
"cf c #000C31",
"cg c #173B93",
"ch c #3362BA",
"ci c #05194B",
"cj c #0B1A3B",
"ck c #000412",
"cl c #000B28",
"cm c #1B3C83",
"cn c #2F58A8",
"co c #214EA3",
"cp c #194EAC",
"cq c #174AA6",
"cr c #224DAB",
"cs c #3264BD",
"ct c #0F2D75",
"cu c #102A67",
"cv c #172A55",
"cw c #030B22",
"cx c #000321",
"cy c #234791",
"cz c #2A58AE",
"d0 c #3C6FC8",
"d1 c #113E9B",
"d2 c #0C318C",
"d3 c #3065C1",
"d4 c #2E67C1",
"d5 c #244DA9",
"d6 c #1A49A5",
"d7 c #3164BF",
"d8 c #042069",
"d9 c #162963",
"da c #294688",
"db c #3663B6",
"dc c #295AB7",
"dd c #4D8AE5",
"de c #4681DB",
"df c #1B47A6",
"dg c #143D99",
"dh c #123B95",
"di c #073088",
"dj c #122F7D",
"dk c #0A1F60",
"dl c #0C1842",
"dm c #00011A",
"dn c #00031C",
"do c #255CB9",
"dp c #4F8CE9",
"dq c #4582DF",
"dr c #1D4FAE",
"ds c #2957B9",
"dt c #3066C0",
"du c #082C80",
"dv c #03092D",
"dw c #3A6FCB",
"dx c #06328B",
"dy c #255BB5",
"dz c #102C75",
"e0 c #0C1F5A",
"e1 c #000114",
"e2 c #123078",
"e3 c #3265C1",
"e4 c #3C6DCC",
"e5 c #092D81",
"e6 c #152D6D",
"e7 c #000B36",
"e8 c #2C57B3",
"e9 c #2C58B7",
"ea c #0E3C9A",
"eb c #053190",
"ec c #204FAB",
"ed c #3C6DC9",
"ee c #153D92",
"ef c #1E4DA9",
"eg c #295AB9",
"eh c #396FCF",
"ei c #4D80DC",
"ej c #234CA4",
"ek c #0A2D7F",
"el c #223A76",
"em c #376FD0",
"en c #4980DB",
"eo c #3570CA",
"ep c #2A58BA",
"eq c #093186",
"er c #132965",
"es c #010B2F",
"et c #000119",
"eu c #1F3A7D",
"ev c #274DA2",
"ew c #0C3D9A",
"ex c #1F4DA5",
"ey c #162B6C",
"ez c #0C1943",
"f0 c #011957",
"f1 c #0F2C72",
"f2 c #2F57AF",
"f3 c #3A6FCD",
"f4 c #4E89E5",
"f5 c #376ECB",
"f6 c #2C67C5",
"f7 c #1A48A6",
"f8 c #1C4DAA",
"f9 c #396ECE",
"fa c #0B2E80",
"fb c #000A36",
"fc c #1B3B84",
"fd c #09328E",
"fe c #0B2F83",
"ff c #000B35",
"fg c #00011F",
"fh c #3A6CCB",
"fi c #4582DD",
"fj c #123B97",
"fk c #041F64",
"fl c #011959",
"fm c #3671CF",
"fn c #1D4DB1",
"fo c #1B4DB0",
"fp c #285ABD",
"fq c #1849A8",
"fr c #1F479E",
"fs c #1C3A82",
"ft c #132B69",
"fu c #1A3A8D",
"fv c #1E4EB0",
"fw c #366ECD",
"fx c #2D63C3",
"fy c #1D4FB0",
"fz c #1C4CB0",
"g0 c #2959BD",
"g1 c #1C4CAE",
"g2 c #244CA1",
"g3 c #28468C",
"g4 c #182A5C",
"g5 c #162A5F",
"g6 c #102866",
"g7 c #123079",
"g8 c #0B3186",
"g9 c #1B50B0",
"ga c #204FA9",
"gb c #1D3B7B",
"gc c #0A1942",
"gd c #000C2C",
"ge c #1A284D",
"gf c #021A5A",
"gg c #4483E0",
"gh c #214895",
"gi c #0B3080",
"gj c #3462C0",
"gk c #2D65C6",
"gl c #2E66C7",
"gm c #245ABC",
"gn c #3970CD",
"go c #00092C",
"gp c #173C8A",
"gq c #3C6DCA",
"gr c #000113",
"gs c #01010D",
"gt c #040A24",
"gu c #1F4995",
"gv c #3264C5",
"gw c #2C5AB2",
"gx c #1A3C84",
"gy c #041A4B",
"gz c #2E5AA5",
"h0 c #2658BB",
"h1 c #224CA0",
"h2 c #081944",
"h3 c #223C6D",
"h4 c #5081CD",
"h5 c #4683DC",
"h6 c #2C58AF",
"h7 c #010B26",
"h8 c #203B6A",
"h9 c #5181CB",
"ha c #4782DC",
"hb c #0F3C99",
"hc c #224798",
"hd c #1E3A7B",
"he c #162C55",
"hf c #3863A8",
"hg c #396FC5",
"hh c #4783DB",
"hi c #4484DC",
"hj c #4C8CE6",
"hk c #4C81DD",
"hl c #1C4EB1",
"hm c #123D9B",
"hn c #1F4BAC",
"ho c #21459B",
"hp c #1D3A88",
"hq c #0A1E59",
"hr c #000C2D",
"hs c #1C3C77",
"ht c #1C4A97",
"hu c #2E65B8",
"hv c #508BE5",
"hw c #3565BA",
"hx c #2C59AA",
"hy c #1E4998",
"hz c #234DA1",
"i0 c #2B56B2",
"i1 c #2D66C0",
"i2 c #1C4FAA",
"i3 c #113E99",
"i4 c #204BAA",
"i5 c #2C5ABA",
"i6 c #0F2C78",
"i7 c #091E61",
"i8 c #000A3B",
"i9 c #020109",
"ia c #091A45",
"ib c #102E6C",
"ic c #3764B5",
"id c #3B6EC7",
"ie c #3364C0",
"if c #032167",
"ig c #000B47",
"ih c #000C46",
"ii c #001959",
"ij c #0D2C7C",
"ik c #3770CA",
"il c #4982DC",
"im c #00217A",
"in c #2A59B5",
"io c #1B46A4",
"ip c #2C59B4",
"iq c #1E469D",
"ir c #172C6B",
"is c #00011D",
"it c #26478A",
"iu c #133B90",
"iv c #00175A",
"iw c #000B45",
"ix c #000941",
"iy c #031857",
"iz c #0D2D7A",
"j0 c #3164BD",
"j1 c #0C2F89",
"j2 c #0E3089",
"j3 c #173992",
"j4 c #072060",
"j5 c #01010B",
"j6 c #010A27",
"j7 c #0D2D76",
"j8 c #0F307F",
"j9 c #031E6B",
"ja c #05216B",
"jb c #0D2D78",
"jc c #0C317F",
"jd c #3D6ECA",
"je c #3C6EC7",
"jf c #113D94",
"jg c #002175",
"jh c #0D2F88",
"ji c #163993",
"jj c #3265BE",
"jk c #1849A5",
"jl c #254695",
"jm c #20397B",
"jn c #071949",
"jo c #00031F",
"jp c #000933",
"jq c #1D3A86",
"jr c #3662BB",
"js c #2D5AAF",
"jt c #4B81DB",
"ju c #386FC9",
"jv c #002073",
"jw c #102F82",
"jx c #183C94",
"jy c #113E91",
"jz c #1C499C",
"k0 c #3564B6",
"k1 c #3464B8",
"k2 c #295BB2",
"k3 c #3062BB",
"k4 c #143D8D",
"k5 c #00092D",
"k6 c #001B64",
"k7 c #224692",
"k8 c #4D81D7",
"k9 c #002179",
"ka c #214DAC",
"kb c #01216E",
"kc c #0D2A70",
"kd c #1C3B7E",
"ke c #23488F",
"kf c #527FD0",
"kg c #3E6EC2",
"kh c #3F6DC2",
"ki c #173C83",
"kj c #01092D",
"kk c #00020B",
"kl c #2D59B0",
"km c #234793",
"kn c #001A60",
"ko c #000C4F",
"kp c #3F6FC3",
"kq c #4B81D9",
"kr c #2A58B0",
"ks c #244DA5",
"kt c #2C57B5",
"ku c #071E61",
"kv c #08194F",
"kw c #031A4E",
"kx c #1A3C7B",
"ky c #3D64A9",
"kz c #466BB1",
"l0 c #04215B",
"l1 c #000C2F",
"l2 c #000B38",
"l3 c #3B62B1",
"l4 c #214DA4",
"l5 c #000D4F",
"l6 c #00195B",
"l7 c #264890",
"l8 c #3365BE",
"l9 c #3564BE",
"la c #2E57B1",
"lb c #163A8E",
"lc c #1A3B8C",
"ld c #102B72",
"le c #000930",
"lf c #000320",
"lg c #253A67",
"lh c #030A27",
"li c #1F3C78",
"lj c #25478F",
"lk c #011A5A",
"ll c #27458B",
"lm c #285AB3",
"ln c #3562BD",
"lo c #173B8F",
"lp c #0B2C7B",
"lq c #03216A",
"lr c #112C73",
"ls c #172B66",
"lt c #00082F",
"lu c #070B17",
"lv c #030A24",
"lw c #233973",
"lx c #233975",
"ly c #0A1F5E",
"lz c #0A1E5B",
"m0 c #142B6E",
"m1 c #204699",
"m2 c #2B58B3",
"m3 c #3564C0",
"m4 c #2B57B0",
"m5 c #062168",
"m6 c #01030F",
"m7 c #0A1944",
"m8 c #08184B",
"m9 c #1D3A7E",
"ma c #3962B4",
"mb c #172C63",
"mc c #0B1844",
"md c #24396E",
"me c #213975",
"mf c #203A75",
"mg c #152A61",
"mh c #040B27",
"mi c #000115",
"mj c #000110",
"    ////    1y1y  0909c8    090y720pe17n7w7y82f08b8bfl8256gd8u1m0f0f0j0j    //    09  0j////        ",
"    ////    091y    2dc90y0a2n5ddn3s2ye76feleuf1fc3d8lftg5ge1o15gs138x0p1n0a2b//  09    ////        ",
"    ////0f09    ba//    0ackcx457a6ce27o2p4xevf22u8i3f7xg65g526ngt277nh7120vi9//0q      0j0j        ",
"    //  0f09    bb5c//0a30cl48da7b2j1je82f1f34878c1f0zfug7gf8v3q56gyh3h8hehr2w0p2q0f  0q            ",
"    0d0d    ////bc//  2n2y6jcydb381111e9171u8377fd1t190zg86xgigpgugzh4h9hfhsiais0v0a2b//      0j    ",
"    0d0d    1m//bd420p6n48cmcz24391v6y7p0m2h848888511674368ngjgq4q3gh58zhghtib96j60v0a        0q    ",
"////              0p2a456vcnd00i++06220o0o0m50f38dfh0m7q7l1e0808060i4020hhhuicit96jo9d  2b    0d    ",
"//          0f0a0p1r31ca2pco4f0i070t0r||220r850t0t....0c0606XXXX0c0w0s3bhi8zid8q8tjp9e0p42    0d    ",
"    2c0f  0f15b66ablbw6k6w73231p1c070g217j080t4v080rXXXX060657XX0c0t0i8jhjhvieiuj79b5o1r4n  0q09    ",
"  0j5j2q150v3v3s6bbm6kcb6x2jd1dc1p1i4r4r060g0x100r||0kfv2v21XXXXXX..0hha203g913fj88l5p281r132q0q    ",
"0j0q2d1n5vakav3y6c5lbx5xcg2j772k7cdw1d++4v0x07100r1g53||2v++....XX..47++25hwifivj9jq7u9bl2lh8x      ",
"0q  0aa32o5faw63bebnby0z490z0z6o2623e3064gem070w060r||0r++1d0t0x..XX1x0g78hxigiwja4x4x3d683q12420f  ",
"  0y13a429alaxb73z2zbzcc0z0z0z492sdx0u4u44076z0s0w4g0xfw0707gk4v..1x1xXXhkhyihixjb8i2u6el3li3r0v0a  ",
"  1n5k5oacam5w5s192f1j6o192zd219197f7hea060740890s0sfm0s0s0s07070cXX1xXX50hziiiyjcjr0u1wl4lj451r0p  ",
"1y2n9s5pad5xay19160n2g0u14371f4l7d362g||2v2x862m20202i6i0e2i0e0i3e0t..XX1ki0ijiz998117932k713y2o2n  ",
"095d295q5w2s3w16bf0o0n0u0u111u231g||187q397525f48e8e8m0e1s2m0e1s0e07850chl3o92973x4m6rkl333plw673h  ",
"595e9t5r0z1f160n0o0lc01j4a1vd3++do0ge417ef7z4df50efi0e1s8ogg8p321s251i1p..222f2s3x2e76km3d5nlxm71o  ",
"3h2o9ua52f0n0l||0m0o16346y0r102541070m7r11111g068f8j0e2m8p8r8r8o8f4h0r0r1e7k1711147g5zknl5lkly4t3v0y",
"279m9va6165y0m0b0k0b180o08cp100edp0s0reb7h11ew0g072i2m208970gl070c460l2g0l6q1e2h269ck6kol64clz3k1259",
"3i5f9w5s3o0k0kXX1hXXXXXXXX0c0h1s433b1p4u1780081i070e8m6p073egm..1l||0n34hm870m39jdjsk73dl7llm0m82a0v",
"9h5g9xa717XX2t....0cXX1k0b1h1bdddq0s071i4wen0i250e0e2i070x1aXXXX1a471vhb1j7f1w1v24jtk8kp917b7o9g3imi",
"285h9y5t18XXXX64..0c1aXX0b0r1b320s0w0w070ieo0e1b2m1b4efxg9XX0b570g1d0g4d2626932324ju3gkq8s99m1m96g3c",
"3j9n5l14183t0k0b..0c4446||cqd4de++1l1h1l++0h0sf61b1b0w8g4z06XX1x1a3e411s0ii1ik3gje384bkrl8lm2e8ymd31",
"9i9o2p2e0nan0o||..0t0g060r4d78++063a0b7s..++4e0s1b0i0w07++0gXX2t..1c0s3b3b32ilj0jf9ck92jl97cm23mme56",
"9j5i9za82r162g||06bo100h++1i1c0608||4s0bXX..0h358g8k0h0i100gXX0k081e0x070e25941tjgjv9a972elnm3mamf6m",
"9k9p5m3mae1f0n1g1i6i1s0e0s071c..dr||4s0bXX..1i4y0x3e0i0e0h10XX||||||571l1di21jj19ajw79922z95m461mg31",
"3k9q5na9af172h1p4043326p6z071c0c3a0m0b0bXX1l++0i++0h070s0e0i06||8w0o1x6539i3imj2jhjx2zks374i3f4c903c",
"3l29a05uagaoaz2v4143200e704e4g0c08||1kXX1a1d++++++++8k0w0e86gn080o18XX082h2649j3ji194l84lalo7mmb4k3v",
"9l9ra1aa3pap111q2x2i2x350w0x0x1aXXXX0g06++10++0t++10....0h0i0i0xXXXXXX0c1p1v950z0z2ska8c33lpm57vmhmj",
"5a2a28abah5z3x650g0g2147....1x1kXXXX++++4w++1d0t++1dXXfy4z++0t0t1l..0c1c1c1pin582j373oktlblq8a29121n",
"5b13a21z3qaq2u0k170l0o6q||1q||0m0kXX++0h0h354y1d1d060k0b..0cXXXX....++0h1b0i++945837162rlclr9gmc1o3n",
"//2b5b1o3rarb0182gbpc10n0l0l0l0lds0b0c++0h2x0h4r++060k0bXXXXXXXXgv..0x0i1b0e07246l734i4jldls4t4k130q",
"  0j0f0v3s6061666d0n5t2r142k0udf0n182t..100i1i++0cXX540b0b08XX1k551a0c0x0h0h0i4wjjjykbku4olt12130a  ",
"0j    1naiasb1b86e2r1t1t4b1f140u6d0o0k0c++4y3510..XXfn540b0mXXXX55h0XX..++++++984qjzkckvle12150d    ",
"1m0d0d3naj2a3jb95mbqc23611141f140n5y0k44++0h0w070t64fofz1kXX1hXX1a1k1hXX088d0m||24k0kd7y27133n0d    ",
"1m1m0d  0a0vb2286f63c31u0ucr1tdg0n||0b1h2l4z0w0w1c..fpg01hXXXXXX1l0cXX||||7p0n0l98k1kekwlflu0y0d    ",
"  0j0q  0f0a0p5vbg6jc46r0u74191t0n4p3tXX08060h0h++0c5554XX08080821061e||8w1w4l2kjkk2kfkx319e1n09    ",
"        2c0a0p2w2ybrc56s4a16191t340l0m0meg082l++06080kg14p0r1q1q2l0g080mhni41f587zk3kgky6blvm62d    ",
"09    0f15at5e67bhbsc62h4a1jd5dh4b140u0l0o0bXX084u1g0l||||0m1h2t0c..XX0k4si5io667i6skhkzlg279d0q    ",
"09    0f15aub360bibt6l220l1wd64m7e7e7iec0oep0k0o0u1w110u0l||1kXX..XX0k0b0k530u6t2uk4kil07w6u0p      ",
"        0q1ob468bjbu1u||0r754h4hdtdy7j1g4p0m0o0n141j3w1j360l0mXX..083t0b||1gip33jl8h8vl19f0v0a2c    ",
"  0q2d090d3ub569bk3m336tchcsd74f4f4q7k1q461q22f783fj3w2f1w0l081l06080b18802kiq2pjm4okj5k130a0y2c    ",
"//  1y1y  0a626a6gbvc7cd71764idi2e387l1ceh211qf81u1w7d0n18082l210g1e7s53513z5uj4jnk59f0v155j0909    ",
"5c0j  09    0j0p123r6mce4cct4j79du7g26edei240g1e1v1g7r0o3a1a2l++061e1751hoi6ir292o1262152b  2d09    ",
"        0j  0f0a0p3027cfcicud8dj5r6we5eeej8150f90g3afq221e0g060g..1vh6hchpi73k1z1o1nkk0y0f  6h0d    ",
"09090q      2c  0q2q136ucjcvd9dk5qdz7m7tekeqex1u23231u8nga8s4m38gwh18yhdhqi8522w150909090q0j        ",
"    0d0d        0j  0a0p30cw4kdl4oe0e67u7x7t4jfafe3zfrg28qgh3f3pgx6v3y901z123uj50f    0d1m//        ",
"    0d0d        6h    0y720p3hdmdv3l4t7v69erey8a8hfkfsg3gb8t7a5i48h23i1r8u0a0f  0j  0d0d1m//  0f    ",
"                        0y0y0a4n3u1o1r2a1zesezfbff3j5hg4gc2ygo1z1r300v0p0a0f                        ",
"                                  0y4n0v2wet3c1zfg523l283c125agr0a                                  "
};