/* XPM */
static char *picture[] = {
"50 50 829 2 ",
"   c None",
"XX c #285DBB",
"++ c #3066C6",
".. c #1F51B0",
"|| c #2F67C6",
"// c #020107",
"06 c #2051B0",
"07 c #3067C4",
"08 c #275EBB",
"09 c #2A5CBB",
"0a c #020204",
"0b c #010109",
"0c c #2A5DB9",
"0d c #2F67C4",
"0e c #010206",
"0f c #285DB9",
"0g c #1D52B0",
"0h c #3166C4",
"0i c #2250AE",
"0j c #1944A0",
"0k c #4078D5",
"0l c #275DBD",
"0m c #030106",
"0n c #000110",
"0o c #2051AE",
"0p c #010207",
"0q c #01010B",
"0r c #1845A0",
"0s c #3E79D5",
"0t c #000114",
"0u c #1745A3",
"0v c #010005",
"0w c #3E79D7",
"0x c #030207",
"0y c #00010E",
"0z c #1F52AE",
"10 c #4984E0",
"11 c #3D7AD5",
"12 c #00010D",
"13 c #2251AD",
"14 c #1746A2",
"15 c #2B5CBB",
"16 c #1844A3",
"17 c #4078D7",
"18 c #3166C2",
"19 c #3066C8",
"1a c #295EBC",
"1b c #1D52AE",
"1c c #275CBA",
"1d c #3167C7",
"1e c #4178D3",
"1f c #2F67C8",
"1g c #000112",
"1h c #2051AD",
"1i c #2250B0",
"1j c #1E50AF",
"1k c #3166C6",
"1l c #1C51AF",
"1m c #1D52B2",
"1n c #285DBD",
"1o c #3366C2",
"1p c #1845A2",
"1q c #2D68C4",
"1r c #2D68C6",
"1s c #4885E0",
"1t c #020109",
"1u c #2350AD",
"1v c #000117",
"1w c #285FBC",
"1x c #1745A5",
"1y c #0A338D",
"1z c #2E66C7",
"20 c #2B5DBC",
"21 c #00092D",
"22 c #2E66C5",
"23 c #1546A5",
"24 c #2F66C3",
"25 c #010008",
"26 c #2D5CB8",
"27 c #1B44A0",
"28 c #4178D5",
"29 c #0E3286",
"2a c #2350AB",
"2b c #265EBB",
"2c c #1546A3",
"2d c #1F51B2",
"2e c #3068C7",
"2f c #265DBA",
"2g c #3067C2",
"2h c #00092A",
"2i c #000835",
"2j c #132963",
"2k c #010006",
"2l c #12327D",
"2m c #12327B",
"2n c #00020E",
"2o c #000212",
"2p c #000A35",
"2q c #00011B",
"2r c #020926",
"2s c #00011D",
"2t c #0B338A",
"2u c #1B449C",
"2v c #4079D3",
"2w c #2D5CB4",
"2x c #3366C1",
"2y c #000A2D",
"2z c #2A5DB8",
"30 c #1546A2",
"31 c #3267C7",
"32 c #2152B1",
"33 c #0D3388",
"34 c #00092F",
"35 c #2050B2",
"36 c #295BBA",
"37 c #000A2A",
"38 c #010204",
"39 c #030305",
"3a c #00001D",
"3b c #000A3C",
"3c c #000019",
"3d c #030104",
"3e c #000928",
"3f c #071546",
"3g c #020005",
"3h c #14327B",
"3i c #12327F",
"3j c #010103",
"3k c #030208",
"3l c #00000C",
"3m c #000216",
"3n c #020828",
"3o c #000931",
"3p c #1C4499",
"3q c #264FA7",
"3r c #00082D",
"3s c #020923",
"3t c #1B4599",
"3u c #18469E",
"3v c #1645A1",
"3w c #000A31",
"3x c #071544",
"3y c #132965",
"3z c #1D418F",
"40 c #4576D2",
"41 c #000120",
"42 c #00082E",
"43 c #295EBA",
"44 c #163176",
"45 c #184199",
"46 c #2053AF",
"47 c #265CBC",
"48 c #071641",
"49 c #2152AF",
"4a c #1945A4",
"4b c #01000E",
"4c c #2E66C3",
"4d c #0B3388",
"4e c #0E3288",
"4f c #2052B1",
"4g c #1447A3",
"4h c #051548",
"4i c #3F7AD6",
"4j c #18419B",
"4k c #3465C1",
"4l c #295CB8",
"4m c #3068C5",
"4n c #3168C5",
"4o c #08338F",
"4p c #0A338B",
"4q c #07338C",
"4r c #2B5CB8",
"4s c #13214E",
"4t c #1F52AD",
"4u c #2B5DB6",
"4v c #2650A6",
"4w c #2B5CB9",
"4x c #265EBD",
"4y c #1F50AF",
"4z c #1B459B",
"50 c #112969",
"51 c #4278D2",
"52 c #1C4094",
"53 c #3865B8",
"54 c #000938",
"55 c #021B5E",
"56 c #000014",
"57 c #051749",
"58 c #00082C",
"59 c #01010D",
"5a c #00000A",
"5b c #000210",
"5c c #000116",
"5d c #000933",
"5e c #132962",
"5f c #000012",
"5g c #102252",
"5h c #1A439D",
"5i c #1B449E",
"5j c #2F5CB1",
"5k c #00083C",
"5l c #000935",
"5m c #0E2257",
"5n c #204188",
"5o c #3765BD",
"5p c #000827",
"5q c #00092C",
"5r c #153278",
"5s c #1C449B",
"5t c #143278",
"5u c #2F4C8E",
"5v c #000118",
"5w c #15317B",
"5x c #2C4C97",
"5y c #051642",
"5z c #0F3284",
"60 c #1C449C",
"61 c #2450AF",
"62 c #000B44",
"63 c #274FA6",
"64 c #000825",
"65 c #204089",
"66 c #1F4495",
"67 c #264FA9",
"68 c #325AAF",
"69 c #2451A6",
"6a c #0C2359",
"6b c #1847A3",
"6c c #2450A9",
"6d c #3566C2",
"6e c #3765BB",
"6f c #000930",
"6g c #1846A4",
"6h c #1744A1",
"6i c #2A5CBD",
"6j c #001658",
"6k c #010824",
"6l c #0D328A",
"6m c #1946A3",
"6n c #3665BF",
"6o c #000015",
"6p c #0B338B",
"6q c #000829",
"6r c #10296B",
"6s c #123181",
"6t c #113186",
"6u c #4883DF",
"6v c #275CBC",
"6w c #112A6C",
"6x c #000936",
"6y c #0D328B",
"6z c #3267C3",
"70 c #08153F",
"71 c #000119",
"72 c #102254",
"73 c #153276",
"74 c #1B4098",
"75 c #0F3389",
"76 c #3466BF",
"77 c #2352AE",
"78 c #3068C9",
"79 c #1F50AD",
"7a c #2E5BB8",
"7b c #17449F",
"7c c #3065C5",
"7d c #000016",
"7e c #3566C3",
"7f c #164299",
"7g c #112967",
"7h c #2F65C5",
"7i c #1A45A1",
"7j c #011456",
"7k c #2E5BB6",
"7l c #224088",
"7m c #2E69C5",
"7n c #2F68C2",
"7o c #3267C5",
"7p c #001558",
"7q c #4986DF",
"7r c #3C79D4",
"7s c #214FAD",
"7t c #1647A4",
"7u c #031448",
"7v c #254EA6",
"7w c #1C52B2",
"7x c #3D78D6",
"7y c #2C5EB7",
"7z c #00082F",
"80 c #275CB8",
"81 c #295EBE",
"82 c #00093A",
"83 c #4177D7",
"84 c #072A7B",
"85 c #3F7AD8",
"86 c #001C65",
"87 c #325BAD",
"88 c #2A4EA2",
"89 c #255DBC",
"8a c #4A85E1",
"8b c #3766B8",
"8c c #4077D2",
"8d c #1B4194",
"8e c #4984DE",
"8f c #0A2A77",
"8g c #000115",
"8h c #3865BA",
"8i c #1F418B",
"8j c #00093D",
"8k c #4478CC",
"8l c #0F3283",
"8m c #1F408F",
"8n c #4577CC",
"8o c #3666BB",
"8p c #001656",
"8q c #001B5E",
"8r c #0F3286",
"8s c #0F3387",
"8t c #000A2F",
"8u c #02020C",
"8v c #0C2A72",
"8w c #00011E",
"8x c #2E5CB4",
"8y c #1F3F8A",
"8z c #0D2259",
"90 c #030007",
"91 c #234084",
"92 c #142863",
"93 c #02082C",
"94 c #000831",
"95 c #000A38",
"96 c #000832",
"97 c #102155",
"98 c #0D2058",
"99 c #0B215A",
"9a c #17295B",
"9b c #16224C",
"9c c #020725",
"9d c #040207",
"9e c #050A20",
"9f c #00001C",
"9g c #000B2E",
"9h c #112A63",
"9i c #0D286D",
"9j c #21418E",
"9k c #1D418B",
"9l c #38569C",
"9m c #172860",
"9n c #000731",
"9o c #102250",
"9p c #112A62",
"9q c #143376",
"9r c #1C408E",
"9s c #184097",
"9t c #254DA2",
"9u c #365BAB",
"9v c #04195A",
"9w c #000214",
"9x c #102969",
"9y c #1D4290",
"9z c #2251AB",
"a0 c #1A4091",
"a1 c #021A60",
"a2 c #000944",
"a3 c #00093B",
"a4 c #071637",
"a5 c #1A2952",
"a6 c #073489",
"a7 c #001D6B",
"a8 c #304D89",
"a9 c #263E7A",
"aa c #0E2254",
"ab c #324C89",
"ac c #142962",
"ad c #0D1C47",
"ae c #112152",
"af c #0C2160",
"ag c #0E3183",
"ah c #3466C5",
"ai c #4277D3",
"aj c #285EB8",
"ak c #2052A9",
"al c #2D5BB1",
"am c #2F5CAF",
"an c #345AAB",
"ao c #3357A3",
"ap c #314C8F",
"aq c #041447",
"ar c #021C59",
"as c #244491",
"at c #253E80",
"au c #19316F",
"av c #2A5BBA",
"aw c #4B83E0",
"ax c #2B4E9F",
"ay c #000B3E",
"az c #2750AA",
"b0 c #3556A3",
"b1 c #000008",
"b2 c #1A45A3",
"b3 c #0E3280",
"b4 c #00175B",
"b5 c #12337A",
"b6 c #3465C2",
"b7 c #325BAB",
"b8 c #04091D",
"b9 c #020307",
"ba c #030826",
"bb c #0D3283",
"bc c #15429D",
"bd c #1743A2",
"be c #2F58AA",
"bf c #2650A2",
"bg c #0D2B6B",
"bh c #182140",
"bi c #162661",
"bj c #15307D",
"bk c #0D3187",
"bl c #2351B1",
"bm c #2F5CB7",
"bn c #2F5DB5",
"bo c #2C5BB5",
"bp c #0E3383",
"bq c #011C5F",
"br c #01144C",
"bs c #142048",
"bt c #010825",
"bu c #061445",
"bv c #14296C",
"bw c #133080",
"bx c #0F338B",
"by c #1446A5",
"bz c #14419C",
"c0 c #1746A0",
"c1 c #2352AC",
"c2 c #2551A8",
"c3 c #103180",
"c4 c #030825",
"c5 c #020006",
"c6 c #061A57",
"c7 c #16307A",
"c8 c #113283",
"c9 c #1D54AF",
"ca c #3365C4",
"cb c #07348F",
"cc c #17439C",
"cd c #174098",
"ce c #14439F",
"cf c #00154E",
"cg c #000A2E",
"ch c #040108",
"ci c #03020A",
"cj c #081B53",
"ck c #01195F",
"cl c #0A2979",
"cm c #1E50B1",
"cn c #194199",
"co c #194198",
"cp c #1C459F",
"cq c #2250A8",
"cr c #1C4191",
"cs c #0E296C",
"ct c #040926",
"cu c #00093C",
"cv c #0F3188",
"cw c #20449C",
"cx c #0C318A",
"cy c #1C43A0",
"cz c #285CBF",
"d0 c #3365C6",
"d1 c #2A5BB7",
"d2 c #0C348C",
"d3 c #0A328A",
"d4 c #4477D2",
"d5 c #18449B",
"d6 c #112A6A",
"d7 c #204490",
"d8 c #1E439B",
"d9 c #0B328D",
"da c #1C4098",
"db c #0D3189",
"dc c #0E328A",
"dd c #0A318C",
"de c #1D449F",
"df c #184298",
"dg c #11317C",
"dh c #1C4595",
"di c #0F2A71",
"dj c #061951",
"dk c #091638",
"dl c #0E2A69",
"dm c #345AAD",
"dn c #4C83E0",
"do c #113080",
"dp c #031B5B",
"dq c #00001A",
"dr c #07163D",
"ds c #224086",
"dt c #3065C3",
"du c #0F2A6F",
"dv c #051644",
"dw c #36579E",
"dx c #234FA6",
"dy c #4476D5",
"dz c #3167C9",
"e0 c #2D5BB9",
"e1 c #0D2972",
"e2 c #0A1B4F",
"e3 c #000837",
"e4 c #0D2A70",
"e5 c #001C70",
"e6 c #1C51AD",
"e7 c #01164D",
"e8 c #05164C",
"e9 c #001C62",
"ea c #0D3386",
"eb c #2351AF",
"ec c #000843",
"ed c #071B5A",
"ee c #13317A",
"ef c #072B7F",
"eg c #2052B3",
"eh c #1C439E",
"ei c #001C75",
"ej c #18419D",
"ek c #214FAF",
"el c #1944A2",
"em c #14327A",
"en c #183076",
"eo c #224392",
"ep c #3764BF",
"eq c #1847A1",
"er c #4B84DE",
"es c #2C67C3",
"et c #4179D8",
"eu c #0A338F",
"ev c #274FA7",
"ew c #20408B",
"ex c #152860",
"ey c #000A37",
"ez c #1F459A",
"f0 c #3069C3",
"f1 c #4279D6",
"f2 c #4279D4",
"f3 c #4279D3",
"f4 c #244EA4",
"f5 c #11317A",
"f6 c #4A82DF",
"f7 c #3E79D3",
"f8 c #254FA5",
"f9 c #13337C",
"fa c #00155B",
"fb c #14317D",
"fc c #0B3490",
"fd c #4277D5",
"fe c #265EBF",
"ff c #1846A6",
"fg c #001455",
"fh c #243E88",
"fi c #294FA4",
"fj c #2551AA",
"fk c #10327C",
"fl c #000025",
"fm c #000943",
"fn c #273F7F",
"fo c #1E4290",
"fp c #1A4299",
"fq c #19459E",
"fr c #1446A7",
"fs c #3D78D4",
"ft c #4885DE",
"fu c #1C51B1",
"fv c #2A5DB6",
"fw c #041646",
"fx c #0E235C",
"fy c #133179",
"fz c #0E3384",
"g0 c #0C3285",
"g1 c #224EA5",
"g2 c #2250B2",
"g3 c #2B68C3",
"g4 c #295CB5",
"g5 c #2C59AC",
"g6 c #204186",
"g7 c #000122",
"g8 c #102053",
"g9 c #1745A7",
"ga c #1545A7",
"gb c #091B4D",
"gc c #2351A9",
"gd c #0F286A",
"ge c #052464",
"gf c #3A65B3",
"gg c #2B5DB4",
"gh c #1E53B1",
"gi c #1D54B1",
"gj c #1345A4",
"gk c #1445A4",
"gl c #254EA0",
"gm c #0C2158",
"gn c #00020F",
"go c #00000D",
"gp c #072561",
"gq c #3866B3",
"gr c #3367BD",
"gs c #1F408D",
"gt c #071542",
"gu c #000218",
"gv c #00010A",
"gw c #03010E",
"gx c #0B2A6A",
"gy c #4984E2",
"gz c #2E69C7",
"h0 c #1844A5",
"h1 c #02000D",
"h2 c #000A28",
"h3 c #2C4E8D",
"h4 c #4777CB",
"h5 c #4177D1",
"h6 c #285EBE",
"h7 c #4379D3",
"h8 c #2450A7",
"h9 c #11327F",
"ha c #0C225E",
"hb c #09153D",
"hc c #365999",
"hd c #4F82D5",
"he c #3D7AD7",
"hf c #2C67C5",
"hg c #275FBE",
"hh c #4577D0",
"hi c #3A64B8",
"hj c #3366BF",
"hk c #275EB8",
"hl c #184095",
"hm c #194294",
"hn c #041648",
"ho c #000925",
"hp c #385891",
"hq c #4876C3",
"hr c #4C84DB",
"hs c #3065C1",
"ht c #4678CF",
"hu c #1C428D",
"hv c #001D62",
"hw c #001858",
"hx c #052465",
"hy c #1B428D",
"hz c #4477D0",
"i0 c #3167BF",
"i1 c #0B3486",
"i2 c #001B65",
"i3 c #19469B",
"i4 c #1F52AB",
"i5 c #4176D2",
"i6 c #20418E",
"i7 c #000215",
"i8 c #0D224F",
"i9 c #2B4E90",
"ia c #4777C9",
"ib c #4C85DF",
"ic c #4E84DE",
"id c #092360",
"ie c #000124",
"if c #000229",
"ig c #072364",
"ih c #2F58A7",
"ii c #4476CD",
"ij c #06195D",
"ik c #021A62",
"il c #4578D4",
"im c #10276A",
"in c #001749",
"io c #284F94",
"ip c #3666B8",
"iq c #4278D0",
"ir c #2052AB",
"is c #032C7E",
"it c #00175F",
"iu c #011550",
"iv c #000028",
"iw c #00144F",
"ix c #214289",
"iy c #2F5CAD",
"iz c #3067C1",
"j0 c #2C69C6",
"j1 c #163379",
"j2 c #000949",
"j3 c #000848",
"j4 c #041B61",
"j5 c #3665BD",
"j6 c #3059A8",
"j7 c #001A5D",
"j8 c #061649",
"j9 c #000C29",
"ja c #0C2355",
"jb c #35589A",
"jc c #315CAB",
"jd c #2251A9",
"je c #2F5BB4",
"jf c #1D4091",
"jg c #13307C",
"jh c #001B60",
"ji c #021B5D",
"jj c #3258A3",
"jk c #3167BD",
"jl c #3466BB",
"jm c #001B64",
"jn c #031A5E",
"jo c #0F2973",
"jp c #113281",
"jq c #103289",
"jr c #0E3087",
"js c #092B73",
"jt c #0A2B72",
"ju c #36599D",
"jv c #31579E",
"jw c #4977C4",
"jx c #31599F",
"jy c #011749",
"jz c #00092B",
"k0 c #0E2455",
"k1 c #224182",
"k2 c #294D99",
"k3 c #1B4196",
"k4 c #294FA2",
"k5 c #345AAF",
"k6 c #204394",
"k7 c #011753",
"k8 c #0C2B6E",
"k9 c #3E7BD6",
"ka c #4986E1",
"kb c #295DB3",
"kc c #001C69",
"kd c #001A64",
"ke c #001A6A",
"kf c #0C3287",
"kg c #0D2A6E",
"kh c #02164B",
"ki c #0C2254",
"kj c #112C63",
"kk c #5177B8",
"kl c #2E4E89",
"km c #03091F",
"kn c #000929",
"ko c #13224D",
"kp c #152A63",
"kq c #243F86",
"kr c #305CB5",
"ks c #3665C1",
"kt c #315BB1",
"ku c #09235E",
"kv c #3666BA",
"kw c #3167C1",
"kx c #164398",
"ky c #0D3384",
"kz c #1C45A1",
"l0 c #1843A1",
"l1 c #122862",
"l2 c #162A5C",
"l3 c #0F214F",
"l4 c #02020A",
"l5 c #0F2358",
"l6 c #2E5CB2",
"l7 c #1F4189",
"l8 c #001553",
"l9 c #0A225E",
"la c #3867B9",
"lb c #3365BE",
"lc c #2F5CB9",
"ld c #3864C3",
"le c #244FAB",
"lf c #0E2A6B",
"lg c #122253",
"lh c #050817",
"li c #021648",
"lj c #133275",
"lk c #355CAB",
"ll c #2E5BB0",
"lm c #2C4D94",
"ln c #001855",
"lo c #163273",
"lp c #2F5AB6",
"lq c #02000B",
"lr c #02020E",
"ls c #000A2C",
"lt c #00174B",
"lu c #2B4D94",
"lv c #3359A4",
"lw c #335CAC",
"lx c #2E4D90",
"ly c #001756",
"lz c #38569E",
"m0 c #2650A4",
"m1 c #0D3483",
"m2 c #092A77",
"m3 c #183171",
"m4 c #020925",
"m5 c #07143E",
"m6 c #041644",
"m7 c #2B4B96",
"m8 c #001B63",
"m9 c #2E4F9C",
"ma c #1E4497",
"mb c #0A2A73",
"mc c #001C5D",
"md c #112154",
"me c #0C1534",
"mf c #000103",
"mg c #14285A",
"mh c #132A60",
"mi c #051A4F",
"mj c #112B68",
"mk c #1F4091",
"ml c #294D9B",
"mm c #11337D",
"mn c #163174",
"mo c #142960",
"mp c #112250",
"mq c #000219",
"mr c #000A25",
"ms c #00021B",
"mt c #000926",
"mu c #112355",
"mv c #03174C",
"mw c #051546",
"mx c #09153B",
"my c #00020B",
"mz c #00020D",
"n0 c #000024",
"0m0m    0a0a0m0m////0e0ec5ch  0b0y0tdq3a3r2iec7j6j7pfafgfm826x3n2n0e0m0m//  0v390a0a  0v0p0p        ",
"0m      0a0a            3k2k1t0n2qdkdr4se3e8eden7l65fbfhfnfxg87z0t0b////1t0b  3j0a0a      0e        ",
"//    0a    //    0a0a3j  ci4b3a72dldsdwe4e9eeeoez3q7vfifofy6wgb2sgogwh10y3l0p  0v0x0m  0v  0x      ",
"0p0e0a0a    0p0e  39  25120tct6x73dm5jdx68eaef330j1u1u0jfpfz2l7g2p3741h237hoi72n0b//  3g            ",
"    0a0a    0p0e    1t0n6k42cud6dh762x4t4r2a4p4p7i4ofc4j4zg08486gegpgxh3hchpi8372o0b//      0emf    ",
"    0a0a    0p0pb10y0tbt5lcj6rd72wdn28080g7e7a7k1u140r0jfqg13p87gfgq8bh4hdhqi9inj92o12l4//  0v38    ",
"              0q0tba6fbuc6ck6sd82x1717||1j060i4k181efd1o1o4k1326gggr511e2vhriaiojajzkm0y1t          ",
"        //0b0y1v213xbibvc7cl6td90o||0w||1a..23092b0d22++XX09..09gh1w||0whe10ibipjbk0kn6o592k        ",
"    0m3k1t1g415y2j44bjbwc85z6t6y140h0w0w070g....2f0d07XX09060623201c0l||0w1s10iqjck1ko8wlh0b//      ",
"    9d1t5f2raeau65bbbkbx6l4ecvda270o070d07XX2d09080d280906321i061j7o++||hf8a8e51jdk2kp34710y0b0v    ",
"0p0e0x3l3n3xaf3h662u0j0j5h6pcwdb744p130f++++eg090d0k242d35g2g906..1c1d++2e4cicirje88kql558568u3d    ",
"0p0p0b3m5l3y5w5z450r6g0u6m0jcxdc756l0j2cXX31091lf0f67w1mfr35ga2d0h1w++17hghs8his2tk33i55lils1g////  ",
"  0b5f3n5m5rag600j610i0i3v0rcydd6p1y4o142c0z0h080d10||0l1m1n08077h892b0d||ht8iitjf8s848iljlt3e0n0b  ",
"  5a9e3o9x3z2t0j160ibl150o141p0j0r2a140i300zXX072b1017||++||170k17890d0d8c53idiujg528d87lk5um51v0q  ",
"39129f9o5n5s0j61160u1i..090f0f1b4l1o0h0h4l43++++22||7x1r1f||||1r0s1q0d8chhhu3b54jh52kr8x53lum62s12  ",
"  5b9g9p9y0r0i1i0i0i1xbyXX0d0k0d182z4r1h4u1h4w0hf10w0w1r1r1r85850s7m0k516ehv3wiv55k46n4w2wlv5e2y1g0p",
"0q5c5g9q3t1h06av0o0o1x23c92v6u1e141y2t4d4d3pehepf26u0s0sfs111111117rgyh5hihwie2155k5ks0c1h3t5tmgmqmy",
"1g3e9h9r3u0c15..460c061j080s102v134q2t33e533ei4qf37q1010ft7q1s1s1s8agz1853hxif34jik6ktl6lllwm7mhmr12",
"3a5d9i3p9z09ah..0z0c23..0d104i0k1e18307b1y1y1yeq2g1q111111g30s0s1q0k0k2ghjhy8j54507l5xl7lmlx91mimsmz",
"933f3h3q13....0c0f1b1j1c0k0s0d084m28dtdy7e131h2z2v4i1111110s0k4cgi240707078bigiw8p6r50l8lnly8q6amt5b",
"94973i5h130o0c0c0f1bXX0h0k0dXX..1lXX317c07281eer0s7r0w0w1q0k++1mgj4fXX070dhzihix8qk78j5k628pm8mj2y1v",
"2i989j5i3v0c0c430f1b0h1d4c08..06....2d1m||||0kes0s1q1r||0d08..4y3206XX082e7niiiyjjk8kul9lolzm991488w",
"575e2l9s14..200g0g1w++++1d1l0606........1m++1d||0w1rfe++1c..1515gk..1nh62b1q1eizjk8kkvla8hm0ma8vmu8t",
"3b2j2m9t1u..XX07070d17++++1m061509....090g1k7het||||1f++1k3609....0g0l||0k0s0wj01sk90w170g13608y8z2p",
"95999k5j5o40aiaw1010||++++1n..200g1c0hXXXXXX1d1z1z1z||++++++++0l1d0l7w170k8e1s1s11ka7x++..1p5i8m9282",
"969a9l9ua0a6aj0d100s240l1k0g1aXX++++0l082407||7819194x||++++++0l++++++1whki08k8njlkbkw0f4g770jmk9254",
"589b9m9va1a7ak0k22070g0hcaXXXX++++191f||||2e1z1z1f1f||4x++XX0909091l1d182wi186j1jmkckxlb2x2z2amlmv5d",
"3c9c9n5ka25tal071a..0z0c094f6v++191978||1f++1d||222e||0l0gXX..09..0g471o4v8f7pj27jkdky3u2z6d5ommmwn0",
"590n3c3ra35uam0z1h6b0u0o06cmcz19191f||4m0lXX1l087m0s0d08XX1a1n1k1c0g4x2x8di2ijj3jn5w29452a7b3q2m2p2s",
"  //0y3s2pa8an0r0rbc0u6g1i06d01n1f||4m080gXXXX0f7nf707XX1j3631++0808||h7hl8fikj4joke4e67lp7f29mnmx1v",
"3d  0b9w3wa9ao2ub2bd164a1u260cXX||||080fe6XXXX07244n2g0f..09XX080722||077yi38l6sjp29kzlc7k3tmbmo373m",
"3d0a  2n5p5gapax6716166hcb0rd11b4n2b080f0f0f08++081c0f0c....18XX082e1z||1ei445758rkfl0ld8xm1mcmp3s0n",
"    0a0p0y2saq4468136h0r0j0r0i..0h080gXX431b0hXX7oXX0c0z0z46XX0h0707||||4i2g0r6yjq4e27le5sm23y700t0b",
"    0x  0m0n3r62b36cbmbzcc0j1p0iXX080l0hXX0fXXXX0g090o0o46091cXX2f1w++0d1q1e261yjr8r33668ym3md2h0y  ",
"0m    0x  122q2ib4bebnc0cdcn4j1p0z++19dz080707XX1b0c0606..36310l1aXX0h1a08i5404q8s3i8vlf8z4sme8g0q  ",
"0m3g  0b0n5v21ayb5bfboc12ucod2271309++19071w082f1a..06151j1n++++XX09064y0z18il3u8lkgl1lg2ym40t120p  ",
"    0x2na4aaar2m696d490i0jcpd3de0j7709074n2f070l1k1j06061n0l||07XX061x1i4w80832wjs2j4s5p0t120q0b//  ",
"    3j2oa5ab5x63b6476i06ce0r274j4o0r79XX6z0f0h6v094f060681||0k070g06h0167t1b++j5jtkh215v0q          ",
"0x    0n5qacasaz0c++++470f4g0i166m141i064l0c20060i7s064y1m83++++1l320u4a304t088njuki2h56lq0m0x      ",
"      3l2qadatb0b76e4018180f..230u0u1x060o490u161p0u1x15fu1k1kXXXX..0i0u304t0f8ojvkj341vlr90  0a    ",
"    //0b121v42576abgbpc26n1o1a..492c32060o147i271p0u1x350h0hXX0g0g..7s0i150o1h8ojwkkl22h0n900x0e    ",
"    //    0q3m64423bbqc34dcqd46z0z0920..0o3vejeu1p7tff35XX2f1l..09..150o06137vj6jxkll33e0n//0e0e    ",
"          //5a1g4148br6j3hcrd54k2807XX..2c0u4a162c4g0636++0l816i2d..150o6b4z8mj7jy8t3s1g0q//0e0e    ",
"        //  0m0qb8bhbs3fcfcs3zdf761o1o79140i1i060z0c0c0h080l7c09060i0rh8hmi6imj82h564b25////0e0e    ",
"              //0q0n5cc4cg4h6wdg292u7ae026ebek060c0f0c802g08XX0c2a4z52h9732j3x6q0t8u25//  0v        ",
"                  //254b6o6q3f3ydido29634v7fel1u264u7y4ufvg44rgcglgs44hahn6f2r0t0q  0m3g            ",
"//2k    //    0a0e0e3k250q1g2r70djdpdue12l3z74evf4f86cfj69g54v882m507uhb648g0y0q0e38  0x0v  ////    ",
"////    //    0ab90e      0b0n712y48dve2e77gemewf5f92lfk5ng65rgdgmgt2h7d0y0b2k  3838  0v0x  ////    ",
"                          //0b120n2o0t7d2r3472ex5m7u4h4hfw5y3w5q6kgu0n0q0b//                        ",
"                                0v  0v0b0n2q3oey2i3o7zfl21g73c0tgngv//  0v                          "
};