/* XPM */
static char *picture[] = {
"50 50 900 2 ",
"   c None",
"XX c #030208",
"++ c #2F65C5",
".. c #245ABA",
"|| c #2E66C5",
"// c #1B4BAD",
"06 c #3971D0",
"07 c #040207",
"08 c #2559BC",
"09 c #3772D0",
"0a c #245ABC",
"0b c #2759BA",
"0c c #02020A",
"0d c #040308",
"0e c #020106",
"0f c #255ABA",
"0g c #2254B5",
"0h c #020307",
"0i c #02020C",
"0j c #2E66C3",
"0k c #3065C5",
"0l c #4481DE",
"0m c #00020F",
"0n c #2F66C3",
"0o c #1D4BAB",
"0p c #2759BC",
"0q c #030305",
"0r c #1D4BAD",
"0s c #4580DE",
"0t c #2559BE",
"0u c #2254B3",
"0v c #2353B5",
"0w c #2F65C7",
"0x c #020308",
"0y c #2858BA",
"0z c #3065C3",
"10 c #000215",
"11 c #00020E",
"12 c #000213",
"13 c #1D4BA9",
"14 c #3A70D0",
"15 c #000211",
"16 c #000218",
"17 c #1A4CAD",
"18 c #163E96",
"19 c #153E9A",
"1a c #2055B5",
"1b c #03020A",
"1c c #2F66C1",
"1d c #3A70D2",
"1e c #1B4BAF",
"1f c #2C67C5",
"1g c #163D98",
"1h c #3971CE",
"1i c #2F67C6",
"1j c #153580",
"1k c #1A4CAF",
"1l c #3971D2",
"1m c #10358D",
"1n c #3771D2",
"1o c #4580DC",
"1p c #4281DE",
"1q c #020B2A",
"1r c #1B4CA9",
"1s c #1E4AAB",
"1t c #477FDE",
"1u c #2354B3",
"1v c #2355B6",
"1w c #255AB8",
"1x c #1E4AA9",
"1y c #2F67C4",
"1z c #1B4CAB",
"20 c #020305",
"21 c #010206",
"22 c #020107",
"23 c #030106",
"24 c #000216",
"25 c #2055B3",
"26 c #1B3776",
"27 c #040205",
"28 c #3A72D1",
"29 c #1E4BA8",
"2a c #2055B1",
"2b c #123F9C",
"2c c #235BBC",
"2d c #0E368E",
"2e c #2359BB",
"2f c #2759B8",
"2g c #2F64C4",
"2h c #3066C6",
"2i c #123684",
"2j c #010C2C",
"2k c #000C2F",
"2l c #00030C",
"2m c #000313",
"2n c #132B69",
"2o c #000117",
"2p c #3B72CF",
"2q c #133E9D",
"2r c #2A58B6",
"2s c #2553B1",
"2t c #3364C0",
"2u c #2C66C7",
"2v c #3A71CE",
"2w c #000B31",
"2x c #000B35",
"2y c #10368B",
"2z c #2054B7",
"30 c #2A58B8",
"31 c #123E9D",
"32 c #3B6FD2",
"33 c #3264C5",
"34 c #2859B6",
"35 c #2354B1",
"36 c #3671CF",
"37 c #000C41",
"38 c #3264C3",
"39 c #0A205A",
"3a c #2E64C4",
"3b c #2F64C0",
"3c c #153E98",
"3d c #2255B1",
"3e c #03184D",
"3f c #050308",
"3g c #030408",
"3h c #00030A",
"3i c #08205E",
"3j c #1C3D8C",
"3k c #000B2E",
"3l c #133F98",
"3m c #00011E",
"3n c #00031A",
"3o c #000115",
"3p c #1D3772",
"3q c #00021A",
"3r c #010109",
"3s c #020B2C",
"3t c #2653AE",
"3u c #061848",
"3v c #000C33",
"3w c #04184D",
"3x c #214AA6",
"3y c #010A31",
"3z c #1A3D8F",
"40 c #00021F",
"41 c #020204",
"42 c #477FDC",
"43 c #3465C2",
"44 c #133E9A",
"45 c #133F9E",
"46 c #184DAD",
"47 c #2E67C1",
"48 c #245ABE",
"49 c #000C3C",
"4a c #00021C",
"4b c #183D95",
"4c c #1A4AAC",
"4d c #2554B0",
"4e c #244A95",
"4f c #1A4BB1",
"4g c #1D4AA7",
"4h c #02020E",
"4i c #042167",
"4j c #1C4AAC",
"4k c #3064C7",
"4l c #2D65C4",
"4m c #1E4CAE",
"4n c #19347B",
"4o c #000B33",
"4p c #0F409F",
"4q c #15357E",
"4r c #103689",
"4s c #10358E",
"4t c #133E9C",
"4u c #2E66C7",
"4v c #2359B9",
"4w c #1F55B5",
"4x c #2355B8",
"4y c #113D9E",
"4z c #265ABD",
"50 c #2E64C6",
"51 c #091744",
"52 c #2859B8",
"53 c #235BBA",
"54 c #1E4CAC",
"55 c #3065C1",
"56 c #3673D0",
"57 c #2F66C0",
"58 c #3972CC",
"59 c #245BB6",
"5a c #214A99",
"5b c #3066C0",
"5c c #2A59B5",
"5d c #113687",
"5e c #275AB6",
"5f c #143584",
"5g c #143586",
"5h c #2654AC",
"5i c #000316",
"5j c #000C37",
"5k c #000B37",
"5l c #05164A",
"5m c #1D3676",
"5n c #1A3779",
"5o c #000112",
"5p c #010A2B",
"5q c #000D2F",
"5r c #000110",
"5s c #244997",
"5t c #2149A0",
"5u c #1E4CA4",
"5v c #000221",
"5w c #020B28",
"5x c #03030D",
"5y c #010207",
"5z c #284891",
"60 c #2A53A5",
"61 c #3561BA",
"62 c #1F4CA9",
"63 c #3063BF",
"64 c #000C45",
"65 c #000C38",
"66 c #15367D",
"67 c #01040D",
"68 c #060B1F",
"69 c #1F4AA9",
"6a c #1A4BAA",
"6b c #010B2F",
"6c c #2B58B5",
"6d c #040B28",
"6e c #010B2E",
"6f c #17357D",
"6g c #1E4AAD",
"6h c #1D4CA8",
"6i c #2758B7",
"6j c #00030F",
"6k c #192B5B",
"6l c #163E95",
"6m c #214A9A",
"6n c #060B1E",
"6o c #091841",
"6p c #254899",
"6q c #1E49A5",
"6r c #2D64BF",
"6s c #1A4AAE",
"6t c #2354B0",
"6u c #3265C1",
"6v c #1A4CAB",
"6w c #1A4BA7",
"6x c #3463BB",
"6y c #052162",
"6z c #172B60",
"70 c #2459B7",
"71 c #1E54B4",
"72 c #2658BB",
"73 c #2858BC",
"74 c #2553B3",
"75 c #193477",
"76 c #0F3FA1",
"77 c #3166C6",
"78 c #2554AE",
"79 c #2049A5",
"7a c #1C4BA7",
"7b c #3366C1",
"7c c #3564BE",
"7d c #08184B",
"7e c #3B71D3",
"7f c #03030B",
"7g c #0C1F57",
"7h c #174DAD",
"7i c #1C4CAE",
"7j c #00011A",
"7k c #193D93",
"7l c #0D3692",
"7m c #2653B0",
"7n c #113F9F",
"7o c #1C4AAA",
"7p c #123586",
"7q c #071748",
"7r c #1F4BA4",
"7s c #12348B",
"7t c #2B57B8",
"7u c #3B70D0",
"7v c #3670D1",
"7w c #1F53B6",
"7x c #153D9C",
"7y c #000113",
"7z c #2957B7",
"80 c #11358B",
"81 c #2657BD",
"82 c #3067C4",
"83 c #1E4AA3",
"84 c #244999",
"85 c #3E71C2",
"86 c #11368E",
"87 c #3364C3",
"88 c #194BAE",
"89 c #2D65C2",
"8a c #2B66C4",
"8b c #214BA1",
"8c c #295AB9",
"8d c #113D9C",
"8e c #123D9B",
"8f c #255BBD",
"8g c #3066C8",
"8h c #123682",
"8i c #04184B",
"8j c #000B3C",
"8k c #2F65BF",
"8l c #2E63BF",
"8m c #174CAC",
"8n c #031752",
"8o c #4780DA",
"8p c #1F55B7",
"8q c #2156B6",
"8r c #2458BB",
"8s c #447FDD",
"8t c #204AA0",
"8u c #3672D2",
"8v c #244798",
"8w c #4380DD",
"8x c #4582DF",
"8y c #183E93",
"8z c #2155B8",
"90 c #1B4DAE",
"91 c #245BB8",
"92 c #1F54B2",
"93 c #3870D1",
"94 c #2153B2",
"95 c #071846",
"96 c #052065",
"97 c #4481DC",
"98 c #3E70C9",
"99 c #3A71CC",
"9a c #2758BE",
"9b c #4681DF",
"9c c #103784",
"9d c #0A183F",
"9e c #3D71C7",
"9f c #113F9D",
"9g c #4B7FD3",
"9h c #3363B8",
"9i c #132C65",
"9j c #0F358A",
"9k c #052063",
"9l c #000B43",
"9m c #000B3F",
"9n c #214AA2",
"9o c #4580DA",
"9p c #113589",
"9q c #0C2C75",
"9r c #000D30",
"9s c #0E368D",
"9t c #112C71",
"9u c #050B23",
"9v c #3861B0",
"9w c #000C31",
"9x c #2A488E",
"9y c #162B64",
"9z c #000114",
"a0 c #2049A1",
"a1 c #234A99",
"a2 c #020D2B",
"a3 c #000B2B",
"a4 c #040108",
"a5 c #000322",
"a6 c #000C46",
"a7 c #020109",
"a8 c #000015",
"a9 c #050C28",
"aa c #010A29",
"ab c #0A1944",
"ac c #02184A",
"ad c #2C4889",
"ae c #2F4880",
"af c #01040B",
"ag c #04030B",
"ah c #000012",
"ai c #040A2A",
"aj c #0B215A",
"ak c #132B67",
"al c #14367D",
"am c #3C61AF",
"an c #2B4989",
"ao c #00031F",
"ap c #080B1C",
"aq c #000414",
"ar c #02010F",
"as c #06184A",
"at c #1A377D",
"au c #1D3D88",
"av c #113686",
"aw c #163F8F",
"ax c #3660B2",
"ay c #4370C5",
"az c #0A2D71",
"b0 c #00010E",
"b1 c #030A24",
"b2 c #0B1838",
"b3 c #020D2D",
"b4 c #050B25",
"b5 c #040406",
"b6 c #030A27",
"b7 c #000B36",
"b8 c #172D66",
"b9 c #15367B",
"ba c #214A9C",
"bb c #0C358D",
"bc c #2A59B1",
"bd c #4E7DD5",
"be c #113780",
"bf c #000D38",
"bg c #0C193B",
"bh c #1E376D",
"bi c #2B4987",
"bj c #192B59",
"bk c #000C3A",
"bl c #3D70CB",
"bm c #204B9A",
"bn c #162B60",
"bo c #213769",
"bp c #192C57",
"bq c #000D2E",
"br c #204999",
"bs c #3D63AE",
"bt c #1C3975",
"bu c #000C2C",
"bv c #010310",
"bw c #122B6E",
"bx c #2348A0",
"by c #467EDB",
"bz c #2056AE",
"c0 c #15408F",
"c1 c #3B62AF",
"c2 c #3057A6",
"c3 c #3B60AE",
"c4 c #2E5399",
"c5 c #1C3973",
"c6 c #081742",
"c7 c #416FC5",
"c8 c #264B91",
"c9 c #133D9F",
"ca c #194BAC",
"cb c #3B70CC",
"cc c #1E4CA2",
"cd c #3A61AE",
"ce c #000B42",
"cf c #0F2C70",
"cg c #2E57B1",
"ch c #3E71CA",
"ci c #3662AD",
"cj c #122C65",
"ck c #0A1743",
"cl c #0E1738",
"cm c #040309",
"cn c #183579",
"co c #1A3D8E",
"cp c #2553AB",
"cq c #3962B2",
"cr c #224998",
"cs c #2754A9",
"ct c #2658B7",
"cu c #3163BC",
"cv c #3665B7",
"cw c #244A93",
"cx c #032161",
"cy c #0B173D",
"cz c #000317",
"d0 c #1E3674",
"d1 c #3870CD",
"d2 c #2E65C0",
"d3 c #3865BA",
"d4 c #123D9C",
"d5 c #2758BF",
"d6 c #2859BF",
"d7 c #2353B7",
"d8 c #2B58B3",
"d9 c #3761B7",
"da c #06205B",
"db c #000527",
"dc c #143582",
"dd c #2452B0",
"de c #2B5AB6",
"df c #3361B9",
"dg c #3562B5",
"dh c #264B92",
"di c #152C5E",
"dj c #000C2E",
"dk c #0B1F54",
"dl c #0B2C79",
"dm c #173D92",
"dn c #143F9B",
"do c #1D49A8",
"dp c #3264BB",
"dq c #4170C2",
"dr c #07215E",
"ds c #060A25",
"dt c #00031D",
"du c #081645",
"dv c #162B6A",
"dw c #153685",
"dx c #2D64C1",
"dy c #2757BD",
"dz c #254A9B",
"e0 c #152A69",
"e1 c #050A28",
"e2 c #132A6D",
"e3 c #041F6C",
"e4 c #113486",
"e5 c #265BBB",
"e6 c #1C49AE",
"e7 c #1F4BAE",
"e8 c #1D49AC",
"e9 c #123E9F",
"ea c #1C4AA8",
"eb c #3E6ED0",
"ec c #2D58B4",
"ed c #1C3D8E",
"ee c #0C205B",
"ef c #00011B",
"eg c #01010B",
"eh c #020A2E",
"ei c #052067",
"ej c #153484",
"ek c #1A3C93",
"el c #2149A1",
"em c #143D97",
"en c #0E3590",
"eo c #2757B9",
"ep c #2959BB",
"eq c #113DA0",
"er c #2553B5",
"es c #2652B1",
"et c #2348A1",
"eu c #000C32",
"ev c #122A68",
"ew c #143487",
"ex c #153C97",
"ey c #2B59B7",
"ez c #3E6FCE",
"f0 c #123EA1",
"f1 c #22479F",
"f2 c #01092D",
"f3 c #0F348C",
"f4 c #193E97",
"f5 c #173F97",
"f6 c #093795",
"f7 c #3563C1",
"f8 c #3D6FD0",
"f9 c #1E49A7",
"fa c #061E64",
"fb c #000319",
"fc c #00011C",
"fd c #08205C",
"fe c #113581",
"ff c #0D3594",
"fg c #183D98",
"fh c #113FA1",
"fi c #0A3695",
"fj c #285ABD",
"fk c #2654B6",
"fl c #11378A",
"fm c #152B65",
"fn c #030B2F",
"fo c #253664",
"fp c #4061A6",
"fq c #2C59AE",
"fr c #002177",
"fs c #1F499F",
"ft c #193574",
"fu c #233867",
"fv c #3B60A4",
"fw c #487FDA",
"fx c #477FE0",
"fy c #1F4AA6",
"fz c #0D358D",
"g0 c #0F409D",
"g1 c #487EE0",
"g2 c #2755AD",
"g3 c #183E91",
"g4 c #000220",
"g5 c #000B39",
"g6 c #0C2E6D",
"g7 c #3563B0",
"g8 c #497FD7",
"g9 c #113E99",
"ga c #1B4DAC",
"gb c #0C419F",
"gc c #3C70D3",
"gd c #184CAF",
"ge c #2D68C4",
"gf c #3873CF",
"gg c #2253B0",
"gh c #17357B",
"gi c #00011F",
"gj c #020B32",
"gk c #002166",
"gl c #2654A9",
"gm c #1E4BA6",
"gn c #11409C",
"go c #3162BF",
"gp c #000226",
"gq c #000223",
"gr c #0B173F",
"gs c #0E1F55",
"gt c #00195D",
"gu c #0D378B",
"gv c #3164C0",
"gw c #3365C4",
"gx c #0C2055",
"gy c #102C6D",
"gz c #00226E",
"h0 c #163F97",
"h1 c #255BBB",
"h2 c #265BB9",
"h3 c #274993",
"h4 c #173F94",
"h5 c #2D64BE",
"h6 c #4582DD",
"h7 c #3572CF",
"h8 c #1F54B4",
"h9 c #2554AC",
"ha c #234A97",
"hb c #000A3E",
"hc c #001858",
"hd c #18357B",
"he c #2C52A7",
"hf c #2E64BE",
"hg c #447EDF",
"hh c #3366C2",
"hi c #234899",
"hj c #0A1F5E",
"hk c #000A41",
"hl c #001856",
"hm c #16347A",
"hn c #143D99",
"ho c #1E56B3",
"hp c #2C67C3",
"hq c #3673CE",
"hr c #437FDF",
"hs c #2658B9",
"ht c #3162BE",
"hu c #2754AF",
"hv c #0B1F5A",
"hw c #000C3D",
"hx c #03184F",
"hy c #2553A9",
"hz c #0F378E",
"i0 c #1E4AA1",
"i1 c #3870CF",
"i2 c #2049A3",
"i3 c #01092E",
"i4 c #1D366F",
"i5 c #3B61AA",
"i6 c #204A9C",
"i7 c #2D65C6",
"i8 c #4182DE",
"i9 c #000A3B",
"ia c #162961",
"ib c #2C498F",
"ic c #10348C",
"id c #3263BF",
"ie c #2153B6",
"if c #2F61C0",
"ig c #1B3C8D",
"ih c #142C6C",
"ii c #000A2E",
"ij c #142A66",
"ik c #0F2D76",
"il c #1B3E92",
"im c #4180DD",
"in c #2254B7",
"io c #193D91",
"ip c #17357E",
"iq c #04174F",
"ir c #000116",
"is c #050B2B",
"it c #051749",
"iu c #1D3678",
"iv c #163683",
"iw c #194BAA",
"ix c #2C68C8",
"iy c #3063BE",
"iz c #2253B9",
"j0 c #3463BF",
"j1 c #153F95",
"j2 c #122B6D",
"j3 c #0D173A",
"j4 c #05194C",
"j5 c #3264BD",
"j6 c #1F56B3",
"j7 c #184DAB",
"j8 c #4880E1",
"j9 c #174CAA",
"ja c #2255B0",
"jb c #2356B1",
"jc c #4980DB",
"jd c #467FD9",
"je c #467EDD",
"jf c #245CBD",
"jg c #21499E",
"jh c #14347F",
"ji c #021851",
"jj c #264A96",
"jk c #2E63C1",
"jl c #3A6FCD",
"jm c #3565BA",
"jn c #2B59AF",
"jo c #3564BC",
"jp c #2D64C8",
"jq c #23499C",
"jr c #19367C",
"js c #000D3E",
"jt c #254A91",
"ju c #4C7ED7",
"jv c #2156B2",
"jw c #457FE0",
"jx c #4581E1",
"jy c #2156B4",
"jz c #3E70C7",
"k0 c #153F8B",
"k1 c #092E75",
"k2 c #001A62",
"k3 c #124297",
"k4 c #3D6FD2",
"k5 c #1F4CA7",
"k6 c #000E3D",
"k7 c #3A61A6",
"k8 c #3872D3",
"k9 c #2F65BD",
"ka c #2E64BC",
"kb c #3873D1",
"kc c #001951",
"kd c #000B3B",
"ke c #103687",
"kf c #123F9A",
"kg c #2958B4",
"kh c #2253B2",
"ki c #1A377B",
"kj c #051745",
"kk c #000318",
"kl c #000214",
"km c #031A46",
"kn c #3C61A5",
"ko c #2E66BD",
"kp c #2B66C2",
"kq c #447FDB",
"kr c #497FD9",
"ks c #00022C",
"kt c #000A37",
"ku c #031851",
"kv c #1C3D8A",
"kw c #0D368E",
"kx c #113E9B",
"ky c #0D378D",
"kz c #0C368A",
"l0 c #2855A8",
"l1 c #2B59AE",
"l2 c #2C53A2",
"l3 c #000410",
"l4 c #071947",
"l5 c #3E61A3",
"l6 c #4C7FD2",
"l7 c #123589",
"l8 c #133688",
"l9 c #2B5AB4",
"la c #467FD8",
"lb c #2554A4",
"lc c #214AA4",
"ld c #23499E",
"le c #19377F",
"lf c #001958",
"lg c #193879",
"lh c #456FBB",
"li c #3B62A7",
"lj c #0A2051",
"lk c #000312",
"ll c #1D386F",
"lm c #3862AA",
"ln c #4780D9",
"lo c #2655B1",
"lp c #1F4AA8",
"lq c #002173",
"lr c #002170",
"ls c #0D358A",
"lt c #3665BD",
"lu c #3064BA",
"lv c #193E8E",
"lw c #041F66",
"lx c #021756",
"ly c #132B6B",
"lz c #0F2C72",
"m0 c #091F5B",
"m1 c #081947",
"m2 c #1A3874",
"m3 c #436098",
"m4 c #0A183B",
"m5 c #1C376E",
"m6 c #3A62A8",
"m7 c #4C80D3",
"m8 c #0A3890",
"m9 c #0E368B",
"ma c #002374",
"mb c #002175",
"mc c #133481",
"md c #244B98",
"me c #487ED8",
"mf c #133485",
"mg c #153582",
"mh c #002172",
"mi c #032169",
"mj c #000225",
"mk c #00184E",
"ml c #3863A8",
"mm c #1D4CA4",
"mn c #153687",
"mo c #082C7A",
"mp c #224A9F",
"mq c #000C4A",
"mr c #00195C",
"ms c #3666BB",
"mt c #0D358C",
"mu c #173F96",
"mv c #162B62",
"mw c #080B1E",
"mx c #000321",
"my c #132C62",
"mz c #274990",
"n0 c #002073",
"n1 c #2E58AE",
"n2 c #000A40",
"n3 c #021852",
"n4 c #2954A3",
"n5 c #3970CB",
"n6 c #4880DF",
"n7 c #204A9E",
"n8 c #0F2153",
"n9 c #00020B",
"na c #03206E",
"nb c #3C71CF",
"nc c #2154AF",
"nd c #3561B8",
"ne c #26499B",
"nf c #00185D",
"ng c #000C43",
"nh c #3462B7",
"ni c #020C2F",
"nj c #000B34",
"nk c #192B5D",
"nl c #071F65",
"nm c #2952AC",
"nn c #25499D",
"no c #042069",
"np c #3762B1",
"nq c #1F4BAA",
"nr c #3A64B8",
"ns c #2C53A0",
"nt c #16377C",
"nu c #04184A",
"nv c #06174B",
"nw c #264A98",
"nx c #1F4CA1",
"ny c #000B46",
"nz c #1C3673",
"o0 c #3964B3",
"o1 c #275BB1",
"o2 c #124095",
"o3 c #082C76",
"o4 c #042163",
"o5 c #1E376F",
"o6 c #00021E",
"o7 c #1E3672",
"o8 c #203C85",
"o9 c #081F62",
"oa c #021854",
"ob c #1B3778",
"oc c #3A60B1",
"od c #2953A9",
"oe c #143481",
"of c #18367F",
"og c #132C6C",
"oh c #172B5D",
"oi c #000D32",
"oj c #040B27",
"ok c #020C27",
"ol c #2C4985",
"om c #000B41",
"on c #000C3F",
"oo c #2F4881",
"op c #0B2055",
"oq c #203670",
"or c #071844",
"os c #273661",
"ot c #172B5E",
"ou c #182C5E",
"ov c #09183F",
"ow c #010C2A",
"ox c #040B25",
"oy c #000328",
"oz c #00031E",
"  0e    XX  0h20    3f0e41200h0hXX0mfcfn3y6bgigq8j8nhchlhx49i93yir0iXX      0e  0q0q0h3g            ",
"    0d  XX  0h20    070d0h0x0ceg4h242wfofug5gjgrgx5mhdhm26i4ia51is100iXX  0e    0d0d          0d    ",
"    0e  XX0e0d0q    XXXX0c115r3o7j3kfdfpfvg637gsgyh3he8t5ai5ibijitj3120cXX            270707        ",
"        XX    41  XX0i0m68dte1eh4o3efefq85g7gkgtgzh44t62hyi67pikiuj42j165ikl10lk5xXX  272307        ",
"2020    0h0h    XX3r153n2wdu7d7gev4q7r2ffwg8glguh0442qhnhz4riciliv96jijsk6kml43k100c3g0q0e  0q0q    ",
"0h21      0x0c0i0mcz1q6odkdve2ei1j4r2r321n092pgv1r54742bi08t3c1g1m5djjjtk7knl5ll5q2m3h      410q    ",
"XX2207    3rbv3o5v6o6z2n754ie3ejewf36933fx2u06++143a3a141c5bid5c2tj598ju9e9gl6lmm59r15              ",
"1bXX  0e  0i686e6kd06fdcdldwe4ek7k4sff7z141l4u2c53||1l1n091h0u3d92j6..4uk8091o9gm6mkmx12110cXX      ",
"a4      b5115w3ucn6p4b18dm2y18el4b4s191x2g14++....++++28||140b0giwj71a3a||1f0slnm7mlmy9w9u0m3rXX    ",
"0723  0x0c103v3pco6qd41xdn7919em184sfg19341w2h++0f0k++++..++0p900g0u1a1w911h09979o85mz3eni9z0i22    ",
"07230d0c123s3w6f6l2s0o1u0o4519enexf47s80fy432g8f0a0w0k++i10wie//900u382ak9571o0s429e9v26nj3q11      ",
"07  220mb6bkbw3z441u0u0b1v1z2b197lf57sfrfzg98c2g0a..1w0n1ti78z17170u94jvkako090655mm609xnk1q0m      ",
"  22ag24b72n3j1g451u700n++0f//0o2b7l2d1m862d8d521ch52a3b0s2u7h8m1a92jk3b57479b0nm89j5g4n9y2w1207    ",
"  0cah5pb85zbx2q0o17251y061t4k0bey7m4t192d188e138k57hf590s0s0n91..3a2v2v1ykp0s5em9mnn0nanlnvo6110x  ",
"070maiasb9603xc90r1v71||0l0l060k1z307t7t1329gm7a554759ho061t0j0j28061njw360950lomamo4b1m3z9t95ok11  ",
"1ba85k3i5s61696g//0f1i1f0l0l067h4p7nfh7z8735gn6w2a1h0jhp||060j0j1f1f8ujx0s0617295d5d836cnmnwo79w15  ",
"15a95latba3t1s0y46||2u090s284l0k4pf6fi2b3487520u6r581ohq0909||||1f090l0l060f7nlp1m9s34385c6m75511007",
"5iaaajau5t620rca..0609092pdxe50bezf72s13g0ga0g0b1c8o1o0l8w8x1n0909970l0s25138e1g183c5enb6unx9q8i161b",
"102jak3jbb136a0b0nd11h2v631r//eo0yf87u0k0fgb764p8l58090l1p1p1pim0l0l0s0n9f19867k1m9n7cnc355ha13pa215",
"162k5mav3l130u0z1c1c0n0z1r130oep//1k081dg17u33381c588s8u1pi81p1p563628jy8d1gl7lqmbmpn1nd3ta084ola310",
"a5ab5naw5u1r250n1c6r0z0u6a0o0v0y//4c1k4x0pgc7e1t1oh6hghr8w1p560lix7v||254g2dl8lrmc5f8vnenn6po89ya210",
"5jacalaxbc632p0j47d20z0g761e0v176v0gfj8188gd0a0956h71n1n361f8a1f93j8||70343l9j2i9q4i96nfno4io9oma316",
"a6adamaybdblby0s1h0n0k0p4fdy1e0g++..2e084z080f..1i064l061i..4w1a++1406060n5el9ls66mqn29m9lnyoaon2w40",
"3eaeanazbebmbz421t14080t0t0t0p0k||1i4u0w++..0f++..2h++++....0b0g94j90j9b06060zltmdmrn3ng39nzobooos6e",
"1q1qao5qbf64c0cb1d480t0t0a1d7e++1i0j||4l890j820j0j2h0a0a8p0a0p0giyja591hkb0s0s8omemsn49vnpo0oc9xot3v",
"150m0i5r3m3uc1430p0td50t0a062c06||||06||1y0j0j1y1y++32321d504k0b3djb3b0j42kq1o0l8x8sn55b5bo1od4qouoy",
"a71bXX0m5vbnc22r//1ed608..++||||281l7v098age0j0j4w..080f++||0w0a0g1w..0n7bkrla9o0l0ln62v8k9ha126ovoz",
"07  0db05wboc36h0o6sd7720f++14..0a2c2u1n09361y||h18p1a1a71..1l0w8z8qjljz5a9clblu990993..3do28h9iow2m",
"      113nbpc4cc1r//6s0p0k++0b0g2z2z482c09gf06++||....1a171a0a0a++3b98k0kc379klv5c0846178ca01jop3n7f",
"0e    3h2mbqc5cdcp1u1e0p770b//7i0v0p7w2c1f1o||..061i++2g0b0g4z4v||1cjmk1kdks9llw18300y0y543coe372oXX",
"070d  0x5x2oc626cq6t4c0p////e60r0r//0g..0909||060w0a08087w0bif0z1hjcjnk237kt9mlxmf3c0o0y4y1g5g394a0i",
"07220c2l0i106bcecr2t0y73//0r0r4jf07o0b..0909||||0a0a0808080b3d2a||jdjo9c6yku8nlymgmt9f0ynq183joqox0i",
"071b0m123o3m3y646m6u////0y4j4meq4m//0u8289||530w0w2e4z0p1k1v2f8l06je99k3kekv1j1jmh9s2r525h4rof6z16XX",
"3f0capb1bg653wcfcs1w0y0v////1s1s4j//250n2p1i0a8g2e08884x4x0f2f0z1l1l1t55kfkw2y9p9pmu6h2tnro3ogor10  ",
"  3haqb2bh663zcg430f0v4c//0v6g0r0v1v4v++140a0808468q0ghs0f..0k0w1djf1l141z2b2d2y1m5t5hnhnso4oh2j6j  ",
"0haf5o3kbibr6c6ict6v0v//0r0re7er0v0b4w++1d0a082z1vh81v0f0n++8f0w0t48jp1d0b1xlc1m808yn75anto5oi2o0i  ",
"3g0c15b33pbsc7chcu6w1r741s1se80r0r0v170k50080b0g731k2z2h0n++8r0tiz0t0t321zkx9n2y5g5f2i5z266koj0m1b  ",
"  0carb4bjbtc8cicv6x4ddddo1xe90r0r////0b080f0g0v1e1k0w06||2h084f4f810tk42s3lld2imi9t9k3inu9r9z1bXX  ",
"07XX1b0m3qbu5jcjcwd3d8de4g291x0o0o1ufk4m170g7i//1k8r0606||4v081k1e1e7233kgky5flz2nmvn82x2j162l      ",
"0707  XX0i124065cx5sd9df787aea0o300o1s4y0o1z0o1z0b1d0653..++08in////0p0b2tkzlem03u3v3s4a6n110x0q    ",
"        5y156dck3w6y4edgdp2a0u0y301x2q2q31454y540b++8g0a0a0w0t0p//1e9a080zl0lfm1mj9u12110iXX  0d    ",
"    0q0q21673qclcy49dadhdq7b0k0g13f97x7x4t31317o8m..4k080a2e080p6i0v9a080kl1lg491q120c  0707  0d    ",
"0707      5y2l6j6n4adbdi4e7ceb//31193x19291313351w++0k0k2e0a1a0uj02r0b33kh9hlhm29d2on9  2727  21    ",
"0707      0e0h0h0c112mdjdrdzeces3x1g1g797mgggo382g..770f0k0f1u4d5u6129k58bl2lim32kmw67  0q0q  0d    ",
"  0d233f0e    XXXX0x0c242xe0edetf16l18832s2f0f0k0a..0z0z2f354g44j1jgjq2iki9iljm4240iXX0e0d0e        ",
"    07230d  XXcm0e  270ids2xee4n1j7pflfsg26t0ugwh20zhhht4d6q18io2ijhjr2nkj2k40240i070e0d0e  0d      ",
"0x0x        0h21      XX4h5oefeu7gfa1j84g38b7r3t6xh978hui28yigipj2395l9dkkl30m4hXX                  ",
"0x0x        0h0h        0eXX7f12f27qfmft5ngh4q8h4ehahi8v1j4nihiq954o3s160c0q0dXX            210h    ",
"                            XX0c15fb1q2k2x517q8i393ihjhv7d5kii6d16120m2lXX                          ",
"                                  0c7y16g45pgp4o8jhbhkhwi33m7j7y0c                                  "
};