/* XPM */
static char *picture[] = {
"50 50 822 2 ",
"   c None",
"XX c #2F65C5",
"++ c #030208",
".. c #2358B6",
"|| c #2557B6",
"// c #2358B8",
"06 c #194BAA",
"07 c #2258B8",
"08 c #020307",
"09 c #3B73D2",
"0a c #2E66C7",
"0b c #030305",
"0c c #02020A",
"0d c #040207",
"0e c #3974D2",
"0f c #2259B6",
"0g c #1A4BAA",
"0h c #2E66C5",
"0i c #2F65C7",
"0j c #3065C3",
"0k c #2F66C3",
"0l c #3C72D2",
"0m c #000218",
"0n c #3065C5",
"0o c #1C4AAA",
"0p c #02020C",
"0q c #020106",
"0r c #113C9B",
"0s c #2459B7",
"0t c #4883E1",
"0u c #113C9A",
"0v c #000211",
"0w c #020308",
"0x c #133C98",
"0y c #3C73D0",
"0z c #2F67C6",
"10 c #1D49A8",
"11 c #4784DF",
"12 c #000213",
"13 c #00020E",
"14 c #00030C",
"15 c #1D4AA7",
"16 c #2557B8",
"17 c #2558B4",
"18 c #4883DF",
"19 c #2257B5",
"1a c #000215",
"1b c #2E64C4",
"1c c #2657B6",
"1d c #3B73D0",
"1e c #3974D0",
"1f c #00021A",
"1g c #1C4AA8",
"1h c #2D62C0",
"1i c #163B94",
"1j c #1A4BA8",
"1k c #2D65C4",
"1l c #3264C3",
"1m c #2C67C5",
"1n c #103C9B",
"1o c #2C66C7",
"1p c #040308",
"1q c #010206",
"1r c #00010D",
"1s c #000C2E",
"1t c #3166C6",
"1u c #3066C6",
"1v c #2456B5",
"1w c #2657B4",
"1x c #00020F",
"1y c #4A82DF",
"1z c #2358B4",
"20 c #000B38",
"21 c #133B9A",
"22 c #3B73D4",
"23 c #2459B9",
"24 c #1E49A8",
"25 c #000B37",
"26 c #133C96",
"27 c #2159B6",
"28 c #00021C",
"29 c #020B2C",
"2a c #1D49AA",
"2b c #0F348C",
"2c c #000C33",
"2d c #3066C8",
"2e c #2D62BE",
"2f c #2F67C8",
"2g c #1B49A7",
"2h c #2857B1",
"2i c #2E66C3",
"2j c #2258BA",
"2k c #194AA9",
"2l c #10348A",
"2m c #2159B8",
"2n c #10348C",
"2o c #133483",
"2p c #2257B7",
"2q c #2F61C0",
"2r c #00030F",
"2s c #000B33",
"2t c #010C2A",
"2u c #061540",
"2v c #050B23",
"2w c #020B28",
"2x c #2658B7",
"2y c #143C94",
"2z c #143C93",
"30 c #3067C4",
"31 c #2857B3",
"32 c #020107",
"33 c #174CAA",
"34 c #020B2A",
"35 c #1E49A5",
"36 c #132B6B",
"37 c #143B96",
"38 c #103488",
"39 c #001A6A",
"3a c #1C4BA7",
"3b c #3C74D1",
"3c c #184AAB",
"3d c #143B98",
"3e c #2157B7",
"3f c #0F245B",
"3g c #3973D4",
"3h c #3A72D1",
"3i c #4784E1",
"3j c #3875D2",
"3k c #3A75D3",
"3l c #0F348D",
"3m c #2048A7",
"3n c #000318",
"3o c #000B3A",
"3p c #030106",
"3q c #03020A",
"3r c #03030D",
"3s c #01010B",
"3t c #122454",
"3u c #000316",
"3v c #03030B",
"3w c #010B2E",
"3x c #000C2F",
"3y c #000313",
"3z c #1E4AA1",
"40 c #040B27",
"41 c #2957AD",
"42 c #02020E",
"43 c #3364C3",
"44 c #2556B3",
"45 c #000C38",
"46 c #000319",
"47 c #050308",
"48 c #3264C5",
"49 c #103586",
"4a c #1E4AA3",
"4b c #2958B4",
"4c c #3166C4",
"4d c #2C63BE",
"4e c #3265C1",
"4f c #3065C1",
"4g c #1A3375",
"4h c #2158B5",
"4i c #2259B4",
"4j c #2F66C1",
"4k c #2D65C2",
"4l c #07153C",
"4m c #4984E2",
"4n c #2657B3",
"4o c #122B6D",
"4p c #173B8F",
"4q c #194AA7",
"4r c #184AA9",
"4s c #0F2C72",
"4t c #1D4BAB",
"4u c #3D73D3",
"4v c #194CA8",
"4w c #14347F",
"4x c #173B93",
"4y c #2048A8",
"4z c #163B93",
"50 c #25438B",
"51 c #102459",
"52 c #163B96",
"53 c #0F358A",
"54 c #2049A1",
"55 c #3061BD",
"56 c #3D72D0",
"57 c #1A4AAC",
"58 c #1D4BA3",
"59 c #2F62BE",
"5a c #1B4CAB",
"5b c #19459E",
"5c c #0D358D",
"5d c #143383",
"5e c #2D65C6",
"5f c #0F3B9A",
"5g c #174CAC",
"5h c #4A82E1",
"5i c #2D68C6",
"5j c #183376",
"5k c #3C74D3",
"5l c #3061BE",
"5m c #2C62C2",
"5n c #000216",
"5o c #1E49A7",
"5p c #2049A5",
"5q c #030408",
"5r c #000B35",
"5s c #050306",
"5t c #040108",
"5u c #00030E",
"5v c #000110",
"5w c #000221",
"5x c #000112",
"5y c #061441",
"5z c #01154A",
"60 c #00031A",
"61 c #040309",
"62 c #00030A",
"63 c #162B62",
"64 c #4670C2",
"65 c #040B25",
"66 c #020305",
"67 c #1B3B88",
"68 c #163C91",
"69 c #3664BA",
"6a c #4371C6",
"6b c #000D31",
"6c c #000119",
"6d c #010C2C",
"6e c #25489A",
"6f c #2148A3",
"6g c #000C31",
"6h c #000B3E",
"6i c #092564",
"6j c #2C55A4",
"6k c #000414",
"6l c #122357",
"6m c #3F72CB",
"6n c #001551",
"6o c #143584",
"6p c #3465C4",
"6q c #2956AB",
"6r c #3364C1",
"6s c #0F3C99",
"6t c #2F54A5",
"6u c #274895",
"6v c #01010D",
"6w c #010109",
"6x c #000C3A",
"6y c #3164C0",
"6z c #2F61BA",
"70 c #153C97",
"71 c #2D64BF",
"72 c #2359B9",
"73 c #183473",
"74 c #000320",
"75 c #2658B9",
"76 c #103D9A",
"77 c #3D72D2",
"78 c #1949AB",
"79 c #1F4492",
"7a c #122C69",
"7b c #031440",
"7c c #1E4BA8",
"7d c #204AA0",
"7e c #031547",
"7f c #0F3D9D",
"7g c #2659B5",
"7h c #184BA7",
"7i c #204395",
"7j c #16337F",
"7k c #1F4AA9",
"7l c #4B81E1",
"7m c #123D9C",
"7n c #1845A2",
"7o c #133485",
"7p c #173B91",
"7q c #3C72D4",
"7r c #123B97",
"7s c #041958",
"7t c #17337C",
"7u c #11338A",
"7v c #001A66",
"7w c #163381",
"7x c #041A56",
"7y c #000113",
"7z c #0C2C79",
"80 c #0C2B7B",
"81 c #163A92",
"82 c #1D4BA9",
"83 c #0E3C9A",
"84 c #3460B7",
"85 c #0B2C7B",
"86 c #2E65C2",
"87 c #2F62BD",
"88 c #2049A3",
"89 c #0F3588",
"8a c #204492",
"8b c #365395",
"8c c #3F72CE",
"8d c #3265C0",
"8e c #1F4494",
"8f c #103C9D",
"8g c #235AB7",
"8h c #2C62C4",
"8i c #0E245D",
"8j c #3873D1",
"8k c #1B449C",
"8l c #021A5A",
"8m c #133C94",
"8n c #164CAC",
"8o c #1D4AA5",
"8p c #1C449B",
"8q c #152B67",
"8r c #3874D4",
"8s c #4783E3",
"8t c #173C95",
"8u c #2F60BD",
"8v c #4584E1",
"8w c #24499A",
"8x c #4484DE",
"8y c #3976D3",
"8z c #183C92",
"90 c #040B28",
"91 c #2C61BF",
"92 c #4585DF",
"93 c #113D96",
"94 c #102B6E",
"95 c #3D74D1",
"96 c #020C27",
"97 c #2B66C4",
"98 c #2257B3",
"99 c #2857AF",
"9a c #000B31",
"9b c #040205",
"9c c #001B66",
"9d c #395FB0",
"9e c #3364C0",
"9f c #081538",
"9g c #0D348F",
"9h c #0F3D9B",
"9i c #1B449E",
"9j c #2348A0",
"9k c #030409",
"9l c #1746A0",
"9m c #2955B4",
"9n c #14357A",
"9o c #1F4397",
"9p c #102554",
"9q c #020204",
"9r c #00021E",
"9s c #030C2B",
"9t c #020109",
"9u c #14234C",
"9v c #1E336A",
"9w c #080B1A",
"9x c #00021F",
"9y c #395390",
"9z c #3E60A7",
"a0 c #18356F",
"a1 c #162449",
"a2 c #080C18",
"a3 c #132557",
"a4 c #031955",
"a5 c #0B2467",
"a6 c #16347C",
"a7 c #3054A0",
"a8 c #0C2E6E",
"a9 c #00031F",
"aa c #08143A",
"ab c #0F2459",
"ac c #3A538C",
"ad c #3D5385",
"ae c #000D35",
"af c #00021D",
"ag c #01040D",
"ah c #00154C",
"ai c #102B70",
"aj c #183B8D",
"ak c #183B8F",
"al c #0B2E72",
"am c #000A30",
"an c #172B5D",
"ao c #264588",
"ap c #395FAA",
"aq c #3A60A7",
"ar c #163575",
"as c #000D3C",
"at c #000212",
"au c #010204",
"av c #1A2B59",
"aw c #203B80",
"ax c #2E61BD",
"ay c #4173CA",
"az c #1E468E",
"b0 c #000D3E",
"b1 c #00042F",
"b2 c #061443",
"b3 c #000B40",
"b4 c #224998",
"b5 c #173575",
"b6 c #011547",
"b7 c #0E2A73",
"b8 c #163A90",
"b9 c #2656B8",
"ba c #2856A4",
"bb c #082767",
"bc c #001653",
"bd c #0E2C72",
"be c #23438C",
"bf c #15367B",
"bg c #072669",
"bh c #00195C",
"bi c #01195F",
"bj c #001A64",
"bk c #113485",
"bl c #2A56AF",
"bm c #2758B4",
"bn c #254997",
"bo c #365399",
"bp c #1C3470",
"bq c #3066C0",
"br c #4072C7",
"bs c #3960AD",
"bt c #3963B9",
"bu c #3462BA",
"bv c #2C56AA",
"bw c #204596",
"bx c #122B6B",
"by c #000312",
"bz c #00011B",
"c0 c #00164C",
"c1 c #13357F",
"c2 c #1B459B",
"c3 c #4C83DD",
"c4 c #3F72CD",
"c5 c #2658B1",
"c6 c #2558B3",
"c7 c #22479F",
"c8 c #3054A2",
"c9 c #041541",
"ca c #010B26",
"cb c #142551",
"cc c #132C65",
"cd c #264385",
"ce c #23458F",
"cf c #1E4393",
"cg c #1C469A",
"ch c #2756B2",
"ci c #3A72D3",
"cj c #2D62C2",
"ck c #2758B7",
"cl c #103B99",
"cm c #1E4BA6",
"cn c #1F48A0",
"co c #3053A4",
"cp c #000417",
"cq c #112353",
"cr c #254487",
"cs c #2F55A6",
"ct c #1E4BA0",
"cu c #2957AF",
"cv c #2C67C3",
"cw c #2E64C6",
"cx c #2957B5",
"cy c #2F54A2",
"cz c #274382",
"d0 c #021540",
"d1 c #050C1F",
"d2 c #132B67",
"d3 c #183D8E",
"d4 c #4981E0",
"d5 c #1B4BAD",
"d6 c #2A57AC",
"d7 c #1F4AA8",
"d8 c #1E4AAB",
"d9 c #1C49A4",
"da c #14347D",
"db c #0F2356",
"dc c #1B4CA9",
"dd c #060A23",
"de c #08143E",
"df c #162C68",
"dg c #1C48A9",
"dh c #1C49A6",
"di c #143D97",
"dj c #0F3389",
"dk c #142C68",
"dl c #000123",
"dm c #061347",
"dn c #0D2C7C",
"do c #2148A5",
"dp c #0F3E9A",
"dq c #113D9C",
"dr c #103B9A",
"ds c #1B49A9",
"dt c #2359BB",
"du c #2457B3",
"dv c #2856B4",
"dw c #1944A2",
"dx c #010A31",
"dy c #051852",
"dz c #112C73",
"e0 c #163A98",
"e1 c #0C358D",
"e2 c #1C4499",
"e3 c #2F55A8",
"e4 c #20418E",
"e5 c #1B3476",
"e6 c #113486",
"e7 c #10328B",
"e8 c #123384",
"e9 c #072C7D",
"ea c #133B9B",
"eb c #2C56AC",
"ec c #1E4495",
"ed c #16347D",
"ee c #061A4F",
"ef c #050A20",
"eg c #071850",
"eh c #142B6F",
"ei c #17317B",
"ej c #143385",
"ek c #0A2B7C",
"el c #0B2C7D",
"em c #123382",
"en c #0C2D7E",
"eo c #4C82E2",
"ep c #164BAB",
"eq c #3062BB",
"er c #2D55AA",
"es c #193A89",
"et c #000223",
"eu c #152A6B",
"ev c #001963",
"ew c #0D2D7A",
"ex c #173484",
"ey c #143582",
"ez c #1E4497",
"f0 c #0F2A6F",
"f1 c #172A62",
"f2 c #113589",
"f3 c #103289",
"f4 c #001A6D",
"f5 c #133785",
"f6 c #113583",
"f7 c #0B348E",
"f8 c #2B62BF",
"f9 c #3261BB",
"fa c #153580",
"fb c #041543",
"fc c #3D5289",
"fd c #33539C",
"fe c #2E56AB",
"ff c #123587",
"fg c #103387",
"fh c #2159BA",
"fi c #2A57B2",
"fj c #102457",
"fk c #000328",
"fl c #162550",
"fm c #4C82DC",
"fn c #3063BF",
"fo c #00032A",
"fp c #011A5A",
"fq c #2E55A4",
"fr c #4C82DA",
"fs c #4882E3",
"ft c #164BA9",
"fu c #2956B1",
"fv c #020A2E",
"fw c #133481",
"fx c #3B71D1",
"fy c #3A74D5",
"fz c #164DAA",
"g0 c #1B4AA6",
"g1 c #234491",
"g2 c #051B54",
"g3 c #000B3C",
"g4 c #031346",
"g5 c #2B65C6",
"g6 c #000A37",
"g7 c #03144A",
"g8 c #092C7D",
"g9 c #2C61BD",
"ga c #1944A0",
"gb c #000B46",
"gc c #0F328C",
"gd c #143D99",
"ge c #4885E2",
"gf c #2D63BD",
"gg c #3063BE",
"gh c #17337D",
"gi c #071546",
"gj c #000125",
"gk c #000C46",
"gl c #173B99",
"gm c #2C63C0",
"gn c #1A4CAB",
"go c #2F60BC",
"gp c #102B72",
"gq c #000C41",
"gr c #1A3373",
"gs c #3055A5",
"gt c #133A97",
"gu c #2158B3",
"gv c #235AB5",
"gw c #4885E0",
"gx c #32549E",
"gy c #2D55AC",
"gz c #153D95",
"h0 c #103B97",
"h1 c #2B64BE",
"h2 c #4683DE",
"h3 c #3165C8",
"h4 c #2058B5",
"h5 c #3061C0",
"h6 c #1F4294",
"h7 c #010B2F",
"h8 c #000118",
"h9 c #000325",
"ha c #122452",
"hb c #355497",
"hc c #0A368F",
"hd c #2755B3",
"he c #1A4498",
"hf c #1B3B84",
"hg c #0E235A",
"hh c #000326",
"hi c #294380",
"hj c #0F3387",
"hk c #4984E0",
"hl c #4983E4",
"hm c #2F64C4",
"hn c #1546A2",
"ho c #17449F",
"hp c #183D8D",
"hq c #112A6A",
"hr c #000C37",
"hs c #011548",
"ht c #2B68C5",
"hu c #2B63C0",
"hv c #2456B7",
"hw c #0D409C",
"hx c #2459B5",
"hy c #3361B7",
"hz c #2C55AD",
"i0 c #162C66",
"i1 c #0F245D",
"i2 c #18337A",
"i3 c #092C7E",
"i4 c #0D3E9D",
"i5 c #0C358F",
"i6 c #0B2C79",
"i7 c #244799",
"i8 c #2E54A9",
"i9 c #3460B9",
"ia c #23499A",
"ib c #030A26",
"ic c #081541",
"id c #162A67",
"ie c #1B44A0",
"if c #1C439E",
"ig c #173990",
"ih c #001A6B",
"ii c #0F2B75",
"ij c #001A61",
"ik c #001964",
"il c #143481",
"im c #3E60A8",
"in c #041447",
"io c #001B5F",
"ip c #3262B6",
"iq c #2856B6",
"ir c #052D85",
"is c #153A92",
"it c #1C449C",
"iu c #1D459D",
"iv c #001A68",
"iw c #122A72",
"ix c #04195A",
"iy c #001555",
"iz c #193576",
"j0 c #3A538B",
"j1 c #000115",
"j2 c #3665B5",
"j3 c #3B74CE",
"j4 c #3A75D1",
"j5 c #3E71CA",
"j6 c #011A5D",
"j7 c #081951",
"j8 c #08163B",
"j9 c #030C2D",
"ja c #0E255B",
"jb c #3964B2",
"jc c #4B82DD",
"jd c #0B3589",
"je c #3362BA",
"jf c #000210",
"jg c #031641",
"jh c #2F559C",
"ji c #3365BE",
"jj c #3875D0",
"jk c #1746A2",
"jl c #10358D",
"jm c #0C3489",
"jn c #18469E",
"jo c #4B83E2",
"jp c #0C3493",
"jq c #0E2B77",
"jr c #152B65",
"js c #000114",
"jt c #000D2D",
"ju c #0E2D6D",
"jv c #4471C2",
"jw c #3C74CB",
"jx c #1C4BA5",
"jy c #2F64C0",
"jz c #19479F",
"k0 c #4782E0",
"k1 c #17347A",
"k2 c #031448",
"k3 c #030007",
"k4 c #021744",
"k5 c #143675",
"k6 c #3462AD",
"k7 c #4F83D6",
"k8 c #4A83DC",
"k9 c #0E368D",
"ka c #3263C2",
"kb c #3067C2",
"kc c #2956B3",
"kd c #1A3B8A",
"ke c #0C2462",
"kf c #06153E",
"kg c #050209",
"kh c #01030F",
"ki c #000D2F",
"kj c #0D275A",
"kk c #315498",
"kl c #3465C2",
"km c #0F3485",
"kn c #1C459D",
"ko c #3160BC",
"kp c #183A93",
"kq c #3E73D1",
"kr c #3C73CE",
"ks c #214AA4",
"kt c #3664C2",
"ku c #3360BD",
"kv c #183378",
"kw c #041445",
"kx c #040A2A",
"ky c #000C2C",
"kz c #001648",
"l0 c #214A9A",
"l1 c #3660B6",
"l2 c #244A9D",
"l3 c #0C2C77",
"l4 c #1F4AA6",
"l5 c #1A4BA7",
"l6 c #1D49A2",
"l7 c #0B2B7E",
"l8 c #3D73CD",
"l9 c #2B55AB",
"la c #082C80",
"lb c #1F48A2",
"lc c #23438E",
"ld c #000116",
"le c #0D265E",
"lf c #345396",
"lg c #23448B",
"lh c #011A5C",
"li c #00165B",
"lj c #173A8C",
"lk c #2F54A4",
"ll c #001A63",
"lm c #000B4E",
"ln c #001960",
"lo c #2A56AD",
"lp c #103385",
"lq c #090B18",
"lr c #162B60",
"ls c #132354",
"lt c #193A8B",
"lu c #000B43",
"lv c #1A4CA5",
"lw c #3164BF",
"lx c #3562B5",
"ly c #072565",
"lz c #132D6A",
"m0 c #274287",
"m1 c #00041B",
"m2 c #0B1530",
"m3 c #000324",
"m4 c #254290",
"m5 c #24489C",
"m6 c #3354A1",
"m7 c #000C45",
"m8 c #33549B",
"m9 c #1F4596",
"ma c #2D56A8",
"mb c #000D33",
"mc c #00031E",
"md c #16234D",
"me c #1B2B5C",
"mf c #15244F",
"mg c #132452",
"mh c #112C6F",
"mi c #173476",
"mj c #193272",
"mk c #172B60",
"ml c #132450",
"mm c #3A528E",
"mn c #010A27",
"mo c #08143C",
"mp c #020D2D",
"mq c #0B1435",
"mr c #1A2A5B",
"ms c #000C2D",
"mt c #000315",
"08080b0b0d0d                      0pefet3o205w40fv25g7gbgkgq20h92v0v++9b0q        1p  0q0808        ",
"08080b0b0d0d        ++0w++0c421x0v0m2925f1fcflfo25g48q4g5jgr63hahh961a6v0c++            1q08        ",
"++  0b0b0b0b0b0b080w0c140c1xdddldx20egeu50fd8bfp6n8l7t6u8wgsgxhbhihs2cib0v0c32  ++32++++5q08  3p    ",
"++    0b0b0b0b  0w1412d10m2wdedmdy7sehevf2fe64fqfw7zg82l6f88gy8w6o4si1ic2wj10v130c61++++1q    0d    ",
"              ++6w3y744l7bdbdf4odz7teiew2z2hfmfr588m2bgcglgtgz4zhj2oi2idin2cj91f2r0c32++1p  ++++    ",
"            ++0pbycacqd24o4s7jdn7o2o7v7z2z4n1y0tfx440ugd210uh0hc262zi39cio7ajajgjt3nkh++    ++++    ",
"++++0808660b  42bzcbcrd34p2l2n4x7pe67wexf3350yfs224u1l8u2q1l1l1l1l8u2h99ipj2jbjhjuk43n0c9k08++++    ",
"++    086608++123xcccs76d70u21do1i7u3939f42y8c3gfyg5XXXX3h090lXX1u1t910j1dj3jcjijvk5ki6k140w++      ",
"      0b080w0c0m6xcdct1c1g107k2152e7ej5d804p8d0e5i0e1o095k0hXX07//1v||||0k09091djwk6kjky1a0c        ",
"    0b  ag136k2tc0cecu0n1l0g2a4ye02nek5d39384b4u8j5i3g0a1kXXXX07..||0g2x0f1k0e3j11k7kkkz74lq0w9q    ",
"0d  0b623u2w6d456icf2h770y..1n21522lel2of58915482d5e0a0i070f07XX30..3c1v2e711e1111k86a9n7b1f3r47    ",
"0d++3v3y3xav6l6nc1cg1jXX180y0o0u1i38emeyf6893d8f480i2jXX....070l0k..575a174d1ejj111d8cl0le1s12++    ",
"0d9t5x2tahawb76oc2ch0sd4181y0jdp53e87w7v85ff2n0x4q778h07..915m0l0y7h7f0o061h0e180y98kll1lf9pm114++  ",
"0d3r1f2uai6eb82y4b0s1b0e0t187l4e54e9en807ofg2n3d1g561bXX..1z5m0995330g78//XX0t3b179l93l2lglrm2130w  ",
"  5u9xa3676f0x1544712i4m0t0e220y55585c812l2n3d241n430lXX0fgu72095h0z0i0a3hj40t0y9lk9km9clhls2v0p++  ",
"082r3w63aj0r2a6p4c0kcv181m0hXXXX56593a35f7265f0o0o0g0l1k0f4i0f0h0t1m1o3g3j114m0kjx8p49l3li5zm3120c  ",
"  5v2sa4ak0r0g1t0ici090z0hXX//||0n0j0j0s6y172x||06060909gmgv4i2i3kht0e0e3k0t0aXX8758kn68lj4s7e2t1x  ",
"0p0m5ya5681g43//2d2f0z1kXX190g2k2k0neo090h0h0l0l0j4h1m8j3b4jh11e113i0e090e1m0zXX4f55kol437lt4omg0m0p",
"1a5w5za63z||b9481h4h0k0f0s0gdgdq1n5a..1d3b4k3e07095i8r3j1e1e181111180h070z0zXX0fjy596p10527um48q291a",
"9s9u9ya769ax2x||2e4i1h..064t0rdr101j||0f861d0l0z090t8s8v11gwh211hkhu06065g0j..171z1h1l1g9g4x6emhmo1f",
"3o9v9z646aay6mbq4d4j0j||062k7m0r1c060g0606..1b5h1y183ige8x923i0t3h062a0r0o1g15jk061h2ql5269jm5mi2c28",
"5r3ta0a8alazbabrc34k1h1h19||0ods060s1c1c||33//0f2i1e0e3i8x923j0e5mhv8f0r240u260x2gka6r2h7d6tm6mj4l28",
"123u60a96bb0bb6j6m091u1bXX1b0n231bXX//2323//||ft0f4k1k0t8y8v8r1o0hXX3c4t5o9g2bjl0x7c9ml6lk504gmk9f96",
"  0q  0p0m6gbcbsc40acw0i0h0hXX07220aXXXX07234r..0f272m090e8y3g1o1m0zXX||158m53535c0x0x7pll8lm73omp28",
"    1p132vb1bdbt4e722j0i0h2m2j0i0i220909XXXX2p8g27271u3e072m1o8s1m970a0k9e41jdjm2y3lkp39lmlu6h5r9r5n",
"    08132v5ybebu17XXXXXX1u4u0idt2d0a0h0909XXXXXX2i271b07//070a1o0e3k0a094jj5jejnjz4a1il7ln7s3fmlmq1f",
"5s0b1q140m2ubf6q4fXX//..33..1tXX2d0a0a2f5efh0iXX0k8g////||23XX0h5k971m0e0e1e1d0y0kkbkq9elo9dm8mmmr2c",
"3p0d1p1r6c2ubgbv6yXX||064q2k06//7q0a225e0a0a2j0707191t//gn||//XX0h0e0e3k0e0t5hjok04m0e09XXlvm98b3t6g",
"5t0d  1r40b2bhbw6z30||1j7c760g162d2f0a1o0a0a0iXX//0s//0n4r06//07271d5k090j2q1c2q0y1e180e09lwma73msmt",
"3q3q0p5x296hbi49c50j||0o0u0u2g060n0i0a0a0a2f0i070s..2p//||||23072m3bXX..0g9h5f831v0kkrl88dlx9n9p3n62",
"3r131265amb3bj2bc60k160od8104q||0nXX070z1k0hXXXX19..//0n2p//h30ihl1ki40oiq0o0r7m0o1j8ol98elymb3n1r++",
"3s9w28aaan6ibk4a4e0y16d52a7f1wdu4c//ep072m0h07070s198nXX//072j0a22071n24155o3m241015549o4w8imc133q5t",
"++123xabaob4bl6r0j0n16782k1j4v7g||||||//1u0aXX//......0j0f0fXX7q0l06100xir3l3d3m7k0u5cla2olz1s120c  ",
"  0va1acap4144160ncj75061v4v1717||065a1v0i2f//......4c..0f0f0z7l56hw10ieis8170jp1n15ks4zlp5jmd0m14  ",
"  2r2tadaq69bm0g0gck16||067g1c||||060g060a09....0j070n0s..0fh41y95982g0x3l8t5p0u9h1w9m2638m0memn1x  ",
"  140maear6j3z6s6s2g||||||7h0g06062x0g||XXXX..0s0l07////194h271d1yhx15ifit2y7r1n0g43ktlb2o36mf9r13  ",
"  3va2afasb5bn2z70clcx0g1c0g||06570o1g8216//..0k3h0h163c..0f2i090l4vi51iiu9i210r0g5lku9o943t2w5v0c  ",
"  ++0c3y6db6bo6t1i0x1g064r||||1c4t2a1n8357//XX1y0h3e2p16..303eXXXX1w3l2l375p3m0r2gkc54lc3f1s1a0c++  ",
"    6114at1sbp6uc7cm1j..0f..1wdv10240r5f3cXX0l0hfz8nXX1u19..1t2phm1j2big375p3m215o9i7i5j2u605u0w    ",
"      ++3v0m45bxc8cn310j0j1z317n240r4y10750lXX07..19XXXX33......0n3138ih4x1i9j2b8zkdkv51340v0c0q    ",
"0d0d    ++42462c4gco3z4n1wdcdhdw4yea0u10||//5g5g..0j190f300f..1z0f9985iiiv5d67jqk1kekw3w1a0p++++    ",
"0d        ++3s46c973cyd6d915350x7r0u7n82||..1t//....0s4f0k4d..1z1zhyi6ijiwj636jrk2kfkxld0p++++++    ",
"        0b1p++6v1a6bcz797d35di37e15b4n||0kXX0i8hXX1bg9gf2e171v0ghn84i7ikixj7201s401a1x3s++          ",
"0808    au0b47++0ccpd07ada7idj4ze26qeq2ef8XX0hXXXX..59gggo5lh5hdhohzi8iliy6x34js1r0c++1p0d0d  1q    ",
"    0q0q    0d0d++1r461s7e364w49e3eb416z872e860k2q1w3a2h3a315l4b5b8ki99diz250m0c++++    9b5s        ",
"0q    0q    0d  ++0w6w123420dk50e4ecer84f955fn17g08oga5b26934ahehp8aiaimj0j8jf0b470d    0b9q0q      ",
"08        08      1q++0p0v654l51e5edesez88fi3afu8k8p8t1i8z4ph6hfhqi07x519f0m14  k3kg  1q5q    0d    ",
"080q      08    08    320c2r1f3w45ee7xf0fa8a8e79g14w7jghgp9436hghr9a9a295n1r9k  ++++  5q08  0q3p    ",
"                        ++0c130v3u1f342sfbfj3f8ig23f6lgi252sh7905n0v0v1x0p0w                        ",
"                                  0c7y6c29fk2520g3g62sgj9028h87y0c                                  "
};