/* XPM */
static char *picture[] = {
"50 50 817 2 ",
"   c None",
"XX c #2459B9",
"++ c #2E66C3",
".. c #2F66C3",
"|| c #040207",
"// c #2359B9",
"06 c #030208",
"07 c #2F65C5",
"08 c #3772D0",
"09 c #3971D0",
"0a c #2459B7",
"0b c #2658B9",
"0c c #1C4EAF",
"0d c #030305",
"0e c #3971CE",
"0f c #1D4EAD",
"0g c #2E66C5",
"0h c #235AB7",
"0i c #1D4DAF",
"0j c #02020C",
"0k c #3065C3",
"0l c #113F9F",
"0m c #020106",
"0n c #4582DD",
"0o c #3772CE",
"0p c #1A4FAF",
"0q c #040308",
"0r c #02020A",
"0s c #000211",
"0t c #020307",
"0u c #2658B7",
"0v c #3067C4",
"0w c #1F4DAD",
"0x c #00020F",
"0y c #3A70D0",
"0z c #2C67C3",
"10 c #2358B8",
"11 c #255ABA",
"12 c #000215",
"13 c #1F4DAB",
"14 c #1C48A1",
"15 c #2757B9",
"16 c #1C4EAD",
"17 c #11358D",
"18 c #133E9C",
"19 c #00021A",
"1a c #030929",
"1b c #0E368E",
"1c c #2758B4",
"1d c #123E9D",
"1e c #4880DD",
"1f c #3673D0",
"1g c #153E98",
"1h c #000213",
"1i c #3A71CC",
"1j c #3065C5",
"1k c #3673CE",
"1l c #3A71CE",
"1m c #113F9D",
"1n c #4681DF",
"1o c #02020E",
"1p c #00030C",
"1q c #000A2D",
"1r c #000A34",
"1s c #2758B7",
"1t c #2659B5",
"1u c #214CAA",
"1v c #4681DD",
"1w c #0F409F",
"1x c #4582DF",
"1y c #00020E",
"1z c #010A29",
"20 c #020308",
"21 c #000218",
"22 c #000316",
"23 c #2758B5",
"24 c #204CAB",
"25 c #07236D",
"26 c #3265C1",
"27 c #10358E",
"28 c #173480",
"29 c #3166C4",
"2a c #000B32",
"2b c #2958B2",
"2c c #020305",
"2d c #1C4DAC",
"2e c #123E9F",
"2f c #2E65C2",
"2g c #245ABA",
"2h c #2D65C2",
"2i c #225AB7",
"2j c #2658BB",
"2k c #2957B5",
"2l c #03010C",
"2m c #030A26",
"2n c #000117",
"2o c #00031A",
"2p c #010A2B",
"2q c #01092D",
"2r c #031346",
"2s c #172F6B",
"2t c #172F6F",
"2u c #123586",
"2v c #3D6FCE",
"2w c #0E368D",
"2x c #1B48A5",
"2y c #11358B",
"2z c #1B48A3",
"30 c #010109",
"31 c #3166C6",
"32 c #1A4FAD",
"33 c #5592ED",
"34 c #255AB8",
"35 c #1E4FAE",
"36 c #11409C",
"37 c #1B4DAE",
"38 c #153484",
"39 c #17357D",
"3a c #2957B7",
"3b c #2F67C4",
"3c c #0E3590",
"3d c #3A72CF",
"3e c #021347",
"3f c #2358B6",
"3g c #040205",
"3h c #040108",
"3i c #000410",
"3j c #00030F",
"3k c #000313",
"3l c #000216",
"3m c #000930",
"3n c #000A2E",
"3o c #000A37",
"3p c #101E4D",
"3q c #11378A",
"3r c #00030A",
"3s c #18347E",
"3t c #1F479C",
"3u c #042375",
"3v c #00092A",
"3w c #010206",
"3x c #113589",
"3y c #1B4DAC",
"3z c #10348A",
"40 c #2759B8",
"41 c #123F9A",
"42 c #000A32",
"43 c #2F64C0",
"44 c #123587",
"45 c #2557B8",
"46 c #1849A6",
"47 c #4683DE",
"48 c #3264C3",
"49 c #000209",
"4a c #1C4EB1",
"4b c #1E489E",
"4c c #4481DC",
"4d c #2258B8",
"4e c #1C4CAE",
"4f c #050308",
"4g c #396FCF",
"4h c #1E4CAE",
"4i c #1E4CAA",
"4j c #1B47A6",
"4k c #3065C1",
"4l c #1849A8",
"4m c #1A48A8",
"4n c #000A30",
"4o c #163D98",
"4p c #10358D",
"4q c #3264C5",
"4r c #123589",
"4s c #1F4DAF",
"4t c #2F67C6",
"4u c #204DA8",
"4v c #12348B",
"4w c #1C4FAB",
"4x c #11338A",
"4y c #3066C6",
"4z c #143489",
"50 c #2E64C4",
"51 c #214DA6",
"52 c #00247C",
"53 c #3972CC",
"54 c #3671CF",
"55 c #3873CF",
"56 c #5293EF",
"57 c #3A72D1",
"58 c #2657B6",
"59 c #204CAD",
"5a c #3364C3",
"5b c #000A36",
"5c c #0F409D",
"5d c #1A48A6",
"5e c #000B2B",
"5f c #2159B6",
"5g c #183E93",
"5h c #000B2D",
"5i c #000115",
"5j c #020107",
"5k c #03020A",
"5l c #030106",
"5m c #00011E",
"5n c #000318",
"5o c #010B26",
"5p c #00010E",
"5q c #000A2C",
"5r c #030408",
"5s c #000116",
"5t c #000118",
"5u c #051344",
"5v c #26468F",
"5w c #001449",
"5x c #020109",
"5y c #020A2E",
"5z c #031344",
"60 c #193D91",
"61 c #173069",
"62 c #113687",
"63 c #00134D",
"64 c #0D1E52",
"65 c #3663C0",
"66 c #19367A",
"67 c #000933",
"68 c #18347D",
"69 c #142F76",
"6a c #173484",
"6b c #143F9D",
"6c c #214697",
"6d c #1E489C",
"6e c #204EA6",
"6f c #032473",
"6g c #193D95",
"6h c #1F489A",
"6i c #3466BF",
"6j c #0E3592",
"6k c #21479C",
"6l c #162F72",
"6m c #142F72",
"6n c #1A49A3",
"6o c #153E96",
"6p c #214CA8",
"6q c #2659B4",
"6r c #133F98",
"6s c #163E96",
"6t c #010204",
"6u c #235AB5",
"6v c #1D4EAB",
"6w c #0B3790",
"6x c #163F99",
"6y c #000315",
"6z c #061F61",
"70 c #1950AD",
"71 c #2459B5",
"72 c #133E9A",
"73 c #163E95",
"74 c #03030B",
"75 c #000A35",
"76 c #245BB8",
"77 c #2D65C4",
"78 c #204EAC",
"79 c #1E479F",
"7a c #22469A",
"7b c #091F59",
"7c c #051340",
"7d c #000114",
"7e c #3E70CF",
"7f c #123076",
"7g c #000B29",
"7h c #2F64C4",
"7i c #162F6F",
"7j c #2F64C2",
"7k c #4383DD",
"7l c #4782DE",
"7m c #235BBA",
"7n c #184AA3",
"7o c #092167",
"7p c #061340",
"7q c #00021C",
"7r c #3870CF",
"7s c #3971D2",
"7t c #1E4CAC",
"7u c #193D93",
"7v c #113D9E",
"7w c #1B4AA6",
"7x c #000112",
"7y c #040A24",
"7z c #113488",
"80 c #042373",
"81 c #0F348C",
"82 c #1C47A3",
"83 c #1240A0",
"84 c #2259B6",
"85 c #010A27",
"86 c #00011A",
"87 c #183382",
"88 c #143487",
"89 c #1E4EB0",
"8a c #3A6FCD",
"8b c #07226F",
"8c c #3B72CF",
"8d c #000019",
"8e c #153486",
"8f c #4980DD",
"8g c #3365C4",
"8h c #000A39",
"8i c #183D95",
"8j c #194FAF",
"8k c #0D358D",
"8l c #122F7B",
"8m c #123F9C",
"8n c #3564BC",
"8o c #2F66C1",
"8p c #153D9C",
"8q c #2359BB",
"8r c #4580DC",
"8s c #225AB9",
"8t c #3873D1",
"8u c #103689",
"8v c #07246A",
"8w c #133D9F",
"8x c #2759BA",
"8y c #5592EF",
"8z c #2B66C2",
"90 c #264BA6",
"91 c #2A57B2",
"92 c #172B5E",
"93 c #2958B4",
"94 c #1D4FB0",
"95 c #123D9B",
"96 c #032475",
"97 c #000B2E",
"98 c #133E9D",
"99 c #3D70CC",
"9a c #2A58B6",
"9b c #0A2366",
"9c c #071F5F",
"9d c #000A28",
"9e c #010310",
"9f c #14306F",
"9g c #194EAC",
"9h c #0E3791",
"9i c #123D9C",
"9j c #0E1E51",
"9k c #030A27",
"9l c #113FA1",
"9m c #153582",
"9n c #051342",
"9o c #204EAE",
"9p c #4880DF",
"9q c #000312",
"9r c #152C60",
"9s c #152B64",
"9t c #3364C0",
"9u c #000A3B",
"9v c #020B2C",
"9w c #1D2B4E",
"9x c #050209",
"9y c #030210",
"9z c #020204",
"a0 c #010312",
"a1 c #03030F",
"a2 c #1C2B54",
"a3 c #031440",
"a4 c #000113",
"a5 c #07091E",
"a6 c #000121",
"a7 c #0B204F",
"a8 c #2D467E",
"a9 c #192F68",
"aa c #021444",
"ab c #020828",
"ac c #091434",
"ad c #00021F",
"ae c #294688",
"af c #162F71",
"ag c #000B30",
"ah c #00011B",
"ai c #030303",
"aj c #030409",
"ak c #01030F",
"al c #031442",
"am c #0E2D6E",
"an c #3256A2",
"ao c #3E62AE",
"ap c #082366",
"aq c #07143E",
"ar c #0E1F53",
"as c #021349",
"at c #001456",
"au c #3861B9",
"av c #203E87",
"aw c #0E1F4B",
"ax c #000319",
"ay c #030923",
"az c #0B1E56",
"b0 c #152B65",
"b1 c #153172",
"b2 c #2D56AE",
"b3 c #537DD3",
"b4 c #012571",
"b5 c #172C65",
"b6 c #0B2266",
"b7 c #0B2268",
"b8 c #082060",
"b9 c #122E77",
"ba c #133687",
"bb c #0A368D",
"bc c #224DA9",
"bd c #21469F",
"be c #224596",
"bf c #162B64",
"bg c #0F235E",
"bh c #1D3E8B",
"bi c #0E3078",
"bj c #224795",
"bk c #2A56AF",
"bl c #406FCB",
"bm c #153F93",
"bn c #001559",
"bo c #0C2160",
"bp c #0A2363",
"bq c #173386",
"br c #123079",
"bs c #173F94",
"bt c #1F4EA8",
"bu c #1C3577",
"bv c #0F225A",
"bw c #111F42",
"bx c #1D3571",
"by c #274792",
"bz c #2B57AE",
"c0 c #1A49A5",
"c1 c #0F2F7C",
"c2 c #143586",
"c3 c #12348D",
"c4 c #042471",
"c5 c #042574",
"c6 c #11348E",
"c7 c #23479F",
"c8 c #224798",
"c9 c #133481",
"ca c #112047",
"cb c #163F97",
"cc c #174AA5",
"cd c #0E3793",
"ce c #0B3184",
"cf c #1C499E",
"cg c #163F9B",
"ch c #123E97",
"ci c #1A3D8E",
"cj c #173073",
"ck c #001452",
"cl c #1F4CA7",
"cm c #3265C0",
"cn c #3167C1",
"co c #3A6FCB",
"cp c #11409A",
"cq c #3B70CC",
"cr c #1B50AC",
"cs c #0D348F",
"ct c #182E6A",
"cu c #010B2F",
"cv c #000210",
"cw c #000119",
"cx c #254B9C",
"cy c #3465C2",
"cz c #3364C1",
"d0 c #1A47A2",
"d1 c #1B47A0",
"d2 c #142F74",
"d3 c #021243",
"d4 c #00092C",
"d5 c #000B3A",
"d6 c #000B44",
"d7 c #0F317B",
"d8 c #3765BB",
"d9 c #103E9C",
"da c #1F4EAA",
"db c #103079",
"dc c #111D43",
"dd c #1B2F62",
"de c #2C4681",
"df c #133171",
"dg c #15357E",
"dh c #1C499C",
"di c #3A70CA",
"dj c #2E67C1",
"dk c #2458BB",
"dl c #2258BA",
"dm c #1B479E",
"dn c #123684",
"do c #152A5F",
"dp c #28478A",
"dq c #2E57A6",
"dr c #4271C3",
"ds c #4F7FD3",
"dt c #3D71C5",
"du c #4881DA",
"dv c #205BB7",
"dw c #1B499F",
"dx c #0E368B",
"dy c #163F91",
"dz c #264794",
"e0 c #06143B",
"e1 c #123787",
"e2 c #1B4AA2",
"e3 c #2858BA",
"e4 c #1B49A1",
"e5 c #1B4AA4",
"e6 c #234DA3",
"e7 c #153580",
"e8 c #0F245D",
"e9 c #00021D",
"ea c #040927",
"eb c #1C2A5B",
"ec c #1F4BAA",
"ed c #4683E0",
"ee c #000110",
"ef c #18295F",
"eg c #224DAB",
"eh c #204EB0",
"ei c #204CAF",
"ej c #0E225D",
"ek c #152A63",
"el c #183581",
"em c #113F97",
"en c #011548",
"eo c #101E4B",
"ep c #1A2F6E",
"eq c #06236F",
"er c #022579",
"es c #15358A",
"et c #143386",
"eu c #0D3081",
"ev c #4B80DC",
"ew c #224797",
"ex c #0B235F",
"ey c #0D1E56",
"ez c #0B216A",
"f0 c #082372",
"f1 c #062371",
"f2 c #062170",
"f3 c #082171",
"f4 c #12368C",
"f5 c #477FDC",
"f6 c #143F9E",
"f7 c #3A6FCF",
"f8 c #143071",
"f9 c #0F2264",
"fa c #193380",
"fb c #052270",
"fc c #183583",
"fd c #08226F",
"fe c #072271",
"ff c #103182",
"fg c #0E40A1",
"fh c #2859B5",
"fi c #101E4F",
"fj c #0C2367",
"fk c #173482",
"fl c #062373",
"fm c #052174",
"fn c #13358C",
"fo c #103E9E",
"fp c #204DAA",
"fq c #15367D",
"fr c #000A38",
"fs c #172A62",
"ft c #032376",
"fu c #1C3C8F",
"fv c #032274",
"fw c #183D96",
"fx c #4981DE",
"fy c #1C4DAA",
"fz c #1F479E",
"g0 c #14347D",
"g1 c #010A33",
"g2 c #1C3474",
"g3 c #254695",
"g4 c #153487",
"g5 c #21469E",
"g6 c #12368E",
"g7 c #3B71D1",
"g8 c #4580DE",
"g9 c #1A50B0",
"ga c #4A80E0",
"gb c #1D48A6",
"gc c #1F479F",
"gd c #03144A",
"ge c #000A42",
"gf c #234697",
"gg c #0D3690",
"gh c #11368E",
"gi c #0F3691",
"gj c #214CAB",
"gk c #000937",
"gl c #01144C",
"gm c #234793",
"gn c #245AB4",
"go c #3066C0",
"gp c #3067C2",
"gq c #143C9B",
"gr c #0C419F",
"gs c #2C67C5",
"gt c #2759BC",
"gu c #1A4EB1",
"gv c #000125",
"gw c #010930",
"gx c #000A3D",
"gy c #04246D",
"gz c #2A58AE",
"h0 c #5691ED",
"h1 c #12409E",
"h2 c #2F65C7",
"h3 c #1D4FB2",
"h4 c #0D1D4E",
"h5 c #000B3C",
"h6 c #031E61",
"h7 c #224899",
"h8 c #3671CB",
"h9 c #2C67C1",
"ha c #3673CC",
"hb c #1749A8",
"hc c #214DAC",
"hd c #20459E",
"he c #0E1E4F",
"hf c #1A2A5B",
"hg c #153073",
"hh c #2D66C0",
"hi c #4383DB",
"hj c #1D4FAE",
"hk c #193E97",
"hl c #132F78",
"hm c #041543",
"hn c #000223",
"ho c #1A2C5E",
"hp c #122F75",
"hq c #143F9B",
"hr c #1B4EAA",
"hs c #05123C",
"ht c #00031F",
"hu c #162A5D",
"hv c #25478F",
"hw c #143D95",
"hx c #235BB8",
"hy c #5394F0",
"hz c #4481DE",
"i0 c #16347C",
"i1 c #162B60",
"i2 c #3057A4",
"i3 c #2B58B5",
"i4 c #133FA2",
"i5 c #2D68C4",
"i6 c #3163C2",
"i7 c #1F4CA9",
"i8 c #234CA8",
"i9 c #244BA6",
"ia c #2F56B1",
"ib c #2857B3",
"ic c #14367E",
"id c #214895",
"ie c #214BAD",
"if c #123EA1",
"ig c #3B70D0",
"ih c #205BB9",
"ii c #2E58AE",
"ij c #3764B9",
"ik c #25488C",
"il c #264892",
"im c #2B56B2",
"in c #4782E0",
"io c #103590",
"ip c #061F5F",
"iq c #0E2B6D",
"ir c #3256A0",
"is c #294785",
"it c #3156A7",
"iu c #173E99",
"iv c #477FDE",
"iw c #3670D1",
"ix c #3366C2",
"iy c #00144B",
"iz c #0A1E50",
"j0 c #00041B",
"j1 c #00020B",
"j2 c #133386",
"j3 c #2A67C4",
"j4 c #3264C7",
"j5 c #163D9A",
"j6 c #172B68",
"j7 c #000935",
"j8 c #07133B",
"j9 c #18357B",
"ja c #2859B8",
"jb c #10368B",
"jc c #0D2261",
"jd c #1A2E69",
"je c #0E378F",
"jf c #3E6FCB",
"jg c #0D3F9E",
"jh c #2856B6",
"ji c #06133D",
"jj c #0F3586",
"jk c #3564BE",
"jl c #1C47A6",
"jm c #3A73CD",
"jn c #113E99",
"jo c #244799",
"jp c #172F6D",
"jq c #02246E",
"jr c #3970CB",
"js c #1748A7",
"jt c #093186",
"ju c #1A2F68",
"jv c #00092F",
"jw c #2E57A7",
"jx c #3B71CB",
"jy c #3774CF",
"jz c #2558B4",
"k0 c #0C3182",
"k1 c #21479A",
"k2 c #132E71",
"k3 c #1A2B59",
"k4 c #000B3B",
"k5 c #26478C",
"k6 c #3365BA",
"k7 c #4282DC",
"k8 c #4484DE",
"k9 c #12368A",
"ka c #2A57B4",
"kb c #0B1F51",
"kc c #000A2A",
"kd c #2E58A2",
"ke c #3B71C9",
"kf c #3772CC",
"kg c #0D368E",
"kh c #3164C0",
"ki c #012478",
"kj c #183E91",
"kk c #162B62",
"kl c #224893",
"km c #3466BD",
"kn c #3870D1",
"ko c #032378",
"kp c #122F7F",
"kq c #172E72",
"kr c #1C3E86",
"ks c #234D9F",
"kt c #2958B0",
"ku c #3263C0",
"kv c #3D70CB",
"kw c #1A3D8F",
"kx c #08236A",
"ky c #19347B",
"kz c #203C86",
"l0 c #213B85",
"l1 c #0E2261",
"l2 c #051246",
"l3 c #03092B",
"l4 c #04133E",
"l5 c #214798",
"l6 c #224EA7",
"l7 c #143D97",
"l8 c #153683",
"l9 c #244DA7",
"la c #0F307D",
"lb c #2B59B1",
"lc c #3565BA",
"ld c #000A45",
"le c #192A60",
"lf c #1E2F63",
"lg c #02082A",
"lh c #0D1F4F",
"li c #1C3D8A",
"lj c #254693",
"lk c #122B6B",
"ll c #001450",
"lm c #143582",
"ln c #264699",
"lo c #001352",
"lp c #1F4898",
"lq c #2558B1",
"lr c #3964B3",
"ls c #1B2E66",
"lt c #0B1E58",
"lu c #17337C",
"lv c #143584",
"lw c #10307B",
"lx c #123078",
"ly c #183577",
"lz c #25478E",
"m0 c #2D57A9",
"m1 c #1D4799",
"m2 c #4062AA",
"m3 c #192B5D",
"m4 c #00010D",
"m5 c #030104",
"m6 c #040926",
"m7 c #00011D",
"m8 c #071339",
"m9 c #172B60",
"ma c #1B336F",
"mb c #2D467F",
"mc c #152C62",
"md c #182C5F",
"me c #05143F",
"mf c #000222",
"mg c #294787",
"mh c #123172",
"mi c #173068",
"mj c #02010F",
"mk c #040A20",
"ml c #1E2B4D",
"mm c #061439",
"mn c #01040D",
"mo c #01040B",
"3h||0dai    ||||||0m  3w2c6t4f061o7x861a3m8h63gegkgw3m4n1r1r423n1a212l||||5l    0t0t    2c2c0606    ",
"3h||0d0d    ||||||0q  5r491p1oee3l7y2q67fifsg22tglgxh5hfhohui1925b97869e5x06    0t0t  0m0d0t        ",
"            0606      300s2nea2q4neoeyf9fj68g3gfgmgyh6hghphvi2idil9f5z3v1h3006      3g0d  0m||4f    ",
"            0606  061o127ge0ebefekepezfafkft4p518ngzh72u8uhwi393imit6l3e5e220s0j06  3g3g    3gm5    ",
"||||||||        061y19dcdo7i693seleqf0fb80448k4u1i1i2b14hq188wie98iuj2j9jd9n1a5s0j  0d0d  0m        ",
"||||||          0q0sd4dddpe12y6g7u7z6afc8e44174u53338o4whr1wi4if2e189h2y9m9b3ejv199q30        0m    ",
"                0tcv2adedqe2eceg4oerf18b38fu4z2wgnh0h8hh++hx0p0b46464i95jejjjq9fk4kc1h0r060q0q      ",
"    0t0t  200j1p0r6y75dfdr7j0b0w4o4rf225fl3ug452go0n0n0n0n0o09ig99997e2vjfjk8njwk59r1q5i1o060m      ",
"  0m    0d3r12220scwd56mds1l11131besf3fd87fv4v6o8o0n1f1n4c0o..0a1t1t29..1i1ijrjxk6kd612a5i0r06      ",
"    0maj1y22bwca1q42d6dgdt1v0a364pet87fefm4z1714gp1x080855++0h3416160p//++0z55541fkekl9s1z5p0r0q    ",
"0606  akay67bx6mck6zd7dhdu33..413x8038fffn8ig5140u0g090g50//XX0b150c0p07++++0ojyk7kfkmkrl4210j      ",
"5j060j3l1rbgby3x2ucxd8di330n0e7n3qeu887z17fw81gg13XX0y0g//XX8x0c0i0c1j073b++0o0nk80n1lks9s5e1h7406  ",
"  0ra42paz686ccbcl1c1i1v337k0o4kem81f44v4x173z27181w0v3d..XX4594163f4y0g..++081n1k7l09kt7flh2m0x0r  ",
"0m0ja53m2sbh3t6n40//08471k4ced0e1c821b1717174v178ph10k0e..0h4q0c0b1109095f5f081n097m0y9tl57i42210j  ",
"9x2l5s3nb0bi6d1c6u++0e0zdv7l087r1l261u6j3c27g6ghgq1m..09074d0u0cXX5008082i++0809//0p0ckul6li921z0x  ",
"5k0sa6alb1bjbzcc..++++dj++7m4g7s090y1s1m181g1bgi180l//540g070a0a//8s1n1x0z0o1v9p2g1j1w1dl7ljls2p0s  ",
"0j5na7am62bkc03y0a......074dXX0y0908f58c4w1m18gj4j0f//8t09//0a0a0h0g081x1k471v0e07110w9h6flk7cm6mj||",
"1y5oa8anb2131s0uXXXX760h10XX0c0pXX0h0e1e8f0k1w0l2d16++0808570v0h++0zj31x0n4c0z5f//XX351gl8ll5b7q0x06",
"1o2ma9aob3bl2vXX0a700p100c0b2d0l0l0l0l4w8f1eg784gr6uh90n0o0o088t8r0o0n0n1k0z2h3b0v2f31935g8v8hm70smn",
"2l2naaapb4bm6e1c0k0v071jXX0c0f2e7v2ef61m0a0eg808++53hahi0n0n8y1x0e0e0o0z2i++++++0e..0k6vl9lmltm8mk3j",
"3ha0ab3o63bn6f2wcm0e0y07++0v0b0i0w832e0w0b07081f1v8r0n7k56hy8y1n2g10078j9g0a074t0e0v0f248p7ulum97g6y",
"5la15t5y2rbo253q6q1v090g0e++11370f0l0w2d0cXX0g081k1k1k0n56561xih0p94j40c0i3y114g0e..4l1d6b27lvma9w5n",
"061o191q64bpc12wcn0809090g0g07314e4s150b10//500ggs0808081fhz47++//374s9l9l0i0c31..0h0p0f242wlwmb9w2o",
"065p2maqb569c26oco08770g0g0g09074q370cXX4y8jg90709090909081f0o++//0c7v8w599o4s0u0k0k4q5a1u5glxmcml19",
"  3i2p2rb66a6g6p260e0e++////07070y0y....++0h////8q7s097r0o0o++0e0h164j989ijl3a0f0u239a1u90lnlymd9v2n",
"0q3jacarb7bqc3cd6v290v0707//4d////4t++0e2h++XX118qh20g0g0o0z++++1l341m1d1d1d0l1m368m721b4r257bme7y1h",
"  0xad3p2t3s3u3z41cy4531XX11340h0h0h0h..++3b0a0aXX//774t++2ii58z08iv7h16jg0fjs136wkg8k3x28lo3o9k9qmo",
"  0x1a5zb8brc4626wcz0bdk10XX290a..0h320h0v2f..0kXX0p//0g++++0z0o1fiw570y..3f0ajz2z146r3tla6z9umf7x49",
"||0s2qasb92uc5cecp0kXXdl070h10XX..0h2g//074y..0h3432XX078c++8z0z1f1f54571ejm++0e1i434k9tlblplz9r5o3j",
"9y195uatbabs6hcf1c0k////0y//XXXX0a2910110b0p2f..3f0pXX1j..++0z55in08091l..531e1e1e3d09098a6im0mg5h12",
"5ma2ae3qbbbt6i6qcq2907//7h0c151s0b0c0b0c0i0cXX070p0b0b0b0v2h0808092g1w0l35160u0u4g0gkn9p3dlqm1mhmm19",
"1za35vau65231t26cr43..074a150i4l2d15890i4e0b1j072j2j0b0c..++081n079g0l2e0l0l0l0l16kh2vkvlclrm2mi5e3l",
"125qaf60bc241u2x23710k320c4e150f0f0f0i4a0cXXga//2j4a0b0a//091n080v3f0f0w0w9o591d41141bkw392sm35h120j",
"0j2o5wavbd6b6jcg2x230u480ce3150i4m0w0i0bXX070y//2j150b0a0g09092i71ix583a0f5d181g1b4pko25ld5b1a120j  ",
"  3kag61be1bc6271g2x780u0u0i4heh4m3a4h0i0hfx0yXX0c0i0i10++1e..325c5c0f0f0wjnjtk0k9ki88kx9u1a1h0r06  ",
"9z1pahaw666cc727cs72d948400b4hei134i8337..1e1l110b0i0ihj++0e0k4l9a5d0fja2k2z6dk15g2y4rky9n5m1y0d    ",
"  0r0s1zbf5v6k6r6xd0467e1j100i4m2x36161j0e3d76XXgth3hb0a++09i60l1m781s5813361c2b511b52kzle9v0x0m    ",
"  5j5xax3obuc8ch142zda261t0u357t7w1c8a077j700aXXgu2j400a2h1l5a1d1818133a5d5c8g0k2k1g4xl0lf3v3i      ",
"    060s2qbvc96s6xd12z2b2b7n4i0w1tevf70b350f0bXX11XX480a..1i2k95io3c9i0wjh1w3y2v5a1gkpl17p2mm42c    ",
"0m0q  0j211r6lci2y7379dmdwe44j0f0k2f0pfgfo0l15XX07//0a0a..4ki73c4x3zj5241s0f0f2kkakjkql2lg223r2c    ",
"205r0m  0j192rcj28447a3t4b141d0i0a84//0p0f0w89XX07072g////26i8528e96176p238x0l1u6k399jl35i0j  0d    ",
"06  0d0d0d0x3v5uctd2dbdndx1413450k..07078g0u0bXX//8s//10XX58i94z8b2538jb51911g6039kk1q122l||  0d    ",
"||  0d0d  0r0s19cud37b7fdye51t..0v0e3b2h0g071011....0a0c0i59903u9b9c7o8l2ujo9mk2kb5h120j5k  ||||    ",
"||||0d0d    3w1p121z7c2sdze62b430k..++2i2f0vXX0a..0v162d7t24ia969ciyj6jc2tjpjuk39d7d1p    0m4f||    ",
"  0q||||||  0t0t0r1h1a3p2te77a1413XX..0k0ufy0f1s0kXX150w7w6n658uip3e9j3pji5q85213i3r06  0m0m        ",
"    ||||||    6t0d747d1a75e87o38734u1cfhfp82gb8m132khc1u146eibiiiq5wj72p2o3k0x0r3w0d0q||0d0d        ",
"0q      ||    0t  060j0x3ke97pej39ew6h4b4bfzgc6s3c4ohdhk8i7991ijir2sj88d0s490r06                    ",
"  0q    ||  0620  0q06  0t1p7q4nenexf866fqg08l2828283shl8vi0icikisiz9k0s300t0606    0q              ",
"                          201y1h2o851q2afr3egd642rh4hehmhs2a2a979dj00x0r06                          ",
"                              200j0x228d5yg11r1rgv1q3nhnht2n5t129ej106  0m                          "
};