/* XPM */
static char *picture[] = {
"50 50 788 2 ",
"   c None",
"XX c #2557B8",
"++ c #030208",
".. c #2358B8",
"|| c #356DCC",
"// c #366CCC",
"06 c #1A4AAC",
"07 c #336ECC",
"08 c #2D62C0",
"09 c #1A4BAA",
"0a c #2557B6",
"0b c #040207",
"0c c #2C63C0",
"0d c #2657B6",
"0e c #2258B8",
"0f c #2358B6",
"0g c #194BAC",
"0h c #2656B8",
"0i c #2C62C2",
"0j c #02020C",
"0k c #356DCA",
"0l c #366DCA",
"0m c #020307",
"0n c #2B63C0",
"0o c #356DCE",
"0p c #336DCE",
"0q c #376CCC",
"0r c #02020A",
"0s c #030305",
"0t c #000213",
"0u c #1C4AAA",
"0v c #000215",
"0w c #040308",
"0x c #4880DF",
"0y c #2D62C2",
"0z c #000218",
"10 c #00020F",
"11 c #2856B6",
"12 c #194BAA",
"13 c #366CCE",
"14 c #020106",
"15 c #2856B4",
"16 c #103C9B",
"17 c #2658B9",
"18 c #4681DF",
"19 c #4582DF",
"1a c #2F61C0",
"1b c #0F338B",
"1c c #113C9A",
"1d c #174CAC",
"1e c #336ECA",
"1f c #4582DD",
"1g c #020308",
"1h c #010A29",
"1i c #00021A",
"1j c #00020E",
"1k c #04216F",
"1l c #0E338B",
"1m c #000A34",
"1n c #143C94",
"1o c #133C96",
"1p c #133B9A",
"1q c #2257B7",
"1r c #0F3D9D",
"1s c #1D49A8",
"1t c #2B63C2",
"1u c #061A4F",
"1v c #01010B",
"1w c #123285",
"1x c #103289",
"1y c #1E49A8",
"1z c #2456B7",
"20 c #2B62BF",
"21 c #2A62BF",
"22 c #4383DD",
"23 c #346FCD",
"24 c #2964C2",
"25 c #000110",
"26 c #000B2E",
"27 c #133C98",
"28 c #194AA9",
"29 c #010A2B",
"2a c #366ECD",
"2b c #2D64C1",
"2c c #376CCA",
"2d c #2557BA",
"2e c #2456B5",
"2f c #153280",
"2g c #133284",
"2h c #143C93",
"2i c #2459B7",
"2j c #1C4AAC",
"2k c #4E8FE9",
"2l c #326FCC",
"2m c #000211",
"2n c #040309",
"2o c #03030B",
"2p c #000A2E",
"2q c #224390",
"2r c #000A32",
"2s c #09194C",
"2t c #133282",
"2u c #00030C",
"2v c #0F3387",
"2w c #133380",
"2x c #113C9B",
"2y c #2957B7",
"2z c #1D4AA7",
"30 c #0F3389",
"31 c #356BCB",
"32 c #2857B3",
"33 c #356CC9",
"34 c #2259B6",
"35 c #000B2B",
"36 c #4683E0",
"37 c #1949AB",
"38 c #000114",
"39 c #000216",
"3a c #103D9A",
"3b c #2757B9",
"3c c #000A37",
"3d c #1D49AA",
"3e c #2159B8",
"3f c #1A4BA8",
"3g c #040108",
"3h c #000B36",
"3i c #000313",
"3j c #040A24",
"3k c #030929",
"3l c #0C205B",
"3m c #142A66",
"3n c #0C215A",
"3o c #010206",
"3p c #0D205A",
"3q c #113184",
"3r c #203670",
"3s c #09194A",
"3t c #092063",
"3u c #143B96",
"3v c #042171",
"3w c #3061C0",
"3x c #163B94",
"3y c #133285",
"3z c #143B98",
"40 c #2F61C2",
"41 c #122A6A",
"42 c #2A56AF",
"43 c #113D9C",
"44 c #0C338E",
"45 c #0E338C",
"46 c #386DCD",
"47 c #00092D",
"48 c #2C56AC",
"49 c #1D4BAB",
"4a c #1844A3",
"4b c #061A4D",
"4c c #184AA9",
"4d c #0D3E9D",
"4e c #376DCD",
"4f c #040406",
"4g c #326DCB",
"4h c #2A62C1",
"4i c #366ECF",
"4j c #2657B4",
"4k c #15337C",
"4l c #00021C",
"4m c #2459B9",
"4n c #2E63C1",
"4o c #000316",
"4p c #346ECF",
"4q c #2C61BF",
"4r c #4681DD",
"4s c #3060C2",
"4t c #2049A3",
"4u c #3061BD",
"4v c #346CCB",
"4w c #1B4CAB",
"4x c #123287",
"4y c #3062C1",
"4z c #103C9D",
"50 c #2F62BE",
"51 c #0C1943",
"52 c #113C98",
"53 c #2257B5",
"54 c #123384",
"55 c #16317E",
"56 c #103385",
"57 c #2956B3",
"58 c #366ECB",
"59 c #1745A3",
"5a c #1B449C",
"5b c #4F8FE9",
"5c c #081A4C",
"5d c #00031A",
"5e c #3061BE",
"5f c #00030A",
"5g c #2555B7",
"5h c #000217",
"5i c #00011A",
"5j c #010310",
"5k c #00010E",
"5l c #01092D",
"5m c #000935",
"5n c #081A4A",
"5o c #010109",
"5p c #020109",
"5q c #02010F",
"5r c #050A20",
"5s c #000A2D",
"5t c #000A36",
"5u c #274287",
"5v c #173279",
"5w c #020B2C",
"5x c #030409",
"5y c #000A3B",
"5z c #16327C",
"60 c #15327E",
"61 c #062168",
"62 c #000315",
"63 c #142968",
"64 c #16327B",
"65 c #022171",
"66 c #1F4BA4",
"67 c #010A27",
"68 c #000A31",
"69 c #0F2A6F",
"6a c #103387",
"6b c #1D4AA5",
"6c c #143C9B",
"6d c #21428F",
"6e c #163C91",
"6f c #1944A2",
"6g c #163B96",
"6h c #2048A7",
"6i c #163B93",
"6j c #000A30",
"6k c #020305",
"6l c #000B37",
"6m c #244999",
"6n c #2556B5",
"6o c #2148A3",
"6p c #123A99",
"6q c #153A93",
"6r c #143385",
"6s c #091A4E",
"6t c #162A5D",
"6u c #25438C",
"6v c #1E4AA9",
"6w c #1E49A7",
"6x c #153A95",
"6y c #0E2976",
"6z c #082066",
"70 c #152964",
"71 c #030A27",
"72 c #040205",
"73 c #0F3284",
"74 c #000A39",
"75 c #000317",
"76 c #02020E",
"77 c #477FDE",
"78 c #4981E0",
"79 c #4880E1",
"7a c #1D4BA9",
"7b c #1A439D",
"7c c #204394",
"7d c #518EEB",
"7e c #164BAB",
"7f c #346CCD",
"7g c #1546A2",
"7h c #214AA4",
"7i c #000B39",
"7j c #326ECE",
"7k c #3370CD",
"7l c #356CC7",
"7m c #316DCD",
"7n c #2D63C3",
"7o c #22448E",
"7p c #09225B",
"7q c #326CCD",
"7r c #091A46",
"7s c #204492",
"7t c #4880DD",
"7u c #396BCC",
"7v c #123B95",
"7w c #376CC8",
"7x c #2256B9",
"7y c #1B4BAD",
"7z c #002178",
"80 c #093490",
"81 c #356BCD",
"82 c #0C348C",
"83 c #184AAB",
"84 c #1A4CAD",
"85 c #000113",
"86 c #0C2162",
"87 c #2658B7",
"88 c #1C439E",
"89 c #000936",
"8a c #1A3A8D",
"8b c #123D99",
"8c c #1B449E",
"8d c #153184",
"8e c #2E60C1",
"8f c #0B215D",
"8g c #2556B3",
"8h c #2856B8",
"8i c #0B1946",
"8j c #000223",
"8k c #061953",
"8l c #0F328C",
"8m c #0B348E",
"8n c #1C4BA7",
"8o c #173B91",
"8p c #10348A",
"8q c #19459E",
"8r c #1845A0",
"8s c #316ECB",
"8t c #15337B",
"8u c #2657B3",
"8v c #2049A1",
"8w c #2B61C1",
"8x c #23438E",
"8y c #4D8EE8",
"8z c #2C64C3",
"90 c #122A66",
"91 c #3A6CCB",
"92 c #4680E1",
"93 c #1E49A5",
"94 c #3A5FAD",
"95 c #2A427E",
"96 c #2C64C1",
"97 c #274382",
"98 c #0F3B9A",
"99 c #243668",
"9a c #071949",
"9b c #2357BA",
"9c c #041A56",
"9d c #000121",
"9e c #396BCA",
"9f c #2E61BD",
"9g c #2C55AD",
"9h c #0F2054",
"9i c #000B2D",
"9j c #194AA7",
"9k c #174CAA",
"9l c #2149A0",
"9m c #000116",
"9n c #2D62BE",
"9o c #193274",
"9p c #4481DC",
"9q c #1C4BA5",
"9r c #2F62BD",
"9s c #00092C",
"9t c #173277",
"9u c #4F8EEB",
"9v c #386DCB",
"9w c #03010C",
"9x c #2957AF",
"9y c #1B3778",
"9z c #0D2B71",
"a0 c #030408",
"a1 c #020204",
"a2 c #234390",
"a3 c #000B32",
"a4 c #030106",
"a5 c #000012",
"a6 c #060A25",
"a7 c #00001E",
"a8 c #000125",
"a9 c #000B31",
"aa c #000228",
"ab c #0F193D",
"ac c #010A33",
"ad c #19295A",
"ae c #22376C",
"af c #04194E",
"ag c #0C1945",
"ah c #040A22",
"ai c #050308",
"aj c #0C1A41",
"ak c #00092A",
"al c #040A2A",
"am c #09194D",
"an c #041853",
"ao c #0B205F",
"ap c #274895",
"aq c #1E3578",
"ar c #1C3170",
"as c #020107",
"at c #000314",
"au c #00001D",
"av c #05194E",
"aw c #2C427C",
"ax c #21366D",
"ay c #000A3E",
"az c #1D3477",
"b0 c #062166",
"b1 c #06206A",
"b2 c #2D55AD",
"b3 c #2D56B0",
"b4 c #1F4399",
"b5 c #264389",
"b6 c #020B28",
"b7 c #00030E",
"b8 c #3354A1",
"b9 c #3B5FAB",
"ba c #0B2B74",
"bb c #0B2061",
"bc c #10296C",
"bd c #1E3A84",
"be c #1A3B8C",
"bf c #012174",
"bg c #06206B",
"bh c #2049A5",
"bi c #183B8C",
"bj c #254389",
"bk c #2A4383",
"bl c #203672",
"bm c #0C2158",
"bn c #1B3A8A",
"bo c #1C449B",
"bp c #3D69C2",
"bq c #153D94",
"br c #0E2873",
"bs c #224394",
"bt c #2448A0",
"bu c #1C4AA8",
"bv c #1944A3",
"bw c #103384",
"bx c #000A35",
"by c #020926",
"bz c #091A48",
"c0 c #173374",
"c1 c #204490",
"c2 c #3B6CCB",
"c3 c #1C49A6",
"c4 c #173A94",
"c5 c #1F4AA9",
"c6 c #173C95",
"c7 c #193C8E",
"c8 c #17337C",
"c9 c #1E4BA8",
"ca c #396BCE",
"cb c #1E48AA",
"cc c #2149A9",
"cd c #112A6D",
"ce c #050306",
"cf c #030B22",
"cg c #0F3C99",
"ch c #133B9B",
"ci c #2048A8",
"cj c #133386",
"ck c #0C1946",
"cl c #00011B",
"cm c #13337C",
"cn c #3361B7",
"co c #2B56B5",
"cp c #153C97",
"cq c #011B58",
"cr c #2958AA",
"cs c #0F3D9B",
"ct c #1845A2",
"cu c #1944A0",
"cv c #133C94",
"cw c #1A469D",
"cx c #204AA0",
"cy c #08205E",
"cz c #03020A",
"d0 c #000311",
"d1 c #001A59",
"d2 c #1C4CA0",
"d3 c #3063BF",
"d4 c #2F60BC",
"d5 c #020C27",
"d6 c #000D38",
"d7 c #000C3B",
"d8 c #000C46",
"d9 c #1F458E",
"da c #396CC5",
"db c #4A80E0",
"dc c #3A6DC9",
"dd c #1E4BA6",
"de c #0E3383",
"df c #112B68",
"dg c #0A1944",
"dh c #0B1A43",
"di c #2A437B",
"dj c #415F9F",
"dk c #264482",
"dl c #234585",
"dm c #3960AB",
"dn c #3C6CBE",
"do c #4682E2",
"dp c #2157B7",
"dq c #366BC9",
"dr c #2556B2",
"ds c #1B459B",
"dt c #000312",
"du c #152A5F",
"dv c #244588",
"dw c #3761AD",
"dx c #4F80CF",
"dy c #598DE1",
"dz c #558DE4",
"e0 c #4881DB",
"e1 c #3062BB",
"e2 c #23438C",
"e3 c #294284",
"e4 c #2B58AD",
"e5 c #396CC7",
"e6 c #346DC7",
"e7 c #24489C",
"e8 c #23479D",
"e9 c #10328B",
"ea c #0D3E9A",
"eb c #0E215B",
"ec c #010C2C",
"ed c #0A205C",
"ee c #1E439E",
"ef c #234294",
"eg c #0C205D",
"eh c #000320",
"ei c #1A3A8F",
"ej c #012072",
"ek c #0C3C9E",
"el c #2C61C1",
"em c #3062C3",
"en c #092161",
"eo c #123184",
"ep c #0A2979",
"eq c #0E3C9A",
"er c #112A6C",
"es c #00021F",
"et c #000A3D",
"eu c #05206F",
"ev c #153687",
"ew c #204498",
"ex c #1B439B",
"ey c #103B99",
"ez c #1F4AA8",
"f0 c #386ACB",
"f1 c #0D3E9B",
"f2 c #103E9C",
"f3 c #1D48A4",
"f4 c #1F4397",
"f5 c #173275",
"f6 c #000941",
"f7 c #07216B",
"f8 c #052174",
"f9 c #05206D",
"fa c #0D2A78",
"fb c #2149A8",
"fc c #123A9A",
"fd c #0C3390",
"fe c #2E63C3",
"ff c #2C61BD",
"fg c #2E60BF",
"fh c #214AA6",
"fi c #173A8E",
"fj c #294187",
"fk c #0E338E",
"fl c #1445A4",
"fm c #1D49AC",
"fn c #1A42A1",
"fo c #0F2A71",
"fp c #091A52",
"fq c #213476",
"fr c #143D97",
"fs c #0E328A",
"ft c #2358B4",
"fu c #518EE9",
"fv c #1D48A7",
"fw c #000226",
"fx c #00093E",
"fy c #162866",
"fz c #254290",
"g0 c #123E97",
"g1 c #103C95",
"g2 c #113E99",
"g3 c #0B338B",
"g4 c #103D98",
"g5 c #1A4DA9",
"g6 c #4283DD",
"g7 c #1B49AB",
"g8 c #2955B6",
"g9 c #081951",
"ga c #1B4CA8",
"gb c #4980DD",
"gc c #0C3D9A",
"gd c #0A338D",
"ge c #346CC9",
"gf c #3362BE",
"gg c #2956B1",
"gh c #2D56A6",
"gi c #000B3C",
"gj c #000B35",
"gk c #000A40",
"gl c #14347F",
"gm c #528DEB",
"gn c #4580DE",
"go c #3160BC",
"gp c #3360BD",
"gq c #1C4499",
"gr c #3461B6",
"gs c #000A3C",
"gt c #000939",
"gu c #0B2B76",
"gv c #214AA2",
"gw c #386BC7",
"gx c #4484DE",
"gy c #4C8FEA",
"gz c #4E8FEB",
"h0 c #2863BF",
"h1 c #2964C0",
"h2 c #2A65C1",
"h3 c #113488",
"h4 c #123183",
"h5 c #05226E",
"h6 c #0C2A72",
"h7 c #19377D",
"h8 c #23376A",
"h9 c #000938",
"ha c #123380",
"hb c #1D49A2",
"hc c #2659B5",
"hd c #225AB9",
"he c #1E59B5",
"hf c #022173",
"hg c #06216E",
"hh c #071F67",
"hi c #051A53",
"hj c #0B1842",
"hk c #00022A",
"hl c #376ECB",
"hm c #4581E1",
"hn c #1E4AAB",
"ho c #0F2974",
"hp c #0A2165",
"hq c #051954",
"hr c #081849",
"hs c #0D1941",
"ht c #030A26",
"hu c #3154A5",
"hv c #326FCA",
"hw c #326DC9",
"hx c #457FE0",
"hy c #0B2A7A",
"hz c #000B34",
"i0 c #2955B4",
"i1 c #1446A5",
"i2 c #4981E2",
"i3 c #3261BB",
"i4 c #3460B9",
"i5 c #011A5D",
"i6 c #000930",
"i7 c #173476",
"i8 c #2D55AC",
"i9 c #1546A3",
"ia c #2058B5",
"ib c #2D63C5",
"ic c #1447A2",
"id c #19377F",
"ie c #162961",
"if c #051A4F",
"ig c #284891",
"ih c #3056AB",
"ii c #0E3D99",
"ij c #2359B9",
"ik c #2456B9",
"il c #1B4CA9",
"im c #000112",
"in c #000B30",
"io c #22428B",
"ip c #4981DE",
"iq c #497FDF",
"ir c #1D459C",
"is c #1A3B88",
"it c #0C1A3F",
"iu c #051B57",
"iv c #12327F",
"iw c #2863C1",
"ix c #2957B5",
"iy c #1E4394",
"iz c #18337A",
"j0 c #040B25",
"j1 c #0D348F",
"j2 c #2857B1",
"j3 c #192A5E",
"j4 c #4382DF",
"j5 c #528DE9",
"j6 c #2258BA",
"j7 c #1B49A9",
"j8 c #10348C",
"j9 c #113186",
"ja c #1E439B",
"jb c #214496",
"jc c #0F2056",
"jd c #001B61",
"je c #1E4AA1",
"jf c #163383",
"jg c #0E2159",
"jh c #020A2E",
"ji c #061B52",
"jj c #0F3482",
"jk c #2658B1",
"jl c #4782DE",
"jm c #2857AF",
"jn c #0A2B7A",
"jo c #01195F",
"jp c #14296A",
"jq c #112969",
"jr c #25438B",
"js c #1C3985",
"jt c #0F2973",
"ju c #08184B",
"jv c #010B2E",
"jw c #274384",
"jx c #365FAF",
"jy c #3A6CC5",
"jz c #4980DB",
"k0 c #1946A1",
"k1 c #3A6CC3",
"k2 c #1A3C86",
"k3 c #04195A",
"k4 c #00093D",
"k5 c #091B4D",
"k6 c #0B215A",
"k7 c #162963",
"k8 c #0B1948",
"k9 c #010312",
"ka c #274285",
"kb c #2F55A6",
"kc c #3261BD",
"kd c #3A6CCD",
"ke c #396BC4",
"kf c #021A58",
"kg c #0D1A3D",
"kh c #143D8F",
"ki c #1F4598",
"kj c #19459C",
"kk c #4D7EDA",
"kl c #3A6DC8",
"km c #2E54A7",
"kn c #021B5B",
"ko c #000926",
"kp c #0B1A45",
"kq c #1F3773",
"kr c #0F3484",
"ks c #3A6BC8",
"kt c #153C9B",
"ku c #1F4494",
"kv c #3461B4",
"kw c #376DC7",
"kx c #062263",
"ky c #00031E",
"kz c #0A1942",
"l0 c #2E56AB",
"l1 c #264385",
"l2 c #21438A",
"l3 c #3661B0",
"l4 c #3360B1",
"l5 c #01040D",
"l6 c #000417",
"l7 c #000928",
"l8 c #193177",
"l9 c #26428B",
"la c #163176",
"lb c #203574",
"lc c #18295F",
"ld c #0A1A4B",
"le c #031A50",
"lf c #294380",
"lg c #030825",
"lh c #00082F",
"li c #061A4C",
"lj c #061951",
"lk c #031955",
"ll c #1E3674",
"lm c #1D3676",
"ln c #010B2F",
"lo c #000221",
"lp c #000C2F",
"lq c #000B33",
"lr c #1A2B59",
"ls c #0A1B49",
"lt c #0D193F",
"lu c #040B28",
"lv c #000120",
"++++    0b  0s6k++++        14    0j0veh89etf68kfpfx89gjgt3chk291i0t0r  ++++        0m3o    0b0b    ",
"++++    0b  0s0m    14++0r1jdt384o4lec512s3p8f63fqfyg9gk8k3p1u9ahz9i5dim1j0r        0m0m0w          ",
"    ++++        0w  0w2o0t4l267r6t3ned863t6zf7552ffz8xglguha7chu6di7ifin0z1j++72    0s  0b++        ",
"    ++++            0s2ud5dhdue36u2w2f1k55eu8d1w1x1l8v42gvhb1611i0i8ig3rit5d2m0j++      0b0w0m0m    ",
"0b0b0b0b++++    ce720sd068didv7se81b6a1w2g8d3y4x1b1oga7wgwhc09060d57ihioiu7i9s0z0j0b        0m0m    ",
"0b0b0b  ++++    14  ++62d6djdwe47h6x1xeieo6rf83q1bg00f0x8z0e..XXXX9j526eiv9oj3479m1v1v++0w0sa00m    ",
"          0m++++2o0j760z3hdkdxe54t1b4x2g2t2ff93v8pg12bgm1e240e..i1i9ii521n569tjc9s0zk91v  a10w      ",
"        0m0r100vcfcl1i1hd7dldye67v7z1wej3v1kfa541lg20c7d1f18||//9e509f5e0d932vjdji1m710v2u0m        ",
"  0w      5kby6l6t4b1m6ld8dmdz0k27e91w2gepev301n8q8ugbgn3618||////0l58ip0x0l5ejejjjw5c353i5f1g      ",
"      ++2u1ibz416ucmcqd1d9dne07t2z457z738aew8c6w578g33232423||0i0i0e0n0707070o9vjkjxka5nko250r      ",
"2n++ai1v0z68c06m48cncrd2da7l364r4u80822h6iexfb1y6v152i//0c0c0y9b......0i1t1e4g1e0kjykb9ykp1il50s    ",
"++++5pat2pbmc142150f0k180p7j7m187wea3a528beyfc1y1c3agc910c0c..2d83XXXX..0n1e1f1f7k0l9x7o1u352m      ",
"a4++5qau2s696ec9491d0k7d7j7m4p||||08094z1s1y6h27fr1o80go0lhd..XX060606174h2l225b9p7l9x7skqkzl60j++  ",
"0b0j5r2r63bn1n1609XX0n4g7kdo0p0o074v0qek1r1y3zfk45g3gdgp0l||..1706060h1z2a199u5bjljzkckh9z4bl70t0r  ",
"2n2526av642v1o4309XX..3107197q0p1t210x1q0uez6g8l8p1l4457//0ohl08XX3b0hXX4i19j419//0q916bkr9o3clg1j  ",
"1g3iajawb8bo6f110h0g0g0y2a1807070k0k||//1a16fd8lfs1l8m15//0p0c080fXXXX0y07199u071d840q3f5a8x70lh2m  ",
"  255saxb9bpc2caXX1zXX17..7n||4r0k0l0i//0q0d1c8m828v8b4j0x070e0808080y0e071f1f1e124d4c9eksl0l88i0v  ",
"145jakaybabqc36n0d17XX7e....340c0c0c..1d0yf08g8n8rg4590a4r19||||0kiaij3e079pj50n0a0d878eXX4tl93s39  ",
"  5kal5y3t1k1x442z280y0i2b0cXXXX0f0883060g4y2c0lftg51d//1f2222hv2l237f0707180x1qXX0g4s0h0u2h9z9a75++",
"2o0t5l2sbbbr3y451c0d//||210lXX4s0a0a0h0609121t180k0k078sgx8y2k2219190x2a24||//....XX0g7y7a2h8tli1i0j",
"a53j5t3pbc1k1x3z6v0a77070n34..7u0f2e0d2806..1318fu222k2kgy2k5b1f19070i0eiw072b0808080f0a111n4klj673i",
"5h3kamazbdbs6g1p164c784g1e217n....1a0a0a0g..13078sg68y2kgz2236hw07580f9k||070e0808089v1a0d1o1k3l265d",
"0z5l3l5zbebt6hcb1s09//0p071t4h0eXXXX0a872e0i0o07071f362lh0he||2a0n200808||0oj6..XX5gkdXX5g4t2wlk1m8j",
"5iab3m60bf1b3z1y4a4d//0p||||||//XXXX0a530f0c||4p07230p07960c//0e0c080f1q//0e137x0g3b5g060u1oa2lllr6j",
"a62p3n611k1w1b6o6w4d//||0e0e////....0y2i340n||0o||||0p92243e0q....XXXX1d0f0c0i13..XX093d2x3xa2lm995t",
"a7acanb05z651x44cg124e4h4m..0e0i......1q0c0c//133e4v8z070p||..0g2d2dik0g0a530q//461a492xkt8o4k3mlsa3",
"a85maob1bg3vc42x09..0o7f....XXXX0f08XXel4m0q..0q0i||1t2a0p0o0e7e0gXX0h0h0609060d11113d1y888ala1ultlv",
"a9ad5u2t656a272y..4e794i..XX0hXX0a081z171z8e404m313e2b214p0o130i..0g0606060uj71r1s4a1c1o1b2flb3clu39",
"3haeapb2666b091q0x070x||1qXX0h400a0f4n1a120d0d2e0c0n0k0nh1070o0o81ib9b1d1209493d59k01n2v549tlcln0t0r",
"3haf2qb3153w40460i1t0c20XXXX37062e0f1a0a094w0d122058ge0nh2240p92i20o1331082i0h289j9q5aki2q9yldlo104f",
"aa5n5vb4bhbu096n09090a0aXX2d0606090a4s0606370h..4v230n0n070phmhx0o78//iq||0x||||969n8ukjkul15c352m  ",
"1hagaq3q3ubv0u1r1s160u0dXX2d0h060d3w06063706XX0e79240n0k0p0p7q071t0e1d0g530l||0x1e7t2ckkkvl2lelp2m++",
"1i26ar2t1l6cc52x6f1c7a0d0q0eXX060d4w84XX0h06..//||||||||2l2l0n340i..091r434a0d2c0l21//0ckwl3lfa30t  ",
"0v1h1ub5bi3x1pcc1p1ccs4cdbdp17XX0gXX0qem0h28fe////8w0o23181e200f0f2e11161p1p1c3ajmk1kekl9rl4971m0t  ",
"10ah5m3rbjbwc66pch16090a//0e0g0g7x130q1a11f1080c....//77||202i0a0a0a11981c273u30jnk26mkm489495lq0t  ",
"0j0t5w3sbk6d1l1pcico150a0y0e..0q13814y09eqf2ff08XX..8w//081217XX121a0d0u1627j82gjok3kfknkx7p7r1h10  ",
"++1j0z2rbl2w6i1p6c6pct4j0y13||||||0y0u161r284y0fXXXX////091r2j060f4nXX061sj1j955jpk42r29ky5h4o100r  ",
"  5o10b61u5vc76q6xcpcu32..4i0x||..124z431r4wfg1zXXXX0i0l3f98hn092c4q0q7uix7v4x6yjqk59d850r  14      ",
"    5x621m3lc86rcj307b324n311q0g060u4z1s0u063b0g1708||0l3f2z3a8n9f2i0y0q9n9q302tjrk69i0v0j0b        ",
"  0w3ob767bx3ncd6y73cv7g2c0i1d067y0u15110h3b37060g0f//088r1o7b8q4u9k080c0l9r1l3qjs90kg390j0b        ",
"      0j0t3j6j6s6z1wcwd333||0i..0808501aXX0h09flXX17463f3x1x1b1ni3ic12080l4u6o3yjtk7475r763g        ",
"  0was++1v5j0z477060cxd4dcdq4e//0k0k2b08XX1z2y2y06XX3w93h3hf2g2vi47gil5e50j2jajf86k83k0v9w3g14      ",
"++2n  2n++5o1v0zck417c7hdddr4q33||0k2120..XX8h2j0h0dgf2hh4hghohy9g32592z669ljb69ju5w380j5p3g  0m    ",
"++++    ++    1j7174cy4kdedse14q0l3308080a062j2j8h2ygggq1khhhp61569l9giriy2w5ujgjv380j++++++  3o    ",
"    0w        1g5q75297idf7o48320d090u1s15113dfm2jg7152hh53thq9ci5id2qisiz9c5yjh385f1g      ++++    ",
"            0s0s  ++104ldg7pe2e71n3uee888cf3fhfnfvg8155ah68f1u5c9hie3m3r9h1m3k0v2o4f  14a00m14      ",
"0b  ++5x        0s  cz104o356s41642fef5456f4fi8o6q424jgrh7hihr51i62p5s1hj00v259w++    0w    0sa1    ",
"0b  ++1g14      6k4f  ++0r0t1h1m2sebegenerf5fjfo8t2qgh949799hs9d3j9m0v252u5f++3g0b0b        0s0s    ",
"                        ++0r100t391i1h2p513c8i743s4b9095h8hjht0v100j0j0r1g1g                        ",
"                                  0r855ies298j29fw2rgigsh9260z1j++                                  "
};