/* XPM */
static char *picture[] = {
"50 50 819 2 ",
"   c None",
"XX c #2055B5",
"++ c #2D63C3",
".. c #2E63C3",
"|| c #020107",
"// c #2254B5",
"06 c #2D63C5",
"07 c #376FCE",
"08 c #020204",
"09 c #010206",
"0a c #2254B3",
"0b c #01010B",
"0c c #010109",
"0d c #386ECE",
"0e c #2C64C3",
"0f c #1849A8",
"0g c #030106",
"0h c #17429E",
"0i c #030207",
"0j c #285DBB",
"0k c #2E63C1",
"0l c #000110",
"0m c #1F55B5",
"0n c #010005",
"0o c #00010E",
"0p c #1A48A8",
"0q c #1B48A5",
"0r c #2055B3",
"0s c #396ECC",
"0t c #437BDA",
"0u c #1749A8",
"0v c #417CD8",
"0w c #3570CE",
"0x c #010207",
"0y c #3062C3",
"0z c #1A48A6",
"10 c #2D64C1",
"11 c #2E62C5",
"12 c #386FCC",
"13 c #275EBB",
"14 c #0D3690",
"15 c #285DBD",
"16 c #376FD0",
"17 c #1A49A5",
"18 c #1849A6",
"19 c #3870CF",
"1a c #2054B7",
"1b c #00010D",
"1c c #00092F",
"1d c #1B47A6",
"1e c #19429C",
"1f c #16439E",
"1g c #386ED0",
"1h c #2554B0",
"1i c #366ECD",
"1j c #3570CC",
"1k c #275DBD",
"1l c #417CDA",
"1m c #000117",
"1n c #3062C1",
"1o c #000115",
"1p c #1742A0",
"1q c #2354B3",
"1r c #2B5CB9",
"1s c #376FCC",
"1t c #4C8DE7",
"1u c #1B48A3",
"1v c #08184B",
"1w c #000114",
"1x c #1C47A3",
"1y c #17439C",
"1z c #2354B0",
"20 c #2C62C4",
"21 c #396FCF",
"22 c #346FCD",
"23 c #2D62C2",
"24 c #407DD8",
"25 c #1F54B4",
"26 c #030208",
"27 c #19429A",
"28 c #1A429A",
"29 c #042981",
"2a c #143586",
"2b c #11358B",
"2c c #10358D",
"2d c #2B5CB8",
"2e c #1A419C",
"2f c #2153B2",
"2g c #2354B1",
"2h c #2F64C4",
"2i c #2355B4",
"2j c #2255B1",
"2k c #2A5CBB",
"2l c #437CD6",
"2m c #437BD8",
"2n c #396ECE",
"2o c #265EBD",
"2p c #285DB9",
"2q c #1F53B6",
"2r c #407DDA",
"2s c #3162C1",
"2t c #4D8DE7",
"2u c #00082F",
"2v c #030007",
"2w c #07184E",
"2x c #000112",
"2y c #020109",
"2z c #0E2A73",
"30 c #000119",
"31 c #2253B2",
"32 c #1E47A3",
"33 c #173482",
"34 c #000928",
"35 c #0A1845",
"36 c #0E3590",
"37 c #2355B6",
"38 c #0E368E",
"39 c #0B3692",
"3a c #071949",
"3b c #1D48A4",
"3c c #1544A0",
"3d c #376DCD",
"3e c #1643A0",
"3f c #000019",
"3g c #3063BF",
"3h c #3770CA",
"3i c #2C64C5",
"3j c #112A6D",
"3k c #3671CF",
"3l c #2156B6",
"3m c #1F55B7",
"3n c #00011D",
"3o c #2353B5",
"3p c #142A66",
"3q c #1947A5",
"3r c #2A65C3",
"3s c #1848AA",
"3t c #00092C",
"3u c #010204",
"3v c #000835",
"3w c #000012",
"3x c #01010D",
"3y c #0A1847",
"3z c #091F5B",
"40 c #04091F",
"41 c #00020E",
"42 c #020005",
"43 c #1E4193",
"44 c #122A6A",
"45 c #000215",
"46 c #020828",
"47 c #000831",
"48 c #1B439A",
"49 c #2653B0",
"4a c #113589",
"4b c #010825",
"4c c #000013",
"4d c #061F62",
"4e c #143487",
"4f c #06287F",
"4g c #0B3790",
"4h c #000209",
"4i c #1A47A4",
"4j c #3163C4",
"4k c #00072E",
"4l c #1947A7",
"4m c #00092A",
"4n c #1F46A1",
"4o c #1C47A5",
"4p c #1F479F",
"4q c #000933",
"4r c #2252B4",
"4s c #000A2D",
"4t c #030104",
"4u c #2553B1",
"4v c #3B6DCC",
"4w c #1543A1",
"4x c #2554AE",
"4y c #174AA6",
"4z c #2B5DB6",
"50 c #00092D",
"51 c #00011E",
"52 c #2153B4",
"53 c #2155B8",
"54 c #091E5D",
"55 c #295EBC",
"56 c #2B63C2",
"57 c #447BD8",
"58 c #427DD9",
"59 c #07194B",
"5a c #3162BE",
"5b c #1648A7",
"5c c #173480",
"5d c #0B1844",
"5e c #1A47A2",
"5f c #133485",
"5g c #06297D",
"5h c #1B49A9",
"5i c #3162BF",
"5j c #396ECA",
"5k c #4D8CE9",
"5l c #2E64C4",
"5m c #08287D",
"5n c #1C4297",
"5o c #052981",
"5p c #2A5DB9",
"5q c #00001C",
"5r c #0B1842",
"5s c #17357E",
"5t c #00093A",
"5u c #040108",
"5v c #030305",
"5w c #000105",
"5x c #010103",
"5y c #00020F",
"5z c #091748",
"60 c #000938",
"61 c #00001D",
"62 c #000106",
"63 c #020307",
"64 c #040207",
"65 c #00082C",
"66 c #0B1948",
"67 c #152968",
"68 c #12296C",
"69 c #21418E",
"6a c #1D4293",
"6b c #1D4292",
"6c c #0D286F",
"6d c #000A2C",
"6e c #00011B",
"6f c #143383",
"6g c #05287C",
"6h c #2452B0",
"6i c #162A5F",
"6j c #00000F",
"6k c #152964",
"6l c #204192",
"6m c #16419D",
"6n c #0E368D",
"6o c #123589",
"6p c #162963",
"6q c #000A25",
"6r c #000212",
"6s c #071850",
"6t c #21469E",
"6u c #10358E",
"6v c #1C47A6",
"6w c #2553B3",
"6x c #1D429A",
"6y c #1D4195",
"6z c #0C2979",
"70 c #05194E",
"71 c #0D3692",
"72 c #2454B6",
"73 c #02020C",
"74 c #000008",
"75 c #000014",
"76 c #325194",
"77 c #1E4195",
"78 c #3C6DC9",
"79 c #2E5CB2",
"7a c #3E6DC7",
"7b c #2156B4",
"7c c #194399",
"7d c #093691",
"7e c #2C63C0",
"7f c #000931",
"7g c #092878",
"7h c #000011",
"7i c #2A5DB8",
"7j c #2E63BF",
"7k c #00020B",
"7l c #1F489A",
"7m c #2C62C2",
"7n c #3471CC",
"7o c #356FD0",
"7p c #1849A5",
"7q c #2355AE",
"7r c #3A6DC8",
"7s c #00000C",
"7t c #000B2E",
"7u c #3670D1",
"7v c #194AA7",
"7w c #000A31",
"7x c #427AD9",
"7y c #2E64C6",
"7z c #1A4297",
"80 c #122B63",
"81 c #3471CE",
"82 c #2951A8",
"83 c #14296A",
"84 c #000213",
"85 c #2D5CB4",
"86 c #113486",
"87 c #17439A",
"88 c #2254B7",
"89 c #2355B8",
"8a c #1C4199",
"8b c #030923",
"8c c #2F64C2",
"8d c #2F63C6",
"8e c #1B439B",
"8f c #000120",
"8g c #000124",
"8h c #05297F",
"8i c #0D368E",
"8j c #1F54B2",
"8k c #00082E",
"8l c #061E66",
"8m c #2D62C0",
"8n c #285FBC",
"8o c #152A6D",
"8p c #2F62BE",
"8q c #2B5CBB",
"8r c #041950",
"8s c #11358D",
"8t c #3E7DDA",
"8u c #1B4098",
"8v c #2654B2",
"8w c #10348A",
"8x c #042982",
"8y c #407BD7",
"8z c #031F69",
"90 c #041853",
"91 c #000936",
"92 c #2851A9",
"93 c #4D8DE5",
"94 c #041F66",
"95 c #00093C",
"96 c #152A63",
"97 c #022A81",
"98 c #16429B",
"99 c #2E5DB7",
"9a c #1749AA",
"9b c #011959",
"9c c #0B1E58",
"9d c #0B1845",
"9e c #3E7ED8",
"9f c #4B8EE5",
"9g c #346FCB",
"9h c #2A52A9",
"9i c #1F56B3",
"9j c #153580",
"9k c #427DDB",
"9l c #2953A9",
"9m c #3362BE",
"9n c #1E56B3",
"9o c #2D519D",
"9p c #447ADA",
"9q c #020003",
"9r c #020923",
"9s c #1B3477",
"9t c #407BD9",
"9u c #1747A9",
"9v c #060918",
"9w c #1C4295",
"9x c #000015",
"9y c #0F2B6C",
"9z c #00031D",
"a0 c #1E54B4",
"a1 c #2455B4",
"a2 c #0C1840",
"a3 c #2455B2",
"a4 c #000017",
"a5 c #020727",
"a6 c #000932",
"a7 c #000025",
"a8 c #000838",
"a9 c #00083C",
"aa c #00083A",
"ab c #03092D",
"ac c #00011C",
"ad c #00072B",
"ae c #0A1849",
"af c #0B1747",
"ag c #08194D",
"ah c #152862",
"ai c #0A1E59",
"aj c #00000D",
"ak c #000118",
"al c #1B3379",
"am c #122B6E",
"an c #081D60",
"ao c #071E62",
"ap c #20428C",
"aq c #162961",
"ar c #000B37",
"as c #000219",
"at c #020006",
"au c #000211",
"av c #0E1E52",
"aw c #031859",
"ax c #0C2774",
"ay c #153486",
"az c #204190",
"b0 c #0B2878",
"b1 c #021E71",
"b2 c #0E2B71",
"b3 c #1C3472",
"b4 c #0A1942",
"b5 c #162B60",
"b6 c #1C3470",
"b7 c #031955",
"b8 c #0C2670",
"b9 c #0D2A7A",
"ba c #2C51A9",
"bb c #12348D",
"bc c #1A4299",
"bd c #18347D",
"be c #132963",
"bf c #0A2773",
"bg c #1F408D",
"bh c #002069",
"bi c #18347E",
"bj c #183585",
"bk c #11338A",
"bl c #1F48A2",
"bm c #2047A2",
"bn c #2F61C2",
"bo c #1E479F",
"bp c #113488",
"bq c #09194A",
"br c #02020A",
"bs c #010008",
"bt c #10286E",
"bu c #214090",
"bv c #13368A",
"bw c #3760B8",
"bx c #113788",
"by c #00195C",
"bz c #132A6D",
"c0 c #214092",
"c1 c #1D46A2",
"c2 c #1742A1",
"c3 c #041E69",
"c4 c #1B3474",
"c5 c #234189",
"c6 c #0C3793",
"c7 c #2F5CB1",
"c8 c #001A5E",
"c9 c #00185B",
"ca c #1B47A8",
"cb c #1B429D",
"cc c #19409B",
"cd c #2E51A2",
"ce c #122B6D",
"cf c #000016",
"cg c #315BAF",
"ch c #2D5AB5",
"ci c #0A3794",
"cj c #2B5EBA",
"ck c #3462BA",
"cl c #062A78",
"cm c #001B68",
"cn c #1D429B",
"co c #1E46A5",
"cp c #1B49A7",
"cq c #18419B",
"cr c #18439F",
"cs c #2853AF",
"ct c #143582",
"cu c #030825",
"cv c #113581",
"cw c #477AD6",
"cx c #05297D",
"cy c #154AA8",
"cz c #2453AD",
"d0 c #3C6DCA",
"d1 c #1E469B",
"d2 c #0E2C74",
"d3 c #04184B",
"d4 c #030921",
"d5 c #153484",
"d6 c #2752AE",
"d7 c #4779D8",
"d8 c #063794",
"d9 c #2652A9",
"da c #1B4291",
"db c #0B2C71",
"dc c #142A63",
"dd c #010006",
"de c #1A49A3",
"df c #1644A2",
"dg c #1748A7",
"dh c #2D5BB1",
"di c #2B54A6",
"dj c #214289",
"dk c #0B1E56",
"dl c #07184C",
"dm c #00206E",
"dn c #2652B1",
"do c #447CD9",
"dp c #2152AE",
"dq c #3A70CA",
"dr c #3E6DC5",
"ds c #2B51A2",
"dt c #18337A",
"du c #08184C",
"dv c #03091F",
"dw c #000321",
"dx c #000B36",
"dy c #001A57",
"dz c #3361BF",
"e0 c #2A64C5",
"e1 c #3063BE",
"e2 c #2D62BE",
"e3 c #2753AA",
"e4 c #000829",
"e5 c #000A3A",
"e6 c #001A55",
"e7 c #11367D",
"e8 c #325CAE",
"e9 c #366ECF",
"ea c #2A5CBD",
"eb c #376DCF",
"ec c #0D1845",
"ed c #000018",
"ee c #1D336C",
"ef c #3A61B0",
"eg c #487AD1",
"eh c #4479D7",
"ei c #295BBC",
"ej c #3870D1",
"ek c #17357D",
"el c #06174B",
"em c #02082A",
"en c #000926",
"eo c #2D519B",
"ep c #3562B5",
"eq c #5689E2",
"er c #285EBE",
"es c #093894",
"et c #2553AB",
"eu c #0A1743",
"ev c #244081",
"ew c #335CAC",
"ex c #15429F",
"ey c #2453AF",
"ez c #1C48A1",
"f0 c #1A357C",
"f1 c #112A6C",
"f2 c #0D358A",
"f3 c #3B6ECA",
"f4 c #2D65C4",
"f5 c #396FD1",
"f6 c #0A3792",
"f7 c #04174F",
"f8 c #00000A",
"f9 c #0B2874",
"fa c #032B83",
"fb c #2154B0",
"fc c #1541A0",
"fd c #0A1944",
"fe c #09297E",
"ff c #0A3695",
"fg c #1D4396",
"fh c #0D286B",
"fi c #0C2776",
"fj c #011D70",
"fk c #002073",
"fl c #0C358F",
"fm c #2754AF",
"fn c #1F56B1",
"fo c #1748A5",
"fp c #1B4AA6",
"fq c #1B499F",
"fr c #2552A7",
"fs c #14367E",
"ft c #0A1648",
"fu c #08174E",
"fv c #091E5F",
"fw c #0F2672",
"fx c #031E6F",
"fy c #09297C",
"fz c #1C49A4",
"g0 c #265CBC",
"g1 c #1645A1",
"g2 c #1344A3",
"g3 c #2D5CB6",
"g4 c #2C5EB7",
"g5 c #315AAA",
"g6 c #132B67",
"g7 c #000839",
"g8 c #00083F",
"g9 c #071E6A",
"ga c #031E6D",
"gb c #022A82",
"gc c #417BDC",
"gd c #427AD7",
"ge c #2F5BB2",
"gf c #2653A6",
"gg c #2E5CB1",
"gh c #345BAA",
"gi c #375090",
"gj c #0F276D",
"gk c #0C2671",
"gl c #0F2974",
"gm c #021F6F",
"gn c #11368E",
"go c #2653AE",
"gp c #4F8CE9",
"gq c #447CDB",
"gr c #3870CD",
"gs c #123586",
"gt c #0B2B76",
"gu c #0B2B74",
"gv c #183579",
"gw c #3A4E89",
"gx c #00083E",
"gy c #112965",
"gz c #0F2C72",
"h0 c #0D2A78",
"h1 c #0B2876",
"h2 c #032881",
"h3 c #12348B",
"h4 c #1E4097",
"h5 c #062A80",
"h6 c #2055B1",
"h7 c #518CE8",
"h8 c #1349A9",
"h9 c #081F62",
"ha c #19295C",
"hb c #000A3C",
"hc c #183380",
"hd c #1744A1",
"he c #042984",
"hf c #062881",
"hg c #05277E",
"hh c #072980",
"hi c #12439F",
"hj c #2B63C4",
"hk c #1644A4",
"hl c #103590",
"hm c #08287B",
"hn c #02082C",
"ho c #0D358D",
"hp c #4C8EE5",
"hq c #245FBD",
"hr c #1E54B6",
"hs c #457BDB",
"ht c #1A46A5",
"hu c #021E68",
"hv c #0D2B74",
"hw c #1F54B0",
"hx c #528AE7",
"hy c #295CB8",
"hz c #2455B1",
"i0 c #2C5DB9",
"i1 c #154AAA",
"i2 c #092A7B",
"i3 c #0B1D5B",
"i4 c #0A1646",
"i5 c #00001B",
"i6 c #16347D",
"i7 c #4F8CE7",
"i8 c #3F7CD5",
"i9 c #376ECB",
"ia c #3F7EDB",
"ib c #2D61C4",
"ic c #2750A8",
"id c #2C50A4",
"ie c #0C2977",
"if c #03185B",
"ig c #21418C",
"ih c #2752B0",
"ii c #508BE7",
"ij c #2F50A1",
"ik c #0B2770",
"il c #061A4F",
"im c #3671CD",
"in c #012981",
"io c #1F4296",
"ip c #24428B",
"iq c #0B1F54",
"ir c #010010",
"is c #21418A",
"it c #295EBE",
"iu c #0E3592",
"iv c #133388",
"iw c #0F2973",
"ix c #0D1F51",
"iy c #183676",
"iz c #3163C2",
"j0 c #2153B6",
"j1 c #275CB8",
"j2 c #2964C2",
"j3 c #041A4C",
"j4 c #26468F",
"j5 c #1549AC",
"j6 c #2552AD",
"j7 c #2D5CB8",
"j8 c #2754A9",
"j9 c #0F2B6A",
"ja c #081945",
"jb c #000227",
"jc c #38518A",
"jd c #315AB2",
"je c #2B63C0",
"jf c #1F48A0",
"jg c #315297",
"jh c #142B61",
"ji c #0C1939",
"jj c #344F92",
"jk c #1D4092",
"jl c #407DD6",
"jm c #3572CD",
"jn c #3370CB",
"jo c #1A48AA",
"jp c #457CD9",
"jq c #052882",
"jr c #113687",
"js c #1E4296",
"jt c #162A5C",
"ju c #000122",
"jv c #032066",
"jw c #4E8EE8",
"jx c #4C8CE6",
"jy c #2E65C0",
"jz c #052A83",
"k0 c #07277A",
"k1 c #0E2976",
"k2 c #0F2A6F",
"k3 c #1A3376",
"k4 c #081D5C",
"k5 c #051850",
"k6 c #000218",
"k7 c #051852",
"k8 c #133483",
"k9 c #2654AC",
"ka c #3F7CD7",
"kb c #4E8EE6",
"kc c #1648A9",
"kd c #093797",
"ke c #1B46A2",
"kf c #081F63",
"kg c #0C1842",
"kh c #1B2956",
"ki c #0B1946",
"kj c #040926",
"kk c #143584",
"kl c #0A2B78",
"km c #1344A1",
"kn c #1B49AB",
"ko c #1642A1",
"kp c #2B4FA3",
"kq c #071F5F",
"kr c #010824",
"ks c #14347D",
"kt c #2755AD",
"ku c #2D65C6",
"kv c #325CB2",
"kw c #040A1A",
"kx c #0C1945",
"ky c #011A5C",
"kz c #366ECB",
"l0 c #2F61C0",
"l1 c #183778",
"l2 c #2253B0",
"l3 c #1948A4",
"l4 c #1749AC",
"l5 c #3D6DC2",
"l6 c #2F5294",
"l7 c #091744",
"l8 c #0A2775",
"l9 c #11378C",
"la c #4B79CE",
"lb c #2F5296",
"lc c #000A2F",
"ld c #041952",
"le c #122A66",
"lf c #1949AB",
"lg c #1F48A4",
"lh c #0F348D",
"li c #12368E",
"lj c #1B4099",
"lk c #315BB1",
"ll c #3761B5",
"lm c #305194",
"ln c #0A1940",
"lo c #172A64",
"lp c #112971",
"lq c #305DB2",
"lr c #09287A",
"ls c #0A2777",
"lt c #092974",
"lu c #17347A",
"lv c #335094",
"lw c #244386",
"lx c #000A2A",
"ly c #19347B",
"lz c #2F509D",
"m0 c #2B51A4",
"m1 c #1F47A6",
"m2 c #1D4199",
"m3 c #173386",
"m4 c #0E2873",
"m5 c #12296D",
"m6 c #14295E",
"m7 c #01000A",
"m8 c #18295F",
"m9 c #1E346E",
"ma c #143481",
"mb c #153582",
"mc c #16347C",
"md c #334F98",
"me c #344F94",
"mf c #14296C",
"mg c #152863",
"mh c #010A2B",
"mi c #182A5A",
"mj c #081849",
"mk c #01092D",
"ml c #030A26",
"mm c #000108",
"mn c #000929",
"mo c #00092B",
"mp c #000225",
"mq c #00001A",
"    0909    420g0n  2v2v0g    4h0l1m3n348g8kftg88r8rhb60914k5q1wir0b||  9q08  5w  0i        0n      ",
"    0909    0g0g0i  2v0g0g||7s1wen7t7w5dfd3yfu6p3pgy6k966s1v5d1c3t611m0l0b0c620x            0i0n    ",
"0g  0909    08080n      087k307w80evf1443p3pfv8ogjgzhc5chvi6ig9jisiyj3jb9r2x1b74||          ||26    ",
"0g    09    085x0i        0l7teeeoew2af92z6c8l8lgkh05m8w5n4pih4u1h9lj4jc35juk69v0b0x  0i0n  ||||    ",
"08    ||    0g0g  0n0idd0cdve576ep85f2436zfifwg9glh15g971e1h4v++..5a9l9ojj6i2u6e0l4h  9q0i  0g0g    ",
"080826||  0i||2y0b1b0o0l2xdwe6efeq2p872bfefjfxgagm2a5n983c0r2116060k9mjdjkjvk75d51kw0c4t    4264    ",
"3u08||at  ||bs5y75cu464m51dxe7eg570k0h295gfkfy5g4f8u9299hw2o2006++iz0z0h274ak89s1v340o  0808  0n    ",
"3u09  ||||0b454b4q3a2w2wdldye8eh560s0qfa8h8h29gb143b5e7rhx1l192o0m0j2j18171u4pkk67kx307s0c0i        ",
"0909    0c1w4k7076cvd57gdm7l7a0r2o575a398iflfz0z8q2s5i5p2li7ii0v1j0v2l3h10188ikl9b1va25q9v0c  08    ",
"095w5v0x6j346sc5cg7ad61pdndz0a0m192mf3171ufm6h1r2s8vhd7p3hi81jim1j9g8y0v0t8ck99wksky96l73n0l0c08    ",
"      1b3035bt2bchcwd71n0y52XX0e0w5812fb0z0q491x2eh2he0h5j1j0e0e++++1907071i0k2dkt9w7g8o9d8b1b09    ",
"      au1cbebu4n177b++0d1153065681242m8c0f0z0h148sh3hf36hy1s12151a11230m3r0w3k1i++5i4nl82w4m410i    ",
"085x0i45b5bfbv360q2g..20++7m0e193k22070d//3q0h282ch44f8xhz120k0a//j0//131j24ka240w0k1h6bld3t0o08    ",
"08  2y6eb66l6tc6ci18..061i0e0e7x070ef40d..0f1f28gnh5hg29i0i90j2k////2f13jl93kb9e24kz3g7lle1c840i    ",
"  ||aj466kbgbw2dcj0r1g16070e220e1606061g0d0j3e1e8a8whhho7i1s13122p2p5513jmjw1t2t241sl2l93j3y1mm7||  ",
"  0bak47b7bhbxc7ck2d2h06070t0w0706061106++0s1r0h388s5o2e3g1s0e1s13j10j8njnjx5k8t2r1s178u8zlo501o3x0x",
"085y65av4d2zbyc8cl7c1h0r++3i072o205388881k128m2d148x6u147j0w0w1i0e++139n0v249t0w1l12l3975flp9c4q1wmm",
"0b1m66awb8bibzc9cmcx4g2g++07070d063m89//0r0j108pgo4g141u122r1l3k16190eje1j9t1907ku0d1z986n5flym89r0o",
"a4ad67axb9bjc06l772c144x2l0v++20++++1a//0u0a0j105jh6hi5p0via812207071i3r070eXX..56070s5p1zlqlzm9mh4c",
"a53valay4ebk6u2ecn3614de3h7n0d06++++XX250a4yg0071jh73h2l9e1t5k9k070t0t0t2125kc3721++a0..0k7qm09y1c3f",
"2u5zamazbabl1x1xco4o0q2g2l1j0e2023XX..0j2pfn2o0w8t2t93hp9f9f1t2t2r9k0t3d150fkd1q2na01a4j0a4u4n5s3551",
"a6ae686f286m1p1p1p4o4w4ydo22e97y3l0y0r0k0j130e2rgp5k2t1t1t1t1t2t2r220e9i//0f0f31..3ll4//lf0zm1ma3amn",
"a7afanb0bbbm3271323b174y1i7o7u3i..//XX15XX1507gc1l1l3rhq3r3k220w7oj29n1325..0r0s..XX723s522s3bmb59mo",
"2u3yaob14f36c11p397d3c2j1ie03i07..XX25XX//..160t0t0e3mhr3m1g7y1616071013XX150j0s..//9u3o//a3329j59mp",
"3vag2z6g291e6vcacp0zd82j0d0e0m10120jXX2hXX..++0t0713..XXi12h11060606++++XX0r1n1n0a0a0y//0a1h385s3a4s",
"a8ah69484g4i6w724r2f2i0s0d++550j101k1kXXXX23++0dgq7eXX////52898d11060606..0r310f0u5b0a2ka30h6xmcmi8g",
"5t3z4349314j0y0y4jXX3d0t21++0k0j++++++++3l..06++0d0d..9a2i5b0yXXXX3m1g1g2n0j18km0f1q0f8v4i14m2mdmj3t",
"a93z6a6h1nbn37//2fcy100m0606..15++++++1kXXXX1106++++0d..0u0u////..XX0620..1n2s2g0fa14w0qlg2c77me358f",
"aaai6b1u1d0p4l0p0z17180u..11//eier++150r0aXX2q11..5l19hsXX9a//3lXXXXj51a//0y4r3o5h4l0z3blh5mm3mfa2mq",
"3v2wap27321pc24o0h1f3edfXX2h////1k7mXX//0a//..1a..h8071l5l..1k++0m++2q//3s3s9ukn0p1d0q1y5olrm4mgmk1o",
"ab606c4abcbo1e141e1y1d0pXX2n//0u0j..532qXX..////XX5l0v7n9g0v19070w071k//jo0p5hko1p0h1x1elilsm51vml0l",
"ac2u446f4a6n384pcq0h1ddg....ea0uXX++118d..XX//XX0m071l0v0v587x070w0t0d..0f0f0f0z0q0h0h1e5o333p5r1o7k",
"3w61aqb22a2b2ccbcr0z1q0yXX++XX0m1607f5..0m++XX0mgr8y7u3i129i0m0606063d9pjp57108j184w1d0hljltm63t0l0x",
"3x40arb333bp2ccccs4u2iXX0m21ebej16++5b2j8j0k0m070v58hj1gXX552q111aXX0u0r2pjy9p0d2nl0a10q285s3a5q1b  ",
"||2x6d6ibd6o6x27141f0k192m2m070d..18f65e1h0a130v1l0w0e1k0u0a2q1ait2f171f0h4i1n0d0d213d5a92lu5r1m0b  ",
"0n41asb444336y481ecz0s1i2m10120k0f0q391y3efo8ngd07078m0u0a0aXX25XX1r6m38jqjzke9m8p0s5j4zlklv1c4c0b  ",
"3u620l4b1v686z2b39d00s103ge10u0fesex1d1d0h0q0a2n06..0f3q0f0a15XX371q1y295mk04ekpkv79l5lalllw8k3w0c  ",
"  630c4c1c6pc32b1u4vXX7bdp7p187v170z0p6w0h0h3q1n..0yhk1d0fXX23231a1q1y5n4ek1kfkq9yl1l6lblm80340o2y  ",
"5u    0o4bbq2z48787e152k4z7q7v2f2j2i//311u1yg11r0s250f0p0y1a111g062kj67z43k295509z9z6dlclnlx7h2y||  ",
"2v0g  0b1o1cc4cd791z1r3g7i7r0j2h0k0k..2i3e7d3c1z4v0u0f1q37ib06061g0k997cjr4d7f9x0b0x0o1w1w0l735u    ",
"  0n0i0c416q1vcectd1d94z7j1s0606XX//0y3o0p4lg25i2g180p3sXX++150d++0s1z87js3j479x0b  0c0b0b0c||      ",
"    ||0x4h6r4m663zd2dadhdq0t16060a1q4r3o0p5h//2s3c1f6vht0a0r0a0a12102djf86k3kg1m0b                  ",
"5v080i  0xbr0ocf4sd3dbdidre2230j1zey0p0pff3q2k8q1x2ehl2e5e171f1h0s0kj7822a3jkhkr1b  080809090x0x    ",
"0808        0i731o4sdcdjdse34x4xetez49fc0qfp1r1h286ghm6o9hic8e711r78j86a5ck4ki3n1b      09090909    ",
"0g640g0n  090n740od47fdkdt2a6y7z82271x0q1f1fg3gegs8z94hui2id6tiniu9h9ojg9sk54k400b    ||||          ",
"0g420g    0926||0c0o3f50du543jek69868a8e27fq85gfgt4d839b94ieijioiv33j9jhjt4qkj3w0c  ||||||    08    ",
"||||            0i||0b7h30e4ecel83f05c5ffgfrg4ggguh9909ci3ifikipiw54jaji6q1o6j0b0x09||||            ",
"||||6309    0n  4t4t  260c0ledemeu59f754fhfsg5ghgv90959di45ziliqix5r3n6r0o0c||||0909||    08        ",
"                        ||0c3x0o84758b8f1c5tg6gigwha4746i5401m451o2x1b0c0c||                        ",
"                                  26f80l3f65g770gx91hn3f0l0b||                                      "
};