/* XPM */
static char *picture[] = {
"50 50 818 2 ",
"   c None",
"XX c #2459B9",
"++ c #030208",
".. c #1C4DAC",
"|| c #2359B9",
"// c #2658B7",
"06 c #336BCC",
"07 c #346ACC",
"08 c #1E4CAC",
"09 c #2E64C4",
"0a c #2658B9",
"0b c #346ACA",
"0c c #2D65C4",
"0d c #020307",
"0e c #02020A",
"0f c #123E9D",
"0g c #1E4CAA",
"0h c #2459B7",
"0i c #3D75D4",
"0j c #336BCA",
"0k c #3B76D4",
"0l c #040308",
"0m c #4B86E4",
"0n c #020106",
"0o c #235AB7",
"0p c #040207",
"0q c #1F4BAA",
"0r c #2757B9",
"0s c #4A87E4",
"0t c #133E9C",
"0u c #1C4CAE",
"0v c #1B4DAE",
"0w c #02020C",
"0x c #030305",
"0y c #000211",
"0z c #00020E",
"10 c #356ACA",
"11 c #1B4DAC",
"12 c #4A87E2",
"13 c #000215",
"14 c #00020F",
"15 c #2758B5",
"16 c #2359BB",
"17 c #2F64C2",
"18 c #2E65C2",
"19 c #133E9A",
"1a c #123F9C",
"1b c #2659B5",
"1c c #2458BB",
"1d c #3E74D4",
"1e c #3B75D6",
"1f c #225AB9",
"1g c #020308",
"1h c #02020E",
"1i c #000213",
"1j c #020107",
"1k c #1F4CA9",
"1l c #194EAC",
"1m c #2758B7",
"1n c #2F64C4",
"1o c #000218",
"1p c #204BA7",
"1q c #153E96",
"1r c #123F9A",
"1s c #113F9D",
"1t c #1D4EAD",
"1u c #1C4DAA",
"1v c #194EAE",
"1w c #00021E",
"1x c #000216",
"1y c #010A2B",
"1z c #204CA5",
"20 c #000A2D",
"21 c #0F409F",
"22 c #2958B2",
"23 c #2358B8",
"24 c #356BCD",
"25 c #2758B4",
"26 c #4D85E4",
"27 c #245ABA",
"28 c #000B32",
"29 c #2D65C2",
"2a c #05206D",
"2b c #2B66C4",
"2c c #040205",
"2d c #000A34",
"2e c #03020A",
"2f c #000A2E",
"2g c #1B4CA9",
"2h c #04194E",
"2i c #356BCB",
"2j c #113F9F",
"2k c #255ABA",
"2l c #2957B7",
"2m c #356AC8",
"2n c #2759B8",
"2o c #2E64C6",
"2p c #346CCD",
"2q c #316BCC",
"2r c #00021A",
"2s c #000A36",
"2t c #040108",
"2u c #020305",
"2v c #01010B",
"2w c #25458E",
"2x c #13368A",
"2y c #163E95",
"2z c #000B2E",
"30 c #1D46A2",
"31 c #3769C8",
"32 c #1F4CA7",
"33 c #1E4DA9",
"34 c #2958B4",
"35 c #000B2B",
"36 c #3369C9",
"37 c #1F4BAC",
"38 c #356AC6",
"39 c #3569CC",
"3a c #123E9F",
"3b c #3D75D6",
"3c c #00011B",
"3d c #3E74D6",
"3e c #2D65C6",
"3f c #336ACE",
"3g c #1F4DAD",
"3h c #113E9B",
"3i c #10368B",
"3j c #2D64C1",
"3k c #2F65C5",
"3l c #2759BA",
"3m c #11409C",
"3n c #2F66C3",
"3o c #10358D",
"3p c #0E368E",
"3q c #1F479E",
"3r c #3A77D4",
"3s c #00030F",
"3t c #000B39",
"3u c #000A30",
"3v c #081947",
"3w c #112760",
"3x c #07194B",
"3y c #03030D",
"3z c #163E96",
"40 c #2A57B2",
"41 c #17357E",
"42 c #182D66",
"43 c #000A31",
"44 c #040309",
"45 c #123586",
"46 c #1D469E",
"47 c #010206",
"48 c #113686",
"49 c #172D69",
"4a c #000A3B",
"4b c #11368E",
"4c c #183E91",
"4d c #17357B",
"4e c #000A32",
"4f c #3463BD",
"4g c #13409D",
"4h c #133E9D",
"4i c #002276",
"4j c #103E9C",
"4k c #081945",
"4l c #030A26",
"4m c #1B4EAA",
"4n c #1E4CAE",
"4o c #2E63C1",
"4p c #1D4EAB",
"4q c #3C74D5",
"4r c #2557B8",
"4s c #041950",
"4t c #00031A",
"4u c #346ACE",
"4v c #2D63C3",
"4w c #1D4CA8",
"4x c #306BC9",
"4y c #2E66C5",
"4z c #1C4DA9",
"50 c #3B76D2",
"51 c #3C77D5",
"52 c #4C87E5",
"53 c #2657B6",
"54 c #000A37",
"55 c #346CCB",
"56 c #082164",
"57 c #11358B",
"58 c #0D368E",
"59 c #316CCA",
"5a c #123589",
"5b c #255AB8",
"5c c #3164BF",
"5d c #3D75D2",
"5e c #091843",
"5f c #4888E2",
"5g c #3A77D2",
"5h c #1B47A0",
"5i c #000113",
"5j c #2F64C0",
"5k c #040A22",
"5l c #00020B",
"5m c #030A27",
"5n c #000936",
"5o c #00021F",
"5p c #04184B",
"5q c #030409",
"5r c #020204",
"5s c #00021C",
"5t c #143584",
"5u c #193576",
"5v c #071748",
"5w c #040926",
"5x c #030408",
"5y c #113687",
"5z c #224597",
"60 c #224596",
"61 c #152759",
"62 c #1C3470",
"63 c #3869C6",
"64 c #3263C0",
"65 c #204DAA",
"66 c #112E74",
"67 c #142D6F",
"68 c #09215F",
"69 c #000110",
"6a c #010A29",
"6b c #152D6B",
"6c c #0D3690",
"6d c #0B3790",
"6e c #010109",
"6f c #08184B",
"6g c #1C3474",
"6h c #123D99",
"6i c #1D4BA9",
"6j c #1B46A2",
"6k c #1B479E",
"6l c #1A48A0",
"6m c #2A57B4",
"6n c #153D94",
"6o c #143582",
"6p c #214697",
"6q c #01226F",
"6r c #204BA9",
"6s c #123D9C",
"6t c #040A24",
"6u c #010204",
"6v c #1A47A4",
"6w c #2657B4",
"6x c #3469C9",
"6y c #142D66",
"6z c #00030C",
"70 c #1A4CAB",
"71 c #3369CB",
"72 c #2658B1",
"73 c #050308",
"74 c #4075D3",
"75 c #1240A0",
"76 c #366BCB",
"77 c #1D4BAD",
"78 c #2557B6",
"79 c #346BC8",
"7a c #1648A7",
"7b c #000B34",
"7c c #000316",
"7d c #030106",
"7e c #245BB8",
"7f c #2C64C3",
"7g c #4C86E7",
"7h c #000A25",
"7i c #366ACD",
"7j c #1E469B",
"7k c #153582",
"7l c #2E66C3",
"7m c #346BCF",
"7n c #4B85E6",
"7o c #2459B5",
"7p c #326ACB",
"7q c #2C64C5",
"7r c #3163C4",
"7s c #133F98",
"7t c #3F74D0",
"7u c #184CAF",
"7v c #2258B8",
"7w c #2358B6",
"7x c #1A46A5",
"7y c #1C48A1",
"7z c #355497",
"80 c #4B88E3",
"81 c #184DAD",
"82 c #3364C0",
"83 c #204699",
"84 c #153E98",
"85 c #336BC8",
"86 c #235AB5",
"87 c #0B1940",
"88 c #092064",
"89 c #06216E",
"8a c #022171",
"8b c #113488",
"8c c #051853",
"8d c #04216F",
"8e c #0E368D",
"8f c #0C419F",
"8g c #112D76",
"8h c #000A3D",
"8i c #0D2058",
"8j c #06206D",
"8k c #03206E",
"8l c #3A69C5",
"8m c #225AB7",
"8n c #00227A",
"8o c #0D358C",
"8p c #4887E4",
"8q c #3163C2",
"8r c #143D97",
"8s c #193D91",
"8t c #20469B",
"8u c #193D93",
"8v c #000B36",
"8w c #14285B",
"8x c #2B55AB",
"8y c #1A357A",
"8z c #0A1845",
"90 c #2159B8",
"91 c #4C87E3",
"92 c #123587",
"93 c #143586",
"94 c #4E85DF",
"95 c #15357E",
"96 c #4D85E2",
"97 c #3C74D3",
"98 c #000114",
"99 c #00011E",
"9a c #020B2C",
"9b c #3C76D7",
"9c c #153E9A",
"9d c #2B56B2",
"9e c #234BA0",
"9f c #2E66C7",
"9g c #193672",
"9h c #081849",
"9i c #011957",
"9j c #000A3E",
"9k c #00011A",
"9l c #01010D",
"9m c #2957B5",
"9n c #133D9F",
"9o c #3263C2",
"9p c #1E469E",
"9q c #1A3D8E",
"9r c #000933",
"9s c #05194E",
"9t c #000226",
"9u c #000B38",
"9v c #050306",
"9w c #000318",
"9x c #000C26",
"9y c #000C2C",
"9z c #00092F",
"a0 c #051A51",
"a1 c #172D66",
"a2 c #13285F",
"a3 c #0B1842",
"a4 c #000A2A",
"a5 c #02010F",
"a6 c #081A4A",
"a7 c #162C65",
"a8 c #1C3673",
"a9 c #122E6F",
"aa c #092265",
"ab c #062168",
"ac c #04216D",
"ad c #193E8C",
"ae c #3055A3",
"af c #193D8B",
"ag c #16367F",
"ah c #041952",
"ai c #000931",
"aj c #00011D",
"ak c #00010D",
"al c #050A20",
"am c #0E183C",
"an c #142D6D",
"ao c #214495",
"ap c #1E469D",
"aq c #152E70",
"ar c #091744",
"as c #0B1844",
"at c #000B2D",
"au c #00031E",
"av c #04091D",
"aw c #010312",
"ax c #010310",
"ay c #020925",
"az c #172856",
"b0 c #102E74",
"b1 c #214BA1",
"b2 c #163F99",
"b3 c #2F57AE",
"b4 c #204DA8",
"b5 c #1A45A1",
"b6 c #193E8F",
"b7 c #14347D",
"b8 c #183579",
"b9 c #0E2662",
"ba c #193574",
"bb c #172E64",
"bc c #000319",
"bd c #00092C",
"be c #00022A",
"bf c #26468F",
"bg c #0F3588",
"bh c #103F9B",
"bi c #1B4CAB",
"bj c #0B3692",
"bk c #103687",
"bl c #123684",
"bm c #3155A3",
"bn c #4167BA",
"bo c #32549C",
"bp c #050A1E",
"bq c #041853",
"br c #000A40",
"bs c #1F3C88",
"bt c #123D9B",
"bu c #0D378D",
"bv c #3564BE",
"bw c #3968C4",
"bx c #112F75",
"by c #051850",
"bz c #00021B",
"c0 c #010214",
"c1 c #030406",
"c2 c #000424",
"c3 c #19367A",
"c4 c #264B9C",
"c5 c #04226B",
"c6 c #000A42",
"c7 c #000B44",
"c8 c #153D95",
"c9 c #153D9C",
"ca c #2859B8",
"cb c #051A4F",
"cc c #070A1B",
"cd c #000321",
"ce c #203665",
"cf c #325597",
"cg c #2B56A5",
"ch c #1A489D",
"ci c #2958B0",
"cj c #224CA0",
"ck c #04226A",
"cl c #001B61",
"cm c #002374",
"cn c #0A3591",
"co c #3265C1",
"cp c #1748A4",
"cq c #234C9E",
"cr c #24468E",
"cs c #000B30",
"ct c #39548B",
"cu c #3963AF",
"cv c #3165BB",
"cw c #245AB4",
"cx c #4273CF",
"cy c #244CA1",
"cz c #2558B4",
"d0 c #0F409C",
"d1 c #2756B2",
"d2 c #2859B6",
"d3 c #3663B8",
"d4 c #30559C",
"d5 c #102759",
"d6 c #000313",
"d7 c #011A52",
"d8 c #2D57A9",
"d9 c #4173D2",
"da c #214CAB",
"db c #2E62C5",
"dc c #2858BA",
"dd c #3D74D1",
"de c #2958AA",
"df c #15367B",
"dg c #12285A",
"dh c #000322",
"di c #000112",
"dj c #0E2767",
"dk c #204CA3",
"dl c #3F74D4",
"dm c #3F73D6",
"dn c #103E9E",
"do c #2759B2",
"dp c #204697",
"dq c #112E70",
"dr c #07184E",
"ds c #01216C",
"dt c #3F75D7",
"du c #1240A2",
"dv c #1B4BAD",
"dw c #254693",
"dx c #152D69",
"dy c #000225",
"dz c #082161",
"e0 c #2556B2",
"e1 c #1A47A2",
"e2 c #27458B",
"e3 c #13275A",
"e4 c #03030F",
"e5 c #000C3A",
"e6 c #0D2D76",
"e7 c #3768C5",
"e8 c #1A4DA9",
"e9 c #3369CD",
"ea c #3E74D8",
"eb c #174DAD",
"ec c #4A84E5",
"ed c #10419E",
"ee c #1E4BA6",
"ef c #132F6E",
"eg c #2E57A9",
"eh c #3869C5",
"ei c #2258BA",
"ej c #1E479F",
"ek c #1A3D8F",
"el c #122D72",
"em c #14367D",
"en c #3663B6",
"eo c #3265BE",
"ep c #1D4DAF",
"eq c #2F63C6",
"er c #153580",
"es c #0A225E",
"et c #192D62",
"eu c #34549D",
"ev c #3B67BE",
"ew c #113D9E",
"ex c #1C3D84",
"ey c #18284C",
"ez c #375595",
"f0 c #4B71C4",
"f1 c #4473CD",
"f2 c #3E75D9",
"f3 c #245ABE",
"f4 c #2357BA",
"f5 c #1F4DAF",
"f6 c #1B48A5",
"f7 c #2E54A5",
"f8 c #203E7E",
"f9 c #000421",
"fa c #152853",
"fb c #316BCE",
"fc c #133F9E",
"fd c #2B57B0",
"fe c #3A63B5",
"ff c #162755",
"fg c #071949",
"fh c #122D70",
"fi c #103488",
"fj c #163D98",
"fk c #3A74D5",
"fl c #2656B8",
"fm c #224BA5",
"fn c #1B3D87",
"fo c #375392",
"fp c #1C2D5B",
"fq c #081F62",
"fr c #012072",
"fs c #002178",
"ft c #2F66C0",
"fu c #356CC7",
"fv c #3164C0",
"fw c #0A3792",
"fx c #00195C",
"fy c #000222",
"fz c #152559",
"g0 c #05206F",
"g1 c #124098",
"g2 c #0B378E",
"g3 c #1948A2",
"g4 c #2658BB",
"g5 c #2759BC",
"g6 c #224BA7",
"g7 c #05216A",
"g8 c #16265A",
"g9 c #051F6A",
"ga c #002172",
"gb c #3063BF",
"gc c #4A85E3",
"gd c #3468CB",
"ge c #1947A7",
"gf c #05216B",
"gg c #0D2D80",
"gh c #183D95",
"gi c #0F348C",
"gj c #4988E5",
"gk c #184DAB",
"gl c #3E76D7",
"gm c #133485",
"gn c #102053",
"go c #000B3D",
"gp c #082066",
"gq c #051F6C",
"gr c #042171",
"gs c #3B68C5",
"gt c #1A469F",
"gu c #112E7A",
"gv c #031851",
"gw c #13265E",
"gx c #1B3379",
"gy c #102D7D",
"gz c #2956B3",
"h0 c #10348A",
"h1 c #163F9B",
"h2 c #3062C1",
"h3 c #1F4DAB",
"h4 c #1C459F",
"h5 c #082163",
"h6 c #112C71",
"h7 c #052270",
"h8 c #163585",
"h9 c #4B88E5",
"ha c #093894",
"hb c #0F378E",
"hc c #19367C",
"hd c #0D2E7F",
"he c #3065C1",
"hf c #0E419C",
"hg c #0A3890",
"hh c #2259B6",
"hi c #3E75D2",
"hj c #0D378B",
"hk c #0C307E",
"hl c #1B3474",
"hm c #000323",
"hn c #000124",
"ho c #18367C",
"hp c #133F96",
"hq c #275AB3",
"hr c #4F86E1",
"hs c #2659B4",
"ht c #1A4FAF",
"hu c #1947A5",
"hv c #1C469A",
"hw c #010B26",
"hx c #01092D",
"hy c #1A489E",
"hz c #4B86E0",
"i0 c #1946A1",
"i1 c #2E56AD",
"i2 c #144097",
"i3 c #2757AC",
"i4 c #2D66BF",
"i5 c #4986E3",
"i6 c #1B46A5",
"i7 c #3469C7",
"i8 c #2856B4",
"i9 c #0C205B",
"ia c #08225F",
"ib c #264A9E",
"ic c #1F5AB6",
"id c #3054A0",
"ie c #284589",
"if c #132759",
"ig c #11265D",
"ih c #3354A1",
"ii c #4574CE",
"ij c #336AC7",
"ik c #1548A3",
"il c #13409B",
"im c #163F91",
"in c #103585",
"io c #1D3F89",
"ip c #345298",
"iq c #182D64",
"ir c #355399",
"is c #3C69BE",
"it c #3A75D3",
"iu c #4F86E3",
"iv c #113E99",
"iw c #022275",
"ix c #152E67",
"iy c #2E55A2",
"iz c #4375CE",
"j0 c #376AC6",
"j1 c #4986E1",
"j2 c #1C4EAF",
"j3 c #3E75D0",
"j4 c #012271",
"j5 c #062166",
"j6 c #0B1845",
"j7 c #030929",
"j8 c #081944",
"j9 c #335497",
"ja c #3862B4",
"jb c #3563BB",
"jc c #2556B3",
"jd c #4F84E2",
"je c #193E8E",
"jf c #0C2869",
"jg c #162753",
"jh c #000115",
"ji c #03030B",
"jj c #000B29",
"jk c #162F65",
"jl c #31539B",
"jm c #264C9F",
"jn c #3B78D3",
"jo c #1A4CAD",
"jp c #1748A5",
"jq c #3669C5",
"jr c #2B55A7",
"js c #183676",
"jt c #182750",
"ju c #000A2F",
"jv c #133481",
"jw c #1946A3",
"jx c #306BC7",
"jy c #2159B6",
"jz c #123C9E",
"k0 c #204CAB",
"k1 c #4573C8",
"k2 c #32549B",
"k3 c #061846",
"k4 c #030A24",
"k5 c #01030F",
"k6 c #062263",
"k7 c #254AA2",
"k8 c #0E3590",
"k9 c #1D4BAB",
"ka c #3F74D2",
"kb c #4274CD",
"kc c #2E55A0",
"kd c #041A4C",
"ke c #00030E",
"kf c #00041B",
"kg c #04184A",
"kh c #1C3D8E",
"ki c #12348B",
"kj c #022173",
"kk c #093795",
"kl c #3769CA",
"km c #143F9B",
"kn c #4873C1",
"ko c #010C2C",
"kp c #1A3376",
"kq c #06206B",
"kr c #0F2E7E",
"ks c #0E3F9E",
"kt c #2C55A4",
"ku c #162F68",
"kv c #000939",
"kw c #0D1F5D",
"kx c #081F63",
"ky c #03206C",
"kz c #113589",
"l0 c #2657B3",
"l1 c #1D46A0",
"l2 c #2B59AF",
"l3 c #2F549B",
"l4 c #182D62",
"l5 c #14275F",
"l6 c #1B3476",
"l7 c #214AA2",
"l8 c #2C54A9",
"l9 c #224A9F",
"la c #2A58B0",
"lb c #2D63C5",
"lc c #234BA3",
"ld c #234DA1",
"le c #2E549F",
"lf c #00031D",
"lg c #00010E",
"lh c #162657",
"li c #193479",
"lj c #1D3D88",
"lk c #1C3D8A",
"ll c #3264BD",
"lm c #010C2A",
"ln c #000A43",
"lo c #011959",
"lp c #01216A",
"lq c #1F4DA2",
"lr c #2857B3",
"ls c #234CA6",
"lt c #183D96",
"lu c #153484",
"lv c #122D74",
"lw c #162E6C",
"lx c #03010C",
"ly c #000317",
"lz c #020923",
"m0 c #254B9C",
"m1 c #2855AA",
"m2 c #1E489C",
"m3 c #183E93",
"m4 c #153486",
"m5 c #152C6F",
"m6 c #08194D",
"m7 c #000414",
"m8 c #152757",
"m9 c #264B9B",
"ma c #214599",
"mb c #254BA0",
"mc c #1E4797",
"md c #214790",
"me c #14367E",
"mf c #0B205F",
"mg c #0B173D",
"mh c #172D67",
"mi c #182E6A",
"mj c #152D6D",
"mk c #122E6D",
"ml c #09215D",
"mm c #09194A",
"mn c #000221",
"mo c #000941",
"mp c #000B42",
"    ++++1g1g        ++++0p7d  1j0e0z4tf94e2s5n548hgo5v8v28hnhx995i0w++      ++++        0p0p        ",
"    ++++1g0d            0n0l0n0e137heyfafg6ffzg88i42gw8w613v3v2d9a3c1x0y0zji441j        7d          ",
"0p0p            2t0p73      0n0y2fetez4dfhfq888856gpgxh6hcho954diaig9h3u4t0y6e  ++++  0l    0x2u    ",
"0p    0n0x0x    ++2t0p  1g0ee41w4seuf07j5t2a89g9gf2a2ah78a922yi1ibihirixj8jj130z0e          6u2u    ",
"++++  5x    0l++2e2e0p0l0w0y3c4kemevf17yfifrg0898jgq8j2a8k934b1z8liiisiyj9jkju5k5l      0l          ",
"++++0d0d0l0l1j3ycc130y1i6tdye5efen7t310gfjfs8a8d8kgrgyh8hd5y3o1p100674izjajl3w7bkf3s0e              ",
"      0n++++0w13cd2z204edrdze6egeo3j0a..0g844igagg5a8t8x6khp8ei25j550ij0jbjmjvk6kgko3s0l0p0p0x0x    ",
"    0n0l1j2vbpc2cectd7djds4c1zeh7o0hXXXX1n151q3i2y1q1z4f5chqhyi3862b1f17jc1p3q608y5p1w1h1j0p        ",
"    0d    692f2hcfcud8dk2225e715..11||1f26851b828lgsgz34he9494i4ic2b0c||2n1u9dk7khkpkv5w1h73        ",
"0l  0d1g2ebc6fc3cgcv7407102m//7aep0v0c0m0s5038253m1r193hhfhrhz5g910k4q073k//jwk8ki2akw2d1x0w++++    ",
"  0n0l0eax6a496ochcw36391b254p11eq240i0m8086g18egh8n4b58hg5c960k970i7g9b0b2n1k3pkjkqkxl5207c6z0d    ",
"    ++3y1ibd6g6pci1l16XX4me0e817073b1e0m0kftg23i4i5a572y6dhs962b1f0c2q1e0i796w5h8bkrkyl6lhlm0z5x    ",
"2c  2v1413206gc44fXXXX2k230h187l7p1ef2fb4xfug31q572xh08o3m380m2b8m||7q1e0m50181b323zkz41499r0y0x    ",
"2c2e0yalaybebqc5cjcxd9dl24060i0j0j3b3f7p4y3j151rgi578u581u0b592b29271f0k125gjx182n0g8445li9hly0n    ",
"  1h5samaz3x4ac6ckcy63dmdt0607270909094v0o3n1725588o3p19//36970c27900k0s1212510cXX310g3q419slz3y++  ",
"1g1i2f3x626bbrc7cl4i1a0a070716ei||0o0o0o0h17XXgb22gth10t//0b091f1f550k0s5f120k0c090h2ll7lj4s1w1h++  ",
"5l9wa6anb0bfbs6qcm3z4hdn0v762o3e0j0j09XX11//17184o154h0f0h2i09||2b595g125f120k3e2k//1kl82w2h1w1h++0l",
"3s9xa72w45bg4bc81q19da3a210a24067q3k074v0a//7w180c09082j0o5d0b0c513r3rj112jn0k0cXX//4wl92wln1y13140w",
"139ya8aob11p301p19320q75du0a070607164u4u||XX0o180j0c2k1v90520k0k2q0k3r0s5d29jy2i360hl08xlklo541y5k1x",
"2r9za95yb21k0t0t6v1k0g2l4n0ve97m1c7uf34u07090o0i590k260j0k0s0s3r9b2qit0m3n1l1l0h0b0b1bla83lp9im8mgmn",
"5m2saa5z2y6c6h6r4g0q0808dv0aea3f1cXXf42o090i0i52gj8p0s0s125f8pi50s0m1e0i4o4m75k9171d1d2mlllqm07z8w9r",
"9t3vab2xb36d190t4h0f08..0v103d072kXXXX||0j510mgc12120sh912800s0s0s4x0j||//9mjz3a212m3d063n1b4wm9mh3t",
"2d5pac3zb4bh1a0t0t6s08..230b4q07XXXX0h0o4x0m52558m290c0m91500i062p0j1f1l1u0g9n9nkk9o07lb23//0gmami4a",
"5na05t1z63//6i0f0f0q..0a||0i062oXX1v0o290k0m0j8fgk0h||0b5d0c4v0706061d0h..08373a1s9o39163l..08mbmj9j",
"3t3wad4064//0u0r..70XX0b0j263b06270o||1f0m0m1l21....112m090c0c0c2p060j2i0a......0v6x101v1115159e5umo",
"9ua1ae402gbi0u0r6w1bXX761d0i4q07||3k090bfk0i//2108081t//hh7l7f0c069f4y090ajo//11107i0a0a532g22mcmkmp",
"2sa2af1p650q0q6s191r4j0r0aXX7i07160b||093f7mXX11..084j4p7o294y1e2q9f7vXX//70//0hkl3l4n4n0u25m1mdml8h",
"3u3xagapb50t0tc9cn190f2l0u0a391c072i7w||063f071n..080f331b3j0c062q3e||XX....1131//ks3a371tlrm2me3w4a",
"5oa35u6046bjbt0t1k1a37770aXXXX100b7v0h0o0c0j24gd0r1s0t1r4m2m09240606||0h15jp1m1m..1s0f7x6i223q959s8v",
"1xa4ah41b61q6j0t1a1s2j0u0a1veb1d1d||1v0o298516397r4p3mha//5b1v1c07060b17150g....0g0q1a650g1pm38gmm2z",
"0w1o5vaqb7bk1q6h1a1s1t784o7e0j0m061f090o0o18161c||185b1l0b||7u1c1636XX1n1m..1m1t0g0f4g3h1als5a56435s",
"  1iai426648bu1r0g1m0h79||7f0k7n2p3e||09180hXX160j0j0i262609070709||XX0a0u..080g0f4g1a199cltm4mf9a1i",
"  141y61b8486k1510710709067gec1e060bXXXX81XXXX||2p1e0m26hi0b07060c3kXXj22j4jk00f1r7y7s8r3p2x2a8i2r0e",
"  14ajar67486l316x2idb0b063b060727XXXX0a0a4rXX||061e1d||8fht073d1dijXX//..0g0f0fkm5hl19p8ulum58z13  ",
"2ta55was68blbv10cocz////1n17//110v0a0a0rfl0a16067n060u08..531n1n5j7tiu3j1121080f0f0t309p92lvm61y14  ",
"2t1h1o43b9bmbwXXcpd0217a1l11ed1s..0u08082l0v1c2pgl||2j3708..1t784zik5jj3jd3l..3g080q6rlc9q67281o0w  ",
"  0e0yatbabn6mca33d1..0v231v..3g1t..0q0q0f..g424095b..082ghu0g0q1piliv25103d0b1n0v0r9m1z9qlw35140e  ",
"2u5qakaubbbo6n323234dc1c1nXX0r0r7r1m7xfc0q1sg51cXX1l//////640gi6303p8n1q34jq38kaXX//33ld2w2h4t0e++  ",
"0x1g1hav2z2hbx4c6ld210710bXX0r0r0a3lf5083m330r0v4rXX||7e3n17//0g9c3oiwj4jejrk1kb5c72l2le6228m7      ",
"0x  2vaw1x20by4dcq72dd0i1d230u0u0r0r773g4z4z530u0v230b0i0c18XX1m1k3o8dj5jfjsk2kcknktl39g4k1w0z0x    ",
"0n  ++0e0w132fcbcrd3380b2k2n4r0u08ew2j1u1bfv08080v100706||||09i7156n6642jgjtk3kd6ykul45e5m5i2e2c    ",
"    0n    0zbz4e6yd4dedo1u1u1t2g0q0f0f1u1b//3gge..8q2o2o09||||0h1mim9ij65o2rk4992z201ylf5ilx  5r    ",
"    1j440d6ec06tcsd5dfdp46e1ee223h1a3h4w822g080q1k34h2270b||812n2lin9jj7jh9lk5ke0y690ylg0e++        ",
"0l  ++++0d5q2v0y1o35dgdqdw4c7jej7s196v6m40fwg6306c6jh3//178q..i89dio549k9l    0d            470d    ",
"2c2c    470d1g0e6zd6dh4kdxe27kek3i46f61kfm3i8b2x3o8rh41r224fi05h9eip5e9k1h    ++++          ++++    ",
"9v5r    0l0d0d0d  0edi4l7be349eler6p1zfd836qg78ggm8s8thbhjhv3q8sid9g871o0w  ++441j    0x  0n++++    ",
"            c16u  1j0e147c7h2f3tesexf7fefnfx8c8c56gu455zhk6o937kieiq35980w  0n        0n    0d47    ",
"0d0d0n0l0p  0x2u      ++0e14134l2d2hf87zfo4s2s2dgngvh58yhl6b68i9if285k140e                  0d0d    ",
"                        ++0e0w0z1i3c28fffp874l1o2r6a288z5e43351w1o1i0z0e++                          ",
"                                  0z3c203ufy1x140z1i1w1yhmhw980z++                                  "
};