/* XPM */
static char *picture[] = {
"50 50 790 2 ",
"   c None",
"XX c #2358B8",
"++ c #020107",
".. c #1D4BA9",
"|| c #2557B8",
"// c #3971D0",
"06 c #010206",
"07 c #020204",
"08 c #2E64C4",
"09 c #2358B6",
"0a c #1B4CAB",
"0b c #2F64C2",
"0c c #2657B6",
"0d c #1A4CAB",
"0e c #2E65C2",
"0f c #1D4BAB",
"0g c #2557B6",
"0h c #010005",
"0i c #2D65C4",
"0j c #01010B",
"0k c #1E4BA8",
"0l c #4683E0",
"0m c #030106",
"0n c #1E4AA9",
"0o c #3A70D0",
"0p c #1B4CA9",
"0q c #3772D0",
"0r c #2657B4",
"0s c #2D65C2",
"0t c #000114",
"0u c #000110",
"0v c #1D4CA8",
"0w c #3771D2",
"0x c #2258B8",
"0y c #3971D2",
"0z c #010207",
"10 c #2F64C4",
"11 c #2259B6",
"12 c #3673D0",
"13 c #1944A0",
"14 c #1F4AA6",
"15 c #133B93",
"16 c #1F4AA8",
"17 c #2F64C0",
"18 c #1845A2",
"19 c #1A4CAD",
"1a c #000117",
"1b c #010109",
"1c c #000112",
"1d c #010006",
"1e c #030207",
"1f c #19459E",
"1g c #3164C0",
"1h c #103B97",
"1i c #3065C3",
"1j c #4483E0",
"1k c #0F3C99",
"1l c #1E4BA6",
"1m c #2456B7",
"1n c #010103",
"1o c #020307",
"1p c #00010E",
"1q c #2558B4",
"1r c #3163C4",
"1s c #1845A0",
"1t c #4981E0",
"1u c #3971CE",
"1v c #2159B8",
"1w c #3672D2",
"1x c #4782E0",
"1y c #2856B4",
"1z c #000A34",
"20 c #01010D",
"21 c #173A8B",
"22 c #000A32",
"23 c #1B4BAD",
"24 c #3A71CE",
"25 c #3163C2",
"26 c #3870CF",
"27 c #2357BA",
"28 c #000A2E",
"29 c #1A4DA9",
"2a c #020005",
"2b c #020109",
"2c c #000A30",
"2d c #030305",
"2e c #000015",
"2f c #162E6C",
"2g c #133B92",
"2h c #030104",
"2i c #123B95",
"2j c #1745A3",
"2k c #2656B8",
"2l c #1844A3",
"2m c #000115",
"2n c #1C4AA8",
"2o c #1E4CAA",
"2p c #2F66C3",
"2q c #0E3D99",
"2r c #3B70CE",
"2s c #1746A2",
"2t c #2C64C3",
"2u c #2E66C5",
"2v c #1B449E",
"2w c #000A3E",
"2x c #000A39",
"2y c #000215",
"2z c #000120",
"30 c #00000A",
"31 c #000019",
"32 c #103C95",
"33 c #153B8E",
"34 c #162E6E",
"35 c #1F4BA4",
"36 c #030208",
"37 c #00000C",
"38 c #1944A2",
"39 c #1C449C",
"3a c #1C4DAC",
"3b c #133A95",
"3c c #2758B5",
"3d c #2257B5",
"3e c #103B99",
"3f c #2D64C1",
"3g c #2459B7",
"3h c #0A1849",
"3i c #193A8B",
"3j c #2B66C4",
"3k c #2459B9",
"3l c #2658B9",
"3m c #4981DE",
"3n c #3671CF",
"3o c #4683DE",
"3p c #194BAA",
"3q c #072F87",
"3r c #000A37",
"3s c #153A92",
"3t c #0A2E84",
"3u c #163B8C",
"3v c #2A67C4",
"3w c #000A3B",
"3x c #00092A",
"3y c #152E70",
"3z c #122661",
"40 c #01092E",
"41 c #000930",
"42 c #000B37",
"43 c #132F70",
"44 c #133B90",
"45 c #000218",
"46 c #204BA7",
"47 c #113A94",
"48 c #2955B4",
"49 c #3463BD",
"4a c #3B70CC",
"4b c #040927",
"4c c #3263BF",
"4d c #08184B",
"4e c #1546A5",
"4f c #1B4CA8",
"4g c #1A4BAA",
"4h c #2D63C3",
"4i c #1F4397",
"4j c #184DAB",
"4k c #173A8E",
"4l c #000119",
"4m c #396FCF",
"4n c #2F65C5",
"4o c #2557BA",
"4p c #1C4DAA",
"4q c #235AB7",
"4r c #3A72D3",
"4s c #3A72D1",
"4t c #2C67C5",
"4u c #3263C0",
"4v c #010A2B",
"4w c #184DAD",
"4x c #2D65C6",
"4y c #3B71D1",
"4z c #5390ED",
"50 c #2556B5",
"51 c #2E66C3",
"52 c #2C64C1",
"53 c #1C4BA7",
"54 c #4382DF",
"55 c #3A72CF",
"56 c #204492",
"57 c #1D4AA5",
"58 c #2857B3",
"59 c #1D3982",
"5a c #18469E",
"5b c #2158B5",
"5c c #5191EB",
"5d c #00001D",
"5e c #00020B",
"5f c #000016",
"5g c #01000E",
"5h c #00011E",
"5i c #000024",
"5j c #000A2D",
"5k c #00020E",
"5l c #040207",
"5m c #112F75",
"5n c #31539B",
"5o c #112F77",
"5p c #0B194A",
"5q c #0A1845",
"5r c #010010",
"5s c #000105",
"5t c #193A89",
"5u c #071850",
"5v c #152759",
"5w c #113A92",
"5x c #224392",
"5y c #112D77",
"5z c #152E71",
"60 c #000122",
"61 c #182D6C",
"62 c #1A3A85",
"63 c #1E4AAB",
"64 c #19459C",
"65 c #1946A3",
"66 c #1C439E",
"67 c #00011B",
"68 c #030A26",
"69 c #162D70",
"6a c #0B2E82",
"6b c #1D4CA6",
"6c c #163A8E",
"6d c #1C4499",
"6e c #040A22",
"6f c #244A9B",
"6g c #3B70D0",
"6h c #3162BF",
"6i c #2956B1",
"6j c #1E4499",
"6k c #1B3982",
"6l c #010008",
"6m c #1B44A0",
"6n c #1D49A8",
"6o c #1945A4",
"6p c #3463BB",
"6q c #3A71CC",
"6r c #184DA9",
"6s c #1B449C",
"6t c #03010C",
"6u c #030A27",
"6v c #3464B9",
"6w c #194BAC",
"6x c #0B2F85",
"6y c #3164BF",
"6z c #174DAD",
"70 c #3870D1",
"71 c #1A45A1",
"72 c #1E3980",
"73 c #15265E",
"74 c #030929",
"75 c #1E4495",
"76 c #2658B7",
"77 c #2157B7",
"78 c #00010D",
"79 c #2758B7",
"7a c #2956B3",
"7b c #2D55AD",
"7c c #2957AD",
"7d c #3873D1",
"7e c #2A65C3",
"7f c #4682E2",
"7g c #2257B7",
"7h c #2A56AF",
"7i c #15398D",
"7j c #538FEF",
"7k c #2058B7",
"7l c #03092B",
"7m c #000937",
"7n c #3773D3",
"7o c #4883E1",
"7p c #2B66C2",
"7q c #548FED",
"7r c #1546A3",
"7s c #000940",
"7t c #05206D",
"7u c #3772CE",
"7v c #18439F",
"7w c #1D4398",
"7x c #06206D",
"7y c #042171",
"7z c #091F6B",
"80 c #3473D0",
"81 c #07184E",
"82 c #153A93",
"83 c #002273",
"84 c #1C4AAA",
"85 c #3263C2",
"86 c #183B8D",
"87 c #182655",
"88 c #0F2E7E",
"89 c #1A4BA8",
"8a c #2655B1",
"8b c #5190ED",
"8c c #0B1946",
"8d c #0D2E7F",
"8e c #1645A1",
"8f c #162F68",
"8g c #01092D",
"8h c #122C76",
"8i c #173A8C",
"8j c #1B3B86",
"8k c #081849",
"8l c #000A36",
"8m c #3673CE",
"8n c #1C4BA5",
"8o c #000B2B",
"8p c #4A81DC",
"8q c #4784DF",
"8r c #4484DE",
"8s c #3E70C9",
"8t c #5292EC",
"8u c #0F2765",
"8v c #3663B6",
"8w c #2556B3",
"8x c #020308",
"8y c #000B36",
"8z c #000106",
"90 c #000933",
"91 c #102E77",
"92 c #2755B3",
"93 c #0A2D87",
"94 c #2A57B2",
"95 c #122F75",
"96 c #07194B",
"97 c #1F4495",
"98 c #051850",
"99 c #040A24",
"9a c #000B32",
"9b c #000B3D",
"9c c #000113",
"9d c #050924",
"9e c #02020E",
"9f c #030A24",
"9g c #000A35",
"9h c #061A4C",
"9i c #173069",
"9j c #162E6A",
"9k c #13275C",
"9l c #162657",
"9m c #0B1844",
"9n c #080B1C",
"9o c #05194E",
"9p c #062164",
"9q c #3055A5",
"9r c #173B89",
"9s c #203979",
"9t c #050926",
"9u c #000B2E",
"9v c #0A1944",
"9w c #03020A",
"9x c #081947",
"9y c #213975",
"9z c #1C3A82",
"a0 c #204395",
"a1 c #25499D",
"a2 c #3056A9",
"a3 c #214BA1",
"a4 c #31529F",
"a5 c #132F78",
"a6 c #0E2861",
"a7 c #355393",
"a8 c #385194",
"a9 c #0C205B",
"aa c #030826",
"ab c #050A1E",
"ac c #0E183C",
"ad c #193B85",
"ae c #244A9D",
"af c #143991",
"ag c #163C91",
"ah c #204BA9",
"ai c #1D459C",
"aj c #133076",
"ak c #173B85",
"al c #2C57A6",
"am c #4370C3",
"an c #2D55AA",
"ao c #081A4C",
"ap c #0B1948",
"aq c #153B90",
"ar c #18449D",
"as c #143C93",
"at c #092D81",
"au c #1C397D",
"av c #132759",
"aw c #000B2D",
"ax c #000008",
"ay c #02010F",
"az c #00083F",
"b0 c #12276A",
"b1 c #1744A1",
"b2 c #1F4BAA",
"b3 c #113D94",
"b4 c #1D4396",
"b5 c #21438D",
"b6 c #16306D",
"b7 c #081944",
"b8 c #182E6A",
"b9 c #0A2164",
"ba c #051F69",
"bb c #2249A4",
"bc c #1644A2",
"bd c #2A56AD",
"be c #0B2F7D",
"bf c #172F6B",
"bg c #0A1942",
"bh c #010B2F",
"bi c #05194C",
"bj c #132E71",
"bk c #224390",
"bl c #1E4296",
"bm c #244A9F",
"bn c #082D85",
"bo c #2257B3",
"bp c #1E4DA9",
"bq c #0E2E79",
"br c #112763",
"bs c #152757",
"bt c #355294",
"bu c #2957B7",
"bv c #1C45A1",
"bw c #0D3C98",
"bx c #194CA8",
"by c #122760",
"bz c #0C183E",
"c0 c #02000B",
"c1 c #3B5288",
"c2 c #3E62AC",
"c3 c #416FC5",
"c4 c #113A96",
"c5 c #0D3E9B",
"c6 c #1A3A83",
"c7 c #122861",
"c8 c #02000D",
"c9 c #00011D",
"ca c #031A50",
"cb c #2F539F",
"cc c #3264C7",
"cd c #1647A4",
"ce c #1D3A80",
"cf c #00021F",
"cg c #000A3C",
"ch c #0F3075",
"ci c #3B6FD2",
"cj c #112E7C",
"ck c #0B2063",
"cl c #00030C",
"cm c #041950",
"cn c #3565BA",
"co c #3B71D3",
"cp c #0D2D80",
"cq c #112C7B",
"cr c #0C205F",
"cs c #000C2F",
"ct c #02082C",
"cu c #123078",
"cv c #2C56AA",
"cw c #2359B9",
"cx c #2E63C1",
"cy c #174EAB",
"cz c #3A70D2",
"d0 c #143A8F",
"d1 c #182559",
"d2 c #082164",
"d3 c #2258BA",
"d4 c #4981E2",
"d5 c #2F63C6",
"d6 c #1C459D",
"d7 c #2D53A8",
"d8 c #32529F",
"d9 c #213A7D",
"da c #071748",
"db c #000928",
"dc c #1F4492",
"dd c #3671CD",
"de c #3872D5",
"df c #3670D1",
"dg c #3064C7",
"dh c #2F52A4",
"di c #4060AB",
"dj c #182F65",
"dk c #000C38",
"dl c #2E53A1",
"dm c #4783E3",
"dn c #3563C1",
"do c #1A3A87",
"dp c #102E74",
"dq c #12285A",
"dr c #001952",
"ds c #204490",
"dt c #3063BF",
"du c #1B4DAC",
"dv c #2A65C1",
"dw c #4584E1",
"dx c #4581E1",
"dy c #3672D4",
"dz c #0B2E7F",
"e0 c #0B286E",
"e1 c #021854",
"e2 c #000B3F",
"e3 c #000020",
"e4 c #182653",
"e5 c #345298",
"e6 c #3963B9",
"e7 c #3D6ECB",
"e8 c #2757B9",
"e9 c #16459F",
"ea c #0E2F7C",
"eb c #132E73",
"ec c #000939",
"ed c #1A2D65",
"ee c #3256A4",
"ef c #416EC9",
"eg c #03308B",
"eh c #2E63C3",
"ei c #1B4DAE",
"ej c #2C54AB",
"ek c #2E53A4",
"el c #173B87",
"em c #133074",
"en c #010930",
"eo c #000211",
"ep c #00093E",
"eq c #122663",
"er c #143B96",
"es c #2957AF",
"et c #1B459B",
"eu c #143C91",
"ev c #0D1F5F",
"ew c #1A439D",
"ex c #2458BB",
"ey c #042F8D",
"ez c #3B72CF",
"f0 c #2657B3",
"f1 c #00001B",
"f2 c #0F1F5D",
"f3 c #091F6A",
"f4 c #102D7D",
"f5 c #0B2E80",
"f6 c #5590EC",
"f7 c #548FEB",
"f8 c #3D70CB",
"f9 c #508FEC",
"fa c #0E3C9A",
"fb c #1447A3",
"fc c #1647A6",
"fd c #042F8B",
"fe c #00083E",
"ff c #101F5A",
"fg c #0C2067",
"fh c #0A2E82",
"fi c #4A81DE",
"fj c #4784E1",
"fk c #2456B5",
"fl c #2857B1",
"fm c #2854AB",
"fn c #15265A",
"fo c #00093B",
"fp c #07164F",
"fq c #0C1F64",
"fr c #0E2D7F",
"fs c #18449B",
"ft c #2758B4",
"fu c #3265C1",
"fv c #092E86",
"fw c #103D98",
"fx c #2966C1",
"fy c #174CAA",
"fz c #0C276E",
"g0 c #000839",
"g1 c #09164D",
"g2 c #0D1E63",
"g3 c #081E69",
"g4 c #2855B2",
"g5 c #062E86",
"g6 c #3774D1",
"g7 c #4384E0",
"g8 c #05206F",
"g9 c #102469",
"ga c #08184C",
"gb c #000936",
"gc c #19265A",
"gd c #0C1E60",
"ge c #0A206B",
"gf c #08206A",
"gg c #122D7E",
"gh c #173B93",
"gi c #2A55B3",
"gj c #0E3B96",
"gk c #1546A2",
"gl c #4F90EC",
"gm c #5091ED",
"gn c #4781E2",
"go c #1C449B",
"gp c #102D79",
"gq c #182D70",
"gr c #0A174B",
"gs c #000934",
"gt c #192D6C",
"gu c #092169",
"gv c #06206B",
"gw c #153991",
"gx c #2A55B1",
"gy c #2159B6",
"gz c #4485DF",
"h0 c #2C64C5",
"h1 c #1E4CAC",
"h2 c #1745A5",
"h3 c #2B54AC",
"h4 c #3054A2",
"h5 c #385191",
"h6 c #102D7B",
"h7 c #3D70CC",
"h8 c #3A6FCB",
"h9 c #2A64C5",
"ha c #2157B9",
"hb c #1E4AA3",
"hc c #254B9E",
"hd c #22448C",
"he c #0A1847",
"hf c #002274",
"hg c #4582DF",
"hh c #3571D1",
"hi c #2D64BF",
"hj c #194CA7",
"hk c #103D9A",
"hl c #0F3A98",
"hm c #122D72",
"hn c #172C6B",
"ho c #000014",
"hp c #102C75",
"hq c #25499F",
"hr c #092F84",
"hs c #5390EB",
"ht c #3872D3",
"hu c #2B65C6",
"hv c #2E65BF",
"hw c #0D2E7D",
"hx c #052268",
"hy c #041952",
"hz c #224CA2",
"i0 c #062F89",
"i1 c #2966C3",
"i2 c #4483E2",
"i3 c #3372D1",
"i4 c #2159BA",
"i5 c #2655AD",
"i6 c #063084",
"i7 c #112E7A",
"i8 c #142D70",
"i9 c #000B40",
"ia c #00000D",
"ib c #00021C",
"ic c #03184D",
"id c #5291EE",
"ie c #2F65BF",
"if c #3663B8",
"ig c #03216A",
"ih c #000B3A",
"ii c #355296",
"ij c #3563B9",
"ik c #4F90EA",
"il c #3E6FCC",
"im c #3663B4",
"in c #1946A1",
"io c #162F6F",
"ip c #2F549B",
"iq c #3E70C7",
"ir c #3572CF",
"is c #2554B0",
"it c #142D6D",
"iu c #000C33",
"iv c #000111",
"iw c #000B29",
"ix c #0D2760",
"iy c #3B62AD",
"iz c #4E80D5",
"j0 c #2E65C0",
"j1 c #1847A1",
"j2 c #2457B3",
"j3 c #3764B7",
"j4 c #365293",
"j5 c #000212",
"j6 c #0E2760",
"j7 c #224B9A",
"j8 c #3265C0",
"j9 c #3065C5",
"ja c #2856B6",
"jb c #113C9B",
"jc c #2A54A8",
"jd c #264387",
"je c #123174",
"jf c #214B9F",
"jg c #103B9A",
"jh c #1F4AA9",
"ji c #1E3A79",
"jj c #020111",
"jk c #020926",
"jl c #08194F",
"jm c #2B54AE",
"jn c #133A97",
"jo c #0A2F8A",
"jp c #2049A5",
"jq c #13285D",
"jr c #26499B",
"js c #16398B",
"jt c #0E2E81",
"ju c #0C2D7E",
"jv c #012174",
"jw c #0A2C85",
"jx c #1D4AA7",
"jy c #1F4CA7",
"jz c #2F55AA",
"k0 c #122F71",
"k1 c #0A1940",
"k2 c #00030A",
"k3 c #1A2E69",
"k4 c #0E2E83",
"k5 c #0D2D84",
"k6 c #0B2D86",
"k7 c #214AA6",
"k8 c #2957B5",
"k9 c #133C96",
"ka c #1E4497",
"kb c #000219",
"kc c #000209",
"kd c #06174B",
"ke c #182D6E",
"kf c #1E3882",
"kg c #1C3987",
"kh c #0E2D80",
"ki c #0D2D82",
"kj c #163A92",
"kk c #123B97",
"kl c #0F3C97",
"km c #1C4CAE",
"kn c #183988",
"ko c #142F72",
"kp c #1A2D67",
"kq c #162D71",
"kr c #1B3884",
"ks c #3264BD",
"kt c #1E49A7",
"ku c #163A90",
"kv c #051852",
"kw c #030007",
"kx c #07184C",
"ky c #31539D",
"kz c #133C8E",
"l0 c #2755AB",
"l1 c #112F78",
"l2 c #122E77",
"l3 c #082163",
"l4 c #0B1747",
"l5 c #20397C",
"l6 c #122D74",
"l7 c #2C56A8",
"l8 c #2955AE",
"l9 c #204CA3",
"la c #1F4BA2",
"lb c #00092D",
"lc c #061848",
"ld c #061A4D",
"le c #000A42",
"lf c #112665",
"lg c #31539A",
"lh c #2D54A1",
"li c #1E4394",
"lj c #2F52A3",
"lk c #30529C",
"ll c #32539A",
"lm c #112E74",
"ln c #040A2A",
"lo c #000017",
"lp c #000011",
"lq c #00001A",
"lr c #0B1842",
"ls c #1A2F66",
"lt c #172F6D",
"lu c #182E68",
"lv c #061A4F",
"lw c #091A48",
"lx c #010A29",
"  0h0z0z    2h2h    0606    2d072h2b2ee37mep7s7sfefog0gb225i8g5d0t78++  071n++++0606    ++    2d    ",
"    ++0z    2h2h    0h  1e    1b782m4ve4edeqevf2fffpg1gc8787he8l8oib2m0u5e8x++  1e0h  0h++    07    ",
"2a    0h        07071e  1d++0j1cdbdkdre5ee217tf3fgfqg2gdgt698hhp2ficih285f1p8z    ++++++++0m  07    ",
"0m  0h0h          ++++++6t5g0t744d43dse6ef1h6af47x7zg3gegu7t4khq2162ii8f42iwj50j6l360z0z++kw  07    ",
"0707  061d++1e++0j0jc0c80u45ctd143dl7ce7500k2gf57y7x7zgfgvh68i7whz64ijimipix2c1ajj1b8z061d++  0h    ",
"07070606++36++302m6e68c96u412wd2dc7cdt1r2k..1f2gfhfr7ygg888dhfhr354f0e6qiqiyj690jk0tk21o++++        ",
"0606      ++ax2ybhbsc1cacgcmcu756p6y0c0a0f2n..535afs82ghgw6x3t3t3q570b3m8pizj7jejl5j5k070h          ",
"0606      1bay68bibtc2cbch5ncv491g4jdu0a0d0g3g0b17ftg4gigx32153qi0570g//1uj0j8jf9181675e++          ",
"07072a0m1e0j2e22bj6fc36p6vcn6y760g0d4w08//0q1xf6fifu6h0r4a170r2q2l2o||XX0e5b090rjm915q4l0j070m0m    ",
"07075l  1d0u4b4dbk1l1q0b0e11cwXX4j1i4m0y7n540lf71q532s4f2p1t1t24096w3l||0b1ij91m48jrk3412m30++0m    ",
"0606  ++0j4522b8bl2o||XX||||4oXX0e1u0o2u7e127o17323q3q1f890o7q4z1x0i4w0d0c0cja0njnjs5zkd8g2e0j      ",
"061o++20ab602x69bmbu1rcc||||27d3//1u081v4t3n55f847fv3s2i0v3ghg1j1j0l0s090a..0n1h3sjt5yke3h7l1c1b++  ",
"07  300tacapazb96c0k0c1rcico0y0y//2t084s3j3n0s171l2ig52v3e0a1t12i18q0l7u090p..2i3tju88kfkp1z990u1b  ",
"1n1b9n2z5v61b0ba6cbv0n0cXX0o//260i1v080x2t0i11174cfw322v160r1t3v3v3o1j0l0e1g0p133tjvk4kgkqkx285f0j  ",
"  1p5h9x43625t6abn3bc43e..0pcx0e0e110i0xXX10090b1g0p0vgj8ah71t3v3v0l1j0l3n11091yjojwk5khkr34l44b1p  ",
"2b2y1z9yadaq15bb663b6m14142q4p3d0e0s1v4yXX19XX0b090b0rgk1qh81x7n121j1j1j120i080ajp93k6ki8d9573lb0u  ",
"5g9f9o9zaear14160n0n0n181s1s2s1q0s7ddv0s2408XX100e1i0b6r0e1u1x1wi2548t8r0l2u3f29163b934k215o618ylp1n",
"9c2z2f5t2g46b10n0f0f0f0n0k1s650p//3j3j0s510s080x2p5b0e11gy0q0w1wi3idik8t120i100d0k1h3bkj3ukyl5lc2m8x",
"0t5j3ya0af47380n....6n0n632n6o0p087e0i7k0s55550s0s0s0i4t3j0q0w1w805c8b54ir0i3k0a0fjxk7153s21l6ldlq37",
"1a2c9pa1ag1516bc....6o0n0f0f0f0d//0q0i08527p7u3o7pfxg60l120l12128m8r0l0l122tXX2k0a0f16kk158659986u1c",
"5h9g5ma24447b20f2n..0v..0f0a0d4qdd0q//0i7d0l0lf9fj80g7glgz5c3o8m3o8q0q0q3n0s090g1950k8kl5w978hle3x1a",
"2c9h5na35w460f2k0c0p3ccd0d0gcy0i4t120i//7o7q1x0q1x0l1jgm8b5c4zhs0l0q2u1v512p0b25||25850v5akz8jlflr2z",
"3w9i9q14ah6323||||093d09090x4h4r0w1w120l1x//XX3p090x//gn7j0l7f120w2tXXXXXX10250c500d1i1gksl0l7lgls2x",
"2w9j9r320n0f23||||25090b084mczd4de1w1j4z2429....7r0d3k4x0wh9hhhti40xXXXXXX||0c0a0c3pXX24178s6vlh2f2w",
"2x9k5o3335480f3a4e0a0a0d0b2rXX080w1wdw3m531h1h13180p0908h00y0whu0xXXXX0b3k1m0a....4e084s0b1g94lilt9b",
"1z9l9sa4ai1k1k0k0n2o..0f0d0dXX0xdf7f7j1uegerew712q0r1i0eXXha0y//08095b3g1m790f....0a4n//4h1q0k978u9b",
"5i9m3za5331f1414161k0n....3a1r0x0wdmdx//2q1h130vfk0b0e09191908//51520e7g||3a0f..0a0g//2608291llj2f2w",
"9d3x5p345xas2i1h1lbw2j2n0a25XX770w1wdy0y3c0k0k2o0g0b090g4g23XX08520s11100a0f0n2l3a0b0o0oXX0rl856lu3w",
"9e2e405u5yat2g1f4fbx0d4jXX106z4r4r0w0w0yeh0d..1y..1y0c0ch14eXX4y10093f1i0r1k3e188w0b6gXX||0rl9lklv90",
"0h5k9t2xaj33b36bbo2p4h260o08700y0y0y4x4x0y0o0gfa181k..0a0c3p4n0oXX4w4q0b8w183e163c0d0dkm2k1ylalllw60",
"  0j2e1z5m644c24//0q0w0w26//////0q0i0i1v0y2611fb2q1k2j0a||08////11090e0e1q2s3816920a0f840f0k7blm9a31",
"0h203142ak494a080o0i260q0i//0i1t//2u0e4y1v//4m2r1q0r0c||0x//0q0i110b0e0b4p..16jg..1y480kkt398i34lx0u",
"0m0u9ua6al4a0g0c0p0r176q//////4s1109XXXXXXXXXX0o1u3m0o0o1t//080e0e0b1m0c..18jbjh..0v0k14823i72961a1b",
"0m1c9va7am1g2j2l2l2jc56r094n0877103k||1mei1mex081v0q////0q7k6z4q1i090d0a..18381618jy1l2vkul13z9a1c  ",
"  0t5qa8an651h13..0a0d0g196w2727277g3l||193l1rXX0x0e2t//700y2u3f3d294p0r..0k1313131f2v157il24dln1p  ",
"1o0u41a95x15661h..||||101r||27d5dg4o1919||||0cfc3p1i0x0x270o//1u09290p0v0v8e1s1f7v1fk93s3il322lo0j  ",
"  2031425z21391k4gXX082p0e0eXX101m1923231m0c38fd0r0b0d0ah20phi3m0s170vin1lj11s1s1813136j6k98745r2b  ",
"  2b5raaaoaub40k0c6g243f11110g||||||2ke83l0pey7v1g090c846n2shjhv8pie8a1s5a8n0k2j..0k143u3y8c5f6t++  ",
"  ++9w1c2zavb5bdbp6h253g0g0g0f0a23||4o1r0d7r0f0a090b||853c8e2s8ni58s4u891l1l2n0c0a9235knkv281c0z    ",
"    0h1b1cawb6be6d6i0v0p....0k2l79||19||0g76||||092r100g0c..hk2vi6ifil0gis0v..0r0c94kako3r993706    ",
"    0m1d0j1ab7bfbq6j35181346711k0r0d4u290g0b0o08XXXX1i0b0g4ghl39833u492r17j24c586ijz95965d201d07    ",
"        1d3767bgbr6k4i6s15152i140p4u6be90v1gez0810fy0d0g||0c6m4ii7ig758v8vj3jc6f56k05v4v0u0m1e1n    ",
"1o065s0h  0z201a22byc64i4k6x15130pdn6s44ejes170o3d0d0v1y0a1y39hwi82f8uioitj4jdjijqk1kb1p2b0m  0h    ",
"06061o06    2a0j1abzc7cecjcpd0d67a7hdzeaeketf02r1g581f142o0k3uhxi93r1z22iu8y3w3r8o2ykc070m    1e    ",
"++  0h2d0606  1d0j0t3x3hckcq3id77b7ie0ebeleu5758fl7h44go7ahb8jhy28450t1civ0t6e1a0u5e06071n2d  5s    ",
"++    071o06    0m6l0ucf5pcr72d8dhdoe13zem562g1ffm6d8386h3hchm8k3130++++  0z0j0j++  0h071n1n061o    ",
"    0606++    07  361b1p4lcs73d9didpe2ec5u3y3i7w3321g8gph4hdhn8l0t  5l      0z0z  2a                ",
"2d07060636    07  0h  0zcl0t28dadjdq287len3h345959fzg9gqh58f8k4via072a0m    06    0m1d++0h          ",
"                        0z0j0u0t1a2y0u1peo4l2c3hfn81gagr8c2c4b0t0j                                  ",
"                                1e  0h  1e37f1401z3r7mgs405dho20++                                  "
};