/* XPM */
static char *picture[] = {
"50 50 813 2 ",
"   c None",
"XX c #2A60C0",
"++ c #040207",
".. c #2B60C0",
"|| c #030208",
"// c #1644A4",
"06 c #1743A2",
"07 c #2454B6",
"08 c #2355B6",
"09 c #030305",
"0a c #1644A2",
"0b c #2355B4",
"0c c #02020A",
"0d c #204EAC",
"0e c #2B5FC2",
"0f c #2455B4",
"0g c #000211",
"0h c #020307",
"0i c #1445A4",
"0j c #427AD9",
"0k c #2D5FC0",
"0l c #2355B8",
"0m c #407BD9",
"0n c #2A60C2",
"0o c #2961C0",
"0p c #1843A1",
"0q c #2D5FBE",
"0r c #3F7CD7",
"0s c #020308",
"0t c #00020E",
"0u c #2156B6",
"0v c #2155B8",
"0w c #020106",
"0x c #366DCA",
"0y c #376CCA",
"0z c #4E8EE8",
"10 c #000218",
"11 c #000215",
"12 c #1743A4",
"13 c #2156B4",
"14 c #1E4FAE",
"15 c #356DCC",
"16 c #336ECC",
"17 c #366CCC",
"18 c #00021C",
"19 c #00020F",
"1a c #18439F",
"1b c #1744A1",
"1c c #204FAB",
"1d c #0F338B",
"1e c #1444A6",
"1f c #2B60BE",
"1g c #214DAC",
"1h c #2654B2",
"1i c #1843A2",
"1j c #427AD7",
"1k c #275AB6",
"1l c #4D8EE8",
"1m c #02020C",
"1n c #00030F",
"1o c #020C2F",
"1p c #0E338B",
"1q c #000D34",
"1r c #2654B4",
"1s c #2654B6",
"1t c #2455B2",
"1u c #1E4FAC",
"1v c #2B60BC",
"1w c #2056B6",
"1x c #040108",
"1y c #040308",
"1z c #00030C",
"20 c #00021F",
"21 c #000216",
"22 c #193D91",
"23 c #346CCB",
"24 c #2D60BC",
"25 c #214EA9",
"26 c #2254B5",
"27 c #1B50AE",
"28 c #2056B8",
"29 c #336ECA",
"2a c #4D8FE6",
"2b c #02020E",
"2c c #030C2D",
"2d c #000D30",
"2e c #020D2D",
"2f c #1F3D85",
"2g c #000D3B",
"2h c #0C348C",
"2i c #1C3D8C",
"2j c #163E95",
"2k c #1A439F",
"2l c #356DCA",
"2m c #0F3389",
"2n c #1E4FAB",
"2o c #1D4FAE",
"2p c #204EAE",
"2q c #1E4EB0",
"2r c #4379D9",
"2s c #2961C2",
"2t c #2762C0",
"2u c #1345A6",
"2v c #123285",
"2w c #2057B4",
"2x c #1644A6",
"2y c #000C38",
"2z c #000316",
"30 c #000213",
"31 c #0D1C47",
"32 c #01010B",
"33 c #183173",
"34 c #1F3D86",
"35 c #133380",
"36 c #19316F",
"37 c #12255D",
"38 c #0B1B4E",
"39 c #244DA7",
"3a c #1445A2",
"3b c #193073",
"3c c #000C34",
"3d c #214DAE",
"3e c #0B3490",
"3f c #193D93",
"3g c #2150AC",
"3h c #062776",
"3i c #1A42A1",
"3j c #1745A5",
"3k c #0E338C",
"3l c #163D98",
"3m c #2454B8",
"3n c #204FA9",
"3o c #2D5FC2",
"3p c #1E50AF",
"3q c #2961BE",
"3r c #1B50B0",
"3s c #376CC8",
"3t c #417CDA",
"3u c #366CCE",
"3v c #2055B5",
"3w c #2A61BE",
"3x c #3F7CD9",
"3y c #000C3B",
"3z c #356DCE",
"40 c #000D32",
"41 c #508DE8",
"42 c #030C2B",
"43 c #295FBF",
"44 c #2859B5",
"45 c #072676",
"46 c #2456B7",
"47 c #183D96",
"48 c #214FAD",
"49 c #376DCD",
"4a c #030408",
"4b c #020C30",
"4c c #040309",
"4d c #030409",
"4e c #020305",
"4f c #030106",
"4g c #03030D",
"4h c #00011E",
"4i c #00021A",
"4j c #15327E",
"4k c #00021E",
"4l c #0E2662",
"4m c #12327D",
"4n c #224DA9",
"4o c #183E91",
"4p c #1A3D91",
"4q c #2753B2",
"4r c #103384",
"4s c #366DC8",
"4t c #000C32",
"4u c #093492",
"4v c #030D28",
"4w c #1D429B",
"4x c #2E60BF",
"4y c #376ECB",
"4z c #366ECB",
"50 c #2B61C1",
"51 c #123D9B",
"52 c #356CC9",
"53 c #1D50AC",
"54 c #050C28",
"55 c #2E61BD",
"56 c #275AB5",
"57 c #2C61BF",
"58 c #2257B5",
"59 c #000114",
"5a c #2B62BF",
"5b c #2A62C1",
"5c c #326DCB",
"5d c #2456B5",
"5e c #071C53",
"5f c #0C338E",
"5g c #3D7DD7",
"5h c #4179D8",
"5i c #17429E",
"5j c #407BD7",
"5k c #2B59B1",
"5l c #437AD5",
"5m c #2353B5",
"5n c #1343A5",
"5o c #0C348B",
"5p c #2755B7",
"5q c #1F4DAB",
"5r c #2455B1",
"5s c #103387",
"5t c #1D50AB",
"5u c #5DA0F7",
"5v c #437BDA",
"5w c #18326F",
"5x c #1F4DAD",
"5y c #030007",
"5z c #03030B",
"60 c #000C3D",
"61 c #000C39",
"62 c #000209",
"63 c #060C24",
"64 c #061C56",
"65 c #0D1B48",
"66 c #000113",
"67 c #0A1C4E",
"68 c #203D83",
"69 c #0A1D48",
"6a c #000110",
"6b c #081C4F",
"6c c #183171",
"6d c #1F3D83",
"6e c #183D8E",
"6f c #163E96",
"6g c #041C5A",
"6h c #000D38",
"6i c #1E4296",
"6j c #1D3D8A",
"6k c #0B1C4A",
"6l c #173F97",
"6m c #1B449E",
"6n c #143D99",
"6o c #0D2669",
"6p c #2F58A8",
"6q c #102564",
"6r c #031C5E",
"6s c #1B439B",
"6t c #0B348E",
"6u c #010109",
"6v c #050C26",
"6w c #153280",
"6x c #000C36",
"6y c #183174",
"6z c #1B429D",
"70 c #2553B5",
"71 c #1543A5",
"72 c #437AD4",
"73 c #2A5FBF",
"74 c #153E98",
"75 c #000D36",
"76 c #1C3D8E",
"77 c #1543A1",
"78 c #1A3D8F",
"79 c #1F50AF",
"7a c #2354B3",
"7b c #1642A1",
"7c c #2A59B5",
"7d c #2D5EBD",
"7e c #133E9C",
"7f c #2854AD",
"7g c #2754B1",
"7h c #2855B2",
"7i c #2859B6",
"7j c #255ABA",
"7k c #356BCB",
"7l c #020107",
"7m c #3258A3",
"7n c #3A6CC5",
"7o c #2D60BB",
"7p c #2C5FBB",
"7q c #2A58B6",
"7r c #214EAB",
"7s c #153E9A",
"7t c #071D4F",
"7u c #2E60B9",
"7v c #2A5FBD",
"7w c #19326B",
"7x c #2556B5",
"7y c #030C29",
"7z c #040D2C",
"80 c #0B1B4C",
"81 c #183E8F",
"82 c #1F57B8",
"83 c #1D4EAD",
"84 c #17449F",
"85 c #315FB7",
"86 c #2353B7",
"87 c #0B328D",
"88 c #2761C2",
"89 c #366ECD",
"8a c #2256B9",
"8b c #2356B2",
"8c c #60A0FA",
"8d c #3F7AD6",
"8e c #224EA5",
"8f c #14327A",
"8g c #2E60C1",
"8h c #396BCA",
"8i c #518CE8",
"8j c #4F8CE7",
"8k c #4F8FE9",
"8l c #204FA7",
"8m c #163E93",
"8n c #326DC9",
"8o c #11265F",
"8p c #193F8A",
"8q c #2555B7",
"8r c #183E93",
"8s c #000D3F",
"8t c #2A54A8",
"8u c #235BB8",
"8v c #2A59B3",
"8w c #346FCD",
"8x c #376BCE",
"8y c #1C4EAF",
"8z c #366BC9",
"90 c #213C83",
"91 c #1A439D",
"92 c #2B61C3",
"93 c #326FCC",
"94 c #2257B7",
"95 c #2254B3",
"96 c #081C51",
"97 c #407BD5",
"98 c #356EC8",
"99 c #1146A6",
"9a c #0E328A",
"9b c #183C92",
"9c c #2C5EBF",
"9d c #224FAC",
"9e c #193D95",
"9f c #1445A1",
"9g c #0B348C",
"9h c #3A6CCB",
"9i c #1D3C8C",
"9j c #0E2666",
"9k c #0A2670",
"9l c #15337C",
"9m c #18306E",
"9n c #376DC7",
"9o c #4C8FE6",
"9p c #3F7CD5",
"9q c #093493",
"9r c #193F94",
"9s c #1F4EAA",
"9t c #103289",
"9u c #3C7DD7",
"9v c #1745A3",
"9w c #2156B2",
"9x c #4E8EE6",
"9y c #093490",
"9z c #346DC7",
"a0 c #2354B0",
"a1 c #2155BA",
"a2 c #1D4FB2",
"a3 c #071B4E",
"a4 c #2157B9",
"a5 c #1A3E88",
"a6 c #000318",
"a7 c #1A3E94",
"a8 c #0E338E",
"a9 c #0F348D",
"aa c #16327B",
"ab c #1A3C93",
"ac c #18449D",
"ad c #0E2664",
"ae c #040406",
"af c #000116",
"ag c #000121",
"ah c #000D3D",
"ai c #000119",
"aj c #03020A",
"ak c #010B2F",
"al c #1E3267",
"am c #051B55",
"an c #11265B",
"ao c #000C2C",
"ap c #0D1D41",
"aq c #030E2C",
"ar c #01010D",
"as c #0D1B4A",
"at c #000117",
"au c #15336F",
"av c #36579A",
"aw c #153274",
"ax c #0F2561",
"ay c #060C22",
"az c #1C3D8A",
"b0 c #274DA2",
"b1 c #0D328A",
"b2 c #000D40",
"b3 c #143272",
"b4 c #3059A8",
"b5 c #325FB4",
"b6 c #193275",
"b7 c #193E8F",
"b8 c #0F358A",
"b9 c #173F96",
"ba c #153D94",
"bb c #153E96",
"bc c #011D5E",
"bd c #11337B",
"be c #3D6CC4",
"bf c #2655B1",
"bg c #203C85",
"bh c #000C2E",
"bi c #2653B0",
"bj c #224FAA",
"bk c #224DAB",
"bl c #193C8D",
"bm c #1A3F8F",
"bn c #3D6BC0",
"bo c #4779D2",
"bp c #1F3C8A",
"bq c #0A1A4D",
"br c #0A1B4F",
"bs c #2D57AD",
"bt c #396DC3",
"bu c #0D348F",
"bv c #15265C",
"bw c #1D3068",
"bx c #123E97",
"by c #2B5AB2",
"bz c #12327F",
"c0 c #0C276C",
"c1 c #11265D",
"c2 c #000414",
"c3 c #0F1B43",
"c4 c #163176",
"c5 c #1B43A2",
"c6 c #224EAD",
"c7 c #2756B2",
"c8 c #16337F",
"c9 c #020D29",
"ca c #000311",
"cb c #060E25",
"cc c #061C55",
"cd c #153276",
"ce c #234EAA",
"cf c #193B92",
"cg c #19316D",
"ch c #010204",
"ci c #0E1C43",
"cj c #163271",
"ck c #1A3E8C",
"cl c #193E96",
"cm c #1743A6",
"cn c #1643A8",
"co c #254EA6",
"cp c #072679",
"cq c #010310",
"cr c #1F315F",
"cs c #3357A1",
"ct c #234CA6",
"cu c #1745A7",
"cv c #2454BA",
"cw c #1A4FAF",
"cx c #133F98",
"cy c #1C3168",
"cz c #000314",
"d0 c #1D3261",
"d1 c #285BB6",
"d2 c #1545A9",
"d3 c #133E9A",
"d4 c #000E40",
"d5 c #0E3582",
"d6 c #1F56B3",
"d7 c #1D4EAB",
"d8 c #204CAB",
"d9 c #254DA4",
"da c #3556A3",
"db c #020D2B",
"dc c #030D31",
"dd c #000B42",
"de c #042876",
"df c #315EB9",
"dg c #123F9C",
"dh c #2055B3",
"di c #2860C1",
"dj c #295FC1",
"dk c #1546A3",
"dl c #2758B7",
"dm c #315EBB",
"dn c #2F57AE",
"do c #3656A1",
"dp c #1D326B",
"dq c #305FBB",
"dr c #163F9B",
"ds c #1B44A0",
"dt c #2C61C1",
"du c #193F92",
"dv c #14327B",
"dw c #1F3163",
"dx c #0C2568",
"dy c #083592",
"dz c #336DCE",
"e0 c #3070CA",
"e1 c #2056BA",
"e2 c #042778",
"e3 c #09276D",
"e4 c #000317",
"e5 c #000C37",
"e6 c #2C5EBD",
"e7 c #255AB8",
"e8 c #123D99",
"e9 c #1645A1",
"ea c #427ADB",
"eb c #2759BA",
"ec c #366BCB",
"ed c #13357F",
"ee c #031D5A",
"ef c #050C29",
"eg c #1146A4",
"eh c #2A5EC1",
"ei c #2054B7",
"ej c #4179D6",
"ek c #1950AD",
"el c #0D42A0",
"em c #528AE9",
"en c #3A6BC8",
"eo c #0F2767",
"ep c #0C2565",
"eq c #2F60BC",
"er c #1D4FB0",
"es c #376CCC",
"et c #376DCF",
"eu c #2E5FBE",
"ev c #3A6BCA",
"ew c #1F55B5",
"ex c #224EA7",
"ey c #113D9C",
"ez c #274DA0",
"f0 c #2756B0",
"f1 c #2A5FBB",
"f2 c #235CB6",
"f3 c #2E5EC0",
"f4 c #0E3489",
"f5 c #1345A4",
"f6 c #2655AF",
"f7 c #264EA5",
"f8 c #21418E",
"f9 c #101C44",
"fa c #17316E",
"fb c #417CD8",
"fc c #2158B5",
"fd c #124098",
"fe c #03277D",
"ff c #02287D",
"fg c #081D56",
"fh c #213C7F",
"fi c #2B53AA",
"fj c #305EBE",
"fk c #437AD7",
"fl c #2B61C5",
"fm c #346FCB",
"fn c #2661BF",
"fo c #1345A8",
"fp c #386DCB",
"fq c #0C3591",
"fr c #031C5F",
"fs c #0A1B51",
"ft c #000D46",
"fu c #103488",
"fv c #224DAC",
"fw c #000C40",
"fx c #112761",
"fy c #092770",
"fz c #0F3387",
"g0 c #326FCA",
"g1 c #3E7ADA",
"g2 c #407ADB",
"g3 c #1244A5",
"g4 c #3B6CCB",
"g5 c #053693",
"g6 c #366FC9",
"g7 c #4F8CE5",
"g8 c #407DDA",
"g9 c #1C51AF",
"ga c #183D95",
"gb c #091B4D",
"gc c #000B3B",
"gd c #0B1B4F",
"ge c #102566",
"gf c #0B2771",
"gg c #538CE6",
"gh c #2754AF",
"gi c #396CC8",
"gj c #548AEA",
"gk c #1A4FAD",
"gl c #0E409F",
"gm c #1742A0",
"gn c #163D9A",
"go c #0B266B",
"gp c #0E1D48",
"gq c #000320",
"gr c #000B38",
"gs c #061B5C",
"gt c #0A246E",
"gu c #0E3487",
"gv c #002880",
"gw c #2661BD",
"gx c #2762BE",
"gy c #639EFA",
"gz c #386AC9",
"h0 c #17337D",
"h1 c #112560",
"h2 c #092674",
"h3 c #062679",
"h4 c #0B3589",
"h5 c #00277C",
"h6 c #0F419A",
"h7 c #2960BD",
"h8 c #5E9FF9",
"h9 c #1545A7",
"ha c #0E1B47",
"hb c #050B23",
"hc c #0C1C4D",
"hd c #0F2669",
"he c #092672",
"hf c #153282",
"hg c #062778",
"hh c #103385",
"hi c #386DC9",
"hj c #2F5FB3",
"hk c #2C5AAF",
"hl c #427BD5",
"hm c #5F9FF7",
"hn c #437BD8",
"ho c #4479D9",
"hp c #0E3384",
"hq c #010E31",
"hr c #00011D",
"hs c #030B30",
"ht c #0F1C49",
"hu c #163381",
"hv c #123287",
"hw c #133388",
"hx c #548DE7",
"hy c #518EE7",
"hz c #508CE4",
"i0 c #518DE5",
"i1 c #518CE6",
"i2 c #4D90E7",
"i3 c #4B8EE5",
"i4 c #3F7BD3",
"i5 c #255BB5",
"i6 c #0F409D",
"i7 c #285AB3",
"i8 c #193171",
"i9 c #133282",
"ia c #1A3C95",
"ib c #072678",
"ic c #2157B1",
"id c #366DC7",
"ie c #13409B",
"if c #123E9D",
"ig c #396CC7",
"ih c #274E99",
"ii c #000D3C",
"ij c #102662",
"ik c #1D429D",
"il c #03277F",
"im c #245BB8",
"in c #1B50AC",
"io c #2557B6",
"ip c #2E58AA",
"iq c #19326A",
"ir c #00030A",
"is c #00031A",
"it c #16327C",
"iu c #244DA9",
"iv c #3D7DD5",
"iw c #447ADA",
"ix c #4579DC",
"iy c #366ACD",
"iz c #355FB3",
"j0 c #193274",
"j1 c #254EA0",
"j2 c #204DA8",
"j3 c #113E9B",
"j4 c #2B5FC4",
"j5 c #000312",
"j6 c #1643A0",
"j7 c #255AB6",
"j8 c #2860BF",
"j9 c #2354BA",
"ja c #1543A3",
"jb c #3158A7",
"jc c #0E1C41",
"jd c #153475",
"je c #2C59AC",
"jf c #2B61BB",
"jg c #2A62C3",
"jh c #214FAF",
"ji c #2A59B1",
"jj c #274E9B",
"jk c #10265F",
"jl c #00020B",
"jm c #00031C",
"jn c #1B3266",
"jo c #3258A1",
"jp c #467AD0",
"jq c #16439E",
"jr c #1544A0",
"js c #081C4E",
"jt c #213F7D",
"ju c #3C6CC0",
"jv c #0D358D",
"jw c #2553B1",
"jx c #1642A3",
"jy c #224EAF",
"jz c #113F9D",
"k0 c #2755B5",
"k1 c #2F56B1",
"k2 c #0C1B46",
"k3 c #000319",
"k4 c #00031E",
"k5 c #071D4C",
"k6 c #1D458D",
"k7 c #1B439A",
"k8 c #02277F",
"k9 c #2B4C9D",
"ka c #050308",
"kb c #051B54",
"kc c #204490",
"kd c #2C5AB0",
"ke c #2658B7",
"kf c #2D5DBF",
"kg c #294D9B",
"kh c #061D53",
"ki c #35579F",
"kj c #0F348F",
"kk c #0A3291",
"kl c #315FBF",
"km c #1944A3",
"kn c #1B3D87",
"ko c #000C33",
"kp c #122658",
"kq c #163273",
"kr c #1C3E88",
"ks c #1E429A",
"kt c #04277B",
"ku c #0D3491",
"kv c #061B52",
"kw c #050209",
"kx c #000120",
"ky c #0C1D49",
"kz c #102660",
"l0 c #163174",
"l1 c #123384",
"l2 c #0E3288",
"l3 c #0C3390",
"l4 c #1B3C8D",
"l5 c #0D2666",
"l6 c #000112",
"l7 c #0A1A4B",
"l8 c #071C55",
"l9 c #172F75",
"la c #0C2671",
"lb c #14317F",
"lc c #10348A",
"ld c #0E318B",
"le c #10348C",
"lf c #08348D",
"lg c #2660C1",
"lh c #153D95",
"li c #193272",
"lj c #0A1C4C",
"lk c #000D2F",
"ll c #0A1B53",
"lm c #0B266D",
"ln c #1D4199",
"lo c #1F4EA8",
"lp c #4479D5",
"lq c #2B58B5",
"lr c #244EA4",
"ls c #1D4394",
"lt c #000D39",
"lu c #020204",
"lv c #0F1B45",
"lw c #3D6CC6",
"lx c #305DB8",
"ly c #0B1D4F",
"lz c #00010D",
"m0 c #0B1C48",
"m1 c #12275E",
"m2 c #223D80",
"m3 c #13337C",
"m4 c #294D97",
"m5 c #1C3E86",
"m6 c #12337A",
"m7 c #15317A",
"m8 c #000D2D",
"m9 c #000F33",
"ma c #0B1D4D",
"mb c #0C1D4B",
"mc c #0D1C45",
"md c #0E1D46",
"me c #000313",
"mf c #010F2C",
"mg c #000325",
"mh c #000323",
"mi c #000123",
"mj c #050B2B",
"mk c #00041B",
"    4e4e    ||||0w  ch4e0h0h++++  6u0g181q8sfgftfw2ggcgr2y3chs4h0gir0c0s        ++++    0909  0w    ",
"    0h0h    ||  1y0w  0h4a0h7l4g19e454407tfafh33fx96gd3838hcht3c42is11j51m0s    ka++                ",
"        ++++    4f  1y    0s1m112ee56bep8p8tfifufy6ogegs9jhd3bi8ij962y4211jl4d  4f++  0w    ++++    ",
"    ||||++++      ||2bcq0t0g597zdw6c8f81f00qfj1afz3hgfgt9khehui99iitj0a3jcjm590t4c++        ++++    ",
"    0h0h      0h0c1n10185420dc80dx4r8eeqf10q1r1g911p2v45h2hfhv9t1d9rj17mjdjn75k40t  090909          ",
"              0c1ncbcicrd0d4dd6r4r5i0q..58530a7b065i2hguh3hghwiaik9ya07njejojtk5200g0s0909090w      ",
"1x1x++  0909  0t1831cjcs7md5de8185e60ker1u2n3n3g5q481h252jhh45ib4w0p1u0qjfjpjuk6kb2d0g              ",
"1x1x++++090s0t10c3ccck7f7n7udfdq1fXX..271k2n4456241f0y7p258m3h45iliu0a1f1j1j157ukckh20190c||        ",
"    ++++  0t6v6x37cd4o7g243s0q581w0o3z0j5l5lfk0j1jg6gg5l1v3n9r5s1d8725561k1v430qkdkikpkxl65z||      ",
"0h1y4f||4g2z3cbwc43hcl7h55d60o150j0j235bf28u8288g0g7979852hi8v9g3k3lj25r440b....0q8tkqky54195z      ",
"    ++1m21bhbr6y761p3kct7o4z0m0m3w13eg27131w5b160r414s1v0x1jhxic1b510p1c0b..0n0e0k7fkrkz4t1032      ",
"    ||6a2e67332i4w3i3l6nd10x0j0j0xe75d0k..XX0o5c0r971k9f5t72hy8d9w0aj3j60d0q0k9c081b6el0l77z0g4d||  ",
"4a0s4g4i6k6r4r6zc51i1i1g0f0b08080e0eehesXX432s3t0r9825gvh4hjhz0z291v1b7s7e1i123j//0pa79kl81q63lz0c  ",
"0h1z112d4l2i6m060612cmcu1e0i12//868a8a28XXXX0n3z164sgh9gh5hki01l0z9z441a2k3e3i0p0p2k9a6w9j802c591m  ",
"  1n2e6b4m6s1g0i0a3jcn3m3m1s1i4u//0fei0v0n0nfl280nXXgi5th69ni19u1l9p9na01b9y2hk72h3k47l1l9lllv180t  ",
"||11316cb70p1r0f1h//3mcvd21s0pdr4u1h8get0n3u0n0n92XX170xh7hl0r1l1l9x9zj71cjqjvk81d1dks2vla6q381o0g0s",
"1m63676db8bi060a06//070l3o2qdgds871a8hXX0o162t0mXX1w0o1j0r0z0z9u2aiv295a1tjr3e5f1d9t5s2vlblmadm0101z",
"0g2064azb9bj1g1gc6//070l0l070d4n5fe88h230o2tfm8n0j0o0o298k1l1l2a2a0r15433p1t1g3i471dkt2v2v35aam14v1n",
"afak336eba1a063d//792p2q08264x1tdye94y3q0o2tfn2t3t168ugw0z9oi22a9x5jXX3r3v0u070d3ikj1dl2lc4p2i9mm8me",
"ag3168b06l1a06//0f0f7d0f3p58733v148bej8n165c8w16933x0jgx2a9oi32a413q0u0ua40n..0706kka8a9ldln4pm2m9a6",
"2yal34b16mbk3d1s07074x1k1k1v..0n1w178i0r5g0z0m0mg1g83x8j5u5u1l5g5j2w990e17XX0e08//1ikua89ea7ab2f69mf",
"6064351p6n061r7007070b24563sXX2sdz0m8j0r41fb150jg20m3t0rh85u0z8iim2w1w3u49XX0v3o5nkl1il3leab3f9lmamg",
"aham356f4n4q1s1s0i7a1t7i7p57XX0m3x0z0z413w272u2u..2rgjgy8chmi4id9w7v15232sa40e0va2070f1ba99b3f2fmbmh",
"61an2f22bb1b1271//0a060d7i2o1w16e01l8k5j270i5p1eg399gk2w0r9pi55tin0y0jj8jg0n0e0l0l08..1ulf5o2jm32g2c",
"4b65364j4o39061212060p511c1udh5b5g8c0mXX081e1e070bg9gl130j3qi69f13iwXX17920v262q2q08XX0x55lo5ka56kmi",
"182cas6g352j2k06067b7e0p771k5a5c0z0rek268q5n5n2u94130bgz0y0b0a0a2w5hXX0n0e0v0807//0i50157klplwm42gmj",
"2b664h6h6obl2jbx1b0a////0i27290r0z8deleu5m1efo8y3v0u0y9h3a061i0a5a5v0n0v0n0v087a3j0f3w0m890ylxm53118",
"++32at1qbcbmbsby2n2o0b0k..2r0m0r3x2927evf32u0l0l94..8z950a9q9q120u3zj4a10e..0f5x2p79520mlg1f4nm6mcmk",
"091n2cb2bdbnbt720x0x4y521j0j3t16880o170u080l3o0e0k080b0i//1212//08ixa1j90l46jw0d1r2u5v0m3z1fac8fmd18",
"622z69b36pbo4s2l0j234z4z3q15di822seaemew3r0e8x3o468y2q0i2x702x1e0liy0l0l07140d5q140u5h0j491t74m71q4i",
"2zaoaub4be0q1373XXXX0x0xXX28282s5h0m0m160o500l0l0l081e2x2x8q070l0e0ea2073j0djx0a2o0y5v2r0qlq4w904t10",
"aiapavb5bf3a0i14..0u0ucw3r0vdj3u890o2t0m2lfc080k0k0k5m1eh9260e8x0e0v2607//0ajy//ke0yXX..1uac223b2c66",
"102daw6i2h6t3e1b140k..7j7j0uXXXX0n281wXX0x0xfp8zg40f9c0eXX152r17..083m070814jz48kf46080b3glr6j8o180c",
"30aqax6j4p1pbu4u770b507k577vXXXX0e0v..0u1f1v3s53g50i..170jhn3w1f3p070707460b1h5x075m0f0d25ls6y6511  ",
"aj212gb62i1p1a0a2o131j2l15XX3u0ne1283r1f1v7o3g7r3a0b4917571k441c0d//1r0i0b0q1s5p1s2p0a1alh34ly4h19  ",
"++191o37bg22393g1t0y4y2lXXXX..0v0v0e..553nfdfq510i0y150o0y8b9sie0d0a5x//140f5p71//060p5o2iad1o300c  ",
"4caray1q6qbp3f74c72424530b0b2o3p0keben5kf4fe5f0p0b2r230o0o..7x0a1h0a3d2x140f1r//12km3ll4lilt1062||  ",
"||0c194k383b6w2m1a7c1c1u7qd7dk83265d7qex8rff3e0695490j8w1643149v0d0d3djajh0f2p//062k3faalj7y1n      ",
"0h4d0c111obq3bbz2jce253n7r0d3a5d..ec1rey848v1h0i0uXXXX23932l0iif061g0d489v0d0f0a0p6l78l5lk0g0c      ",
"0h0h||2b104bbvc0786scocxd31gdl0k17..070i0f0q0k08080q1f2w291j0f0606061h0d9s0d140a1a2268a3100s||      ",
"  0w  4c1m214tc1c8cf2m3k7s0607dt0y130k0kf50b..08//0d5r1k13ho0k1e//485q1h5r1uk04q91knkv1o6a    0w    ",
"0w    0w  0t1875364jcp1d2kd87x7d1c2n13..3v8g0e081i5i9d1c1t9h0q0b0f830d1c7c1c4q39kg5w40215zlu        ",
"++++      6u0g4v2ycg4j2m6t7hdm842h8e2417..08862p3l6fgm9d0p7gi7igio0b2n8lji5kk1k97wko2z0c||  ||||    ",
"++        ||32c2c96h364m22d9dndue24o8l3s4x0i//fv47gagn6z1php8pihipiz6pjbjja52f4l1qa61z09    1x5y    ",
"0909  ++    0s1zca6v6xcy6ddadodve3ed8m85f61b0p391d9a476i9l6g8siiiq5w5w4ljkjsk22e111z0s        1y    ",
"4a    ++    0h0h0c1n4i2d7t7wdp5e5eee4mezf75o1p8r2m2m9e9i9m2g424k1o401q3c2d20k30g0c    1y1y          ",
"||          09    0c2bcz4vdb7y201o3yeo34f83h4576229b5sh037hq210t0g0g30300g19320c||  kw5y0w  09ae    ",
"||||  0w    0909    ++7l190t0t1911ef3y8o3633fr90342fgoh1hahr0t  ++++                5y1x    ae09    ",
"                        0c0c0s0c1m0g1042f93yfs375egbgp2ehb0g0c                                      ",
"                                  0s2b114k4b3y606140gq210g1z||                                      "
};