/* XPM */
static char *picture[] = {
"50 50 777 2 ",
"   c None",
"XX c #2153B2",
"++ c #2253B2",
".. c #020107",
"|| c #2452B0",
"// c #3067C4",
"06 c #2F67C4",
"07 c #3166C4",
"08 c #3066C6",
"09 c #030106",
"0a c #1B47A6",
"0b c #1A48A6",
"0c c #1C47A5",
"0d c #020204",
"0e c #010109",
"0f c #2253B0",
"0g c #010005",
"0h c #4179D6",
"0i c #2B5CB9",
"0j c #010207",
"0k c #17409A",
"0l c #1B48A5",
"0m c #030207",
"0n c #17409C",
"0o c #10358E",
"0p c #2154B0",
"0q c #1C47A3",
"0r c #285DBB",
"0s c #0E3590",
"0t c #15409C",
"0u c #3365C4",
"0v c #2F67C6",
"0w c #1F54B2",
"0x c #3166C2",
"0y c #00010E",
"0z c #01010B",
"10 c #010206",
"11 c #3166C6",
"12 c #2A5CBB",
"13 c #1849A6",
"14 c #2453AF",
"15 c #0E3592",
"16 c #1A49A5",
"17 c #3F7AD6",
"18 c #000112",
"19 c #1E47A3",
"1a c #1E46A5",
"1b c #2552AF",
"1c c #00010D",
"1d c #2452B2",
"1e c #2A5DB9",
"1f c #275EBB",
"1g c #3E7BD6",
"1h c #4279D6",
"1i c #000114",
"1j c #000115",
"1k c #020109",
"1l c #01010D",
"1m c #103590",
"1n c #2354B3",
"1o c #1849A8",
"1p c #2052B1",
"1q c #5191E9",
"1r c #000117",
"1s c #000110",
"1t c #183F9A",
"1u c #12348D",
"1v c #010727",
"1w c #0D3690",
"1x c #3F7AD4",
"1y c #3366C2",
"1z c #0D3692",
"20 c #5390E9",
"21 c #00011B",
"22 c #00082C",
"23 c #184098",
"24 c #2F66C3",
"25 c #2354B1",
"26 c #15409E",
"27 c #285DB9",
"28 c #4279D4",
"29 c #417AD4",
"2a c #3065C3",
"2b c #2653B0",
"2c c #1E55B2",
"2d c #2552AD",
"2e c #3067C2",
"2f c #3068C5",
"2g c #275EB9",
"2h c #000119",
"2i c #04103A",
"2j c #1F46A1",
"2k c #1A48A8",
"2l c #1A3F97",
"2m c #1F54B0",
"2n c #11348E",
"2o c #1748A5",
"2p c #3167C7",
"2q c #3267C5",
"2r c #2053AF",
"2s c #427AD7",
"2t c #2D68C4",
"2u c #000827",
"2v c #2152AF",
"2w c #2351AF",
"2x c #295EBC",
"2y c #3465C2",
"2z c #2553B1",
"30 c #143487",
"31 c #1D48A6",
"32 c #62A4F8",
"33 c #00092C",
"34 c #031138",
"35 c #00000F",
"36 c #000008",
"37 c #00020F",
"38 c #00082B",
"39 c #030720",
"3a c #010006",
"3b c #0E276A",
"3c c #01000E",
"3d c #14317D",
"3e c #193073",
"3f c #112667",
"3g c #0C1F59",
"3h c #1C47A6",
"3i c #0C2670",
"3j c #1A49A3",
"3k c #030208",
"3l c #11358B",
"3m c #2B5CBB",
"3n c #285DBD",
"3o c #4378D4",
"3p c #0B3694",
"3q c #548FE9",
"3r c #5390EB",
"3s c #0B3692",
"3t c #14419C",
"3u c #1849A5",
"3v c #3067C1",
"3w c #0D3594",
"3x c #1A4095",
"3y c #2651AD",
"3z c #163174",
"40 c #0C2055",
"41 c #3E7BD4",
"42 c #1B48A3",
"43 c #103492",
"44 c #2A5DB8",
"45 c #1947A5",
"46 c #010824",
"47 c #000215",
"48 c #02113A",
"49 c #000016",
"4a c #00113D",
"4b c #193171",
"4c c #112763",
"4d c #123589",
"4e c #254BA0",
"4f c #143489",
"4g c #1C48A1",
"4h c #000015",
"4i c #1B4091",
"4j c #0E368E",
"4k c #1E47A1",
"4l c #0C1F57",
"4m c #0F1F52",
"4n c #1B46A4",
"4o c #05277E",
"4p c #000830",
"4q c #3168C5",
"4r c #2651B0",
"4s c #1B47A8",
"4t c #174AA6",
"4u c #02103D",
"4v c #2255B1",
"4w c #0B1F5A",
"4x c #0E266C",
"4y c #1B4AA6",
"4z c #4179D8",
"50 c #1C3F93",
"51 c #2152B1",
"52 c #3466C5",
"53 c #020820",
"54 c #010825",
"55 c #2852A8",
"56 c #275DBD",
"57 c #3065C1",
"58 c #2B5CB8",
"59 c #000832",
"5a c #4378D6",
"5b c #2E66C3",
"5c c #020822",
"5d c #0F1F53",
"5e c #407BD7",
"5f c #295BBA",
"5g c #1A47A4",
"5h c #1B49A7",
"5i c #184097",
"5j c #1E3F8E",
"5k c #173F9E",
"5l c #265FB9",
"5m c #2253AF",
"5n c #63A3FA",
"5o c #113589",
"5p c #2C69C2",
"5q c #020724",
"5r c #163178",
"5s c #2D5BB9",
"5t c #285FBC",
"5u c #62A4FB",
"5v c #5092E6",
"5w c #113490",
"5x c #1F3F88",
"5y c #1947A7",
"5z c #2F5BB2",
"60 c #000726",
"61 c #010204",
"62 c #000012",
"63 c #030104",
"64 c #020308",
"65 c #02020C",
"66 c #031136",
"67 c #00082F",
"68 c #000929",
"69 c #03103C",
"6a c #000730",
"6b c #0B2059",
"6c c #072063",
"6d c #153276",
"6e c #0D286F",
"6f c #0F2669",
"6g c #0F2767",
"6h c #2A4B92",
"6i c #030305",
"6j c #00000A",
"6k c #00011D",
"6l c #0B2057",
"6m c #3765BD",
"6n c #183174",
"6o c #000728",
"6p c #1A3F98",
"6q c #1B3F97",
"6r c #082777",
"6s c #3366C1",
"6t c #3467C3",
"6u c #121E4E",
"6v c #03081E",
"6w c #21469F",
"6x c #000211",
"6y c #163176",
"6z c #1E3F90",
"70 c #0D3491",
"71 c #18409F",
"72 c #112665",
"73 c #02103F",
"74 c #010103",
"75 c #03103D",
"76 c #15317A",
"77 c #1C3F91",
"78 c #1F479F",
"79 c #2551B2",
"7a c #00113F",
"7b c #00000C",
"7c c #0F2765",
"7d c #020F39",
"7e c #2055B3",
"7f c #1948A4",
"7g c #1749A8",
"7h c #1B3F95",
"7i c #082779",
"7j c #2153B4",
"7k c #2351B1",
"7l c #10358D",
"7m c #00092B",
"7n c #000116",
"7o c #3566C5",
"7p c #2F65C5",
"7q c #174098",
"7r c #123586",
"7s c #1748A7",
"7t c #2B5DBC",
"7u c #2154AF",
"7v c #13317A",
"7w c #00020B",
"7x c #294B95",
"7y c #2E66C5",
"7z c #2B5EBA",
"80 c #03103A",
"81 c #02081E",
"82 c #3267C3",
"83 c #071031",
"84 c #11337D",
"85 c #4178D3",
"86 c #417AD3",
"87 c #00001D",
"88 c #000014",
"89 c #08287D",
"8a c #0A3695",
"8b c #2C5BB3",
"8c c #0A3792",
"8d c #0E1F53",
"8e c #0E1F55",
"8f c #0B3895",
"8g c #548FEB",
"8h c #0C3591",
"8i c #174AA5",
"8j c #265EBD",
"8k c #1C49A6",
"8l c #1F479C",
"8m c #2E5DB9",
"8n c #5590EA",
"8o c #041036",
"8p c #1E55B0",
"8q c #5391E8",
"8r c #5191E8",
"8s c #3E7CD3",
"8t c #1D49A2",
"8u c #16419D",
"8v c #2E5BB8",
"8w c #265EBB",
"8x c #2E5CBA",
"8y c #2D68C2",
"8z c #1E53AF",
"90 c #2C69C4",
"91 c #082875",
"92 c #2352AE",
"93 c #3C7CD6",
"94 c #0E3793",
"95 c #5090E8",
"96 c #1A3F9A",
"97 c #2A5BB7",
"98 c #001041",
"99 c #61A5F8",
"9a c #62A4FA",
"9b c #113492",
"9c c #1E4DA9",
"9d c #0B2673",
"9e c #15429D",
"9f c #1C48A7",
"9g c #153081",
"9h c #183F9C",
"9i c #19409D",
"9j c #1D46A2",
"9k c #204CA3",
"9l c #1F46A5",
"9m c #2252B4",
"9n c #143584",
"9o c #15419A",
"9p c #2553AB",
"9q c #163271",
"9r c #2551B0",
"9s c #1648A7",
"9t c #123587",
"9u c #113283",
"9v c #3F7AD8",
"9w c #0E266E",
"9x c #061034",
"9y c #000835",
"9z c #020003",
"a0 c #02020A",
"a1 c #00072B",
"a2 c #000212",
"a3 c #030724",
"a4 c #000019",
"a5 c #010010",
"a6 c #00030F",
"a7 c #000924",
"a8 c #000A2A",
"a9 c #050F32",
"aa c #121F4B",
"ab c #000828",
"ac c #000927",
"ad c #021236",
"ae c #020926",
"af c #02071D",
"ag c #182F72",
"ah c #223F85",
"ai c #18347D",
"aj c #0B2669",
"ak c #2B4B94",
"al c #17357E",
"am c #183076",
"an c #001043",
"ao c #1F3F8A",
"ap c #254697",
"aq c #264699",
"ar c #21479C",
"as c #10348C",
"at c #153486",
"au c #103182",
"av c #3A63BB",
"aw c #2247A0",
"ax c #1B3E92",
"ay c #173482",
"az c #0F2056",
"b0 c #041038",
"b1 c #000213",
"b2 c #001143",
"b3 c #1A3272",
"b4 c #153580",
"b5 c #1B3F93",
"b6 c #0F3283",
"b7 c #2E5CB2",
"b8 c #00072E",
"b9 c #143586",
"ba c #062778",
"bb c #254B9C",
"bc c #2C5EB7",
"bd c #1D4094",
"be c #13307C",
"bf c #193177",
"bg c #0F1F5B",
"bh c #00001E",
"bi c #1B46A5",
"bj c #0C3494",
"bk c #13368A",
"bl c #234BA0",
"bm c #3265C0",
"bn c #113488",
"bo c #123183",
"bp c #163383",
"bq c #0B2675",
"br c #000724",
"bs c #000723",
"bt c #132762",
"bu c #1B45A7",
"bv c #1E46A6",
"bw c #234CA4",
"bx c #437AD7",
"by c #23469A",
"bz c #14317F",
"c0 c #213E8A",
"c1 c #214599",
"c2 c #2550AE",
"c3 c #1C3E95",
"c4 c #163585",
"c5 c #111F4C",
"c6 c #0B2771",
"c7 c #2A5BBA",
"c8 c #153280",
"c9 c #18306E",
"ca c #02113C",
"cb c #040108",
"cc c #020623",
"cd c #060F3A",
"ce c #0D1D58",
"cf c #3267C7",
"cg c #4078D5",
"ch c #2A4999",
"ci c #1A3270",
"cj c #050E39",
"ck c #0E1E59",
"cl c #0F276F",
"cm c #12348B",
"cn c #214CA8",
"co c #2B50A8",
"cp c #213F87",
"cq c #00113C",
"cr c #00020E",
"cs c #060817",
"ct c #0F2054",
"cu c #233E83",
"cv c #0C3795",
"cw c #2F67C8",
"cx c #3065C5",
"cy c #2B5EB9",
"cz c #2D5CB6",
"d0 c #2A52A9",
"d1 c #001244",
"d2 c #0A205A",
"d3 c #4479D5",
"d4 c #082978",
"d5 c #091F59",
"d6 c #040821",
"d7 c #294A97",
"d8 c #4578D4",
"d9 c #1A46A5",
"da c #65A3FA",
"db c #4479D7",
"dc c #10368B",
"dd c #14327A",
"de c #010729",
"df c #021041",
"dg c #0A1F5E",
"dh c #3766BE",
"di c #093693",
"dj c #2851AD",
"dk c #5490E8",
"dl c #2851AB",
"dm c #234697",
"dn c #193274",
"do c #010F3C",
"dp c #132661",
"dq c #00104F",
"dr c #0A2870",
"ds c #2555AA",
"dt c #093894",
"du c #193F94",
"dv c #15337C",
"dw c #122663",
"dx c #06267B",
"dy c #062881",
"dz c #0A3591",
"e0 c #073894",
"e1 c #1F47A6",
"e2 c #072877",
"e3 c #1D479D",
"e4 c #0F348D",
"e5 c #032881",
"e6 c #3F7CD7",
"e7 c #1D48A7",
"e8 c #213F88",
"e9 c #030722",
"ea c #14327B",
"eb c #1D54AF",
"ec c #65A2FB",
"ed c #3365C6",
"ee c #0F3284",
"ef c #133380",
"eg c #19316F",
"eh c #030828",
"ei c #000633",
"ej c #2A5DB6",
"ek c #002A82",
"el c #0B3790",
"em c #03123D",
"en c #000F43",
"eo c #1E469E",
"ep c #437AD5",
"eq c #1C54B1",
"er c #1E56B3",
"es c #245FB9",
"et c #2B5DB6",
"eu c #03277F",
"ev c #113184",
"ew c #113281",
"ex c #153582",
"ey c #001149",
"ez c #22469A",
"f0 c #4378D8",
"f1 c #1E54B4",
"f2 c #4278D8",
"f3 c #2451AC",
"f4 c #15307F",
"f5 c #000022",
"f6 c #00114D",
"f7 c #2D4A90",
"f8 c #1F479E",
"f9 c #265DB8",
"fa c #2C67C3",
"fb c #093795",
"fc c #093594",
"fd c #4379D9",
"fe c #08277A",
"ff c #0A2574",
"fg c #00104D",
"fh c #1F56B3",
"fi c #3D7AD5",
"fj c #13429E",
"fk c #012883",
"fl c #2752B0",
"fm c #113691",
"fn c #001048",
"fo c #183173",
"fp c #22489B",
"fq c #1C49A4",
"fr c #2F68C2",
"fs c #285FBA",
"ft c #3B7BD3",
"fu c #568FE9",
"fv c #174AA3",
"fw c #1748A4",
"fx c #183171",
"fy c #0F204C",
"fz c #000739",
"g0 c #0D205B",
"g1 c #18419B",
"g2 c #3F7CD5",
"g3 c #3C7CD4",
"g4 c #2E67C0",
"g5 c #13429C",
"g6 c #0A3794",
"g7 c #3465C4",
"g8 c #163F9B",
"g9 c #0C3493",
"ga c #275CBA",
"gb c #2A5BB8",
"gc c #2950AB",
"gd c #133080",
"ge c #0D256D",
"gf c #0D368E",
"gg c #5292EC",
"gh c #3B7BD2",
"gi c #5193E9",
"gj c #4F91E7",
"gk c #63A5FB",
"gl c #61A3F9",
"gm c #1F55AF",
"gn c #3364C1",
"go c #4577D6",
"gp c #0A2871",
"gq c #00072C",
"gr c #04113E",
"gs c #0A2775",
"gt c #1B49A1",
"gu c #2254AD",
"gv c #2760BA",
"gw c #64A4FC",
"gx c #3B7DD4",
"gy c #5092E8",
"gz c #4F93E6",
"h0 c #60A4F9",
"h1 c #588FEA",
"h2 c #4477D3",
"h3 c #3265C1",
"h4 c #2951A8",
"h5 c #0B286E",
"h6 c #000122",
"h7 c #121F49",
"h8 c #0B1F5E",
"h9 c #13358C",
"ha c #1E4DA7",
"hb c #2E6AC2",
"hc c #3168C3",
"hd c #2152AE",
"he c #2750A8",
"hf c #143278",
"hg c #00092E",
"hh c #040F3C",
"hi c #0B2677",
"hj c #1B3F9D",
"hk c #2554AE",
"hl c #1D4CA6",
"hm c #3268C2",
"hn c #5090E7",
"ho c #4079D3",
"hp c #234AA5",
"hq c #122665",
"hr c #0F3391",
"hs c #275EB8",
"ht c #295EBA",
"hu c #144099",
"hv c #14439D",
"hw c #143F9D",
"hx c #00082E",
"hy c #152F7A",
"hz c #15358C",
"i0 c #0F348F",
"i1 c #0F3691",
"i2 c #14419E",
"i3 c #234BA2",
"i4 c #294A91",
"i5 c #0F1F50",
"i6 c #0D348F",
"i7 c #1F4CA7",
"i8 c #113277",
"i9 c #000011",
"ia c #000013",
"ib c #030F37",
"ic c #0A205C",
"id c #133F9E",
"ie c #2850AF",
"if c #1F47A7",
"ig c #1D54B1",
"ih c #2C5DB9",
"ii c #2851A9",
"ij c #214083",
"ik c #103391",
"il c #254B9E",
"im c #0A276B",
"in c #184095",
"io c #052780",
"ip c #2453AD",
"iq c #325CB0",
"ir c #0A2059",
"is c #1C408C",
"it c #1B49A9",
"iu c #224CA2",
"iv c #274B97",
"iw c #153073",
"ix c #164BA9",
"iy c #265DBA",
"iz c #042680",
"j0 c #123390",
"j1 c #101E4D",
"j2 c #00011E",
"j3 c #0D2154",
"j4 c #2145A3",
"j5 c #1B3E9A",
"j6 c #2C5DBC",
"j7 c #143F9B",
"j8 c #1F48A0",
"j9 c #193370",
"ja c #345AAB",
"jb c #3567C0",
"jc c #1F46A3",
"jd c #2554B0",
"je c #0D205A",
"jf c #000106",
"jg c #153373",
"jh c #325BAB",
"ji c #3466BF",
"jj c #010822",
"jk c #163273",
"jl c #2C51A1",
"jm c #13338A",
"jn c #11358D",
"jo c #18419D",
"jp c #538EEA",
"jq c #0B1F5C",
"jr c #111F50",
"js c #000105",
"jt c #19316D",
"ju c #1C408E",
"jv c #0E3286",
"jw c #0A2777",
"jx c #092578",
"jy c #08267C",
"jz c #285EB8",
"k0 c #437AD4",
"k1 c #2E69C5",
"k2 c #1E479F",
"k3 c #0C1F5A",
"k4 c #131F4F",
"k5 c #00010A",
"k6 c #04113D",
"k7 c #0C2053",
"k8 c #102866",
"k9 c #0B266D",
"ka c #173387",
"kb c #07277E",
"kc c #12358F",
"kd c #2453AB",
"ke c #4477D0",
"kf c #0E368D",
"kg c #1B306F",
"kh c #020F3C",
"ki c #0B2570",
"kj c #173484",
"kk c #164096",
"kl c #204EA4",
"km c #2D5CB4",
"kn c #2553A8",
"ko c #2F5CAD",
"kp c #2952A1",
"kq c #123682",
"kr c #153278",
"ks c #122760",
"kt c #0E1F57",
"ku c #12368A",
"kv c #20408B",
"kw c #091F58",
"kx c #0E2050",
"ky c #020F3B",
"kz c #000825",
"l0 c #02000D",
"l1 c #050E37",
"l2 c #010F3E",
"l3 c #2C4A90",
"l4 c #2A4A95",
"l5 c #1E3F8C",
"l6 c #1F3F8C",
"l7 c #15317B",
"l8 c #16307A",
"l9 c #17317B",
"la c #10276B",
"lb c #050618",
"lc c #000218",
"ld c #10214F",
"le c #1C306B",
"lf c #102662",
"lg c #1B316D",
"lh c #000829",
"li c #000839",
"lj c #001147",
"lk c #00073B",
"0d  ......  10100d0d    101009..1k374he9eh6aeyf6fgfnfz2igqh61v5439180z0g0d0d6161        640j        ",
"0d  ....      10740d0m3k0e7w1l1s885c1v22eien4bf76yfog05dgrh7hh4p3846ia0y0z0j1061        3a..0m      ",
"        09  0d0d  0gcb1kcs1jd6de755d8e4w3b3dezf855fp91ge3fh83fhq3gi5ib1v880y0j      0g              ",
"    0d6i09090d74  3k3c7n542259dfdp3e4xea4deo8v2z||fq7l30gs9dhi9ghy3bic8d80601j0y0e..  0m0909  0g    ",
"    0909        0d1lcccjctd24cdgdq6ce28l3y1b||7k0b4n237h3lh91u1uhz4d509nimir4u2u180e0jjs    0909    ",
"    0909  0m..0e1c1rcdckcu7xd784dr84e38m0iXX++1o2k0lg1gf0k1thjhri09i4r3yinisiwj37m1r1c0j    0909    ",
"      0g....366x467dcecl7r556mdhds8b2y122m0w1pXX1o139242gt8t0n9hi10n||1n5m9p8l7xj94a2h0z..9z0m0m    ",
"        ..0z6xbs4u4w4x6r0o1407065b4q0w07282e11110u0u122rguha420q2j1z||0u11070f5zjajg481r1l0m        ",
"0g0m0g3a1k35bh757cc67icm1t0l820h2s0h1h2885epf0115a2q////gv3v58421w9jid2y0u129s2yjbjhjk9y1j1k..3a    ",
"  0g  ..3c392ibtc03l2n0scv0b3o851h4q2eeb8peqf156fh1f06172029448c1w0n260b0p9six3n0rjijljt600ya0..    ",
"0j64  6j4h223g76c1190c0a2r3od81e1y1e1p0r2cer0v0v06171g20gw86hk1w1m9iie0bXX0wiy1f07445z6hk61r6j      ",
"..0j36186o4m6y770k0a1d51072q0bdi3s2d0i0u//2s7y06065e419595hbhl0k1mi6710a++1207072a0f14juk71v1s..    ",
"091k376kb23b6z780c||||++0u2o3p1m4o3l0q1e080v2ff92gfr17gg1q20hm3t0n1w1a0c9r||0i0i0f162b4ik87d7n1k..  ",
"0965af34b3b96p0c0a||||0i++||0c1m89dx4j16110v//8p27fs2t1ggx1q297u9e0n8h0t260l0l0a0l0l0c5o3z9839l0..  ",
"0da6386lb46w701a0a1d3m7o1n1od9dj2ndye40q070v082c1f2c8w41gy9a20hs3j0t0t9o0t0q3w1a4r2b19jvk95d5q3c1k  ",
"0j1i4a3b4i19714r4s++XXXX++++0i0l0s0oe50k6t4zf2085b2f2t5p5v328r1x443j0t4g0k4k43j41a1a6w303i3ga11i1l..",
"0ya76baob50k0c4s1d++XXXX++1o1n||0n0s150c0x060h06173rg2gh5v32hn412g970q942j0s2nj59h2jjmjw9d3f6u1vlb0z",
"1ia84bap4e0k3h2k++XX1252XXXXXX0f0q1z5k160x5l8wfa1gft1qgigz325n412e1e31150o2niz5wjc0s89jx9g9wktl1lc3c",
"1ja9agaq6p19bi0b0p7e077p08561p0i2b3t8f0i28es5l8y1g1q1qgj995v8q1x2x0fif431u4oj0433119jnjykaki72l25c1s",
"1r336c4d4j0c3h0b0p0r112p0v080r0p2v3u0f3o8n5p1x8yfi90g3gk9932202g7z||9likio1u9b9l0a8k961ukbkj5r6l2u4h",
"2h666dar4k4n3h791n11cf08cw7y//1f//065l8n5n8r205p901g935uh0323q279c0q1t1m0o0s1a3h790ajo1mkc505j9q6721",
"2134ah4e230nbjbu2kXX7j11cx080r//0v17e6ec8q8s1x29171g935u9a5nhoht4y0q0k0s0n315h2w++||0c9j1t0o3xl3ld68",
"46aaaias6q0o70bv0a||7k++++1o7g07061g1g3qejet1e1y3ofu1qgl5u1q292m135g310l0b++5f0r1y0f0a0c0c0k5il44059",
"21676e4f4f4o0o150c0a0b0b0b2oXX//2t3r8g3vek8t0lfbfjfvg48s1q200h0w0f2z45++XX11070w8z0p0b0a0c0n23l5leli",
"a2ab6fat6rbabk0o0t7f4y160b4t061g3r1x283uel1wf33sfk1wg5gm295e240w2o0fXX2a////7eXX0p4v450a1a1t2ll6lflj",
"1sac6gaub6bbblbw3j252o0i0f57173r3q3v5m3t0t0q8v3s0s0sg6gnh1hc4v0f251pig0v2f1f++++XX1y0i7f0t4j3l3dlglk",
"6268aj4eb7bcbm0x28//08082429dadk6s8c15151b||8xfc3p0l0fgoh2hd3t0l5y1p2f17//2x451d++0u0xjzkdkk5ol74l9y",
"1i336dav6s244qbx0h0h4z0v061x3q86dtdz8h26130u0u1o130ig72y169e198u||XX0617//XX||1dXX2a0hk0keklkul84m4p",
"47ad6h6m6t070r272m070724//////5a4te08i57//2p08//2e1y2b5k15151519||12064z1f0w++0u0w068g1x3vkm3xl973a1",
"2h48ak4g1425254t4v0p0r0wXXXX7j2a07281h062f060v062e8i1z439b5w150n160p//0h0r1p120w1f06172t2g8b4ila2i87",
"a369alaw1t0n0a25++XX3n2q7s131o072s0h0v562c2m0r8z27fw94965w2nhphui22r1h//XX0f3mXX5t069vk12gknkv6blh47",
"a46aamax1u1m0c||++7g08//7t0pXX0w0h5e0v08//0x1y1y5814g80s1m0s4ghv3u1e0x07130b51XX1f0h9v2f27ko3z7a531c",
"a5ae4cay4f0o26||XX08060h2s060808//068j8j061h0x2y1431g93w8f3u0p822g0x0i452kit++0r1f2sjp060xkpkw38180j",
"1k49an6n3dbd2j1bXX08cg0h2t06080r2c24082p072r1316fl260c0ah30x1h1h//2a1d8a4s5y++0r//0h0h2m3jkqkx211c  ",
"  3522az3ebebn0s0b0u072q0x0xXXXX070w11ed5h8u3s1z1z0t5s0u//0h080707XX2k5y0b0b++XX1h2e2716kfkrky490z  ",
"0d0z39b04lbfbo0o0lc7++120p2r1n1p2a2x7o1d3p1z0n0t0t14527p//2cXXXXXX++9m1d||13++j6574416k2304b9x1i0z  ",
"63..1l216u3fbp0o143m++++2o251pXX2q5fe75k260l0a||++XX1h24XX7s0a9f1o++9m1n130f2v5sjd2d239t7vkskz370e  ",
"09090gb1b8bgbq2lc2||0a0b137z120u++||3w3w1b0i52XX3n085b5t++9f1ahw2z++++++1n0i||1b9o2l9u3ikg4a817w0j  ",
"..  0m0y1v4m3iby2j0n1wcn0i07db1e8ae14n4y5f//080806065t122z5g0k0k1b5s++++1n2w0bj72l9u9wk3kh54350j    ",
"..    0z6v4p72bzc30o7l7q7u//5a133p1z8k2v072p08fd0v060w0f140q0k0k0k420f511d||0lj89t3ijqk41v1i65      ",
"      ..1l2h736gc47h6q7qcyd30p160t0t0b3mXX2x123n08082x0f9c0q0n1ti39kih0p++9r0q3x916fjr226v1c..0d    ",
"        ..0ybr7a3ec85023cz58||142b5g||||||2w||++112pga0p921b0c19239k5m1e||2d5i9n4x8e9x1r0y0e  0d    ",
"..        0e0y21c5c9chcod04k1b||2w5h||0l190s150c2v7t07071e0f2w0a0q2d2v0iipiu6z5rje3449k5a0..0g0m    ",
"..0g          7b6kcacicp7vd4dcdl2d1b0q0k0oeu1u0o0c8xgb97148m2z0a2di72b9piqiv6n402ijj1c    0g        ",
"              0j1c477mcqd1d5dddmdu5i2l3x5oev7ifefm1agc78h4he3y3y5z55iiil5x7cj1831j7b3k6i0m10        ",
"            1010  0e18532u804ldndv5j77ee7rewf4ff3030gdgph5hf5x5xi4i8ij9q4059j2180e  639z  0m        ",
"0j10    3a    0d0g3k0ecr358183dodw6ee8ef5jex3d765rfx3g9848hg33hx346633601r180y0ejf0g090909  0g      ",
"0j0j  0m..    0d  0g  ..0e1l62872i8d4weg3z3z3e4c40fy225q1j181s1s1ii91s1l..  0m  10    090909  0g    ",
"                        ....0e0y1j5c2u8oem4u698o2u53181c0z0e0e0e0z0e0e..                            ",
"                              ..361c1i2h6o38f55q1j3736                                              "
};