/* XPM */
static char *picture[] = {
"50 50 814 2 ",
"   c None",
"XX c #020107",
"++ c #2C61C1",
".. c #2253B2",
"|| c #2252B4",
"// c #3E76D5",
"06 c #14409F",
"07 c #2E60C1",
"08 c #2452B2",
"09 c #2153B4",
"0a c #010206",
"0b c #1D4BA9",
"0c c #2E60BF",
"0d c #2C61BF",
"0e c #2F60BF",
"0f c #2153B2",
"0g c #15409E",
"0h c #01010B",
"0i c #2B61C1",
"0j c #4075D5",
"0k c #000114",
"0l c #010207",
"0m c #020204",
"0n c #3C77D5",
"0o c #030106",
"0p c #010109",
"0q c #2452B4",
"0r c #1E4AA9",
"0s c #000112",
"0t c #2A62C1",
"0u c #000110",
"0v c #17409C",
"0w c #2452B0",
"0x c #498BE2",
"0y c #010005",
"0z c #00010D",
"10 c #183F9A",
"11 c #1E4BA8",
"12 c #030207",
"13 c #2551B0",
"14 c #13419F",
"15 c #3F75D5",
"16 c #2F60BD",
"17 c #173F9E",
"18 c #1F54B4",
"19 c #3E76D3",
"1a c #2B62BF",
"1b c #1142A1",
"1c c #15409F",
"1d c #0B3089",
"1e c #1F4AA8",
"1f c #1D4BAB",
"1g c #2F5FC1",
"1h c #3B78D3",
"1i c #4075D3",
"1j c #2B60C0",
"1k c #00010E",
"1l c #000119",
"1m c #000115",
"1n c #1A3F97",
"1o c #2D62C2",
"1p c #17409A",
"1q c #1440A1",
"1r c #1E4AAB",
"1s c #14419E",
"1t c #1341A1",
"1u c #1F54B2",
"1v c #1B4CAB",
"1w c #3C77D3",
"1x c #122A70",
"1y c #2A62BF",
"1z c #3B78D5",
"20 c #010825",
"21 c #000212",
"22 c #00082C",
"23 c #00092C",
"24 c #030208",
"25 c #1A3B8A",
"26 c #15409C",
"27 c #2253B0",
"28 c #3F76D3",
"29 c #2651AF",
"2a c #0C3088",
"2b c #2D5FC0",
"2c c #0B308B",
"2d c #2052B3",
"2e c #3F76D1",
"2f c #030007",
"2g c #000014",
"2h c #020109",
"2i c #000117",
"2j c #00000C",
"2k c #000008",
"2l c #2E5FBE",
"2m c #133C96",
"2n c #061647",
"2o c #2D5FBE",
"2p c #2354B3",
"2q c #2254B5",
"2r c #14419C",
"2s c #2553B3",
"2t c #2553AB",
"2u c #5EA2F7",
"2v c #163B94",
"2w c #2151B3",
"2x c #020005",
"2y c #0D2058",
"2z c #02103F",
"30 c #09308B",
"31 c #224AA1",
"32 c #0D2F86",
"33 c #00011B",
"34 c #184098",
"35 c #00000A",
"36 c #11429F",
"37 c #244A9F",
"38 c #4274D3",
"39 c #1A4CAB",
"3a c #1341A3",
"3b c #4C89E4",
"3c c #3D75D4",
"3d c #0C2F89",
"3e c #0D2F88",
"3f c #1E54B4",
"3g c #4D88E4",
"3h c #143B96",
"3i c #000827",
"3j c #4076D6",
"3k c #1F4AA6",
"3l c #4C89E6",
"3m c #3979D3",
"3n c #1D4BAD",
"3o c #488BE4",
"3p c #5CA2F7",
"3q c #173B93",
"3r c #000835",
"3s c #00072B",
"3t c #040207",
"3u c #010824",
"3v c #000012",
"3w c #0F2C72",
"3x c #1B387A",
"3y c #040821",
"3z c #132A6D",
"40 c #132E7B",
"41 c #1B4CA8",
"42 c #031138",
"43 c #143F9E",
"44 c #152B67",
"45 c #315FBF",
"46 c #2F61C2",
"47 c #1541A2",
"48 c #1D49A8",
"49 c #1D3B83",
"4a c #010727",
"4b c #1D4CA8",
"4c c #2551B2",
"4d c #1B4CA9",
"4e c #02020A",
"4f c #3061C0",
"4g c #2552AF",
"4h c #2A61BE",
"4i c #184097",
"4j c #1E55B2",
"4k c #3F77D6",
"4l c #1E4CAA",
"4m c #1C4096",
"4n c #3A77D2",
"4o c #162A65",
"4p c #2055B3",
"4q c #173A94",
"4r c #2652AB",
"4s c #1442A2",
"4t c #2553B1",
"4u c #3261BB",
"4v c #4989E1",
"4w c #133F9E",
"4x c #0F307F",
"4y c #3160B8",
"4z c #3E77D1",
"50 c #488BE2",
"51 c #122B6E",
"52 c #3879D3",
"53 c #3978D5",
"54 c #4A8AE4",
"55 c #1D3B81",
"56 c #488CE1",
"57 c #0B3088",
"58 c #1D55B4",
"59 c #000930",
"5a c #3979D1",
"5b c #122B6D",
"5c c #03103C",
"5d c #152A69",
"5e c #132F79",
"5f c #0C3086",
"5g c #010204",
"5h c #00020B",
"5i c #00020D",
"5j c #04091F",
"5k c #020305",
"5l c #04113B",
"5m c #051749",
"5n c #001143",
"5o c #01000E",
"5p c #01010D",
"5q c #010006",
"5r c #041036",
"5s c #05164E",
"5t c #132B69",
"5u c #1C377A",
"5v c #142F76",
"5w c #09215D",
"5x c #000830",
"5y c #102051",
"5z c #1B4091",
"60 c #1B3F93",
"61 c #0C3084",
"62 c #0C2F81",
"63 c #174197",
"64 c #3260B8",
"65 c #3160BA",
"66 c #325FBA",
"67 c #26499A",
"68 c #132A6E",
"69 c #061034",
"6a c #020822",
"6b c #00082E",
"6c c #0F2153",
"6d c #2453AF",
"6e c #0F2F82",
"6f c #1F387A",
"6g c #000013",
"6h c #000211",
"6i c #143F9D",
"6j c #183B8C",
"6k c #00072A",
"6l c #2351B3",
"6m c #06318F",
"6n c #2C60C3",
"6o c #183F9C",
"6p c #1A4095",
"6q c #102B70",
"6r c #000016",
"6s c #000105",
"6t c #0C215A",
"6u c #194199",
"6v c #2351AF",
"6w c #2351B1",
"6x c #020308",
"6y c #081645",
"6z c #1A3F98",
"70 c #000215",
"71 c #1B3F97",
"72 c #1E49A7",
"73 c #1C4DAA",
"74 c #1240A0",
"75 c #2852A8",
"76 c #18409F",
"77 c #2354B1",
"78 c #2B60BE",
"79 c #2154B0",
"7a c #02113C",
"7b c #010103",
"7c c #13429E",
"7d c #2254B3",
"7e c #1A4BA8",
"7f c #10214F",
"7g c #020724",
"7h c #02103D",
"7i c #2450AF",
"7j c #1B3B84",
"7k c #4274D5",
"7l c #133C98",
"7m c #00072E",
"7n c #00000D",
"7o c #020820",
"7p c #4D8AE5",
"7q c #2052B1",
"7r c #133FA0",
"7s c #173B8F",
"7t c #0D3082",
"7u c #194BAA",
"7v c #1D53B3",
"7w c #4177CF",
"7x c #102F7F",
"7y c #02226D",
"7z c #224B9D",
"80 c #4D88E6",
"81 c #2652B3",
"82 c #2152AF",
"83 c #03081E",
"84 c #3B76D4",
"85 c #2F61C0",
"86 c #143C93",
"87 c #4B8BE3",
"88 c #163D8A",
"89 c #0E3089",
"8a c #122F7F",
"8b c #02020E",
"8c c #000724",
"8d c #335FB6",
"8e c #0E2B7B",
"8f c #030921",
"8g c #2B63C2",
"8h c #0E2C75",
"8i c #60A0F8",
"8j c #2449A1",
"8k c #09308D",
"8l c #4A8AE2",
"8m c #2552AD",
"8n c #254A9B",
"8o c #1F4BAA",
"8p c #2651AD",
"8q c #132B6B",
"8r c #000834",
"8s c #2961C0",
"8t c #06328B",
"8u c #2353B5",
"8v c #03103A",
"8w c #1D49AA",
"8x c #5EA1F8",
"8y c #2E61BD",
"8z c #1A4093",
"90 c #2152B1",
"91 c #498AE4",
"92 c #4F87E4",
"93 c #1E53B3",
"94 c #3B78D1",
"95 c #1F4CA9",
"96 c #11429E",
"97 c #2B62BD",
"98 c #000015",
"99 c #224BA3",
"9a c #143B98",
"9b c #2C62C2",
"9c c #3060C2",
"9d c #2252B6",
"9e c #081643",
"9f c #0B215B",
"9g c #385FAE",
"9h c #1C4BA7",
"9i c #000018",
"9j c #020307",
"9k c #1E3873",
"9l c #00020E",
"9m c #000825",
"9n c #010F40",
"9o c #021035",
"9p c #010623",
"9q c #010008",
"9r c #020006",
"9s c #00011E",
"9t c #000124",
"9u c #00072F",
"9v c #000229",
"9w c #00092F",
"9x c #040108",
"9y c #02091C",
"9z c #0F204E",
"a0 c #0D2156",
"a1 c #162A5F",
"a2 c #23376A",
"a3 c #0C2052",
"a4 c #000935",
"a5 c #000925",
"a6 c #000103",
"a7 c #000020",
"a8 c #081647",
"a9 c #1E3B81",
"aa c #1B3780",
"ab c #173780",
"ac c #264A94",
"ad c #244A95",
"ae c #1A3C86",
"af c #030F3F",
"ag c #233670",
"ah c #102C76",
"ai c #183C90",
"aj c #2951A6",
"ak c #000731",
"al c #203874",
"am c #1B387C",
"an c #1B3B86",
"ao c #0E3185",
"ap c #173F97",
"aq c #18419B",
"ar c #2049A3",
"as c #0E2A74",
"at c #132C6F",
"au c #152B65",
"av c #020926",
"aw c #000721",
"ax c #0C1F57",
"ay c #112C6F",
"az c #1B3D87",
"b0 c #1B4194",
"b1 c #1A3A87",
"b2 c #1C397D",
"b3 c #00030C",
"b4 c #0D205B",
"b5 c #102A74",
"b6 c #1A3B8C",
"b7 c #173F96",
"b8 c #1440A3",
"b9 c #143EA0",
"ba c #2550AF",
"bb c #193E99",
"bc c #0B2057",
"bd c #051137",
"be c #000213",
"bf c #000723",
"bg c #091640",
"bh c #152F79",
"bi c #0E2E81",
"bj c #204BA9",
"bk c #3F75D7",
"bl c #2E60C3",
"bm c #0B2258",
"bn c #031136",
"bo c #092161",
"bp c #112E7A",
"bq c #183B8F",
"br c #063190",
"bs c #1A3C84",
"bt c #132C64",
"bu c #030F39",
"bv c #0C205D",
"bw c #122F7D",
"bx c #1E4DA9",
"by c #1641A0",
"bz c #1F4BAC",
"c0 c #2D62BE",
"c1 c #2D60BC",
"c2 c #173981",
"c3 c #04184B",
"c4 c #000829",
"c5 c #09102D",
"c6 c #121F53",
"c7 c #132A70",
"c8 c #1C3E95",
"c9 c #2451AE",
"ca c #1642A1",
"cb c #5088E5",
"cc c #1141A3",
"cd c #315FBD",
"ce c #021649",
"cf c #000928",
"cg c #020F39",
"ch c #021651",
"ci c #102B78",
"cj c #1A3F9A",
"ck c #1A4BAA",
"cl c #1D4092",
"cm c #010822",
"cn c #00030F",
"co c #030720",
"cp c #051139",
"cq c #02154D",
"cr c #112C71",
"cs c #08318D",
"ct c #3D75D2",
"cu c #0E2A73",
"cv c #0F2056",
"cw c #0E2F7E",
"cx c #093188",
"cy c #3E75D2",
"cz c #4B8BE5",
"d0 c #2554B0",
"d1 c #12419D",
"d2 c #11317E",
"d3 c #142C6C",
"d4 c #000924",
"d5 c #1E3779",
"d6 c #1E4BA6",
"d7 c #3F74D2",
"d8 c #3A77D4",
"d9 c #4077D4",
"da c #102F82",
"db c #1C3680",
"dc c #091642",
"dd c #184095",
"de c #2C63C0",
"df c #0A2F8A",
"dg c #183A91",
"dh c #1B3A8A",
"di c #0E2159",
"dj c #2E61BC",
"dk c #5087E4",
"dl c #2049A5",
"dm c #1D3A86",
"dn c #152A6B",
"do c #091643",
"dp c #0F1F53",
"dq c #132B71",
"dr c #325FBC",
"ds c #4F88E1",
"dt c #1F4BA2",
"du c #224BA5",
"dv c #12409E",
"dw c #1E4CAC",
"dx c #2752B0",
"dy c #0B2F85",
"dz c #25366A",
"e0 c #082164",
"e1 c #325DBB",
"e2 c #2A51AC",
"e3 c #345DB7",
"e4 c #3B76D2",
"e5 c #1B56B2",
"e6 c #2863C1",
"e7 c #5087E2",
"e8 c #4575CA",
"e9 c #153E8D",
"ea c #0C2C75",
"eb c #1A3B88",
"ec c #3E74D4",
"ed c #153FA1",
"ee c #4375D4",
"ef c #204BA7",
"eg c #0A2C85",
"eh c #112E7E",
"ei c #1F367A",
"ej c #192A5E",
"ek c #00185A",
"el c #2C62BC",
"em c #082C80",
"en c #092C7E",
"eo c #4276CC",
"ep c #00175B",
"eq c #001151",
"er c #00185E",
"es c #3260B6",
"et c #07174A",
"eu c #052065",
"ev c #163B8C",
"ew c #3360BB",
"ex c #14429A",
"ey c #001865",
"ez c #001258",
"f0 c #032169",
"f1 c #143987",
"f2 c #2A60C0",
"f3 c #5FA1F7",
"f4 c #61A2F6",
"f5 c #5088DD",
"f6 c #133E8D",
"f7 c #001857",
"f8 c #00073F",
"f9 c #001149",
"fa c #052063",
"fb c #0E43A1",
"fc c #2249A6",
"fd c #092064",
"fe c #00114A",
"ff c #123079",
"fg c #2953A9",
"fh c #02236A",
"fi c #2D60B9",
"fj c #498ADE",
"fk c #2C62B8",
"fl c #052F7B",
"fm c #001753",
"fn c #001046",
"fo c #00114B",
"fp c #1E3C84",
"fq c #4374D3",
"fr c #133B9A",
"fs c #08308F",
"ft c #224AA2",
"fu c #12296D",
"fv c #00083B",
"fw c #0F2B74",
"fx c #305FB9",
"fy c #4275CE",
"fz c #60A0FA",
"g0 c #4889E3",
"g1 c #4A8AE1",
"g2 c #5088DF",
"g3 c #083286",
"g4 c #00165A",
"g5 c #04216D",
"g6 c #2A50A3",
"g7 c #3061BE",
"g8 c #4074D7",
"g9 c #2450B1",
"ga c #19409F",
"gb c #0A2E8C",
"gc c #193C8E",
"gd c #122051",
"ge c #001043",
"gf c #1C3F91",
"gg c #4A8BE5",
"gh c #478AE1",
"gi c #4F88E2",
"gj c #1B4DA2",
"gk c #072C7A",
"gl c #0A2B7A",
"gm c #2653AE",
"gn c #193D9B",
"go c #153C99",
"gp c #1E3B7F",
"gq c #1F53B6",
"gr c #3C79D6",
"gs c #1C4BA5",
"gt c #3160BC",
"gu c #173C8C",
"gv c #08225F",
"gw c #4989E3",
"gx c #3877D4",
"gy c #377BD0",
"gz c #2B63C0",
"h0 c #123E97",
"h1 c #163B8B",
"h2 c #122A68",
"h3 c #001146",
"h4 c #1E3777",
"h5 c #25499D",
"h6 c #1F4AA9",
"h7 c #4A89E6",
"h8 c #1D55B2",
"h9 c #0A328A",
"ha c #2D62C0",
"hb c #4F85E5",
"hc c #305EC0",
"hd c #000937",
"he c #223872",
"hf c #173E9B",
"hg c #2149A9",
"hh c #5BA1F6",
"hi c #458BE1",
"hj c #498CE3",
"hk c #2352AE",
"hl c #03174A",
"hm c #1A3880",
"hn c #224BA7",
"ho c #397AD4",
"hp c #5FA1F8",
"hq c #468CE1",
"hr c #488AE1",
"hs c #387AD1",
"ht c #103D98",
"hu c #083088",
"hv c #214AA2",
"hw c #123076",
"hx c #001141",
"hy c #4C89E2",
"hz c #3878D0",
"i0 c #4A8CE3",
"i1 c #3878D2",
"i2 c #3F77D4",
"i3 c #214AA4",
"i4 c #143D99",
"i5 c #0C2160",
"i6 c #0F2E7E",
"i7 c #3E75D0",
"i8 c #4075D1",
"i9 c #4B88E3",
"ia c #1C4DAC",
"ib c #113C9A",
"ic c #2951A9",
"id c #001040",
"ie c #0D205A",
"if c #13307C",
"ig c #0F3E98",
"ih c #3E77D0",
"ii c #1A4DA9",
"ij c #1F3A7F",
"ik c #00113F",
"il c #0F2054",
"im c #113F97",
"in c #123B93",
"io c #113D96",
"ip c #15419A",
"iq c #173C8D",
"ir c #132C6C",
"is c #0F3081",
"it c #09328C",
"iu c #153A93",
"iv c #0C3189",
"iw c #0A3085",
"ix c #163B96",
"iy c #2E5EC0",
"iz c #193A89",
"j0 c #00062A",
"j1 c #0F2058",
"j2 c #183C94",
"j3 c #0B2F87",
"j4 c #0B2B80",
"j5 c #0F2D83",
"j6 c #103087",
"j7 c #1B4BAD",
"j8 c #2653B0",
"j9 c #2851A9",
"ja c #193F94",
"jb c #04113E",
"jc c #1B3B8E",
"jd c #0E2E83",
"je c #0C2B7E",
"jf c #0F2F86",
"jg c #133C94",
"jh c #1D387D",
"ji c #0E2052",
"jj c #06112F",
"jk c #1B3781",
"jl c #3260BE",
"jm c #1541A0",
"jn c #143C94",
"jo c #0C2E85",
"jp c #1A3E92",
"jq c #2752AE",
"jr c #173D92",
"js c #112C73",
"jt c #00062F",
"ju c #031553",
"jv c #103083",
"jw c #173E9D",
"jx c #173E99",
"jy c #05328F",
"jz c #023392",
"k0 c #1042A3",
"k1 c #214AA6",
"k2 c #0B2059",
"k3 c #020727",
"k4 c #081549",
"k5 c #19409B",
"k6 c #1A4CAD",
"k7 c #2652B1",
"k8 c #093189",
"k9 c #091843",
"ka c #08215A",
"kb c #264A96",
"kc c #1C4AA8",
"kd c #02000B",
"ke c #00123A",
"kf c #1C3975",
"kg c #1E53AF",
"kh c #10307B",
"ki c #051546",
"kj c #021236",
"kk c #1C3877",
"kl c #1C4AAA",
"km c #103D9A",
"kn c #2E5FBB",
"ko c #163B89",
"kp c #1B397F",
"kq c #213773",
"kr c #0F1F52",
"ks c #071135",
"kt c #00103B",
"ku c #1D3A76",
"kv c #395FAA",
"kw c #3660B4",
"kx c #355EB6",
"ky c #0D3084",
"kz c #1F49AB",
"l0 c #244A9B",
"l1 c #092360",
"l2 c #021648",
"l3 c #071134",
"l4 c #030104",
"l5 c #020A1F",
"l6 c #0C2253",
"l7 c #1F3B7C",
"l8 c #102B6E",
"l9 c #112E7C",
"la c #13307E",
"lb c #113083",
"lc c #103C95",
"ld c #1F4BA4",
"le c #1E4AA3",
"lf c #244A9D",
"lg c #000A32",
"lh c #00021B",
"li c #03081B",
"lj c #030305",
"lk c #011039",
"ll c #000936",
"lm c #05164C",
"ln c #01164F",
"lo c #092063",
"lp c #143079",
"lq c #2049A1",
"lr c #0C2254",
"ls c #000A23",
"lt c #00031A",
"lu c #1F3773",
"lv c #244997",
"lw c #224A9F",
"lx c #163F99",
"ly c #0C2F80",
"lz c #10307D",
"m0 c #172C63",
"m1 c #00001F",
"m2 c #0D2153",
"m3 c #1A3B82",
"m4 c #1B3C83",
"m5 c #1A387E",
"m6 c #142F74",
"m7 c #213675",
"m8 c #192964",
"m9 c #00021C",
"ma c #03010C",
"mb c #00000F",
"mc c #03081C",
"md c #000929",
"me c #02113A",
"mf c #112049",
"mg c #142249",
"mh c #041038",
"mi c #000218",
"mj c #00001A",
"mk c #000019",
"ml c #02010F",
"    0a0aXXXX0o0o        0m7b  0p7n0s1m0k0k1l7mge5wgvh3hd8r227g2i980u6x0m    0a0a    0a0a0a0a        ",
"    0a0aXXXX            XX4e0z0s7o203i3i8c23fv44gp55h4hehl2z5x3s4a7o0s5h0p0l0l0l0y  0a0a9j  0y12    ",
"XXXXXXXX      0a0a0a12XX2j6g7g226ydpdzejetfefwgf6p4ih525hm51i5ieil7hj06a0s0z0h2k5q  0m0m0mlj  9j    ",
"XXXXXX24    0a6s0a0l0p1kco3s7h2y3zdqe0ekeuff8j298o13h6hf4m7ti6if6q5dj1jbjj1l833v0hXX  0ml40m  6s    ",
"                  4e0u33cpcvd57j6j7t7y7yevfg4g4t0e..8whghn10101n61is5e3z2y9ejtk33vkdXX0o            ",
"          12XX0p1k1mc5cgcq1x25dd4r4r7z7zew820e0f18090q1r0r0g1c1c17103qjcjk5bjuk4221m2jXX0y    0y    ",
"      0y  XX2kbe4abuc6chcrcw1n2rdj2e7wel790f4609gq18||..0b114w1q137i720v1njpjv5ekake2i0h0l0a        ",
"        XX0h6hbf6ybvc7ci62cxd6271a3g3g1w3j0j0j07++++09907e0b082s1b0c0e080r0gjw1nkbkfkj2i5i0lXX      ",
"      XX2k6h33bgbobwc8cjcs7c0d28dk288084////++0j++0c..1f2w||2w09931j0j38jl0g0g174r9gkkktl59l2kXX    ",
"      0p0uaw426tbp71761q0e38d70d0f7u7v0t3c8g3f3f1a4p7q2d2q931o++0j++1j0f1406061r0q669gku230k0hXX    ",
"2f9x  2j6a5lb4bhbq10c92o28cy730606141v851i4h//0t0t8s//8g58//0n3c1i..1b1tjm061r0q||0e4ukvl69m1k      ",
"9rXX2h0k6baxb5bi6z72770dct4j066m4343e12rex651i4k//0n1z3l1h3b3g19964b4s7r1q1r089c||2b2bkw9k230u      ",
"0y2h0u206cayb66u26bx2o0d0d397i0r061ee2emey67fx0i0n1zh791hohyi796im266v9c||0e....1g090975l7lk21      ",
"0l0z5j5xalazb7bj4b73++++||081t0608dre3enez8h2t0i8453523o0xhzi8iginit0608900e4f1v..||||kxl8ll21      ",
"5h21a75yamb01p13270f09||||3a0q2s||..0w86f0fh4y0t1wgw3o3o0x942e41341d171c0r0b0b4l0b0808311x3r210m    ",
"5i9y5ragan311e0b..07||||||||3a||07094f2tf188fy0n1z3m3o8xhp941a4d2m2v8k170g1s0b14kc0w134i5v9n700m    ",
"0z1la83z25311e450709||||077d1v..++++7u164ufi4z3lgrgx0x2u2u5a4j0e0v2c2v3h0g481r1r08130g1n40lm2g125g5g",
"0u205sahao2m06||07462q090d0d0c07++++390ff20n7p3m1z530x2u2u4v0t..26iuj21n0v06814c131e0v5fl9lnlt0l0a5g",
"5j225t25ap116l46072o0f0c++1o0907++0i181o1y1hfz525352563phqi00n0dioivj3571pjq1e760v101dkyla9f9m0zXX  ",
"9s5l5u5zaq06||||2l4f1v0f++0j0707++153j194n8ig0gg540x563p50913l97ipiw323ejn1p6o9a2m3h1d328a5d230kma2x",
"9t9za9601043b80q0w0w740807072b07093fe487f32u50gh0xgy3phh0xi13b2e8t2aj4jdjo2a3d2c263k176zlblo5c3y2j2f",
"9u5m3w613017b9470606ca082q++2b392d0ie54vf4fjg18l0x563phi0x54i92e1p89j5je323q4qk5110b0r1771lp5mm1mb9q",
"3ra05v621d0v6m06brby061t2o0i++++097ve61hf5fkg2gi8i508xhjhr0x87ih263dj6jf3q34jx0g061fkl08295zlu59mc0h",
"3ra1aaai306i0b6v14140b791a1y//0t3f1ae7eof6flg3gj4z543m5ahs0x4v972rix4q3q3h0vjy141f0e1g||..lq55m2337n",
"9va2ab636d0707++15284h4j1w4n1z1z1hdse888f7fm3wgkgsgzh81h8l5a1h2814179a100g061b0c7k2d9d||..2tlv9kmd0k",
"9wa3ac642l1o6nbk////cb1w1hczd83b7p7we9epf8fng4gl2t1u58803m4n194p0w480g1c142p070j18093n3n..9hlw3x9o6r",
"3s5nad65160c09bl091u150n1h3b19de7qdteaeqf9fog537gt18583l1zi20d1b0b4l4c3a09++0j0d0c1b8wkz1f4g99m3memj",
"20a4ae6641..||0q1t..18//1w1w1a394sdueberfafpg6gm..1j28924h1uia080w0b0q9d6n151a1a78361c1c0r11lxm4mf33",
"2g233xaj11081q1r06bzcc++0t0t181b1tdv4ues8d64g70d1i1i8yhkht2r14080808..090i//1y1y4zkgkm6i8o0g34m5mg9i",
"0ua55w67ar06060r4c7409++4k3c071g..0cec//++1jg8++0d413k2m30i3132s0q0q2p0f//0n1y193g2ekn11111p4mm6421l",
"1k3u5s401n0g1q6w07180i0t0n0n0d4p++15191yfb0f09..1s8t2v1dhui4110w450e2w07921w1j++0n//0c9hlc86ly5bmh9p",
"0h2iaf686e10ba080915//0n0n3cd90d0i////191ifqg91c1p2v3e2a103k060b1b0f071j191y0fk6////++27ld37lzm722mk",
"XX3v222yas326o48..0d19////0i1u0d0t////0j1629gagn1d2a3e3d170r36ii0f1o0i154k1a1b..////++0f1s8j40m89pml",
"0o5o202zat6ebb0636c0780d++182q1u0i15++2p06frgb2c2v57h97l132l0c0d++++9b150t0ijz0e//8s++77le8n1x9nmi9q",
"  5p3yak6f6j10064dc10e....1v09091i0c1f4w0gfs8kgo2mh07c2o0j15//3j++072d1j9b0ik00j////0d8mlf55m05r0k2h",
"  0h0k69aub13406160c1f1f4l7e097k0edw061c1c0g0g0g8p6dha3j//0t//0i2d8uj709++1o2d0j//2e4yl03xlr9om91kXX",
"  0p5o3u6cb26p1s0w2p..ck36160j074s1qed47..0e08140w27hb0i0d1u7d..1t1t3n2b++++0f381i4ykol1lgls210z2k  ",
"  XX0p1m4244251p0608..2p271616..7r47810q071o2l..1b0f0j0d8y4d0b4w1q6w..2q070c0e0e2763kpl2lh2j0l      ",
"XX5qXX1kav2n6q600v081g070cd0267l062s070j++1j||0q3n2w070f0b111s0r..850c0c0c..45k71e8z5u7f8f0hXX7b    ",
"XX    0h6g6kbc49374g||0738d130df0g..++0i0i0j1g0q3a1g1g..060gib0r0c++1u0f0e0bk1k857khkq8v2g0h  0m    ",
"    3tXX0h1mbdbmbs75cd1g0e1s2c2c0g2lee++++2b091v||2w||080r95110b||070c..4t0v5f7x8h5tkrl3li0p240o    ",
"0m0m2x0o  b36rbnbtc24i29290v3d1d1e4t82..||||0f0c||8uhc080b1s950b||070e4b0vjr8e1x9fkiks9i9l4eXX2x    ",
"    XX240y240h1m6kc33wcl4m2a3e4qdldxef1e0r2s0c0f....6l080w0b0b08||iyj8jg5f4x1x6t9e3i2g0z0p0l0y      ",
"    XX0y12  123570c4ce6fcud2dadg6u3h1d2cfc290w16160b08080e1v1f080813j97s4xjsk2k94a0k0hXX            ",
"5ka60a0a  0m  6x0h0scf7a2yd3dbdh7sdyeg892aft3k8m2t2r06080e..08138p99ja255e5d5c8c0s35XX      240l    ",
"0m5k0a0a  12    0o2h0scm237f4o1xdm7xeh8a8e4xgc8nguh18z31hv8dic37iqiz7jjh4o2z200s0hXX        XXXX    ",
"3t  XXXX0l  0y0o0oXX35cn0kd4dcdidn1xei68fdfu51518qh28q5bhw4949ijir444oji691l0u0p2h2f  121212        ",
"0o3tXX240lXX  0o2x  XX0l0p0u3u7mdo2n2n2n5y2ngd2z8r8v597ahx5nidik5c596b3i985pXX  2f2f    0a    0o    ",
"                        XX0p0z0u0k2g831l8f1l3y2i0k0s0s210k1m0k0k0s0s0u1k0hXX                        ",
"                                  XX0h8b0z0z8b35XX                                                  "
};