/* XPM */
static char *picture[] = {
"50 50 793 2 ",
"   c None",
"XX c #020107",
"++ c #2253B2",
".. c #020204",
"|| c #010206",
"// c #2252B4",
"06 c #2C5EBD",
"07 c #1C4DAA",
"08 c #2A5FBD",
"09 c #1E4CAA",
"0a c #2452B2",
"0b c #417CD8",
"0c c #2960BD",
"0d c #030207",
"0e c #2153B4",
"0f c #030106",
"0g c #356DCC",
"0h c #407DD8",
"0i c #010109",
"0j c #366CCC",
"0k c #356DCA",
"0l c #2452B4",
"0m c #010005",
"0n c #1541A2",
"0o c #2A5FBF",
"0p c #437BD8",
"0q c #000110",
"0r c #010207",
"0s c #01010B",
"0t c #2153B2",
"0u c #1442A2",
"0v c #1442A0",
"0w c #00010E",
"0x c #2452B0",
"0y c #366DCA",
"0z c #1B4EAA",
"10 c #376CCC",
"11 c #2D5EBD",
"12 c #000114",
"13 c #16398B",
"14 c #2C5EBF",
"15 c #15429F",
"16 c #295FBF",
"17 c #16419F",
"18 c #1541A0",
"19 c #000115",
"1a c #1E4CAC",
"1b c #336ECA",
"1c c #1E4DA9",
"1d c #2C5FBB",
"1e c #01010D",
"1f c #2D5EBB",
"1g c #2253B0",
"1h c #123A92",
"1i c #376CCA",
"1j c #1B4DAC",
"1k c #346CC9",
"1l c #2860BD",
"1m c #142D70",
"1n c #1F4CA9",
"1o c #2D5FBE",
"1p c #417CDA",
"1q c #1C4DAC",
"1r c #204BA7",
"1s c #030104",
"1t c #12265B",
"1u c #000117",
"1v c #16419D",
"1w c #123994",
"1x c #2F5DBD",
"1y c #2551B0",
"1z c #194199",
"20 c #2151B3",
"21 c #1D4BAB",
"22 c #2154B0",
"23 c #010A29",
"24 c #00010D",
"25 c #00011B",
"26 c #1F54B2",
"27 c #4C8CE6",
"28 c #030A27",
"29 c #14409F",
"2a c #4C8CE4",
"2b c #447BD8",
"2c c #143991",
"2d c #000A34",
"2e c #000106",
"2f c #183988",
"2g c #18419B",
"2h c #18409F",
"2i c #00020B",
"2j c #2052B3",
"2k c #1B4CA9",
"2l c #15398D",
"2m c #295EBC",
"2n c #2052B1",
"2o c #2B60BE",
"2p c #000112",
"2q c #336ECC",
"2r c #18419D",
"2s c #030007",
"2t c #000119",
"2u c #010A2B",
"2v c #010006",
"2w c #152D6D",
"2x c #112E74",
"2y c #142D6F",
"2z c #08184C",
"30 c #194198",
"31 c #224BA5",
"32 c #16398A",
"33 c #0E2E7B",
"34 c #030929",
"35 c #000015",
"36 c #000211",
"37 c #2E5FBE",
"38 c #396BCC",
"39 c #2551B2",
"3a c #204BA9",
"3b c #1442A4",
"3c c #14439F",
"3d c #173A8C",
"3e c #1F4BAA",
"3f c #1C4CAE",
"3g c #305DB8",
"3h c #234C9E",
"3i c #000019",
"3j c #1B4CAB",
"3k c #366DC8",
"3l c #194EAC",
"3m c #000008",
"3n c #08184B",
"3o c #2152B1",
"3p c #102D79",
"3q c #2A5FBB",
"3r c #19409D",
"3s c #2B5DBC",
"3t c #2354B3",
"3u c #1F54B4",
"3v c #1341A1",
"3w c #193984",
"3x c #19409B",
"3y c #376CC8",
"3z c #1243A2",
"40 c #143A8F",
"41 c #326FCA",
"42 c #5699F0",
"43 c #0F3A96",
"44 c #15429D",
"45 c #2254B5",
"46 c #275FBC",
"47 c #000A2D",
"48 c #366ECB",
"49 c #376ECB",
"4a c #1242A4",
"4b c #020307",
"4c c #000018",
"4d c #020308",
"4e c #122D74",
"4f c #193986",
"4g c #16398D",
"4h c #030825",
"4i c #000932",
"4j c #18398A",
"4k c #133B93",
"4l c #1B4196",
"4m c #102C75",
"4n c #000216",
"4o c #000A32",
"4p c #173F9E",
"4q c #1C4096",
"4r c #112D76",
"4s c #020109",
"4t c #01092E",
"4u c #1440A1",
"4v c #1C4094",
"4w c #2D5DBF",
"4x c #2B5EBA",
"4y c #1243A0",
"4z c #000016",
"50 c #396BCA",
"51 c #142D6D",
"52 c #00000F",
"53 c #00000A",
"54 c #1C4DA9",
"55 c #2A61BE",
"56 c #2960BB",
"57 c #0E3A99",
"58 c #396CC8",
"59 c #1543A3",
"5a c #447ADA",
"5b c #3A6BC8",
"5c c #447CD9",
"5d c #4F8AE6",
"5e c #113A96",
"5f c #2353B5",
"5g c #123A91",
"5h c #366ECD",
"5i c #417CD6",
"5j c #000014",
"5k c #326DC9",
"5l c #000B2E",
"5m c #2860BF",
"5n c #234BA3",
"5o c #000A2E",
"5p c #1E4BA8",
"5q c #030208",
"5r c #041855",
"5s c #041853",
"5t c #000A40",
"5u c #000A37",
"5v c #000212",
"5w c #010204",
"5x c #0A173A",
"5y c #172D69",
"5z c #010A27",
"60 c #01000E",
"61 c #000017",
"62 c #1D4092",
"63 c #173889",
"64 c #102E76",
"65 c #000A39",
"66 c #0B1845",
"67 c #091642",
"68 c #01092D",
"69 c #07184C",
"6a c #14388E",
"6b c #17409A",
"6c c #16429B",
"6d c #152C6F",
"6e c #182D6C",
"6f c #0B1842",
"6g c #0A1F5E",
"6h c #0B2F7D",
"6i c #2F5EBA",
"6j c #1B4098",
"6k c #366BC9",
"6l c #184199",
"6m c #12255F",
"6n c #2850AF",
"6o c #2651B0",
"6p c #2554B0",
"6q c #1F4AA8",
"6r c #2451B6",
"6s c #15409F",
"6t c #040926",
"6u c #0E1F55",
"6v c #00020E",
"6w c #000105",
"6x c #03020A",
"6y c #0D2E7B",
"6z c #113B91",
"70 c #1F4DAB",
"71 c #1F4CA7",
"72 c #030A26",
"73 c #1E55B2",
"74 c #0A163C",
"75 c #1D4EAD",
"76 c #020A2E",
"77 c #2453AD",
"78 c #5A97F2",
"79 c #050A1E",
"7a c #00001A",
"7b c #0C1F5A",
"7c c #1B4EA9",
"7d c #4E89E5",
"7e c #447DD7",
"7f c #508BE7",
"7g c #103995",
"7h c #081F62",
"7i c #204DA2",
"7j c #2F5EB8",
"7k c #1C3881",
"7l c #143A8D",
"7m c #457ADA",
"7n c #1E4DA7",
"7o c #17409C",
"7p c #000012",
"7q c #112560",
"7r c #1B3982",
"7s c #1F4DA5",
"7t c #477AD6",
"7u c #4F8CE7",
"7v c #000B47",
"7w c #1541A4",
"7x c #0A1944",
"7y c #5289E6",
"7z c #1344A3",
"80 c #0E2E77",
"81 c #3A6CCB",
"82 c #0E1738",
"83 c #182D66",
"84 c #00093D",
"85 c #00195C",
"86 c #143B8A",
"87 c #07184E",
"88 c #0E2E79",
"89 c #407DD6",
"8a c #477AD5",
"8b c #183A84",
"8c c #1D4EAB",
"8d c #5999F1",
"8e c #2553AB",
"8f c #112E72",
"8g c #1643A0",
"8h c #15409E",
"8i c #00195B",
"8j c #234BA0",
"8k c #224BA3",
"8l c #326DCB",
"8m c #5799F0",
"8n c #589AF1",
"8o c #000A3B",
"8p c #000121",
"8q c #294A99",
"8r c #4B8DE4",
"8s c #386EC8",
"8t c #103991",
"8u c #1E4CAE",
"8v c #234BA2",
"8w c #183986",
"8x c #2450AF",
"8y c #4D8AE5",
"8z c #113A94",
"90 c #1F387B",
"91 c #356BCB",
"92 c #1F4091",
"93 c #427DDB",
"94 c #4E8BE6",
"95 c #518AE4",
"96 c #275FBE",
"97 c #224AA9",
"98 c #081740",
"99 c #1D418F",
"9a c #386DCD",
"9b c #193982",
"9c c #122D72",
"9d c #2153B6",
"9e c #1B3981",
"9f c #427DD9",
"9g c #447CDB",
"9h c #081951",
"9i c #457AD8",
"9j c #173A8B",
"9k c #1B397F",
"9l c #407BD7",
"9m c #396CC7",
"9n c #15388C",
"9o c #1F4BAC",
"9p c #1F4DAD",
"9q c #02020C",
"9r c #112C79",
"9s c #1642A1",
"9t c #112D77",
"9u c #0F2C78",
"9v c #1F4DA3",
"9w c #254B9E",
"9x c #000011",
"9y c #152556",
"9z c #000218",
"a0 c #00020D",
"a1 c #020B2C",
"a2 c #000A36",
"a3 c #3D6BC1",
"a4 c #1B3884",
"a5 c #1D4BA9",
"a6 c #000B39",
"a7 c #020005",
"a8 c #000103",
"a9 c #02000B",
"aa c #000A3E",
"ab c #031859",
"ac c #00092A",
"ad c #020B28",
"ae c #081643",
"af c #1E3980",
"ag c #172C6B",
"ah c #081742",
"ai c #000215",
"aj c #050A20",
"ak c #040207",
"al c #040A2C",
"am c #07194B",
"an c #0A1F58",
"ao c #1E4192",
"ap c #0D1E54",
"aq c #0B1948",
"ar c #08205E",
"as c #0F3B94",
"at c #234CA6",
"au c #082066",
"av c #071E61",
"aw c #14255B",
"ax c #0C1532",
"ay c #000113",
"az c #234AA5",
"b0 c #123996",
"b1 c #2253AF",
"b2 c #2D5EBA",
"b3 c #305EB6",
"b4 c #2652A9",
"b5 c #15265A",
"b6 c #0A1542",
"b7 c #0C1F59",
"b8 c #254BA0",
"b9 c #2652AB",
"ba c #0F3B92",
"bb c #163A90",
"bc c #102564",
"bd c #0A174B",
"be c #00030C",
"bf c #040A24",
"bg c #122C76",
"bh c #1C3E95",
"bi c #123A99",
"bj c #2653B0",
"bk c #052067",
"bl c #0C1F57",
"bm c #000A30",
"bn c #0A163E",
"bo c #112C71",
"bp c #2B60C0",
"bq c #2651AD",
"br c #051850",
"bs c #0C1840",
"bt c #0C1842",
"bu c #163A88",
"bv c #174098",
"bw c #1141A3",
"bx c #224089",
"by c #132661",
"bz c #000013",
"c0 c #071850",
"c1 c #1D4CA6",
"c2 c #1D4BAD",
"c3 c #142C72",
"c4 c #111E52",
"c5 c #00082C",
"c6 c #152C70",
"c7 c #2553B5",
"c8 c #528AE7",
"c9 c #2254B7",
"ca c #173A8E",
"cb c #112B75",
"cc c #0A1743",
"cd c #0B1F5A",
"ce c #2B5DBE",
"cf c #285EBE",
"cg c #1D53B3",
"ch c #0C1945",
"ci c #040A2A",
"cj c #070A1D",
"ck c #2C5DBA",
"cl c #0F3C99",
"cm c #0E3B98",
"cn c #153991",
"co c #0D2E7F",
"cp c #162E6E",
"cq c #14255D",
"cr c #000835",
"cs c #122E77",
"ct c #113A8C",
"cu c #376DC7",
"cv c #11429F",
"cw c #427BD5",
"cx c #13419F",
"cy c #071748",
"cz c #447BD5",
"d0 c #2A61BC",
"d1 c #396BC4",
"d2 c #528BE5",
"d3 c #5189E6",
"d4 c #2D5FC0",
"d5 c #204BAA",
"d6 c #000209",
"d7 c #000928",
"d8 c #0A1845",
"d9 c #102E77",
"da c #3D6CC4",
"db c #153B8C",
"dc c #09307F",
"dd c #305FB1",
"de c #396DC3",
"df c #386DC9",
"dg c #3A6ACC",
"dh c #2351B3",
"di c #102662",
"dj c #0C1943",
"dk c #153B8E",
"dl c #224CA0",
"dm c #062263",
"dn c #001A5C",
"do c #1C428D",
"dp c #305FB9",
"dq c #07091E",
"dr c #142559",
"ds c #132E73",
"dt c #15419A",
"du c #1E53B3",
"dv c #4B8BE5",
"dw c #184191",
"dx c #000B44",
"dy c #000B3E",
"dz c #2E5DB5",
"e0 c #113990",
"e1 c #1F4EAA",
"e2 c #5188E5",
"e3 c #417EDB",
"e4 c #3E7ED6",
"e5 c #4F8CE5",
"e6 c #326DC7",
"e7 c #2661BB",
"e8 c #457AD6",
"e9 c #194292",
"ea c #000A42",
"eb c #3A6DC6",
"ec c #0E3A9B",
"ed c #2254B3",
"ee c #1E53B1",
"ef c #2055B1",
"eg c #4D8DE5",
"eh c #437CD6",
"ei c #1B4192",
"ej c #000A44",
"ek c #3D6BC0",
"el c #2351AF",
"em c #1543A1",
"en c #122560",
"eo c #0F1535",
"ep c #0F1F52",
"eq c #011A5D",
"er c #1F54B0",
"es c #184DAB",
"et c #4B8CE6",
"eu c #5798F2",
"ev c #437AD4",
"ew c #0A2D7E",
"ex c #4E78CC",
"ey c #1B4194",
"ez c #091E5D",
"f0 c #010A33",
"f1 c #5699F2",
"f2 c #5598F1",
"f3 c #5898F0",
"f4 c #2961B8",
"f5 c #001962",
"f6 c #3C6BC5",
"f7 c #2E5FBB",
"f8 c #000935",
"f9 c #000B3F",
"fa c #457CD9",
"fb c #285FBC",
"fc c #295FB7",
"fd c #0F2E7E",
"fe c #001A63",
"ff c #1C418F",
"fg c #396CC5",
"fh c #376DCD",
"fi c #2451AE",
"fj c #305EBC",
"fk c #1D387F",
"fl c #011957",
"fm c #315CB8",
"fn c #2A60C0",
"fo c #579AF1",
"fp c #5598EF",
"fq c #386EC6",
"fr c #153A8B",
"fs c #001A67",
"ft c #437AD7",
"fu c #1544A0",
"fv c #133B92",
"fw c #2851A9",
"fx c #1A4CAB",
"fy c #4A8DE4",
"fz c #488EE4",
"g0 c #2C60B6",
"g1 c #01216E",
"g2 c #0A2E82",
"g3 c #5289E3",
"g4 c #072F86",
"g5 c #193888",
"g6 c #041952",
"g7 c #051853",
"g8 c #1C4295",
"g9 c #4A8CE3",
"ga c #1E54AC",
"gb c #062F7F",
"gc c #1E4CA2",
"gd c #5289E4",
"ge c #295FB9",
"gf c #1A3F97",
"gg c #123B97",
"gh c #1142A1",
"gi c #091F59",
"gj c #02154F",
"gk c #346FCB",
"gl c #2861BA",
"gm c #2A60B8",
"gn c #376DC5",
"go c #437CD5",
"gp c #10439F",
"gq c #386DCB",
"gr c #386AC9",
"gs c #05164A",
"gt c #142C6A",
"gu c #2661BF",
"gv c #417ED9",
"gw c #4E8BE4",
"gx c #224BA7",
"gy c #4379D9",
"gz c #204CA5",
"h0 c #1C3F91",
"h1 c #11265B",
"h2 c #1344A1",
"h3 c #000224",
"h4 c #142656",
"h5 c #346FCD",
"h6 c #1F56B3",
"h7 c #407DDA",
"h8 c #326FCC",
"h9 c #2562BD",
"ha c #3F7CD7",
"hb c #346DC7",
"hc c #2252B6",
"hd c #15398F",
"he c #1D387D",
"hf c #1D4DAF",
"hg c #1B4BAD",
"hh c #427DD7",
"hi c #2055B5",
"hj c #214AA4",
"hk c #041958",
"hl c #183789",
"hm c #2151B5",
"hn c #1E54B4",
"ho c #346CCB",
"hp c #427AD7",
"hq c #5088E5",
"hr c #224AA2",
"hs c #1B3F93",
"ht c #1D397A",
"hu c #000B2B",
"hv c #1C3681",
"hw c #1D4197",
"hx c #295EBE",
"hy c #3A6DC9",
"hz c #2C5DB9",
"i0 c #2E5CBA",
"i1 c #13275A",
"i2 c #0C1946",
"i3 c #0A1F60",
"i4 c #4E89E7",
"i5 c #1042A1",
"i6 c #1E4BA6",
"i7 c #14439D",
"i8 c #0E3D99",
"i9 c #0E3C9A",
"ia c #214AA6",
"ib c #10265F",
"ic c #000A2F",
"id c #437BDA",
"ie c #447ADC",
"if c #0E3997",
"ig c #17439C",
"ih c #0B2E80",
"ii c #214CAB",
"ij c #2553B3",
"ik c #0D3B9B",
"il c #1A3989",
"im c #0D2565",
"in c #0B1844",
"io c #0B173F",
"ip c #0B1F5C",
"iq c #2054B7",
"ir c #133A95",
"is c #18388B",
"it c #102D7D",
"iu c #102D7B",
"iv c #1144A0",
"iw c #071F65",
"ix c #305EC0",
"iy c #1840A0",
"iz c #113991",
"j0 c #041E68",
"j1 c #0F2F7C",
"j2 c #0D3A97",
"j3 c #102C76",
"j4 c #0C205D",
"j5 c #000936",
"j6 c #1640A2",
"j7 c #1A419C",
"j8 c #04206A",
"j9 c #153B90",
"ja c #0E3995",
"jb c #5B96F2",
"jc c #194196",
"jd c #092161",
"je c #0A1849",
"jf c #03092B",
"jg c #00000D",
"jh c #00011E",
"ji c #0E2D7D",
"jj c #1641A0",
"jk c #1642A3",
"jl c #1B4099",
"jm c #0F1E55",
"jn c #080A21",
"jo c #0C2055",
"jp c #113998",
"jq c #2652B1",
"jr c #143992",
"js c #1742A0",
"jt c #1143A2",
"ju c #315DB4",
"jv c #0A2F7D",
"jw c #102660",
"jx c #02020A",
"jy c #152D6B",
"jz c #204DAA",
"k0 c #19429E",
"k1 c #2650B2",
"k2 c #2551B4",
"k3 c #0D1732",
"k4 c #051745",
"k5 c #2352AC",
"k6 c #2E5DB9",
"k7 c #00021E",
"k8 c #10275D",
"k9 c #294B95",
"ka c #3C6BC3",
"kb c #3D6AC5",
"kc c #2753AC",
"kd c #1A3F98",
"ke c #254AA2",
"kf c #2F5DBB",
"kg c #0F3A98",
"kh c #000210",
"ki c #09173C",
"kj c #0E275F",
"kk c #274D96",
"kl c #3E6BC0",
"km c #315EB1",
"kn c #2952A1",
"ko c #153985",
"kp c #112F78",
"kq c #163A86",
"kr c #194291",
"ks c #3A6BC7",
"kt c #284C98",
"ku c #11265D",
"kv c #050A1D",
"kw c #000323",
"kx c #112558",
"ky c #2C4A90",
"kz c #2C4B8E",
"l0 c #0C2661",
"l1 c #02174C",
"l2 c #051749",
"l3 c #051549",
"l4 c #000A3D",
"l5 c #051747",
"l6 c #011A52",
"l7 c #0A2E78",
"l8 c #325FB4",
"l9 c #224184",
"la c #000120",
"lb c #000831",
"lc c #000934",
"ld c #0D2762",
"le c #274B95",
"lf c #234CA4",
"lg c #335CB4",
"lh c #2851AB",
"li c #122E6F",
"lj c #112759",
"lk c #030305",
"ll c #00030F",
"lm c #0F1632",
"ln c #1D254C",
"lo c #03092D",
"lp c #152654",
"lq c #204190",
"lr c #10245F",
"ls c #0A1847",
"lt c #050924",
"lu c #091640",
"lv c #172552",
"lw c #13275C",
"lx c #11265F",
"ly c #0A205A",
"lz c #05194E",
"m0 c #050B25",
"    ||||||||....0m  ||||....||d67pdq35351919618p84g7gjgs98h3283i0q2i  ..    0d      0m  ....  0d    ",
"    ||||||||....    ||||||2e2i0q7a348282eo28342d7q9090gth1h4675o285j0q9q0iXX0m0d        ....        ",
"    XXXX    1s1s  XX  4d530w4nd7djdr8383ep65f9fl8wg84v13999b9chk9hi22u4z0w0iXX2v    ||||0d0mXXXX    ",
"    XXXX    1s0f0d2v3m24cj7a68d87qds3w88eq8i2x8qfw1n173a1r1w4qhlhvi32zio28190q0sXX    0d0m0dXXXX    ",
"....||||        0f6x6v4z76cr2z6e7r13e0304l408kfm8x0a1x0a3e152r1zhw339cip2z4ojh9x0i  ..  0dXX  0d    ",
"....||||      4s1ebz72743n7b7hd9dkdte15b5b1d060t753o//200a0a0a29171z9n3piw7b662312a00r  5qXX  0m    ",
"        0f0fXX0w6t4i3ncd2ycs6y7l7s7c261k5c0k0c08fx1o06++1a0u0l0l8u1y171z139t7hjo98k3a0  XX2s        ",
"      XXXX4s0w2tbtc0c63p32ct7ida7t7ye20p7d5d5c0c081d2k071x21//hm9d0e//0x312lji7kjyk4k7kh0sXXXX      ",
"XX2v0r0i0s36bfbn6u1m2f3077cucz7e5a1026efer2bfa2b08070v1c090xhf0e101610060x1v2c4g139ek8kikv0i2e2e    ",
"XXXX4d0say4h2d1t1m6y1h0x1i1p0b1b16du1q078c22fbfn1i06072kh207++3u0j0g0j080t0x2r3r2r8vk9kjkw9x2i0r    ",
"4b||0m0w4hb66mbobu6z1550100j730c080t1a0a1g0z080y16910y2o3l1o0ehn5m1pid102j0a17jpjzk5kakkkx23ll||    ",
"a84b0i124ob7bg62bvc13o140e1j261i3s7z3v21070z1j0o5h5h0g0g160j0jho93i4ieiq0e3jjj6s091j2mkl512d5v||    ",
"0d2e604h2z4ebh2h3e1g06ce0u1q267m3t0u290907062j0o0g1k1l1l0k480k5d789l0e4a4a0a299s3z450oa3kya612      ",
"0m0s614i6g2f6n6r20++14750vcv08102n3j59070z06140o0k0b0k461b5k5k9f0h0k200lix0a0n0n//140oa3kza612      ",
"0f0wal692xb86o6r3f//113j0707080j0o0t1j06es080j0g1b0b93gu8lh50g5m1k0c370a0a0n0n1a//0e0okml05l36..    ",
"2s122dar6h2g0a//3f//++07ck0z080j0j160j0c0c0y8l0b7u0h2q2q2q1p0g0c49i50v180n4u0n0l//0e58knl1230q0r    ",
"a94cam2x300x370e3f3j1o0z071d0c0p0b1p0g0g1l1l1b0h272a0h1b1b0b0p1l08++if2hiyj69o3b3f5bkbkol2la790w0i  ",
"0qadan4f311x380e++++0622547cd00p0h0he31p1b1b41278r2a0b0k461l0k0p16++1v1w3r2hjk0a11k6kc883n2ulm190s  ",
"2t5x2w4jaz1y0a//2170071c1c543q0k7u27e4891b0h2a8mfy8d0b160ch60g9g9g0844irizj717jq1f6p3x9u87lbln6t0w  ",
"2uae4e6a1w17390n0u0x0x3ccl1c1d0c0bdv2a2a0h278mfo42g9gk960c0c960g1p3kig2c132l4k1r5p71kda49hlclolt1e  ",
"2d1t4f4kb02hbi6s0nc2c721cm1n0907080pe52aetf142fpfz420h0b1k1l1lhp0b8s8tis9r9u9n1hk07okekpl3763553XX  ",
"aa5yao6b4p173a180a//2j0e2k54701g1j55e6egeuf28n8r428n94gv0h5k460k0b9m40itj0j813jr4p4p5n80l4281e1s    ",
"5r1m62as1c1d060o0y0y0y0c5556220z080ce7898df327278y0h5i940hh716917y77ih9r9t336a3rk1393gkql5251e1s    ",
"abaf4g6cb16k100j0k0kc80p0b1k3q1d08083kehevf4fcfqg0gagl0h0hh85m0j9ii613iuj132jl97k20lkfkrl65l1u240r  ",
"5s1m4g1vb20t14bp083k0p0b787d1i1j4x7te88a8e6z7lfr6hgbgm0h0hh92q0g9ii7403d13j93xjs0n0l++9vl7ldlp5z0w  ",
"5tag63at6i0z//0e0t3l730p0h1b1d7ndldwe9eiew63fd33g186gn0h41412q0p063c4k2c5g1h5e290a201oksl8le5ylu2p  ",
"5u1t644lb3073b0l//0e0ecf0bcw7jdbdmdxea5s85f5fefsg2gcgogw41ha1p2b++572h2r2gja0n//0e101i3y6i9w1mlv120d",
"acah2w2fb4094u3bbw//c9cg0g7ed1dc7vdy84ej8f8bff3h8e8a958y0b5c0g080918ii9sj209//38102o080611lf4m9y190m",
"5v5zap4m6j180n0l4w140o160g1kd2dddn7v858bexf6fg8sg3gd950y9a2j1q0v0v0v9o217z0t490y060709a509lg3wlw1uXX",
"0i1u65au4q17390l0l//100j0g0b7fdedo8086ek2216fhft56gegp2n205f3v090x07++060o0j1k498c15293e0v8k8wlx4c4s",
"XXai5uav13b9bj0u0l//0o0g0b7fd3dfdpdzeb3y2o3s1ffu4444438g1x//hg++0t262m0c480p0k3q157gkg1509lhlqlym06x",
"XX12666d32ba1n1a0a200o0y0y0y2m3l3u0j5a0y500x432g8z1h1wgx1x//4514081i080y0b5d2b0z152r1r1n5p1za4lz9zXX",
"1e1uaq2y4j6l3c11++0t06061gcx0u1q3u7m503z8g5e1h5gg4301w971y3t080c100tijiv46jb5ajt0v1n1c1c3a4v6da212  ",
"1eaj676e331z6p061o0t062k185759++38140u188h2g1hfv40gf5e1n2k3l0c48hx4aik3t0k9f6k0607091g09179jlr5o0q  ",
"XX0q68aw4rbb6q++4x0z4y090v4y2ndg0l7wec181c7n6c8t2c1h150t3khbhhhq9a0e//1o0k9l3y0z07++++0a3a8q1ta10w  ",
"1s0s2t6f2w2f31111f0z071g1f58d4//7w0n0nel22f7fi1v3xgg++gy0p5i5i0p1i1j4a2j480b560z2n1q++a56b9bls2524  ",
"  0i0qaxb52x1z11112207073q58//3b0u0ued08084xfj186o3v0o5h0c0c1k2bhy0v0u3t0k0b0c2o061f077s3hli47360i  ",
"  0r0i4n6fbc3dbq1f06++1f1d070u0n1a++ee0j08811x0n4ugh0j0g3u0ehi1ihzi8293z0k0b491d3g7i3hktl9lj2553XX  ",
"0r0r||0w34bdbk4v3g1o370a1517180u1q2n2o552m061f093e0vgq1645hc9d14i0i9579p0p0p9mju999k51ku7x230q0rXX  ",
"0r||..0i354tbl4r3h71151v3r7gd51a1181062m2606110v1809080o0e//////++0x391a2b3y9vjv8i5ta2473i360sXX    ",
"||||..  0s19bmbrbx13ca2lcn1w1y4w0l0a1a4y3z110a1a21++45100e++++++060t//11067j9w8f8oa11u520s3m5q      ",
"0d        be2tbsbyc3cb3pco6j1ydh0l3v1y0v3o115f8u593o380o1j07090v3s069p8x44jc3wjw472p0s0d0mlka70f    ",
"0f      4b0r2i194ic46m514r3d6n0l0l0u09em++//4w5f0u++14141q09155p0a0x8h1h2l3w1m9y9z0i5q      0d      ",
"0f0fXXXX      0s3ic5cc1tcp3p4q7o1r1r1n1c1a++37++091ggr0t0x15431r6qia2c4jj3jdjm5o52..  0m            ",
"0fak  0d2v0d  2e6v1223chcq2w7k2f3d4l3x1r09071g093c093s++1v8z432g5n2lil4ej4je4t3i9q0mXXXXXXXX0m      ",
"0f0m0d  2s2s  ||6w2i19ci4ocy1tdi1m4m4f32ey8j8j8v6l313ggz5g2chjhr9j64im6uj5jfjn603m0d    XX          ",
"........0f0f      0r1e527925235x7x3n87enez2yfk7rg59292h013hd5nhs9kibin344njg0sjx4d6w  ..    a70f    ",
"5w5w....0f0f      0mXXXX0i240q1225282u4tf0f88o69g6gi5r6g2yhe9ehti1ic257p3m0d    0r||  ......0f0f    ",
"                        XX0r0i0s240w0w0q2p2p12194z4c728p475l74hu1u0q240iXX                          ",
"                                                  XX1e0q5j5j192p0i                                  "
};