/* XPM */
static char *picture[] = {
"50 50 861 2 ",
"   c None",
"XX c #2051B0",
"++ c #2A5CBB",
".. c #285DBB",
"|| c #020107",
"// c #010206",
"06 c #020204",
"07 c #1F51B2",
"08 c #3269C6",
"09 c #010207",
"0a c #2050B2",
"0b c #2A5CBD",
"0c c #030106",
"0d c #1541A0",
"0e c #3368C6",
"0f c #1442A0",
"0g c #01010B",
"0h c #1F51B0",
"0i c #1243A2",
"0j c #030207",
"0k c #000110",
"0l c #2250B0",
"0m c #285DBD",
"0n c #275EBB",
"0o c #3169C6",
"0p c #2250AE",
"0q c #3D75D2",
"0r c #010109",
"0s c #16419D",
"0t c #1442A2",
"0u c #3E74D4",
"0v c #275DBD",
"0w c #2A5DB9",
"0x c #00010D",
"0y c #000117",
"0z c #000115",
"10 c #2051AE",
"11 c #3B76D4",
"12 c #000114",
"13 c #16419F",
"14 c #265EBB",
"15 c #3269C4",
"16 c #2B5CB9",
"17 c #3B76D2",
"18 c #010005",
"19 c #1F4FB1",
"1a c #2B5CBB",
"1b c #3D75D4",
"1c c #1D52B0",
"1d c #3169C8",
"1e c #030007",
"1f c #010006",
"1g c #3E75D2",
"1h c #1F52AE",
"1i c #020B2C",
"1j c #103993",
"1k c #2C5DBC",
"1l c #000112",
"1m c #1D52B2",
"1n c #3A77D4",
"1o c #4588DF",
"1p c #3F74D2",
"1q c #15429D",
"1r c #4688DF",
"1s c #030104",
"1t c #00011B",
"1u c #173887",
"1v c #113990",
"1w c #3368C8",
"1x c #00020B",
"1y c #15429F",
"1z c #265EBD",
"20 c #000212",
"21 c #4A85DF",
"22 c #010B2E",
"23 c #0C2462",
"24 c #16429B",
"25 c #010204",
"26 c #020307",
"27 c #1142A1",
"28 c #214FAF",
"29 c #1543A1",
"2a c #2250B2",
"2b c #214AA2",
"2c c #0B2466",
"2d c #010C2C",
"2e c #295BBC",
"2f c #3368C4",
"2g c #103995",
"2h c #18419B",
"2i c #3B75D6",
"2j c #2251AD",
"2k c #1243A0",
"2l c #4986E1",
"2m c #030208",
"2n c #00010E",
"2o c #285DB9",
"2p c #275CBC",
"2q c #103991",
"2r c #091337",
"2s c #000119",
"2t c #000015",
"2u c #020B2A",
"2v c #000B31",
"2w c #133890",
"2x c #15388A",
"2y c #194199",
"2z c #14398A",
"30 c #1344A3",
"31 c #1D4BA9",
"32 c #2151B3",
"33 c #2B5DBE",
"34 c #3669C5",
"35 c #1742A0",
"36 c #00000C",
"37 c #2052B1",
"38 c #1F50AF",
"39 c #1341A1",
"3a c #1B4CA9",
"3b c #1541A2",
"3c c #13419F",
"3d c #2B5DBC",
"3e c #01010D",
"3f c #2152B1",
"3g c #0C2366",
"3h c #1E4BA6",
"3i c #4787E1",
"3j c #2350AD",
"3k c #2052B3",
"3l c #0E3995",
"3m c #040B28",
"3n c #000B37",
"3o c #2F6AC6",
"3p c #3568C4",
"3q c #245FBB",
"3r c #000C2F",
"3s c #1E53B3",
"3t c #133891",
"3u c #031249",
"3v c #00001B",
"3w c #030305",
"3x c #020109",
"3y c #051344",
"3z c #0C2464",
"40 c #0D1F51",
"41 c #101E4B",
"42 c #203D7F",
"43 c #14419E",
"44 c #10307B",
"45 c #264A94",
"46 c #113991",
"47 c #15409C",
"48 c #15409E",
"49 c #234FAE",
"4a c #2D5BB9",
"4b c #000B33",
"4c c #142F72",
"4d c #1A3881",
"4e c #020A2F",
"4f c #031344",
"4g c #285FBC",
"4h c #3469C7",
"4i c #0F2362",
"4j c #153889",
"4k c #0D3894",
"4l c #1E4BA8",
"4m c #14409F",
"4n c #1641A0",
"4o c #1B4194",
"4p c #000209",
"4q c #508BE9",
"4r c #1C3E86",
"4s c #508BE7",
"4t c #4A85E1",
"4u c #11429E",
"4v c #295BBA",
"4w c #0C3A98",
"4x c #02020C",
"4y c #3567C6",
"4z c #12439F",
"50 c #1144A0",
"51 c #16306D",
"52 c #275EB9",
"53 c #3E75D0",
"54 c #2D5CB6",
"55 c #4986DF",
"56 c #3B76D0",
"57 c #4173D2",
"58 c #123078",
"59 c #4C8EE5",
"5a c #3F75D5",
"5b c #14439F",
"5c c #224A9F",
"5d c #040A2A",
"5e c #3268C8",
"5f c #315AB2",
"5g c #2B5BBD",
"5h c #010A31",
"5i c #295EBE",
"5j c #3667C4",
"5k c #1E50B1",
"5l c #3D75D6",
"5m c #0E3A93",
"5n c #000C33",
"5o c #010103",
"5p c #14388E",
"5q c #13398E",
"5r c #000B39",
"5s c #000C38",
"5t c #0E245D",
"5u c #192E6D",
"5v c #0D1E56",
"5w c #000A32",
"5x c #000B35",
"5y c #031440",
"5z c #1A3785",
"60 c #132F79",
"61 c #142F76",
"62 c #0E245E",
"63 c #000211",
"64 c #0F307F",
"65 c #00020E",
"66 c #0D1F4F",
"67 c #14316D",
"68 c #2351B1",
"69 c #19429A",
"6a c #1D3D86",
"6b c #091F59",
"6c c #254B96",
"6d c #000008",
"6e c #234FA8",
"6f c #2450B1",
"6g c #2D5CB4",
"6h c #1D418F",
"6i c #00000A",
"6j c #0B1E56",
"6k c #1242A4",
"6l c #0E1E4F",
"6m c #265DBA",
"6n c #000012",
"6o c #0E2366",
"6p c #183787",
"6q c #275CBA",
"6r c #061242",
"6s c #09236D",
"6t c #000B38",
"6u c #245FBD",
"6v c #336AC5",
"6w c #1D52AE",
"6x c #183881",
"6y c #143989",
"6z c #3369C3",
"70 c #3467C2",
"71 c #2350AB",
"72 c #244A9D",
"73 c #00010A",
"74 c #06133F",
"75 c #0F2561",
"76 c #3C74D1",
"77 c #3F76D3",
"78 c #3469C5",
"79 c #061443",
"7a c #4986E3",
"7b c #4D8CE9",
"7c c #1D4CA8",
"7d c #05143D",
"7e c #142F74",
"7f c #3B78D3",
"7g c #0D3A97",
"7h c #4C85DF",
"7i c #1143A2",
"7j c #3967BD",
"7k c #2A5BBA",
"7l c #306BC7",
"7m c #2F6AC4",
"7n c #3267C5",
"7o c #1D3E85",
"7p c #050C29",
"7q c #4D84E1",
"7r c #4686E0",
"7s c #4586E0",
"7t c #2A5ABC",
"7u c #0F235E",
"7v c #172F6F",
"7w c #3D74D1",
"7x c #4787DF",
"7y c #000C36",
"7z c #000C37",
"80 c #316AC4",
"81 c #4689E0",
"82 c #000C48",
"83 c #4273CF",
"84 c #2C5AB8",
"85 c #274FA4",
"86 c #06133D",
"87 c #3A77D2",
"88 c #284B8F",
"89 c #295EBC",
"8a c #2B5CB8",
"8b c #264A96",
"8c c #000A37",
"8d c #2F5CB1",
"8e c #3878D2",
"8f c #2E5CB2",
"8g c #1A4CAB",
"8h c #336AC7",
"8i c #113A8C",
"8j c #00011D",
"8k c #1042A3",
"8l c #3C74D3",
"8m c #2051AD",
"8n c #4F8CE9",
"8o c #3167C7",
"8p c #2E5CBA",
"8q c #244FAB",
"8r c #233D7A",
"8s c #3C77D5",
"8t c #3269C3",
"8u c #3168C5",
"8v c #10388D",
"8w c #184199",
"8x c #000C3A",
"8y c #265CBC",
"8z c #2E69C7",
"90 c #3F74D4",
"91 c #1F4BA4",
"92 c #4C84E1",
"93 c #2251AB",
"94 c #133076",
"95 c #1D4091",
"96 c #050A27",
"97 c #00030C",
"98 c #1643A0",
"99 c #224B9D",
"9a c #10235B",
"9b c #0D3A95",
"9c c #0E3997",
"9d c #000016",
"9e c #103A90",
"9f c #040A2C",
"9g c #14378B",
"9h c #2A5BB8",
"9i c #183883",
"9j c #1D4CA6",
"9k c #315BAD",
"9l c #000118",
"9m c #223E7D",
"9n c #12225D",
"9o c #000019",
"9p c #030B2F",
"9q c #000D42",
"9r c #00134D",
"9s c #02124D",
"9t c #000A3E",
"9u c #00093A",
"9v c #020933",
"9w c #00001E",
"9x c #050A2A",
"9y c #02020E",
"9z c #030D28",
"a0 c #000C2E",
"a1 c #152E6E",
"a2 c #162F71",
"a3 c #172E71",
"a4 c #0B1E59",
"a5 c #081138",
"a6 c #060B1E",
"a7 c #01000E",
"a8 c #0A2052",
"a9 c #233D76",
"aa c #1F3E7F",
"ab c #1C4191",
"ac c #1C4297",
"ad c #13398C",
"ae c #1D4092",
"af c #173073",
"ag c #000C34",
"ah c #040207",
"ai c #040926",
"aj c #021444",
"ak c #183169",
"al c #183980",
"am c #143A85",
"an c #214A9C",
"ao c #2E5BB6",
"ap c #113A94",
"aq c #15388C",
"ar c #143788",
"as c #082368",
"at c #1B2E66",
"au c #051340",
"av c #02020A",
"aw c #325BAD",
"ax c #315BB1",
"ay c #164299",
"az c #2451AC",
"b0 c #15419A",
"b1 c #143071",
"b2 c #0E1F53",
"b3 c #05123E",
"b4 c #030B22",
"b5 c #0A1E51",
"b6 c #244B98",
"b7 c #2250A8",
"b8 c #224FAC",
"b9 c #204BA7",
"ba c #2E5CB4",
"bb c #214B9D",
"bc c #122F75",
"bd c #0B2361",
"be c #071437",
"bf c #1B3981",
"bg c #1B3F93",
"bh c #214FB1",
"bi c #2450AF",
"bj c #2B5DB6",
"bk c #204CA3",
"bl c #224AA1",
"bm c #0C2053",
"bn c #000A2D",
"bo c #000216",
"bp c #000017",
"bq c #172F77",
"br c #1C4096",
"bs c #2550AE",
"bt c #14388C",
"bu c #123079",
"bv c #061E5C",
"bw c #03092D",
"bx c #071347",
"by c #1642A1",
"bz c #18306E",
"c0 c #000210",
"c1 c #0D3992",
"c2 c #0F3A98",
"c3 c #08318B",
"c4 c #3E74D6",
"c5 c #3E76D7",
"c6 c #1A3F98",
"c7 c #1C3C85",
"c8 c #000014",
"c9 c #0F225D",
"ca c #08246D",
"cb c #0D3081",
"cc c #204A9E",
"cd c #386AC3",
"ce c #1C51AF",
"cf c #2053AF",
"cg c #3D73D5",
"ch c #0F255E",
"ci c #0D1E52",
"cj c #092467",
"ck c #2D5DB2",
"cl c #3168C3",
"cm c #1F4BAA",
"cn c #1A4BA7",
"co c #1F3C7E",
"cp c #050B21",
"cq c #2E5BAE",
"cr c #3E75CF",
"cs c #2E5DB9",
"ct c #2049A1",
"cu c #20428C",
"cv c #0F245B",
"cw c #000018",
"cx c #193E8C",
"cy c #4474C9",
"cz c #3369C9",
"d0 c #295CB8",
"d1 c #254A9A",
"d2 c #03020A",
"d3 c #224D9C",
"d4 c #3F75CD",
"d5 c #1C52B2",
"d6 c #4687E3",
"d7 c #4B8CE8",
"d8 c #4F8BEB",
"d9 c #326BC5",
"da c #4D84DF",
"db c #21499E",
"dc c #203E84",
"dd c #0A1E50",
"de c #020C27",
"df c #050A20",
"dg c #061244",
"dh c #0F2360",
"di c #0F2F78",
"dj c #2D5DB1",
"dk c #4E8DEC",
"dl c #4C8DEB",
"dm c #4C8DE9",
"dn c #3976CF",
"do c #265FB9",
"dp c #2D5CB8",
"dq c #264FA7",
"dr c #3867BF",
"ds c #2A5DB8",
"dt c #1D4AA5",
"du c #1D418D",
"dv c #08236A",
"dw c #0D3280",
"dx c #3569BF",
"dy c #295EBA",
"dz c #4786E3",
"e0 c #4B8EE9",
"e1 c #498EE9",
"e2 c #4888E0",
"e3 c #0F307D",
"e4 c #0C307A",
"e5 c #113A8A",
"e6 c #2C5EB7",
"e7 c #0C3B97",
"e8 c #214B9F",
"e9 c #050A28",
"ea c #10245F",
"eb c #173889",
"ec c #0F398F",
"ed c #3268C0",
"ee c #3C77D1",
"ef c #2E6BC4",
"eg c #4689E2",
"eh c #4389DF",
"ei c #4688DE",
"ej c #3568C1",
"ek c #325AAF",
"el c #07256D",
"em c #000B41",
"en c #000B3C",
"eo c #000D43",
"ep c #052669",
"eq c #2C5CB1",
"er c #0E3B96",
"es c #1442A4",
"et c #1C4192",
"eu c #000125",
"ev c #183885",
"ew c #143A8F",
"ex c #346AC4",
"ey c #1543A5",
"ez c #3E76D3",
"f0 c #3878D0",
"f1 c #498FE5",
"f2 c #3369BF",
"f3 c #254C99",
"f4 c #001353",
"f5 c #000127",
"f6 c #000D3F",
"f7 c #1D4084",
"f8 c #5988E0",
"f9 c #2351AF",
"fa c #1E50AF",
"fb c #294EA6",
"fc c #122456",
"fd c #1F3777",
"fe c #3677D1",
"ff c #4789E0",
"fg c #4D85D8",
"fh c #244A93",
"fi c #00022B",
"fj c #000D38",
"fk c #1C3F7F",
"fl c #3966B7",
"fm c #1F4AA6",
"fn c #233C7C",
"fo c #00144D",
"fp c #2C6CC6",
"fq c #3779D0",
"fr c #4B8DE4",
"fs c #4D86D7",
"ft c #091F58",
"fu c #000C3C",
"fv c #243D73",
"fw c #3C68B3",
"fx c #4174CD",
"fy c #1F4CA9",
"fz c #000B2E",
"g0 c #0A2365",
"g1 c #1E4CAC",
"g2 c #2E6BC6",
"g3 c #4D8DE7",
"g4 c #3669BC",
"g5 c #133171",
"g6 c #000B45",
"g7 c #5184D7",
"g8 c #3D76D0",
"g9 c #2F5CB7",
"ga c #254997",
"gb c #042061",
"gc c #4D85E4",
"gd c #4D8EE8",
"ge c #4487DE",
"gf c #4F8CE7",
"gg c #1A4CA1",
"gh c #00155B",
"gi c #001557",
"gj c #00165D",
"gk c #2F5DAB",
"gl c #528BE4",
"gm c #042574",
"gn c #000B49",
"go c #00022D",
"gp c #040B25",
"gq c #001447",
"gr c #3A75D3",
"gs c #4687E1",
"gt c #1B4EA9",
"gu c #103A8E",
"gv c #1D4DA1",
"gw c #4E84DC",
"gx c #3A74D5",
"gy c #1244A3",
"gz c #093A99",
"h0 c #1F408D",
"h1 c #233D78",
"h2 c #021540",
"h3 c #000D30",
"h4 c #152F6C",
"h5 c #355AAA",
"h6 c #0D3B9B",
"h7 c #4885E0",
"h8 c #3068C5",
"h9 c #3D76CF",
"ha c #4F8CE5",
"hb c #3C76D7",
"hc c #213E78",
"hd c #06143B",
"he c #000D35",
"hf c #273E72",
"hg c #3267C7",
"hh c #1E50B3",
"hi c #3976D3",
"hj c #3069C3",
"hk c #3A77D0",
"hl c #1143A4",
"hm c #4E85E0",
"hn c #4B84DE",
"ho c #3F76D1",
"hp c #3768C5",
"hq c #2D5AB7",
"hr c #214BA1",
"hs c #273C73",
"ht c #001547",
"hu c #1F4FB3",
"hv c #245FB9",
"hw c #2D6AC5",
"hx c #4A87E2",
"hy c #4B86E2",
"hz c #1C53B0",
"i0 c #184DA9",
"i1 c #1F52AB",
"i2 c #0C3A92",
"i3 c #093188",
"i4 c #10388F",
"i5 c #365AA6",
"i6 c #192F68",
"i7 c #000C3E",
"i8 c #253D7B",
"i9 c #2B5BBF",
"ia c #3B78D5",
"ib c #3B78D1",
"ic c #2D6AC7",
"id c #093C97",
"ie c #3669C4",
"if c #1B4CA8",
"ig c #17439A",
"ih c #0C3182",
"ii c #012579",
"ij c #123A91",
"ik c #1F4BA2",
"il c #143987",
"im c #0E1F4D",
"in c #0D235C",
"io c #153985",
"ip c #2450A9",
"iq c #2C5CC0",
"ir c #0A3B97",
"is c #13429E",
"it c #0A3085",
"iu c #143A8D",
"iv c #103079",
"iw c #0E2052",
"ix c #1D3E83",
"iy c #184296",
"iz c #0A3B98",
"j0 c #16449C",
"j1 c #1B4196",
"j2 c #1B3781",
"j3 c #0D1E54",
"j4 c #00011E",
"j5 c #1B4291",
"j6 c #2351B3",
"j7 c #093C98",
"j8 c #0C2367",
"j9 c #0A1F54",
"ja c #193982",
"jb c #326AC7",
"jc c #2F6AC8",
"jd c #528AE9",
"je c #0D1D58",
"jf c #020A31",
"jg c #2C5DBA",
"jh c #3466C5",
"ji c #4A85E3",
"jj c #528AE7",
"jk c #245EBF",
"jl c #3568C3",
"jm c #2650A4",
"jn c #00021B",
"jo c #0D204B",
"jp c #4075D5",
"jq c #326AC9",
"jr c #2B5EBA",
"js c #284A92",
"jt c #243E7B",
"ju c #0D1E4C",
"jv c #000207",
"jw c #020D2B",
"jx c #15398D",
"jy c #4A87E0",
"jz c #4987DE",
"k0 c #285EB6",
"k1 c #1A4CA5",
"k2 c #2A5BB7",
"k3 c #1543A3",
"k4 c #194399",
"k5 c #071F5D",
"k6 c #0D1F4D",
"k7 c #285FB9",
"k8 c #0D399A",
"k9 c #00267D",
"ka c #18409F",
"kb c #0F3796",
"kc c #285CBF",
"kd c #2F5BB2",
"ke c #0D317F",
"kf c #020B28",
"kg c #00000D",
"kh c #021246",
"ki c #162E74",
"kj c #17378A",
"kk c #1D4AA7",
"kl c #11449F",
"km c #00134B",
"kn c #000215",
"ko c #142E78",
"kp c #224BA7",
"kq c #1E4AA9",
"kr c #224EAF",
"ks c #2E5BB8",
"kt c #1343A5",
"ku c #3567C8",
"kv c #1C4DAC",
"kw c #4472D0",
"kx c #244A9F",
"ky c #092469",
"kz c #000B3B",
"l0 c #0E2460",
"l1 c #3668C7",
"l2 c #1E49A7",
"l3 c #3867C3",
"l4 c #254A9B",
"l5 c #0B2464",
"l6 c #000930",
"l7 c #031442",
"l8 c #2251A9",
"l9 c #4075D3",
"la c #12378F",
"lb c #194198",
"lc c #3667C6",
"ld c #1E4CA4",
"le c #274B99",
"lf c #00144E",
"lg c #001446",
"lh c #1E3D7E",
"li c #2150AA",
"lj c #022576",
"lk c #0D3990",
"ll c #1C4AAA",
"lm c #224B9B",
"ln c #2B4A8D",
"lo c #011547",
"lp c #000A30",
"lq c #091E57",
"lr c #3968C4",
"ls c #022579",
"lt c #082571",
"lu c #122F7B",
"lv c #28499A",
"lw c #07256E",
"lx c #052675",
"ly c #1C4AA8",
"lz c #284A91",
"m0 c #263D73",
"m1 c #040A24",
"m2 c #0D235D",
"m3 c #294A91",
"m4 c #3968BA",
"m5 c #2650A2",
"m6 c #133889",
"m7 c #052677",
"m8 c #072472",
"m9 c #001452",
"ma c #2152AF",
"mb c #1F4AA8",
"mc c #244FAD",
"md c #1F3D83",
"me c #173068",
"mf c #102044",
"mg c #0B1F51",
"mh c #14306F",
"mi c #214081",
"mj c #0B2562",
"mk c #0B2268",
"ml c #0B236D",
"mm c #132F78",
"mn c #000A3A",
"mo c #000D40",
"mp c #2D498A",
"mq c #0B3184",
"mr c #143079",
"ms c #172F6D",
"mt c #000C35",
"mu c #0B2467",
"mv c #061340",
"mw c #00001F",
"mx c #173885",
"my c #0A1E53",
"mz c #030C2B",
"n0 c #000105",
"n1 c #000111",
"n2 c #07133D",
"n3 c #101D51",
"n4 c #10235D",
"n5 c #060B21",
"n6 c #2F4888",
"n7 c #20408D",
"n8 c #18398A",
"n9 c #122E78",
"na c #0A1F58",
"nb c #101E4D",
"nc c #00000F",
"nd c #00001D",
"ne c #111E4B",
"nf c #07123F",
"ng c #000C31",
"nh c #283C6E",
"ni c #18306C",
"nj c #0B2363",
"nk c #1B2F64",
"nl c #05143F",
"nm c #000011",
"nn c #020005",
"no c #040A20",
"np c #0C1330",
"nq c #060B28",
"nr c #000214",
"ns c #020C25",
"nt c #020C2F",
"nu c #010A2B",
"nv c #00030F",
"nw c #000013",
"    1e1e1e1e    063w18      0cd21l2s7peu7z2v0z3e0x0yhehti78x5hj43e  5o25  18    0c0c        2m1f    ",
"    ||1e1e0c      18    09092m3edf1i5w41fc413m0y1th3hf8ri8iniw5n1t1l97jv        0c0c        ||||    ",
"          0606  0c1e||094p734x124e3yea7vfdfo8c3ngqh48b4o2zioix67j97djn650r    //180j      0j0c0c    ",
"    ////060606  1e1f3x0x20cpcw1idg4i6sev4458g0gb7oh58q0f1yipiyj5ja51jojw9dkg4x090j18  0j    0c0c    ",
"    ////0606    ||3x36c82274793udhdvebew1v2b8d8f8f540l2aXX0p1y0s2y954c9a6r9f120r1f0j0606    0j      ",
"        0606  09366n3v2rci753g7edidwec1q2j++5agc8h1c0ahu5g0a0aj60t2h2x606okh1i0z0k0g//5o0j          ",
"0c0c1s1s0c  ||0xbpbw6rc9cj4rcxd3djdxedex52141d1b0o0n076ki9iq5g0aXX1y8wjx6pki9a3n5d0z1x260909n026    ",
"0c0c1s0c||0r0x0z4ebx4ica6ycqcyd47h217q7w7q1g1b0q0q0807320a195g0bXXjg0p0s3tkjkol0l7220z360r//26      ",
"  0j  ||av0k2s2r3u6o6scbckcr214s170n3k0i0i10++..1g0e070a7i++0b3s++3d1a310s2y9g9i8rlglpm10x    06    ",
"0j    0r65b44b6jbq6p4jcc6z177a1n1d0m0aey0t0f27501h784y2e++....904hjh0bXX0fkkkp5c6clhlq7y0y0g2m0c    ",
"0j  060g0y2v6b4dbr1jc1cdcl76czd5..++2e0aXX0t290f0f100e0v0e....0e0e++073k++1h7c9jl89k4rm23r0z0g      ",
"    1f631ib5bf2wbs0l102f140o4y0i7i++0b..++XX3c4m4l29hg5a8u6m08083s2p0n081g0e3p16..168dm3mg2u0k||    ",
"  3xa7ai6642bg352838++..1477XX4w3a0w..08082og10d133c070u086v0n0v5l112ljy21151a0i0a++9h9kmhmtn1      ",
"180g2t2v67b66e0tXXXX0hce14770w2k0wdy0oez8052380d4mh6hh0u08808u1d2i1n7xjzk7kl0i0t19331w7jmi3n20      ",
"0j0x1taj45b7290tXX0i39cf144s0o0n0n0oee561708100fXX8k5e5a4g141d8s1nji7hk01q4k0d30072p1gm49m5n0k06    ",
"||0k22akaw++0l0lXX100d16082l2l7f177lef557f0o2o8g1m0v0u1d080n0v1b111753k11j1jkqXX0m1p4ym5mj5n20      ",
"0g0y5y42ax0hbh2a680f0d0f0m117bd61n1n7rf03i87140n1d8l0q0q08..070m920o2o4u3l2gkr0a0m1plrm63z3n9d0g||0c",
"0k9za8alay270a2a28byc2431k0v7bd7dkdz7s1rfefpg23ogr170o0o0n1c070b760q1p2k13353b191w342hm73g3y7p1l0g||",
"9oa0a9am243032192a0dc32hcm0h1bd8dle0eg1o81fq8e7r3ih73o140n5i5k3sjb0qjp0i0d0d27l1l9li5pm8mk9nn2nd0k1x",
"9p5saaanaz280a6k0a0t4k0s433f0m2idme1ehf11o1o1rgdgs8e3o141z8y0m0m140q0u0bk80d165j2j5mls5zml4in32rno0k",
"5r5tabao0p0i070m1w0m07XX2k0i1m1d3i1o1o1o1r1r81ge1o7s1n8sia8z5i0m3q178l..0f13ksl21j3t5p2x4dmun4nenp0z",
"9qa1ac0p6827330u0u0uc4cg0e1c1c14dne2ei1r1r59591r593ihi117a1n5e0v3q4tjq0e1q2g482g3t5p9g1umm3z5vnfnq12",
"9ra2ad430d0p0e086m08c52i4q170qd9do7m557xfffrg3gf17h80o3o2l2l1d1z3q4t08k29e2w1313laljlt613g6j8c5d0k4p",
"9sa3aeap1331++....4g1b6u114t0o522o6zejf2fgfsg4gggt6w157mib871b1zjc0q0e93k91v3513lb6ylu3g9nmv9f2t9725",
"3u5u5z2w1jb81k070m0v1z0o080n..++1h54ekf3fh88g5ghgu8m15563q0o0u0v8zjjjr9b5m0s0l0p0s5clv2cmnmwn50k0r  ",
"9ta460aq46b9280a0b0m0n150n1c300fdp1velf482ftg6gi8i70hjhv7l1b8o0v111g4u9b130d0l1a5b691u2c6t2u8j0z3609",
"9u5v612x1v47bi0t0h6q156v08..0i7g24e3em7yfifu82gjgvh9hkhwic2i2i1d1b895b9cka4n0a7t8p9elwm9mo8x5rngnr73",
"9v3yafar1v0s490t374h2f150o1g3d2jdq6xenf5fjfv88gkgwha55hx111b5l0u4h1h9848kb4nkt0blclklx94mp9mn6nhnsnv",
"9w5w231u46486f322e..346w4g0q4s537je4eof6fkfwg7gl4q8n8nhy1g1p5i2e0i0f1y472g130l071m34545f7295n7ni2dnw",
"3va55u642y490l190b0h3a102f0o17dadre5epf7flfxg811gxhb6uhz8g0i5k07XX0f1y9c3l13381c0u1g1wma2h5qn8njnt0z",
"9x5x3z1ub01k0a070aXX312j7078d00wdse6eqf8830w101h1m8ohl300i0i072p++0h103c13980w150q15..9j5q64n97unu2t",
"3v2r6244694a++070a0l494lcn4u4z3a1c7n1p570i0p4w29++0m0h1a0lXX57......++k30d0f0w15152o0w1qmq9i7enk3m6n",
"0g2s40as2zba34..0h0t0d0d0f2k501c0e2f2j1q3l4k0dXX1c080u0e165j3p0e08085kXX39XX4v..++XXly0s2w1u4c660y0r",
"||1241236abbbj..0hXX3b3b3c10++0e0e1her1j1j0s3b0a6q080q081hiriz1h087w1m8k37++ku0bXX396fmb3tmx23nl20  ",
"9y0zagatb16c6g0e0h370a193d3d1w..2ke77g47fmfy0l0agy1p53i0id4z4zj78h0q0v3s..4v0b0b0t0t2amc5q58na2v0k  ",
"0xa62uau6b6abk++++0h1932++4v++0h100f0pf98410XX1k273phm8tie835j3p0q111z5e0e..++XX0lll0l0s4j2cnb3m2n  ",
"0r0x121ib2bcbl4a1k1aXX0p0p0f0f39XX0h++++0e0e0h3f0i0w21212f160h1w4q111z0v1m0b9h3a0h160p1vmrmy1inm0r  ",
"09090g0yb3bd6h2b0s1y0d4m0d4w0d0l1a330b2p0n0n++1kgz0w2156ifisXX905ljk0v2pkc0bkv100w8m916hms860y0g||  ",
"    ||0k1i404c1ubt2y2g4n0fXX0lXX7k1a7t3308..3k190i..hn8tig2q0d7k0u8y073k071m07++0w6g99md40mznc||    ",
"0606ah0g0ybebm2cbu2xc6350f1a1k0p0p31es19..892e0a077nhoi18vit3lXX0u0v0bXX1616kwl3ldlmlzme3r0z4x      ",
"////18||0g12bn6lbv4d2z2416++7c3h3h4l0d0t0h0b0b070b57hpi2ih2z5m5011110m84kd85kxl4lelnm0mf124p||0c    ",
"////    1s6dbo2d4fbzc74o71cs3h0sdt3j0d0lXX0b0b07071ahq2qiiiuj00wjd928ak4ke58kyl5lflo3r9l1x06  nn    ",
"    ////  ||6i12224f236x72ct240s3j0f283f370e0b07388p2hi3ij2b0p++1pjl99442ckmkzl62u9l200x09  ||2m    ",
"    ////  0j0j0g0y2d6tchcocud1db2b713ffa++8ag91q5b3j46i48w3h294a93jmjsk56l5h962t2n0g0r||    ||1f    ",
"    ////250606  1xc00y2d5ycv51dcdue83jXXXX6egagm2q8q2q2bik241q914o4rjtk6kfkn2n0g09090909    2m1f    ",
"    ////26251s06  091x1l1t227ddd517oetfb858b23gnh05c2q5f8v8ij14j9475ju2d200909  06  0909            ",
"06    ||09//1s0618//096d3e630zde4b4f7u7vfn5t5xgoh145hr5filivj2j8je743m121x//////    1f1f  0j180j    ",
"3w  0j||09    06  //    0c||0r2n0ye94e4b86fz2sgph2hc45i54262j379jf961l6i//25//26    ||||    3w5o    ",
"                            ||0r0g2n0k1l1l0k0x0k8jhdhsi6im3r1t120k0x0r||                            ",
"                                              0g125d7z5s5h1t0x                                      "
};