/* XPM */
static char *picture[] = {
"50 50 899 2 ",
"   c None",
"XX c #02020C",
"++ c #00030A",
".. c #2D63C3",
"|| c #020308",
"// c #3B73D0",
"06 c #2E63C3",
"07 c #2050B2",
"08 c #4885E0",
"09 c #2759B8",
"0a c #03020A",
"0b c #000211",
"0c c #00030C",
"0d c #2250B2",
"0e c #2D64C1",
"0f c #3974D0",
"0g c #00020F",
"0h c #010109",
"0i c #00020E",
"0j c #2051B0",
"0k c #123E9D",
"0l c #000215",
"0m c #2050B4",
"0n c #03030B",
"0o c #1F51B2",
"0p c #1A4BAA",
"0q c #00021C",
"0r c #1D49A8",
"0s c #1F51B4",
"0t c #3875D0",
"0u c #1D52B2",
"0v c #2C64C3",
"0w c #000218",
"0x c #113F9F",
"0y c #4984E0",
"0z c #00021A",
"10 c #2E63C1",
"11 c #3B73D2",
"12 c #1C4AA8",
"13 c #0B2057",
"14 c #030208",
"15 c #03030D",
"16 c #123E9F",
"17 c #2859B8",
"18 c #2051AE",
"19 c #2759BA",
"1a c #194BAA",
"1b c #3C73D0",
"1c c #4686E0",
"1d c #255ABA",
"1e c #000213",
"1f c #2250AE",
"1g c #3C72D2",
"1h c #255AB8",
"1i c #1A4BA8",
"1j c #00021F",
"1k c #2A59B3",
"1l c #2858BA",
"1m c #3063BF",
"1n c #1C4AAA",
"1o c #4885DE",
"1p c #3974D2",
"1q c #2E62C5",
"1r c #4984E2",
"1s c #001046",
"1t c #03010C",
"1u c #123384",
"1v c #000209",
"1w c #01040B",
"1x c #2250B0",
"1y c #01010B",
"1z c #275AB6",
"20 c #3974CE",
"21 c #275AB5",
"22 c #1D4AA7",
"23 c #4984DE",
"24 c #1A4AAC",
"25 c #1F51B0",
"26 c #3B74CE",
"27 c #000326",
"28 c #001048",
"29 c #142C6A",
"2a c #03103A",
"2b c #163D98",
"2c c #041134",
"2d c #153E9A",
"2e c #2151B3",
"2f c #183D95",
"2g c #113F9D",
"2h c #113FA1",
"2i c #00031A",
"2j c #3C73CE",
"2k c #3A75D1",
"2l c #2D63C5",
"2m c #4686DE",
"2n c #2E64C4",
"2o c #00113F",
"2p c #041036",
"2q c #00030F",
"2r c #000216",
"2s c #03103C",
"2t c #04030B",
"2u c #02020E",
"2v c #00010D",
"2w c #000225",
"2x c #11204B",
"2y c #234FB0",
"2z c #000117",
"30 c #00031E",
"31 c #1F50AF",
"32 c #1E3F8C",
"33 c #061033",
"34 c #0F3387",
"35 c #224FB4",
"36 c #103384",
"37 c #1C4AAC",
"38 c #061034",
"39 c #3062C3",
"3a c #153E98",
"3b c #3875CE",
"3c c #02103D",
"3d c #3D72D0",
"3e c #4B83E0",
"3f c #2C62C2",
"3g c #1C4BA7",
"3h c #3163C2",
"3i c #1F52AE",
"3j c #245ABA",
"3k c #1D52B0",
"3l c #2A59B5",
"3m c #001146",
"3n c #001041",
"3o c #2052B3",
"3p c #3062C1",
"3q c #2A65C3",
"3r c #2F64C4",
"3s c #07102F",
"3t c #010207",
"3u c #00031F",
"3v c #142C6C",
"3w c #0A205C",
"3x c #001143",
"3y c #182B63",
"3z c #183D96",
"40 c #163D9A",
"41 c #153E96",
"42 c #123D9B",
"43 c #234FAE",
"44 c #123F9C",
"45 c #133E9C",
"46 c #2251AD",
"47 c #15337C",
"48 c #0E2052",
"49 c #133D9F",
"4a c #3062C5",
"4b c #0C348C",
"4c c #0C338E",
"4d c #000313",
"4e c #245BB8",
"4f c #2459B9",
"4g c #2759BC",
"4h c #0F409F",
"4i c #0A205A",
"4j c #4886DD",
"4k c #2A65C1",
"4l c #2C64C5",
"4m c #4885E2",
"4n c #1E49A5",
"4o c #5F9DF4",
"4p c #0F3485",
"4q c #000110",
"4r c #1A4CAB",
"4s c #265BB9",
"4t c #4072CB",
"4u c #3774CF",
"4v c #3D72D2",
"4w c #02113C",
"4x c #1B4091",
"4y c #2D65C4",
"4z c #3D72CE",
"50 c #162B6A",
"51 c #3C73CD",
"52 c #4B84DD",
"53 c #102C75",
"54 c #102D71",
"55 c #08205E",
"56 c #092E7F",
"57 c #2E64C6",
"58 c #021138",
"59 c #3C72D4",
"5a c #133E9A",
"5b c #2C64C1",
"5c c #213A7C",
"5d c #0B2059",
"5e c #00011B",
"5f c #3162C1",
"5g c #3162BE",
"5h c #00021E",
"5i c #001044",
"5j c #001043",
"5k c #041038",
"5l c #000114",
"5m c #162C65",
"5n c #1E3F8E",
"5o c #1E3F90",
"5p c #0E1F53",
"5q c #000116",
"5r c #000323",
"5s c #132C6E",
"5t c #3158A7",
"5u c #0E338C",
"5v c #103387",
"5w c #0E2050",
"5x c #000314",
"5y c #00113D",
"5z c #1F4BA4",
"60 c #2450B1",
"61 c #244FAE",
"62 c #1D3C7F",
"63 c #0F204B",
"64 c #3256A2",
"65 c #153D9C",
"66 c #2151B5",
"67 c #1E4AA3",
"68 c #0A1F56",
"69 c #133E9D",
"6a c #123EA1",
"6b c #113D9C",
"6c c #2148A3",
"6d c #103385",
"6e c #234FB2",
"6f c #1A3E92",
"6g c #1D4AA5",
"6h c #113D9E",
"6i c #1C3F91",
"6j c #133282",
"6k c #1B4AA6",
"6l c #2758B4",
"6m c #143D99",
"6n c #193D91",
"6o c #173277",
"6p c #02113A",
"6q c #2659B4",
"6r c #2858BC",
"6s c #1C408E",
"6t c #00030E",
"6u c #123382",
"6v c #3D74D1",
"6w c #2C63C0",
"6x c #1F4FB1",
"6y c #1B49A9",
"6z c #2049A1",
"70 c #051235",
"71 c #031033",
"72 c #1B3C83",
"73 c #2A58AD",
"74 c #2B63C0",
"75 c #184AA9",
"76 c #21499E",
"77 c #0C2052",
"78 c #0F2151",
"79 c #4986E1",
"7a c #255AB6",
"7b c #265BB7",
"7c c #000316",
"7d c #3E73CF",
"7e c #3B72CF",
"7f c #3161C3",
"7g c #1E3F86",
"7h c #4174C7",
"7i c #2D62BE",
"7j c #2E65C2",
"7k c #3A75CF",
"7l c #3C75CF",
"7m c #2350AD",
"7n c #163E96",
"7o c #1240A0",
"7p c #3063BE",
"7q c #3162BF",
"7r c #2D62C2",
"7s c #194AA9",
"7t c #103480",
"7u c #3F73C9",
"7v c #2B58B3",
"7w c #0F3FA1",
"7x c #4172CE",
"7y c #0D2058",
"7z c #2658B9",
"80 c #00104A",
"81 c #00114A",
"82 c #00134F",
"83 c #3873CF",
"84 c #1B418C",
"85 c #2351A9",
"86 c #4985DD",
"87 c #001148",
"88 c #00114B",
"89 c #2B63C2",
"8a c #102D6F",
"8b c #001154",
"8c c #132C6F",
"8d c #184BA7",
"8e c #2459B5",
"8f c #2D64BF",
"8g c #245BAE",
"8h c #234FA8",
"8i c #204AA0",
"8j c #001258",
"8k c #3057A4",
"8l c #2C5AB2",
"8m c #3A61AE",
"8n c #2650A6",
"8o c #285AB9",
"8p c #4F82DB",
"8q c #172C65",
"8r c #00010E",
"8s c #2B5AB6",
"8t c #3B71D1",
"8u c #2859B6",
"8v c #0F409D",
"8w c #103E9E",
"8x c #3C74D3",
"8y c #1D49AA",
"8z c #23499E",
"90 c #3C74D1",
"91 c #000221",
"92 c #153C99",
"93 c #194BAC",
"94 c #4C82E2",
"95 c #2149A1",
"96 c #13337E",
"97 c #0A2059",
"98 c #1A3D8F",
"99 c #3E74CE",
"9a c #00021D",
"9b c #183E91",
"9c c #2B59B1",
"9d c #3463BD",
"9e c #031136",
"9f c #12347E",
"9g c #123285",
"9h c #031138",
"9i c #172C6B",
"9j c #1A3D91",
"9k c #15317B",
"9l c #00020B",
"9m c #000119",
"9n c #3362BC",
"9o c #122D72",
"9p c #0F2D75",
"9q c #0F1F50",
"9r c #0C2055",
"9s c #041133",
"9t c #04020D",
"9u c #02000B",
"9v c #00031C",
"9w c #001244",
"9x c #000122",
"9y c #00011A",
"9z c #000112",
"a0 c #031233",
"a1 c #0F2149",
"a2 c #0C2150",
"a3 c #162C66",
"a4 c #000F47",
"a5 c #031140",
"a6 c #080F2C",
"a7 c #00031B",
"a8 c #020111",
"a9 c #010214",
"aa c #000113",
"ab c #000324",
"ac c #1F3C76",
"ad c #1D3C7C",
"ae c #213F85",
"af c #1F3F8A",
"ag c #213E8C",
"ah c #17317B",
"ai c #193177",
"aj c #162B6C",
"ak c #172B66",
"al c #03030F",
"am c #09102C",
"an c #0F2D76",
"ao c #193D8B",
"ap c #2E58AA",
"aq c #20489F",
"ar c #173F97",
"as c #153D95",
"at c #173E9B",
"au c #0F338B",
"av c #143383",
"aw c #0F2B74",
"ax c #132D68",
"ay c #1F4087",
"az c #2A4FA0",
"b0 c #163E95",
"b1 c #2D59B2",
"b2 c #1D4BA3",
"b3 c #0C3390",
"b4 c #1E4AA9",
"b5 c #1F48A4",
"b6 c #184095",
"b7 c #0F3381",
"b8 c #223B74",
"b9 c #071135",
"ba c #223A76",
"bb c #264FA7",
"bc c #0E3EA0",
"bd c #1D4CA8",
"be c #1F4FB3",
"bf c #23499C",
"bg c #1E397C",
"bh c #041239",
"bi c #0E1E51",
"bj c #1E3C85",
"bk c #143F9E",
"bl c #3161C7",
"bm c #2A58B6",
"bn c #132C6C",
"bo c #02103F",
"bp c #15327E",
"bq c #163F9B",
"br c #133FA0",
"bs c #2B57B8",
"bt c #173275",
"bu c #10214F",
"bv c #071031",
"bw c #223E87",
"bx c #25489C",
"by c #153C97",
"bz c #2B59B9",
"c0 c #2757BB",
"c1 c #0E328A",
"c2 c #1F3A7F",
"c3 c #04113D",
"c4 c #001050",
"c5 c #2152B1",
"c6 c #1E4AAD",
"c7 c #183D98",
"c8 c #000312",
"c9 c #112B75",
"ca c #1D48A4",
"cb c #3C71CF",
"cc c #1C48A9",
"cd c #18419B",
"ce c #1E49A8",
"cf c #2049A3",
"cg c #03123D",
"ch c #111F4E",
"ci c #082060",
"cj c #133F98",
"ck c #184DA9",
"cl c #1C53B0",
"cm c #144099",
"cn c #2450AF",
"co c #20408B",
"cp c #000115",
"cq c #000410",
"cr c #4A85E1",
"cs c #4A85DF",
"ct c #295AB7",
"cu c #113E9B",
"cv c #2A57B4",
"cw c #3061BE",
"cx c #1B3C81",
"cy c #000321",
"cz c #1D3C7D",
"d0 c #2E59A8",
"d1 c #4C84DB",
"d2 c #2966C1",
"d3 c #4688DF",
"d4 c #4587DD",
"d5 c #5D9DF4",
"d6 c #4071CD",
"d7 c #1B4CAB",
"d8 c #244999",
"d9 c #203D79",
"da c #112D6C",
"db c #2D58A6",
"dc c #4D83DB",
"dd c #4B84DE",
"de c #2D65C2",
"df c #225AB9",
"dg c #235BBA",
"dh c #4787DE",
"di c #4787DF",
"dj c #629BF4",
"dk c #09358E",
"dl c #002275",
"dm c #163F91",
"dn c #3362BA",
"do c #2451AE",
"dp c #2D57AD",
"dq c #182D62",
"dr c #5E9CF3",
"ds c #3876CD",
"dt c #4C85DE",
"du c #3F71CA",
"dv c #0B348C",
"dw c #0A2D7F",
"dx c #2A58B0",
"dy c #2958B4",
"dz c #1F50AC",
"e0 c #2C58AF",
"e1 c #233C74",
"e2 c #07102D",
"e3 c #0D2153",
"e4 c #1D4084",
"e5 c #4074C7",
"e6 c #1C4BA5",
"e7 c #2F64C0",
"e8 c #4371C6",
"e9 c #34569E",
"ea c #172C61",
"eb c #0A1028",
"ec c #1A3C83",
"ed c #3F73C7",
"ee c #194AA7",
"ef c #235AB7",
"eg c #3A72CF",
"eh c #3873CD",
"ei c #3976D1",
"ej c #0B3490",
"ek c #1E50B1",
"el c #2E59A7",
"em c #0F2C6E",
"en c #000125",
"eo c #04103A",
"ep c #0A1F60",
"eq c #3A72D1",
"er c #123D99",
"es c #123F9A",
"et c #2D62C0",
"eu c #2659B5",
"ev c #274FA4",
"ew c #0E2C74",
"ex c #060F36",
"ey c #12204F",
"ez c #0E1F55",
"f0 c #091E5D",
"f1 c #122C76",
"f2 c #0E3384",
"f3 c #3E74CC",
"f4 c #3676D0",
"f5 c #194AA6",
"f6 c #183E93",
"f7 c #1B3E8F",
"f8 c #052F81",
"f9 c #2A5AAF",
"fa c #3F72CD",
"fb c #4073CE",
"fc c #1D4A9F",
"fd c #1A3C86",
"fe c #030F3F",
"ff c #000121",
"fg c #152A69",
"fh c #122D74",
"fi c #133284",
"fj c #4883DF",
"fk c #3976D3",
"fl c #2959AB",
"fm c #032265",
"fn c #002369",
"fo c #5184D3",
"fp c #2966C3",
"fq c #2C59AC",
"fr c #122E6F",
"fs c #0D1E52",
"ft c #182C61",
"fu c #3164B3",
"fv c #032262",
"fw c #001248",
"fx c #2D5A9E",
"fy c #649CE9",
"fz c #4C85DC",
"g0 c #4B84DB",
"g1 c #2E57A6",
"g2 c #12347B",
"g3 c #062263",
"g4 c #001144",
"g5 c #00032F",
"g6 c #021236",
"g7 c #000421",
"g8 c #00051D",
"g9 c #000318",
"ga c #2C63BE",
"gb c #2053AF",
"gc c #4A85E3",
"gd c #3C73C6",
"ge c #082F7C",
"gf c #00226A",
"gg c #0A2F76",
"gh c #2D59A2",
"gi c #669BE9",
"gj c #639BEE",
"gk c #2650A4",
"gl c #13337C",
"gm c #000236",
"gn c #00114F",
"go c #1F4083",
"gp c #325899",
"gq c #355794",
"gr c #142E61",
"gs c #001342",
"gt c #09102A",
"gu c #000124",
"gv c #1F3A7D",
"gw c #184193",
"gx c #3363B7",
"gy c #1E4B9E",
"gz c #4272C4",
"h0 c #669AED",
"h1 c #629CEE",
"h2 c #2D65BA",
"h3 c #0E419A",
"h4 c #00104B",
"h5 c #00124B",
"h6 c #3555A0",
"h7 c #2F55A8",
"h8 c #3761B7",
"h9 c #4473C5",
"ha c #4970BB",
"hb c #395690",
"hc c #001345",
"hd c #3463B5",
"he c #4787E1",
"hf c #2E63BF",
"hg c #3D73CD",
"hh c #3D74CE",
"hi c #629BF2",
"hj c #639DEF",
"hk c #08368C",
"hl c #15419A",
"hm c #092E7C",
"hn c #001254",
"ho c #0B2D74",
"hp c #2F57AC",
"hq c #3461BC",
"hr c #294FA2",
"hs c #06112F",
"ht c #1A3C84",
"hu c #4072C9",
"hv c #4A82E1",
"hw c #133F9E",
"hx c #11409C",
"hy c #204EB0",
"hz c #3676CE",
"i0 c #4784E1",
"i1 c #3875D2",
"i2 c #4986D9",
"i3 c #09358C",
"i4 c #1F48A2",
"i5 c #2658B7",
"i6 c #103F9B",
"i7 c #134199",
"i8 c #153F91",
"i9 c #4372C4",
"ia c #3163BC",
"ib c #0F2E71",
"ic c #4172CF",
"id c #3C70D3",
"ie c #3B73D4",
"if c #245BB6",
"ig c #244EB0",
"ih c #2A58BA",
"ii c #164BA7",
"ij c #4B82DC",
"ik c #184DAD",
"il c #0E3489",
"im c #0C2C77",
"in c #244997",
"io c #2B66C4",
"ip c #2B63C4",
"iq c #2D65C6",
"ir c #16347D",
"is c #0A1F54",
"it c #000F43",
"iu c #223A7A",
"iv c #0F3FA3",
"iw c #0C419F",
"ix c #2D63C7",
"iy c #1B49A7",
"iz c #245CB9",
"j0 c #184AAB",
"j1 c #295AB6",
"j2 c #1D3D88",
"j3 c #00041B",
"j4 c #172D69",
"j5 c #3E73D1",
"j6 c #2F64C2",
"j7 c #2459B7",
"j8 c #1D51B4",
"j9 c #1A4DA9",
"ja c #285ABB",
"jb c #225AB7",
"jc c #153379",
"jd c #0F204C",
"je c #1E52B5",
"jf c #2C62C4",
"jg c #3C74D5",
"jh c #1C50B3",
"ji c #1E50AF",
"jj c #0F409C",
"jk c #2358B4",
"jl c #031134",
"jm c #000325",
"jn c #2048A7",
"jo c #2351B3",
"jp c #2458BB",
"jq c #1F50B6",
"jr c #2050B6",
"js c #3C71D1",
"jt c #174CAA",
"ju c #1A4BA7",
"jv c #2558B1",
"jw c #2D64BE",
"jx c #4B83E2",
"jy c #3361BF",
"jz c #264FA9",
"k0 c #072063",
"k1 c #213F88",
"k2 c #1E50B3",
"k3 c #2F61C4",
"k4 c #2052B5",
"k5 c #2658BB",
"k6 c #1A4AAE",
"k7 c #2A65BF",
"k8 c #2957B5",
"k9 c #2C58B1",
"ka c #102D73",
"kb c #0C1F59",
"kc c #214FB1",
"kd c #265BBB",
"ke c #2964C0",
"kf c #0E409F",
"kg c #1D4BA9",
"kh c #2F59AD",
"ki c #0C2E76",
"kj c #081132",
"kk c #3E70CF",
"kl c #4784DF",
"km c #1041A0",
"kn c #123D9C",
"ko c #204998",
"kp c #032263",
"kq c #0B2258",
"kr c #122D70",
"ks c #15409E",
"kt c #1C52B2",
"ku c #3158A3",
"kv c #03215F",
"kw c #001042",
"kx c #010310",
"ky c #0D2154",
"kz c #173E99",
"l0 c #2C63BD",
"l1 c #255BB5",
"l2 c #3B74CD",
"l3 c #4986E3",
"l4 c #1D4BA1",
"l5 c #164094",
"l6 c #174197",
"l7 c #2C59B6",
"l8 c #4271CD",
"l9 c #06235F",
"la c #01103B",
"lb c #020109",
"lc c #0B2055",
"ld c #1E3B81",
"le c #17409A",
"lf c #174CA8",
"lg c #245DB7",
"lh c #194CA7",
"li c #235BB2",
"lj c #3C74CB",
"lk c #3D75CC",
"ll c #2F63B9",
"lm c #2E58AE",
"ln c #0A2D7E",
"lo c #244FAB",
"lp c #05225E",
"lq c #030F35",
"lr c #112E74",
"ls c #164BA9",
"lt c #2F62BE",
"lu c #3163B8",
"lv c #214A99",
"lw c #1D3B83",
"lx c #052067",
"ly c #113281",
"lz c #0C2D7C",
"m0 c #2759B2",
"m1 c #3462BA",
"m2 c #3358A8",
"m3 c #07215E",
"m4 c #15337B",
"m5 c #2D57A9",
"m6 c #022164",
"m7 c #1F3E8E",
"m8 c #071F67",
"m9 c #2957AF",
"ma c #204A9E",
"mb c #294992",
"mc c #14347D",
"md c #00032E",
"me c #000128",
"mf c #00022F",
"mg c #172B68",
"mh c #1C3D8E",
"mi c #142B6F",
"mj c #000F4E",
"mk c #032167",
"ml c #3057A6",
"mm c #2B56B2",
"mn c #143D95",
"mo c #0C358F",
"mp c #1E4BA8",
"mq c #142C68",
"mr c #000417",
"ms c #2551A8",
"mt c #3D73CB",
"mu c #3163BA",
"mv c #163E93",
"mw c #102D79",
"mx c #000228",
"my c #253A73",
"mz c #2A4793",
"n0 c #3761B3",
"n1 c #2A58B8",
"n2 c #0E3487",
"n3 c #132D6A",
"n4 c #08205C",
"n5 c #1E408A",
"n6 c #2E58AC",
"n7 c #0F2C7A",
"n8 c #132B71",
"n9 c #00022C",
"na c #1D418B",
"nb c #193E97",
"nc c #0F3284",
"nd c #16327B",
"ne c #162D63",
"nf c #203F80",
"ng c #254993",
"nh c #1B408E",
"ni c #1A3E8C",
"nj c #0D2D76",
"nk c #032169",
"nl c #102C76",
"nm c #17337D",
"nn c #1E3A83",
"no c #173279",
"np c #122B6E",
"nq c #3158A5",
"nr c #193D95",
"ns c #0C1F57",
"nt c #000315",
"nu c #0E204E",
"nv c #0B1F52",
"nw c #0B1F5A",
"nx c #072060",
"ny c #112E72",
"nz c #133380",
"o0 c #1D3D8A",
"o1 c #18337A",
"o2 c #0A1E59",
"o3 c #000427",
"o4 c #0B2153",
"o5 c #123287",
"o6 c #123181",
"o7 c #1F3C88",
"o8 c #061131",
"o9 c #122C69",
"oa c #00011E",
"ob c #0C2156",
"oc c #3257A5",
"od c #133F96",
"oe c #00103E",
"of c #0E2B77",
"og c #16337F",
"oh c #182C5F",
"oi c #000424",
"oj c #172B5D",
"ok c #34569D",
"ol c #193E8E",
"om c #132B6B",
"on c #172C63",
"oo c #0B1E56",
"op c #1A3272",
"oq c #122045",
"or c #263F75",
"os c #122C67",
"ot c #010F3C",
"ou c #0F204E",
"ov c #1B2C5A",
"ow c #08122D",
"ox c #00041A",
"oy c #000412",
"    ++++||||XXXX1v1w||||    0aXX0b0wen4w1s3x27gt0l0l0q27it3n910l0l0b15  2tlb||||++++1t0a  ||        ",
"    ++++||    XX  0h||||0h  2tXX4qeb38ey3yft2xgu1jhs5877iuj4jdjm3s0q0l0g1y0a0h  ++  XX1t  ||        ",
"XXXX    ++++      0n  1w0c0c  XX0g0zeoezfg29133x3n3mibin8z6n475c132o2c5ekx      0n  XX1y0a0a  0n    ",
"XX      ++++        ++0ccq4d7c0z0q335jf0fh5354gv8aht8n8s2y49926fk15c5d4w9a0l0gXX    15XX0a0a0h      ",
"0a14||||    XXXX  ++1w6t0wcy3c48e368epf1fi344xgwhdhuic070d6e60jn2f6i32krky710z0g15  XX15XX  0a14    ",
"14||||||      XX0i0i4d2i7178da7ge4ec7tf241851k7x1bhvid0siv3535jo0r2d2b9854lclq0z0b151yXX15XX  14    ",
"      ++      0c0l0q38ch13czdb7he5ed7uf35126ga6w3f57592l0o2407070d2y457n98ld139h2z0g150h0c0c        ",
"          0c1e0zbvc31sci72d0dc2320233e3efj2k//1b0o0s591g3r0o930m6r078y5a3z36lr132p9m2q++0c++        ",
"        0n1e33bo3yc4c96u73d1dd//7j1h250p1a3kgb3i0x0x258t061dje0sk20p126gkz2f4xm4972a0z0i0c0h  0a    ",
"  15XXal0b30bi3vbw6j5vcj2j081p0e1h0p6y1n0j0p0p2g0khw0p101g1gjf1qk3071f224nle3a8zmc4i9e0w6t||0a0a    ",
"9t2ua85q1j6329bpbx4bca1zcr4mde1h25ee1i0p0p6x2e0j12hx128u1b11jg57k4kc0rks223g127m4132n458nt  2t0a    ",
"9u2ua9am5ybabj34by44180e08d2df3d091z187s24071l171i120r8v0e//..jpk5072y3g8dlf1h101zmsn5ne9a2v1t0a    ",
"0nXXaa5rax642fbq6g6k6q2j200tdg..0eef090o072e19091lhy168wiw3d09091d06kk7a5b4k0f0y//mtn6nf582r0i0h    ",
"||2v0w2xaybb69br1f6l1m2jcs0t110v0f//067z240o09253o070d0p3kj58o09....//0f0y080y0f087l9nngnu0q2q      ",
"  9zab3yaz436a6ebz0910//1o2m0t2k0feg..0u4r1z21218d1a07390e//0e3j..0v2k08790y//5b3q7e5gnhnv3s0b      ",
"  0l2s5sb0bc0d0d0dc519//1od31o3b7k//..06091z6q21213i0u4v////8t....110t0t20lgls3j0v6v9dni132w1e      ",
"140w3xan410j0j170r0k1n1h4jd44o4j4jeh..064s100e0e8e7i2n1g0ej61q1q0u..0f20l0lh1a06114z8nnj28380l      ",
"XX0q5maob11709170r0k0xck3bd5dhdr4o20eq2n3j3f4l0v8f2j//0v4ej70sjq4gkd3e20l121lt3d7dmu9bnknw2s5h0b0i0h",
"0b3uac5t1k091l310x0x1acl4k1cdi2m3b080f1r11114l0v//26//3q4y..0sjrk60u//23l2li997p9cmv9gnlnx9r2s3s1e15",
"2ra0adap1k310j170j09cb1b1p792m2m0t0t0t08fk1rgc1r0f7k0fio1p0vjh0s664f902323ljlum57tmwn79knyo97y2a2z0i",
"9va1aeaqb2bd2g1710..0e6v2k084ods3bei4uf41c0t4u0t2mhz1c4u0f0v1d1d7z0e0f0808lklvm6815dn8nm9p54509q0q0b",
"27a2afar5z442g091g114e6w740fdjdt7l//0y08081o081c1c1c1c08//..4vjs1h0e0f08l3ll9f88md3c9innnz969ooo9s2i",
"9wa35nas40456b091g0v0e4e11//21du1m1h2n//26861o1chei04m1p3f06063r1g0v0y0f..85lw3m2pmx5dno5n1uof3vou2c",
"283v1u3zb3650k0j....4f064l10dkdv7m1i0jf5flfugd520yi13q1p59j8jijt..0f0t0f3plm6o5ime2p3mnpo06uogopov2w",
"1s291u2b2d42bk1x4a0s6r4g2l18dldw7n6m65f6fmfvgegxhf3qieipix0u1iju1bke08265g9b8b1smf3c1s50o1538c139sox",
"5i3w1uat420r43bs0m0m350m1qd6dm4p4bej2d3680fwgfgyhg4y0viq2l0ujjjv262kkl51l456lx9imgmy2813o28qoh6p2ioy",
"5j3w5o40160d0d0d0d37376x0o1mdndxe63gerf78187gggzhh4k0v..0u3kjkjwk7081r99l5lnlym7mhmz3w482x703s0z4q0c",
"2sa4ag40600m1l0d166h1n0j1a7a7d7ie77q7v4x8282ghh0hi86838x..0e0e260f1r8x1ml6566d9j9j47872xo3oa9m0l0i  ",
"9xa5ah5u2y0m0m2h0r0k0x4h757b7e3e1b1mesf8fnfxgih1hji2230y1r1r1pjx94..1d5fl74b9g9kmi28n92w2p27oi5e2q  ",
"9y5kaiaub4660m0d6h0rcc6yct1m062n3f4s3gf9fofygjh28g8gif0e5b7489..0ukfkm175flo1um8mj283n2oo4obojoq0l0c",
"0l2waj5v61bebl0m2hc6160k0k0k37071q7r4v2j52fz51h3hki30k0x1ij91a1a4h7o8w123h9clz8jmk72nanq5tocokorow0i",
"0ga6akavb52e0m0m0m0d1n1616166a070o1q2l4yfp081b1ihli4ig8yiy188u181x160k1f1z1k4p6smln09n3l3lodolos3u2q",
"XXa75pawb6461l0s4a0s39072h37071906064g0u1p0889063p7qih070j17181i1fkg0r12186l1k7v1k461f0k2d349p9r2i0c",
"2t5l2a29b767bm07c00s4a19071l7f194r757w0u83083j0u09i5193o39ja0p0p2g120k0k1i3i10060jn143423z6jomot2r  ",
"||0b1j5w62bf61350d2e071l07070j0p0p4r1a7j0t0y0o0x22i68o06..1q7w0d160rkn0k8v3p0609465a2d5uo553on2c0l  ",
"3t2v0l2cb8326c49490k6b120x1n2h2407251h//0t0y0j458hi7ii//11..0s0m2h0x0k12093h3h5gmm3a4cnro65c5y1j0b  ",
"    0i0z5wbg6d2b2b4ccdcmcu1n0d0m0s06et//1c1o3l3a8i738f080y90942l061d093p068em08lmn4c922fo74i385q0i  ",
"  0h145xb968476fc1c73a5zcv1f0d0m0s1d4s//1og0gk56hmi8ij4mizjb..572n..060606101km9mo2bnb5o5soe0q0gXX  ",
"++++  0i2zbhbn362f6mcecncw181x0x1n7seu4z527hgl8b8j848p110u3o0o397r3r060610090j2g4495nc9o9q911eXX    ",
"      XX0g0q48bt6i6c691x17d70r0r7o0p3ifa7ug155h4hn8m8p..j024240o0o4f1d06190o071xmpn2ndnso80l2v      ",
"14||      0b30buc26ncf1f072e222207ek3dfbfqg21s3mhoi94z..1a4h3o0o93251dkt0u0o5f3l6z9f5m9h0w0i9l++    ",
"14||      0c0b1j5p6o6s6z0r1x22dy313h7xfc84g3gmh58kia3k3r1009197fk88s4t4tl89dm1ma32n34w0q2q  ++++    ",
"  0hXX++    0i1e3u6p29co764ndodz7p4tevfdfr88808chp0jik1g1b0e19jyk9khkoku8k8mm2mbmq3c5e0bXX  ||||    ",
"0n  0c0c  0n  1y0g0zcg4icxd8dpe0e8elew50fsg4gnh68h0j311m1b7b1fjz4pkikpkvl9lpm3132a5h0b1y    3t||    ",
"    1v1w0h0h    XXc80z7077d97g64e9em7yfe2pg58ah7hq184n5aj16k951uka55kqkwla9e331jmr4q0c++1v1v++++    ",
"      1v0n0n3t||  XX0gcp5r63dqe1ea2oexff0qg6goh88l67il348i7696k0kb3n2a335h0w5l8r9l++++1w1v++++      ",
"1tXX        0n  0h  2u0g1e0w30e20q0w1e0b0gg7gph9hr36imirj2jc972o5kkj0w5x0b0g0i0c          0h  0n    ",
"1t1t  0n  0n        1yXXXXXX0g0g2u  0a14  g8gqha62558qis1378jl1j0q2r0i      1w    0a        0a0a    ",
"                            XXXXXX  0h    g9grhb2o2c302ij32z4d0b0g0iXX                              ",
"                                          7cgshc270w8r    0n0h                                      "
};