/* XPM */
static char *picture[] = {
"50 50 867 2 ",
"   c None",
"XX c #030208",
"++ c #1B4CAB",
".. c #2557B6",
"|| c #040207",
"// c #2358B6",
"06 c #3873CF",
"07 c #030305",
"08 c #1E4BA8",
"09 c #020106",
"0a c #3065C3",
"0b c #3A72CF",
"0c c #2F66C3",
"0d c #02020A",
"0e c #1A4CAB",
"0f c #3B72CF",
"0g c #2657B4",
"0h c #1E4AA9",
"0i c #1D4BA9",
"0j c #02020C",
"0k c #1D4BAB",
"0l c #2657B6",
"0m c #2E66C3",
"0n c #2F66C1",
"0o c #040308",
"0p c #020308",
"0q c #000211",
"0r c #000218",
"0s c #020307",
"0t c #2558B4",
"0u c #00020E",
"0v c #3C71CF",
"0w c #1B4CA9",
"0x c #4681DD",
"0y c #4582DB",
"0z c #000213",
"10 c #1F4AA6",
"11 c #123B95",
"12 c #3065C1",
"13 c #4D8DE7",
"14 c #000215",
"15 c #03020A",
"16 c #020107",
"17 c #3A73CD",
"18 c #3264C3",
"19 c #3873D1",
"1a c #2456B5",
"1b c #000216",
"1c c #000C2F",
"1d c #000B35",
"1e c #2857B3",
"1f c #2259B6",
"1g c #3B71D1",
"1h c #010B2E",
"1i c #1D4CA8",
"1j c #1F4AA8",
"1k c #2257B5",
"1l c #3066C0",
"1m c #3774CF",
"1n c #4F8CE7",
"1o c #1A4DA9",
"1p c #3A71CE",
"1q c #4F8CE9",
"1r c #000B33",
"1s c #040309",
"1t c #020B2C",
"1u c #00030C",
"1v c #1B449E",
"1w c #19459E",
"1x c #3265C1",
"1y c #1B4CA8",
"1z c #010B2F",
"20 c #2E67C1",
"21 c #1944A0",
"22 c #4383DD",
"23 c #3774D1",
"24 c #3971CE",
"25 c #3A72D1",
"26 c #4582DD",
"27 c #2459B7",
"28 c #040B28",
"29 c #00021A",
"2a c #163A90",
"2b c #0F2F7C",
"2c c #2956B3",
"2d c #1845A0",
"2e c #1E4BA6",
"2f c #112F78",
"2g c #1A4BAA",
"2h c #133B93",
"2i c #184DAB",
"2j c #2259B4",
"2k c #4880DD",
"2l c #040108",
"2m c #03010C",
"2n c #000C33",
"2o c #000B3C",
"2p c #000B38",
"2q c #00020F",
"2r c #08205E",
"2s c #122F73",
"2t c #163B8B",
"2u c #000B31",
"2v c #123B93",
"2w c #1E4499",
"2x c #2557B8",
"2y c #2856B4",
"2z c #132861",
"30 c #3365C4",
"31 c #040A2A",
"32 c #000113",
"33 c #2358B4",
"34 c #2856B6",
"35 c #133A95",
"36 c #0E3C9A",
"37 c #214AA6",
"38 c #0B1A43",
"39 c #2658B7",
"3a c #051954",
"3b c #4782DE",
"3c c #3364C1",
"3d c #508DE8",
"3e c #1C4AA8",
"3f c #528AE7",
"3g c #000316",
"3h c #3B73D0",
"3i c #2657B3",
"3j c #508BE7",
"3k c #1D4BAD",
"3l c #000A37",
"3m c #3365BC",
"3n c #3B72CD",
"3o c #0F2F7A",
"3p c #3166C4",
"3q c #194BAA",
"3r c #3F71D0",
"3s c #2358B8",
"3t c #0C1945",
"3u c #162E6A",
"3v c #00030F",
"3w c #020B2A",
"3x c #000C35",
"3y c #061951",
"3z c #0C1A41",
"40 c #152E70",
"41 c #08194D",
"42 c #000117",
"43 c #00021E",
"44 c #162E6C",
"45 c #163B8C",
"46 c #0A2F87",
"47 c #0B2F85",
"48 c #040B27",
"49 c #000C2E",
"4a c #214AA2",
"4b c #1D4AA7",
"4c c #1645A1",
"4d c #2857B1",
"4e c #00010E",
"4f c #050308",
"4g c #3364C0",
"4h c #2656B8",
"4i c #123B97",
"4j c #0F3C99",
"4k c #153A93",
"4l c #0F2E7E",
"4m c #3265C0",
"4n c #07308A",
"4o c #132F70",
"4p c #000110",
"4q c #193A87",
"4r c #103B97",
"4s c #2E539A",
"4t c #000313",
"4u c #4683DE",
"4v c #518CE8",
"4w c #103C95",
"4x c #010C2C",
"4y c #1E4AAB",
"4z c #103B99",
"50 c #3067C2",
"51 c #1C4AAA",
"52 c #4A80D8",
"53 c #3067C4",
"54 c #4681DF",
"55 c #1C4499",
"56 c #2F64C2",
"57 c #0B2F83",
"58 c #0B1946",
"59 c #02020E",
"5a c #4E8BE6",
"5b c #2758B7",
"5c c #3974D0",
"5d c #000C31",
"5e c #3565B9",
"5f c #020A2E",
"5g c #132E71",
"5h c #3C71CD",
"5i c #000121",
"5j c #1546A5",
"5k c #1746A0",
"5l c #184DA9",
"5m c #00021C",
"5n c #4980DB",
"5o c #000B37",
"5p c #040205",
"5q c #1A3A83",
"5r c #050B21",
"5s c #010206",
"5t c #000325",
"5u c #000C3A",
"5v c #0B1F5A",
"5w c #081A4C",
"5x c #000115",
"5y c #020204",
"5z c #000114",
"60 c #060A25",
"61 c #193B85",
"62 c #193A89",
"63 c #193A8B",
"64 c #122F7B",
"65 c #142F76",
"66 c #0C1B46",
"67 c #08194F",
"68 c #244A9F",
"69 c #1B449C",
"6a c #061A4D",
"6b c #1B3B86",
"6c c #1F4CA9",
"6d c #1E49A7",
"6e c #19459C",
"6f c #0C2F80",
"6g c #133074",
"6h c #091B4D",
"6i c #010A31",
"6j c #020109",
"6k c #1D4CA6",
"6l c #0C1A49",
"6m c #143991",
"6n c #172758",
"6o c #0A2F80",
"6p c #123A99",
"6q c #133A97",
"6r c #1C449B",
"6s c #133C98",
"6t c #1845A2",
"6u c #010C2A",
"6v c #224B9D",
"6w c #4E8EE8",
"6x c #3564BE",
"6y c #2654AC",
"6z c #3D63AE",
"70 c #00031A",
"71 c #4C8DE9",
"72 c #1E49A8",
"73 c #0F3B9A",
"74 c #2956B1",
"75 c #335295",
"76 c #00010D",
"77 c #01040D",
"78 c #4981D8",
"79 c #2658B1",
"7a c #1E4CAC",
"7b c #2758B4",
"7c c #1C4BA5",
"7d c #4170C8",
"7e c #2B529F",
"7f c #102866",
"7g c #00020B",
"7h c #04030B",
"7i c #152F68",
"7j c #4683E0",
"7k c #133C8E",
"7l c #2459B5",
"7m c #050A1E",
"7n c #01010D",
"7o c #051A4F",
"7p c #0E2F80",
"7q c #02010F",
"7r c #1B4BAD",
"7s c #2158B5",
"7t c #3D72CE",
"7u c #2A54AA",
"7v c #2C67C3",
"7w c #497FD7",
"7x c #002175",
"7y c #020B28",
"7z c #000118",
"80 c #0A2F88",
"81 c #050B25",
"82 c #1C4597",
"83 c #1F4BA2",
"84 c #072063",
"85 c #345292",
"86 c #123C90",
"87 c #4881DB",
"88 c #0D3C96",
"89 c #3774CD",
"8a c #0C307E",
"8b c #1A2F66",
"8c c #0A1F62",
"8d c #122D7A",
"8e c #4580DC",
"8f c #3C73D0",
"8g c #000119",
"8h c #000C38",
"8i c #16275B",
"8j c #163B93",
"8k c #2556B5",
"8l c #3772D0",
"8m c #09194C",
"8n c #4C8CE6",
"8o c #0C307A",
"8p c #091A48",
"8q c #2257B7",
"8r c #3673D0",
"8s c #050B23",
"8t c #031955",
"8u c #3F71CA",
"8v c #103B9A",
"8w c #0B2059",
"8x c #3E71CC",
"8y c #1C4BA7",
"8z c #1F4BA4",
"90 c #051A53",
"91 c #2D66C0",
"92 c #1C4DAA",
"93 c #000323",
"94 c #2E65C0",
"95 c #020A2F",
"96 c #081F62",
"97 c #17449F",
"98 c #2558B3",
"99 c #2857AF",
"9a c #122D70",
"9b c #123C92",
"9c c #3F71C8",
"9d c #152E71",
"9e c #2E51A2",
"9f c #010A29",
"9g c #010C28",
"9h c #1D4AA5",
"9i c #4D8CE9",
"9j c #182F65",
"9k c #000D3C",
"9l c #122E78",
"9m c #18449B",
"9n c #060C26",
"9o c #1E4497",
"9p c #0B1948",
"9q c #13285F",
"9r c #010A33",
"9s c #132E73",
"9t c #0C1943",
"9u c #03030B",
"9v c #040A22",
"9w c #192853",
"9x c #030104",
"9y c #000B3E",
"9z c #000A39",
"a0 c #000220",
"a1 c #00031D",
"a2 c #081A48",
"a3 c #12285A",
"a4 c #192F68",
"a5 c #182E6A",
"a6 c #132965",
"a7 c #091A46",
"a8 c #040B25",
"a9 c #0B0B17",
"aa c #13275C",
"ab c #0F3077",
"ac c #204492",
"ad c #112D76",
"ae c #152D73",
"af c #162E6E",
"ag c #061A55",
"ah c #000414",
"ai c #1A3A85",
"aj c #1F4598",
"ak c #1C449C",
"al c #1C459D",
"am c #1A469F",
"an c #0F2F82",
"ao c #133076",
"ap c #16285A",
"aq c #000212",
"ar c #1E397C",
"as c #0E2E77",
"at c #183C8A",
"au c #103D98",
"av c #1D49A8",
"aw c #18469E",
"ax c #173B89",
"ay c #122862",
"az c #14285A",
"b0 c #000116",
"b1 c #000C2C",
"b2 c #14295E",
"b3 c #325096",
"b4 c #3056A9",
"b5 c #093188",
"b6 c #3264C5",
"b7 c #1B439A",
"b8 c #0F2763",
"b9 c #000217",
"ba c #2B4992",
"bb c #25499F",
"bc c #143B96",
"bd c #042F8D",
"be c #1E4DA9",
"bf c #1A45A1",
"bg c #2957B5",
"bh c #3364C3",
"bi c #0B2F87",
"bj c #16398D",
"bk c #0C2F81",
"bl c #010214",
"bm c #0B2057",
"bn c #153B90",
"bo c #05308C",
"bp c #133B9A",
"bq c #1745A3",
"br c #163B94",
"bs c #1B439B",
"bt c #162D70",
"bu c #010310",
"bv c #030A27",
"bw c #07308C",
"bx c #143B98",
"by c #163A92",
"bz c #0E2F7E",
"c0 c #00041B",
"c1 c #040406",
"c2 c #192E67",
"c3 c #3972CC",
"c4 c #1445A4",
"c5 c #06318D",
"c6 c #123994",
"c7 c #2249A6",
"c8 c #123A92",
"c9 c #153A92",
"ca c #102961",
"cb c #000D31",
"cc c #050C1F",
"cd c #4481DC",
"ce c #2758B5",
"cf c #0F3A96",
"cg c #113A96",
"ch c #1B44A0",
"ci c #1F4BAA",
"cj c #143C94",
"ck c #2049A1",
"cl c #2952AA",
"cm c #1E4495",
"cn c #142F66",
"co c #132F6E",
"cp c #2556B3",
"cq c #4580DA",
"cr c #224AA9",
"cs c #2753AC",
"ct c #3962B4",
"cu c #35528C",
"cv c #12295D",
"cw c #3365BA",
"cx c #3974CE",
"cy c #4383DB",
"cz c #4C8DE7",
"d0 c #4B8CE6",
"d1 c #4E8DEA",
"d2 c #174CAA",
"d3 c #204BA9",
"d4 c #2755B3",
"d5 c #2655B1",
"d6 c #4D7FD8",
"d7 c #3A64B6",
"d8 c #132759",
"d9 c #020C25",
"da c #000E32",
"db c #0F3170",
"dc c #4271C1",
"dd c #4182DE",
"de c #2457B3",
"df c #3166C2",
"dg c #3F72CE",
"dh c #000B30",
"di c #3765B2",
"dj c #4780DA",
"dk c #3466BF",
"dl c #1D4396",
"dm c #2957AF",
"dn c #3163C2",
"do c #3B70CE",
"dp c #4980DD",
"dq c #3F70CC",
"dr c #153B8E",
"ds c #0C2871",
"dt c #4C80D4",
"du c #3772CE",
"dv c #2F65C5",
"dw c #1B4DA4",
"dx c #001C6A",
"dy c #01216E",
"dz c #0E3D97",
"e0 c #4A7FDB",
"e1 c #1E4CA4",
"e2 c #071E64",
"e3 c #091A50",
"e4 c #072060",
"e5 c #3A63B5",
"e6 c #3066BE",
"e7 c #3772CC",
"e8 c #2559AF",
"e9 c #00216E",
"ea c #001A64",
"eb c #0B3081",
"ec c #2058B7",
"ed c #1E4AA3",
"ee c #032070",
"ef c #081F65",
"eg c #142761",
"eh c #042165",
"ei c #3B73CA",
"ej c #1C4CAE",
"ek c #022171",
"el c #1A4DA8",
"em c #073088",
"en c #112E7E",
"eo c #152D75",
"ep c #132762",
"eq c #000319",
"er c #00031C",
"es c #040C23",
"et c #000312",
"eu c #122E6F",
"ev c #1E4CAE",
"ew c #2E65C2",
"ex c #2C67C5",
"ey c #2F67C4",
"ez c #174CAC",
"f0 c #0C3D99",
"f1 c #0F3B94",
"f2 c #0B2E80",
"f3 c #091E5F",
"f4 c #09184F",
"f5 c #182F63",
"f6 c #000B3A",
"f7 c #0D286D",
"f8 c #1C4AAC",
"f9 c #2856B8",
"fa c #3873CD",
"fb c #1A4CAD",
"fc c #0E2F7C",
"fd c #000B4A",
"fe c #021A56",
"ff c #496FBA",
"fg c #4362A5",
"fh c #1A2751",
"fi c #1D49AA",
"fj c #04318E",
"fk c #2E67C0",
"fl c #2F66C0",
"fm c #224A9F",
"fn c #001B63",
"fo c #001C61",
"fp c #2C539E",
"fq c #547FCD",
"fr c #3A63B3",
"fs c #000015",
"ft c #000C3C",
"fu c #1A2E61",
"fv c #0A1E59",
"fw c #10296C",
"fx c #4980DA",
"fy c #3167C1",
"fz c #2557AE",
"g0 c #2C52A5",
"g1 c #1F4693",
"g2 c #2C57A5",
"g3 c #4171C5",
"g4 c #123B8B",
"g5 c #052160",
"g6 c #061A4C",
"g7 c #2755B5",
"g8 c #2753AA",
"g9 c #4C80D6",
"ga c #3466BB",
"gb c #112E7C",
"gc c #1C4DAC",
"gd c #2E66C5",
"ge c #3C72D2",
"gf c #042F8B",
"gg c #3C73CE",
"gh c #3665B7",
"gi c #2C519F",
"gj c #142F74",
"gk c #1B459B",
"gl c #3164C0",
"gm c #2659B5",
"gn c #3875D2",
"go c #2F64C0",
"gp c #0F3D95",
"gq c #00011A",
"gr c #01092D",
"gs c #000C45",
"gt c #1F4DA3",
"gu c #174EA9",
"gv c #103E96",
"gw c #18449D",
"gx c #1847A3",
"gy c #1E4CAA",
"gz c #3A70D0",
"h0 c #2855A8",
"h1 c #001A62",
"h2 c #02195C",
"h3 c #010010",
"h4 c #3366C2",
"h5 c #3065C5",
"h6 c #528AE9",
"h7 c #0E3C94",
"h8 c #04216F",
"h9 c #061E66",
"ha c #1E3980",
"hb c #052162",
"hc c #2C56AA",
"hd c #2B66C2",
"he c #2258B8",
"hf c #477FDE",
"hg c #002073",
"hh c #122E77",
"hi c #030A26",
"hj c #03030F",
"hk c #000322",
"hl c #081B46",
"hm c #1F458E",
"hn c #1445A1",
"ho c #224392",
"hp c #041F62",
"hq c #060C24",
"hr c #000B2D",
"hs c #142A5B",
"ht c #2F56A3",
"hu c #1C4EA7",
"hv c #0D3B99",
"hw c #041958",
"hx c #162858",
"hy c #3C71D1",
"hz c #3D72D2",
"i0 c #0C3D9A",
"i1 c #0E3D99",
"i2 c #235AB7",
"i3 c #508DEA",
"i4 c #2F65BF",
"i5 c #3B72CC",
"i6 c #406FC9",
"i7 c #041F66",
"i8 c #081951",
"i9 c #050C28",
"ia c #000A34",
"ib c #153991",
"ic c #3D6FCE",
"id c #3F70CD",
"ie c #3D70CC",
"if c #2D65C2",
"ig c #3366C1",
"ih c #4A81DC",
"ii c #2356B1",
"ij c #497FD9",
"ik c #0B194A",
"il c #041A54",
"im c #02318D",
"in c #2756B0",
"io c #3564BC",
"ip c #1D4CA4",
"iq c #3A71CC",
"ir c #4072C9",
"is c #1F4492",
"it c #011B58",
"iu c #090B18",
"iv c #182859",
"iw c #204596",
"ix c #214AA4",
"iy c #3673CE",
"iz c #2158B3",
"j0 c #1547A0",
"j1 c #1C4595",
"j2 c #2D54A1",
"j3 c #2B54A6",
"j4 c #2C53A0",
"j5 c #07215E",
"j6 c #0C1A3F",
"j7 c #1A2D65",
"j8 c #1B4DAC",
"j9 c #2F68C2",
"ja c #2B66C0",
"jb c #0A1F5E",
"jc c #082060",
"jd c #042167",
"je c #3E71CD",
"jf c #194CA8",
"jg c #3055A6",
"jh c #152E6E",
"ji c #173A8C",
"jj c #2955B4",
"jk c #508BE9",
"jl c #3B73D2",
"jm c #4880DF",
"jn c #103C93",
"jo c #132E75",
"jp c #000A40",
"jq c #000A3E",
"jr c #000C46",
"js c #00185E",
"jt c #2A55B1",
"ju c #3763BC",
"jv c #09215D",
"jw c #13285D",
"jx c #102E76",
"jy c #2149A8",
"jz c #1846A4",
"k0 c #0F3C97",
"k1 c #092F82",
"k2 c #26448C",
"k3 c #02226D",
"k4 c #2B57AE",
"k5 c #3263C0",
"k6 c #2D55AC",
"k7 c #102E77",
"k8 c #01040B",
"k9 c #091A45",
"ka c #4F8AE6",
"kb c #00012A",
"kc c #3056A7",
"kd c #0B215D",
"ke c #000A30",
"kf c #000311",
"kg c #3164BD",
"kh c #1F4DA5",
"ki c #1746A2",
"kj c #3564C0",
"kk c #2D52A3",
"kl c #1D3C7F",
"km c #081A4A",
"kn c #12275E",
"ko c #2D539C",
"kp c #3765BB",
"kq c #122F71",
"kr c #000B32",
"ks c #13265E",
"kt c #194699",
"ku c #2355AC",
"kv c #4A81DB",
"kw c #3C72CA",
"kx c #1B4695",
"ky c #153C89",
"kz c #3056A1",
"l0 c #2D539E",
"l1 c #2D52A0",
"l2 c #3B61B2",
"l3 c #254A9A",
"l4 c #01216C",
"l5 c #1D3A80",
"l6 c #345193",
"l7 c #3963B5",
"l8 c #1B4DA6",
"l9 c #1B3B84",
"la c #000930",
"lb c #0A1950",
"lc c #18469C",
"ld c #3C72CC",
"le c #3764B7",
"lf c #315297",
"lg c #021B54",
"lh c #152A57",
"li c #000B3F",
"lj c #09194A",
"lk c #0C1A47",
"ll c #011C53",
"lm c #2957AD",
"ln c #1647A3",
"lo c #060A23",
"lp c #0A1A4D",
"lq c #091F5B",
"lr c #0F286B",
"ls c #0E2E79",
"lt c #3466BD",
"lu c #487FD9",
"lv c #3D73CB",
"lw c #2754A7",
"lx c #1A3B82",
"ly c #051A51",
"lz c #000221",
"m0 c #000321",
"m1 c #000421",
"m2 c #11316E",
"m3 c #3764B5",
"m4 c #102864",
"m5 c #000D34",
"m6 c #162F72",
"m7 c #0E307A",
"m8 c #2952A2",
"m9 c #2957AC",
"ma c #1B397F",
"mb c #000125",
"mc c #03092B",
"md c #00001E",
"me c #305395",
"mf c #3563B9",
"mg c #133C96",
"mh c #010207",
"mi c #020D2D",
"mj c #22448C",
"mk c #2C55A5",
"ml c #000C43",
"mm c #020933",
"mn c #0D1943",
"mo c #204589",
"mp c #3565BA",
"mq c #1A3B8A",
"mr c #122D74",
"ms c #12295F",
"mt c #1E3A79",
"mu c #345396",
"mv c #011955",
"mw c #050B2D",
"mx c #0F1843",
"my c #172D69",
"mz c #23448B",
"n0 c #305397",
"n1 c #2856AB",
"n2 c #0A1E5B",
"n3 c #000A36",
"n4 c #162856",
"n5 c #1A2E60",
"n6 c #17275A",
"n7 c #1F4494",
"n8 c #31519A",
"n9 c #122864",
"na c #040926",
"nb c #335292",
"nc c #3D64B1",
"nd c #183986",
"ne c #020B32",
"nf c #00021B",
"ng c #060A27",
"nh c #0E2E7B",
"ni c #173A8B",
"nj c #214593",
"nk c #25438B",
"nl c #152D6D",
"nm c #17275B",
"nn c #182E67",
"no c #355190",
"np c #0C1F57",
"nq c #01010B",
"nr c #182D62",
"ns c #0F2F78",
"nt c #24458C",
"nu c #000410",
"nv c #14285D",
"nw c #15295C",
"nx c #172854",
"ny c #03030D",
"nz c #000308",
"o0 c #000228",
"o1 c #00011B",
"o2 c #000314",
"  09    0s0s||||07c10s0s    ||    0p590r5dftg68h5fgqh30zhkhr93i91biu0d      0707    0707||||        ",
"        0s  ||||    0o      XXXX0d0j4p81fhfu8b8i1dgr5i1hhlhshxia4x5m0z0u0d0p  5y    0707||4f09      ",
"9x||  16XXXX||||      0o  167h7n7q327z316lfv8c8c3ags8thbhmht2b65iliv1z8g0qk80p0s  09      09  09    ",
"||  0916XX  ||||XXXX||  XX775z481t1z1rf63afw8dgb2f3o2thc8u0g6pib2b9aj7669g3gkf0u0p          09      ",
"XX      09  4f||XXXX    0d14dh7oe4eheuf72f7p478jgkgt8u8x120e0i1j2hiw3o40jwk91h8s76  0p0pXX160o      ",
"XXXX      0oXX6jbu4p4p4t70da7i4se57u6v82866e2e1e1x0v0f1g1p0v2g0i1jix80jijx44411r0r0u0dmhXX          ",
"||  XX  ||XX6jblbv1z1z3xcvdbdidte6ei7w5278fx3n0f0b0f0e3q1g1g0e0i10216d372a2b9dkslalo3v0dXX  0907    ",
"||||XXXXXX0jb91t6nc23aco4sdc52due7170b0b873b0b250m1f++++3s1g180w6t4z0hjjjy464l84lb6i5r3v0dXX  07    ",
"      160d141rbm2s4q6f6vcw78dj0b//0e0e++++0e39..//0e++5j2i3phy..0i4j360i08378j4l96lp1h0r3v9u0p0s    ",
"  0oXX1uaqb12z2f6o6921cp173d0b//..++0k0kfi0k51++301a0l++0e1ahz//340i0i3ejz081v579llq9pmi5r3v9u0s    ",
"||XX15ah49b2babn1w6k0w33cx0y53..4h7revf80k0k7a++gl12h43c2y0w1a3r0l++++++++8y6y823olr5v9p4x5x1u      ",
"||XXa9436ab3bbbo1y0t1k0f0y0y1k..7rej3k3k0k51g7gcgm5h1x3i084ji0ic5b++++0l5b0g99kt2tlsm62z587y0qXX    ",
"  0j5z1rarb4bc084m0n0b0x0y0y0a..2g++3kf90l++++8k..1a1a8y4n4ni1id..0ej8182x18kgkulc7km74oms3x7m2mXX  ",
"  0u602o6b11bd1e1lc33b4ucy0y1p//..++3k4h18..0l391a3q390i4w4w7bie......//1f1p5nkvldltm8mjmtn4nf2mXX  ",
"||2q1t67asb51i1x1220cd22cz220xdv//..++5b18//0t1a3p8qh53qhnhu5h0n......3p7v4u1n1n1nlu9cmkmun59v0jXX  ",
"2l141d44at6e4g0v330n1m6wd0227j2553//++0l..270t..0a1g1g0a12120n2j......0c1m139i9i3jlvm98omv381b0dXX  ",
"2m29aaai4a0g0v0a0e2i0m1n71712354251p181o//27....0a0c0c0f0f0f0a......3s242213220x1llwmaml2u290u162l2l",
"0q3w2r454bb60a1k++0e0c4vd1dd2319193hew56271k//272j2j0m240m1f//....0e1f06138n26kwlelx2z8hmw420qnq15XX",
"0r1c40aj2c2x30..++c42jcq131313260606240f0f0c0c1p0m06170n9120947l5l33j906133d065elfly2p9rmx1zng320d0s",
"283x2s686c++2g0l++++0c2k3b1m0y0y267vex19060b0b3h060x0b2020910n0n0n20ja1m1qka1pkxlg1d95mm8mn61d28nunz",
"5ta2abak6d0k++4h++390v0f0c50240x1n267j230y89068l238r19hd5c060mif06iy1m231q243rky9klz5imnmy402z9w9v0q",
"2na361alau0i0k0l34++30//d20tdkdwe87w3f190y0y0654gn1q1q198l060f0m0x4u8rjk251f0gkzlhm05i3t9s2b6gnr1h0r",
"5ua462692d4cbe1i0808ce..//797kdxe92t74//0c0b0x268n6w263j0b0ci21g3f0619jl0c1o9hl09j2n5f585q9onh443t9f",
"9ya5631v2e1e6k2dbwc5080w..6xdldyeaek2h1i0t330m061m131n8e0c//1k0v12iz0bjm//0gkhl13u3lmb2pmz68ni2s6no0",
"2oa62t10av0810114n11cf4b0l3cdm55eb57804ifj1y//gd0606540m1k0e271x5kj00n0f3s0ekil23u5omc1d5gn745nsnv5o",
"9z5vacam0808bf1135c66s1j0k0l3cdz1w4a1v4r883i0vge0b0m25he0e0e12ig975k5h0m8q0lkjl3901rmd1z3un8njntnw1d",
"2p3y64461w6c104ibx6qcg1j4y51181o0w3i4m1lfk873h250m201k2i2i2i0v1oim1y3n173p0g2vl4li5f0r436a5gnk4onx1h",
"1r5wad471w4d1jbp6pc76qcr727adn0v560c17fa89220x0b0b170c0a7s0c8f1f..7t5n0n1x9h2wl5lj280z5r8pn9nl8b1co1",
"a0a7652aaw1e2c4j081j3535d30h++180f0mey1m13138e2k3f4vh6hf19231q0x06175n98k09bkkl6lk9n0u4t9t8inm3t9no2",
"a13zae2a100gbgbq3608ch6s4z0h0k0e7s060x3d3d3b0f12gogu2j0c063ji35a2k3n79jnk14qkl9j1c420u0z1h9t9r310z77",
"1b1hafan100l0l++3608ci0h733e++..ec1q1n5a0b//3e08gpgvh75k1o5l0cih98882v6ok23ukm490r0z32145mna811bny5s",
"0z3wag2b2v2ybh2y08080h0kd40w0e0a191q5a5c0a++734z1wgw114r2c0w5l1lin9b63jo3a2o2n939gm1495d5d5t1t291u07",
"2qa841ao2w2e2c0811110h0k0g0tdo0b4v3j2k0a..0k0k0i1egx0h0h0h2y1x4m3mj19djp3lkb5o9kllm2memon0nbnn384t  ",
"0j5x662raxb71v1v4kc84r0i0i0t530m060x1f0e0l++++0l0t0w0k4y0hhv0w8xio7ejbjq3l2pkn856zm3mfmpn1ncno9w14  ",
"1s0q3wap2s6fbi4kbyc9cj4w4cde7l0n0606ezfb0a0a0a0a0t0i8v8v0h0i8k0g99j2jcjr8t9akol7lm4d0g1e1vndnp1t0q  ",
"||0j422uay2fbjbr4k2hckcs2c7b12500x2k271a0f248f0a0ggy720h921o++0gipj3jdjsk3kckpl8ln0g0k1j2a9s1d0r0j  ",
"XX152q48az6gbkbs4i216t6x747c120b3f0m//0a0m5c0f180i3e2g3r1p3ni4ii1y1w577xk47c1i1i1y1i086m9l675m1u0p  ",
"XXXX15143zb8622h374b0i0gd51y0n0f7telf00t17170t0w360i3r1g0b3hi5ij0t3i10jtk50w0h081e97mgmqn2ne0z5s    ",
"09XXXX0q286h2f6m351034..1odfdpe0edemf14dflfy2dgf4c0g0v0c3s//0c50iq1lje4g1i2d212d2e9m2wmrn30r59      ",
"    2l0jb06i2r4l2a11083c0tdgdqe1477x46833mfz11110g0v0a//2x2x//0f0n0n0a920821218z9m9o5q9q287q0d09    ",
"0707  162m0r6lbtbz6rcl6yd67ddr7peeenf22wfm7u2v2e0vgz..++++5j..//5630..++0h0h0h106r5q9q1c140d0p5s    ",
"075y09    4e312o4o61cmctd77edse2efeo64fc8ag0g84g0f1f3q0l34++..////1a..5j4y0h10556bm42u3g591s0s0s    ",
"  090o    0d324838ca4s6z757f3ye3egepf384fng13mgg1l1l0g0g++2g0a0c940njf0w0h3755l98wm51b7g15XX        ",
"      0o  XX150qc0cbcncud81d2u1c3z58f4fdfog2g9525eh0838z081ei63mir9c7djuk69ekq7o1c0r0j09    0o      ",
"07  0sXX  0o090d4ecc6u4xd90r7m1b3g7y3lfefpg3gagh8oh1h8hg2h4a458aisj4jg9ek7kdkr700z0uXX0o||5p0707    ",
"07  0sXX  ||07  0d0j0q0q767g0j0j0ueq5u85fq5e86gi5gh2h98dho4qi796itj5jhjv41ke14151s16      070o      ",
"    09  0o  07  XX160d0p0p1sXX150jer7ifffrg43ogj2r7fhahhhphwi8ik38j61c9f290q7h    0o  0o    XX      ",
"  09    09  07        07    ||1s0desf5fg75g53y8m8p5w8w906h3t9531293g142q154f5p5p  09    0p0pXX1s    ",
"                                XXet1t2n1c6u8g1b0r8s43hihq1b0z4e0u1u0j0dXX                          ",
"                                090j7z60fs0q0d0p0j0u7nhj0u1uXX                                      "
};