/* XPM */
static char *picture[] = {
"50 50 904 2 ",
"   c None",
"XX c #03020A",
"++ c #030207",
".. c #040108",
"|| c #2F64C0",
"// c #000211",
"06 c #02020C",
"07 c #386FCC",
"08 c #3570CC",
"09 c #020107",
"0a c #2558B4",
"0b c #376FCC",
"0c c #2557B6",
"0d c #2E65C0",
"0e c #020308",
"0f c #2358B4",
"0g c #4380DB",
"0h c #040309",
"0i c #1C4BA7",
"0j c #1C4AA8",
"0k c #02020A",
"0l c #1A4BAA",
"0m c #1A4BA8",
"0n c #2358B6",
"0o c #4C89E4",
"0p c #4A8AE4",
"0q c #02020E",
"0r c #1D4AA7",
"0s c #1D49A8",
"0t c #000213",
"0u c #396ECA",
"0v c #386FCA",
"0w c #00020E",
"0x c #2657B6",
"0y c #1E49A5",
"0z c #00020F",
"10 c #000216",
"11 c #000215",
"12 c #2657B3",
"13 c #2E63BF",
"14 c #3471CC",
"15 c #2D65C2",
"16 c #4380D9",
"17 c #2657B4",
"18 c #000218",
"19 c #1D4AA5",
"1a c #04030B",
"1b c #3570CA",
"1c c #194AA7",
"1d c #3570CE",
"1e c #194CA8",
"1f c #2259B4",
"1g c #194BAA",
"1h c #040308",
"1i c #000A34",
"1j c #03010C",
"1k c #00021C",
"1l c #123A92",
"1m c #2E65C2",
"1n c #376FCE",
"1o c #00021F",
"1p c #000936",
"1q c #000A36",
"1r c #08194D",
"1s c #00011E",
"1t c #020109",
"1u c #113A96",
"1v c #113A94",
"1w c #2D66C0",
"1x c #3770CA",
"1y c #498AE4",
"1z c #447FDB",
"20 c #4D88E4",
"21 c #3065C1",
"22 c #2857B1",
"23 c #1B49A9",
"24 c #2259B6",
"25 c #000A3B",
"26 c #0B1946",
"27 c #000A30",
"28 c #04010A",
"29 c #00011A",
"2a c #000B32",
"2b c #2857B3",
"2c c #092E87",
"2d c #15398F",
"2e c #2956B3",
"2f c #467FD9",
"2g c #0B2D84",
"2h c #1946A1",
"2i c #0E3B98",
"2j c #040A20",
"2k c #2B66C2",
"2l c #4181DB",
"2m c #00021E",
"2n c #092E86",
"2o c #000113",
"2p c #396ECC",
"2q c #2456B5",
"2r c #030007",
"2s c #02010F",
"2t c #000221",
"2u c #061A4D",
"2v c #09194A",
"2w c #000319",
"2x c #000A2E",
"2y c #000116",
"2z c #112E72",
"30 c #000B2D",
"31 c #113A92",
"32 c #143992",
"33 c #2459B7",
"34 c #1D449F",
"35 c #000A2D",
"36 c #1E49A7",
"37 c #000316",
"38 c #2658B1",
"39 c #0D2D82",
"3a c #2F65BF",
"3b c #1B4CAB",
"3c c #477ED8",
"3d c #3065C3",
"3e c #0B2E82",
"3f c #4481DC",
"3g c #1D4BA3",
"3h c #092265",
"3i c #3164BF",
"3j c #467EDB",
"3k c #447FD9",
"3l c #000B37",
"3m c #2F64C2",
"3n c #0E3B96",
"3o c #2957B5",
"3p c #1C4AAA",
"3q c #0F3A96",
"3r c #072E89",
"3s c #0F3B94",
"3t c #09194C",
"3u c #020106",
"3v c #00011B",
"3w c #193984",
"3x c #0B1A45",
"3y c #000B2B",
"3z c #010A2B",
"40 c #172C65",
"41 c #1D459C",
"42 c #112C6F",
"43 c #020307",
"44 c #03030D",
"45 c #000A37",
"46 c #1C469A",
"47 c #16398D",
"48 c #213B78",
"49 c #142D66",
"4a c #030A27",
"4b c #000110",
"4c c #1A4CA5",
"4d c #0A2E84",
"4e c #000A38",
"4f c #000417",
"4g c #2459B5",
"4h c #2958B4",
"4i c #1E4BA8",
"4j c #366ECB",
"4k c #2956B1",
"4l c #2955B4",
"4m c #062E86",
"4n c #375498",
"4o c #000115",
"4p c #3970CB",
"4q c #3C6DC9",
"4r c #143991",
"4s c #2D64BF",
"4t c #0A2F87",
"4u c #1C397D",
"4v c #4A89E6",
"4w c #2659B5",
"4x c #00031D",
"4y c #2856B4",
"4z c #447FDD",
"50 c #3C6ECD",
"51 c #2358B8",
"52 c #2E64C4",
"53 c #467FD8",
"54 c #2F66C1",
"55 c #3370CB",
"56 c #000321",
"57 c #000313",
"58 c #3870CD",
"59 c #000B29",
"5a c #2257B3",
"5b c #1D4CA8",
"5c c #3264BD",
"5d c #4181D9",
"5e c #0F3B92",
"5f c #2258B8",
"5g c #477ED9",
"5h c #3B6ECA",
"5i c #1A4BA7",
"5j c #00021A",
"5k c #346FCB",
"5l c #3B6DCC",
"5m c #042F8B",
"5n c #000A32",
"5o c #051954",
"5p c #2658B7",
"5q c #427FDA",
"5r c #2E67C1",
"5s c #0C2162",
"5t c #1A469F",
"5u c #3B6EC9",
"5v c #366FC9",
"5w c #3471CE",
"5x c #0B1948",
"5y c #092F84",
"5z c #2558B3",
"60 c #487ED8",
"61 c #000B39",
"62 c #477FD6",
"63 c #041A53",
"64 c #050922",
"65 c #000B3D",
"66 c #00082C",
"67 c #040A24",
"68 c #030A24",
"69 c #000B2E",
"6a c #061951",
"6b c #08194F",
"6c c #000926",
"6d c #000112",
"6e c #02000B",
"6f c #010214",
"6g c #1B3982",
"6h c #07216B",
"6i c #122D70",
"6j c #0A225E",
"6k c #204498",
"6l c #123A91",
"6m c #0D2D80",
"6n c #0E2D80",
"6o c #234493",
"6p c #183988",
"6q c #162C66",
"6r c #214AA4",
"6s c #16388F",
"6t c #15398D",
"6u c #163B8C",
"6v c #1D4BA1",
"6w c #123994",
"6x c #0A2D7E",
"6y c #0C225C",
"6z c #00020B",
"70 c #234491",
"71 c #19479F",
"72 c #3163C2",
"73 c #1C49A6",
"74 c #16398B",
"75 c #0E2D7D",
"76 c #1E3B7F",
"77 c #2A56AD",
"78 c #1D459D",
"79 c #1E4BA0",
"7a c #000B30",
"7b c #041B51",
"7c c #23458F",
"7d c #204AA0",
"7e c #1D49A2",
"7f c #2558B1",
"7g c #386FC9",
"7h c #3E6EC2",
"7i c #000317",
"7j c #3871CB",
"7k c #0D3A95",
"7l c #062D88",
"7m c #2A57B4",
"7n c #062F89",
"7o c #2456B7",
"7p c #01010D",
"7q c #183986",
"7r c #0E2F80",
"7s c #010310",
"7t c #040A22",
"7u c #386ECE",
"7v c #1C48A7",
"7w c #1E4AA9",
"7x c #010A29",
"7y c #396FC9",
"7z c #4580DC",
"80 c #3A6DC9",
"81 c #3164C0",
"82 c #4282DC",
"83 c #214AA2",
"84 c #000427",
"85 c #000A33",
"86 c #33559C",
"87 c #3D6FC4",
"88 c #3970CD",
"89 c #194AA6",
"8a c #2049A3",
"8b c #0E3C94",
"8c c #1C4BA5",
"8d c #4C89E6",
"8e c #1D4BA9",
"8f c #2D57A3",
"8g c #0E3A93",
"8h c #3A70CA",
"8i c #002379",
"8j c #2257B5",
"8k c #2D64C1",
"8l c #2D56A6",
"8m c #1C459F",
"8n c #1A479C",
"8o c #406DC0",
"8p c #182C5F",
"8q c #3D6ECA",
"8r c #174CAA",
"8s c #062F87",
"8t c #4B8BE5",
"8u c #030929",
"8v c #163A88",
"8w c #4F88E2",
"8x c #184BA7",
"8y c #4D8AE5",
"8z c #3263BF",
"90 c #2359B3",
"91 c #396ECE",
"92 c #030A26",
"93 c #0D2E7D",
"94 c #5089E3",
"95 c #427FD8",
"96 c #4A7DD6",
"97 c #4180DD",
"98 c #3272CC",
"99 c #2A65C1",
"9a c #092167",
"9b c #223A78",
"9c c #081A4C",
"9d c #498BE2",
"9e c #376ECB",
"9f c #112C71",
"9g c #2B66C0",
"9h c #4580DA",
"9i c #040A2A",
"9j c #2656B8",
"9k c #2C65BF",
"9l c #386DCB",
"9m c #2E65BF",
"9n c #0B2D86",
"9o c #082F8A",
"9p c #0A2E86",
"9q c #133890",
"9r c #2556B3",
"9s c #3463BD",
"9t c #1946A3",
"9u c #000117",
"9v c #0C1943",
"9w c #103993",
"9x c #1B4CA8",
"9y c #1B3981",
"9z c #011A5A",
"a0 c #194BA4",
"a1 c #437ED8",
"a2 c #1847A1",
"a3 c #487ED6",
"a4 c #193982",
"a5 c #000A3D",
"a6 c #0C1945",
"a7 c #163A92",
"a8 c #2957AF",
"a9 c #2F56A3",
"aa c #091A48",
"ab c #000121",
"ac c #1847A3",
"ad c #132C6C",
"ae c #091A46",
"af c #2C56AA",
"ag c #4A8AE2",
"ah c #1C4AAC",
"ai c #0C205D",
"aj c #2149A1",
"ak c #4F88DF",
"al c #3564BC",
"am c #040926",
"an c #0D1941",
"ao c #153991",
"ap c #091A4E",
"aq c #2F55A6",
"ar c #1D3C7C",
"as c #31569D",
"at c #0F2E6E",
"au c #00092C",
"av c #061B4A",
"aw c #000A35",
"ax c #01092D",
"ay c #000223",
"az c #00093C",
"b0 c #000128",
"b1 c #000222",
"b2 c #030409",
"b3 c #162C65",
"b4 c #152B65",
"b5 c #0D215C",
"b6 c #09194D",
"b7 c #0D225B",
"b8 c #09215F",
"b9 c #203B7E",
"ba c #24448F",
"bb c #05226E",
"bc c #06206A",
"bd c #122C76",
"be c #1F3A81",
"bf c #132C6E",
"bg c #082163",
"bh c #071B4E",
"bi c #030210",
"bj c #010312",
"bk c #0C1946",
"bl c #112D6E",
"bm c #0F2D75",
"bn c #173885",
"bo c #16398A",
"bp c #22479F",
"bq c #0B2F85",
"br c #17378A",
"bs c #224597",
"bt c #112E7A",
"bu c #091B4B",
"bv c #0D1A44",
"bw c #020926",
"bx c #000114",
"by c #00092A",
"bz c #071A54",
"c0 c #204490",
"c1 c #1D4696",
"c2 c #1C469C",
"c3 c #1E4AA3",
"c4 c #082D86",
"c5 c #214599",
"c6 c #143A8D",
"c7 c #0D2D78",
"c8 c #0E2257",
"c9 c #20397B",
"ca c #102E77",
"cb c #1D48A4",
"cc c #1C459D",
"cd c #123B93",
"ce c #0D2E7B",
"cf c #1B3B84",
"cg c #1A3880",
"ch c #1D3982",
"ci c #2E53AB",
"cj c #2049A1",
"ck c #2049A5",
"cl c #14388E",
"cm c #193A8B",
"cn c #1B3B88",
"co c #183A84",
"cp c #172C63",
"cq c #3456A0",
"cr c #3263C0",
"cs c #1F4AA8",
"ct c #2148A3",
"cu c #1C449C",
"cv c #143A8F",
"cw c #1E469B",
"cx c #3B62B1",
"cy c #1B2B5C",
"cz c #345598",
"d0 c #293B6B",
"d1 c #000A25",
"d2 c #051A4F",
"d3 c #4C87E3",
"d4 c #032274",
"d5 c #052272",
"d6 c #3663B4",
"d7 c #122F6B",
"d8 c #0B1A41",
"d9 c #000212",
"da c #2D55AC",
"db c #022277",
"dc c #04216F",
"dd c #062170",
"de c #032275",
"df c #0D2D84",
"dg c #163993",
"dh c #1C439E",
"di c #1E49A8",
"dj c #2658B9",
"dk c #2459B9",
"dl c #2856AC",
"dm c #0E2F76",
"dn c #022374",
"do c #0B2F87",
"dp c #113893",
"dq c #2556B5",
"dr c #2E63C3",
"ds c #3B6DC2",
"dt c #143A8B",
"du c #001B5C",
"dv c #234A97",
"dw c #19479D",
"dx c #1A469D",
"dy c #2B66C4",
"dz c #4B7ED1",
"e0 c #1C4796",
"e1 c #0B2C79",
"e2 c #01010B",
"e3 c #041B4F",
"e4 c #204B9A",
"e5 c #386EC8",
"e6 c #2958AA",
"e7 c #143D8C",
"e8 c #0B2F7D",
"e9 c #06226B",
"ea c #0C225E",
"eb c #000C37",
"ec c #112E6A",
"ed c #3564B6",
"ee c #235AB5",
"ef c #346FC9",
"eg c #2756AE",
"eh c #2A57AC",
"ei c #0E2C74",
"ej c #041952",
"ek c #081B46",
"el c #1B2C58",
"em c #051B4C",
"en c #184BA6",
"eo c #174CA8",
"ep c #3C6FCB",
"eq c #3162BF",
"er c #2958B2",
"es c #214697",
"et c #051B4D",
"eu c #122F69",
"ev c #375593",
"ew c #2B447D",
"ex c #1E3D76",
"ey c #3863B1",
"ez c #3B6FC5",
"f0 c #194CA7",
"f1 c #18469E",
"f2 c #346FCD",
"f3 c #03328C",
"f4 c #4D88E2",
"f5 c #2149A0",
"f6 c #204595",
"f7 c #193A7F",
"f8 c #032469",
"f9 c #3B63AB",
"fa c #2D4988",
"fb c #0D3072",
"fc c #2F65BD",
"fd c #0E3A91",
"fe c #3272CA",
"ff c #4381D8",
"fg c #2D64BE",
"fh c #4D8AE3",
"fi c #4080D8",
"fj c #174CAC",
"fk c #0E3A99",
"fl c #204697",
"fm c #4F7ED0",
"fn c #3963AF",
"fo c #213B76",
"fp c #000A31",
"fq c #173C83",
"fr c #3B6DC6",
"fs c #1647A3",
"ft c #517CCB",
"fu c #020B2C",
"fv c #0A2E7A",
"fw c #1647A4",
"fx c #2457B3",
"fy c #2959AE",
"fz c #4F7CCD",
"g0 c #30569F",
"g1 c #132D68",
"g2 c #00092D",
"g3 c #0D3C96",
"g4 c #3671CD",
"g5 c #0E3995",
"g6 c #3C6EC5",
"g7 c #406EBC",
"g8 c #072362",
"g9 c #000C3A",
"ga c #1F2C56",
"gb c #3572CD",
"gc c #2758B7",
"gd c #2C57A5",
"ge c #041A54",
"gf c #2B396A",
"gg c #0A1950",
"gh c #5188E3",
"gi c #1A4AAC",
"gj c #1D49AA",
"gk c #2856B6",
"gl c #1C4595",
"gm c #041958",
"gn c #000B3C",
"go c #0D1A3C",
"gp c #28396D",
"gq c #061954",
"gr c #082066",
"gs c #4988E5",
"gt c #4D88E6",
"gu c #2159B8",
"gv c #2557B8",
"gw c #1846A4",
"gx c #0D3B99",
"gy c #000943",
"gz c #263B72",
"h0 c #0A1B47",
"h1 c #020923",
"h2 c #000312",
"h3 c #1A2B61",
"h4 c #051958",
"h5 c #1B46A2",
"h6 c #5087E4",
"h7 c #4989E1",
"h8 c #4880DD",
"h9 c #022372",
"ha c #010A27",
"hb c #112D76",
"hc c #184AA9",
"hd c #3171CB",
"he c #2C64C1",
"hf c #05194C",
"hg c #05194E",
"hh c #0D2E73",
"hi c #1A479A",
"hj c #194AA9",
"hk c #376DCD",
"hl c #477FDC",
"hm c #477EDB",
"hn c #467EDD",
"ho c #3066C0",
"hp c #061A4F",
"hq c #000118",
"hr c #00031F",
"hs c #163A84",
"ht c #3163B8",
"hu c #497EDA",
"hv c #1B49A7",
"hw c #1546A2",
"hx c #4F87E6",
"hy c #3E6DC5",
"hz c #062462",
"i0 c #3862B4",
"i1 c #386DC9",
"i2 c #042F8D",
"i3 c #0D3A97",
"i4 c #487DD9",
"i5 c #2A57AA",
"i6 c #102D71",
"i7 c #0C1A3D",
"i8 c #35569B",
"i9 c #3F6DC5",
"ia c #3A6FCB",
"ib c #052E88",
"ic c #1D48A6",
"id c #2D66BF",
"ie c #2B67BF",
"if c #4B88E3",
"ig c #072F87",
"ih c #2855B2",
"ii c #3E6DC7",
"ij c #2957AC",
"ik c #102D73",
"il c #081849",
"im c #33559F",
"in c #092E89",
"io c #133893",
"ip c #153A95",
"iq c #022279",
"ir c #3C6FCA",
"is c #052E86",
"it c #163A8E",
"iu c #0B2E80",
"iv c #0A2F80",
"iw c #2E57A9",
"ix c #0E2C72",
"iy c #102E74",
"iz c #113B91",
"j0 c #437EDA",
"j1 c #173B89",
"j2 c #112C73",
"j3 c #052467",
"j4 c #2C56A8",
"j5 c #3D6FC8",
"j6 c #3C6DCA",
"j7 c #3362BE",
"j8 c #0F2F7C",
"j9 c #103A8E",
"ja c #002279",
"jb c #153A92",
"jc c #2658AF",
"jd c #1D4BA0",
"je c #0C2160",
"jf c #1A3D81",
"jg c #406DC2",
"jh c #214A9C",
"ji c #122B6D",
"jj c #00010D",
"jk c #0B3081",
"jl c #2759B2",
"jm c #215AB4",
"jn c #3471CA",
"jo c #4481DA",
"jp c #3165BB",
"jq c #1E4B9C",
"jr c #1F3A7D",
"js c #000125",
"jt c #050A27",
"ju c #000C34",
"jv c #193C7E",
"jw c #204593",
"jx c #000839",
"jy c #0C2164",
"jz c #0D2E7F",
"k0 c #1B47A0",
"k1 c #2159B6",
"k2 c #1944A0",
"k3 c #3B6EC7",
"k4 c #0C2359",
"k5 c #00082F",
"k6 c #011B54",
"k7 c #2D56A5",
"k8 c #2C56AC",
"k9 c #193A81",
"ka c #010930",
"kb c #10205B",
"kc c #112C79",
"kd c #1B4AA6",
"ke c #498AE6",
"kf c #3F6DC2",
"kg c #23468A",
"kh c #162D61",
"ki c #33559D",
"kj c #3563B9",
"kk c #1F4BA2",
"kl c #204596",
"km c #0D1A46",
"kn c #102D7B",
"ko c #103991",
"kp c #2556B2",
"kq c #3265C1",
"kr c #4080DA",
"ks c #3363B8",
"kt c #34559A",
"ku c #1F499D",
"kv c #1C3A82",
"kw c #000928",
"kx c #07184E",
"ky c #0A2268",
"kz c #1A3989",
"l0 c #224AA2",
"l1 c #4C89E2",
"l2 c #396FC7",
"l3 c #3565B9",
"l4 c #2F56A1",
"l5 c #122E6D",
"l6 c #040B27",
"l7 c #213B74",
"l8 c #3962B1",
"l9 c #173B85",
"la c #010207",
"lb c #0F2C7A",
"lc c #163A90",
"ld c #244997",
"le c #00031B",
"lf c #041B4D",
"lg c #3D62A8",
"lh c #3563B8",
"li c #2955AE",
"lj c #224694",
"lk c #142C6A",
"ll c #00010E",
"lm c #19388A",
"ln c #2348A1",
"lo c #1B43A2",
"lp c #2958A8",
"lq c #1C4795",
"lr c #2956A9",
"ls c #2957AD",
"lt c #3962B2",
"lu c #112D6C",
"lv c #020111",
"lw c #001C54",
"lx c #416CBA",
"ly c #2A55B1",
"lz c #23499A",
"m0 c #1F3B7C",
"m1 c #081947",
"m2 c #00011D",
"m3 c #142C72",
"m4 c #0E2D7F",
"m5 c #20449A",
"m6 c #4F88E1",
"m7 c #3363B5",
"m8 c #0D2E71",
"m9 c #102D6F",
"ma c #1D49A0",
"mb c #204A9E",
"mc c #1B3A7D",
"md c #000B27",
"me c #0F2F6A",
"mf c #426CBE",
"mg c #2756B0",
"mh c #2D56B0",
"mi c #040207",
"mj c #0A2165",
"mk c #102B78",
"ml c #477DD3",
"mm c #000A39",
"mn c #061B50",
"mo c #31569C",
"mp c #34559C",
"mq c #0D2259",
"mr c #3764B7",
"ms c #011A5C",
"mt c #030009",
"mu c #142D70",
"mv c #0F2C78",
"mw c #143A81",
"mx c #091A45",
"my c #0A1A4D",
"mz c #436DC1",
"n0 c #041A56",
"n1 c #010A31",
"n2 c #07184C",
"n3 c #122C77",
"n4 c #012174",
"n5 c #0F3C91",
"n6 c #406EC3",
"n7 c #517BCD",
"n8 c #000228",
"n9 c #000233",
"na c #00093D",
"nb c #000320",
"nc c #07245E",
"nd c #3C62AD",
"ne c #163A86",
"nf c #061A59",
"ng c #112D77",
"nh c #153A8A",
"ni c #2F56A5",
"nj c #0A235B",
"nk c #051A51",
"nl c #021A58",
"nm c #142D6F",
"nn c #0A2164",
"no c #00041A",
"np c #000D39",
"nq c #385591",
"nr c #092262",
"ns c #1F3C7E",
"nt c #365598",
"nu c #385495",
"nv c #122E6F",
"nw c #244491",
"nx c #254899",
"ny c #284386",
"nz c #253B74",
"o0 c #1A2C5A",
"o1 c #0D1A3D",
"o2 c #000D2E",
"o3 c #283B65",
"o4 c #25396B",
"o5 c #000932",
"o6 c #253A73",
"o7 c #3E538A",
"o8 c #0C1842",
"o9 c #102159",
"oa c #254590",
"ob c #214495",
"oc c #2348A0",
"od c #23499C",
"oe c #34549D",
"of c #274486",
"og c #1F3878",
"oh c #1A2B5F",
"oi c #00041B",
"oj c #03030B",
"ok c #0C1A41",
"ol c #000930",
"om c #22448C",
"on c #1E3B7D",
"oo c #132D6A",
"op c #112152",
"oq c #00030C",
"or c #010109",
"os c #000414",
"ot c #010C2C",
"ou c #1A2C5E",
"ov c #0E2159",
"ow c #051850",
"ox c #091B4D",
"oy c #0B1A43",
"oz c #00031A",
"p0 c #00022E",
"p1 c #000939",
"p2 c #000931",
"p3 c #000226",
"++++0e0e43432r..        XX    ++++3u..2s1o5n4525255n180z//371k1k57jj06XX    la0e1jXX0h++....XX1t    ",
"++++  0e    ....0h      XX    ++  XX1j2o8ugagfgph35x3zhr56i73x9v594x182o0z060k  XXXX09++    XXXX    ",
"    XXXX28......    XX1a0k0e    060z2o29g21pgggqh45ohg7bhzi8imiy5o3tjxka1s0t06    0h  09  0h        ",
"    282828....091a0k067p7s//572w2m307a451r5o5sgr6hhbhhhsi0i94kizj89ajykbkmkw10llXX09  0h0e0e0h      ",
"0e0e          XX6z0z//2y7t562aemexfbfqfv8v93937r3e5yhiht8hia0f5cj9jkjzkc5skx9v1o7s1h0909XX1tXXXX    ",
"    0h  ++1h0k0w37d12x1i4ee3ec86ey7hfr8q22715t5th52b5uhui10u4p215c3g1l2gknkyai5xm24b44    XX1t1a    ",
"..    09++0e6z4f7ad24u7qdve4ed87ezfc7g5g8w94gh5gh62p50hv3n19809l||jlk09q47kzlb3hap35//  090h        ",
"....      0w4f357b6gda4y0a13580b1f0v||0d08084z4z1n52hj0s1vib0i5h||5z191v4r2dlclmm31r2m0q1a3u        ",
"++++  XX44112a497c417m0a0u4s0b0b||0a0jfw0f1f2424335p0l4l0y7n8g4k3i5a0i19kol0aj2dm4mja6290q..++++    ",
"1h++0h06bx3049cq7d0i0a1m54153j88f00i0s0s1c5p3m330n0c0x4y0r3q9o9w3i||0mkd5t316wln9nmk6an12y6e  ++    ",
"++3u..bjbyc87077383a1x080808580ff18g0r0j0x0c3m0d0d13500x0jicin3ra0210m4y223s32aom575mun28u0t0k1h    ",
"++0h6e2945c9ci0m||7j0g0g3f083jen8bfd0r3p0l1g2p0d0u0f0c0x0l7wio3r9x||0c17kp19342ca73emv5s261o//0k    ",
"2r1j6f3zbzcacj0a0dd30p4v55082feo8c3n3o230l1g2q3d0c5p1g0x9j7vip3r5i2p0c2qkq8x0slo7lao6nn3nf5xam//06  ",
"..2s3vbk426u710f0b0o4v0p14150v131c0j230x0a4w0a0c0chc1g0c9j3p1u5m0a880n3m9e242q3o4i9w2nn4ngaio5290q  ",
"XX0t2x40c06v121m0g0p1y0p081w0707721g0c0c0a5a||21210f0n2q0l230j9x||5r24070b158k0d907f8cn5nhns1rax//  ",
"061826blc14c4g4j0g0p0p0o0815150b0707518r0f||||||||133d0n0l0l0a0u0vjm150b5k14089h536296n6ninto6an0t  ",
"0w682ubm4612||0b1b0g084z1n1n2k2kf21d0b248x1e0a||||13130f0f||||0d1w1bk1080g980p0om6ml87n7asnuo7okos0e",
"0t2tb7bnc2120u074p4s4w3d7u1d080o0o0g1z0b||0a2q0n4g0f1f0d4s0v0f1f9k9g2k3fkr1yagakm78fmwarnjavaw3y//0e",
"6469b8boc30m33134q7k7n7e||1z200g5dfe5d163j070d||||540b9g0d9m1f0d1wjn2lke1yagaklpm8631qau1k102j1106  ",
"ay1pb96k190c72cr7e4tdb2d4c2f203k3kff16165k2k155v1x7j1z1b9kid1w5va1jo0p1y82l162lq9z1p1s2o////2w100z06",
"1i2u6g410i0c0xcs2dd4dc7rdw7y1x2f0u8h2f3k8y5q2l982l5q141b1bie1b1416951614147z0dlrm9mm2w//67axo8ol2j//",
"25b33w6l0r0j0sct39d5dddndx3i215af37k4c3a1xgb97gs1y8t5q0g16160gj0a13k5v5r0b150nls7cmn1k10352vo93totoz",
"65b4babp6rcb342c6s39de3e3g3i0a894m8i8i8s8z071d14h79d0p0p0oif203j7y3a0f0d07510l19afar691o256y9b403x35",
"azb5bbbqc46w34cu4r4ddfdo2h0a805b2n392g2ng30f0b555d9d1y4v205g1389a2a25z0u070n232e6vmomxn8nknv4u48oup0",
"1p6a6h6m6s1l0y4k1l2d2g2c7v0c81222n4d2c3q905r08550phd971z0u223s4m4t315b0a0u||172emaasav3lnl9yoa76ov25",
"1q6bbc6n471l4h0i314tdgdp7w0l4w5c5e5e735h8w950g3f5w5w1d1f3nig9p2gja4rk20m||0v1719mbmp8pn9nmnwoba4owp1",
"1p6bbdbrc5312b0j6r32dh1u2i0i1cep3afg4j200o8y0o08089907hw3r9niq392ga78m0i0d1w0a3gaq4nmyna9fnxoc7q1rp2",
"1ib6bebsc6cc4i4l1v7l360r0r0i1e1mf4fh0p8t0g140899081z075z3s2c2n5yjb8s2h8z9ml2alltmcmq5n1pnn70odomoxp3",
"b02v6i6o6tcd730r1u1udi0s1c1eee1b16fi2l0og45k0bgt8d0o0g9h3c60ir38jcjp0v0760l3ldlu3l6c10nb2unyoeonaa27",
"6626bf6o6k1l0y0r0y360sdq0c54ef160g3f0g1b1f1m52gu1d5w0g081x0v070va362943cksl4ad612m//443785nzofoooy2t",
"b11qbg6p4732ck360s0j0x500b20822l8d1d0d||0m0lgigv0n9e7u8r5bih8q5u60a3k3kfa9l51q1s//0k090z2to0og6q3y11",
"67276jbt6m4d321u0j3b7odr1z0o0p0o1d5f0f0m0j0sgj3p1g3dhk1gi29ois5ejdjqa9kg484eamlv061t  0q9uo1ohop5j0w",
"0t6cbh42c76xcl4m0s3bdj51dy140o2k5ffj1g0m2i3q36gw1e0v0b||1u9pitj1a4jrk46127l64b1j0q0q0q2s//2j9i92//0k",
"0q2w3x6q2zce741l4i0l7o521d084j1m0n8j33fx2b7m0rgx0m13hl0v0y9q6x9yjea5k5ab1s5jle3vmd56591ono4f4o6f06  ",
"XX6d3ybu48cf74782e0cdk1n087z0n0n3m8k07072p0c0l8e1c0ahm1f0i83iuj2a5js2964ab2alflwmeatatncnpo22j0z0k  ",
"  0w1kbv49cgcm6l4h0n1n0b53e51eeq||4p0d0791910x0l3o1e071m1e3s3e3h1ijt1k2tael7lglxmfmrmzndnqo3oi0w0k  ",
"++062y2x40ch75cv381w0853dze6eg120a0f0f||5lgcgk231c0n1n1n4g8biv9z842m2akhktl8lhalmg22a8aq4no4680w0k  ",
"++XXbibw1r42cncw7f2f3cdse0e7eher170mfs5i0j0j0s0j1e07hnhx9liiiwj361juk6kiaf12170m3b2e7dnenrae18oq0k  ",
"1h0906101i6yco797g3cdldte1e8832e8efk190yg50y2i1c210v1507||129sj4jfjvk7kj0i0m3b3p0saj3w6j261o//0k    ",
"++    //4a4e76cx7hd6dmdu3he96t8a0y0y8m1v8a3q0i0a0d1x078j0m5i17j5jg8o9s1c0l0lah4lmh6pn0aw4a0t06      ",
"0h09  1j4b1scp4nczd71q2a2veaeiesf51v78345m0i0c070b582p172i0y0ij64q38a0ac23ah0xly6ums1q1s2o06  ++    ",
"    ....  0t27cyd0d84x187xebej2zf6411l1v2h125l07h8he2481i35m9t17179r4hac0j3olilz4u9c4a//06          ",
"b20e++++++060t4o7id90z0q0z1884etf7fl8nfyg6965u5h0n5f0b1m0m0j0r2i0r0r0i2b1277ljm0apau110k      09    ",
"0e0e++++++  XXXX  0h1aXX09//5965f88l8ofzg7gdgl463g12ho0u5l9r2b2h9t3n2hkkkul9lkm166180q  ++1hXX1a    ",
"    ....    1tXX    XXXX061085eu8ffmftg0g8gegm3hh95y8nhyi40u4qj722a8k8klkv63an4x4o2s1j..++++ojor    ",
"  09      09XX        XXe22jekevf9fn86g1g91igngy9a3w8v8li5ij7946jhjwk9ad2u27180q1jmt2809      XX    ",
"2r0h++1h      092r..    1t10elewfafo8p1i921o26gz9b6i9f2zi6ikix2zji63aa301k6d0qXX....    0h          ",
"..09++43      0h....      //303l3lfpfu5j//11goh09chfhp1r3til3t2va62x3v0t06      mi++  0eXX1a....    ",
"                          06//111157//0w060w37h1ha7x3z9i2m7t9u7i110t0z06XX                          ",
"                                      09  0k7ph21110hq2y//0w1a09                                    "
};